<?xml version="1.0" standalone="no"?>
<!DOCTYPE svg PUBLIC "-//W3C//DTD SVG 20010904//EN"
 "http://www.w3.org/TR/2001/REC-SVG-20010904/DTD/svg10.dtd">
<svg version="1.0" xmlns="http://www.w3.org/2000/svg"
 width="840.000000pt" height="840.000000pt" viewBox="0 0 840.000000 840.000000"
 preserveAspectRatio="xMidYMid meet">
<metadata>
Created by potrace 1.14, written by Peter Selinger 2001-2017
</metadata>
<g transform="translate(0.000000,840.000000) scale(0.100000,-0.100000)"
fill="#000000" stroke="none">
<path d="M4166 8374 c-13 -19 -21 -23 -29 -15 -16 16 -44 14 -50 -4 -4 -8 4
-22 19 -34 20 -16 23 -23 15 -44 -8 -20 -6 -29 6 -38 13 -11 19 -9 37 13 17
21 25 24 44 17 45 -17 58 15 18 45 -20 15 -23 21 -14 36 13 20 4 50 -14 50 -7
0 -21 -12 -32 -26z"/>
<path d="M3445 7924 c-15 -15 -15 -18 1 -35 21 -23 19 -23 38 -3 12 12 13 20
6 35 -13 23 -24 24 -45 3z"/>
<path d="M3923 7929 c-13 -13 -6 -46 12 -53 7 -2 21 4 30 13 15 17 15 20 0 35
-19 19 -27 20 -42 5z"/>
<path d="M4183 7933 c-7 -2 -13 -16 -13 -29 0 -19 5 -24 24 -24 28 0 42 26 25
46 -12 15 -16 16 -36 7z"/>
<path d="M3562 7574 c-16 -23 -21 -25 -41 -14 -15 8 -27 8 -33 2 -13 -13 0
-52 17 -52 10 0 14 -11 12 -37 -2 -45 22 -57 42 -19 12 21 17 23 37 14 17 -8
27 -8 39 2 22 18 19 26 -15 40 -29 12 -30 14 -15 36 19 30 19 31 -4 44 -16 8
-23 5 -39 -16z"/>
<path d="M3832 7580 c-61 -37 -57 -14 -66 -450 -3 -135 -5 -245 -6 -245 0 0
-2 -97 -5 -215 -9 -480 -8 -460 -25 -461 -58 -3 -220 -38 -220 -48 0 -3 12
-45 28 -92 l27 -86 -160 3 c-208 4 -324 -20 -457 -94 -52 -29 -55 -36 -34 -84
42 -98 54 -138 43 -139 -7 -1 -28 -3 -47 -5 -101 -9 -192 -36 -297 -86 -46
-22 -83 -43 -83 -47 0 -5 16 -52 35 -105 19 -53 35 -99 35 -100 0 -2 -17 -7
-37 -12 -21 -4 -40 -8 -43 -9 -3 -1 -20 -5 -38 -9 -24 -6 -31 -12 -28 -24 6
-18 15 -84 21 -142 2 -19 8 -69 14 -110 6 -41 14 -102 17 -135 6 -60 6 -60
-32 -95 -35 -32 -84 -59 -121 -67 -7 -2 -21 -5 -30 -7 -10 -3 -28 -5 -40 -5
-27 -1 -30 -23 -8 -65 8 -15 15 -33 15 -40 0 -21 92 -116 132 -137 22 -11 65
-21 99 -23 33 -2 62 -6 65 -8 2 -3 18 -61 34 -129 45 -184 100 -358 120 -382
3 -4 35 -9 71 -11 35 -3 67 -5 71 -5 4 -1 2 -16 -3 -33 -11 -38 -10 -143 2
-176 5 -12 11 -34 13 -48 7 -37 25 -54 137 -130 54 -37 102 -77 105 -88 4 -12
14 -39 24 -61 9 -22 32 -78 50 -125 18 -47 38 -99 46 -117 8 -17 14 -35 14
-40 0 -5 9 -19 20 -30 16 -18 61 -33 148 -49 8 -1 15 -4 17 -6 3 -3 15 -264
19 -411 l2 -69 -50 -23 c-28 -12 -120 -53 -204 -89 l-153 -67 -62 29 c-34 16
-114 53 -177 82 -63 29 -144 66 -180 82 -154 72 -148 70 -170 48 -19 -19 -19
-22 -5 -58 9 -20 25 -52 36 -71 11 -18 18 -35 16 -37 -2 -2 -43 -5 -91 -6 -74
-1 -89 -4 -101 -21 -7 -11 -11 -26 -8 -34 5 -13 197 -146 213 -148 5 -1 28
-15 160 -100 36 -23 83 -52 105 -65 22 -13 42 -28 43 -32 2 -4 8 -8 14 -8 5 0
33 -15 61 -34 182 -118 165 -111 247 -108 110 3 177 9 188 16 6 3 13 2 17 -4
4 -6 10 -8 14 -5 5 2 54 7 110 11 99 6 115 2 89 -24 -7 -7 -9 -12 -6 -12 4 0
-4 -32 -17 -70 -13 -39 -22 -70 -20 -70 3 0 0 -11 -5 -25 -5 -14 -13 -38 -16
-53 -9 -35 -11 -310 -2 -342 3 -14 9 -38 13 -55 10 -45 56 -165 78 -205 16
-30 170 -295 197 -340 30 -49 136 -232 158 -270 13 -25 31 -53 40 -62 8 -10
11 -18 7 -18 -4 0 -1 -8 7 -17 9 -10 24 -34 33 -53 10 -19 21 -37 24 -40 3 -3
17 -25 30 -50 40 -76 49 -81 168 -79 109 2 125 9 125 51 0 26 -8 78 -16 105
-3 10 -7 29 -10 43 -3 14 -12 57 -21 95 -8 39 -18 86 -21 105 l-5 35 333 1
c183 0 367 4 410 8 l76 6 7 -42 c9 -61 13 -86 20 -143 10 -85 14 -119 19 -155
3 -19 8 -55 12 -80 11 -79 20 -100 44 -100 10 0 61 16 114 36 110 42 95 24
211 249 43 83 101 195 130 250 29 55 82 156 117 225 36 69 96 184 134 255 115
221 141 278 169 365 15 47 49 146 77 220 27 74 59 163 71 197 12 35 25 63 29
63 12 0 20 -62 13 -108 -4 -26 -9 -58 -10 -72 -11 -105 -17 -157 -20 -170 -2
-8 -7 -43 -10 -77 -3 -34 -7 -70 -9 -80 -2 -10 -7 -45 -10 -78 -4 -33 -9 -71
-11 -85 -2 -14 -6 -51 -10 -82 -6 -55 -5 -59 20 -70 24 -11 29 -9 56 20 16 17
29 33 29 37 0 10 45 75 52 75 4 0 40 -32 79 -70 40 -39 80 -70 90 -70 33 0 58
64 73 192 3 21 14 88 25 150 11 62 23 127 26 143 2 17 7 39 9 50 2 11 7 42 10
68 4 27 9 59 12 70 5 25 20 123 29 182 3 23 7 50 9 60 2 11 7 49 11 85 4 36 9
73 11 84 2 10 6 44 9 75 4 31 9 64 12 74 2 10 6 37 8 60 3 41 9 89 21 172 4
22 8 58 10 80 3 37 7 63 20 142 l5 33 95 -65 c53 -36 100 -65 104 -65 36 0 78
93 103 230 13 74 15 276 3 335 -24 118 -35 162 -62 236 -15 41 -31 78 -36 84
-4 5 -8 14 -8 21 0 9 16 7 60 -6 71 -22 89 -13 99 46 20 115 -59 282 -207 435
-42 45 -83 93 -91 107 -13 25 -12 28 32 67 35 31 44 46 42 65 -2 20 4 30 25
42 26 15 29 21 24 55 -2 21 -6 61 -8 90 -2 28 -7 60 -10 70 -8 27 3 36 68 58
180 59 290 202 285 372 -2 75 -20 120 -42 106 -7 -4 -19 -9 -27 -10 -67 -12
-121 -16 -222 -19 -157 -3 -243 21 -335 94 -52 42 -57 56 -43 129 6 32 13 72
15 88 3 17 7 41 10 55 7 33 12 60 19 101 3 19 8 45 11 59 2 13 7 42 11 64 3
22 7 43 9 46 1 3 6 26 9 52 6 43 4 48 -23 67 -127 91 -357 145 -603 144 -54
-1 -98 3 -98 8 0 5 4 17 9 27 21 39 40 83 46 110 5 27 2 30 -83 71 -49 23 -98
44 -108 46 -11 2 -19 4 -19 5 0 1 -7 3 -15 5 -8 2 -40 11 -70 19 -30 8 -75 18
-100 21 -25 4 -58 9 -75 11 -46 7 -245 7 -290 0 -22 -3 -60 -8 -84 -11 -23 -3
-47 -8 -52 -11 -13 -8 -11 6 11 69 11 31 20 61 20 66 0 14 -109 30 -225 33
-61 1 -215 -11 -226 -17 -3 -2 -21 -7 -40 -10 -49 -9 -196 -60 -254 -88 l-50
-25 -29 77 c-15 42 -41 110 -56 151 -16 41 -47 127 -70 190 -23 63 -45 124
-50 135 -4 11 -18 47 -30 80 -12 33 -26 69 -30 80 -5 11 -18 47 -30 80 -11 33
-24 67 -27 75 -3 8 -7 17 -7 20 -1 3 -6 19 -13 35 -6 17 -39 104 -73 195 -69
184 -91 215 -155 216 -19 0 -48 -7 -63 -16z m54 -620 c0 -12 -4 -16 -9 -11 -5
5 -6 14 -3 20 10 15 12 14 12 -9z m89 0 c-3 -5 -12 -10 -18 -10 -7 0 -6 4 3
10 19 12 23 12 15 0z m70 -88 c-3 -3 -11 0 -18 7 -9 10 -8 11 6 5 10 -3 15 -9
12 -12z m-35 -26 c0 -3 -4 -8 -10 -11 -5 -3 -10 -1 -10 4 0 6 5 11 10 11 6 0
10 -2 10 -4z m74 -492 c3 -8 2 -12 -4 -9 -6 3 -10 10 -10 16 0 14 7 11 14 -7z
m-194 -108 c0 -2 -7 -7 -16 -10 -8 -3 -12 -2 -9 4 6 10 25 14 25 6z m115 -126
c3 -5 1 -10 -4 -10 -6 0 -11 5 -11 10 0 6 2 10 4 10 3 0 8 -4 11 -10z m50
-280 c-3 -5 -12 -10 -18 -10 -7 0 -6 4 3 10 19 12 23 12 15 0z m965 -2016 c0
-14 -22 -44 -38 -53 -45 -24 -405 -121 -428 -115 -41 11 -27 30 34 44 31 7 58
12 60 11 1 -1 16 6 32 14 17 9 30 13 30 11 0 -4 123 35 160 51 8 3 22 7 30 9
9 2 31 10 50 18 36 16 70 21 70 10z m-960 -211 c0 -23 -36 -30 -146 -29 -108
2 -144 11 -144 38 0 5 63 7 145 6 106 -2 145 -6 145 -15z"/>
<path d="M4412 7406 c-10 -22 -15 -24 -36 -16 -16 6 -29 5 -40 -3 -18 -14 -11
-29 21 -46 19 -10 21 -15 11 -30 -13 -22 -5 -51 15 -51 8 0 19 11 25 25 10 22
15 24 38 15 18 -7 30 -7 40 1 16 13 8 36 -17 44 -14 5 -18 15 -16 43 2 45 -23
56 -41 18z"/>
<path d="M3425 7056 c-24 -26 -25 -35 -4 -47 19 -10 25 -9 36 7 17 24 16 31
-4 43 -12 6 -22 5 -28 -3z"/>
<path d="M1571 4256 c-13 -16 -4 -46 14 -46 7 0 18 6 24 14 9 11 8 18 -4 30
-20 19 -20 19 -34 2z"/>
<path d="M1118 3892 c-9 -2 -20 -12 -23 -22 -5 -16 -10 -17 -32 -9 -32 12 -50
-1 -36 -26 6 -9 14 -18 19 -18 5 -1 8 -17 6 -34 -2 -26 1 -33 15 -33 10 0 24
9 31 20 10 16 16 18 37 10 35 -13 45 13 15 38 -18 15 -21 22 -12 38 13 24 3
41 -20 36z"/>
<path d="M1686 3891 c-10 -16 5 -41 24 -41 19 0 30 17 23 38 -5 14 -39 16 -47
3z"/>
<path d="M1934 3892 c-6 -4 -32 -83 -58 -177 -26 -93 -51 -181 -56 -195 -28
-80 -68 -250 -63 -268 4 -17 25 -28 107 -52 55 -18 110 -34 121 -38 11 -3 23
-7 28 -8 4 -1 8 -2 10 -4 1 -1 9 -3 17 -5 8 -2 37 -8 65 -15 l50 -11 142 144
c102 103 141 149 138 163 -2 10 -4 22 -4 25 -1 9 -44 51 -237 235 -251 239
-233 225 -260 206z m221 -287 c60 -58 107 -105 104 -105 -3 0 -30 4 -60 10
-30 5 -67 12 -83 14 -31 5 -46 20 -46 46 0 8 -9 43 -19 78 -11 34 -16 62 -13
62 4 0 56 -48 117 -105z m-187 79 c-4 -3 -2 -20 3 -37 6 -18 12 -39 14 -47 2
-8 9 -30 14 -49 11 -37 8 -49 -23 -71 -12 -8 -38 -30 -59 -49 -21 -18 -39 -32
-42 -30 -2 2 10 51 26 109 16 58 34 122 40 143 5 20 15 37 21 37 6 0 9 -3 6
-6z m227 -268 c17 -3 46 -8 65 -11 19 -3 36 -8 38 -9 3 -4 -134 -146 -141
-146 -2 0 -4 6 -4 13 0 13 -30 127 -39 151 -5 14 14 15 81 2z m-121 -150 l7
-35 -48 14 c-26 7 -67 19 -90 25 -24 6 -43 16 -42 23 0 7 30 35 67 64 l66 52
17 -54 c9 -30 20 -70 23 -89z"/>
<path d="M2342 3892 c-17 -12 -4 -42 18 -42 19 0 34 25 24 41 -6 11 -25 11
-42 1z"/>
<path d="M1483 3368 c-11 -16 -11 -28 3 -51 13 -22 44 -13 44 13 0 45 -26 65
-47 38z"/>
<path d="M2297 3211 c-69 -70 -128 -127 -129 -126 -2 2 -17 5 -35 8 -17 3 -36
8 -41 11 -4 3 -20 7 -34 10 -14 2 -52 12 -84 21 -33 10 -66 20 -74 22 -8 2
-16 4 -17 4 -2 0 -16 4 -33 9 -22 6 -34 5 -45 -6 -32 -32 -13 -65 80 -139 52
-41 98 -81 121 -102 7 -7 16 -13 20 -13 3 0 14 -8 23 -18 9 -10 52 -47 96 -82
44 -36 82 -68 83 -72 6 -14 28 -9 44 10 12 14 113 269 121 307 2 6 19 53 39
105 46 118 44 109 35 148 -4 22 -12 32 -25 32 -10 0 -74 -56 -145 -129z m6
-168 c-14 -38 -29 -81 -35 -96 -11 -28 -18 -30 -22 -5 -1 7 -4 18 -7 23 -13
24 -1 57 36 98 22 25 43 46 47 46 3 1 -5 -29 -19 -66z m-203 -38 c23 -5 66
-24 58 -24 -4 -1 0 -17 8 -36 23 -56 2 -46 -100 48 -34 31 -37 30 34 12z"/>
<path d="M1299 3188 c-2 -19 8 -110 17 -152 5 -26 11 -66 19 -130 7 -61 21
-87 43 -84 13 2 17 -4 16 -24 -1 -29 -4 -28 161 -73 33 -10 73 -21 89 -26 63
-20 68 -16 65 59 -2 37 -6 77 -11 90 -6 17 -5 21 4 16 6 -4 8 -3 5 3 -3 5 -9
40 -12 77 -3 38 -8 72 -11 77 -8 13 -34 11 -34 -2 0 -6 -6 -25 -14 -42 -8 -18
-22 -53 -31 -79 -10 -27 -22 -48 -26 -48 -9 0 37 138 53 158 6 6 7 12 4 12 -4
0 -2 8 3 19 21 38 3 48 -223 126 -111 39 -116 40 -117 23z m183 -108 l39 -17
-31 -6 c-33 -7 -60 5 -79 35 -11 18 -10 19 10 13 12 -4 39 -15 61 -25z m-91
-41 c21 -30 21 -32 5 -66 -9 -20 -19 -34 -21 -32 -2 2 -6 24 -10 49 -3 25 -8
53 -11 63 -8 27 13 20 37 -14z m175 -63 c-18 -42 -25 -44 -49 -10 -22 29 -20
33 19 40 16 3 31 7 33 10 12 12 11 -8 -3 -40z m-69 -72 c-2 -3 -23 -6 -46 -9
-40 -4 -41 -3 -30 18 25 49 32 51 57 22 12 -15 21 -29 19 -31z m166 -74 l5
-45 -19 23 c-15 19 -16 28 -7 48 14 30 15 29 21 -26z m-58 -50 c3 -5 -1 -10
-9 -10 -8 0 -18 5 -21 10 -3 6 1 10 9 10 8 0 18 -4 21 -10z"/>
<path d="M2640 3155 c-10 -19 -17 -22 -31 -15 -21 12 -49 3 -49 -15 0 -12 27
-30 42 -27 4 1 2 -12 -4 -29 -13 -38 1 -58 25 -35 8 9 17 21 19 28 3 7 9 8 19
3 41 -26 65 3 28 34 -19 15 -21 22 -12 32 8 8 9 18 2 31 -13 24 -23 23 -39 -7z"/>
<path d="M2532 2821 c-18 -11 -23 -48 -8 -61 20 -15 46 -1 46 25 0 27 -21 47
-38 36z"/>
<path d="M1843 2773 c-19 -7 -16 -40 4 -47 22 -9 36 7 28 33 -6 21 -11 23 -32
14z"/>
<path d="M1591 2624 c-9 -20 -14 -22 -34 -15 -16 6 -28 6 -36 -2 -17 -17 -13
-27 14 -37 22 -8 24 -12 14 -36 -15 -42 6 -56 34 -23 19 23 25 25 45 16 38
-17 50 6 18 36 -22 21 -25 29 -17 50 8 21 7 26 -9 30 -12 3 -21 -3 -29 -19z"/>
<path d="M1936 2481 c-8 -13 2 -54 16 -62 24 -15 45 34 25 59 -11 14 -33 16
-41 3z"/>
</g>
</svg>
