<?xml version="1.0" encoding="UTF-8" standalone="no"?>
<svg
   width="68.199997mm"
   height="68.199997mm"
   viewBox="0 0 193.32283 193.32283"
   version="1.2"
   id="svg162"
   sodipodi:docname="Algorand.svg"
   inkscape:version="1.1.1 (3bf5ae0d25, 2021-09-20, custom)"
   xmlns:inkscape="http://www.inkscape.org/namespaces/inkscape"
   xmlns:sodipodi="http://sodipodi.sourceforge.net/DTD/sodipodi-0.dtd"
   xmlns:xlink="http://www.w3.org/1999/xlink"
   xmlns="http://www.w3.org/2000/svg"
   xmlns:svg="http://www.w3.org/2000/svg">
  <sodipodi:namedview
     id="namedview164"
     pagecolor="#ffffff"
     bordercolor="#666666"
     borderopacity="1.0"
     inkscape:pageshadow="2"
     inkscape:pageopacity="0.0"
     inkscape:pagecheckerboard="0"
     inkscape:document-units="pt"
     showgrid="false"
     units="mm"
     borderlayer="true"
     inkscape:zoom="2.828427"
     inkscape:cx="24.571962"
     inkscape:cy="118.61717"
     inkscape:window-width="2560"
     inkscape:window-height="1381"
     inkscape:window-x="0"
     inkscape:window-y="0"
     inkscape:window-maximized="1"
     inkscape:current-layer="layer1"
     inkscape:showpageshadow="false" />
  <defs
     id="defs5">
    <linearGradient
       inkscape:collect="always"
       id="linearGradient36138">
      <stop
         style="stop-color:#ffcc00;stop-opacity:1"
         offset="0"
         id="stop36134" />
      <stop
         style="stop-color:#ffe680;stop-opacity:1"
         offset="1"
         id="stop36136" />
    </linearGradient>
    <clipPath
       id="clip1">
      <path
         d="M 0,0 H 255.11719 V 198.42578 H 0 Z m 0,0"
         id="path2" />
    </clipPath>
    <linearGradient
       inkscape:collect="always"
       xlink:href="#linearGradient36138"
       id="linearGradient36140"
       x1="34.551678"
       y1="189.79335"
       x2="153.18764"
       y2="26.434738"
       gradientUnits="userSpaceOnUse" />
    <linearGradient
       inkscape:collect="always"
       xlink:href="#linearGradient36138"
       id="linearGradient36991"
       gradientUnits="userSpaceOnUse"
       x1="34.551678"
       y1="189.79335"
       x2="153.18764"
       y2="26.434738" />
  </defs>
  <g
     inkscape:groupmode="layer"
     id="layer1"
     inkscape:label="F.Cu"
     style="display:inline">
    <path
       id="path36572"
       style="display:inline;fill:#d48e00;fill-opacity:1;fill-rule:nonzero;stroke:none;stroke-width:1;stroke-miterlimit:4;stroke-dasharray:none"
       d="M 131.68359 -0.046875 A 10.555576 10.555576 0 0 0 131.3457 -0.0078125 A 17.027453 17.027453 0 0 0 131.29102 -0.01953125 A 17.027453 17.027453 0 0 0 131.12109 0.013671875 A 17.007875 17.007875 0 0 0 125.05664 1.2207031 A 17.027453 17.027453 0 0 0 124.88477 1.2539062 A 17.027453 17.027453 0 0 0 124.64648 1.3613281 A 17.027453 17.027453 0 0 0 124.39062 1.53125 A 17.007875 17.007875 0 0 0 119.61328 4.7246094 A 17.027453 17.027453 0 0 0 119.38281 4.8789062 A 17.027453 17.027453 0 0 0 119.16211 5.0996094 A 17.027453 17.027453 0 0 0 119.00586 5.3339844 A 17.007875 17.007875 0 0 0 115.81055 10.115234 A 17.027453 17.027453 0 0 0 115.63867 10.373047 A 17.027453 17.027453 0 0 0 115.53711 10.595703 A 17.027453 17.027453 0 0 0 115.5 10.785156 A 17.007875 17.007875 0 0 0 114.29688 16.832031 A 17.027453 17.027453 0 0 0 114.26172 17.007812 A 17.027453 17.027453 0 0 0 114.29492 17.177734 A 17.007875 17.007875 0 0 0 115.39453 22.904297 A 17.027453 17.027453 0 0 0 115.46094 23.25 A 17.027453 17.027453 0 0 0 115.46875 23.267578 A 17.027453 17.027453 0 0 0 115.6543 23.560547 A 17.007875 17.007875 0 0 0 118.79688 28.503906 A 17.027453 17.027453 0 0 0 118.87695 28.630859 L 116.32227 36.658203 L 110.57812 54.703125 C 110.56479 54.705925 110.55226 54.710091 110.53906 54.712891 C 109.11386 55.010921 107.69985 55.342428 106.30078 55.708984 C 106.21665 55.731024 106.13481 55.758957 106.05078 55.78125 C 104.72899 56.13181 103.41779 56.507817 102.12109 56.917969 C 101.94499 56.973702 101.77328 57.03889 101.59766 57.095703 C 100.38535 57.487687 99.182861 57.897014 97.994141 58.339844 C 97.835821 58.398857 97.681317 58.465497 97.523438 58.525391 C 96.334184 58.976325 95.154261 59.446642 93.990234 59.947266 C 93.795074 60.031239 93.60457 60.123628 93.410156 60.208984 C 92.281863 60.704035 91.16158 61.215202 90.058594 61.755859 C 89.888407 61.839339 89.722308 61.929117 89.552734 62.013672 C 88.428321 62.573931 87.315203 63.151286 86.21875 63.757812 C 86.102217 63.822306 85.98922 63.89203 85.873047 63.957031 C 84.732594 64.594707 83.60456 65.253021 82.496094 65.939453 C 82.40836 65.9938 82.323808 66.052774 82.236328 66.107422 C 81.108688 66.811247 79.99703 67.536205 78.904297 68.289062 C 78.828564 68.341289 78.755274 68.396755 78.679688 68.449219 C 77.568888 69.219681 76.475157 70.012402 75.402344 70.832031 C 75.383944 70.846111 75.366056 70.860893 75.347656 70.875 C 74.232376 71.728464 73.13874 72.608849 72.066406 73.513672 C 72.051206 73.526472 72.036684 73.539934 72.021484 73.552734 C 70.943124 74.463884 69.888442 75.400085 68.855469 76.361328 C 67.811549 77.332759 66.792515 78.328953 65.796875 79.349609 C 62.810128 82.411445 60.048503 85.690295 57.53125 89.160156 C 56.691943 90.317079 55.880883 91.494967 55.097656 92.693359 L 15.035156 92.492188 C 13.45821 91.070254 11.396012 90.19861 9.1328125 90.177734 C 4.1334125 90.131574 0.043006875 94.254908 -0.001953125 99.398438 C -0.046886458 104.53171 3.9682563 108.73704 8.9726562 108.7832 C 9.9391762 108.79214 10.871967 108.64495 11.748047 108.36523 L 41.443359 130.48047 C 41.257359 132.10621 41.109072 133.74333 41.013672 135.39453 C 41.012339 135.41866 41.009146 135.44253 41.007812 135.4668 C 40.912879 137.13404 40.853516 138.80944 40.853516 140.5 C 40.853516 141.93428 40.892271 143.35985 40.960938 144.77734 C 40.987471 145.32596 41.039505 145.8681 41.076172 146.41406 C 41.135639 147.29866 41.193644 148.18328 41.279297 149.06055 C 41.33863 149.66948 41.418474 150.27171 41.490234 150.87695 C 41.583034 151.65782 41.675782 152.43842 41.789062 153.21289 C 41.888529 153.89442 42.005974 154.56968 42.121094 155.24609 C 42.220827 155.83123 42.322194 156.41496 42.433594 156.99609 C 42.8829 159.34511 43.429153 161.65853 44.0625 163.9375 C 44.1349 164.19738 44.20851 164.45594 44.283203 164.71484 C 44.954483 167.04606 45.712773 169.34022 46.568359 171.58789 C 46.623159 171.7315 46.682761 171.87236 46.738281 172.01562 C 50.456015 181.62889 55.818388 190.42174 62.484375 198.05859 L 62.482422 198.06641 L 56.314453 218.32422 L 49.900391 239.38477 C 48.112057 240.51453 46.694259 242.28096 46.009766 244.49609 C 44.501459 249.39348 47.13355 254.61996 51.908203 256.17383 C 56.677856 257.72765 61.770977 255.01459 63.279297 250.11719 C 63.570724 249.17408 63.707091 248.2185 63.705078 247.2793 L 63.705078 247.27539 L 96.378906 222.0293 C 96.38424 222.03063 96.390884 222.03382 96.396484 222.03516 C 97.629138 222.52236 98.873706 222.98197 100.13281 223.41406 C 100.14855 223.4194 100.16382 223.42604 100.17969 223.43164 C 101.41189 223.85369 102.65405 224.24929 103.91016 224.61719 C 104.00229 224.64425 104.0953 224.66865 104.1875 224.69531 C 105.36705 225.03654 106.55463 225.35807 107.75391 225.65039 C 107.96532 225.70212 108.17862 225.74865 108.39062 225.79883 C 109.49577 226.0594 110.60586 226.3072 111.72656 226.52539 C 112.04827 226.58832 112.37432 226.63779 112.69727 226.69727 C 113.70569 226.88176 114.71431 227.06334 115.73438 227.21289 C 116.298 227.29609 116.86848 227.35733 117.43555 227.42969 C 118.25227 227.53315 119.06715 227.64392 119.89062 227.72461 C 120.64317 227.79888 121.40412 227.84341 122.16211 227.89844 C 122.83212 227.94657 123.49781 228.01004 124.17188 228.04297 C 125.60612 228.11377 127.04828 228.15234 128.5 228.15234 C 129.98279 228.15234 131.4569 228.11422 132.92188 228.04102 C 134.05177 227.98462 135.17069 227.88612 136.28906 227.78711 C 136.62909 227.75698 136.97361 227.74312 137.3125 227.70898 C 138.36059 227.60392 139.39661 227.46024 140.43359 227.31836 C 140.83557 227.26316 141.24235 227.22464 141.64258 227.16406 C 143.0432 226.95253 144.43227 226.705 145.81055 226.42773 C 145.81588 226.42673 145.82124 226.42619 145.82617 226.42578 C 147.19924 226.14933 148.55898 225.83806 149.9082 225.49805 C 149.93594 225.49138 149.96432 225.48598 149.99219 225.47852 C 149.99485 225.47785 149.99733 225.47823 150 225.47656 C 151.32233 225.1418 152.63187 224.77122 153.92969 224.37695 C 153.97929 224.36189 154.03049 224.35114 154.08008 224.33594 C 154.08541 224.3346 154.09077 224.33079 154.0957 224.32812 C 155.44002 223.91683 156.76974 223.47347 158.08594 223 C 159.3872 222.53189 160.67322 222.03305 161.94531 221.50586 C 161.96465 221.49786 161.98457 221.49042 162.00391 221.48242 L 176.49805 232.36133 L 197.06641 247.80078 C 197.07707 248.7413 197.22495 249.69625 197.5293 250.63672 C 199.10751 255.51357 204.23578 258.14785 208.98047 256.52734 C 213.73012 254.90685 216.29893 249.64126 214.7207 244.76953 C 214.00749 242.56565 212.56775 240.82053 210.76758 239.7168 L 196.65625 195.5332 L 196.6543 195.5293 C 199.65248 191.82343 202.34964 187.8676 204.7207 183.70117 C 204.7843 183.58957 204.84896 183.47912 204.91211 183.36719 C 206.04223 181.36091 207.0937 179.30675 208.06641 177.20703 C 208.14494 177.03784 208.21944 176.86705 208.29688 176.69727 C 209.26797 174.56528 210.16973 172.39645 210.9707 170.17773 C 211.76473 167.97828 212.46331 165.73359 213.08203 163.45703 C 213.13043 163.27908 213.1851 163.10418 213.23242 162.92578 C 213.8056 160.76251 214.28338 158.56278 214.69141 156.33789 C 214.75821 155.97424 214.82448 155.61128 214.88672 155.24609 C 215.25876 153.06079 215.55722 150.85189 215.76367 148.61523 C 215.79621 148.26433 215.81548 147.91069 215.84375 147.55859 C 216.03067 145.22694 216.15234 142.87695 216.15234 140.49805 C 216.15234 138.64425 216.075 136.80996 215.96094 134.98438 C 215.94894 134.80478 215.93272 134.62657 215.91992 134.44727 C 215.79846 132.67758 215.62192 130.92319 215.39648 129.18359 L 245.10742 107.87891 C 245.97681 108.17302 246.90265 108.33779 247.86719 108.3457 C 252.87159 108.39701 256.96285 104.26926 257.00781 99.130859 C 257.05275 93.992475 253.03262 89.792247 248.0332 89.746094 C 245.76726 89.725214 243.69036 90.559286 242.08984 91.953125 L 201.07031 91.40625 C 201.06765 91.401583 201.06321 91.397311 201.06055 91.392578 C 199.65796 89.327155 198.16081 87.331288 196.5918 85.396484 C 196.51193 85.298124 196.43758 85.195664 196.35742 85.097656 C 194.83252 83.233674 193.22321 81.444783 191.55273 79.712891 C 191.39557 79.550039 191.24238 79.384292 191.08398 79.222656 C 189.43468 77.538759 187.7129 75.928294 185.93359 74.380859 C 185.73551 74.208715 185.53946 74.035626 185.33984 73.865234 C 183.5376 72.325808 181.67367 70.858508 179.75 69.466797 C 179.58299 69.346064 179.41399 69.228956 179.24609 69.109375 C 177.25097 67.687168 175.19984 66.340443 173.08594 65.085938 C 173.02274 65.048431 172.95794 65.013923 172.89453 64.976562 C 166.22216 61.039435 158.98934 57.961639 151.3418 55.894531 C 151.33913 55.893619 151.33665 55.891425 151.33398 55.890625 L 143.10938 29.228516 A 17.027453 17.027453 0 0 0 143.10938 29.226562 A 17.027453 17.027453 0 0 0 143.19922 29.095703 A 17.007875 17.007875 0 0 0 146.74609 23.947266 A 17.027453 17.027453 0 0 0 146.91602 23.699219 A 17.027453 17.027453 0 0 0 146.96289 23.595703 A 17.027453 17.027453 0 0 0 147.02539 23.287109 A 17.007875 17.007875 0 0 0 148.28516 17.166016 A 17.027453 17.027453 0 0 0 148.31836 17.007812 A 17.027453 17.027453 0 0 0 148.2832 16.832031 A 17.007875 17.007875 0 0 0 147.07617 10.765625 A 17.027453 17.027453 0 0 0 147.02344 10.501953 A 17.027453 17.027453 0 0 0 147.01562 10.482422 A 17.027453 17.027453 0 0 0 146.76953 10.115234 A 17.007875 17.007875 0 0 0 143.57227 5.3261719 A 17.027453 17.027453 0 0 0 143.34766 4.9902344 A 17.027453 17.027453 0 0 0 143.30859 4.9511719 A 17.027453 17.027453 0 0 0 142.94922 4.7109375 A 17.007875 17.007875 0 0 0 138.19141 1.5351562 A 17.027453 17.027453 0 0 0 137.81836 1.2851562 A 17.027453 17.027453 0 0 0 137.79297 1.2753906 A 17.027453 17.027453 0 0 0 137.49414 1.2167969 A 17.007875 17.007875 0 0 0 134.08398 0.23242188 A 10.555576 10.555576 0 0 0 131.68359 -0.046875 z M 131.41406 7.3535156 A 9.398819 9.398819 0 0 1 140.8125 16.751953 A 9.398819 9.398819 0 0 1 131.41406 26.150391 A 9.398819 9.398819 0 0 1 122.01562 16.751953 A 9.398819 9.398819 0 0 1 131.41406 7.3535156 z "
       transform="scale(0.75)" />
    <path
       id="path4640"
       style="display:inline;fill:#ffad00;fill-opacity:1;fill-rule:nonzero;stroke:none;stroke-width:1;stroke-miterlimit:4;stroke-dasharray:none"
       d="M 131.68555 -0.046875 A 10.555576 10.555576 0 0 0 131.34766 -0.0078125 A 17.027453 17.027453 0 0 0 131.29297 -0.01953125 A 17.027453 17.027453 0 0 0 131.12305 0.013671875 A 17.007875 17.007875 0 0 0 125.05859 1.2207031 A 17.027453 17.027453 0 0 0 124.88672 1.2539062 A 17.027453 17.027453 0 0 0 124.64844 1.3613281 A 17.027453 17.027453 0 0 0 124.39258 1.53125 A 17.007875 17.007875 0 0 0 119.61523 4.7246094 A 17.027453 17.027453 0 0 0 119.38477 4.8789062 A 17.027453 17.027453 0 0 0 119.16406 5.0996094 A 17.027453 17.027453 0 0 0 119.00781 5.3339844 A 17.007875 17.007875 0 0 0 115.8125 10.115234 A 17.027453 17.027453 0 0 0 115.64062 10.373047 A 17.027453 17.027453 0 0 0 115.53906 10.595703 A 17.027453 17.027453 0 0 0 115.50195 10.785156 A 17.007875 17.007875 0 0 0 114.29883 16.832031 A 17.027453 17.027453 0 0 0 114.26367 17.007812 A 17.027453 17.027453 0 0 0 114.29688 17.177734 A 17.007875 17.007875 0 0 0 115.39648 22.904297 A 17.027453 17.027453 0 0 0 115.46289 23.25 A 17.027453 17.027453 0 0 0 115.4707 23.267578 A 17.027453 17.027453 0 0 0 115.65625 23.560547 A 17.007875 17.007875 0 0 0 118.79883 28.503906 A 17.027453 17.027453 0 0 0 118.87891 28.630859 L 116.32422 36.658203 L 110.58008 54.703125 C 110.56688 54.705925 110.55422 54.710091 110.54102 54.712891 C 109.11582 55.010922 107.70179 55.342428 106.30273 55.708984 C 106.21863 55.731024 106.13675 55.75896 106.05273 55.78125 C 104.73094 56.13181 103.41974 56.507818 102.12305 56.917969 C 101.94694 56.973699 101.77523 57.038893 101.59961 57.095703 C 100.3873 57.487687 99.184812 57.897015 97.996094 58.339844 C 97.837773 58.398854 97.683279 58.465493 97.525391 58.525391 C 96.336139 58.976325 95.156221 59.446642 93.992188 59.947266 C 93.797033 60.031246 93.606531 60.123628 93.412109 60.208984 C 92.283823 60.704035 91.163534 61.215202 90.060547 61.755859 C 89.890348 61.839339 89.724266 61.929118 89.554688 62.013672 C 88.430279 62.573931 87.317156 63.151286 86.220703 63.757812 C 86.104212 63.822302 85.991167 63.892029 85.875 63.957031 C 84.734543 64.594707 83.606511 65.253021 82.498047 65.939453 C 82.410367 65.993793 82.32576 66.052779 82.238281 66.107422 C 81.11063 66.811247 79.998978 67.536204 78.90625 68.289062 C 78.8305 68.341292 78.75722 68.396758 78.681641 68.449219 C 77.570834 69.219682 76.477113 70.012402 75.404297 70.832031 C 75.385877 70.846111 75.368019 70.8609 75.349609 70.875 C 74.234329 71.728465 73.14069 72.60885 72.068359 73.513672 C 72.053189 73.526482 72.038588 73.539924 72.023438 73.552734 C 70.945082 74.463884 69.890389 75.400085 68.857422 76.361328 C 67.813507 77.332758 66.794457 78.328953 65.798828 79.349609 C 62.812074 82.411445 60.050467 85.690295 57.533203 89.160156 C 56.693897 90.317078 55.882837 91.494967 55.099609 92.693359 L 15.037109 92.492188 C 13.460166 91.070255 11.397967 90.198609 9.1347656 90.177734 C 4.1353655 90.13158 0.04495437 94.254908 0 99.398438 C -0.04494933 104.53171 3.9702139 108.73704 8.9746094 108.7832 C 9.9411302 108.7922 10.873922 108.64494 11.75 108.36523 L 41.445312 130.48047 C 41.259319 132.10621 41.111023 133.74333 41.015625 135.39453 C 41.014125 135.41873 41.011266 135.4425 41.009766 135.4668 C 40.914826 137.13404 40.855469 138.80943 40.855469 140.5 C 40.855469 141.93428 40.894289 143.35985 40.962891 144.77734 C 40.989391 145.32596 41.039591 145.8681 41.076172 146.41406 C 41.135572 147.29867 41.193669 148.18328 41.279297 149.06055 C 41.338597 149.66947 41.418481 150.2717 41.490234 150.87695 C 41.583004 151.65781 41.675784 152.43842 41.789062 153.21289 C 41.888542 153.89443 42.00597 154.56968 42.121094 155.24609 C 42.220894 155.83122 42.3222 156.41496 42.433594 156.99609 C 42.8829 159.3451 43.429159 161.65853 44.0625 163.9375 C 44.13486 164.19739 44.208501 164.45593 44.283203 164.71484 C 44.954484 167.04605 45.712774 169.34023 46.568359 171.58789 C 46.623129 171.73151 46.682782 171.87236 46.738281 172.01562 C 50.456013 181.62889 55.818388 190.42173 62.484375 198.05859 L 62.482422 198.06445 L 56.314453 218.32227 L 49.900391 239.38281 C 48.112064 240.51256 46.694255 242.279 46.009766 244.49414 C 44.501456 249.39153 47.133551 254.61802 51.908203 256.17188 C 56.677862 257.72571 61.770985 255.01263 63.279297 250.11523 C 63.570724 249.17212 63.70708 248.21654 63.705078 247.27734 L 63.705078 247.27539 L 96.378906 222.0293 C 96.384606 222.0313 96.390754 222.03316 96.396484 222.03516 C 97.629149 222.52235 98.873704 222.98197 100.13281 223.41406 C 100.14861 223.41906 100.16389 223.42624 100.17969 223.43164 C 101.41188 223.8537 102.65406 224.2493 103.91016 224.61719 C 104.00226 224.64429 104.0953 224.66861 104.1875 224.69531 C 105.36704 225.03654 106.55463 225.35808 107.75391 225.65039 C 107.96533 225.70219 108.17863 225.74859 108.39062 225.79883 C 109.49577 226.05941 110.60586 226.30721 111.72656 226.52539 C 112.04827 226.58839 112.37432 226.63781 112.69727 226.69727 C 113.7057 226.88177 114.7143 227.06334 115.73438 227.21289 C 116.29801 227.29609 116.86849 227.35733 117.43555 227.42969 C 118.25227 227.53311 119.06714 227.64391 119.89062 227.72461 C 120.64316 227.79891 121.40413 227.84346 122.16211 227.89844 C 122.83212 227.94664 123.49782 228.01001 124.17188 228.04297 C 125.60612 228.11377 127.04828 228.15234 128.5 228.15234 C 129.98279 228.15234 131.45691 228.11414 132.92188 228.04102 C 134.05177 227.98462 135.17069 227.88613 136.28906 227.78711 C 136.62908 227.75691 136.9736 227.74308 137.3125 227.70898 C 138.36059 227.60386 139.3966 227.46024 140.43359 227.31836 C 140.83557 227.26316 141.24235 227.22466 141.64258 227.16406 C 143.0432 226.95252 144.43227 226.70499 145.81055 226.42773 C 145.81555 226.42673 145.82107 226.42686 145.82617 226.42578 C 147.19924 226.14932 148.55897 225.83807 149.9082 225.49805 C 149.936 225.49105 149.96439 225.48552 149.99219 225.47852 C 149.99519 225.47785 149.997 225.47756 150 225.47656 C 151.32233 225.1418 152.63188 224.77121 153.92969 224.37695 C 153.97929 224.36185 154.03052 224.35104 154.08008 224.33594 C 154.08508 224.33394 154.0904 224.33208 154.0957 224.33008 C 155.44002 223.91878 156.76974 223.47542 158.08594 223.00195 C 159.38721 222.53385 160.67322 222.035 161.94531 221.50781 C 161.96471 221.49981 161.98451 221.49238 162.00391 221.48438 L 176.49805 232.36328 L 197.06641 247.80273 C 197.07651 248.74324 197.22495 249.69821 197.5293 250.63867 C 199.10751 255.51552 204.23578 258.14981 208.98047 256.5293 C 213.73013 254.90881 216.29893 249.64322 214.7207 244.77148 C 214.00749 242.56761 212.56775 240.82248 210.76758 239.71875 L 196.65625 195.53516 L 196.6543 195.53125 C 199.65248 191.82539 202.34963 187.86955 204.7207 183.70312 C 204.7843 183.59151 204.84901 183.48107 204.91211 183.36914 C 206.04223 181.36285 207.09371 179.30869 208.06641 177.20898 C 208.14491 177.03979 208.21943 176.869 208.29688 176.69922 C 209.26798 174.56723 210.16972 172.39841 210.9707 170.17969 C 211.76472 167.98024 212.46331 165.73554 213.08203 163.45898 C 213.13043 163.28103 213.18508 163.10614 213.23242 162.92773 C 213.80559 160.76447 214.28339 158.56474 214.69141 156.33984 C 214.75821 155.97619 214.82444 155.61324 214.88672 155.24805 C 215.25876 153.06275 215.55721 150.85384 215.76367 148.61719 C 215.79617 148.26628 215.81545 147.91264 215.84375 147.56055 C 216.03068 145.2289 216.15234 142.87891 216.15234 140.5 C 216.15234 138.6462 216.07494 136.81192 215.96094 134.98633 C 215.94904 134.80674 215.93282 134.62852 215.91992 134.44922 C 215.79849 132.67953 215.62192 130.92515 215.39648 129.18555 L 245.10742 107.88086 C 245.9768 108.17497 246.90265 108.33975 247.86719 108.34766 C 252.87159 108.39896 256.96286 104.27121 257.00781 99.132812 C 257.05271 93.994429 253.03261 89.7942 248.0332 89.748047 C 245.76725 89.727167 243.69036 90.561239 242.08984 91.955078 L 201.07227 91.40625 C 201.06927 91.40165 201.0655 91.397248 201.0625 91.392578 C 199.65991 89.327156 198.16276 87.331288 196.59375 85.396484 C 196.51395 85.298124 196.43954 85.195664 196.35938 85.097656 C 194.83446 83.233673 193.22517 81.444783 191.55469 79.712891 C 191.39753 79.55004 191.24434 79.384291 191.08594 79.222656 C 189.43663 77.538758 187.71485 75.928294 185.93555 74.380859 C 185.73747 74.208715 185.54142 74.035626 185.3418 73.865234 C 183.53956 72.325807 181.67562 70.858507 179.75195 69.466797 C 179.58493 69.346065 179.41595 69.228957 179.24805 69.109375 C 177.25293 67.687169 175.2018 66.340443 173.08789 65.085938 C 173.02469 65.048438 172.95983 65.013918 172.89648 64.976562 C 166.22411 61.039434 158.99129 57.96164 151.34375 55.894531 C 151.34075 55.89362 151.33798 55.891525 151.33398 55.890625 L 143.10938 29.228516 A 17.027453 17.027453 0 0 0 143.11133 29.226562 A 17.027453 17.027453 0 0 0 143.20117 29.095703 A 17.007875 17.007875 0 0 0 146.74805 23.947266 A 17.027453 17.027453 0 0 0 146.91797 23.699219 A 17.027453 17.027453 0 0 0 146.96484 23.595703 A 17.027453 17.027453 0 0 0 147.02734 23.287109 A 17.007875 17.007875 0 0 0 148.28711 17.166016 A 17.027453 17.027453 0 0 0 148.32031 17.007812 A 17.027453 17.027453 0 0 0 148.28516 16.832031 A 17.007875 17.007875 0 0 0 147.07812 10.765625 A 17.027453 17.027453 0 0 0 147.02539 10.501953 A 17.027453 17.027453 0 0 0 147.01758 10.482422 A 17.027453 17.027453 0 0 0 146.77148 10.115234 A 17.007875 17.007875 0 0 0 143.57422 5.3261719 A 17.027453 17.027453 0 0 0 143.34961 4.9902344 A 17.027453 17.027453 0 0 0 143.31055 4.9511719 A 17.027453 17.027453 0 0 0 142.95117 4.7109375 A 17.007875 17.007875 0 0 0 138.19336 1.5351562 A 17.027453 17.027453 0 0 0 137.82031 1.2851562 A 17.027453 17.027453 0 0 0 137.79492 1.2753906 A 17.027453 17.027453 0 0 0 137.49609 1.2167969 A 17.007875 17.007875 0 0 0 134.08594 0.23242188 A 10.555576 10.555576 0 0 0 131.68555 -0.046875 z M 131.41406 7.3535156 A 9.398819 9.398819 0 0 1 140.8125 16.751953 A 9.398819 9.398819 0 0 1 131.41406 26.150391 A 9.398819 9.398819 0 0 1 122.01562 16.751953 A 9.398819 9.398819 0 0 1 131.41406 7.3535156 z M 125.49219 33.003906 A 17.027453 17.027453 0 0 0 128.07031 33.697266 L 123.16211 42.050781 L 129.68359 50.306641 L 129.91016 38.035156 C 129.92516 37.312088 130.49477 36.748047 131.20898 36.748047 C 131.91817 36.758287 132.47679 37.357741 132.4668 38.085938 L 132.24023 50.386719 L 139.02539 42.455078 L 134.42188 33.714844 A 17.027453 17.027453 0 0 0 134.42773 33.712891 A 17.027453 17.027453 0 0 0 136.81055 33.083984 L 140.30469 44.935547 L 133.40234 53 C 131.77874 52.91001 130.14568 52.855469 128.5 52.855469 C 128.4679 52.855469 128.4364 52.857322 128.4043 52.857422 L 121.875 44.589844 L 125.33984 33.263672 L 125.49219 33.003906 z M 121.72852 51.136719 C 122.1134 51.160759 122.47251 51.36272 122.69727 51.701172 C 122.73987 51.763812 123.23207 52.584407 123.49414 53.007812 C 122.41559 53.068892 121.34328 53.153986 120.27539 53.253906 L 120.38086 52.296875 C 120.44086 51.75329 120.82043 51.307159 121.33984 51.173828 C 121.4697 51.140498 121.60022 51.128708 121.72852 51.136719 z M 140.32812 51.470703 C 140.45634 51.468903 140.58553 51.487604 140.71289 51.527344 C 141.22232 51.681187 141.58612 52.148554 141.62109 52.697266 L 141.69727 53.849609 C 140.59453 53.682349 139.48091 53.551387 138.36523 53.425781 C 138.70013 52.932557 139.28013 52.055459 139.33008 51.988281 C 139.57355 51.661361 139.94355 51.475989 140.32812 51.470703 z M 101.66406 86.308594 C 105.01041 86.440887 107.05981 88.000306 108.10352 89.107422 C 110.09341 91.233866 110.9073 94.355786 110.12695 96.878906 C 109.5547 98.71272 108.20887 99.994547 106.43359 100.38477 C 104.13807 100.87898 100.659 99.780414 95.164062 97.933594 C 89.454527 96.021747 80.83107 93.126434 79.439453 96.052734 C 79.172834 96.624988 78.913114 97.393717 79.21875 97.816406 C 80.129154 99.071462 84.511066 99.252833 87.320312 98.888672 C 88.211196 98.771619 89.064575 99.415134 89.181641 100.33203 C 89.298667 101.24243 88.648677 102.07435 87.738281 102.19141 C 87.231052 102.25641 85.980677 102.39453 84.478516 102.39453 C 81.721286 102.39453 78.09454 101.9389 76.527344 99.773438 C 75.825033 98.811008 75.245528 97.13316 76.435547 94.623047 C 79.088726 89.024063 88.191607 92.080598 96.222656 94.779297 C 99.968319 96.034353 104.21594 97.465102 105.72461 97.126953 C 106.32287 96.996886 106.73266 96.57993 106.94727 95.890625 C 107.29843 94.75262 107.05179 92.853774 105.67969 91.390625 C 104.132 89.745394 101.64043 89.237809 98.662109 89.953125 C 97.764716 90.174224 96.866929 89.627867 96.652344 88.730469 C 96.431233 87.839573 96.984115 86.937251 97.875 86.722656 C 99.289379 86.379629 100.54861 86.264496 101.66406 86.308594 z M 155.72852 86.308594 C 156.84335 86.264494 158.10125 86.379624 159.51562 86.722656 C 160.41306 86.937251 160.96068 87.839573 160.74609 88.730469 C 160.53149 89.627867 159.62723 90.180726 158.73633 89.953125 C 155.75802 89.237809 153.26644 89.738892 151.71875 91.390625 C 150.34014 92.853774 150.09352 94.75262 150.45117 95.890625 C 150.66577 96.57993 151.07556 96.996896 151.67383 97.126953 C 153.18249 97.458601 157.42816 96.034353 161.17383 94.779297 C 169.20489 92.080598 178.30321 89.030564 180.96289 94.623047 C 182.15292 97.13316 181.56693 98.811 180.87109 99.773438 C 179.30389 101.9389 175.6752 102.39453 172.91797 102.39453 C 171.4158 102.39453 170.16802 102.25644 169.6543 102.19141 C 168.74388 102.07435 168.09973 101.24243 168.2168 100.33203 C 168.33386 99.421637 169.17877 98.778123 170.07617 98.888672 C 172.89192 99.246331 177.26929 99.06496 178.17969 97.816406 C 178.48533 97.393717 178.22429 96.624988 177.95117 96.052734 C 176.55956 93.119933 167.94454 96.021754 162.22852 97.933594 C 156.73357 99.780414 153.2545 100.87898 150.95898 100.38477 C 149.18369 99.994547 147.84374 98.71272 147.27148 96.878906 C 146.48463 94.355786 147.29658 91.233866 149.29297 89.107422 C 150.33668 88.000306 152.38401 86.440887 155.72852 86.308594 z M 213.61523 99.457031 L 225.17773 99.474609 L 232.95508 101.42969 L 234.04883 105.33008 L 229.4375 110.19141 L 218.78711 117.62305 L 212.25391 114.64258 C 211.37208 111.7932 210.3504 109.00492 209.19336 106.28711 L 213.61523 99.457031 z M 216.35742 99.962891 L 210.62695 108.8125 L 222.10156 105.37305 C 222.78081 105.16792 223.48968 105.57336 223.68945 106.26562 C 223.88425 106.96305 223.49454 107.69136 222.82031 107.89648 L 211.31641 111.33984 L 220.71289 115.62891 L 231.87109 103.85547 L 216.35742 99.962891 z M 31.810547 100.32422 L 43.382812 100.51758 L 47.482422 107.10547 C 46.320333 109.91409 45.306684 112.79842 44.4375 115.74414 L 37.894531 118.58594 L 27.367188 110.95508 L 22.847656 106.01562 L 24.005859 102.13281 L 31.810547 100.32422 z M 40.628906 100.97266 L 25.046875 104.58398 L 36 116.55664 L 45.474609 112.44336 L 34.027344 108.7832 C 33.353098 108.56782 32.977734 107.83488 33.1875 107.14258 C 33.397264 106.45028 34.111777 106.06074 34.791016 106.28125 L 46.199219 109.92773 L 40.628906 100.97266 z M 59.046875 107.3418 L 197.95508 107.3418 C 198.46416 108.40362 198.95297 109.47651 199.41406 110.56445 C 199.24445 110.62265 199.06884 110.67186 198.87891 110.67188 L 58.128906 110.67188 C 57.93684 110.67188 57.759123 110.62198 57.587891 110.5625 C 58.048689 109.47535 58.538156 108.40286 59.046875 107.3418 z M 189.67383 118.51172 C 188.89348 121.35348 187.43706 124.9686 186.49414 126.5293 L 184.5957 126.76367 C 185.16171 125.25269 185.79965 122.87271 186.23828 120.74609 C 186.49043 120.10299 186.73999 119.44062 186.96875 118.77344 L 189.67383 118.51172 z M 89.291016 118.56445 L 91.291016 118.56445 L 91.291016 126.80273 L 91.287109 126.80664 C 91.267779 125.71226 89.346516 125.16406 85.509766 125.16406 L 85.509766 128.47461 L 87.162109 130.125 L 85.509766 131.77734 L 85.509766 136.73242 C 85.509766 140.0359 86.063125 141.6875 87.162109 141.6875 L 78.904297 141.6875 C 79.601561 141.6875 80.076592 141.01725 80.332031 139.6875 L 85.162109 139.6875 C 84.063125 139.6875 83.509766 138.0359 83.509766 134.73242 L 83.509766 129.77734 L 85.162109 128.125 L 83.509766 126.47461 L 83.509766 123.16406 C 87.365975 123.16406 89.291016 123.71677 89.291016 124.82227 L 89.291016 118.56445 z M 96.574219 118.56445 L 98.574219 118.56445 L 98.574219 124.82227 L 96.574219 124.82227 L 96.574219 118.56445 z M 108.35938 118.56445 L 111.78906 118.56445 C 110.69009 118.56445 110.13672 120.21606 110.13672 123.51953 L 110.13672 128.47461 L 111.78906 130.125 L 110.13672 131.77734 L 110.13672 136.73242 C 110.13672 140.0359 110.69009 141.6875 111.78906 141.6875 L 105.18164 141.6875 L 105.18164 139.6875 L 109.78906 139.6875 C 108.69009 139.6875 108.13672 138.0359 108.13672 134.73242 L 108.13672 129.77734 L 109.78906 128.125 L 108.13672 126.47461 L 108.13672 121.51953 C 108.13672 120.31198 108.21192 119.33057 108.35938 118.56445 z M 129.36328 118.56445 L 131.36328 118.56445 L 131.36328 126.82227 C 131.36328 125.71676 129.70972 125.16992 126.40625 125.16992 L 119.80078 125.16992 L 119.80078 125.64844 L 117.80078 125.64844 L 117.80078 123.16992 L 124.40625 123.16992 C 127.70972 123.16992 129.36328 123.71677 129.36328 124.82227 L 129.36328 118.56445 z M 166.80078 118.56445 L 170.23047 118.56445 C 169.13147 118.56445 168.57813 120.21606 168.57812 123.51953 L 168.57812 128.47461 L 170.23047 130.125 L 168.57812 131.77734 L 168.57812 133.08008 L 166.57812 133.08008 L 166.57812 129.77734 L 168.23047 128.125 L 166.57812 126.47461 L 166.57812 121.51953 C 166.57814 120.31198 166.65332 119.33057 166.80078 118.56445 z M 156.0293 119.75391 C 158.39023 121.24709 159.57812 124.1479 159.57812 128.47461 L 161.23047 130.125 L 159.57812 131.77734 C 159.57814 138.38429 156.82827 141.6875 151.32031 141.6875 C 148.19473 141.6875 145.95874 140.62166 144.60742 138.49414 C 145.85253 139.28261 147.41752 139.6875 149.32031 139.6875 C 154.82827 139.6875 157.57814 136.38428 157.57812 129.77734 L 159.23047 128.125 L 157.57812 126.47461 C 157.57814 123.61476 157.06041 121.3758 156.0293 119.75391 z M 78.554688 123.16406 L 78.554688 125.23242 C 76.048063 125.40503 74.773438 125.93082 74.773438 126.82227 L 74.773438 123.45508 C 75.70881 123.26497 76.955536 123.16406 78.554688 123.16406 z M 149.32031 123.16992 C 151.08456 123.16992 152.13086 123.89078 152.48047 125.31055 C 152.13222 125.22495 151.75363 125.16992 151.32031 125.16992 C 149.11586 125.16992 148.01565 126.27013 148.01562 128.47461 L 148.01562 131.77734 C 148.01562 132.21066 148.07072 132.58925 148.15625 132.9375 C 146.73649 132.58788 146.01563 131.54158 146.01562 129.77734 L 146.01562 126.47461 C 146.01565 124.27013 147.11585 123.16992 149.32031 123.16992 z M 126.39844 127.64844 L 129.71094 127.64844 C 128.61194 128.20117 128.05859 129.8528 128.05859 132.60352 L 119.80078 132.60352 L 119.80078 133.08008 L 117.80078 133.08008 L 117.80078 130.60352 L 126.05859 130.60352 C 126.05859 129.39352 126.18495 128.43311 126.39844 127.64844 z M 96.574219 131.42969 L 103.18164 131.42969 L 103.18164 133.42969 L 98.574219 133.42969 L 98.574219 141.6875 L 91.96875 141.6875 C 92.670139 141.6875 93.14436 141.01725 93.398438 139.6875 L 96.574219 139.6875 L 96.574219 131.42969 z M 131.36328 133.42969 L 131.36328 141.6875 L 113.19336 141.6875 C 113.89475 141.6875 114.37035 141.01726 114.625 139.6875 L 129.36328 139.6875 L 129.36328 134.85742 C 130.69243 134.60189 131.36328 134.12664 131.36328 133.42969 z M 180.14062 133.42969 L 180.14062 141.6875 L 161.9707 141.6875 C 162.66798 141.6875 163.14437 141.01725 163.40039 139.6875 L 178.14062 139.6875 L 178.14062 134.85742 C 179.47037 134.60198 180.14063 134.12694 180.14062 133.42969 z M 68.833984 145.77734 L 71.476562 145.77734 C 70.611678 145.77734 70.527489 147.07138 71.216797 149.66602 L 72.271484 153.5625 L 73.916016 154.85547 L 72.958984 156.15039 L 74.007812 160.04492 C 74.196302 160.74778 74.389706 161.34564 74.589844 161.85742 C 74.500144 161.89932 74.404727 161.92479 74.302734 161.92969 C 73.453594 161.89129 72.693131 160.60043 72.007812 158.04492 L 70.958984 154.15039 L 71.916016 152.85547 L 70.271484 151.5625 L 69.216797 147.66602 C 69.018158 146.91831 68.903984 146.30919 68.833984 145.77734 z M 79.570312 145.77734 L 82.753906 145.77734 C 81.882522 145.77734 81.453125 147.07138 81.453125 149.66602 L 81.453125 153.55469 L 82.753906 154.85547 L 81.453125 156.15039 L 81.453125 156.75195 L 79.453125 156.75195 L 79.453125 154.15039 L 80.753906 152.85547 L 79.453125 151.55469 L 79.453125 147.66602 C 79.453125 146.9183 79.498695 146.3092 79.570312 145.77734 z M 101.42578 145.77734 L 104.60352 145.77734 C 103.73862 145.77734 103.30859 147.07138 103.30859 149.66602 L 103.30859 150.9668 L 101.30859 150.9668 L 101.30859 150.91211 L 94.826172 150.91211 C 95.213944 151.30282 95.502993 151.79291 95.716797 152.35938 C 95.592577 152.69781 95.525391 153.09271 95.525391 153.55469 L 95.525391 156.15039 C 95.525391 156.34852 95.53983 156.53161 95.5625 156.70703 C 94.206468 156.53176 93.525391 155.68203 93.525391 154.15039 L 93.525391 151.55469 C 93.525391 149.83142 94.389378 148.9668 96.119141 148.9668 L 101.30859 148.9668 L 101.30859 147.66602 C 101.30859 146.91827 101.35429 146.30921 101.42578 145.77734 z M 144.17969 145.77734 L 146.82031 145.77734 C 145.96194 145.77734 145.87058 147.07138 146.56641 149.66602 L 147.61328 153.5625 L 149.25781 154.85547 L 148.30273 156.15039 L 149.35547 160.04492 C 149.54245 160.74873 149.7354 161.34718 149.93555 161.85938 C 149.84575 161.90148 149.75059 161.92529 149.64844 161.92969 C 148.80398 161.89459 148.0353 160.60389 147.35547 158.04492 L 146.30273 154.15039 L 147.25781 152.85547 L 145.61328 151.5625 L 144.56641 147.66602 C 144.36589 146.9183 144.24995 146.3092 144.17969 145.77734 z M 157.1582 145.77734 L 158.48633 145.77734 L 159.98438 150.24219 L 159.98438 154.20312 L 157.1582 145.77734 z M 163.99219 145.77734 L 167.17383 145.77734 C 166.30895 145.77734 165.87305 147.07138 165.87305 149.66602 L 165.87305 152.26953 L 165.29102 152.85547 L 165.87305 153.4375 L 165.87305 153.55469 L 166.58984 154.27148 C 166.59284 154.66064 166.62484 155.01552 166.65234 155.375 L 165.87305 156.15039 L 165.87305 160.04492 C 165.87305 162.63956 166.30895 163.93359 167.17383 163.93359 L 160.30078 163.93359 L 159.62891 161.93359 L 165.17383 161.93359 C 164.30895 161.93359 163.87305 160.63956 163.87305 158.04492 L 163.87305 154.15039 L 165.17383 152.85547 L 163.87305 151.55469 L 163.87305 147.66602 C 163.87305 146.9183 163.91995 146.3092 163.99219 145.77734 z M 185.74219 145.77734 L 187.74219 145.77734 L 187.74219 150.26172 L 185.74219 150.26172 L 185.74219 145.77734 z M 194.93945 145.77734 L 198.12109 145.77734 C 197.2562 145.77734 196.82031 147.07138 196.82031 149.66602 L 196.82031 153.55469 L 198.12109 154.85547 L 196.82031 156.15039 L 196.82031 160.04492 C 196.82031 162.63956 197.2562 163.93359 198.12109 163.93359 L 192.93164 163.93359 L 192.93164 161.93359 L 196.12109 161.93359 C 195.2562 161.93359 194.82031 160.63956 194.82031 158.04492 L 194.82031 154.15039 L 196.12109 152.85547 L 194.82031 151.55469 L 194.82031 147.66602 C 194.82031 146.9183 194.86721 146.3092 194.93945 145.77734 z M 132.37109 146.25586 C 134.21013 147.10844 135.13477 149.10681 135.13477 152.26172 C 135.13477 155.31156 134.27599 157.2875 132.55273 158.19141 C 132.56903 158.62872 132.60963 158.99373 132.65625 159.33984 L 131.83984 159.33984 C 131.0595 159.33984 130.63081 158.29182 130.55273 156.19141 C 132.27599 155.2875 133.13477 153.31156 133.13477 150.26172 C 133.13477 148.60785 132.87689 147.2768 132.37109 146.25586 z M 115.91406 146.5332 C 117.8037 147.55969 118.79813 149.66155 118.94531 152.7793 L 118.86719 152.85547 L 118.95312 152.94141 C 118.96112 153.15287 118.98828 153.34164 118.98828 153.5625 L 120.16797 154.73633 L 120.16797 154.97461 L 118.98828 156.15039 C 118.98828 161.3397 116.82833 163.93359 112.50391 163.93359 C 109.9345 163.93359 108.13364 163.00948 107.08984 161.17773 C 108.01803 161.68166 109.15618 161.93359 110.50391 161.93359 C 114.82833 161.93359 116.98828 159.3397 116.98828 154.15039 L 118.28711 152.85547 L 116.98828 151.5625 C 116.98828 149.45647 116.62588 147.78476 115.91406 146.5332 z M 178.48438 146.53516 C 180.20346 147.46938 181.19201 149.27953 181.46875 151.94141 L 180.55859 152.85547 L 181.25781 153.55469 L 177.66992 153.55469 C 177.66992 152.64699 177.42119 151.98506 176.93945 151.55469 L 179.55859 151.55469 C 179.55859 149.45343 179.1959 147.78512 178.48438 146.53516 z M 110.50391 148.9668 C 112.03484 148.9668 112.88474 149.64875 113.06055 151.00391 C 112.88513 150.98121 112.70204 150.9668 112.50391 150.9668 C 110.77414 150.9668 109.91016 151.83273 109.91016 153.5625 L 109.91016 156.15039 C 109.91016 156.34852 109.92457 156.53161 109.94727 156.70703 C 108.59123 156.53176 107.91016 155.68203 107.91016 154.15039 L 107.91016 151.5625 C 107.91016 149.83273 108.77414 148.9668 110.50391 148.9668 z M 124.05664 148.9668 L 127.95117 148.9668 C 128.80955 148.9668 129.24609 149.39681 129.24609 150.26172 C 129.24609 150.55067 129.17899 150.77387 129.08203 150.9668 L 126.05664 150.9668 L 126.05664 151.5625 L 124.05664 151.5625 L 124.05664 148.9668 z M 173.06836 148.9668 C 174.60143 148.9668 175.45726 149.64972 175.63281 151.00391 C 175.45557 150.98071 175.26862 150.9668 175.06836 150.9668 C 173.34509 150.9668 172.47266 151.83142 172.47266 153.55469 L 172.47266 156.15039 C 172.47266 156.34852 172.48697 156.53161 172.50977 156.70703 C 171.15906 156.53073 170.47266 155.6807 170.47266 154.15039 L 170.47266 151.55469 C 170.47266 149.83142 171.34509 148.9668 173.06836 148.9668 z M 66.232422 151.04102 L 67.416016 155.45117 L 65.054688 155.45117 L 66.232422 151.04102 z M 141.58203 151.04102 L 142.76562 155.45117 L 140.39844 155.45117 L 141.58203 151.04102 z M 154.79492 151.50977 L 156.79492 157.45703 L 156.79492 163.93359 L 151.68359 163.93359 L 146.50195 163.93359 L 145.95898 161.93359 L 149.68359 161.93359 L 149.9668 161.93359 C 150.48585 163.2323 151.04809 163.90476 151.64844 163.92969 C 152.24149 163.90379 152.62158 163.23179 152.79492 161.93359 L 154.79492 161.93359 L 154.79492 151.50977 z M 101.30859 152.91211 L 102.77734 152.91211 L 103.30859 153.44336 L 103.30859 160.04492 C 103.30859 162.63956 103.73862 163.93359 104.60352 163.93359 L 98.119141 163.93359 C 95.550638 163.93359 93.752666 163.01016 92.710938 161.17969 C 93.637378 161.68223 94.773268 161.93359 96.119141 161.93359 L 102.60352 161.93359 C 101.73862 161.93359 101.30859 160.63956 101.30859 158.04492 L 101.30859 152.91211 z M 185.74219 155.45117 L 190.93164 155.45117 L 190.93164 157.45117 L 187.74219 157.45117 L 187.74219 163.93359 L 182.55859 163.93359 C 183.1726 163.93359 183.56719 163.2602 183.74414 161.93359 L 185.74219 161.93359 L 185.74219 155.45117 z M 179.42383 156.15039 L 181.55859 156.15039 C 181.55859 161.3397 179.39279 163.93359 175.06836 163.93359 C 172.50282 163.93359 170.7035 163.00948 169.66016 161.17773 C 170.58718 161.68111 171.7234 161.93359 173.06836 161.93359 C 176.79222 161.93359 178.90592 159.99826 179.42383 156.15039 z M 124.05664 156.74414 L 126.67578 156.74414 C 126.70918 157.46487 126.77851 158.12347 126.86914 158.74414 L 126.05664 158.74414 L 126.05664 160.04492 C 126.05664 162.63956 126.49254 163.93359 127.35742 163.93359 L 120.86719 163.93359 C 121.48584 163.93359 121.88146 163.2602 122.05859 161.93359 L 125.35742 161.93359 C 124.49254 161.93359 124.05664 160.63956 124.05664 158.04492 L 124.05664 156.74414 z M 90.232422 158.06055 C 90.327372 158.33039 90.412635 158.61014 90.53125 158.85156 L 90.53125 163.93359 L 76.341797 163.93359 L 71.152344 163.93359 L 70.615234 161.93359 L 74.341797 161.93359 L 74.623047 161.93359 C 75.141673 163.22969 75.699436 163.90241 76.302734 163.92969 C 76.898259 163.90139 77.279422 163.22945 77.453125 161.93359 L 88.53125 161.93359 L 88.53125 158.64258 C 89.351245 158.53309 89.919632 158.3391 90.232422 158.06055 z M 64.021484 159.33984 L 68.457031 159.33984 L 68.994141 161.33984 L 66.021484 161.33984 L 65.318359 163.93359 L 60.128906 163.93359 C 60.747506 163.93359 61.318988 163.25998 61.849609 161.93359 L 63.318359 161.93359 L 64.021484 159.33984 z M 139.36328 159.33984 L 143.79883 159.33984 L 144.3418 161.33984 L 141.36328 161.33984 L 140.66211 163.93359 L 135.47266 163.93359 C 136.09124 163.93359 136.66574 163.25998 137.19531 161.93359 L 138.66211 161.93359 L 139.36328 159.33984 z M 133.13477 160.92578 C 133.3246 161.19771 133.55888 161.33984 133.83984 161.33984 L 134.44336 161.33984 C 134.13306 161.73167 133.80901 161.93359 133.47266 161.93359 L 135.13477 161.93359 L 135.13477 166.5293 L 133.83984 166.5293 C 132.05156 166.5293 130.72438 165.71725 129.85938 164.0957 C 130.44277 164.37518 131.09749 164.5293 131.83984 164.5293 L 133.13477 164.5293 L 133.13477 160.92578 z M 58.269531 171.94922 L 198.73047 171.94922 C 198.22514 173.07335 197.69564 174.18245 197.13867 175.27734 L 59.863281 175.27734 C 59.30626 174.18235 58.774904 173.07346 58.269531 171.94922 z M 84.195312 183.17383 C 85.825582 183.15513 87.196914 183.30428 87.738281 183.375 C 88.648677 183.49207 89.292179 184.32394 89.181641 185.23438 C 89.064614 186.14477 88.237217 186.77529 87.320312 186.67773 C 84.504559 186.32659 80.122651 186.49495 79.21875 187.75 C 78.913114 188.17268 79.17285 188.94142 79.439453 189.51367 C 80.831072 192.43997 89.454528 189.54457 95.164062 187.63281 C 100.659 185.786 104.14458 184.68092 106.43359 185.18164 C 108.20887 185.57181 109.5547 186.85367 110.12695 188.6875 C 110.9073 191.21061 110.09345 194.33059 108.10352 196.45703 C 107.01103 197.61455 104.82653 199.26758 101.21094 199.26758 C 100.2095 199.26758 99.104043 199.13642 97.875 198.84375 C 96.984115 198.62264 96.431233 197.72683 96.652344 196.83594 C 96.866929 195.93854 97.764716 195.38436 98.662109 195.60547 C 101.64043 196.33379 104.132 195.82101 105.67969 194.17578 C 107.0518 192.71262 107.29843 190.81378 106.94727 189.67578 C 106.73266 188.98646 106.32287 188.57015 105.72461 188.43359 C 104.21594 188.11497 99.968319 189.53207 96.222656 190.78711 C 88.191607 193.47931 79.088724 196.53593 76.435547 190.94336 C 75.245519 188.43325 75.823739 186.7554 76.519531 185.79297 C 78.039581 183.69986 81.478207 183.20495 84.195312 183.17383 z M 173.19727 183.17578 C 175.91279 183.20658 179.35104 183.69986 180.87109 185.79297 C 181.56691 186.75541 182.15289 188.43325 180.96289 190.94336 C 178.30321 196.54236 169.20489 193.47923 161.17383 190.78711 C 157.42816 189.53207 153.17599 188.11497 151.67383 188.43359 C 151.07556 188.5701 150.66577 188.98646 150.45117 189.67578 C 150.10001 190.81378 150.34015 192.71262 151.71875 194.17578 C 153.26644 195.82101 155.75151 196.32728 158.73633 195.60547 C 159.62722 195.38436 160.53149 195.93852 160.74609 196.83594 C 160.96068 197.72682 160.41433 198.62266 159.52344 198.84375 C 158.29438 199.13638 157.18895 199.26758 156.1875 199.26758 C 152.57191 199.26758 150.38545 197.6165 149.29297 196.45898 C 147.29658 194.33254 146.49114 191.21061 147.27148 188.6875 C 147.83723 186.85367 149.18369 185.57181 150.95898 185.18164 C 153.2545 184.67441 156.73942 185.786 162.23438 187.63281 C 167.94386 189.54467 176.55956 192.43997 177.95117 189.51367 C 178.22431 188.94142 178.48533 188.17267 178.17969 187.75 C 177.26929 186.49493 172.88541 186.3266 170.07617 186.67773 C 169.16577 186.78173 168.33384 186.14476 168.2168 185.23438 C 168.09973 184.32396 168.74325 183.49205 169.66016 183.375 C 170.19909 183.3067 171.56795 183.1573 173.19727 183.17578 z M 189.28516 203.5625 L 191.39648 207.35742 C 191.6562 207.83434 191.60525 208.42325 191.26562 208.84375 C 191.02095 209.15146 190.65583 209.32031 190.28125 209.32031 C 190.14141 209.32031 190.00312 209.29415 189.86328 209.24805 C 189.66805 209.17875 187.64134 208.35457 185.22461 207.24414 C 185.93732 206.63749 186.65286 206.03499 187.3457 205.40625 C 187.3537 205.40925 187.36359 205.41427 187.37109 205.41797 L 187.35938 205.39453 C 188.0154 204.79894 188.64742 204.17743 189.28516 203.5625 z M 69.589844 205.3457 C 70.498778 206.17234 71.431912 206.97135 72.375 207.75977 C 71.626042 208.08218 70.479916 208.58825 70.386719 208.62305 C 70.246875 208.67435 70.09601 208.69922 69.951172 208.69922 C 69.581586 208.69922 69.228236 208.53572 68.978516 208.23828 C 68.633902 207.82292 68.574276 207.22886 68.833984 206.75195 L 69.589844 205.3457 z M 181.84375 209.98242 C 181.85385 209.99602 181.87126 209.99967 181.88086 210.01367 L 182.75 211.2793 L 194.62305 214.47852 L 198.35742 225.73633 L 199.07812 233.9043 L 195.83398 236.23242 L 189.86523 233.33203 L 179.56445 225.39062 L 180.65234 212.77734 L 179.79492 211.52539 C 179.79192 211.52139 179.79206 211.51737 179.78906 211.51367 C 180.4813 211.01229 181.16689 210.50331 181.84375 209.98242 z M 76.341797 210.89258 C 77.466774 211.72849 78.612003 212.5379 79.777344 213.32031 L 80.904297 224.61719 L 70.707031 232.70508 L 64.785156 235.6875 L 61.509766 233.40625 L 62.119141 225.21875 L 65.697266 213.92383 L 76.341797 210.89258 z M 75.285156 213.91602 L 65.3125 216.75586 L 64.09375 233.10938 L 78.457031 225.875 L 77.414062 215.37305 L 70.646484 225.53125 C 70.401758 225.90049 69.997432 226.09961 69.587891 226.09961 C 69.343164 226.09961 69.088894 226.02811 68.869141 225.86914 C 68.284794 225.46402 68.139523 224.64882 68.539062 224.04883 L 75.285156 213.91602 z M 176.0625 214.06641 C 176.23722 216.7152 176.29472 218.8995 176.29297 219.10938 C 176.28247 219.65805 175.9439 220.14155 175.43945 220.32617 C 175.29961 220.37737 175.15352 220.40234 175.01367 220.40234 C 174.64409 220.40234 174.27989 220.23811 174.03516 219.93555 L 171.49414 216.83984 C 173.04766 215.96139 174.56948 215.03507 176.0625 214.06641 z M 185.03516 214.60938 L 191.91992 224.64258 C 192.32945 225.23744 192.1896 226.05409 191.61523 226.47461 C 191.39048 226.63356 191.13168 226.71484 190.87695 226.71484 C 190.4774 226.71484 190.08175 226.52037 189.83203 226.15625 L 182.93164 216.09961 L 182.02734 226.61328 L 196.48438 233.64844 L 195.05273 217.31055 L 185.03516 214.60938 z M 84.140625 216.05273 C 85.193835 216.6736 86.257194 217.27993 87.337891 217.85742 L 86.359375 219.08398 C 86.11465 219.39169 85.748716 219.56641 85.369141 219.56641 C 85.234291 219.56641 85.095772 219.54024 84.960938 219.49414 C 84.456502 219.31979 84.111775 218.83849 84.091797 218.29492 C 84.089197 218.19228 84.124805 216.89863 84.140625 216.05273 z "
       transform="scale(0.75)" />
    <path
       id="path11666"
       style="display:inline;fill:#d4aa00;fill-opacity:1;fill-rule:nonzero;stroke:none;stroke-width:1.33333"
       d="M 69.289062 128.6582 C 68.105538 128.6582 67.259766 129.56911 67.259766 130.78516 C 67.227246 132.00769 68.072334 132.91797 69.255859 132.91797 C 70.478402 132.91797 71.285156 132.00769 71.285156 130.78516 C 71.252646 129.5366 70.479092 128.6582 69.289062 128.6582 z M 191.96484 128.6582 C 190.78131 128.6582 189.9375 129.56911 189.9375 130.78516 C 189.8985 132.00769 190.74358 132.91797 191.93359 132.91797 C 193.14963 132.91797 193.96289 132.00769 193.96289 130.78516 C 193.93039 129.5366 193.14836 128.6582 191.96484 128.6582 z "
       transform="scale(0.75)" />
    <g
       id="g9091"
       style="display:inline;fill:url(#linearGradient36140);fill-opacity:1">
      <g
         id="g36073"
         style="fill-opacity:1;fill:url(#linearGradient36140)">
        <path
           id="path147"
           style="display:inline;fill:url(#linearGradient36140);fill-opacity:1;fill-rule:nonzero;stroke:none;stroke-width:1.33333"
           d="M 128.5 52.855469 C 80.170564 52.855469 40.855469 92.177056 40.855469 140.5 C 40.855469 188.82945 80.170564 228.15234 128.5 228.15234 C 176.82945 228.15234 216.15234 188.82945 216.15234 140.5 C 216.15234 92.177056 176.82945 52.855469 128.5 52.855469 z M 128.5 56.183594 C 174.99564 56.183594 212.82422 94.010868 212.82422 140.5 C 212.82422 186.99563 174.99564 224.82422 128.5 224.82422 C 82.01088 224.82422 44.183594 186.99563 44.183594 140.5 C 44.183594 94.010868 82.01088 56.183594 128.5 56.183594 z M 128.5 60.203125 C 84.221867 60.203125 48.197266 96.221849 48.197266 140.5 C 48.197266 184.78465 84.221867 220.81055 128.5 220.81055 C 172.77816 220.81055 208.80469 184.78465 208.80469 140.5 C 208.80469 96.221849 172.77816 60.203125 128.5 60.203125 z M 128.5 63.533203 C 170.94435 63.533203 205.47461 98.062167 205.47461 140.5 C 205.47461 182.94433 170.94435 217.48242 128.5 217.48242 C 86.055676 217.48242 51.525391 182.94433 51.525391 140.5 C 51.525391 98.062167 86.055676 63.533203 128.5 63.533203 z "
           transform="scale(0.75)" />
        <path
           id="circle6516"
           style="display:inline;fill:url(#linearGradient36140);stroke:none;stroke-width:1;stroke-linecap:round;stroke-linejoin:round;stroke-miterlimit:4;stroke-dasharray:none;paint-order:stroke fill markers;fill-opacity:1"
           d="M 247.83789 89.582031 A 9.3599326 9.3599326 0 0 0 245.5918 89.855469 A 9.3599326 9.3599326 0 0 0 243.48242 90.658203 A 9.3599326 9.3599326 0 0 0 243.46289 90.669922 A 9.3599326 9.3599326 0 0 0 241.61719 91.949219 L 201.06836 91.40625 C 201.65633 92.273689 202.21614 93.161523 202.77344 94.050781 L 239.57812 94.542969 A 9.3599326 9.3599326 0 0 0 239.57812 94.544922 A 9.3599326 9.3599326 0 0 0 239.02148 95.830078 A 9.3599326 9.3599326 0 0 0 238.91602 96.169922 A 9.3599326 9.3599326 0 0 0 238.66211 97.183594 A 9.3599326 9.3599326 0 0 0 238.58789 97.576172 A 9.3599326 9.3599326 0 0 0 238.47656 98.941406 A 9.3599326 9.3599326 0 0 0 238.74219 101.13477 A 9.3599326 9.3599326 0 0 0 238.74805 101.16602 A 9.3599326 9.3599326 0 0 0 239.5293 103.24805 A 9.3599326 9.3599326 0 0 0 240.7832 105.08789 A 9.3599326 9.3599326 0 0 0 240.78906 105.09375 A 9.3599326 9.3599326 0 0 0 242.44531 106.58594 L 214.94922 126.30273 C 215.10625 127.26604 215.23599 128.23735 215.36133 129.21094 L 245.11133 107.87891 A 9.3599326 9.3599326 0 0 0 246.4043 108.17773 A 9.3599326 9.3599326 0 0 0 246.48633 108.19336 A 9.3599326 9.3599326 0 0 0 247.83789 108.30273 A 9.3599326 9.3599326 0 0 0 248.83984 108.24219 A 9.3599326 9.3599326 0 0 0 249.07422 108.21484 A 9.3599326 9.3599326 0 0 0 250.06055 108.03516 A 9.3599326 9.3599326 0 0 0 250.14258 108.01172 A 9.3599326 9.3599326 0 0 0 251.03906 107.73047 A 9.3599326 9.3599326 0 0 0 251.23633 107.6582 A 9.3599326 9.3599326 0 0 0 252.14258 107.25 A 9.3599326 9.3599326 0 0 0 252.28711 107.16992 A 9.3599326 9.3599326 0 0 0 253.05664 106.70312 A 9.3599326 9.3599326 0 0 0 253.21289 106.59961 A 9.3599326 9.3599326 0 0 0 253.97852 106.00195 A 9.3599326 9.3599326 0 0 0 254.1582 105.83594 A 9.3599326 9.3599326 0 0 0 254.76367 105.22852 A 9.3599326 9.3599326 0 0 0 254.87695 105.10547 A 9.3599326 9.3599326 0 0 0 255.48633 104.33008 A 9.3599326 9.3599326 0 0 0 255.61914 104.13086 A 9.3599326 9.3599326 0 0 0 256.06641 103.39062 A 9.3599326 9.3599326 0 0 0 256.14258 103.25391 A 9.3599326 9.3599326 0 0 0 256.54297 102.36719 A 9.3599326 9.3599326 0 0 0 256.63281 102.12305 A 9.3599326 9.3599326 0 0 0 256.9082 101.24023 A 9.3599326 9.3599326 0 0 0 256.92969 101.16406 A 9.3599326 9.3599326 0 0 0 257.10742 100.18359 A 9.3599326 9.3599326 0 0 0 257.13672 99.941406 A 9.3599326 9.3599326 0 0 0 257.19727 98.941406 A 9.3599326 9.3599326 0 0 0 256.96484 96.871094 A 9.3599326 9.3599326 0 0 0 256.95703 96.84375 A 9.3599326 9.3599326 0 0 0 256.27344 94.890625 A 9.3599326 9.3599326 0 0 0 256.26953 94.880859 A 9.3599326 9.3599326 0 0 0 256.26367 94.871094 A 9.3599326 9.3599326 0 0 0 255.16211 93.117188 A 9.3599326 9.3599326 0 0 0 255.14648 93.097656 A 9.3599326 9.3599326 0 0 0 253.68359 91.634766 A 9.3599326 9.3599326 0 0 0 253.66016 91.615234 A 9.3599326 9.3599326 0 0 0 251.91016 90.517578 A 9.3599326 9.3599326 0 0 0 251.88477 90.503906 A 9.3599326 9.3599326 0 0 0 249.94727 89.826172 A 9.3599326 9.3599326 0 0 0 249.89648 89.814453 A 9.3599326 9.3599326 0 0 0 247.83789 89.582031 z M 204.42969 96.816406 C 204.9306 97.685184 205.42486 98.558064 205.89648 99.445312 L 232.41016 99.486328 L 234.43359 106.70703 L 213.91016 121.02344 C 214.11838 121.9402 214.31883 122.85967 214.49805 123.78711 L 236.63477 108.3418 C 237.08931 108.02385 237.29437 107.44007 237.14453 106.89648 L 234.60352 97.814453 C 234.4487 97.250357 233.94826 96.859375 233.37891 96.859375 L 204.42969 96.816406 z "
           transform="scale(0.75)" />
        <path
           id="circle6445"
           style="display:inline;fill:url(#linearGradient36140);stroke:none;stroke-width:1;stroke-linecap:round;stroke-linejoin:round;stroke-miterlimit:4;stroke-dasharray:none;paint-order:stroke fill markers;fill-opacity:1"
           d="M 9.2226562 90.076172 A 9.3599326 9.3599326 0 0 0 -0.13671875 99.4375 A 9.3599326 9.3599326 0 0 0 9.2226562 108.79688 A 9.3599326 9.3599326 0 0 0 11.816406 108.41602 L 41.476562 130.50391 C 41.589337 129.51177 41.705927 128.52086 41.851562 127.53906 L 14.496094 107.16602 A 9.3599326 9.3599326 0 0 0 18.582031 99.4375 A 9.3599326 9.3599326 0 0 0 17.53125 95.128906 L 53.439453 95.308594 C 53.973593 94.423346 54.535399 93.557817 55.099609 92.693359 L 15.498047 92.494141 A 9.3599326 9.3599326 0 0 0 9.2226562 90.076172 z M 23.664062 97.5625 C 23.074724 97.59327 22.590596 97.931267 22.425781 98.490234 L 19.722656 107.52148 C 19.562835 108.06507 19.757536 108.65544 20.207031 108.97852 L 42.289062 124.98633 C 42.458062 124.04128 42.631029 123.09835 42.830078 122.16406 L 22.439453 107.38281 L 24.582031 100.20312 L 50.494141 100.63672 C 50.941611 99.762952 51.395439 98.893566 51.871094 98.037109 L 23.664062 97.5625 z "
           transform="scale(0.75)" />
        <path
           id="circle6447"
           style="display:inline;fill:url(#linearGradient36140);stroke:none;stroke-width:1;stroke-linecap:round;stroke-linejoin:round;stroke-miterlimit:4;stroke-dasharray:none;paint-order:stroke fill markers;fill-opacity:1"
           d="M 62.482422 198.06445 L 49.921875 239.31055 A 9.3599326 9.3599326 0 0 0 45.244141 247.39844 A 9.3599326 9.3599326 0 0 0 54.603516 256.75781 A 9.3599326 9.3599326 0 0 0 63.964844 247.39844 A 9.3599326 9.3599326 0 0 0 63.957031 247.08203 L 96.394531 222.01758 C 95.462889 221.65025 94.534848 221.27694 93.619141 220.87891 L 63.40625 244.2207 A 9.3599326 9.3599326 0 0 0 54.603516 238.03711 A 9.3599326 9.3599326 0 0 0 52.933594 238.20508 L 64.484375 200.28516 C 63.803934 199.55676 63.137973 198.81576 62.482422 198.06445 z M 66.619141 202.51953 L 57.150391 232.40234 C 56.975587 232.96134 57.180921 233.56634 57.650391 233.89453 L 65.267578 239.19727 C 65.48733 239.35121 65.736606 239.42188 65.986328 239.42188 C 66.261019 239.42188 66.535883 239.32988 66.765625 239.15039 L 91.183594 219.77734 C 90.317016 219.36863 89.464013 218.93796 88.613281 218.50195 L 65.9375 236.49023 L 59.882812 232.27344 L 68.6875 204.48828 C 67.992203 203.83797 67.292942 203.19195 66.619141 202.51953 z "
           transform="scale(0.75)" />
        <path
           id="circle6449"
           style="display:inline;fill:url(#linearGradient36140);stroke:none;stroke-width:1;stroke-linecap:round;stroke-linejoin:round;stroke-miterlimit:4;stroke-dasharray:none;paint-order:stroke fill markers;fill-opacity:1"
           d="M 196.65625 195.5332 C 196.02128 196.31875 195.36631 197.0868 194.70508 197.84961 L 207.67773 238.47266 A 9.3599326 9.3599326 0 0 0 205.92773 238.30664 A 9.3599326 9.3599326 0 0 0 197.10352 244.57812 L 164.72656 220.27148 C 163.82044 220.6837 162.91256 221.09268 161.99023 221.47461 L 196.58203 247.43945 A 9.3599326 9.3599326 0 0 0 196.56836 247.66602 A 9.3599326 9.3599326 0 0 0 205.92773 257.02539 A 9.3599326 9.3599326 0 0 0 215.28711 247.66602 A 9.3599326 9.3599326 0 0 0 210.74219 239.64062 L 196.65625 195.5332 z M 192.5918 200.20898 C 191.93147 200.91759 191.27113 201.62612 190.58789 202.3125 L 200.68555 232.75195 L 194.69141 237.05273 L 169.73633 217.8125 C 168.89095 218.2644 168.03548 218.69835 167.17383 219.12305 L 193.89258 239.72461 C 194.12233 239.89387 194.39241 239.98633 194.66211 239.98633 C 194.91682 239.98633 195.17588 239.90383 195.39062 239.75 L 202.9375 234.33984 C 203.40646 234.00138 203.60277 233.39172 203.41797 232.83789 L 192.5918 200.20898 z "
           transform="scale(0.75)" />
        <path
           id="circle6443"
           style="display:inline;fill:url(#linearGradient36991);stroke:none;stroke-width:1;stroke-linecap:round;stroke-linejoin:round;stroke-miterlimit:4;stroke-dasharray:none;paint-order:stroke fill markers;fill-opacity:1"
           d="M 131.68555 -0.046875 A 10.555576 10.555576 0 0 0 131.23828 0.00390625 A 17.007875 17.007875 0 0 0 114.2832 17.007812 A 17.007875 17.007875 0 0 0 118.88477 28.611328 L 110.57031 54.736328 C 111.51548 54.539698 112.47168 54.376839 113.42773 54.210938 L 120.97461 30.492188 A 17.007875 17.007875 0 0 0 123.08398 31.884766 L 116.39453 53.744141 C 117.32109 53.615987 118.24801 53.487606 119.18359 53.388672 L 125.43164 32.962891 A 17.007875 17.007875 0 0 0 131.29297 34.015625 A 17.007875 17.007875 0 0 0 136.80664 33.070312 L 143.00781 54.109375 C 143.95159 54.266716 144.89482 54.426025 145.82812 54.613281 L 139.18164 32.074219 A 17.007875 17.007875 0 0 0 140.96875 30.992188 L 148.4375 55.197266 C 149.41117 55.423962 150.3809 55.659105 151.3418 55.917969 L 143.10156 29.208984 A 17.007875 17.007875 0 0 0 148.30078 17.007812 A 17.007875 17.007875 0 0 0 134.08594 0.23242188 A 10.555576 10.555576 0 0 0 131.68555 -0.046875 z M 131.41406 7.3535156 A 9.398819 9.398819 0 0 1 140.8125 16.751953 A 9.398819 9.398819 0 0 1 131.41406 26.150391 A 9.398819 9.398819 0 0 1 122.01562 16.751953 A 9.398819 9.398819 0 0 1 131.41406 7.3535156 z "
           transform="scale(0.75)" />
        <path
           id="path109"
           style="fill:#ffffff;fill-opacity:1;fill-rule:nonzero;stroke:none;stroke-width:1.33333"
           d="m 187.67383,116.51172 -3.08203,0.29883 c -0.37066,2.43858 -1.24828,5.95674 -1.9961,7.95312 l 1.89844,-0.23437 c 0.94292,-1.5607 2.39934,-5.17582 3.17969,-8.01758 z m -114.900392,0.0527 v 8.25782 c -10e-7,-1.1055 1.925039,-1.65821 5.78125,-1.65821 v 3.31055 l -1.650391,1.65039 1.650391,1.65234 v 4.95508 c 0,3.30348 -0.551404,4.95508 -1.650391,4.95508 h 8.257812 c -1.098984,0 -1.652343,-1.6516 -1.652343,-4.95508 v -4.95508 l 1.652343,-1.65234 -1.652343,-1.65039 v -3.31055 c 3.856209,0 5.78125,0.55271 5.78125,1.65821 v -8.25782 z m 17.195312,0 c 1.105487,0 1.650391,1.65161 1.650391,4.95508 v 4.95508 l -1.650391,1.65039 1.650391,1.65234 v 4.95508 c 0,3.30348 -0.544904,4.95508 -1.650391,4.95508 h 6.605469 v -8.25781 h 6.607421 v 8.25781 h 6.60742 c -1.09897,0 -1.65234,-1.6516 -1.65234,-4.95508 v -4.95508 l 1.65234,-1.65234 -1.65234,-1.65039 v -4.95508 c 0,-3.30347 0.55337,-4.95508 1.65234,-4.95508 h -6.60742 v 8.25782 h -6.607421 v -8.25782 z m 21.22461,0 c 1.10548,0 1.65234,1.65161 1.65234,4.95508 v 4.95508 l -1.65234,1.65039 1.65234,1.65234 v 4.95508 c 0,3.30348 -0.54686,4.95508 -1.65234,4.95508 h 18.16992 v -8.25781 c 0,1.09897 -1.65356,1.65039 -4.95703,1.65039 h -6.60547 v -2.47656 h 8.25781 c 0,-2.75072 0.55335,-4.40234 1.65235,-4.95508 h -9.91016 v -2.47852 h 6.60547 c 3.30347,0 4.95703,0.54685 4.95703,1.65235 v -8.25782 z m 38.12695,0 c -5.50793,0 -8.25976,3.30323 -8.25976,9.91016 l -1.65039,1.65039 1.65039,1.65234 c 0,6.60694 2.75183,9.91016 8.25976,9.91016 5.50796,0 8.25781,-3.30322 8.25781,-9.91016 l 1.65235,-1.65234 -1.65235,-1.65039 c 0,-6.60693 -2.74985,-9.91016 -8.25781,-9.91016 z m 10.65039,0 c 1.09899,0 1.65235,1.65161 1.65235,4.95508 v 4.95508 l -1.65235,1.65039 1.65235,1.65234 v 4.95508 c 0,3.30348 -0.55336,4.95508 -1.65235,4.95508 h 18.16992 v -8.25781 c 10e-6,1.09897 -1.65161,1.65039 -4.95507,1.65039 h -6.60743 v -3.30274 l 1.65235,-1.65234 -1.65235,-1.65039 v -4.95508 c 0,-3.30347 0.55335,-4.95508 1.65235,-4.95508 z m -10.65039,6.60547 c 2.19799,0 3.30274,1.10021 3.30274,3.30469 v 3.30273 c 0,2.19797 -1.10475,3.30274 -3.30274,3.30274 -2.20446,0 -3.30469,-1.10477 -3.30469,-3.30274 v -3.30273 c 10e-6,-2.20448 1.10023,-3.30469 3.30469,-3.30469 z m -86.326169,20.60742 c 0.864885,0 0.949072,1.29404 0.259765,3.88868 l -1.052734,3.89648 -1.632813,1.29297 0.94336,1.29492 -1.046875,3.89453 c -0.69581,2.59464 -1.471055,3.88867 -2.335938,3.88867 h 5.189453 l 0.703125,-2.59375 h 4.435547 l 0.695313,2.59375 h 5.189453 14.189453 v -6.48242 c 0,0.86488 -1.294011,1.30078 -3.888672,1.30078 h -5.189453 v -2.60156 l 1.300781,-1.29492 -1.300781,-1.30078 v -3.88867 c 0,-2.59464 0.429396,-3.88868 1.300781,-3.88868 h -6.490234 c 0.864883,0 1.300781,1.29404 1.300781,3.88868 v 3.88867 l -1.300781,1.30078 1.300781,1.29492 v 3.89453 c 0,2.55406 -0.423583,3.84492 -1.261719,3.88477 -0.84914,-0.0384 -1.609605,-1.32926 -2.294922,-3.88477 l -1.048828,-3.89453 0.957032,-1.29492 -1.644532,-1.29297 -1.054687,-3.89648 c -0.689307,-2.59464 -0.60512,-3.88868 0.259765,-3.88868 z m 33.125,0 c -4.324408,0 -6.482422,2.59455 -6.482422,7.77735 l -1.300781,1.30078 1.300781,1.29492 c 0,5.18931 2.158014,7.7832 6.482422,7.7832 h 6.484379 c -0.8649,0 -1.29493,-1.29403 -1.29493,-3.88867 v -7.13281 h -6.482418 c 0.858389,0.86489 1.292969,2.15891 1.292969,3.88867 h 1.294921 v 1.94336 h -1.294921 c -1.729763,0 -2.59375,-0.86398 -2.59375,-2.59375 v -2.5957 c 0,-1.72327 0.863987,-2.58789 2.59375,-2.58789 h 5.189449 v -1.30078 c 0,-2.59464 0.43003,-3.88868 1.29493,-3.88868 z m 14.384769,0 c -4.32443,0 -6.49024,2.59585 -6.49024,7.78516 l -1.29297,1.29297 1.29297,1.29492 c 0,5.18931 2.16581,7.7832 6.49024,7.7832 4.32442,0 6.48437,-2.59389 6.48437,-7.7832 l 1.29883,-1.29492 -1.29883,-1.29297 c 0,-5.18931 -2.15995,-7.78516 -6.48437,-7.78516 z m 8.36328,0 c 0.86488,0 1.30078,1.29404 1.30078,3.88868 v 3.89648 l -1.30078,1.29297 1.30078,1.29492 v 3.89453 c 0,2.59464 -0.4359,3.88867 -1.30078,3.88867 h 6.49023 c -0.86488,0 -1.30078,-1.29403 -1.30078,-3.88867 v -1.30078 h 2.61914 c 0.24061,5.18928 1.96465,7.78516 5.16406,7.78516 h 1.29493 v -5.18946 h -1.29493 c -0.78034,0 -1.20903,-1.04802 -1.28711,-3.14843 1.72326,-0.90391 2.58204,-2.87985 2.58204,-5.92969 0,-4.32443 -1.73056,-6.48438 -5.1836,-6.48438 z m 19.46875,0 c 0.86488,0 0.94907,1.29404 0.25976,3.88868 l -1.05273,3.89648 -1.63281,1.29297 0.94922,1.29492 -1.05274,3.89453 c -0.68932,2.59464 -1.4691,3.88867 -2.33398,3.88867 h 5.18945 l 0.70117,-2.59375 h 4.43555 l 0.70312,2.59375 h 5.18164 5.11133 v -10.42382 l 3.50586,10.42382 h 6.87305 c -0.86488,0 -1.30078,-1.29403 -1.30078,-3.88867 v -3.89453 l 1.30078,-1.29492 -1.30078,-1.30078 v -3.88867 c 0,-2.59464 0.4359,-3.88868 1.30078,-3.88868 h -5.18945 v 10.42578 l -3.49805,-10.42578 h -6.87305 c 0.85837,0 1.29297,1.29404 1.29297,3.88868 v 3.88867 l -1.29297,1.30078 1.29297,1.29492 v 3.89453 c 0,2.55762 -0.42358,3.84836 -1.25781,3.88477 -0.84446,-0.0351 -1.61314,-1.3258 -2.29297,-3.88477 l -1.05274,-3.89453 0.95508,-1.29492 -1.64453,-1.29297 -1.04687,-3.89648 c -0.69582,-2.59464 -0.60448,-3.88868 0.2539,-3.88868 z m 34.73242,0 c -4.31792,0 -6.48438,2.59455 -6.48438,7.77735 l -1.29296,1.30078 1.29296,1.29492 c 0,5.18931 2.16646,7.7832 6.48438,7.7832 4.32443,0 6.49023,-2.59389 6.49023,-7.7832 h -3.88867 c 0,1.72977 -0.8718,2.59375 -2.60156,2.59375 -1.72327,0 -2.5957,-0.86398 -2.5957,-2.59375 v -2.5957 c 0,-1.72327 0.87243,-2.58789 2.5957,-2.58789 1.72976,0 2.60156,0.86462 2.60156,2.58789 h 3.88867 c 0,-5.1828 -2.1658,-7.77735 -6.49023,-7.77735 z m 7.49023,0 c 0.85838,0 1.29493,1.29404 1.29493,3.88868 v 3.88867 l -1.29493,1.30078 1.29493,1.29492 v 3.89453 c 0,2.59464 -0.43655,3.88867 -1.29493,3.88867 h 5.1836 v -6.48242 h 5.18945 v 6.48242 h 5.18945 c -0.86489,0 -1.30078,-1.29403 -1.30078,-3.88867 v -3.89453 l 1.30078,-1.29492 -1.30078,-1.30078 v -3.88867 c 0,-2.59464 0.43589,-3.88868 1.30078,-3.88868 h -5.18945 v 6.48438 h -5.18945 v -6.48438 z m -70.05468,5.18946 c 1.72976,0 2.59375,0.86593 2.59375,2.5957 v 2.58789 c 0,1.72977 -0.86399,2.59375 -2.59375,2.59375 -1.72977,0 -2.59375,-0.86398 -2.59375,-2.59375 v -2.58789 c 0,-1.72977 0.86398,-2.5957 2.59375,-2.5957 z m 13.55273,0 h 3.89453 c 0.85838,0 1.29492,0.43001 1.29492,1.29492 0,0.86488 -0.43654,1.30078 -1.29492,1.30078 h -3.89453 z m -57.824218,2.07422 1.183594,4.41015 h -2.361328 z m 75.349608,0 1.18359,4.41015 h -2.36718 z"
           transform="scale(0.75)" />
        <path
           style="fill:#ffffff;fill-opacity:1;fill-rule:nonzero;stroke:none;stroke-width:1"
           d="m 96.904681,56.496576 2.862897,5.794071 6.393972,0.931539 -4.62844,4.511376 1.09248,6.369578 -5.720909,-3.009212 -5.720907,3.009212 1.092485,-6.369578 -4.628428,-4.511376 6.39397,-0.931539 z m 0,0"
           id="path153" />
        <path
           style="fill:#ffffff;fill-opacity:1;fill-rule:nonzero;stroke:none;stroke-width:1"
           d="m 96.904681,136.65276 2.862897,5.79408 6.393972,0.93154 -4.62844,4.51137 1.09248,6.36959 -5.720909,-3.00922 -5.720907,3.00922 1.092485,-6.36959 -4.628428,-4.51137 6.39397,-0.93154 z m 0,0"
           id="path159" />
      </g>
    </g>
  </g>
</svg>
