<svg width="257.764" height="257.764" viewBox="0 0 193.323 193.323" version="1.2" xmlns:xlink="http://www.w3.org/1999/xlink" xmlns="http://www.w3.org/2000/svg"><defs><linearGradient id="a"><stop style="stop-color:#fc0;stop-opacity:1" offset="0"/><stop style="stop-color:#ffe680;stop-opacity:1" offset="1"/></linearGradient><linearGradient xlink:href="#a" id="b" x1="34.552" y1="189.793" x2="153.188" y2="26.435" gradientUnits="userSpaceOnUse"/><linearGradient xlink:href="#a" id="c" gradientUnits="userSpaceOnUse" x1="34.552" y1="189.793" x2="153.188" y2="26.435"/></defs><g style="display:inline"><path style="display:inline;fill:#d48e00;fill-opacity:1;fill-rule:nonzero;stroke:none;stroke-width:1;stroke-miterlimit:4;stroke-dasharray:none" d="M131.684-.047a10.556 10.556 0 0 0-.338.04 17.027 17.027 0 0 0-.055-.013 17.027 17.027 0 0 0-.17.034 17.008 17.008 0 0 0-6.064 1.207 17.027 17.027 0 0 0-.172.033 17.027 17.027 0 0 0-.239.107 17.027 17.027 0 0 0-.255.17 17.008 17.008 0 0 0-4.778 3.194 17.027 17.027 0 0 0-.23.154 17.027 17.027 0 0 0-.22.22 17.027 17.027 0 0 0-.157.235 17.008 17.008 0 0 0-3.195 4.781 17.027 17.027 0 0 0-.172.258 17.027 17.027 0 0 0-.102.223 17.027 17.027 0 0 0-.037.19 17.008 17.008 0 0 0-1.203 6.046 17.027 17.027 0 0 0-.035.176 17.027 17.027 0 0 0 .033.17 17.008 17.008 0 0 0 1.1 5.726 17.027 17.027 0 0 0 .066.346 17.027 17.027 0 0 0 .008.018 17.027 17.027 0 0 0 .185.293 17.008 17.008 0 0 0 3.143 4.943 17.027 17.027 0 0 0 .08.127l-2.555 8.027-5.744 18.045-.039.01a86.94 86.94 0 0 0-4.238.996c-.084.022-.166.05-.25.072-1.322.35-2.633.727-3.93 1.137-.176.056-.348.12-.523.178a86.889 86.889 0 0 0-3.604 1.244c-.158.059-.313.125-.47.185-1.19.451-2.37.922-3.534 1.422-.195.084-.385.177-.58.262a87.332 87.332 0 0 0-3.351 1.547c-.17.083-.337.173-.506.258a87.472 87.472 0 0 0-3.334 1.744c-.117.064-.23.134-.346.199a87.773 87.773 0 0 0-3.377 1.982c-.088.055-.172.114-.26.168a87.924 87.924 0 0 0-3.332 2.182c-.075.052-.149.108-.224.16a88.134 88.134 0 0 0-3.278 2.383l-.054.043a88.301 88.301 0 0 0-3.282 2.639l-.045.039a88.345 88.345 0 0 0-16.923 19.14l-40.063-.2a8.906 8.906 0 0 0-5.902-2.315c-5-.046-9.09 4.077-9.135 9.22-.045 5.134 3.97 9.339 8.975 9.385a8.84 8.84 0 0 0 2.775-.418l29.695 22.115a87.727 87.727 0 0 0-.43 4.915c0 .024-.004.048-.005.072a88.428 88.428 0 0 0-.154 5.033c0 1.434.038 2.86.107 4.277.026.549.079 1.091.115 1.637.06.885.118 1.77.203 2.647.06.608.14 1.21.211 1.816.093.78.186 1.561.3 2.336.099.681.216 1.357.331 2.033.1.585.201 1.169.313 1.75a86.857 86.857 0 0 0 1.85 7.719 86.928 86.928 0 0 0 2.284 6.873c.055.144.115.284.17.428a87.737 87.737 0 0 0 15.746 26.043l-.002.007-6.168 20.258-6.414 21.06a9.24 9.24 0 0 0-3.89 5.112c-1.509 4.897 1.124 10.124 5.898 11.678 4.77 1.554 9.863-1.16 11.371-6.057a9.531 9.531 0 0 0 .426-2.838v-.004L96.38 222.03l.017.006c1.233.487 2.478.947 3.737 1.38.016.004.03.011.047.017 1.232.422 2.474.817 3.73 1.185.092.027.185.052.278.078 1.18.342 2.367.663 3.566.955.211.052.425.099.637.149 1.105.26 2.215.508 3.336.726.321.063.647.113.97.172 1.009.185 2.017.366 3.037.516.564.083 1.134.144 1.702.217.816.103 1.631.214 2.455.295.752.074 1.513.118 2.271.173.67.049 1.336.112 2.01.145a87.745 87.745 0 0 0 8.75-.002 87.673 87.673 0 0 0 3.367-.254c.34-.03.685-.044 1.024-.078 1.048-.105 2.084-.249 3.12-.39.403-.056.81-.094 1.21-.155a87.029 87.029 0 0 0 8.265-1.666c.028-.007.056-.012.084-.02l.008-.001a86.856 86.856 0 0 0 3.93-1.1c.05-.015.1-.026.15-.041.005-.001.01-.005.016-.008a86.864 86.864 0 0 0 7.85-2.822l.058-.024 14.494 10.88 20.568 15.439c.011.94.159 1.895.463 2.836 1.579 4.877 6.707 7.51 11.451 5.89 4.75-1.62 7.319-6.886 5.74-11.757a9.227 9.227 0 0 0-3.952-5.053l-14.112-44.184-.002-.004a88.011 88.011 0 0 0 8.067-11.828l.191-.334a87.423 87.423 0 0 0 3.154-6.16c.079-.17.153-.34.23-.51a87.007 87.007 0 0 0 2.675-6.52 86.932 86.932 0 0 0 2.111-6.72c.048-.178.103-.353.15-.531a86.969 86.969 0 0 0 1.46-6.588 86.149 86.149 0 0 0 1.072-7.723c.032-.35.051-.704.08-1.056.187-2.332.308-4.682.308-7.06 0-1.855-.077-3.689-.191-5.515-.012-.18-.028-.357-.041-.537a87.638 87.638 0 0 0-.524-5.263l29.711-21.305c.87.294 1.796.459 2.76.467 5.005.051 9.096-4.077 9.14-9.215.046-5.139-3.974-9.339-8.974-9.385a8.89 8.89 0 0 0-5.943 2.207l-41.02-.547-.01-.013a88.18 88.18 0 0 0-4.468-5.997c-.08-.098-.154-.2-.235-.298a88.354 88.354 0 0 0-4.804-5.385c-.157-.163-.31-.329-.469-.49a88.41 88.41 0 0 0-5.15-4.842c-.198-.172-.395-.345-.594-.516a88.249 88.249 0 0 0-5.59-4.398c-.167-.12-.336-.238-.504-.358a87.91 87.91 0 0 0-6.16-4.023c-.063-.038-.128-.072-.191-.11a87.137 87.137 0 0 0-21.553-9.081c-.003-.001-.005-.004-.008-.004l-8.225-26.662a17.027 17.027 0 0 0 0-.002 17.027 17.027 0 0 0 .09-.131 17.008 17.008 0 0 0 3.547-5.149 17.027 17.027 0 0 0 .17-.248 17.027 17.027 0 0 0 .047-.103 17.027 17.027 0 0 0 .062-.309 17.008 17.008 0 0 0 1.26-6.121 17.027 17.027 0 0 0 .033-.158 17.027 17.027 0 0 0-.035-.176 17.008 17.008 0 0 0-1.207-6.066 17.027 17.027 0 0 0-.053-.264 17.027 17.027 0 0 0-.007-.02 17.027 17.027 0 0 0-.246-.367 17.008 17.008 0 0 0-3.198-4.789 17.027 17.027 0 0 0-.224-.336 17.027 17.027 0 0 0-.04-.039 17.027 17.027 0 0 0-.359-.24 17.008 17.008 0 0 0-4.758-3.176 17.027 17.027 0 0 0-.373-.25 17.027 17.027 0 0 0-.025-.01 17.027 17.027 0 0 0-.299-.058 17.008 17.008 0 0 0-3.41-.985 10.556 10.556 0 0 0-2.4-.279zm-.27 7.4a9.399 9.399 0 0 1 9.399 9.399 9.399 9.399 0 0 1-9.399 9.398 9.399 9.399 0 0 1-9.398-9.398 9.399 9.399 0 0 1 9.398-9.398z" transform="scale(.75)"/><path style="display:inline;fill:#ffad00;fill-opacity:1;fill-rule:nonzero;stroke:none;stroke-width:1;stroke-miterlimit:4;stroke-dasharray:none" d="M131.686-.047a10.556 10.556 0 0 0-.338.04 17.027 17.027 0 0 0-.055-.013 17.027 17.027 0 0 0-.17.034 17.008 17.008 0 0 0-6.064 1.207 17.027 17.027 0 0 0-.172.033 17.027 17.027 0 0 0-.239.107 17.027 17.027 0 0 0-.255.17 17.008 17.008 0 0 0-4.778 3.194 17.027 17.027 0 0 0-.23.154 17.027 17.027 0 0 0-.22.22 17.027 17.027 0 0 0-.157.235 17.008 17.008 0 0 0-3.195 4.781 17.027 17.027 0 0 0-.172.258 17.027 17.027 0 0 0-.102.223 17.027 17.027 0 0 0-.037.19 17.008 17.008 0 0 0-1.203 6.046 17.027 17.027 0 0 0-.035.176 17.027 17.027 0 0 0 .033.17 17.008 17.008 0 0 0 1.1 5.726 17.027 17.027 0 0 0 .066.346 17.027 17.027 0 0 0 .008.018 17.027 17.027 0 0 0 .185.293 17.008 17.008 0 0 0 3.143 4.943 17.027 17.027 0 0 0 .08.127l-2.555 8.027-5.744 18.045-.039.01c-1.425.298-2.84.63-4.238.996-.084.022-.166.05-.25.072-1.322.35-2.633.727-3.93 1.137-.176.056-.348.12-.523.178a86.89 86.89 0 0 0-3.604 1.244c-.158.059-.313.125-.47.185-1.19.451-2.37.922-3.534 1.422-.195.084-.385.177-.58.262a87.337 87.337 0 0 0-3.351 1.547c-.17.083-.337.173-.506.258a87.475 87.475 0 0 0-3.334 1.744c-.117.064-.23.134-.346.199a87.769 87.769 0 0 0-3.377 1.982c-.088.055-.172.114-.26.168a87.91 87.91 0 0 0-3.332 2.182c-.076.052-.149.108-.224.16a88.132 88.132 0 0 0-3.278 2.383l-.054.043a88.301 88.301 0 0 0-3.282 2.639l-.045.039A88.343 88.343 0 0 0 55.1 92.693l-40.063-.2a8.906 8.906 0 0 0-5.902-2.315c-5-.046-9.09 4.077-9.135 9.22-.045 5.134 3.97 9.339 8.975 9.385.966.01 1.899-.138 2.775-.418l29.695 22.115a87.732 87.732 0 0 0-.43 4.915c0 .024-.004.047-.005.072a88.42 88.42 0 0 0-.155 5.033c0 1.434.04 2.86.108 4.277.026.549.077 1.091.113 1.637.06.885.118 1.77.203 2.647.06.608.14 1.21.211 1.816.093.78.186 1.561.3 2.336.099.681.216 1.357.331 2.033.1.585.201 1.169.313 1.75a86.86 86.86 0 0 0 1.85 7.719 86.928 86.928 0 0 0 2.284 6.873c.055.144.115.284.17.428a87.737 87.737 0 0 0 15.746 26.043l-.002.005-6.168 20.258-6.414 21.06a9.24 9.24 0 0 0-3.89 5.112c-1.509 4.898 1.124 10.124 5.898 11.678 4.77 1.554 9.863-1.16 11.371-6.057a9.531 9.531 0 0 0 .426-2.838v-.002L96.38 222.03l.017.006c1.233.487 2.478.947 3.737 1.38.016.004.03.011.047.017a86.77 86.77 0 0 0 3.73 1.185c.092.027.185.052.278.078 1.179.342 2.367.663 3.566.955.211.052.425.099.637.149 1.105.26 2.215.508 3.336.726.321.063.647.113.97.172 1.009.185 2.017.366 3.037.516.564.083 1.134.144 1.702.217.816.103 1.631.214 2.455.295.752.074 1.513.118 2.271.173.67.049 1.336.112 2.01.145a87.745 87.745 0 0 0 8.75-.002 87.653 87.653 0 0 0 3.367-.254c.34-.03.685-.044 1.024-.078 1.048-.105 2.084-.249 3.12-.39.403-.056.81-.094 1.21-.155 1.4-.211 2.79-.459 4.168-.736l.015-.002a86.854 86.854 0 0 0 4.082-.928c.028-.007.056-.012.084-.02l.008-.001a86.866 86.866 0 0 0 3.93-1.1c.05-.015.1-.026.15-.041l.016-.006a86.876 86.876 0 0 0 7.85-2.822l.058-.024 14.494 10.88 20.568 15.439c.01.94.159 1.895.463 2.836 1.579 4.877 6.707 7.51 11.451 5.89 4.75-1.62 7.319-6.886 5.74-11.758a9.227 9.227 0 0 0-3.952-5.052l-14.112-44.184-.002-.004a88.011 88.011 0 0 0 8.067-11.828l.191-.334a87.423 87.423 0 0 0 3.154-6.16c.079-.17.153-.34.23-.51a87.007 87.007 0 0 0 2.675-6.52 86.937 86.937 0 0 0 2.111-6.72c.048-.178.103-.353.15-.531a86.967 86.967 0 0 0 1.46-6.588c.066-.364.132-.727.195-1.092.372-2.185.67-4.394.877-6.63.032-.352.051-.705.08-1.057a88.21 88.21 0 0 0 .308-7.061c0-1.854-.077-3.688-.191-5.514-.012-.18-.028-.357-.041-.537a87.613 87.613 0 0 0-.524-5.263l29.711-21.305c.87.294 1.796.459 2.76.467 5.005.051 9.096-4.077 9.14-9.215.046-5.139-3.974-9.339-8.974-9.385a8.89 8.89 0 0 0-5.943 2.207l-41.018-.549-.01-.013a88.18 88.18 0 0 0-4.468-5.997c-.08-.098-.154-.2-.235-.298a88.36 88.36 0 0 0-4.804-5.385c-.157-.163-.31-.329-.47-.49a88.416 88.416 0 0 0-5.15-4.842c-.198-.172-.394-.345-.593-.516a88.248 88.248 0 0 0-5.59-4.398c-.167-.12-.336-.238-.504-.358a87.908 87.908 0 0 0-6.16-4.023c-.063-.038-.128-.072-.192-.11a87.137 87.137 0 0 0-21.552-9.081l-.01-.004-8.225-26.662a17.027 17.027 0 0 0 .002-.002 17.027 17.027 0 0 0 .09-.131 17.008 17.008 0 0 0 3.547-5.149 17.027 17.027 0 0 0 .17-.248 17.027 17.027 0 0 0 .047-.103 17.027 17.027 0 0 0 .062-.309 17.008 17.008 0 0 0 1.26-6.121 17.027 17.027 0 0 0 .033-.158 17.027 17.027 0 0 0-.035-.176 17.008 17.008 0 0 0-1.207-6.066 17.027 17.027 0 0 0-.053-.264 17.027 17.027 0 0 0-.007-.02 17.027 17.027 0 0 0-.247-.367 17.008 17.008 0 0 0-3.197-4.789 17.027 17.027 0 0 0-.224-.336 17.027 17.027 0 0 0-.04-.039 17.027 17.027 0 0 0-.359-.24 17.008 17.008 0 0 0-4.758-3.176 17.027 17.027 0 0 0-.373-.25 17.027 17.027 0 0 0-.025-.01 17.027 17.027 0 0 0-.299-.058 17.008 17.008 0 0 0-3.41-.985 10.556 10.556 0 0 0-2.4-.279zm-.272 7.4a9.399 9.399 0 0 1 9.399 9.399 9.399 9.399 0 0 1-9.399 9.398 9.399 9.399 0 0 1-9.398-9.398 9.399 9.399 0 0 1 9.398-9.398zm-5.922 25.65a17.027 17.027 0 0 0 2.578.694l-4.908 8.354 6.522 8.256.226-12.272a1.297 1.297 0 0 1 1.299-1.287c.71.01 1.268.61 1.258 1.338l-.227 12.3 6.785-7.93-4.603-8.741a17.027 17.027 0 0 0 .006-.002 17.027 17.027 0 0 0 2.383-.629l3.494 11.852L133.402 53a88.513 88.513 0 0 0-4.902-.145l-.096.002-6.529-8.267 3.465-11.326.152-.26zm-3.763 18.134c.384.024.744.226.968.564.043.063.535.883.797 1.307a87.86 87.86 0 0 0-3.219.246l.106-.957c.06-.544.44-.99.959-1.123.13-.034.26-.045.389-.037zm18.6.334a1.23 1.23 0 0 1 .384.056 1.3 1.3 0 0 1 .908 1.17l.076 1.153a87.56 87.56 0 0 0-3.332-.424c.335-.493.915-1.37.965-1.438.244-.327.614-.512.998-.517zm-38.665 34.838c3.346.132 5.396 1.691 6.44 2.798 1.99 2.127 2.803 5.249 2.023 7.772-.572 1.834-1.918 3.116-3.693 3.506-2.296.494-5.775-.605-11.27-2.451-5.71-1.912-14.333-4.808-15.725-1.881-.266.572-.526 1.34-.22 1.763.91 1.255 5.292 1.437 8.101 1.073a1.674 1.674 0 0 1 1.862 1.443 1.666 1.666 0 0 1-1.444 1.86c-.507.064-1.757.203-3.26.203-2.757 0-6.383-.456-7.95-2.622-.703-.962-1.282-2.64-.092-5.15 2.653-5.599 11.756-2.542 19.787.156 3.745 1.255 7.993 2.686 9.502 2.348.598-.13 1.008-.547 1.222-1.236.351-1.138.105-3.037-1.267-4.5-1.548-1.646-4.04-2.153-7.018-1.438a1.653 1.653 0 0 1-2.01-1.223 1.66 1.66 0 0 1 1.223-2.007c1.414-.343 2.674-.459 3.79-.414zm54.065 0c1.114-.045 2.372.07 3.787.414a1.664 1.664 0 0 1 1.23 2.007 1.651 1.651 0 0 1-2.01 1.223c-2.978-.715-5.47-.214-7.017 1.438-1.379 1.463-1.625 3.362-1.268 4.5.215.689.625 1.106 1.223 1.236 1.508.332 5.754-1.093 9.5-2.348 8.03-2.698 17.13-5.748 19.789-.156 1.19 2.51.604 4.188-.092 5.15-1.567 2.166-5.196 2.622-7.953 2.622-1.502 0-2.75-.139-3.264-.204a1.662 1.662 0 0 1-1.437-1.859 1.678 1.678 0 0 1 1.86-1.443c2.815.357 7.192.176 8.103-1.073.305-.422.044-1.191-.229-1.763-1.391-2.933-10.006-.031-15.722 1.88-5.495 1.847-8.975 2.946-11.27 2.452-1.775-.39-3.115-1.672-3.688-3.506-.786-2.523.026-5.645 2.022-7.772 1.044-1.107 3.091-2.666 6.436-2.798zm57.886 13.148 11.563.018 7.777 1.955 1.094 3.9-4.612 4.861-10.65 7.432-6.533-2.98a86.971 86.971 0 0 0-3.06-8.356l4.421-6.83zm2.742.506-5.73 8.85 11.475-3.44c.679-.205 1.388.2 1.587.893.195.697-.194 1.425-.869 1.63l-11.504 3.444 9.397 4.289 11.158-11.774-15.514-3.892zm-184.546.361 11.572.194 4.1 6.587a86.959 86.959 0 0 0-3.045 8.64l-6.543 2.84-10.528-7.63-4.52-4.94 1.159-3.882 7.805-1.809zm8.818.649-15.582 3.611L36 116.557l9.475-4.114-11.448-3.66c-.674-.215-1.05-.948-.84-1.64.21-.693.925-1.082 1.604-.862l11.408 3.647-5.57-8.955zm18.418 6.369h138.908c.51 1.062.998 2.135 1.46 3.222-.17.059-.346.108-.536.108H58.129c-.192 0-.37-.05-.541-.11.46-1.087.95-2.16 1.459-3.22zm130.627 11.17c-.78 2.841-2.237 6.457-3.18 8.017l-1.898.235c.566-1.511 1.204-3.891 1.642-6.018a48.69 48.69 0 0 0 .73-1.973l2.706-.261zm-100.383.052h2v8.239l-.004.004c-.02-1.095-1.94-1.643-5.777-1.643v3.31l1.652 1.651-1.652 1.652v4.955c0 3.304.553 4.956 1.652 4.956h-8.258c.698 0 1.173-.67 1.428-2h4.83c-1.099 0-1.652-1.652-1.652-4.956v-4.955l1.652-1.652-1.652-1.65v-3.31c3.856 0 5.781.552 5.781 1.657v-6.258zm7.283 0h2v6.258h-2v-6.258zm11.785 0h3.43c-1.099 0-1.652 1.652-1.652 4.956v4.955l1.652 1.65-1.652 1.652v4.955c0 3.304.553 4.956 1.652 4.956h-6.607v-2h4.607c-1.099 0-1.652-1.652-1.652-4.956v-4.955l1.652-1.652-1.652-1.65v-4.955c0-1.208.075-2.19.222-2.956zm21.004 0h2v8.258c0-1.105-1.653-1.652-4.957-1.652h-6.605v.478h-2v-2.478h6.605c3.304 0 4.957.547 4.957 1.652v-6.258zm37.438 0h3.43c-1.1 0-1.653 1.652-1.653 4.956v4.955l1.652 1.65-1.652 1.652v1.303h-2v-3.303l1.652-1.652-1.652-1.65v-4.955c0-1.208.075-2.19.223-2.956zm-10.772 1.19c2.361 1.493 3.55 4.394 3.55 8.72l1.651 1.651-1.652 1.652c0 6.607-2.75 9.91-8.258 9.91-3.125 0-5.361-1.065-6.713-3.193 1.246.789 2.81 1.194 4.713 1.194 5.508 0 8.258-3.304 8.258-9.91l1.652-1.653-1.652-1.65c0-2.86-.518-5.1-1.549-6.721zm-77.474 3.41v2.068c-2.507.173-3.782.699-3.782 1.59v-3.367c.936-.19 2.183-.29 3.782-.29zm70.765.006c1.765 0 2.81.72 3.16 2.14a4.788 4.788 0 0 0-1.16-.14c-2.204 0-3.304 1.1-3.304 3.305v3.302c0 .434.055.812.14 1.16-1.42-.35-2.14-1.395-2.14-3.16v-3.302c0-2.205 1.1-3.305 3.304-3.305zm-22.922 4.478h3.313c-1.1.553-1.652 2.205-1.652 4.956H119.8v.476h-2v-2.476h8.258c0-1.21.126-2.17.34-2.956zm-29.824 3.782h6.608v2h-4.608v8.257H91.97c.701 0 1.175-.67 1.43-2h3.175v-8.257zm34.79 2v8.257h-18.17c.7 0 1.176-.67 1.431-2h14.738v-4.83c1.33-.255 2-.73 2-1.427zm48.777 0v8.257h-18.17c.697 0 1.173-.67 1.43-2h14.74v-4.83c1.33-.255 2-.73 2-1.427zM68.834 145.777h2.643c-.865 0-.95 1.294-.26 3.889l1.054 3.897 1.645 1.292-.957 1.295 1.049 3.895c.188.703.382 1.3.582 1.812a.759.759 0 0 1-.287.073c-.85-.039-1.61-1.33-2.295-3.885l-1.049-3.895.957-1.295-1.645-1.292-1.054-3.897a14.768 14.768 0 0 1-.383-1.889zm10.736 0h3.184c-.871 0-1.3 1.294-1.3 3.889v3.889l1.3 1.3-1.3 1.295v.602h-2v-2.602l1.3-1.295-1.3-1.3v-3.889c0-.748.045-1.357.116-1.889zm21.856 0h3.178c-.865 0-1.295 1.294-1.295 3.889v1.3h-2v-.054h-6.483c.388.39.677.88.89 1.447a3.448 3.448 0 0 0-.19 1.196v2.595c0 .199.014.382.037.557-1.357-.175-2.038-1.025-2.038-2.557v-2.595c0-1.724.864-2.588 2.594-2.588h5.19v-1.301c0-.748.045-1.357.117-1.889zm42.754 0h2.64c-.858 0-.95 1.294-.254 3.889l1.047 3.897 1.645 1.292-.955 1.295 1.052 3.895c.187.704.38 1.302.58 1.814a.744.744 0 0 1-.287.07c-.844-.034-1.613-1.325-2.293-3.884l-1.052-3.895.955-1.295-1.645-1.292-1.047-3.897c-.2-.748-.316-1.357-.386-1.889zm12.978 0h1.328l1.498 4.465v3.961l-2.826-8.426zm6.834 0h3.182c-.865 0-1.301 1.294-1.301 3.889v2.604l-.582.585.582.583v.117l.717.716c.003.39.035.745.062 1.104l-.779.775v3.895c0 2.595.436 3.889 1.3 3.889h-6.872l-.672-2h5.545c-.865 0-1.301-1.294-1.301-3.89v-3.894l1.3-1.295-1.3-1.3v-3.889c0-.748.047-1.357.12-1.889zm21.75 0h2v4.485h-2v-4.485zm9.197 0h3.182c-.865 0-1.3 1.294-1.3 3.889v3.889l1.3 1.3-1.3 1.295v3.895c0 2.595.435 3.889 1.3 3.889h-5.19v-2h3.19c-.865 0-1.3-1.294-1.3-3.89v-3.894l1.3-1.295-1.3-1.3v-3.889c0-.748.046-1.357.118-1.889zm-62.568.479c1.84.852 2.764 2.85 2.764 6.006 0 3.05-.859 5.025-2.582 5.93.016.437.057.802.103 1.148h-.816c-.78 0-1.21-1.048-1.287-3.149 1.723-.904 2.582-2.88 2.582-5.93 0-1.653-.258-2.984-.764-4.005zm-16.457.277c1.89 1.027 2.884 3.129 3.031 6.246l-.078.076.086.086c.008.212.035.4.035.621l1.18 1.174v.239l-1.18 1.175c0 5.19-2.16 7.784-6.484 7.784-2.57 0-4.37-.925-5.414-2.756.928.504 2.066.756 3.414.756 4.324 0 6.484-2.594 6.484-7.784l1.3-1.295-1.3-1.292c0-2.107-.362-3.778-1.074-5.03zm62.57.002c1.72.934 2.708 2.745 2.985 5.406l-.91.914.699.7h-3.588c0-.908-.249-1.57-.73-2h2.619c0-2.102-.363-3.77-1.075-5.02zm-67.98 2.432c1.53 0 2.38.682 2.557 2.037a4.295 4.295 0 0 0-.557-.037c-1.73 0-2.594.866-2.594 2.595v2.588c0 .199.015.382.037.557-1.356-.175-2.037-1.025-2.037-2.557v-2.588c0-1.73.864-2.595 2.594-2.595zm13.553 0h3.894c.859 0 1.295.43 1.295 1.295 0 .289-.067.512-.164.705h-3.025v.595h-2v-2.595zm49.011 0c1.533 0 2.39.683 2.565 2.037a4.326 4.326 0 0 0-.565-.037c-1.723 0-2.595.864-2.595 2.588v2.595c0 .199.014.382.037.557-1.35-.176-2.037-1.026-2.037-2.557v-2.595c0-1.724.872-2.588 2.595-2.588zM66.232 151.04l1.184 4.41h-2.361l1.177-4.41zm75.35 0 1.184 4.41h-2.368l1.184-4.41zm13.213.469 2 5.947v6.477h-10.293l-.543-2h4.008c.519 1.298 1.081 1.97 1.681 1.996.593-.026.974-.698 1.147-1.996h2V151.51zm-53.486 1.402h1.468l.532.531v6.602c0 2.595.43 3.889 1.295 3.889h-6.485c-2.568 0-4.366-.924-5.408-2.754.926.502 2.062.754 3.408.754h6.485c-.865 0-1.295-1.294-1.295-3.89v-5.132zm84.433 2.54h5.19v2h-3.19v6.482h-5.183c.614 0 1.008-.674 1.185-2h1.998v-6.483zm-6.318.698h2.135c0 5.19-2.166 7.784-6.49 7.784-2.566 0-4.365-.925-5.409-2.756.927.503 2.063.756 3.408.756 3.724 0 5.838-1.936 6.356-5.784zm-55.367.594h2.619c.033.72.103 1.38.193 2h-.812v1.3c0 2.596.436 3.89 1.3 3.89h-6.49c.619 0 1.014-.674 1.192-2h3.298c-.864 0-1.3-1.294-1.3-3.89v-1.3zm-33.825 1.317c.095.27.18.55.3.79v5.083h-19.38l-.537-2h4.008c.519 1.296 1.076 1.968 1.68 1.996.595-.029.976-.7 1.15-1.996h11.078v-3.291c.82-.11 1.389-.304 1.701-.582zm-26.21 1.279h4.435l.537 2h-2.973l-.703 2.594h-5.19c.62 0 1.191-.674 1.722-2h1.468l.703-2.594zm75.341 0h4.436l.543 2h-2.979l-.7 2.594h-5.19c.618 0 1.193-.674 1.722-2h1.467l.701-2.594zm-6.228 1.586c.19.272.424.414.705.414h.603c-.31.392-.634.594-.97.594h1.662v4.595h-1.295c-1.788 0-3.116-.812-3.98-2.433.583.28 1.237.433 1.98.433h1.295v-3.603zM58.27 171.949h140.46a76.642 76.642 0 0 1-1.591 3.328H59.863a76.66 76.66 0 0 1-1.593-3.328zm25.925 11.225c1.63-.019 3.002.13 3.543.201a1.67 1.67 0 0 1 1.444 1.86c-.117.91-.945 1.54-1.862 1.443-2.815-.351-7.197-.183-8.101 1.072-.306.423-.046 1.191.22 1.764 1.392 2.926 10.016.03 15.725-1.881 5.495-1.847 8.98-2.952 11.27-2.451 1.775.39 3.12 1.672 3.693 3.506.78 2.523-.034 5.643-2.023 7.769-1.093 1.158-3.277 2.81-6.893 2.81-1.001 0-2.107-.13-3.336-.423a1.662 1.662 0 0 1-1.223-2.008 1.658 1.658 0 0 1 2.01-1.23c2.978.728 5.47.215 7.018-1.43 1.372-1.463 1.618-3.362 1.267-4.5-.214-.69-.624-1.106-1.222-1.242-1.51-.319-5.757 1.098-9.502 2.353-8.031 2.692-17.134 5.749-19.787.156-1.19-2.51-.612-4.188.084-5.15 1.52-2.093 4.958-2.588 7.675-2.62zm89.002.002c2.716.03 6.154.524 7.674 2.617.696.962 1.282 2.64.092 5.15-2.66 5.6-11.758 2.536-19.79-.156-3.745-1.255-7.997-2.672-9.5-2.353-.597.136-1.007.552-1.222 1.242-.351 1.138-.11 3.037 1.268 4.5 1.547 1.645 4.033 2.151 7.017 1.43a1.667 1.667 0 0 1 .787 3.238c-1.229.292-2.334.424-3.335.424-3.616 0-5.803-1.651-6.895-2.809-1.996-2.126-2.802-5.248-2.022-7.772.566-1.833 1.913-3.115 3.688-3.505 2.296-.508 5.78.604 11.275 2.45 5.71 1.913 14.326 4.808 15.717 1.882.273-.573.534-1.341.229-1.764-.91-1.255-5.295-1.423-8.104-1.072a1.676 1.676 0 0 1-1.86-1.444 1.661 1.661 0 0 1 1.444-1.859 26.818 26.818 0 0 1 3.537-.2zm16.088 20.387 2.111 3.794c.26.477.21 1.066-.13 1.487a1.258 1.258 0 0 1-1.403.404c-.195-.07-2.222-.893-4.638-2.004.712-.607 1.428-1.209 2.12-1.838.009.003.019.008.026.012l-.012-.023c.656-.596 1.288-1.218 1.926-1.833zM69.59 205.345a88.365 88.365 0 0 0 2.785 2.414c-.749.322-1.895.828-1.988.863a1.266 1.266 0 0 1-1.408-.385 1.338 1.338 0 0 1-.145-1.486l.756-1.406zm112.254 4.636c.01.014.027.018.037.032l.869 1.265 11.873 3.2 3.734 11.257.721 8.168-3.244 2.328-5.969-2.9-10.3-7.941 1.087-12.614-.857-1.252c-.003-.004-.003-.008-.006-.011a88.143 88.143 0 0 0 2.055-1.532zm-105.502.91a88.075 88.075 0 0 0 3.435 2.428l1.127 11.297-10.197 8.088-5.922 2.982-3.275-2.28.61-8.188 3.577-11.295 10.645-3.031zm-1.057 3.024-9.972 2.84-1.22 16.353 14.364-7.234-1.043-10.502-6.768 10.158c-.244.37-.649.569-1.058.569-.245 0-.5-.072-.719-.23-.584-.406-.73-1.221-.33-1.821l6.746-10.133zm100.778.15c.174 2.65.232 4.833.23 5.043a1.315 1.315 0 0 1-.854 1.217 1.246 1.246 0 0 1-1.404-.39l-2.54-3.096a87.761 87.761 0 0 0 4.567-2.774zm8.972.543 6.885 10.034c.41.594.27 1.411-.305 1.832-.225.159-.483.24-.738.24-.4 0-.795-.195-1.045-.559l-6.9-10.056-.905 10.513 14.457 7.035-1.431-16.337-10.018-2.702zm-100.894 1.444a87.614 87.614 0 0 0 3.197 1.804l-.979 1.227c-.244.308-.61.482-.99.482a1.27 1.27 0 0 1-.408-.072 1.315 1.315 0 0 1-.87-1.2c-.002-.102.034-1.395.05-2.241z" transform="scale(.75)"/><path style="display:inline;fill:#d4aa00;fill-opacity:1;fill-rule:nonzero;stroke:none;stroke-width:1.33333" d="M69.29 128.658c-1.184 0-2.03.911-2.03 2.127-.033 1.223.812 2.133 1.996 2.133 1.222 0 2.03-.91 2.03-2.133-.033-1.248-.807-2.127-1.997-2.127zm122.675 0c-1.184 0-2.028.911-2.028 2.127-.038 1.223.807 2.133 1.997 2.133 1.216 0 2.029-.91 2.029-2.133-.033-1.248-.815-2.127-1.998-2.127z" transform="scale(.75)"/><g style="display:inline;fill:url(#b);fill-opacity:1"><g style="fill-opacity:1;fill:url(#b)"><path style="display:inline;fill:url(#b);fill-opacity:1;fill-rule:nonzero;stroke:none;stroke-width:1.33333" d="M128.5 52.855c-48.33 0-87.645 39.322-87.645 87.645 0 48.33 39.316 87.652 87.645 87.652 48.33 0 87.652-39.323 87.652-87.652 0-48.323-39.323-87.645-87.652-87.645zm0 3.329c46.496 0 84.324 37.827 84.324 84.316 0 46.496-37.828 84.324-84.324 84.324-46.49 0-84.316-37.828-84.316-84.324 0-46.49 37.827-84.316 84.316-84.316zm0 4.02c-44.278 0-80.303 36.018-80.303 80.296 0 44.285 36.025 80.31 80.303 80.31s80.305-36.025 80.305-80.31c0-44.278-36.027-80.297-80.305-80.297zm0 3.33c42.444 0 76.975 34.528 76.975 76.966 0 42.444-34.53 76.982-76.975 76.982-42.444 0-76.975-34.538-76.975-76.982 0-42.438 34.53-76.967 76.975-76.967z" transform="scale(.75)"/><path style="display:inline;fill:url(#b);stroke:none;stroke-width:1;stroke-linecap:round;stroke-linejoin:round;stroke-miterlimit:4;stroke-dasharray:none;paint-order:stroke fill markers;fill-opacity:1" d="M247.838 89.582a9.36 9.36 0 0 0-2.246.273 9.36 9.36 0 0 0-2.11.803 9.36 9.36 0 0 0-.02.012 9.36 9.36 0 0 0-1.845 1.28l-40.549-.544a87.78 87.78 0 0 1 1.705 2.645l36.805.492a9.36 9.36 0 0 0 0 .002 9.36 9.36 0 0 0-.557 1.285 9.36 9.36 0 0 0-.105.34 9.36 9.36 0 0 0-.254 1.014 9.36 9.36 0 0 0-.074.392 9.36 9.36 0 0 0-.111 1.365 9.36 9.36 0 0 0 .265 2.194 9.36 9.36 0 0 0 .006.031 9.36 9.36 0 0 0 .781 2.082 9.36 9.36 0 0 0 1.254 1.84 9.36 9.36 0 0 0 .006.006 9.36 9.36 0 0 0 1.656 1.492l-27.496 19.717c.157.963.287 1.934.412 2.908l29.75-21.332a9.36 9.36 0 0 0 1.293.299 9.36 9.36 0 0 0 .082.015 9.36 9.36 0 0 0 1.352.11 9.36 9.36 0 0 0 1.002-.06 9.36 9.36 0 0 0 .234-.028 9.36 9.36 0 0 0 .987-.18 9.36 9.36 0 0 0 .082-.023 9.36 9.36 0 0 0 .896-.282 9.36 9.36 0 0 0 .197-.072 9.36 9.36 0 0 0 .907-.408 9.36 9.36 0 0 0 .144-.08 9.36 9.36 0 0 0 .77-.467 9.36 9.36 0 0 0 .156-.103 9.36 9.36 0 0 0 .766-.598 9.36 9.36 0 0 0 .18-.166 9.36 9.36 0 0 0 .605-.607 9.36 9.36 0 0 0 .113-.124 9.36 9.36 0 0 0 .61-.775 9.36 9.36 0 0 0 .132-.2 9.36 9.36 0 0 0 .447-.74 9.36 9.36 0 0 0 .077-.136 9.36 9.36 0 0 0 .4-.887 9.36 9.36 0 0 0 .09-.244 9.36 9.36 0 0 0 .275-.883 9.36 9.36 0 0 0 .022-.076 9.36 9.36 0 0 0 .177-.98 9.36 9.36 0 0 0 .03-.243 9.36 9.36 0 0 0 .06-1 9.36 9.36 0 0 0-.232-2.07 9.36 9.36 0 0 0-.008-.027 9.36 9.36 0 0 0-.684-1.953 9.36 9.36 0 0 0-.003-.01 9.36 9.36 0 0 0-.006-.01 9.36 9.36 0 0 0-1.102-1.754 9.36 9.36 0 0 0-.016-.02 9.36 9.36 0 0 0-1.462-1.462 9.36 9.36 0 0 0-.024-.02 9.36 9.36 0 0 0-1.75-1.097 9.36 9.36 0 0 0-.025-.014 9.36 9.36 0 0 0-1.938-.678 9.36 9.36 0 0 0-.05-.012 9.36 9.36 0 0 0-2.06-.232zm-43.408 7.234c.5.87.995 1.742 1.466 2.63l26.514.04 2.024 7.221-20.524 14.316c.208.917.409 1.837.588 2.764l22.137-15.445c.454-.318.66-.902.51-1.446l-2.541-9.082a1.28 1.28 0 0 0-1.225-.955l-28.95-.043zM9.223 90.076a9.36 9.36 0 0 0-9.36 9.362 9.36 9.36 0 0 0 9.36 9.359 9.36 9.36 0 0 0 2.593-.381l29.66 22.088c.113-.992.23-1.983.376-2.965l-27.356-20.373a9.36 9.36 0 0 0 4.086-7.728 9.36 9.36 0 0 0-1.05-4.31l35.907.18a87.568 87.568 0 0 1 1.66-2.615l-39.601-.199a9.36 9.36 0 0 0-6.275-2.418zm14.441 7.487c-.59.03-1.073.368-1.238.927l-2.703 9.031c-.16.544.035 1.134.484 1.458l22.082 16.007c.17-.945.342-1.888.541-2.822l-20.39-14.781 2.142-7.18 25.912.434c.448-.874.901-1.743 1.377-2.6l-28.207-.475zM62.482 198.064l-12.56 41.247a9.36 9.36 0 0 0-4.678 8.087 9.36 9.36 0 0 0 9.36 9.36 9.36 9.36 0 0 0 9.36-9.36 9.36 9.36 0 0 0-.007-.316l32.438-25.064a87.08 87.08 0 0 1-2.776-1.14l-30.213 23.343a9.36 9.36 0 0 0-8.802-6.184 9.36 9.36 0 0 0-1.67.168l11.55-37.92a88.096 88.096 0 0 1-2.002-2.22zm4.137 4.456-9.469 29.882c-.174.56.03 1.164.5 1.493l7.618 5.302c.22.154.469.225.718.225.275 0 .55-.092.78-.272l24.418-19.373c-.867-.408-1.72-.839-2.57-1.275L65.936 236.49l-6.054-4.217 8.804-27.785c-.695-.65-1.394-1.296-2.068-1.968zM196.656 195.533a88.035 88.035 0 0 1-1.95 2.317l12.972 40.623a9.36 9.36 0 0 0-1.75-.166 9.36 9.36 0 0 0-8.824 6.271l-32.377-24.307c-.907.413-1.814.822-2.737 1.204l34.592 25.964a9.36 9.36 0 0 0-.014.227 9.36 9.36 0 0 0 9.36 9.36 9.36 9.36 0 0 0 9.36-9.36 9.36 9.36 0 0 0-4.546-8.025l-14.086-44.108zm-4.064 4.676c-.66.709-1.32 1.417-2.004 2.103l10.098 30.44-5.995 4.3-24.955-19.24c-.845.452-1.7.886-2.562 1.311l26.719 20.602c.23.169.5.261.77.261.254 0 .513-.082.728-.236l7.547-5.41c.468-.339.665-.948.48-1.502l-10.826-32.629z" transform="scale(.75)"/><path style="display:inline;fill:url(#c);fill-opacity:1;stroke:none;stroke-width:1;stroke-linecap:round;stroke-linejoin:round;stroke-miterlimit:4;stroke-dasharray:none;paint-order:stroke fill markers" d="M131.686-.047c-.15.014-.299.03-.448.05-9.37.03-16.953 7.634-16.955 17.005a17.01 17.01 0 0 0 4.602 11.603l-8.315 26.125c.945-.196 1.902-.36 2.858-.525l7.547-23.719c.667.516 1.372.982 2.109 1.393l-6.69 21.86c.927-.129 1.854-.257 2.79-.356l6.248-20.426c1.876.693 3.86 1.05 5.861 1.053a17.007 17.007 0 0 0 5.514-.946l6.2 21.04c.945.157 1.888.316 2.821.503l-6.646-22.539a17.008 17.008 0 0 0 1.787-1.082l7.469 24.205c.973.227 1.943.462 2.904.721l-8.24-26.709a17.008 17.008 0 0 0 5.199-12.201c-.001-8.315-6.013-15.41-14.215-16.776a10.556 10.556 0 0 0-2.4-.279z" transform="scale(.75)"/><path style="fill:#fff;fill-opacity:1;fill-rule:nonzero;stroke:none;stroke-width:1.33333" d="m187.674 116.512-3.082.299c-.37 2.438-1.248 5.956-1.996 7.953l1.898-.235c.943-1.56 2.4-5.176 3.18-8.017zm-114.9.052v8.258c0-1.105 1.924-1.658 5.78-1.658v3.31l-1.65 1.651 1.65 1.652v4.955c0 3.304-.55 4.955-1.65 4.955h8.258c-1.099 0-1.652-1.651-1.652-4.955v-4.955l1.652-1.652-1.652-1.65v-3.311c3.856 0 5.781.553 5.781 1.658v-8.258zm17.195 0c1.105 0 1.65 1.652 1.65 4.956v4.955l-1.65 1.65 1.65 1.652v4.955c0 3.304-.545 4.955-1.65 4.955h6.605v-8.257h6.608v8.257h6.607c-1.099 0-1.652-1.651-1.652-4.955v-4.955l1.652-1.652-1.652-1.65v-4.956c0-3.303.553-4.955 1.652-4.955h-6.607v8.258h-6.608v-8.258zm21.224 0c1.106 0 1.653 1.652 1.653 4.956v4.955l-1.653 1.65 1.653 1.652v4.955c0 3.304-.547 4.955-1.653 4.955h18.17v-8.257c0 1.099-1.653 1.65-4.957 1.65h-6.605v-2.477h8.258c0-2.75.553-4.402 1.652-4.955h-9.91v-2.478h6.605c3.304 0 4.957.547 4.957 1.652v-8.258zm38.127 0c-5.508 0-8.26 3.304-8.26 9.91l-1.65 1.651 1.65 1.652c0 6.607 2.752 9.91 8.26 9.91s8.258-3.303 8.258-9.91l1.652-1.652-1.652-1.65c0-6.607-2.75-9.91-8.258-9.91zm10.65 0c1.1 0 1.653 1.652 1.653 4.956v4.955l-1.652 1.65 1.652 1.652v4.955c0 3.304-.553 4.955-1.652 4.955h18.17v-8.257c0 1.099-1.652 1.65-4.955 1.65h-6.608v-3.303l1.652-1.652-1.652-1.65v-4.956c0-3.303.553-4.955 1.652-4.955zm-10.65 6.606c2.198 0 3.303 1.1 3.303 3.305v3.302c0 2.198-1.105 3.303-3.303 3.303-2.204 0-3.304-1.105-3.304-3.303v-3.302c0-2.205 1.1-3.305 3.304-3.305zm-86.326 20.607c.865 0 .95 1.294.26 3.889l-1.053 3.896-1.633 1.293.944 1.295-1.047 3.895c-.696 2.595-1.471 3.889-2.336 3.889h5.19l.702-2.594h4.436l.695 2.594h19.38v-6.483c0 .865-1.295 1.3-3.89 1.3h-5.189v-2.6l1.3-1.296-1.3-1.3v-3.889c0-2.595.43-3.889 1.3-3.889h-6.49c.866 0 1.301 1.294 1.301 3.889v3.889l-1.3 1.3 1.3 1.295v3.895c0 2.554-.423 3.845-1.261 3.885-.85-.039-1.61-1.33-2.295-3.885l-1.049-3.895.957-1.295-1.645-1.293-1.054-3.896c-.69-2.595-.605-3.889.26-3.889zm33.125 0c-4.324 0-6.482 2.595-6.482 7.778l-1.301 1.3 1.3 1.295c0 5.19 2.159 7.784 6.483 7.784h6.485c-.865 0-1.295-1.294-1.295-3.89v-7.132h-6.483c.859.865 1.293 2.159 1.293 3.889h1.295v1.943H96.12c-1.73 0-2.594-.864-2.594-2.594v-2.595c0-1.724.864-2.588 2.594-2.588h5.19v-1.301c0-2.595.43-3.889 1.295-3.889zm14.385 0c-4.325 0-6.49 2.596-6.49 7.785l-1.293 1.293 1.293 1.295c0 5.19 2.165 7.784 6.49 7.784 4.324 0 6.484-2.594 6.484-7.784l1.3-1.295-1.3-1.293c0-5.189-2.16-7.785-6.484-7.785zm8.363 0c.865 0 1.301 1.294 1.301 3.889v3.896l-1.3 1.293 1.3 1.295v3.895c0 2.595-.436 3.889-1.3 3.889h6.49c-.865 0-1.301-1.294-1.301-3.89v-1.3h2.619c.24 5.19 1.964 7.785 5.164 7.785h1.295v-5.19h-1.295c-.78 0-1.21-1.047-1.287-3.148 1.723-.904 2.582-2.88 2.582-5.93 0-4.324-1.73-6.484-5.184-6.484zm19.469 0c.865 0 .949 1.294.26 3.889l-1.053 3.896-1.633 1.293.95 1.295-1.053 3.895c-.69 2.595-1.47 3.889-2.334 3.889h5.19l.7-2.594h4.436l.703 2.594H154.794V151.51l3.507 10.424h6.873c-.865 0-1.3-1.294-1.3-3.89v-3.894l1.3-1.295-1.3-1.3v-3.889c0-2.595.435-3.889 1.3-3.889h-5.19v10.426l-3.498-10.426h-6.873c.859 0 1.293 1.294 1.293 3.889v3.889l-1.293 1.3 1.293 1.295v3.895c0 2.558-.423 3.848-1.258 3.885-.844-.035-1.613-1.326-2.293-3.885l-1.052-3.895.955-1.295-1.645-1.293-1.047-3.896c-.695-2.595-.604-3.889.254-3.889zm34.732 0c-4.318 0-6.484 2.595-6.484 7.778l-1.293 1.3 1.293 1.295c0 5.19 2.166 7.784 6.484 7.784 4.325 0 6.49-2.594 6.49-7.784h-3.888c0 1.73-.872 2.594-2.602 2.594-1.723 0-2.595-.864-2.595-2.594v-2.595c0-1.724.872-2.588 2.595-2.588 1.73 0 2.602.864 2.602 2.588h3.889c0-5.183-2.166-7.778-6.49-7.778zm7.49 0c.859 0 1.296 1.294 1.296 3.889v3.889l-1.295 1.3 1.295 1.295v3.895c0 2.595-.437 3.889-1.295 3.889h5.183v-6.483h5.19v6.483h5.19c-.866 0-1.302-1.294-1.302-3.89v-3.894l1.301-1.295-1.3-1.3v-3.889c0-2.595.435-3.889 1.3-3.889h-5.19v6.485h-5.189v-6.485zm-70.054 5.19c1.73 0 2.594.866 2.594 2.595v2.588c0 1.73-.864 2.594-2.594 2.594s-2.594-.864-2.594-2.594v-2.588c0-1.73.864-2.595 2.594-2.595zm13.553 0h3.894c.859 0 1.295.43 1.295 1.295s-.436 1.3-1.295 1.3h-3.894zm-57.825 2.074 1.184 4.41h-2.361zm75.35 0 1.184 4.41h-2.368z" transform="scale(.75)"/><path style="fill:#fff;fill-opacity:1;fill-rule:nonzero;stroke:none;stroke-width:1" d="m96.905 56.497 2.863 5.794 6.394.931-4.629 4.512 1.093 6.37-5.721-3.01-5.721 3.01 1.092-6.37-4.628-4.512 6.394-.931zM96.905 136.653l2.863 5.794 6.394.931-4.629 4.512 1.093 6.37-5.721-3.01-5.721 3.01 1.092-6.37-4.628-4.512 6.394-.931zm0 0"/></g></g></g></svg>