<svg width="58" height="65" viewBox="0 0 58 65" fill="none" xmlns="http://www.w3.org/2000/svg">
<path d="M31.146 1.91306L43.5659 5.74951L46.5016 9.36686L52.8991 12.3817C54.6046 13.1923 55.7423 14.8611 55.8643 16.7452C57.01 34.4534 51.2457 45.9319 44.7239 53.1637C39.738 51.2979 34.2852 50.2584 28.5637 50.2584C22.842 50.2584 17.3889 51.2978 12.4029 53.1637C5.88114 45.9319 0.117318 34.4534 1.26302 16.7452C1.38505 14.8611 2.52221 13.1923 4.22769 12.3817L10.8464 9.36686L14.0354 5.74951L25.9416 1.95233C25.2461 2.63355 24.8135 3.58233 24.8135 4.63072C24.8135 6.69938 26.4955 8.38139 28.5642 8.38139C30.6329 8.38139 32.3154 6.69938 32.3154 4.63072C32.3154 3.56196 31.8653 2.59683 31.146 1.91306V1.91306Z" fill="#1A1A1A"/>
<path d="M28.5642 0C28.4625 0 28.3623 0.012708 28.265 0.0403076L13.7346 4.67465C13.5211 4.73421 13.3306 4.85608 13.1853 5.02605L10.1328 8.48372L3.72385 11.3864C1.66536 12.3742 0.296635 14.3974 0.14991 16.6724C-0.756583 30.675 2.45125 42.4521 9.68576 51.6754C15.5082 59.1002 22.4204 62.8555 26.0217 64.4317C26.8294 64.7862 27.6833 64.965 28.5637 64.965C29.444 64.965 30.2999 64.7862 31.1062 64.4317C34.7074 62.8555 41.6196 59.1002 47.4421 51.6754C54.6766 42.4521 57.8835 30.675 56.9785 16.6724C56.8303 14.3887 55.4507 12.3579 53.3777 11.3729L47.2075 8.46615L44.4314 5.04672C44.292 4.87385 44.1034 4.74726 43.8899 4.68188L28.8882 0.0480591C28.7822 0.0160987 28.6732 0 28.5642 0ZM31.1459 1.91306L43.5659 5.74952L46.5016 9.36687L52.8991 12.3817C54.6046 13.1923 55.7423 14.8611 55.8643 16.7452C57.01 34.4534 51.2457 45.9319 44.7239 53.1637C39.738 51.2979 34.2852 50.2584 28.5637 50.2584C22.842 50.2584 17.3889 51.2978 12.4029 53.1637C5.88115 45.9319 0.117321 34.4534 1.26302 16.7452C1.38505 14.8611 2.52221 13.1923 4.2277 12.3817L10.8464 9.36687L14.0354 5.74952L25.9416 1.95234C25.2461 2.63355 24.8135 3.58233 24.8135 4.63072C24.8135 6.69939 26.4955 8.3814 28.5642 8.3814C30.6329 8.3814 32.3154 6.69939 32.3154 4.63072C32.3154 3.56197 31.8653 2.59684 31.1459 1.91306ZM28.5642 2.14354C28.8908 2.14355 29.2142 2.2079 29.5159 2.3329C29.8176 2.45791 30.0918 2.64112 30.3227 2.87208C30.5536 3.10304 30.7368 3.37722 30.8617 3.67897C30.9866 3.98072 31.0509 4.30413 31.0509 4.63072C31.0508 5.29022 30.7888 5.9227 30.3225 6.38904C29.8562 6.85537 29.2237 7.11737 28.5642 7.11739C27.9047 7.11737 27.2722 6.85537 26.8059 6.38904C26.3395 5.9227 26.0776 5.29022 26.0775 4.63072C26.0775 4.30413 26.1418 3.98073 26.2667 3.67897C26.3916 3.37722 26.5748 3.10304 26.8057 2.87208C27.0366 2.64112 27.3108 2.45791 27.6125 2.3329C27.9142 2.2079 28.2376 2.14355 28.5642 2.14354V2.14354ZM15.7882 9.7255C15.6657 9.72493 15.548 9.79305 15.4906 9.90999C15.4107 10.0741 15.4778 10.2704 15.642 10.3503C15.8047 10.4302 16.0024 10.3635 16.0823 10.1994C16.1622 10.0367 16.0936 9.83899 15.9309 9.75909C15.8847 9.73662 15.8362 9.72573 15.7882 9.7255ZM31.5935 13.594C31.4709 13.5934 31.3532 13.6621 31.2948 13.779C31.2149 13.9432 31.283 14.1389 31.4457 14.2188C31.6098 14.2987 31.8076 14.232 31.8875 14.0679C31.9674 13.9052 31.8993 13.7075 31.7366 13.6276C31.6904 13.6051 31.6414 13.5942 31.5935 13.594ZM48.8596 13.918C46.6137 13.918 44.7932 15.7385 44.7932 17.9844C44.7932 20.2318 46.6137 22.0519 48.8596 22.0519C51.1069 22.0519 52.927 20.2318 52.927 17.9844C52.927 15.7385 51.1069 13.918 48.8596 13.918ZM17.9359 17.03C17.8135 17.0294 17.6952 17.0975 17.6377 17.2145C17.5578 17.3772 17.6264 17.5748 17.7891 17.6547C17.9518 17.7346 18.149 17.6675 18.2289 17.5033C18.3088 17.3406 18.2407 17.1435 18.078 17.0636C18.0323 17.0411 17.9838 17.0302 17.9359 17.03ZM36.7859 18.865C36.6693 18.8701 36.5587 18.9376 36.5038 19.0495C36.4239 19.2122 36.4919 19.4099 36.6547 19.4898C36.8188 19.5697 37.015 19.5011 37.0949 19.3384C37.1748 19.1757 37.1082 18.978 36.944 18.8981C36.8932 18.8731 36.8389 18.8627 36.7859 18.865Z" fill="url(#paint0_linear_152_117)"/>
<path d="M28.5637 53.6281L29.2378 54.9922L30.7428 55.2116L29.6532 56.2735L29.9104 57.7727L28.5637 57.0652L27.217 57.7727L27.4742 56.2735L26.3846 55.2116L27.8911 54.9922L28.5637 53.6281Z" fill="white"/>
<path d="M22.7515 53.6281L23.4255 54.9922L24.9305 55.2116L23.841 56.2735L24.0981 57.7727L22.7515 57.0652L21.4048 57.7727L21.6619 56.2735L20.5739 55.2116L22.0789 54.9922L22.7515 53.6281Z" fill="white"/>
<path d="M34.3761 53.6281L35.0487 54.9922L36.5552 55.2116L35.4656 56.2735L35.7228 57.7727L34.3761 57.0652L33.0294 57.7727L33.2866 56.2735L32.197 55.2116L33.702 54.9922L34.3761 53.6281Z" fill="white"/>
<path d="M45.753 36.9234L28.1995 14.4384L24.3389 16.4743L16.8499 28.0804L20.0836 25.0127L21.3937 22.8002L25.2527 18.3371L25.9989 19.9402L27.1614 23.9255L29.8164 26.6989L29.6506 22.0194L32.9706 25.8315H33.9672L41.0218 33.2844L45.753 36.9234Z" fill="white"/>
<path d="M37.0922 27.2352L39.8805 21.6176L42.2373 19.9818L44.2559 23.6078L47.7179 27.4895L54.929 35.3602L52.5262 33.7782L44.1111 25.3801L42.2847 22.8727L41.0346 26.089L39.9766 25.4353L39.8805 23.3623L38.2936 26.3621L37.0922 27.2352Z" fill="white"/>
<path d="M18.1491 27.0493L11.7209 22.8175L10.2639 23.2533L2.19849 30.6694L9.74403 25.4905L11.097 26.5263L11.6682 26.3622L12.2934 24.3995L14.0623 27.4895L14.6875 25.8711L16.8723 27.1263L17.6472 27.1408" fill="white"/>
<path d="M11.745 35.5038C11.6585 35.5038 11.5704 35.4674 11.4985 35.3964C11.3415 35.2354 11.3254 34.9567 11.4604 34.7715L18.706 24.8672C18.841 24.682 19.0787 24.6612 19.2357 24.8205C19.3927 24.9815 19.4088 25.262 19.2739 25.4472L12.0282 35.3497C11.9549 35.4518 11.8507 35.5038 11.745 35.5038Z" fill="white"/>
<path d="M5.2279 23.468C5.0928 23.9837 4.61649 24.598 4.22281 24.9612C4.32886 25.0295 4.54259 25.0356 4.75178 25.0385C4.55566 25.4627 4.20665 25.8575 3.85945 26.1597C4.03523 26.2657 4.37371 26.3097 4.56982 26.2981C4.38824 26.7527 4.02542 27.1315 3.69275 27.4497C4.12466 27.6256 4.60735 27.6207 5.06012 27.6175C5.02396 27.8179 4.97077 28.1174 4.97077 28.1513C4.97222 28.2734 5.49375 28.2501 5.49375 28.1513C5.49375 28.1221 5.43792 27.8195 5.40005 27.6175C5.85436 27.6206 6.34025 27.6261 6.77232 27.4497C6.43965 27.1315 6.07629 26.7527 5.8947 26.2981C6.09081 26.3097 6.4293 26.2657 6.60508 26.1597C6.25788 25.8575 5.90941 25.4627 5.71329 25.0385C5.92248 25.0356 6.13621 25.0295 6.24226 24.9612C5.85003 24.598 5.37172 23.9837 5.23662 23.468H5.2279Z" fill="white"/>
<path d="M15.414 19.2684C15.2324 19.9613 14.5931 20.785 14.0657 21.2731C14.2081 21.3646 14.4926 21.3721 14.7745 21.375C14.5115 21.9444 14.0454 22.4734 13.5776 22.8802C13.8144 23.0211 14.2677 23.0806 14.532 23.0632C14.288 23.6734 13.8013 24.1816 13.3553 24.6087C13.9333 24.844 14.5813 24.838 15.1885 24.8337C15.1403 25.1025 15.0697 25.5038 15.0697 25.5484C15.0697 25.7141 15.7698 25.6821 15.7698 25.5484C15.7698 25.5095 15.6947 25.1044 15.6439 24.8337C16.2538 24.8379 16.9044 24.8448 17.4841 24.6087C17.0382 24.1816 16.55 23.6734 16.3074 23.0632C16.5718 23.0806 17.0249 23.0211 17.2602 22.8802C16.7939 22.4734 16.3278 21.9444 16.0634 21.375C16.3452 21.3721 16.6299 21.3646 16.7738 21.2731C16.2464 20.785 15.6069 19.9613 15.4238 19.2684H15.414Z" fill="white"/>
<path d="M28.9841 29.1674C28.9547 29.1674 28.9253 29.1685 28.8958 29.1701C28.1433 29.2123 27.4035 29.5506 26.914 29.7743C26.7411 29.8527 26.5613 29.9341 26.4989 29.9443C26.4553 29.9515 26.3736 29.9513 26.2646 29.9513C25.6312 29.96 24.3111 29.976 23.9058 30.884C23.7808 31.1658 23.6819 31.3665 23.6078 31.5175C23.4247 31.8909 23.3552 32.0305 23.4743 32.2993C23.5586 32.4881 23.7532 32.5662 23.9711 32.5009C24.1077 32.4602 24.2384 32.3643 24.3154 32.2394C24.3285 32.2742 24.3412 32.3077 24.3557 32.3396C24.1625 32.7347 23.5364 34.131 24.0725 34.7121C24.1073 34.7513 24.1569 34.7731 24.2092 34.7731H24.5954C24.6565 34.7731 24.7131 34.7424 24.748 34.693C24.7828 34.6436 24.7917 34.5813 24.7714 34.5247C24.7684 34.5174 24.5388 33.8579 24.8569 33.5179C24.9935 33.9726 25.2815 34.7121 25.71 34.7731H26.1415C26.2185 34.7731 26.2882 34.7253 26.3158 34.6527C26.3435 34.58 26.3227 34.4987 26.2646 34.4479C26.2574 34.442 25.6285 33.8768 25.7651 33.1083C25.8479 33.0138 26.1517 32.7173 26.695 32.7057H26.7081C27.2485 32.7057 27.7148 33.3538 27.8281 33.5266V33.9031C27.8281 33.9685 27.8628 34.0279 27.918 34.0627C27.9543 34.0844 27.9966 34.093 28.0373 34.0872C28.0417 34.1279 28.0589 34.1644 28.088 34.1934C28.1228 34.2312 28.1706 34.2528 28.2214 34.2528H28.3075L28.2944 34.3024C28.2726 34.3881 28.3131 34.4767 28.393 34.5159V34.5873C28.393 34.6411 28.4164 34.6904 28.4557 34.7268C28.4905 34.7558 28.5338 34.7731 28.5788 34.7731C28.586 34.7731 28.595 34.7716 28.6022 34.7716L29.1818 34.6964C29.2545 34.6877 29.3142 34.6365 29.336 34.5667C29.3578 34.497 29.3357 34.4217 29.2804 34.3723C29.2557 34.3505 29.0905 34.1963 29.0963 34.0263L29.908 34.6452C29.9429 34.6713 29.9821 34.6877 30.03 34.6833L30.6097 34.6539C30.6736 34.6496 30.7334 34.6134 30.7638 34.5553C30.7943 34.4986 30.7931 34.4306 30.7612 34.3739C30.738 34.3347 30.5415 34.0107 30.2611 33.9076C30.1449 33.7071 30.0389 33.4207 30.0999 33.3089C30.1188 33.3263 30.1406 33.3411 30.1653 33.3497C30.2147 33.3686 30.2686 33.3626 30.3151 33.3394L30.43 33.28C30.4852 33.3222 30.5635 33.329 30.6289 33.2942L30.7117 33.2495L30.8598 33.3726L31.0603 33.6881L31.239 33.9261C31.2739 33.9712 31.3262 33.9987 31.3828 34.0002C31.4409 34.0017 31.4947 33.9773 31.531 33.9337L31.7533 33.6663C31.7678 33.6474 31.7792 33.627 31.7865 33.6053L31.939 33.1504L32.3651 32.975C32.4348 32.9459 32.4811 32.8789 32.4811 32.8034V31.9361C32.5349 31.9027 32.5699 31.8429 32.5699 31.7776V31.3058L32.6309 31.2867C32.689 31.2693 32.7351 31.2244 32.754 31.1663C32.7715 31.1097 32.7615 31.0454 32.7252 30.9974L32.7017 30.9642L33.642 30.2304C33.7117 30.1752 33.7335 30.0793 33.6943 29.9994C33.6551 29.921 33.5648 29.8818 33.4791 29.9036L32.2561 30.238C32.2503 30.1959 32.231 30.1581 32.2005 30.1291C32.1613 30.0899 32.1063 30.0724 32.054 30.0768L31.64 30.1171C31.6342 30.0997 31.6254 30.0808 31.6138 30.0648C31.5644 29.9936 31.4698 29.9677 31.3899 30.0011L31.0413 30.1476C30.7612 29.8901 29.8965 29.1651 28.9842 29.1676L28.9841 29.1674Z" fill="white"/>
<path d="M50.9722 26.2802C50.8371 26.7959 50.3608 27.4102 49.9671 27.7734C50.0731 27.8417 50.2868 27.8478 50.496 27.8507C50.2999 28.2749 49.9509 28.6697 49.6037 28.9719C49.7795 29.0779 50.118 29.1219 50.3141 29.1102C50.1325 29.5649 49.7697 29.9437 49.437 30.2619C49.8689 30.4377 50.3516 30.4329 50.8044 30.4297C50.7682 30.6301 50.715 31.4874 50.715 31.5214C50.7165 31.6434 51.238 31.6202 51.238 31.5214C51.238 31.4922 51.1822 30.6317 51.1443 30.4297C51.5986 30.4329 52.0845 30.4383 52.5166 30.2619C52.1839 29.9437 51.8205 29.5649 51.639 29.1102C51.8351 29.1219 52.1736 29.0779 52.3493 28.9719C52.0021 28.6697 51.6537 28.2749 51.4576 27.8507C51.6668 27.8478 51.8805 27.8417 51.9865 27.7734C51.5943 27.4102 51.116 26.7959 50.9809 26.2802H50.9722Z" fill="white"/>
<path d="M27.94 34.5498C18.783 34.5514 9.9151 34.7906 2.84021 35.2268C4.88312 43.0053 8.50635 48.8426 12.4019 53.1642C17.3882 51.2981 22.8416 50.2584 28.5637 50.2584C34.2857 50.2584 39.7388 51.2981 44.725 53.1642C48.6206 48.8427 52.2437 43.0054 54.2867 35.2268H53.0614C45.9808 34.7902 37.1044 34.551 27.94 34.5498V34.5498ZM20.9058 37.0582H22.1631L23.0943 39.3191V38.0814H22.8354V37.0582H24.3722V38.0814H24.12V41.6615H23.0772L22.1827 39.4658L22.1889 40.6368H22.4426V41.6615H20.9058V40.6368H21.1641V38.0814H20.9058L20.9058 37.0582ZM28.0774 37.0582H31.1785V38.5935H30.1538V38.0814H29.3621V38.8472H30.3538V39.872H29.3621V40.6384H30.1538V40.1242H31.1785V41.6615H28.0774V40.6384H28.3374V38.0814H28.0774V37.0582ZM39.8829 37.0582H42.9825V38.5935H41.9577V38.0814H41.1655V38.8472H42.1572V39.872H41.1655V40.6384H41.9577V40.1242H42.9825V41.6615H39.8829V40.6384H40.1413V38.0814H39.8829V37.0582ZM47.1088 37.0582H48.6457V38.0814H48.3919V38.8472H48.518C48.6283 38.7188 48.7352 38.5908 48.841 38.4654C48.9468 38.3384 49.0525 38.2114 49.1583 38.0814H48.9454V37.0582H50.4823V38.0814H50.2497L49.1779 39.3599L50.2497 40.6368H50.4823V41.6615H48.9454V40.6368H49.1583C49.0525 40.5083 48.9468 40.3813 48.841 40.2544C48.7352 40.1275 48.6283 40.0004 48.518 39.872H48.3919V40.6368H48.6457V41.6615H47.1088V40.6368H47.3677V38.0814H47.1088V37.0582ZM6.6467 37.0644H9.28788L9.79999 37.5765V39.1077L9.54006 39.3599L9.79999 39.6198V41.1489L9.28788 41.6615H6.6467V40.6383H6.89888V38.0814H6.6467V37.0644ZM10.5591 37.0644H13.113V38.0814H12.8267L13.3729 40.6445H13.6266V41.6615H12.096V40.6445H12.3482L12.2949 40.3846H11.3839L11.3312 40.6446H11.5833V41.6615H10.0522V40.6446H10.3054L10.8506 38.0814H10.5591V37.0644ZM13.9119 37.0644H15.4431V38.0814H15.1888V40.6445H15.7888V40.1319H16.8135V41.6615H13.9119V40.6445H14.1641V38.0814H13.9119V37.0644ZM17.5649 37.0644H20.1198V38.0814H19.834L20.3802 40.6445H20.6324V41.6615H19.1033V40.6445H19.3555L19.3007 40.3846H18.3896L18.3364 40.6445H18.5891V41.6615H17.0595V40.6445H17.3122L17.8579 38.0814H17.5649V37.0644ZM25.1505 37.0644H27.2522L27.7663 37.5765V38.5935H26.74V38.0814H25.6626V40.6445H26.74V40.1319H27.7663V41.1505L27.2522 41.6615H25.1505L24.6384 41.1505V37.5765L25.1505 37.0644ZM31.4912 37.0644H34.0796L34.5923 37.5765V39.1077L34.3396 39.3599L34.5923 39.6198V40.6445H34.7783V41.6615H33.3608V40.6445H33.568V39.872H32.7758V40.6445H33.0285V41.6615H31.4912V40.6445H31.7516V38.0814H31.4912V37.0644ZM36.495 37.0644H39.0582L39.5703 37.5693V39.3599L39.0582 39.872H37.7735V40.6383H38.0257V41.6615H36.495V40.6383H36.7487V38.0814H36.495V37.0644ZM43.7545 37.0644H46.3099V38.0814H46.0247L46.5698 40.6445H46.822V41.6615H45.2914V40.6445H45.5451L45.4903 40.3846H44.5798L44.5271 40.6445H44.7808V41.6615H43.2501V40.6445H43.5023L44.0475 38.0814H43.7545V37.0644ZM7.92362 38.0814V38.8534H8.77525V38.0814H7.92362ZM32.7758 38.0814V38.8534H33.568V38.0814H32.7758ZM37.7735 38.0814V38.8472H38.5455V38.0814H37.7735ZM11.836 38.255L11.603 39.3599H12.0763L11.836 38.255ZM18.8428 38.255L18.6103 39.3599H19.0821L18.8428 38.255ZM45.033 38.255L44.7989 39.3599H45.2717L45.033 38.255ZM7.92362 39.872V40.6383H8.77525V39.872H7.92362ZM16.7236 42.9726H20.3032V44.7487H19.1198V44.156H18.2057V45.0401H19.3513V46.2235H18.2057V47.1062H19.1198V46.515H20.3032V48.289H16.7236V47.1062H17.0228V44.156H16.7236V42.9726ZM21.2634 42.9726H23.5521L24.1449 43.5653V44.7487H22.962V44.156H21.8551V45.0401H23.5521L24.1449 45.6313V47.6984L23.5521 48.289H21.2634L20.6722 47.6984V46.515H21.8551V47.1062H22.962V46.2235H21.2634L20.6722 45.6313V43.5653L21.2634 42.9726ZM24.4441 42.9726H27.9937V44.7471H27.1095V44.156H26.8181V47.1062H27.1095V48.289H25.336V47.1062H25.6347V44.156H25.336V44.7471H24.4441V42.9726ZM32.6177 42.9726H36.1674V44.7471H35.2837V44.156H34.9917V47.1062H35.2837V48.289H33.5097V47.1062H33.8083V44.156H33.5097V44.7471H32.6177V42.9726ZM36.4893 42.9726H40.0695V44.7487H38.8866V44.156H37.9724V45.0401H39.1176V46.2235H37.9724V47.1062H38.8866V46.515H40.0695V48.289H36.4893V47.1062H36.789V44.156H36.4893V42.9726ZM28.8236 42.9803H31.7733V44.156H31.4421L32.0725 47.1134H32.364V48.289H30.5977V47.1134H30.8891L30.8287 46.8147H29.7755L29.7135 47.1134H30.0065V48.289H28.2381V47.1134H28.5301L29.1606 44.156H28.8236V42.9803ZM30.298 44.3554L30.0298 45.6313H30.5749L30.298 44.3554ZM12.4412 45.4649H14.8875C14.9933 45.4649 15.0813 45.5529 15.0813 45.6587C15.0813 45.766 14.9933 45.852 14.8875 45.852H12.4412C12.3339 45.852 12.2474 45.766 12.2474 45.6587C12.2474 45.5529 12.3339 45.4649 12.4412 45.4649ZM42.2409 45.4649H44.6878C44.7936 45.4649 44.8811 45.5529 44.8811 45.6587C44.8811 45.766 44.7936 45.852 44.6878 45.852H42.2409C42.1336 45.852 42.0476 45.766 42.0476 45.6587C42.0476 45.5529 42.1336 45.4649 42.2409 45.4649Z" fill="white"/>
<defs>
<linearGradient id="paint0_linear_152_117" x1="7.96289" y1="49.3456" x2="54.5095" y2="11.6856" gradientUnits="userSpaceOnUse">
<stop stop-color="#EEDBA5"/>
<stop offset="1" stop-color="#EEDBA5"/>
</linearGradient>
</defs>
</svg>
