<?xml version="1.0" encoding="UTF-8" standalone="no"?>
<svg
   width="65mm"
   height="65mm"
   viewBox="0 0 184.25197 184.25197"
   version="1.2"
   id="svg184"
   sodipodi:docname="Balancer.svg"
   inkscape:version="1.1.1 (3bf5ae0d25, 2021-09-20, custom)"
   xmlns:inkscape="http://www.inkscape.org/namespaces/inkscape"
   xmlns:sodipodi="http://sodipodi.sourceforge.net/DTD/sodipodi-0.dtd"
   xmlns:xlink="http://www.w3.org/1999/xlink"
   xmlns="http://www.w3.org/2000/svg"
   xmlns:svg="http://www.w3.org/2000/svg">
  <sodipodi:namedview
     id="namedview186"
     pagecolor="#ffffff"
     bordercolor="#666666"
     borderopacity="1.0"
     inkscape:pageshadow="2"
     inkscape:pageopacity="0.0"
     inkscape:pagecheckerboard="0"
     inkscape:document-units="pt"
     showgrid="false"
     inkscape:zoom="3.3092597"
     inkscape:cx="64.213757"
     inkscape:cy="136.43535"
     inkscape:window-width="2560"
     inkscape:window-height="1381"
     inkscape:window-x="0"
     inkscape:window-y="0"
     inkscape:window-maximized="1"
     inkscape:current-layer="layer3"
     showguides="true"
     inkscape:guide-bbox="true"
     inkscape:snap-bbox="true"
     inkscape:snap-object-midpoints="true"
     inkscape:snap-center="true"
     units="mm"
     borderlayer="true"
     inkscape:showpageshadow="false"
     inkscape:snap-page="true"
     inkscape:snap-global="true" />
  <defs
     id="defs53">
    <linearGradient
       inkscape:collect="always"
       id="linearGradient41782">
      <stop
         style="stop-color:#ffcc00;stop-opacity:1;"
         offset="0"
         id="stop41778" />
      <stop
         style="stop-color:#ffdd55;stop-opacity:1"
         offset="1"
         id="stop41780" />
    </linearGradient>
    <clipPath
       id="clip1">
      <path
         d="M 0,0 H 255.11719 V 198.42578 H 0 Z m 0,0"
         id="path2" />
    </clipPath>
    <clipPath
       id="clip2">
      <path
         d="m 55,66 h 95 v 51 H 55 Z m 0,0"
         id="path5" />
    </clipPath>
    <clipPath
       id="clip3">
      <path
         d="M 121.54688,16.664062 97.765625,27.960938 89.191406,32.03125 62.121094,44.886719 c -4.585938,2.179687 -7.644532,6.667969 -7.972656,11.734375 -5.574219,86.156246 49.667972,117.550776 67.781252,125.480466 3.58984,1.57422 7.66797,1.57422 11.26172,0 18.10937,-7.92969 73.35156,-39.32422 67.77734,-125.480466 -0.32813,-5.066406 -3.38672,-9.554688 -7.97266,-11.734375 l -25.09765,-11.917969 -7.89453,-3.75 -26.42969,-12.554688 c -1.90235,-0.902343 -3.96094,-1.355468 -6.01563,-1.355468 -2.05468,0 -4.10937,0.453125 -6.01171,1.355468"
         id="path8" />
    </clipPath>
    <clipPath
       id="clip4">
      <path
         d="m 121,70 h 76 v 44 h -76 z m 0,0"
         id="path11" />
    </clipPath>
    <clipPath
       id="clip5">
      <path
         d="M 121.54688,16.664062 97.765625,27.960938 89.191406,32.03125 62.121094,44.886719 c -4.585938,2.179687 -7.644532,6.667969 -7.972656,11.734375 -5.574219,86.156246 49.667972,117.550776 67.781252,125.480466 3.58984,1.57422 7.66797,1.57422 11.26172,0 18.10937,-7.92969 73.35156,-39.32422 67.77734,-125.480466 -0.32813,-5.066406 -3.38672,-9.554688 -7.97266,-11.734375 l -25.09765,-11.917969 -7.89453,-3.75 -26.42969,-12.554688 c -1.90235,-0.902343 -3.96094,-1.355468 -6.01563,-1.355468 -2.05468,0 -4.10937,0.453125 -6.01171,1.355468"
         id="path14" />
    </clipPath>
    <clipPath
       id="clip6">
      <path
         d="m 95,60 h 69 v 51 H 95 Z m 0,0"
         id="path17" />
    </clipPath>
    <clipPath
       id="clip7">
      <path
         d="M 121.54688,16.664062 97.765625,27.960938 89.191406,32.03125 62.121094,44.886719 c -4.585938,2.179687 -7.644532,6.667969 -7.972656,11.734375 -5.574219,86.156246 49.667972,117.550776 67.781252,125.480466 3.58984,1.57422 7.66797,1.57422 11.26172,0 18.10937,-7.92969 73.35156,-39.32422 67.77734,-125.480466 -0.32813,-5.066406 -3.38672,-9.554688 -7.97266,-11.734375 l -25.09765,-11.917969 -7.89453,-3.75 -26.42969,-12.554688 c -1.90235,-0.902343 -3.96094,-1.355468 -6.01563,-1.355468 -2.05468,0 -4.10937,0.453125 -6.01171,1.355468"
         id="path20" />
    </clipPath>
    <clipPath
       id="clip8">
      <path
         d="m 144,65 h 55 v 42 h -55 z m 0,0"
         id="path23" />
    </clipPath>
    <clipPath
       id="clip9">
      <path
         d="M 121.54688,16.664062 97.765625,27.960938 89.191406,32.03125 62.121094,44.886719 c -4.585938,2.179687 -7.644532,6.667969 -7.972656,11.734375 -5.574219,86.156246 49.667972,117.550776 67.781252,125.480466 3.58984,1.57422 7.66797,1.57422 11.26172,0 18.10937,-7.92969 73.35156,-39.32422 67.77734,-125.480466 -0.32813,-5.066406 -3.38672,-9.554688 -7.97266,-11.734375 l -25.09765,-11.917969 -7.89453,-3.75 -26.42969,-12.554688 c -1.90235,-0.902343 -3.96094,-1.355468 -6.01563,-1.355468 -2.05468,0 -4.10937,0.453125 -6.01171,1.355468"
         id="path26" />
    </clipPath>
    <clipPath
       id="clip10">
      <path
         d="m 56,72 h 46 V 95 H 56 Z m 0,0"
         id="path29" />
    </clipPath>
    <clipPath
       id="clip11">
      <path
         d="M 121.54688,16.664062 97.765625,27.960938 89.191406,32.03125 62.121094,44.886719 c -4.585938,2.179687 -7.644532,6.667969 -7.972656,11.734375 -5.574219,86.156246 49.667972,117.550776 67.781252,125.480466 3.58984,1.57422 7.66797,1.57422 11.26172,0 18.10937,-7.92969 73.35156,-39.32422 67.77734,-125.480466 -0.32813,-5.066406 -3.38672,-9.554688 -7.97266,-11.734375 l -25.09765,-11.917969 -7.89453,-3.75 -26.42969,-12.554688 c -1.90235,-0.902343 -3.96094,-1.355468 -6.01563,-1.355468 -2.05468,0 -4.10937,0.453125 -6.01171,1.355468"
         id="path32" />
    </clipPath>
    <clipPath
       id="clip12">
      <path
         d="m 81,83 h 22 v 25 H 81 Z m 0,0"
         id="path35" />
    </clipPath>
    <clipPath
       id="clip13">
      <path
         d="M 121.54688,16.664062 97.765625,27.960938 89.191406,32.03125 62.121094,44.886719 c -4.585938,2.179687 -7.644532,6.667969 -7.972656,11.734375 -5.574219,86.156246 49.667972,117.550776 67.781252,125.480466 3.58984,1.57422 7.66797,1.57422 11.26172,0 18.10937,-7.92969 73.35156,-39.32422 67.77734,-125.480466 -0.32813,-5.066406 -3.38672,-9.554688 -7.97266,-11.734375 l -25.09765,-11.917969 -7.89453,-3.75 -26.42969,-12.554688 c -1.90235,-0.902343 -3.96094,-1.355468 -6.01563,-1.355468 -2.05468,0 -4.10937,0.453125 -6.01171,1.355468"
         id="path38" />
    </clipPath>
    <clipPath
       id="clip14">
      <path
         d="m 55,106 h 145 v 56 H 55 Z m 0,0"
         id="path41" />
    </clipPath>
    <clipPath
       id="clip15">
      <path
         d="M 121.54688,16.664062 97.765625,27.960938 89.191406,32.03125 62.121094,44.886719 c -4.585938,2.179687 -7.644532,6.667969 -7.972656,11.734375 -5.574219,86.156246 49.667972,117.550776 67.781252,125.480466 3.58984,1.57422 7.66797,1.57422 11.26172,0 18.10937,-7.92969 73.35156,-39.32422 67.77734,-125.480466 -0.32813,-5.066406 -3.38672,-9.554688 -7.97266,-11.734375 l -25.09765,-11.917969 -7.89453,-3.75 -26.42969,-12.554688 c -1.90235,-0.902343 -3.96094,-1.355468 -6.01563,-1.355468 -2.05468,0 -4.10937,0.453125 -6.01171,1.355468"
         id="path44" />
    </clipPath>
    <clipPath
       id="clip16">
      <path
         d="m 79,145 h 97 v 39 H 79 Z m 0,0"
         id="path47" />
    </clipPath>
    <clipPath
       id="clip17">
      <path
         d="M 121.54688,16.664062 97.765625,27.960938 89.191406,32.03125 62.121094,44.886719 c -4.585938,2.179687 -7.644532,6.667969 -7.972656,11.734375 -5.574219,86.156246 49.667972,117.550776 67.781252,125.480466 3.58984,1.57422 7.66797,1.57422 11.26172,0 18.10937,-7.92969 73.35156,-39.32422 67.77734,-125.480466 -0.32813,-5.066406 -3.38672,-9.554688 -7.97266,-11.734375 l -25.09765,-11.917969 -7.89453,-3.75 -26.42969,-12.554688 c -1.90235,-0.902343 -3.96094,-1.355468 -6.01563,-1.355468 -2.05468,0 -4.10937,0.453125 -6.01171,1.355468"
         id="path50" />
    </clipPath>
    <linearGradient
       inkscape:collect="always"
       xlink:href="#linearGradient41782"
       id="linearGradient41784"
       x1="51.252033"
       y1="186.50317"
       x2="227.17606"
       y2="44.166065"
       gradientUnits="userSpaceOnUse" />
  </defs>
  <g
     inkscape:groupmode="layer"
     id="layer3"
     inkscape:label="F.Cu"
     style="display:inline">
    <path
       style="fill:#1a1a1a;fill-opacity:1;fill-rule:nonzero;stroke:none;stroke-width:0.999997"
       d="m 104.15479,5.4228515 35.20605,10.8750005 8.32179,10.253906 18.13476,8.545898 c 4.83444,2.2978 8.05936,7.028196 8.40528,12.36914 3.24765,50.196314 -13.09221,82.733754 -31.57911,103.233394 -14.13332,-5.28886 -29.59005,-8.23535 -45.808593,-8.23535 -16.21881,0 -31.67657,2.94628 -45.810059,8.23535 -18.48689,-20.49964 -34.82529,-53.03708 -31.57764,-103.233394 0.34591,-5.340944 3.56936,-10.07134 8.40381,-12.36914 l 18.76172,-8.545898 9.03955,-10.253906 33.749999,-10.7636725 c -1.97141,1.931013 -3.19776,4.6204695 -3.19776,7.5922855 0,5.863922 4.76792,10.631835 10.63184,10.631835 5.863933,0 10.633303,-4.767913 10.633303,-10.631835 0,-3.02954 -1.27585,-5.7653534 -3.31494,-7.7036135 z"
       id="path42153" />
    <path
       id="path61"
       style="fill:url(#linearGradient41784);fill-opacity:1;fill-rule:nonzero;stroke:none;stroke-width:1.33333"
       d="M 129.11523 0 C 128.7309 0 128.35224 0.04803007 127.98438 0.15234375 L 73.066406 17.667969 C 72.259286 17.893081 71.539288 18.353698 70.990234 18.996094 L 59.453125 32.064453 L 35.230469 43.035156 C 27.450334 46.768742 22.277206 54.415452 21.722656 63.013672 C 18.29654 115.9372 30.420641 160.44902 57.763672 195.30859 C 79.769872 223.37087 105.89473 237.56423 119.50586 243.52148 C 122.55861 244.86118 125.78601 245.53711 129.11328 245.53711 C 132.44057 245.53711 135.67539 244.86118 138.72266 243.52148 C 152.33376 237.56423 178.45866 223.37087 200.46484 195.30859 C 227.80787 160.44902 239.92844 115.9372 236.50781 63.013672 C 235.9478 54.382508 230.73349 46.706975 222.89844 42.984375 L 199.57812 31.998047 L 189.08594 19.074219 C 188.55886 18.420844 187.84618 17.942386 187.03906 17.695312 L 130.33984 0.18164062 C 129.93904 0.060845497 129.52703 -9.2518585e-17 129.11523 0 z M 138.87305 7.2304688 L 185.81445 21.730469 L 196.91016 35.402344 L 221.08984 46.796875 C 227.53576 49.860608 231.83565 56.167803 232.29688 63.289062 C 236.62709 130.21748 214.84061 173.60074 190.19141 200.93359 C 171.34698 193.88177 150.73801 189.95312 129.11328 189.95312 C 107.4882 189.95312 86.877858 193.8815 68.033203 200.93359 C 43.384022 173.60074 21.599485 130.21748 25.929688 63.289062 C 26.390895 56.167803 30.688836 49.860608 37.134766 46.796875 L 62.150391 35.402344 L 74.203125 21.730469 L 119.20312 7.3789062 C 116.57458 9.9535903 114.93945 13.539532 114.93945 17.501953 C 114.93945 25.320516 121.29667 31.677734 129.11523 31.677734 C 136.93381 31.677734 143.29297 25.320516 143.29297 17.501953 C 143.29297 13.462567 141.59183 9.8148155 138.87305 7.2304688 z M 129.11523 8.1015625 A 9.398819 9.398819 0 0 1 138.51367 17.501953 A 9.398819 9.398819 0 0 1 129.11523 26.900391 A 9.398819 9.398819 0 0 1 119.7168 17.501953 A 9.398819 9.398819 0 0 1 129.11523 8.1015625 z M 80.828125 36.757812 C 80.365192 36.755635 79.920174 37.013087 79.703125 37.455078 C 79.401145 38.075511 79.654956 38.817159 80.275391 39.119141 C 80.890333 39.421121 81.63747 39.169261 81.939453 38.548828 C 82.241434 37.933884 81.982128 37.186744 81.367188 36.884766 C 81.19269 36.799833 81.009273 36.758666 80.828125 36.757812 z M 140.56445 51.378906 C 140.10121 51.376729 139.65654 51.636135 139.43555 52.078125 C 139.13357 52.69856 139.39091 53.438253 140.00586 53.740234 C 140.62631 54.042216 141.37381 53.790354 141.67578 53.169922 C 141.97778 52.554978 141.72042 51.807841 141.10547 51.505859 C 140.93097 51.420927 140.74572 51.379758 140.56445 51.378906 z M 205.82227 52.603516 C 197.33385 52.603516 190.45313 59.484244 190.45312 67.972656 C 190.45313 76.466556 197.33385 83.345703 205.82227 83.345703 C 214.31617 83.345703 221.19531 76.466556 221.19531 67.972656 C 221.19531 59.484244 214.31617 52.603516 205.82227 52.603516 z M 88.945312 64.365234 C 88.482823 64.363057 88.035407 64.62051 87.818359 65.0625 C 87.516375 65.677444 87.77568 66.42458 88.390625 66.726562 C 89.005568 67.028544 89.750753 66.774732 90.052734 66.154297 C 90.354716 65.539354 90.097365 64.79417 89.482422 64.492188 C 89.309469 64.407256 89.126287 64.366086 88.945312 64.365234 z M 160.18945 71.300781 C 159.74876 71.320171 159.33065 71.575273 159.12305 71.998047 C 158.82107 72.61299 159.07841 73.360127 159.69336 73.662109 C 160.3138 73.964089 161.05542 73.704785 161.35742 73.089844 C 161.65941 72.4749 161.40754 71.727763 160.78711 71.425781 C 160.59494 71.331412 160.38977 71.291968 160.18945 71.300781 z "
       transform="scale(0.75)" />
    <path
       style="display:inline;fill:#ffffff;fill-opacity:1;fill-rule:nonzero;stroke:none;stroke-width:1"
       d="m 96.835084,152.01668 1.91072,3.86672 4.266176,0.62182 -3.088442,3.0102 0.728872,4.24971 -3.817326,-2.00544 -3.817313,2.00544 0.728877,-4.24971 -3.088447,-3.0102 4.270288,-0.62182 z m 0,0"
       id="path119" />
    <path
       style="display:inline;fill:#ffffff;fill-opacity:1;fill-rule:nonzero;stroke:none;stroke-width:1"
       d="m 80.359268,152.01668 1.910717,3.86672 4.266168,0.62182 -3.088438,3.0102 0.728867,4.24971 -3.817314,-2.00544 -3.817326,2.00544 0.728878,-4.24971 -3.084327,-3.0102 4.266168,-0.62182 z m 0,0"
       id="path121" />
    <path
       style="display:inline;fill:#ffffff;fill-opacity:1;fill-rule:nonzero;stroke:none;stroke-width:1"
       d="m 113.31092,152.01668 1.90658,3.86672 4.2703,0.62182 -3.08844,3.0102 0.72887,4.24971 -3.81731,-2.00544 -3.81732,2.00544 0.72886,-4.24971 -3.08844,-3.0102 4.26618,-0.62182 z m 0,0"
       id="path123" />
    <g
       id="g6083"
       style="display:inline;fill:#ffffff;stroke-width:0.948596"
       transform="matrix(1.0541892,0,0,1.0541879,-37.634783,-12.222506)">
      <g
         clip-path="url(#clip6)"
         clip-rule="nonzero"
         id="g79"
         transform="matrix(1.1415462,0,0,1.1917078,-13.430569,-21.256354)"
         style="fill:#ffffff;stroke-width:0.813298">
        <g
           clip-path="url(#clip7)"
           clip-rule="nonzero"
           id="g77"
           style="fill:#ffffff;stroke-width:0.745015">
          <path
             style="fill:#ffffff;fill-opacity:1;fill-rule:nonzero;stroke:none;stroke-width:0.813298"
             d="m 163.99609,110.87891 -41.34765,-50.734379 -9.09375,4.59375 -17.640628,26.1875 7.617188,-6.921875 3.08594,-4.992187 9.08984,-10.070313 1.75781,3.617188 2.73829,8.992187 6.2539,6.257813 -0.39062,-10.558594 7.82031,8.601562 h 2.34765 l 16.61719,16.816408 z m 0,0"
             id="path75" />
        </g>
      </g>
      <g
         clip-path="url(#clip8)"
         clip-rule="nonzero"
         id="g85"
         transform="matrix(0.8816823,0,0,1,23.479544,0)"
         style="fill:#ffffff;stroke-width:1.01025">
        <g
           clip-path="url(#clip9)"
           clip-rule="nonzero"
           id="g83"
           style="fill:#ffffff;stroke-width:1.0759">
          <path
             style="fill:#ffffff;fill-opacity:1;fill-rule:nonzero;stroke:none;stroke-width:1.01025"
             d="m 144.05469,84.828125 8.5039,-15.105469 7.1875,-4.398437 6.15625,9.75 10.5586,10.4375 21.99218,21.164061 -7.32812,-4.2539 -25.66406,-22.582036 -5.57032,-6.742188 -3.8125,8.648438 -3.22656,-1.757813 -0.29297,-5.574219 -4.83984,8.066407 z m 0,0"
             id="path81" />
        </g>
      </g>
      <g
         clip-path="url(#clip10)"
         clip-rule="nonzero"
         id="g91"
         transform="matrix(0.9542725,0,0,1,2.5901344,0)"
         style="fill:#ffffff;stroke-width:0.97106">
        <g
           clip-path="url(#clip11)"
           clip-rule="nonzero"
           id="g89"
           style="fill:#ffffff;stroke-width:0.994057">
          <path
             style="fill:#ffffff;fill-opacity:1;fill-rule:nonzero;stroke:none;stroke-width:0.97106"
             d="M 101.60938,84.328125 83.496094,72.949219 79.390625,74.121094 56.664062,94.0625 77.925781,80.136719 l 3.8125,2.785156 1.609375,-0.441406 1.761719,-5.277344 4.984375,8.308594 1.761719,-4.351563 6.15625,3.375 2.183591,0.03906"
             id="path87" />
        </g>
      </g>
      <g
         clip-path="url(#clip12)"
         clip-rule="nonzero"
         id="g97"
         transform="matrix(1.010053,0,0,1.1917078,-0.81851742,-21.256354)"
         style="fill:#ffffff;stroke-width:0.864618">
        <g
           clip-path="url(#clip13)"
           clip-rule="nonzero"
           id="g95"
           style="fill:#ffffff;stroke-width:0.792028">
          <path
             style="fill:#ffffff;fill-opacity:1;fill-rule:nonzero;stroke:none;stroke-width:0.864618"
             d="m 82.324219,107.67578 c -0.230469,0 -0.464844,-0.082 -0.65625,-0.24219 -0.417969,-0.36328 -0.460938,-0.99218 -0.101563,-1.41015 L 100.85547,83.675781 c 0.35937,-0.417969 0.99219,-0.464843 1.41016,-0.105469 0.41796,0.363282 0.46093,0.996094 0.10156,1.414063 L 83.078125,107.32813 c -0.195313,0.23046 -0.472656,0.34765 -0.753906,0.34765"
             id="path93" />
        </g>
      </g>
      <path
         id="path111"
         style="fill:#ffffff;fill-opacity:1;fill-rule:nonzero;stroke:none;stroke-width:0.948593"
         d="m 64.809082,74.698242 c -0.363282,1.386716 -1.644044,3.038575 -2.702637,4.015136 0.285156,0.183592 0.859863,0.200197 1.422363,0.208012 -0.527343,1.140623 -1.46582,2.202142 -2.399414,3.014647 0.472656,0.285158 1.382814,0.403321 1.910157,0.372068 -0.488281,1.222658 -1.463868,2.24121 -2.358399,3.096682 1.161377,0.472898 2.459304,0.459743 3.676758,0.451171 -0.09722,0.538972 -0.240234,1.344157 -0.240234,1.435545 0.0039,0.328125 1.40625,0.265627 1.40625,0 0,-0.07853 -0.15011,-0.89232 -0.251953,-1.435545 1.221602,0.0085 2.528131,0.02332 3.689941,-0.451171 -0.894532,-0.855472 -1.871581,-1.874024 -2.359863,-3.096682 0.527344,0.03128 1.437499,-0.08692 1.910156,-0.372068 -0.933594,-0.812505 -1.870605,-1.874024 -2.397949,-3.014647 0.5625,-0.0078 1.137207,-0.02445 1.422363,-0.208012 -1.054687,-0.976561 -2.34082,-2.62842 -2.704102,-4.015136 z" />
      <path
         id="path115"
         style="fill:#ffffff;fill-opacity:1;fill-rule:nonzero;stroke:none;stroke-width:0.948593"
         d="m 92.19873,63.405762 c -0.48828,1.86328 -2.20752,4.078125 -3.625485,5.390625 0.382807,0.246094 1.147943,0.266113 1.905758,0.273925 -0.707033,1.531251 -1.960448,2.953614 -3.218258,4.047364 0.636713,0.378905 1.85547,0.539062 2.566402,0.492187 -0.65625,1.640622 -1.964842,3.007324 -3.164062,4.155762 1.554045,0.632745 3.296475,0.616388 4.929202,0.60498 -0.129629,0.722685 -0.319334,1.801777 -0.319334,1.921875 0,0.445312 1.882319,0.359378 1.882319,0 0,-0.104715 -0.201817,-1.194105 -0.338377,-1.921875 1.63986,0.0114 3.389363,0.0297 4.948245,-0.60498 -1.19922,-1.148438 -2.51172,-2.51514 -3.164062,-4.155762 0.710932,0.04687 1.929194,-0.113282 2.562007,-0.492187 -1.253903,-1.09375 -2.507325,-2.516113 -3.218257,-4.047364 0.757807,-0.0078 1.523437,-0.02782 1.910152,-0.273925 -1.417965,-1.3125 -3.137693,-3.527345 -3.62988,-5.390625 z" />
      <path
         id="path171"
         style="fill:#ffffff;fill-opacity:1;fill-rule:nonzero;stroke:none;stroke-width:0.948593"
         d="m 128.68798,90.023437 c -0.0791,2.18e-4 -0.15795,0.003 -0.23729,0.0075 -2.02344,0.113279 -4.0127,1.022947 -5.32911,1.624507 -0.46484,0.210937 -0.94824,0.42969 -1.11621,0.457035 -0.11719,0.0195 -0.33692,0.01905 -0.62989,0.01905 -1.70312,0.0234 -5.25293,0.06638 -6.34277,2.507813 -0.33594,0.757807 -0.60204,1.297357 -0.80127,1.70361 -0.49218,1.003905 -0.67919,1.3794 -0.35888,2.102055 0.22656,0.507765 0.74999,0.717772 1.33594,0.541987 0.36717,-0.109365 0.71874,-0.367185 0.92578,-0.703125 0.0352,0.09375 0.0693,0.18363 0.10839,0.269535 -0.51952,1.062495 -2.20311,4.816896 -0.76171,6.379396 0.0937,0.10547 0.22705,0.16406 0.36767,0.16406 h 1.03858 c 0.16407,0 0.31645,-0.0825 0.41015,-0.21533 0.0937,-0.13281 0.11769,-0.3003 0.063,-0.45264 -0.008,-0.0195 -0.62549,-1.79297 0.22998,-2.70703 0.36719,1.22265 1.1416,3.21093 2.29394,3.375 h 1.16016 c 0.20704,0 0.39455,-0.12842 0.46875,-0.32373 0.0743,-0.19531 0.0185,-0.41406 -0.1377,-0.55078 -0.0195,-0.0156 -1.71045,-1.53565 -1.34326,-3.60205 0.22266,-0.25391 1.03955,-1.051321 2.50049,-1.082521 h 0.0352 c 1.45313,0 2.70703,1.742671 3.01172,2.207521 v 1.01221 c 0,0.17578 0.0933,0.3355 0.2417,0.42919 0.0977,0.0584 0.21143,0.0815 0.3208,0.0659 0.0117,0.10937 0.0581,0.20754 0.13623,0.28564 0.0937,0.10156 0.22218,0.15967 0.35889,0.15967 h 0.23144 l -0.0352,0.13331 c -0.0586,0.23046 0.0503,0.46874 0.26513,0.57421 v 0.1919 c 0,0.14453 0.063,0.27729 0.16846,0.375 0.0937,0.0781 0.20997,0.12451 0.33105,0.12451 0.0195,0 0.0435,-0.004 0.063,-0.004 l 1.5586,-0.20215 c 0.19531,-0.0235 0.35595,-0.16113 0.41455,-0.34863 0.0586,-0.1875 -7.5e-4,-0.39014 -0.14942,-0.52295 -0.0664,-0.0586 -0.51071,-0.47314 -0.49511,-0.93018 l 2.18261,1.66406 c 0.0937,0.0703 0.19922,0.11424 0.32813,0.10254 l 1.5586,-0.0791 c 0.17187,-0.0117 0.33255,-0.10888 0.41454,-0.26513 0.0818,-0.15236 0.0786,-0.33545 -0.007,-0.48779 -0.0625,-0.10548 -0.59082,-0.97656 -1.34472,-1.25391 -0.31251,-0.53905 -0.59767,-1.30908 -0.4336,-1.60986 0.0508,0.0469 0.10939,0.0865 0.17578,0.10986 0.13281,0.0508 0.27783,0.0346 0.40284,-0.0278 l 0.30908,-0.15967 c 0.14844,0.11331 0.35889,0.13179 0.53467,0.0381 l 0.22265,-0.12011 0.39844,0.33105 0.53906,0.84815 0.48047,0.64014 c 0.0937,0.12111 0.23438,0.19521 0.38672,0.19921 0.15625,0.004 0.30074,-0.0615 0.39843,-0.17871 l 0.59766,-0.71923 c 0.039,-0.0508 0.0698,-0.10547 0.0894,-0.16407 l 0.41015,-1.22314 1.14551,-0.47168 c 0.1875,-0.0781 0.31201,-0.2583 0.31201,-0.461428 v -2.332035 c 0.14459,-0.08984 0.23877,-0.250485 0.23877,-0.42627 v -1.26855 l 0.16407,-0.0513 c 0.15625,-0.04687 0.28026,-0.167483 0.33105,-0.32373 0.0469,-0.152348 0.02,-0.3252 -0.0776,-0.454103 l -0.063,-0.08935 2.52832,-1.973145 c 0.18753,-0.14844 0.2461,-0.406252 0.14062,-0.621097 -0.10546,-0.210938 -0.34814,-0.316403 -0.57861,-0.257813 l -3.28857,0.899415 c -0.0156,-0.11328 -0.0674,-0.214837 -0.14942,-0.292965 -0.10546,-0.105465 -0.25341,-0.152347 -0.39404,-0.140625 l -1.11328,0.108398 c -0.0156,-0.04687 -0.0391,-0.09766 -0.0703,-0.140625 -0.13281,-0.191408 -0.38721,-0.261233 -0.60206,-0.17139 l -0.9375,0.394042 c -0.75305,-0.692505 -3.07823,-2.641905 -5.53125,-2.635252 z" />
      <path
         id="path4908"
         style="fill:#ffffff;fill-opacity:1;fill-rule:nonzero;stroke:none;stroke-width:0.948593"
         d="m 187.81229,82.260055 c -0.36328,1.386715 -1.64404,3.038575 -2.70263,4.015135 0.28515,0.183593 0.85986,0.200198 1.42236,0.208013 -0.52734,1.140622 -1.46582,2.202142 -2.39942,3.014647 0.47266,0.285158 1.38282,0.40332 1.91016,0.372068 -0.48828,1.222657 -1.46387,2.24121 -2.3584,3.096682 1.16138,0.472898 2.45931,0.459743 3.67676,0.45117 -0.0972,0.538973 -0.24023,2.844158 -0.24023,2.935545 0.004,0.328125 1.40625,0.265628 1.40625,0 0,-0.07853 -0.15011,-2.39232 -0.25196,-2.935545 1.22161,0.0086 2.52813,0.02332 3.68994,-0.45117 -0.89453,-0.855472 -1.87158,-1.874025 -2.35986,-3.096682 0.52735,0.03125 1.4375,-0.08692 1.91016,-0.372068 -0.9336,-0.812505 -1.87061,-1.874025 -2.39795,-3.014647 0.5625,-0.0078 1.13721,-0.02442 1.42236,-0.208013 -1.05469,-0.97656 -2.34082,-2.62842 -2.7041,-4.015135 z"
         sodipodi:nodetypes="ccccccccscccccccc" />
    </g>
    <path
       id="path2433"
       style="display:inline;fill:#ffffff;fill-opacity:1;stroke-width:0.1;stroke-linecap:round;stroke-linejoin:round;paint-order:stroke fill markers"
       d="m 126.75586,130.58203 a 149.96816,11.252541 0 0 0 -94.865235,2.55859 c 7.72124,29.399 21.415345,51.46139 36.138672,67.79493 18.845825,-7.0531 39.457273,-10.98243 61.083983,-10.98243 21.62637,0 42.23643,3.92956 61.08203,10.98243 14.7234,-16.33342 28.41731,-38.39539 36.13867,-67.79493 h -4.63086 a 149.96816,11.252541 0 0 0 -94.94726,-2.55859 z m -26.58594,9.48047 h 4.75196 l 3.51953,8.54492 v -4.67773 h -0.97852 v -3.86719 h 5.80859 v 3.86719 h -0.95312 v 13.53125 h -3.94141 l -3.38086,-8.29883 0.0234,4.42578 h 0.95899 v 3.87305 h -5.8086 v -3.87305 h 0.97656 v -9.6582 h -0.97656 z m 27.10547,0 h 11.7207 v 5.80273 h -3.87304 v -1.93554 h -2.99219 v 2.89453 h 3.74805 v 3.87305 h -3.74805 v 2.89648 h 2.99219 v -1.94336 h 3.87304 v 5.81055 h -11.7207 v -3.86719 h 0.98242 v -9.66406 h -0.98242 z m 44.61914,0 h 11.71485 v 5.80273 h -3.87305 v -1.93554 h -2.99414 v 2.89453 h 3.74804 v 3.87305 h -3.74804 v 2.89648 h 2.99414 v -1.94336 h 3.87305 v 5.81055 h -11.71485 v -3.86719 h 0.97656 v -9.66406 h -0.97656 z m 27.31055,0 h 5.80859 v 3.86719 h -0.95898 v 2.89453 h 0.47656 c 0.41692,-0.48547 0.82089,-0.96931 1.2207,-1.44336 0.39982,-0.47979 0.79942,-0.95997 1.19922,-1.45117 h -0.80469 v -3.86719 h 5.8086 v 3.86719 h -0.87891 l -4.05078,4.83203 4.05078,4.82617 h 0.87891 v 3.87305 h -5.8086 v -3.87305 h 0.80469 c -0.3998,-0.48549 -0.7994,-0.96557 -1.19922,-1.44531 -0.39981,-0.47976 -0.80378,-0.95985 -1.2207,-1.44531 h -0.47656 v 2.89062 h 0.95898 v 3.87305 h -5.80859 v -3.87305 h 0.97851 v -9.6582 h -0.97851 z m -152.927736,0.0234 h 9.982422 l 1.935546,1.93554 v 5.78711 l -0.982421,0.95313 0.982421,0.98242 v 5.7793 l -1.935546,1.9375 h -9.982422 v -3.86719 h 0.953125 v -9.66406 h -0.953125 z m 14.787109,0 h 9.652344 v 3.84375 h -1.082031 l 2.064453,9.6875 h 0.958984 v 3.84375 h -5.785156 v -3.84375 h 0.953125 L 67.625,152.63477 h -3.443359 l -0.199219,0.98242 h 0.953125 v 3.84375 h -5.787109 v -3.84375 h 0.957031 l 2.060547,-9.6875 h -1.101563 z m 12.671875,0 h 5.78711 v 3.84375 H 78.5625 v 9.6875 h 2.267578 v -1.9375 h 3.873047 v 5.78125 H 73.736328 v -3.84375 h 0.953125 v -9.6875 h -0.953125 z m 13.806641,0 h 9.65625 v 3.84375 h -1.080078 l 2.064453,9.6875 h 0.953125 v 3.84375 h -5.779297 v -3.84375 h 0.953125 l -0.207031,-0.98242 h -3.44336 l -0.201172,0.98242 h 0.955078 v 3.84375 h -5.78125 v -3.84375 h 0.955079 l 2.0625,-9.6875 h -1.107422 z m 28.669921,0 h 7.94336 l 1.94336,1.93554 v 3.84375 h -3.87891 v -1.93554 h -4.07226 v 9.6875 h 4.07226 v -1.9375 h 3.87891 v 3.84961 l -1.94336,1.93164 h -7.94336 l -1.93555,-1.93164 v -13.50782 z m 23.96484,0 h 9.78321 l 1.9375,1.93554 v 5.78711 l -0.95508,0.95313 0.95508,0.98242 v 3.87305 h 0.70312 v 3.84375 h -5.35742 v -3.84375 h 0.7832 v -2.91992 h -2.99414 v 2.91992 h 0.95508 v 3.84375 h -5.81055 v -3.84375 h 0.98438 v -9.6875 h -0.98438 z m 18.91211,0 h 9.6875 l 1.93555,1.9082 v 6.76758 l -1.93555,1.93555 h -4.85546 v 2.89648 h 0.95312 v 3.86719 h -5.78516 v -3.86719 h 0.95899 v -9.66406 h -0.95899 z m 27.4375,0 h 9.65821 v 3.84375 h -1.07813 l 2.06055,9.6875 h 0.95312 v 3.84375 h -5.78515 v -3.84375 h 0.95898 l -0.20703,-0.98242 h -3.44141 l -0.19921,0.98242 h 0.95898 v 3.84375 h -5.78516 v -3.84375 h 0.95313 l 2.06055,-9.6875 h -1.10743 z m -135.423824,3.84375 v 2.91797 h 3.21875 v -2.91797 z m 93.929684,0 v 2.91797 h 2.99414 v -2.91797 z m 18.88868,0 v 2.89453 h 2.91796 v -2.89453 z m -98.031255,0.65625 -0.880859,4.17578 h 1.789062 z m 26.482422,0 -0.878906,4.17578 h 1.783203 z m 98.986333,0 -0.88477,4.17578 h 1.78711 z m -140.255864,6.11133 v 2.89648 h 3.21875 v -2.89648 z m 33.259765,11.71875 h 13.529297 v 6.71289 h -4.472656 v -2.24024 h -3.455078 v 3.3418 h 4.330078 v 4.47265 h -4.330078 v 3.33594 h 3.455078 v -2.23437 h 4.472656 v 6.70508 H 84.363281 v -4.47071 h 1.13086 v -11.15039 h -1.13086 z m 17.158199,0 h 8.6504 l 2.24023,2.24023 v 4.47266 h -4.4707 v -2.24024 h -4.1836 v 3.3418 h 6.41407 l 2.24023,2.23437 v 7.8125 l -2.24023,2.23243 h -8.6504 l -2.234371,-2.23243 v -4.47265 h 4.470701 v 2.23437 h 4.1836 v -3.33594 h -6.41993 l -2.234371,-2.23828 v -7.80859 z m 12.02149,0 h 13.41601 v 6.70703 h -3.34179 v -2.23438 h -1.10157 v 11.15039 h 1.10157 v 4.47071 h -6.70313 v -4.47071 h 1.12891 v -11.15039 h -1.12891 v 2.23438 h -3.37109 z m 30.89258,0 h 13.41601 v 6.70703 h -3.33984 v -2.23438 h -1.10352 v 11.15039 h 1.10352 v 4.47071 h -6.70508 v -4.47071 h 1.12891 v -11.15039 h -1.12891 v 2.23438 h -3.37109 z m 14.63281,0 h 13.53125 v 6.71289 h -4.4707 v -2.24024 h -3.45508 v 3.3418 h 4.32812 v 4.47265 h -4.32812 v 3.33594 h 3.45508 v -2.23437 h 4.4707 v 6.70508 h -13.53125 v -4.47071 h 1.13281 v -11.15039 h -1.13281 z m -28.97266,0.0293 h 11.14844 v 4.44336 h -1.25195 l 2.38281,11.17774 h 1.10156 v 4.44336 h -6.67578 v -4.44336 h 1.10156 l -0.22851,-1.12891 h -3.98047 l -0.23438,1.12891 h 1.10743 v 4.44336 h -6.6836 v -4.44336 h 1.10352 l 2.38281,-11.17774 h -1.27344 z m 5.57227,5.19727 -1.01367,4.82226 h 2.06054 z m -67.490236,4.19336 h 9.246094 c 0.399803,0 0.732422,0.33261 0.732422,0.73242 0,0.40549 -0.332619,0.73047 -0.732422,0.73047 h -9.246094 c -0.405513,0 -0.732422,-0.32498 -0.732422,-0.73047 0,-0.39981 0.326909,-0.73242 0.732422,-0.73242 z m 112.628906,0 h 9.24805 c 0.39978,0 0.73047,0.33261 0.73047,0.73242 0,0.40549 -0.33069,0.73047 -0.73047,0.73047 h -9.24805 c -0.40553,0 -0.73047,-0.32498 -0.73047,-0.73047 0,-0.39981 0.32494,-0.73242 0.73047,-0.73242 z"
       transform="scale(0.75)" />
  </g>
</svg>
