<svg width="65mm" height="65mm" viewBox="0 0 184.252 184.252" version="1.2" xmlns:xlink="http://www.w3.org/1999/xlink" xmlns="http://www.w3.org/2000/svg"><defs><clipPath id="c"><path d="M95 60h69v51H95Zm0 0"/></clipPath><clipPath id="d"><path d="M121.547 16.664 97.766 27.961l-8.575 4.07-27.07 12.856a14.006 14.006 0 0 0-7.973 11.734c-5.574 86.156 49.668 117.55 67.782 125.48a14.018 14.018 0 0 0 11.261 0c18.11-7.93 73.352-39.324 67.778-125.48a14.006 14.006 0 0 0-7.973-11.734l-25.098-11.918-7.894-3.75-26.43-12.555a14.025 14.025 0 0 0-12.027 0"/></clipPath><clipPath id="e"><path d="M144 65h55v42h-55zm0 0"/></clipPath><clipPath id="f"><path d="M121.547 16.664 97.766 27.961l-8.575 4.07-27.07 12.856a14.006 14.006 0 0 0-7.973 11.734c-5.574 86.156 49.668 117.55 67.782 125.48a14.018 14.018 0 0 0 11.261 0c18.11-7.93 73.352-39.324 67.778-125.48a14.006 14.006 0 0 0-7.973-11.734l-25.098-11.918-7.894-3.75-26.43-12.555a14.025 14.025 0 0 0-12.027 0"/></clipPath><clipPath id="g"><path d="M56 72h46v23H56Zm0 0"/></clipPath><clipPath id="h"><path d="M121.547 16.664 97.766 27.961l-8.575 4.07-27.07 12.856a14.006 14.006 0 0 0-7.973 11.734c-5.574 86.156 49.668 117.55 67.782 125.48a14.018 14.018 0 0 0 11.261 0c18.11-7.93 73.352-39.324 67.778-125.48a14.006 14.006 0 0 0-7.973-11.734l-25.098-11.918-7.894-3.75-26.43-12.555a14.025 14.025 0 0 0-12.027 0"/></clipPath><clipPath id="i"><path d="M81 83h22v25H81Zm0 0"/></clipPath><clipPath id="j"><path d="M121.547 16.664 97.766 27.961l-8.575 4.07-27.07 12.856a14.006 14.006 0 0 0-7.973 11.734c-5.574 86.156 49.668 117.55 67.782 125.48a14.018 14.018 0 0 0 11.261 0c18.11-7.93 73.352-39.324 67.778-125.48a14.006 14.006 0 0 0-7.973-11.734l-25.098-11.918-7.894-3.75-26.43-12.555a14.025 14.025 0 0 0-12.027 0"/></clipPath><linearGradient id="a"><stop style="stop-color:#fc0;stop-opacity:1" offset="0"/><stop style="stop-color:#fd5;stop-opacity:1" offset="1"/></linearGradient><linearGradient xlink:href="#a" id="b" x1="51.252" y1="186.503" x2="227.176" y2="44.166" gradientUnits="userSpaceOnUse"/></defs><g style="display:inline"><path style="fill:#1a1a1a;fill-opacity:1;fill-rule:nonzero;stroke:none;stroke-width:.999997" d="m96.902 2.534 42.459 13.764 8.322 10.254 18.134 8.546a14.764 14.764 0 0 1 8.406 12.369c3.247 50.196-13.093 82.734-31.58 103.233-14.133-5.289-29.59-8.235-45.808-8.235-16.219 0-31.677 2.946-45.81 8.235C32.538 130.2 16.2 97.663 19.447 47.467a14.762 14.762 0 0 1 8.404-12.37l18.762-8.545 9.04-10.254z"/><path style="fill:url(#b);fill-opacity:1;fill-rule:nonzero;stroke:none;stroke-width:1.33333" d="m129.115 0-1.13.152-54.919 17.516a4.22 4.22 0 0 0-2.076 1.328L59.453 32.064 35.23 43.035c-7.78 3.734-12.953 11.38-13.507 19.979-3.426 52.923 8.698 97.435 36.04 132.295 22.007 28.062 48.132 42.255 61.743 48.212a23.745 23.745 0 0 0 9.607 2.016c3.328 0 6.562-.676 9.61-2.016 13.61-5.957 39.736-20.15 61.742-48.212 27.343-34.86 39.463-79.372 36.043-132.295-.56-8.631-5.775-16.307-13.61-20.03l-23.32-10.986-10.492-12.924a4.207 4.207 0 0 0-2.047-1.379L130.34.182 129.116 0zm0 4.416 1.225.182 8.523 2.632h.01l7.057 2.18h.093v.03l39.791 12.29 11.096 13.672 24.18 11.395c6.446 3.064 10.746 9.37 11.207 16.492 4.33 66.928-17.456 110.312-42.106 137.645-18.844-7.052-39.453-10.98-61.078-10.98s-42.235 3.927-61.08 10.98C43.384 173.6 21.6 130.217 25.93 63.289c.46-7.121 4.759-13.428 11.205-16.492L62.15 35.402 74.203 21.73 117.568 7.9v-.01l10.416-3.322 1.131-.152zM80.828 36.758a1.246 1.246 0 0 0-1.125.697 1.24 1.24 0 0 0 .572 1.664c.615.302 1.362.05 1.664-.57a1.247 1.247 0 0 0-1.11-1.791zm59.736 14.62a1.258 1.258 0 0 0-1.128.7 1.247 1.247 0 0 0 2.24 1.092 1.246 1.246 0 0 0-1.112-1.791zm65.258 1.226c-8.488 0-15.369 6.88-15.369 15.369 0 8.494 6.88 15.373 15.37 15.373 8.493 0 15.372-6.88 15.372-15.373 0-8.489-6.879-15.37-15.373-15.37zM88.945 64.365a1.25 1.25 0 0 0-1.127.698 1.247 1.247 0 0 0 .573 1.664 1.244 1.244 0 1 0 .555-2.361zm71.244 6.936a1.246 1.246 0 0 0-.496 2.361 1.245 1.245 0 0 0 1.094-2.236 1.23 1.23 0 0 0-.598-.125z" transform="scale(.75)"/><path style="display:inline;fill:#fff;fill-opacity:1;fill-rule:nonzero;stroke:none;stroke-width:1" d="m96.835 152.017 1.91 3.866 4.267.622-3.088 3.01.728 4.25-3.817-2.005-3.817 2.005.729-4.25-3.089-3.01 4.27-.622zM80.36 152.017l1.91 3.866 4.266.622-3.088 3.01.729 4.25-3.818-2.005-3.817 2.005.729-4.25-3.085-3.01 4.267-.622zM113.31 152.017l1.907 3.866 4.27.622-3.088 3.01.73 4.25-3.818-2.005-3.817 2.005.728-4.25-3.088-3.01 4.266-.622zm0 0"/><g style="display:inline;fill:#fff;stroke-width:.948596"><g clip-path="url(#c)" transform="matrix(1.2034 0 0 1.25628 -51.793 -34.63)" style="fill:#fff;stroke-width:.813298"><g clip-path="url(#d)" style="fill:#fff;stroke-width:.745015"><path style="fill:#fff;fill-opacity:1;fill-rule:nonzero;stroke:none;stroke-width:.813298" d="m163.996 110.879-41.348-50.734-9.093 4.593-17.64 26.188 7.616-6.922 3.086-4.992 9.09-10.07 1.758 3.617 2.738 8.992 6.254 6.258-.39-10.559 7.82 8.602h2.347l16.618 16.816zm0 0"/></g></g><g clip-path="url(#e)" transform="matrix(.92946 0 0 1.05419 -12.883 -12.223)" style="fill:#fff;stroke-width:1.01025"><g clip-path="url(#f)" style="fill:#fff;stroke-width:1.0759"><path style="fill:#fff;fill-opacity:1;fill-rule:nonzero;stroke:none;stroke-width:1.01025" d="m144.055 84.828 8.504-15.105 7.187-4.399 6.156 9.75 10.559 10.438 21.992 21.164-7.328-4.254-25.664-22.582-5.57-6.742-3.813 8.648-3.226-1.758-.293-5.574-4.84 8.066zm0 0"/></g></g><g clip-path="url(#g)" transform="matrix(1.00598 0 0 1.05419 -34.904 -12.223)" style="fill:#fff;stroke-width:.97106"><g clip-path="url(#h)" style="fill:#fff;stroke-width:.994057"><path style="fill:#fff;fill-opacity:1;fill-rule:nonzero;stroke:none;stroke-width:.97106" d="M101.61 84.328 83.495 72.95l-4.105 1.172-22.727 19.942 21.262-13.926 3.812 2.785 1.61-.442 1.761-5.277 4.985 8.309 1.761-4.352 6.157 3.375 2.183.04"/></g></g><g clip-path="url(#i)" transform="matrix(1.06479 0 0 1.25628 -38.498 -34.63)" style="fill:#fff;stroke-width:.864618"><g clip-path="url(#j)" style="fill:#fff;stroke-width:.792028"><path style="fill:#fff;fill-opacity:1;fill-rule:nonzero;stroke:none;stroke-width:.864618" d="M82.324 107.676c-.23 0-.465-.082-.656-.242a1.001 1.001 0 0 1-.102-1.41l19.29-22.348c.359-.418.992-.465 1.41-.106.418.364.46.996.101 1.414l-19.289 22.344a.982.982 0 0 1-.754.348"/></g></g><path style="fill:#fff;fill-opacity:1;fill-rule:nonzero;stroke:none;stroke-width:.948593" d="M64.81 74.698c-.364 1.387-1.645 3.039-2.704 4.015.286.184.86.2 1.423.208-.528 1.141-1.466 2.203-2.4 3.015.473.285 1.383.403 1.91.372-.488 1.223-1.463 2.241-2.358 3.097 1.162.473 2.46.46 3.677.451-.097.539-.24 1.344-.24 1.436.004.328 1.406.265 1.406 0 0-.079-.15-.893-.252-1.436 1.222.008 2.528.023 3.69-.451-.895-.856-1.872-1.874-2.36-3.097.527.031 1.438-.087 1.91-.372-.933-.812-1.87-1.874-2.398-3.015.563-.007 1.137-.024 1.423-.208-1.055-.976-2.341-2.628-2.704-4.015zM92.199 63.406c-.489 1.863-2.208 4.078-3.626 5.39.383.246 1.148.267 1.906.274-.707 1.532-1.96 2.954-3.218 4.048.636.379 1.855.539 2.566.492-.656 1.64-1.965 3.007-3.164 4.156 1.554.632 3.297.616 4.93.605-.13.722-.32 1.801-.32 1.921 0 .446 1.882.36 1.882 0 0-.104-.202-1.194-.338-1.921 1.64.011 3.39.03 4.948-.605-1.2-1.149-2.512-2.516-3.164-4.156.711.047 1.93-.113 2.562-.492-1.254-1.094-2.507-2.516-3.218-4.048.758-.007 1.523-.028 1.91-.274-1.418-1.312-3.138-3.527-3.63-5.39zM128.688 90.023c-.08 0-.158.003-.237.008-2.024.113-4.013 1.023-5.33 1.624-.464.211-.948.43-1.116.457-.117.02-.337.02-.63.02-1.703.023-5.252.066-6.342 2.507-.336.758-.602 1.298-.802 1.704-.492 1.004-.679 1.38-.358 2.102.226.508.75.718 1.336.542.367-.11.718-.367.925-.703.035.094.07.183.109.27-.52 1.062-2.203 4.816-.762 6.379a.49.49 0 0 0 .368.164h1.038a.504.504 0 0 0 .473-.668c-.008-.02-.625-1.793.23-2.707.368 1.223 1.142 3.21 2.294 3.375h1.16a.502.502 0 0 0 .47-.324.496.496 0 0 0-.139-.55c-.019-.016-1.71-1.536-1.343-3.603.223-.254 1.04-1.051 2.5-1.082h.036c1.453 0 2.707 1.742 3.012 2.207v1.013c0 .175.093.335.241.429a.492.492 0 0 0 .321.066c.012.109.058.207.136.285.094.102.223.16.36.16h.23l-.034.133a.5.5 0 0 0 .265.574v.192a.51.51 0 0 0 .168.375.52.52 0 0 0 .331.125c.02 0 .044-.004.063-.004l1.559-.202a.498.498 0 0 0 .265-.872c-.067-.058-.51-.473-.495-.93l2.182 1.664c.094.07.2.114.329.103l1.558-.08a.506.506 0 0 0 .408-.752c-.063-.106-.591-.977-1.345-1.254-.313-.54-.598-1.31-.434-1.61a.5.5 0 0 0 .579.082l.309-.16a.498.498 0 0 0 .535.038l.222-.12.399.331.539.848.48.64a.506.506 0 0 0 .387.2c.156.004.3-.062.398-.179l.598-.72a.564.564 0 0 0 .09-.163l.41-1.223 1.145-.472a.501.501 0 0 0 .312-.462v-2.332a.505.505 0 0 0 .239-.426v-1.268l.164-.052a.499.499 0 0 0 .253-.778l-.063-.089 2.529-1.973a.506.506 0 0 0 .14-.621.506.506 0 0 0-.578-.258l-3.289.9a.494.494 0 0 0-.15-.294.5.5 0 0 0-.393-.14l-1.113.108a.5.5 0 0 0-.672-.312l-.938.394c-.753-.692-3.079-2.642-5.532-2.635zM187.812 82.26c-.363 1.387-1.644 3.039-2.702 4.015.285.184.86.2 1.422.208-.527 1.14-1.466 2.202-2.4 3.015.473.285 1.383.403 1.91.372-.488 1.223-1.463 2.241-2.358 3.097 1.162.472 2.46.46 3.677.45-.097.54-.24 2.845-.24 2.936.004.328 1.406.266 1.406 0 0-.078-.15-2.392-.252-2.935 1.222.008 2.528.023 3.69-.451-.894-.856-1.871-1.874-2.36-3.097.528.031 1.438-.087 1.91-.372-.933-.813-1.87-1.874-2.398-3.015.563-.008 1.138-.024 1.423-.208-1.055-.976-2.341-2.628-2.704-4.015z" transform="matrix(1.05419 0 0 1.05419 -37.635 -12.223)"/></g><path style="display:inline;fill:#fff;fill-opacity:1;stroke-width:.1;stroke-linecap:round;stroke-linejoin:round;paint-order:stroke fill markers" d="M126.756 130.582a149.968 11.253 0 0 0-94.865 2.559c7.72 29.399 21.415 51.461 36.138 67.795 18.846-7.054 39.458-10.983 61.084-10.983 21.627 0 42.237 3.93 61.082 10.983 14.724-16.334 28.418-38.396 36.139-67.795h-4.63a149.968 11.253 0 0 0-94.948-2.559zm-26.586 9.48h4.752l3.52 8.545v-4.677h-.98v-3.868h5.81v3.868h-.954v13.53h-3.941l-3.38-8.298.022 4.426h.96v3.873h-5.81v-3.873h.977v-9.658h-.976zm27.105 0h11.721v5.803h-3.873v-1.935h-2.992v2.894h3.748v3.873h-3.748v2.897h2.992v-1.944h3.873v5.81h-11.72v-3.866h.982v-9.664h-.983zm44.62 0h11.714v5.803h-3.873v-1.935h-2.994v2.894h3.748v3.873h-3.748v2.897h2.994v-1.944h3.873v5.81h-11.714v-3.866h.976v-9.664h-.976zm27.31 0h5.809v3.868h-.96v2.894h.477c.417-.485.821-.97 1.22-1.443.4-.48.8-.96 1.2-1.451h-.805v-3.868h5.81v3.868h-.88l-4.05 4.832 4.05 4.826h.88v3.873h-5.81v-3.873h.805c-.4-.486-.8-.966-1.2-1.445-.399-.48-.803-.96-1.22-1.446h-.476v2.89h.959v3.874h-5.809v-3.873h.979v-9.658h-.979zm-152.928.024h9.983l1.935 1.935v5.788l-.982.953.982.982v5.78l-1.935 1.937h-9.983v-3.867h.953v-9.664h-.953zm14.787 0h9.653v3.844h-1.082l2.064 9.687h.96v3.844h-5.786v-3.844h.953l-.201-.982h-3.443l-.2.982h.954v3.844h-5.788v-3.844h.957l2.061-9.687h-1.102zm12.672 0h5.787v3.844h-.96v9.687h2.267v-1.937h3.873v5.78H73.736v-3.843h.953v-9.687h-.953zm13.807 0h9.656v3.844h-1.08l2.065 9.687h.953v3.844h-5.78v-3.844h.954l-.207-.982H90.66l-.201.982h.955v3.844h-5.781v-3.844h.955l2.062-9.687h-1.107zm28.67 0h7.943l1.944 1.935v3.844h-3.88v-1.935h-4.072v9.687h4.073v-1.937h3.879v3.85l-1.944 1.93h-7.943l-1.936-1.93V142.02zm23.965 0h9.783l1.937 1.935v5.788l-.955.953.955.982v3.873h.704v3.844h-5.358v-3.844h.783v-2.92h-2.994v2.92h.955v3.844h-5.81v-3.844h.984v-9.687h-.984zm18.912 0h9.687l1.936 1.908v6.768l-1.936 1.935h-4.855v2.897h.953v3.867h-5.785v-3.867h.959v-9.664h-.96zm27.437 0h9.659v3.844h-1.079l2.061 9.687h.953v3.844h-5.785v-3.844h.959l-.207-.982h-3.442l-.199.982h.96v3.844h-5.786v-3.844h.953l2.06-9.687h-1.107zM51.104 143.93v2.918h3.218v-2.918zm93.93 0v2.918h2.993v-2.918zm18.888 0v2.894h2.918v-2.894zm-98.031.656-.881 4.176h1.789zm26.482 0-.879 4.176h1.783zm98.986 0-.884 4.176h1.787zm-140.255 6.111v2.897h3.218v-2.897zm33.26 11.719h13.529v6.713H93.42v-2.24h-3.455v3.341h4.33v4.473h-4.33v3.336h3.455v-2.234h4.473v6.705h-13.53v-4.471h1.131v-11.15h-1.13zm17.157 0h8.65l2.241 2.24v4.473h-4.47v-2.24h-4.184v3.341h6.414l2.24 2.235v7.812l-2.24 2.233h-8.65l-2.235-2.233v-4.472h4.47v2.234h4.184v-3.336h-6.42l-2.234-2.238v-7.809zm12.022 0h13.416v6.707h-3.342v-2.234h-1.101v11.15h1.101v4.47h-6.703v-4.47h1.129v-11.15h-1.129v2.234h-3.371zm30.893 0h13.416v6.707h-3.34v-2.234h-1.104v11.15h1.104v4.47h-6.705v-4.47h1.129v-11.15h-1.13v2.234h-3.37zm14.632 0H172.6v6.713h-4.471v-2.24h-3.455v3.341h4.328v4.473h-4.328v3.336h3.455v-2.234h4.47v6.705h-13.53v-4.471h1.132v-11.15h-1.133zm-28.972.03h11.148v4.443h-1.252l2.383 11.177h1.102v4.444H136.8v-4.444h1.101l-.228-1.129h-3.98l-.235 1.13h1.107v4.443h-6.683v-4.444h1.103l2.383-11.177h-1.273zm5.572 5.197-1.014 4.822h2.06zm-67.49 4.193h9.246c.4 0 .732.333.732.732 0 .406-.332.73-.732.73h-9.246a.73.73 0 0 1-.733-.73c0-.4.327-.732.733-.732zm112.629 0h9.248a.731.731 0 0 1 0 1.463h-9.248a.728.728 0 0 1-.73-.73c0-.4.324-.733.73-.733z" transform="scale(.75)"/></g></svg>