<svg width="65" height="65" viewBox="0 0 65 65" fill="none" xmlns="http://www.w3.org/2000/svg">
<path d="M36.7435 1.91306L49.1634 5.74951L52.0991 9.36686L58.4967 12.3817C60.2022 13.1923 61.3398 14.8611 61.4619 16.7452C62.6076 34.4534 56.8432 45.9319 50.3215 53.1637C45.3355 51.2979 39.8828 50.2584 34.1612 50.2584C28.4396 50.2584 22.9864 51.2978 18.0004 53.1637C11.4787 45.9319 5.71485 34.4534 6.86055 16.7452C6.98258 14.8611 8.11974 13.1923 9.82523 12.3817L16.4439 9.36686L19.6329 5.74951L31.5391 1.95233C30.8437 2.63355 30.4111 3.58233 30.4111 4.63072C30.4111 6.69938 32.0931 8.38139 34.1617 8.38139C36.2304 8.38139 37.9129 6.69938 37.9129 4.63072C37.9129 3.56196 37.4628 2.59683 36.7435 1.91306V1.91306Z" fill="#1A1A1A"/>
<path d="M34.1612 53.6281L34.8353 54.9922L36.3403 55.2116L35.2508 56.2735L35.5079 57.7727L34.1612 57.0652L32.8146 57.7727L33.0717 56.2735L31.9822 55.2116L33.4886 54.9922L34.1612 53.6281Z" fill="white"/>
<path d="M28.349 53.6281L29.0231 54.9922L30.5281 55.2116L29.4385 56.2735L29.6957 57.7727L28.349 57.0652L27.0023 57.7727L27.2595 56.2735L26.1714 55.2116L27.6764 54.9922L28.349 53.6281Z" fill="white"/>
<path d="M39.9735 53.6281L40.6461 54.9922L42.1526 55.2116L41.063 56.2735L41.3202 57.7727L39.9735 57.0652L38.6268 57.7727L38.884 56.2735L37.7944 55.2116L39.2994 54.9922L39.9735 53.6281Z" fill="white"/>
<path d="M51.3506 36.9234L33.7971 14.4384L29.9364 16.4743L22.4474 28.0804L25.6811 25.0127L26.9912 22.8002L30.8502 18.3371L31.5964 19.9402L32.7589 23.9255L35.4139 26.6989L35.2481 22.0194L38.5681 25.8315H39.5648L46.6193 33.2844L51.3506 36.9234Z" fill="white"/>
<path d="M42.6897 27.2352L45.4781 21.6176L47.8348 19.9818L49.8534 23.6078L53.3155 27.4895L60.5266 35.3602L58.1237 33.7782L49.7087 25.3801L47.8822 22.8727L46.6321 26.089L45.5741 25.4353L45.4781 23.3623L43.8911 26.3621L42.6897 27.2352Z" fill="white"/>
<path d="M23.7466 27.0493L17.3184 22.8175L15.8614 23.2533L7.79602 30.6694L15.3416 25.4905L16.6946 26.5263L17.2657 26.3622L17.8909 24.3995L19.6598 27.4895L20.2851 25.8711L22.4698 27.1263L23.2448 27.1408" fill="white"/>
<path d="M17.3426 35.5038C17.256 35.5038 17.168 35.4674 17.0961 35.3964C16.9391 35.2354 16.9229 34.9567 17.0579 34.7715L24.3035 24.8672C24.4385 24.682 24.6762 24.6612 24.8332 24.8205C24.9902 24.9815 25.0064 25.262 24.8714 25.4472L17.6258 35.3497C17.5524 35.4518 17.4482 35.5038 17.3426 35.5038Z" fill="white"/>
<path d="M10.8254 23.468C10.6903 23.9837 10.214 24.598 9.82034 24.9612C9.92639 25.0295 10.1401 25.0356 10.3493 25.0385C10.1532 25.4627 9.80418 25.8575 9.45698 26.1597C9.63276 26.2657 9.97124 26.3097 10.1674 26.2981C9.98577 26.7527 9.62295 27.1315 9.29028 27.4497C9.72219 27.6256 10.2049 27.6207 10.6576 27.6175C10.6215 27.8179 10.5683 28.1174 10.5683 28.1513C10.5698 28.2734 11.0913 28.2501 11.0913 28.1513C11.0913 28.1221 11.0355 27.8195 10.9976 27.6175C11.4519 27.6206 11.9378 27.6261 12.3699 27.4497C12.0372 27.1315 11.6738 26.7527 11.4922 26.2981C11.6883 26.3097 12.0268 26.2657 12.2026 26.1597C11.8554 25.8575 11.5069 25.4627 11.3108 25.0385C11.52 25.0356 11.7337 25.0295 11.8398 24.9612C11.4476 24.598 10.9693 23.9837 10.8342 23.468H10.8254Z" fill="white"/>
<path d="M21.0116 19.2684C20.83 19.9613 20.1906 20.785 19.6633 21.2731C19.8056 21.3646 20.0902 21.3721 20.372 21.375C20.1091 21.9445 19.6429 22.4734 19.1751 22.8802C19.4119 23.0211 19.8652 23.0807 20.1296 23.0632C19.8855 23.6734 19.3989 24.1816 18.9529 24.6087C19.5308 24.844 20.1788 24.838 20.786 24.8337C20.7378 25.1025 20.6673 25.5038 20.6673 25.5485C20.6673 25.7141 21.3673 25.6821 21.3673 25.5485C21.3673 25.5095 21.2922 25.1044 21.2414 24.8337C21.8513 24.838 22.5019 24.8448 23.0817 24.6087C22.6357 24.1816 22.1476 23.6734 21.905 23.0632C22.1694 23.0807 22.6224 23.0211 22.8578 22.8802C22.3915 22.4734 21.9253 21.9445 21.6609 21.375C21.9427 21.3721 22.2275 21.3647 22.3713 21.2731C21.844 20.785 21.2044 19.9613 21.0214 19.2684H21.0116Z" fill="white"/>
<path d="M34.5817 29.1673C34.5523 29.1674 34.523 29.1685 34.4935 29.1701C33.741 29.2123 33.0012 29.5506 32.5116 29.7743C32.3388 29.8527 32.159 29.9341 32.0965 29.9442C32.0529 29.9515 31.9712 29.9513 31.8623 29.9513C31.2289 29.96 29.9087 29.976 29.5034 30.884C29.3785 31.1658 29.2795 31.3664 29.2054 31.5175C29.0224 31.8909 28.9528 32.0305 29.072 32.2993C29.1562 32.4881 29.3509 32.5662 29.5688 32.5008C29.7053 32.4602 29.8361 32.3643 29.9131 32.2393C29.9262 32.2742 29.9389 32.3076 29.9534 32.3396C29.7602 32.7347 29.1341 34.131 29.6701 34.712C29.705 34.7513 29.7546 34.7731 29.8069 34.7731H30.1931C30.2541 34.7731 30.3108 34.7424 30.3456 34.693C30.3805 34.6436 30.3894 34.5813 30.3691 34.5246C30.3661 34.5174 30.1364 33.8579 30.4546 33.5179C30.5911 33.9726 30.8791 34.712 31.3077 34.7731H31.7392C31.8161 34.7731 31.8859 34.7253 31.9135 34.6527C31.9411 34.58 31.9204 34.4987 31.8623 34.4478C31.855 34.442 31.2262 33.8767 31.3627 33.1083C31.4455 33.0138 31.7493 32.7173 32.2926 32.7057H32.3057C32.8461 32.7057 33.3125 33.3538 33.4258 33.5266V33.9031C33.4258 33.9684 33.4605 34.0278 33.5157 34.0627C33.552 34.0844 33.5943 34.093 33.635 34.0872C33.6393 34.1279 33.6566 34.1644 33.6856 34.1934C33.7205 34.2312 33.7682 34.2528 33.8191 34.2528H33.9052L33.8921 34.3024C33.8703 34.3881 33.9108 34.4767 33.9907 34.5159V34.5873C33.9907 34.641 34.0141 34.6904 34.0533 34.7267C34.0882 34.7558 34.1314 34.7731 34.1764 34.7731C34.1837 34.7731 34.1926 34.7716 34.1999 34.7716L34.7795 34.6964C34.8521 34.6876 34.9119 34.6365 34.9337 34.5667C34.9555 34.497 34.9334 34.4216 34.8781 34.3723C34.8534 34.3505 34.6882 34.1963 34.694 34.0263L35.5057 34.6452C35.5405 34.6713 35.5798 34.6877 35.6277 34.6833L36.2073 34.6539C36.2713 34.6495 36.331 34.6134 36.3615 34.5553C36.3919 34.4986 36.3907 34.4305 36.3589 34.3739C36.3357 34.3347 36.1392 34.0107 35.8588 33.9076C35.7426 33.7071 35.6365 33.4207 35.6976 33.3089C35.7164 33.3263 35.7382 33.341 35.7629 33.3497C35.8123 33.3686 35.8662 33.3626 35.9127 33.3394L36.0277 33.28C36.0829 33.3221 36.1612 33.329 36.2265 33.2942L36.3093 33.2495L36.4575 33.3726L36.658 33.688L36.8367 33.9261C36.8715 33.9711 36.9238 33.9987 36.9805 34.0002C37.0386 34.0017 37.0923 33.9773 37.1287 33.9337L37.3509 33.6663C37.3654 33.6474 37.3769 33.627 37.3842 33.6052L37.5367 33.1504L37.9627 32.9749C38.0324 32.9459 38.0787 32.8789 38.0787 32.8033V31.9361C38.1325 31.9027 38.1675 31.8429 38.1675 31.7775V31.3058L38.2286 31.2867C38.2867 31.2693 38.3328 31.2244 38.3517 31.1663C38.3691 31.1097 38.3591 31.0454 38.3228 30.9974L38.2994 30.9642L39.2397 30.2304C39.3094 30.1752 39.3312 30.0793 39.292 29.9994C39.2527 29.921 39.1625 29.8817 39.0768 29.9035L37.8538 30.238C37.848 30.1959 37.8287 30.1581 37.7982 30.1291C37.759 30.0899 37.704 30.0724 37.6517 30.0768L37.2376 30.1171C37.2318 30.0997 37.2231 30.0808 37.2115 30.0648C37.1621 29.9936 37.0675 29.9676 36.9876 30.0011L36.6389 30.1476C36.3589 29.8901 35.4942 29.1651 34.5819 29.1676L34.5817 29.1673Z" fill="white"/>
<path d="M56.5697 26.2802C56.4346 26.7959 55.9583 27.4102 55.5646 27.7734C55.6707 27.8417 55.8844 27.8478 56.0936 27.8507C55.8975 28.2749 55.5484 28.6697 55.2012 28.9719C55.377 29.0779 55.7155 29.1219 55.9116 29.1102C55.73 29.5649 55.3672 29.9437 55.0345 30.2619C55.4665 30.4377 55.9491 30.4329 56.4019 30.4297C56.3658 30.6301 56.3126 31.4874 56.3126 31.5214C56.3141 31.6434 56.8356 31.6202 56.8356 31.5214C56.8356 31.4922 56.7797 30.6317 56.7418 30.4297C57.1962 30.4329 57.682 30.4383 58.1141 30.2619C57.7814 29.9437 57.4181 29.5649 57.2365 29.1102C57.4326 29.1219 57.7711 29.0779 57.9469 28.9719C57.5997 28.6697 57.2512 28.2749 57.0551 27.8507C57.2643 27.8478 57.478 27.8417 57.5841 27.7734C57.1918 27.4102 56.7135 26.7959 56.5784 26.2802H56.5697Z" fill="white"/>
<path d="M33.5375 34.5498C24.3805 34.5514 15.5126 34.7906 8.43774 35.2268C10.4807 43.0053 14.1039 48.8426 17.9994 53.1642C22.9857 51.2981 28.4392 50.2584 34.1612 50.2584C39.8832 50.2584 45.3363 51.2981 50.3225 53.1642C54.2181 48.8426 57.8413 43.0054 59.8842 35.2268H58.659C51.5783 34.7902 42.702 34.551 33.5375 34.5498V34.5498ZM26.5033 37.0582H27.7606L28.6918 39.319V38.0814H28.4329V37.0582H29.9698V38.0814H29.7176V41.6615H28.6748L27.7802 39.4658L27.7864 40.6368H28.0402V41.6615H26.5033V40.6368H26.7617V38.0814H26.5033L26.5033 37.0582ZM33.675 37.0582H36.7761V38.5935H35.7513V38.0814H34.9596V38.8472H35.9513V39.872H34.9596V40.6383H35.7513V40.1242H36.7761V41.6615H33.675V40.6383H33.9349V38.0814H33.675V37.0582ZM45.4804 37.0582H48.58V38.5935H47.5553V38.0814H46.7631V38.8472H47.7547V39.872H46.7631V40.6383H47.5553V40.1242H48.58V41.6615H45.4804V40.6383H45.7388V38.0814H45.4804V37.0582ZM52.7064 37.0582H54.2432V38.0814H53.9895V38.8472H54.1156C54.2259 38.7188 54.3328 38.5908 54.4386 38.4653C54.5443 38.3384 54.6501 38.2114 54.7558 38.0814H54.5429V37.0582H56.0798V38.0814H55.8473L54.7755 39.3599L55.8473 40.6368H56.0798V41.6615H54.5429V40.6368H54.7558C54.6501 40.5083 54.5443 40.3813 54.4386 40.2544C54.3328 40.1274 54.2259 40.0004 54.1156 39.872H53.9895V40.6368H54.2432V41.6615H52.7064V40.6368H52.9653V38.0814H52.7064V37.0582ZM12.2442 37.0644H14.8854L15.3975 37.5765V39.1077L15.1376 39.3599L15.3975 39.6198V41.1489L14.8854 41.6615H12.2442V40.6383H12.4964V38.0814H12.2442V37.0644ZM16.1567 37.0644H18.7105V38.0814H18.4242L18.9704 40.6445H19.2242V41.6615H17.6935V40.6445H17.9457L17.8925 40.3846H16.9814L16.9287 40.6445H17.1809V41.6615H15.6497V40.6445H15.9029L16.4481 38.0814H16.1567V37.0644ZM19.5094 37.0644H21.0406V38.0814H20.7863V40.6445H21.3863V40.1319H22.4111V41.6615H19.5094V40.6445H19.7616V38.0814H19.5094V37.0644ZM23.1624 37.0644H25.7173V38.0814H25.4315L25.9778 40.6445H26.2299V41.6615H24.7008V40.6445H24.953L24.8982 40.3846H23.9872L23.934 40.6445H24.1867V41.6615H22.657V40.6445H22.9097L23.4554 38.0814H23.1624V37.0644ZM30.748 37.0644H32.8497L33.3639 37.5765V38.5935H32.3376V38.0814H31.2601V40.6445H32.3376V40.1319H33.3639V41.1504L32.8497 41.6615H30.748L30.2359 41.1504V37.5765L30.748 37.0644ZM37.0887 37.0644H39.6772L40.1898 37.5765V39.1077L39.9371 39.3599L40.1898 39.6198V40.6445H40.3758V41.6615H38.9584V40.6445H39.1656V39.872H38.3734V40.6445H38.6261V41.6615H37.0887V40.6445H37.3492V38.0814H37.0887V37.0644ZM42.0925 37.0644H44.6557L45.1678 37.5693V39.3599L44.6557 39.872H43.371V40.6383H43.6232V41.6615H42.0925V40.6383H42.3463V38.0814H42.0925V37.0644ZM49.352 37.0644H51.9074V38.0814H51.6222L52.1674 40.6445H52.4196V41.6615H50.8889V40.6445H51.1426L51.0879 40.3846H50.1773L50.1246 40.6445H50.3783V41.6615H48.8477V40.6445H49.0999L49.645 38.0814H49.352V37.0644ZM13.5212 38.0814V38.8534H14.3728V38.0814H13.5212ZM38.3734 38.0814V38.8534H39.1656V38.0814H38.3734ZM43.371 38.0814V38.8472H44.1431V38.0814H43.371ZM17.4336 38.255L17.2005 39.3599H17.6739L17.4336 38.255ZM24.4404 38.255L24.2078 39.3599H24.6796L24.4404 38.255ZM50.6305 38.255L50.3964 39.3599H50.8693L50.6305 38.255ZM13.5212 39.872V40.6383H14.3728V39.872H13.5212ZM22.3211 42.9726H25.9008V44.7487H24.7174V44.1559H23.8032V45.0401H24.9489V46.2235H23.8032V47.1061H24.7174V46.515H25.9008V48.289H22.3211V47.1061H22.6203V44.1559H22.3211V42.9726ZM26.8609 42.9726H29.1497L29.7424 43.5653V44.7487H28.5595V44.1559H27.4526V45.0401H29.1497L29.7424 45.6313V47.6984L29.1497 48.289H26.8609L26.2697 47.6984V46.515H27.4526V47.1061H28.5595V46.2235H26.8609L26.2697 45.6313V43.5653L26.8609 42.9726ZM30.0416 42.9726H33.5912V44.7471H32.7071V44.1559H32.4156V47.1061H32.7071V48.289H30.9335V47.1061H31.2322V44.1559H30.9335V44.7471H30.0416V42.9726ZM38.2153 42.9726H41.7649V44.7471H40.8812V44.1559H40.5893V47.1061H40.8812V48.289H39.1072V47.1061H39.4059V44.1559H39.1072V44.7471H38.2153V42.9726ZM42.0869 42.9726H45.667V44.7487H44.4841V44.1559H43.57V45.0401H44.7151V46.2235H43.57V47.1061H44.4841V46.515H45.667V48.289H42.0869V47.1061H42.3866V44.1559H42.0869V42.9726ZM34.4212 42.9803H37.3709V44.1559H37.0396L37.6701 47.1134H37.9615V48.289H36.1952V47.1134H36.4867L36.4262 46.8147H35.373L35.311 47.1134H35.604V48.289H33.8357V47.1134H34.1276L34.7581 44.1559H34.4212V42.9803ZM35.8955 44.3554L35.6273 45.6313H36.1725L35.8955 44.3554ZM18.0387 45.4649H20.4851C20.5909 45.4649 20.6789 45.5529 20.6789 45.6587C20.6789 45.766 20.5909 45.852 20.4851 45.852H18.0387C17.9314 45.852 17.8449 45.766 17.8449 45.6587C17.8449 45.5529 17.9314 45.4649 18.0387 45.4649ZM47.8384 45.4649H50.2853C50.3911 45.4649 50.4786 45.5529 50.4786 45.6587C50.4786 45.766 50.3911 45.852 50.2853 45.852H47.8384C47.7311 45.852 47.6452 45.766 47.6452 45.6587C47.6452 45.5529 47.7311 45.4649 47.8384 45.4649Z" fill="white"/>
</svg>
