<svg width="71" height="53" fill="none" xmlns="http://www.w3.org/2000/svg"><path d="M24.632.034C20.95.4 17.408 2.1 12.086 6.047c-1.133.844-2.78 2-2.84 2-.034 0-.15-.079-.255-.17-.514-.46-1.481-.961-2.3-1.187-.646-.178-1.796-.196-2.343-.031-.414.128-.43.14-.475.385-.028.166-.017.184.182.263.614.239 1.692.722 2.007.906.409.238.94.667.94.752 0 .037-.078.061-.167.061-.094 0-.364.043-.596.092-1.266.288-2.211.844-2.99 1.787l-.393.47-.199-.116c-.287-.17-.613-.593-.69-.899-.122-.495.027-1.676.309-2.44.022-.074-.006-.11-.1-.142a1.828 1.828 0 0 1-.22-.067c-.111-.049-.647.508-.951.979-1.15 1.78-.957 3.787.536 5.573l.226.275-.01 1.022c-.012 1.12.049 1.652.298 2.52.287.992.746 1.787 1.27 2.184l.31.233-.044.612c-.022.336-.039.917-.039 1.297.023 1.902.697 3.48 2.161 5.065l.465.508.01.452c.012.373.045.526.2.875.237.526.563.924.829 1.01.326.104 1.636.14 2.443.073 1.177-.104 1.868-.294 2.498-.673l.27-.159.1.147c.06.085.227.416.381.734.68 1.444 1.05 3.224 1.144 5.53.04.96.04.96.194 1.083l.155.116.083-.128c.392-.624 1.36-1.438 1.36-1.144 0 .049.07.147.165.22l.16.135.36-.508c.193-.275.453-.606.574-.74l.221-.233.16.16c.083.085.172.158.194.158.033 0 .713-.917 1.022-1.376.078-.122.083-.122.144-.006.63 1.125 1.222 1.908 1.868 2.459.282.239.315.294.41.679.353 1.48.939 3.01 1.48 3.903.293.477.724.942 1.144 1.23.183.122.332.238.332.25 0 .013.1.398.216.863.254.967.464 2.062.558 2.87.143 1.241-.177 1.847-1.785 3.4-1.399 1.353-2.084 2.233-2.084 2.686v.233l1.398.012 1.393.018-.016.196-.023.202H29.263l.033-.294c.017-.159.044-.538.061-.838.044-.642.16-1.309.276-1.554.094-.202.25-.25.807-.25.31 0 .382-.019.404-.11.016-.056.066-1.083.116-2.276.11-2.808.182-4.032.282-4.864.072-.587.1-.691.237-.856.343-.398.531-1.108.614-2.294.027-.453.055-.845.055-.87 0-.024.116-.115.265-.195.443-.245.94-.691 1.21-1.083.244-.348.266-.36.31-.226a.612.612 0 0 1 .017.263c-.017.073.022.19.1.294l.12.171.327-.318c.426-.41.785-.887 1.023-1.358l.198-.38.575-.012c2.266-.049 4.748-.391 6.51-.887.25-.073.465-.116.482-.104.01.019.038.349.06.746.023.398.056.735.083.747.072.055 1.31-.153 1.907-.306a11.09 11.09 0 0 0 3.161-1.438l.293-.19.194.478c.503 1.217.812 2.3.99 3.475.104.71.104 2.233.005 2.875-.271 1.658-.912 3.126-2.1 4.802-.824 1.163-1.26 1.554-2.891 2.606-.448.294-1.017.685-1.26.875-1.072.832-2.017 2.105-2.017 2.728v.215h2.873c2.742 0 2.874-.006 2.874-.11 0-.215.376-1.395.553-1.726.221-.416.354-.58.553-.672.127-.062.215-.043.586.116a6 6 0 0 0 .608.226c.165.037.17.024.243-.263.121-.483.541-1.603.812-2.16.84-1.73 2.056-3.224 3.465-4.282.492-.36.658-.575.78-.985.138-.459.083-1.278-.138-2.018-.205-.704-.25-1.053-.25-2.136 0-1.248.078-1.786.42-2.967l.106-.373.47.172c.254.091.619.201.812.244.288.061.437.147.873.502.608.495 1.481 1.413 1.935 2.03 1.27 1.75 2.023 3.806 2.216 6.1.122 1.37-.094 3.114-.48 3.958-.327.71-.515.942-1.239 1.536-.453.373-1.028.936-1.674 1.651-.929 1.016-.984 1.096-.968 1.285l.017.208 2.797.019 2.802.012.055-.288a9.04 9.04 0 0 0 .088-.997c.033-.722.144-1.328.288-1.578.121-.208.315-.27.989-.312l.608-.037.027-3.493c.023-3.12.04-3.512.117-3.61.403-.507.608-1.829.52-3.37-.034-.575-.056-.704-.133-.728-.504-.172-1.233-.71-1.664-1.23-.669-.801-1.094-1.756-1.376-3.034-.282-1.291-.31-1.646-.304-3.53.005-2.074.05-2.527.326-3.334.613-1.81.867-3.964.718-6.075l-.038-.557.304.092c.591.171.818.318 1.254.814.708.807 1.067 1.609 1.155 2.587.11 1.218-.094 2.399-.879 5.035-.552 1.866-.784 2.765-.856 3.292-.066.544-.039 1.34.072 1.786.47 1.94 1.73 3.505 3.023 3.768.774.16 1.735-.08 2.42-.593.692-.526 1.167-1.322 1.399-2.35.083-.366.166-1.584.116-1.724-.017-.062-.088-.08-.221-.062-.182.025-.2.043-.232.282-.061.446-.2.838-.382 1.058-.149.196-.74.57-.89.57-.033 0-.05-.252-.038-.662.017-.66.017-.66-.127-.734-.21-.104-.216-.104-.41.227-.309.532-.734.82-1.37.917-.16.025-.293.025-.293-.006 0-.024.022-.049.044-.049.105 0 .332-.587.349-.887.027-.575.033-.563-.32-.605-.465-.062-.797-.196-1.001-.41-.299-.306-.365-.545-.365-1.34-.006-.844.066-1.126.492-1.927 1.266-2.392 1.63-4.472 1.183-6.784-.41-2.16-1.747-4.638-3.377-6.283-1.465-1.48-3.2-2.79-4.936-3.726-2.37-1.278-4.493-1.884-7.4-2.11-.58-.05-.16.08-8.003-2.417l-2.084-.667-.68-.6C36.36 2.904 32.42.769 28.28.12c-.69-.104-2.907-.159-3.647-.085Z" fill="#FFE8FF"/></svg>