<?xml version="1.0" encoding="UTF-8" standalone="no"?>
<!-- Created with Inkscape (http://www.inkscape.org/) -->

<svg
   version="1.1"
   id="svg2"
   xml:space="preserve"
   width="466.66666"
   height="466.66666"
   viewBox="0 0 466.66666 466.66666"
   sodipodi:docname="bufficorn-bronze.svg"
   inkscape:version="1.1 (c4e8f9ed74, 2021-05-24)"
   xmlns:inkscape="http://www.inkscape.org/namespaces/inkscape"
   xmlns:sodipodi="http://sodipodi.sourceforge.net/DTD/sodipodi-0.dtd"
   xmlns="http://www.w3.org/2000/svg"
   xmlns:svg="http://www.w3.org/2000/svg"><defs
     id="defs6"><linearGradient
       x1="0"
       y1="0"
       x2="1"
       y2="0"
       gradientUnits="userSpaceOnUse"
       gradientTransform="matrix(303.67374,-254.81253,-254.81253,-303.67374,21.27461,335.9819)"
       spreadMethod="pad"
       id="linearGradient28"><stop
         style="stop-opacity:1;stop-color:#bfa286"
         offset="0"
         id="stop22" /><stop
         style="stop-opacity:1;stop-color:#bfa286"
         offset="0.00289017"
         id="stop24" /><stop
         style="stop-opacity:1;stop-color:#986f4c"
         offset="1"
         id="stop26" /></linearGradient><clipPath
       clipPathUnits="userSpaceOnUse"
       id="clipPath38"><path
         d="M 0,350 H 350 V 0 H 0 Z"
         id="path36" /></clipPath><clipPath
       clipPathUnits="userSpaceOnUse"
       id="clipPath46"><path
         d="M 27.8899,338.303 H 323.41 V 12.4173 H 27.8899 Z"
         id="path44" /></clipPath><clipPath
       clipPathUnits="userSpaceOnUse"
       id="clipPath62"><path
         d="M 38.8615,326.262 H 312.44 V 24.4578 H 38.8615 Z"
         id="path60" /></clipPath><clipPath
       clipPathUnits="userSpaceOnUse"
       id="clipPath78"><path
         d="m 265.876,288.177 h 30.078 V 81.5149 h -30.078 z"
         id="path76" /></clipPath><clipPath
       clipPathUnits="userSpaceOnUse"
       id="clipPath94"><path
         d="M 55.3469,288.177 H 87.2992 V 79.511 H 55.3469 Z"
         id="path92" /></clipPath><clipPath
       clipPathUnits="userSpaceOnUse"
       id="clipPath110"><path
         d="M 0,350 H 350 V 0 H 0 Z"
         id="path108" /></clipPath><clipPath
       clipPathUnits="userSpaceOnUse"
       id="clipPath118"><path
         d="M 72.0133,315.745 H 267.83 V 53.9458 H 72.0133 Z"
         id="path116" /></clipPath><clipPath
       clipPathUnits="userSpaceOnUse"
       id="clipPath122"><path
         d="M 72.0137,315.745 H 267.831 V 53.9453 H 72.0137 Z"
         id="path120" /></clipPath><clipPath
       clipPathUnits="userSpaceOnUse"
       id="clipPath354"><path
         d="M 72.0133,315.745 H 267.83 V 53.9458 H 72.0133 Z"
         id="path352" /></clipPath><linearGradient
       x1="0"
       y1="0"
       x2="1"
       y2="0"
       gradientUnits="userSpaceOnUse"
       gradientTransform="matrix(-162.31668,281.14075,281.14075,162.31668,251.08008,44.275162)"
       spreadMethod="pad"
       id="linearGradient364"><stop
         style="stop-opacity:1;stop-color:#f5c8a4"
         offset="0"
         id="stop360" /><stop
         style="stop-opacity:1;stop-color:#ffffff"
         offset="1"
         id="stop362" /></linearGradient><clipPath
       clipPathUnits="userSpaceOnUse"
       id="clipPath386"><path
         d="M 92.8742,80.2527 H 260.243 V 37.593 H 92.8742 Z"
         id="path384" /></clipPath><clipPath
       clipPathUnits="userSpaceOnUse"
       id="clipPath450"><path
         d="M 81.3879,247.278 H 94.7746 V 233.891 H 81.3879 Z"
         id="path448" /></clipPath><clipPath
       clipPathUnits="userSpaceOnUse"
       id="clipPath466"><path
         d="m 94.2541,219.705 h 7.6929 v -7.694 h -7.6929 z"
         id="path464" /></clipPath><clipPath
       clipPathUnits="userSpaceOnUse"
       id="clipPath482"><path
         d="m 240.844,240.063 h 7.693 v -7.693 h -7.693 z"
         id="path480" /></clipPath><clipPath
       clipPathUnits="userSpaceOnUse"
       id="clipPath498"><path
         d="m 249.818,217.808 h 12.999 v -12.999 h -12.999 z"
         id="path496" /></clipPath><clipPath
       clipPathUnits="userSpaceOnUse"
       id="clipPath514"><path
         d="m 148.97,96.7235 h 55.607 V 63.771 H 148.97 Z"
         id="path512" /></clipPath><clipPath
       clipPathUnits="userSpaceOnUse"
       id="clipPath538"><path
         d="m 99.1453,274.876 h 14.2917 v -14.81 H 99.1453 Z"
         id="path536" /></clipPath><clipPath
       clipPathUnits="userSpaceOnUse"
       id="clipPath554"><path
         d="m 233.067,202.613 h 14.47 v -14.772 h -14.47 z"
         id="path552" /></clipPath><clipPath
       clipPathUnits="userSpaceOnUse"
       id="clipPath570"><path
         d="M 55.5695,311.159 H 292.957 V 295.717 H 55.5695 Z"
         id="path568" /></clipPath><clipPath
       clipPathUnits="userSpaceOnUse"
       id="clipPath638"><path
         d="m 75.7053,139.663 h 21.0488 v -3 H 75.7053 Z"
         id="path636" /></clipPath><clipPath
       clipPathUnits="userSpaceOnUse"
       id="clipPath654"><path
         d="m 75.7053,130.658 h 21.0488 v -3 H 75.7053 Z"
         id="path652" /></clipPath><clipPath
       clipPathUnits="userSpaceOnUse"
       id="clipPath670"><path
         d="m 251.816,139.663 h 21.048 v -3 h -21.048 z"
         id="path668" /></clipPath><clipPath
       clipPathUnits="userSpaceOnUse"
       id="clipPath686"><path
         d="m 251.816,130.658 h 21.048 v -3 h -21.048 z"
         id="path684" /></clipPath><mask
       maskUnits="userSpaceOnUse"
       id="mask2328"><g
         id="g2550"><g
           clip-path="url(#clipPath118)"
           id="g2548"><path
             d="M 72.014,315.745 H 267.831 V 53.945 H 72.014 Z"
             style="fill:#000000;fill-opacity:1;fill-rule:nonzero;stroke:none"
             id="path2330" /><g
             id="g2546"><g
               id="g2332" /><g
               id="g2544"><g
                 clip-path="url(#clipPath122)"
                 id="g2542"><g
                   transform="translate(113.7646,234.5244)"
                   id="g2336"><path
                     d="M 0,0 0.358,2.619 C -0.915,2.16 -2.337,1.894 -3.787,2.107 -3.767,2.048 -3.741,1.99 -3.71,1.932 -3.483,1.506 -2.694,0.605 0,0"
                     style="fill:#ffffff;fill-opacity:1;fill-rule:nonzero;stroke:none"
                     id="path2334" /></g><g
                   transform="translate(123.0195,258.8071)"
                   id="g2340"><path
                     d="m 0,0 1.064,-5.293 c 0.09,-0.448 -0.029,-0.912 -0.324,-1.26 -0.294,-0.348 -0.744,-0.54 -1.187,-0.53 l -3.424,0.104 -4.367,-31.958 3.64,-0.501 c 0.419,-0.058 0.794,-0.291 1.033,-0.641 0.237,-0.35 0.316,-0.785 0.215,-1.196 l -2.056,-8.41 2.694,-2.553 4.959,12.008 c -0.042,0.115 -0.084,0.231 -0.125,0.348 l -3.8,1.429 c -0.381,0.143 -0.685,0.434 -0.846,0.807 -0.162,0.374 -0.164,0.796 -0.007,1.17 l 3.647,8.709 c 0.107,0.728 0.236,1.459 0.4,2.192 0.073,0.329 0.16,0.68 0.256,1.039 l -1.666,7.079 c -0.18,0.767 0.266,1.543 1.02,1.773 l 6.737,2.053 0.151,0.3 c 0.052,0.069 0.106,0.132 0.159,0.2 L 8.172,-7.38 c 0,0.597 0.355,1.138 0.904,1.374 0.55,0.235 1.187,0.122 1.62,-0.289 l 2.908,-2.758 c 0.313,0.109 0.636,0.204 0.968,0.29 l 0.479,0.897 c 0.281,0.527 0.857,0.831 1.446,0.786 0.596,-0.051 1.104,-0.451 1.293,-1.019 l 0.059,-0.176 c 0.16,0.004 0.321,0.008 0.482,0.004 l 2.076,3.692 c 0.208,0.369 0.562,0.632 0.974,0.725 0.414,0.094 0.846,0.008 1.191,-0.235 l 8.626,-6.076 3.576,3.905 c 0.337,0.368 0.836,0.544 1.328,0.468 L 49.32,-7.796 65.39,1.397 c 0.547,0.313 1.232,0.249 1.714,-0.16 0.479,-0.41 0.651,-1.077 0.427,-1.667 l -3.544,-9.373 14.562,1.506 c 0.651,0.07 1.268,-0.295 1.527,-0.896 l 7.365,-17.086 c 0.25,-0.579 0.109,-1.253 -0.352,-1.684 l -5.158,-4.826 6.336,-15.165 c 0.165,-0.394 0.153,-0.839 -0.032,-1.224 -0.185,-0.385 -0.525,-0.672 -0.935,-0.79 l -12.404,-3.558 1.279,-9.086 c 0.107,-0.761 -0.38,-1.48 -1.127,-1.661 l -18.476,-4.499 -4.429,-8.442 c -0.297,-0.565 -0.926,-0.879 -1.55,-0.783 l -11.808,1.807 -16.473,-7.965 c -0.206,-0.1 -0.428,-0.149 -0.651,-0.149 -0.242,0 -0.485,0.059 -0.705,0.177 -0.422,0.225 -0.71,0.638 -0.776,1.111 l -1.182,8.45 -12.276,1.61 c -0.084,0.011 -0.165,0.031 -0.243,0.055 l -0.746,-8.732 5.251,1.507 c 0.537,0.153 1.113,-0.003 1.496,-0.407 0.384,-0.403 0.512,-0.987 0.333,-1.513 l -2.286,-6.707 10.459,3.739 c 0.163,0.059 0.334,0.088 0.503,0.088 0.294,0 0.586,-0.087 0.835,-0.255 0.395,-0.265 0.64,-0.703 0.659,-1.177 l 0.144,-3.363 13.621,5.068 c 0.323,0.119 0.675,0.125 1.001,0.014 l 9.878,-3.34 7.202,9.349 c 0.303,0.394 0.774,0.607 1.278,0.58 l 7.722,-0.481 2.532,4.57 c 0.347,0.624 1.085,0.914 1.763,0.7 l 4.981,-1.589 2.239,4.891 c 0.292,0.639 0.987,0.991 1.677,0.839 l 7.124,-1.542 4.143,8.42 c 0.209,0.426 0.608,0.727 1.074,0.811 l 11.177,2.032 -0.641,4.775 c -0.098,0.736 0.357,1.433 1.071,1.637 l 2.971,0.853 0.159,4.829 c 0.023,0.724 0.563,1.328 1.281,1.431 8.581,1.238 10.67,5.514 11.169,7.786 -6.32,-0.003 -10.997,1.381 -13.947,4.191 -2.916,2.777 -2.969,5.922 -2.97,6.055 -0.002,0.179 0.029,0.357 0.092,0.525 l 4.993,13.593 c -2.391,4.433 -14.34,5.745 -18.484,5.853 -0.528,0.014 -1.01,0.305 -1.267,0.767 -0.257,0.461 -0.253,1.024 0.013,1.481 l 2.507,4.305 C 79.947,6.893 65.19,3.979 65.037,3.947 64.475,3.831 63.889,4.05 63.54,4.514 63.193,4.977 63.143,5.598 63.413,6.109 l 2.184,4.138 C 57.233,13.337 46.285,9.357 41.966,7.505 l 1.016,-5.36 C 43.097,1.542 42.995,0.915 42.695,0.38 42.043,-0.784 39.968,-3.488 34.797,-3.488 h -0.024 c -4.681,0.008 -7.055,1.617 -8.054,2.576 -0.658,0.633 -0.938,1.582 -0.728,2.478 v 10e-4 l 2.625,11.156 c -1.492,0.214 -2.858,0.271 -3.852,0.271 L 25.858,6.567 C 25.96,5.977 25.697,5.382 25.193,5.058 24.69,4.734 24.041,4.742 23.544,5.079 17.937,8.889 13.376,7.72 11.497,6.933 l 1.536,-6.47 C 13.174,-0.133 12.938,-0.755 12.437,-1.106 11.935,-1.458 11.271,-1.469 10.758,-1.133 6.926,1.377 2.176,0.574 0,0"
                     style="fill:#ffffff;fill-opacity:1;fill-rule:nonzero;stroke:none"
                     id="path2338" /></g><g
                   transform="translate(128.3604,191.4229)"
                   id="g2344"><path
                     d="M 0,0 -0.113,5.819 -4.45,8.596 -3.241,0.958 Z"
                     style="fill:#ffffff;fill-opacity:1;fill-rule:nonzero;stroke:none"
                     id="path2342" /></g><g
                   transform="translate(145.666,246.1592)"
                   id="g2348"><path
                     d="m 0,0 c -0.12,-1.139 -0.654,-2.205 -1.367,-3.102 -0.446,-0.563 -0.906,-1.023 -1.383,-1.406 2.117,-0.422 4.219,-0.954 6.271,-1.596 0.95,-0.296 1.942,-0.654 2.708,-1.468 1.137,-1.207 1.259,-2.804 1.286,-4.336 0.051,-2.908 0.037,-5.762 -0.286,-8.467 1.659,0.112 3.349,-0.166 4.884,-0.804 -0.293,1.355 -0.5,2.753 -0.547,4.186 -0.141,4.446 1.18,8.905 3.721,12.556 0.63,0.904 1.52,2.024 2.818,2.668 1.622,0.805 3.376,0.67 5.034,0.463 1.715,-0.213 3.422,-0.485 5.12,-0.795 -0.025,0.022 -0.049,0.044 -0.073,0.067 -1.046,1.003 -2.044,2.174 -2.307,3.599 -0.024,0.127 -0.03,0.258 -0.037,0.388 L 13.795,3.78 9.869,-0.507 C 9.36,-1.062 8.52,-1.152 7.904,-0.72 L -0.443,5.16 -1.384,3.488 c 0.13,-0.098 0.258,-0.2 0.375,-0.32 C -0.207,2.351 0.121,1.139 0,0"
                     style="fill:#ffffff;fill-opacity:1;fill-rule:nonzero;stroke:none"
                     id="path2346" /></g><g
                   transform="translate(124.0996,223.2109)"
                   id="g2352"><path
                     d="m 0,0 -0.253,-0.604 0.374,-0.14 C 0.077,-0.498 0.036,-0.25 0,0"
                     style="fill:#ffffff;fill-opacity:1;fill-rule:nonzero;stroke:none"
                     id="path2350" /></g><g
                   transform="translate(186.7559,241.1509)"
                   id="g2356"><path
                     d="m 0,0 c -0.133,-0.105 -0.281,-0.187 -0.425,-0.278 1.855,-0.62 3.691,-1.3 5.504,-2.04 v 0 c 4.588,-1.874 3.876,-8.325 3.642,-10.445 -0.413,-3.735 -1.196,-7.443 -2.327,-11.023 -0.217,-0.683 -0.461,-1.379 -0.747,-2.064 1.427,-1.098 2.476,-2.581 3.051,-4.238 1.075,-0.763 1.656,-1.673 1.392,-2.361 -0.129,-0.337 -0.455,-0.569 -0.896,-0.709 0,-0.055 -0.001,-0.11 -0.002,-0.165 l 11.931,3.423 -6.089,14.573 c -0.241,0.577 -0.098,1.242 0.359,1.669 L 20.542,-8.841 14.028,6.271 1.017,4.925 C 1.362,4.31 1.58,3.644 1.564,2.935 1.539,1.79 0.9,0.708 0,0"
                     style="fill:#ffffff;fill-opacity:1;fill-rule:nonzero;stroke:none"
                     id="path2354" /></g><g
                   transform="translate(160.8047,216.4956)"
                   id="g2360"><path
                     d="M 0,0 C -0.671,1.43 -1.381,3.068 -1.995,4.839 -3.693,6.342 -6.103,6.99 -8.346,6.649 -8.793,4.581 -9.488,2.63 -10.57,0.85 -7.046,0.583 -3.519,0.294 0.003,-0.007 Z"
                     style="fill:#ffffff;fill-opacity:1;fill-rule:nonzero;stroke:none"
                     id="path2358" /></g><g
                   transform="translate(183.5781,199.5698)"
                   id="g2364"><path
                     d="m 0,0 c -0.271,0.104 -0.532,0.222 -0.788,0.349 -3.73,-3.28 -15.328,-12.598 -26.963,-12.8 l -0.198,-0.002 c -3.606,0 -7.025,1.685 -9.378,4.621 -0.574,0.717 -1.264,1.512 -2.032,2.322 -3.378,0.806 -6.758,1.736 -10.065,2.785 -0.361,0.115 -1.21,0.385 -1.574,1.26 -0.239,0.582 -0.126,1.132 -0.071,1.397 0.209,1.011 0.418,1.987 0.744,3.02 -2.111,1.08 -4.077,2.394 -5.85,3.988 -1.268,1.141 -1.162,2.894 -1.085,4.174 l 0.022,0.38 c 0.055,1.126 0.324,2.41 0.865,3.592 -0.065,0.102 -0.134,0.2 -0.197,0.302 l -4.368,-10.574 7.893,-5.054 c 0.421,-0.27 0.68,-0.732 0.69,-1.231 l 0.182,-9.449 12.13,-1.591 c 0.667,-0.087 1.193,-0.609 1.286,-1.275 l 1.057,-7.546 8.033,3.885 c -1.7,0.242 -3.468,0.897 -4.8,2.258 -0.501,0.512 -0.492,1.333 0.02,1.835 0.511,0.5 1.333,0.492 1.835,-0.02 2.093,-2.139 6.078,-1.678 7.002,-1.244 0.476,0.223 1.02,0.13 1.397,-0.193 l 1.556,0.753 c 0.272,0.131 0.581,0.179 0.877,0.132 l 11.212,-1.716 4.248,8.095 c 0.199,0.38 0.552,0.657 0.969,0.758 l 17.817,4.338 -0.989,7.02 C 9.445,0.327 4.468,-1.714 0,0"
                     style="fill:#ffffff;fill-opacity:1;fill-rule:nonzero;stroke:none"
                     id="path2362" /></g><g
                   transform="translate(186.2812,255.5405)"
                   id="g2368"><path
                     d="m 0,0 -7.266,-4.156 c 1.755,-0.323 3.454,-0.952 4.993,-1.856 z"
                     style="fill:#ffffff;fill-opacity:1;fill-rule:nonzero;stroke:none"
                     id="path2366" /></g><g
                   transform="translate(140.7822,226.0083)"
                   id="g2372"><path
                     d="M 0,0 C 2.623,-0.298 4.928,-1.956 6.85,-4.928 7.239,-5.53 7.066,-6.333 6.465,-6.723 6.247,-6.863 6.003,-6.931 5.762,-6.931 c -0.426,0 -0.843,0.209 -1.092,0.594 -1.475,2.281 -3.139,3.545 -4.946,3.756 -2.802,0.328 -5.232,-1.953 -5.256,-1.976 -0.516,-0.494 -1.338,-0.48 -1.833,0.035 -0.496,0.515 -0.485,1.332 0.028,1.83 C -7.204,-2.563 -4.044,0.456 0,0 M 0.298,3.794 C 3.362,4.982 6.221,1.605 6.536,1.216 6.987,0.659 6.902,-0.158 6.347,-0.609 6.105,-0.805 5.816,-0.899 5.529,-0.899 c -0.377,0 -0.75,0.163 -1.007,0.478 -0.625,0.761 -2.249,2.197 -3.286,1.796 -0.665,-0.26 -1.42,0.071 -1.679,0.74 -0.259,0.668 0.073,1.42 0.741,1.679 m -6.393,9.967 c -2.558,-0.247 -4.473,-1.119 -5.715,-2.615 -0.553,-0.667 -0.955,-1.453 -1.256,-2.248 l 0.349,-1.487 c 0.072,-0.307 0.045,-0.629 -0.076,-0.92 l -1.485,-3.547 c -0.213,-2.646 -0.007,-5.208 0.598,-7.569 l 0.771,-0.29 c 0.379,-0.142 0.683,-0.432 0.845,-0.804 0.161,-0.371 0.165,-0.792 0.01,-1.166 l -0.441,-1.068 c 0.173,-0.371 0.36,-0.733 0.557,-1.087 0.53,0.487 1.152,0.889 1.88,1.158 1.407,0.52 2.904,0.415 4.104,0.33 4.089,-0.287 8.239,-0.582 12.404,-0.89 1.054,1.381 1.79,2.941 2.296,4.631 -0.486,-0.03 -0.971,0.213 -1.22,0.669 -0.343,0.629 -0.113,1.417 0.515,1.762 0.441,0.241 0.901,0.44 1.373,0.607 0.425,2.805 0.445,5.851 0.39,8.97 -0.019,1.068 -0.077,2.069 -0.58,2.602 -0.336,0.359 -0.946,0.569 -1.593,0.772 -2.689,0.84 -5.463,1.489 -8.247,1.93 -1.092,0.173 -2.113,0.275 -3.069,0.314 -0.41,-0.024 -0.833,-0.043 -1.272,-0.057 -0.376,-0.013 -0.758,-0.015 -1.138,0.003"
                     style="fill:#ffffff;fill-opacity:1;fill-rule:nonzero;stroke:none"
                     id="path2370" /></g><g
                   transform="translate(126.3584,240.6704)"
                   id="g2376"><path
                     d="m 0,0 0.48,-2.04 c 0.047,0.06 0.088,0.123 0.137,0.181 0.99,1.193 2.255,2.093 3.786,2.697 -0.094,0.138 -0.18,0.279 -0.254,0.427 z"
                     style="fill:#ffffff;fill-opacity:1;fill-rule:nonzero;stroke:none"
                     id="path2374" /></g><g
                   transform="translate(154.0586,189.8691)"
                   id="g2380"><path
                     d="M 0,0 C 0.189,-0.034 0.378,-0.074 0.57,-0.096 0.378,-0.074 0.189,-0.034 0,0"
                     style="fill:#ffffff;fill-opacity:1;fill-rule:nonzero;stroke:none"
                     id="path2378" /></g><g
                   transform="translate(152.0156,190.4932)"
                   id="g2384"><path
                     d="M 0,0 C 0.181,-0.079 0.359,-0.164 0.545,-0.231 0.359,-0.164 0.181,-0.079 0,0"
                     style="fill:#ffffff;fill-opacity:1;fill-rule:nonzero;stroke:none"
                     id="path2382" /></g><g
                   transform="translate(155.6289,189.7124)"
                   id="g2388"><path
                     d="M 0,0 C 0.051,0 0.102,0 0.152,0.001 -0.067,-0.002 -0.285,0.018 -0.503,0.031 -0.335,0.021 -0.169,0 0,0"
                     style="fill:#ffffff;fill-opacity:1;fill-rule:nonzero;stroke:none"
                     id="path2386" /></g><g
                   transform="translate(149.2637,192.313)"
                   id="g2392"><path
                     d="M 0,0 C 0.175,-0.164 0.347,-0.33 0.532,-0.48 0.347,-0.33 0.175,-0.164 0,0"
                     style="fill:#ffffff;fill-opacity:1;fill-rule:nonzero;stroke:none"
                     id="path2390" /></g><g
                   transform="translate(153.0195,190.1211)"
                   id="g2396"><path
                     d="M 0,0 C 0.186,-0.057 0.369,-0.119 0.559,-0.164 0.369,-0.119 0.186,-0.057 0,0"
                     style="fill:#ffffff;fill-opacity:1;fill-rule:nonzero;stroke:none"
                     id="path2394" /></g><g
                   transform="translate(147.1133,194.7373)"
                   id="g2400"><path
                     d="M 0,0 C 0.104,-0.119 0.221,-0.244 0.321,-0.361 0.221,-0.244 0.104,-0.119 0,0"
                     style="fill:#ffffff;fill-opacity:1;fill-rule:nonzero;stroke:none"
                     id="path2398" /></g><g
                   transform="translate(150.1416,191.5815)"
                   id="g2404"><path
                     d="M 0,0 C 0.171,-0.127 0.34,-0.259 0.52,-0.375 0.34,-0.259 0.171,-0.127 0,0"
                     style="fill:#ffffff;fill-opacity:1;fill-rule:nonzero;stroke:none"
                     id="path2402" /></g><g
                   transform="translate(151.0557,190.9795)"
                   id="g2408"><path
                     d="M 0,0 C 0.176,-0.102 0.349,-0.209 0.53,-0.299 0.349,-0.209 0.176,-0.102 0,0"
                     style="fill:#ffffff;fill-opacity:1;fill-rule:nonzero;stroke:none"
                     id="path2406" /></g><g
                   transform="translate(190.8535,236.4307)"
                   id="g2412"><path
                     d="m 0,0 v 0 c -7.165,2.925 -14.69,4.893 -22.369,5.848 -0.582,0.072 -1.175,0.135 -1.741,0.135 -0.664,0 -1.291,-0.087 -1.819,-0.348 -0.77,-0.383 -1.389,-1.177 -1.842,-1.826 -2.223,-3.196 -3.379,-7.099 -3.255,-10.991 0.072,-2.252 0.571,-4.454 1.238,-6.496 0.193,-0.242 0.292,-0.535 0.286,-0.829 0.56,-1.573 1.198,-3.038 1.803,-4.326 0.214,-0.457 0.437,-0.916 0.671,-1.372 0.507,-0.045 1.018,-0.087 1.525,-0.133 -1.65,3.789 -1.944,8.698 -0.682,12.683 1.278,4.031 5.295,10.281 10.707,9.926 2.207,-0.15 4.381,-1.465 6.126,-3.705 2.688,-3.45 3.931,-8.4 3.165,-12.612 -0.449,-2.479 -1.657,-4.974 -3.332,-7.053 2.429,1.841 5.72,2.431 8.775,1.259 0.005,-0.002 0.009,-0.004 0.014,-0.006 0.19,0.487 0.373,0.998 0.551,1.563 1.081,3.418 1.829,6.959 2.223,10.526 C 2.542,-3.239 1.893,-0.773 0,0"
                     style="fill:#ffffff;fill-opacity:1;fill-rule:nonzero;stroke:none"
                     id="path2410" /></g><g
                   transform="translate(148.998,192.5537)"
                   id="g2416"><path
                     d="M 0,0 C -0.254,0.255 -0.495,0.524 -0.722,0.808 -0.495,0.524 -0.254,0.255 0,0"
                     style="fill:#ffffff;fill-opacity:1;fill-rule:nonzero;stroke:none"
                     id="path2414" /></g><g
                   transform="translate(156.0605,210.29)"
                   id="g2420"><path
                     d="m 0,0 c -0.364,-0.222 -0.769,-0.41 -1.194,-0.409 -0.427,0.001 -0.827,0.19 -1.237,0.308 -0.409,0.119 -0.707,-0.27 -1.07,-0.047 -0.491,0.299 0,0.742 0.485,1.05 0.519,0.33 1.066,0.616 1.633,0.853 0.41,0.171 0.851,0.32 1.292,0.262 C 0.35,1.958 0.784,1.635 0.831,1.193 0.885,0.684 0.437,0.267 0,0 m -14.788,2.137 c 0.428,0.121 0.886,0.038 1.316,-0.072 0.595,-0.152 1.178,-0.356 1.74,-0.607 0.524,-0.234 1.075,-0.602 0.632,-0.97 -0.328,-0.272 -0.678,0.07 -1.066,-0.107 -0.389,-0.176 -0.757,-0.421 -1.179,-0.484 -0.422,-0.063 -0.848,0.064 -1.241,0.231 -0.472,0.201 -0.974,0.549 -0.995,1.06 -0.018,0.445 0.366,0.828 0.793,0.949 m 34.423,-6.393 c -0.07,-10e-4 -0.14,-10e-4 -0.21,-10e-4 -4.005,0 -7.776,1.414 -10.377,3.897 -1.18,1.127 -2.11,2.45 -2.902,3.832 -4.805,0.421 -9.63,0.806 -14.442,1.163 -0.04,0.002 -0.079,0.003 -0.119,0.009 -4.363,0.323 -8.712,0.632 -12.992,0.933 -1.06,0.074 -2.148,0.151 -3.03,-0.175 -1.729,-0.638 -2.598,-2.848 -2.692,-4.756 l -0.022,-0.409 c -0.046,-0.753 -0.109,-1.784 0.229,-2.088 12.292,-11.05 35.694,-7.522 49.286,-4.177 -0.019,0.04 -0.039,0.079 -0.057,0.119 0.043,0.013 0.087,0.029 0.13,0.042 -0.251,0.572 -0.439,1.169 -0.569,1.783 -0.75,-0.1 -1.495,-0.163 -2.233,-0.172"
                     style="fill:#ffffff;fill-opacity:1;fill-rule:nonzero;stroke:none"
                     id="path2418" /></g><g
                   transform="translate(181.335,215.332)"
                   id="g2424"><path
                     d="M 0,0 C -0.6,-0.745 -1.261,-1.434 -1.967,-2.051 -2.029,-2.14 -2.096,-2.224 -2.155,-2.315 l 0.106,-0.183 c -0.102,-0.184 -0.193,-0.375 -0.275,-0.568 -0.21,-0.296 -0.391,-0.616 -0.533,-0.966 -0.237,-0.728 -0.498,-1.463 -0.655,-2.213 -0.018,-0.093 -0.029,-0.191 -0.043,-0.286 2.37,0.34 4.829,1.191 7.337,2.551 1.859,1.008 3.046,1.944 3.853,3.035 0.47,0.636 0.829,1.37 1.153,2.198 C 8.783,1.254 8.779,1.257 8.774,1.259 5.72,2.431 2.429,1.841 0,0"
                     style="fill:#ffffff;fill-opacity:1;fill-rule:nonzero;stroke:none"
                     id="path2422" /></g><g
                   transform="translate(192.3477,208.353)"
                   id="g2428"><path
                     d="m 0,0 c -1.664,0.639 -2.881,1.689 -3.125,2.595 -0.964,-0.79 -1.984,-1.398 -2.868,-1.877 -1.143,-0.62 -2.279,-1.135 -3.409,-1.566 0.417,0 0.825,-0.198 1.074,-0.568 l 1.191,-1.762 c 0.089,-0.131 0.152,-0.275 0.188,-0.424 0.198,-0.267 0.372,-0.474 0.498,-0.587 0.536,-0.126 0.951,-0.586 0.995,-1.164 0.055,-0.715 -0.481,-1.338 -1.194,-1.393 -0.238,-0.018 -0.587,-0.044 -1.096,0.286 -0.146,-0.345 -0.359,-0.653 -0.631,-0.902 -0.148,-0.14 -0.559,-0.526 -1.181,-1.073 0.256,-0.126 0.518,-0.244 0.788,-0.348 4.468,-1.715 9.446,0.327 11.477,4.569 l -0.283,2.012 c -0.104,0.739 0.351,1.441 1.068,1.646 l 0.109,0.031 C 3.602,-0.47 3.603,-0.416 3.603,-0.36 2.736,-0.637 1.394,-0.534 0,0"
                     style="fill:#ffffff;fill-opacity:1;fill-rule:nonzero;stroke:none"
                     id="path2426" /></g><g
                   transform="translate(178.4971,204.4229)"
                   id="g2432"><path
                     d="M 0,0 C 0.936,0.289 1.872,0.589 2.813,0.914 2.991,0.98 3.181,1.023 3.374,1.049 3.353,1.089 3.331,1.126 3.31,1.167 3.011,1.714 3.148,2.382 3.61,2.774 2.201,2.292 0.807,1.964 -0.568,1.783 -0.438,1.169 -0.251,0.572 0,0"
                     style="fill:#ffffff;fill-opacity:1;fill-rule:nonzero;stroke:none"
                     id="path2430" /></g><g
                   transform="translate(193.7354,211.9687)"
                   id="g2436"><path
                     d="M 0,0 C 0.651,-0.25 1.234,-0.563 1.719,-0.906 1.144,0.751 0.095,2.234 -1.332,3.333 -1.688,2.477 -2.114,1.64 -2.679,0.875 -2.778,0.74 -2.887,0.615 -2.993,0.487 -2.163,0.573 -1.097,0.421 0,0"
                     style="fill:#ffffff;fill-opacity:1;fill-rule:nonzero;stroke:none"
                     id="path2434" /></g><g
                   transform="translate(192.3477,208.353)"
                   id="g2440"><path
                     d="M 0,0 C 1.394,-0.534 2.736,-0.637 3.603,-0.36 4.043,-0.22 4.369,0.012 4.498,0.349 4.762,1.037 4.182,1.947 3.106,2.709 2.622,3.052 2.039,3.366 1.388,3.616 0.291,4.037 -0.775,4.189 -1.605,4.103 -2.073,3.536 -2.588,3.035 -3.125,2.595 -2.881,1.689 -1.664,0.639 0,0"
                     style="fill:#ffffff;fill-opacity:1;fill-rule:nonzero;stroke:none"
                     id="path2438" /></g><g
                   transform="translate(168.665,197.8218)"
                   id="g2444"><path
                     d="m 0,0 c -0.037,-1.247 -0.146,-2.588 -0.296,-3.377 -0.107,-0.568 -0.579,-0.996 -1.155,-1.049 -2.28,-0.21 -4.713,-0.43 -7.184,-0.444 -1.203,-1.136 -2.203,-2.272 -2.93,-3.169 7.08,0.59 14.364,4.8 19.388,8.375 C 5.794,0.566 2.953,0.653 0,0"
                     style="fill:#ffffff;fill-opacity:1;fill-rule:nonzero;stroke:none"
                     id="path2442" /></g><g
                   transform="translate(165.9463,195.8857)"
                   id="g2448"><path
                     d="M 0,0 C 0.099,1.017 0.154,2.368 0.134,3.304 -3.837,2.75 -7.951,2.402 -12.028,2.402 c -0.067,0 -0.133,0.002 -0.2,0.002 C -12.229,2.217 -12.232,2.028 -12.236,1.839 -12.244,1.3 -12.253,0.761 -12.251,0.281 -8.252,-0.651 -4.076,-0.368 0,0"
                     style="fill:#ffffff;fill-opacity:1;fill-rule:nonzero;stroke:none"
                     id="path2446" /></g><g
                   transform="translate(144.9707,196.541)"
                   id="g2452"><path
                     d="M 0,0 C 0.237,0.745 0.461,1.58 0.631,2.294 -2.865,2.778 -6.23,3.612 -9.342,4.893 -9.533,4.236 -9.688,3.551 -9.861,2.724 -6.62,1.7 -3.309,0.786 0,0"
                     style="fill:#ffffff;fill-opacity:1;fill-rule:nonzero;stroke:none"
                     id="path2450" /></g><g
                   transform="translate(178.4775,211.2998)"
                   id="g2456"><path
                     d="M 0,0 C 0.143,0.35 0.323,0.67 0.533,0.966 0.615,1.16 0.706,1.35 0.809,1.535 L 0.702,1.717 c 0.06,0.092 0.126,0.175 0.189,0.264 -0.515,-0.45 -1.051,-0.865 -1.61,-1.229 -1.72,-1.123 -3.505,-1.706 -5.16,-1.706 -0.521,0 -1.031,0.058 -1.521,0.175 -1.557,0.374 -2.954,1.337 -4.109,2.808 -0.473,0.05 -0.968,0.099 -1.497,0.148 0.434,-0.6 0.902,-1.167 1.43,-1.67 2.158,-2.061 5.361,-3.22 8.763,-3.178 0.696,0.009 1.402,0.069 2.116,0.172 0.013,0.096 0.024,0.193 0.043,0.286 C -0.498,-1.463 -0.236,-0.728 0,0"
                     style="fill:#ffffff;fill-opacity:1;fill-rule:nonzero;stroke:none"
                     id="path2454" /></g><g
                   transform="translate(171.6826,213.0449)"
                   id="g2460"><path
                     d="M 0,0 C 0.596,-0.143 1.254,-0.131 1.945,0.011 1.383,0.142 0.707,0.473 -0.02,1.208 c -1.759,1.78 -3.369,5.541 -3.04,9.285 0.335,3.825 2.678,7.32 4.818,8.796 1.356,0.936 2.396,0.918 3.03,0.738 1.845,-0.523 2.535,-2.978 2.75,-5.423 L 8.061,14.71 7.946,9.62 7.467,9.505 C 7.311,8.01 6.742,3.838 5.129,1.526 c 2.668,1.939 4.729,5.117 5.303,8.277 0.628,3.464 -0.441,7.705 -2.661,10.554 -1.283,1.649 -2.793,2.611 -4.252,2.709 -0.089,0.007 -0.178,0.01 -0.267,0.01 -3.556,0 -6.733,-4.791 -7.792,-8.13 C -5.731,11.188 -5.273,6.282 -3.427,3.013 -2.773,1.856 -1.648,0.395 0,0"
                     style="fill:#ffffff;fill-opacity:1;fill-rule:nonzero;stroke:none"
                     id="path2458" /></g><g
                   transform="translate(179.7432,227.7549)"
                   id="g2464"><path
                     d="m 0,0 -0.522,-0.106 -6.669,-1.351 0.432,-5.23 6.165,1.482 0.48,0.115 z"
                     style="fill:#ffffff;fill-opacity:1;fill-rule:nonzero;stroke:none"
                     id="path2462" /></g><g
                   transform="translate(161.3486,273.7974)"
                   id="g2468"><path
                     d="m 0,0 -0.903,4.765 c -1.736,0.129 -3.363,1.08 -4.469,1.907 L -6.219,3.073 C -5.3,2.232 -2.897,0.301 0,0"
                     style="fill:#ffffff;fill-opacity:1;fill-rule:nonzero;stroke:none"
                     id="path2466" /></g><g
                   transform="translate(153.8623,271.4819)"
                   id="g2472"><path
                     d="M 0,0 C 0.987,-1.128 4.369,-4.58 8.83,-4.773 L 7.906,0.102 C 4.816,0.205 2.224,1.804 0.707,3.003 Z"
                     style="fill:#ffffff;fill-opacity:1;fill-rule:nonzero;stroke:none"
                     id="path2470" /></g><g
                   transform="translate(158.1279,289.6177)"
                   id="g2476"><path
                     d="M 0,0 -0.129,-0.552 C -0.01,-0.7 0.173,-0.885 0.425,-1.072 L 0.217,0.025 C 0.213,0.04 0.204,0.082 0.114,0.084 0.021,0.095 0.014,0.045 0,0"
                     style="fill:#ffffff;fill-opacity:1;fill-rule:nonzero;stroke:none"
                     id="path2474" /></g><g
                   transform="translate(160.0176,280.8184)"
                   id="g2480"><path
                     d="M 0,0 -0.965,5.091 C -1.613,5.282 -2.149,5.553 -2.583,5.85 L -3.488,2.002 C -2.71,1.309 -1.352,0.313 0,0"
                     style="fill:#ffffff;fill-opacity:1;fill-rule:nonzero;stroke:none"
                     id="path2478" /></g><g
                   transform="translate(157.7969,257.4985)"
                   id="g2484"><path
                     d="M 0,0 H 0.02 C 1.11,0 2.012,0.145 2.762,0.368 -1.764,0.972 -4.505,3.357 -5.995,5.223 L -6.664,2.376 C -6.699,2.227 -6.655,2.071 -6.549,1.969 -5.786,1.236 -3.922,0.006 0,0"
                     style="fill:#ffffff;fill-opacity:1;fill-rule:nonzero;stroke:none"
                     id="path2482" /></g><g
                   transform="translate(152.4834,265.6201)"
                   id="g2488"><path
                     d="m 0,0 c 0.659,-1.253 3.632,-5.979 10.878,-5.711 0.077,0.002 0.152,-0.004 0.225,-0.016 0.094,0.133 0.169,0.255 0.227,0.359 0.05,0.089 0.066,0.192 0.048,0.293 l -0.753,3.971 c -0.014,0 -0.027,-10e-4 -0.041,-10e-4 -4.447,0 -7.934,2.636 -9.8,4.438 z"
                     style="fill:#ffffff;fill-opacity:1;fill-rule:nonzero;stroke:none"
                     id="path2486" /></g><g
                   transform="translate(109.0371,124.2378)"
                   id="g2492"><path
                     d="m 0,0 v -6.649 h 2.366 c 4.621,0 4.621,6.649 0,6.649 z m 2.404,-17.281 c 2.367,0 4.658,1.503 4.658,5.372 0,1.991 -1.541,3.945 -4.696,3.945 H 0 v -3.269 c 0.112,-0.526 -0.188,-1.089 -0.714,-1.089 0,0.263 -0.188,0.376 -0.376,0.376 -0.601,0 -1.202,-0.827 -1.202,-1.766 0,-2.517 2.855,-3.569 4.696,-3.569 M -4.659,1.165 v 0.15 h 7.025 c 7.626,0 8.942,-6.349 3.983,-8.528 2.779,-0.939 4.17,-2.818 4.17,-4.733 0,-4.283 -4.321,-6.425 -8.153,-6.425 -3.155,0 -7.213,1.391 -7.213,5.26 0,1.014 0.489,1.991 1.39,2.517 V 0 Z"
                     style="fill:#ffffff;fill-opacity:1;fill-rule:nonzero;stroke:none"
                     id="path2490" /></g><g
                   transform="translate(131.5029,125.4023)"
                   id="g2496"><path
                     d="M 0,0 V 0.15 H 4.471 V 0 L 3.269,-1.165 v -10.594 c 0,-4.733 -3.57,-6.874 -7.026,-6.874 -3.23,0 -6.348,1.878 -6.348,5.297 0,0.901 0.3,1.728 0.864,2.366 v 9.805 L -10.443,0 v 0.15 h 5.86 V 0 l -1.202,-1.165 v -8.978 c 1.352,-0.526 1.127,-2.217 0.112,-2.254 0,0.3 -0.224,0.413 -0.413,0.413 -0.976,0 -1.577,-0.864 -1.577,-1.916 0,-2.142 2.103,-3.606 4.282,-3.606 2.254,0 4.621,1.615 4.583,5.747 v 10.594 z"
                     style="fill:#ffffff;fill-opacity:1;fill-rule:nonzero;stroke:none"
                     id="path2494" /></g><g
                   transform="translate(136.6143,125.4023)"
                   id="g2500"><path
                     d="m 0,0 v 0.15 h 14.538 l 0.639,-2.517 h -0.789 l -1.164,1.202 H 4.658 v -6.799 c 1.127,0.939 2.404,1.352 3.493,1.352 1.841,0 3.307,-1.127 3.307,-3.08 0,-1.24 -0.864,-1.879 -1.653,-1.879 -0.677,0 -1.315,0.451 -1.353,1.353 0.488,0 0.751,0.3 0.751,0.638 0,0.714 -0.488,1.24 -1.164,1.24 -1.352,0 -3.381,-2.141 -3.381,-8.978 l 1.202,-1.165 v -0.15 H 0 v 0.15 l 1.202,1.165 v 16.153 z"
                     style="fill:#ffffff;fill-opacity:1;fill-rule:nonzero;stroke:none"
                     id="path2498" /></g><g
                   transform="translate(152.1309,125.4023)"
                   id="g2504"><path
                     d="m 0,0 v 0.15 h 14.538 l 0.639,-2.517 h -0.789 l -1.164,1.202 H 4.658 v -6.799 c 1.127,0.939 2.404,1.352 3.493,1.352 1.841,0 3.307,-1.127 3.307,-3.08 0,-1.24 -0.864,-1.879 -1.653,-1.879 -0.677,0 -1.316,0.451 -1.353,1.353 0.488,0 0.751,0.3 0.751,0.638 0,0.714 -0.488,1.24 -1.164,1.24 -1.352,0 -3.381,-2.141 -3.381,-8.978 l 1.202,-1.165 v -0.15 H 0 v 0.15 l 1.202,1.165 v 16.153 z"
                     style="fill:#ffffff;fill-opacity:1;fill-rule:nonzero;stroke:none"
                     id="path2502" /></g><g
                   transform="translate(167.4219,125.4023)"
                   id="g2508"><path
                     d="M 0,0 V 0.15 H 5.86 V 0 L 4.658,-1.165 v -16.153 l 1.202,-1.165 v -0.15 H 0 v 0.15 l 1.202,1.165 v 16.153 z"
                     style="fill:#ffffff;fill-opacity:1;fill-rule:nonzero;stroke:none"
                     id="path2506" /></g><g
                   transform="translate(183.3135,106.769)"
                   id="g2512"><path
                     d="m 0,0 c -11.946,0 -11.946,19.084 0,19.084 7.513,0 6.875,-7.626 2.63,-7.626 -2.142,0 -2.029,2.141 -0.978,2.179 0,-0.263 0.189,-0.376 0.376,-0.376 1.766,0 1.992,4.47 -1.878,4.47 -7.513,0 -7.551,-16.416 0,-16.416 3.118,0 3.945,2.855 2.78,4.809 C 4.921,6.349 5.785,4.921 5.785,3.869 5.785,1.803 3.268,0 0,0"
                     style="fill:#ffffff;fill-opacity:1;fill-rule:nonzero;stroke:none"
                     id="path2510" /></g><g
                   transform="translate(198.792,107.8208)"
                   id="g2516"><path
                     d="M 0,0 C 6.123,0 6.123,16.717 0,16.717 -6.124,16.717 -6.124,0 0,0 m -0.038,-1.353 c -11.383,0 -11.383,19.46 0,19.46 11.308,0 11.308,-19.46 0,-19.46"
                     style="fill:#ffffff;fill-opacity:1;fill-rule:nonzero;stroke:none"
                     id="path2514" /></g><g
                   transform="translate(207.6602,125.4023)"
                   id="g2520"><path
                     d="m 0,0 v 0.15 h 7.024 c 11.196,0 9.881,-11.533 1.992,-11.533 -0.188,0 -0.375,0 -0.564,0.038 2.292,-2.405 3.607,-6.086 5.936,-6.086 0.976,0 1.39,0.451 1.653,1.127 0.451,-1.916 -0.602,-3.982 -2.855,-3.982 -4.47,0 -3.682,7.1 -6.575,9.391 -3.342,1.578 -1.991,6.612 1.202,6.612 2.142,0 2.03,-2.141 0.977,-2.179 0,0.263 -0.187,0.376 -0.375,0.376 -1.503,0 -2.142,-3.982 0.112,-3.982 3.72,0 5.222,8.903 -1.503,8.903 H 4.658 v -16.153 l 1.202,-1.165 v -0.15 H 0 v 0.15 l 1.202,1.165 v 16.153 z"
                     style="fill:#ffffff;fill-opacity:1;fill-rule:nonzero;stroke:none"
                     id="path2518" /></g><g
                   transform="translate(240.1201,124.2378)"
                   id="g2524"><path
                     d="m 0,0 v -17.469 h -2.066 l -9.843,14.388 v -13.073 l 1.202,-1.165 v -0.15 h -4.47 v 0.15 l 1.202,1.165 v 16.116 l -1.202,1.203 v 0.15 h 4.47 l 8.641,-12.623 V 0 l -1.203,1.165 v 0.15 h 4.471 v -0.15 z"
                     style="fill:#ffffff;fill-opacity:1;fill-rule:nonzero;stroke:none"
                     id="path2522" /></g><g
                   transform="translate(110.3486,144.7979)"
                   id="g2528"><path
                     d="m 0,0 0.011,-13.181 h 17.388 c 7.691,0 7.755,13.17 -0.01,13.17 z m 0,2.029 h 16.107 c 7.68,0 7.765,13.202 -0.01,13.202 L 0.011,15.242 Z m -4.187,-17.228 c 0.652,10.702 0.652,21.746 0,32.449 h 4.112 l 16.267,-0.011 c 10.351,0 12.327,-12.336 5.555,-15.979 8.149,-3.129 6.878,-16.459 -4.262,-16.459 L -0.246,-15.21 v 0.011 z"
                     style="fill:#ffffff;fill-opacity:1;fill-rule:nonzero;stroke:none"
                     id="path2526" /></g><g
                   transform="translate(171.1992,158.7583)"
                   id="g2532"><path
                     d="m 0,0 v -4.817 c -3.215,2.595 -7.444,2.809 -11.472,2.809 -0.779,0 -1.538,-0.011 -2.296,-0.011 l -9.239,0.011 h -2.723 v -10.425 h 12.977 c 5.447,0 7.968,0.747 8.908,2.798 v -7.615 c -0.886,1.848 -3.471,2.798 -8.908,2.798 H -25.73 v -12.7 l 11.578,0.011 c 7.915,0 13.308,0.769 15.808,2.788 L 0.374,-29.17 c -6.494,0 -11.429,0.01 -16.523,0.01 h -13.78 c 0.513,8.374 0.513,20.786 0,29.16 z"
                     style="fill:#ffffff;fill-opacity:1;fill-rule:nonzero;stroke:none"
                     id="path2530" /></g><g
                   transform="translate(189.7002,159.4419)"
                   id="g2536"><path
                     d="m 0,0 c 0.459,0.032 0.887,0.021 1.346,0.021 6.216,0 11.428,-1.709 15.103,-4.326 l -0.021,-4.956 c -4.391,5.106 -9.261,7.413 -15.232,7.413 -0.352,0 -0.694,0.011 -1.068,-0.022 -6.259,-0.288 -10.137,-2.905 -10.051,-5.575 0.128,-3.899 5.618,-5.672 11.344,-5.672 0.245,0 0.459,0 0.704,0.011 0.3,0.011 0.588,0.011 0.887,0.011 7.177,0 14.644,-2.147 15.028,-8.289 0.257,-4.294 -4.625,-8.812 -13.704,-9.154 -0.459,-0.021 -0.918,-0.032 -1.388,-0.032 -6.43,0 -13.245,1.688 -16.929,4.305 l 0.021,4.956 c 4.39,-5.074 10.927,-7.37 17.079,-7.37 0.373,0 0.726,-0.011 1.1,0.021 6.238,0.289 10.136,3.055 10.019,5.875 -0.171,4.315 -5.758,5.96 -12.134,5.96 -7.092,0 -15.52,1.837 -15.819,8.043 C -13.886,-4.657 -9.025,-0.342 0,0"
                     style="fill:#ffffff;fill-opacity:1;fill-rule:nonzero;stroke:none"
                     id="path2534" /></g><g
                   transform="translate(210.4004,158.7583)"
                   id="g2540"><path
                     d="m 0,0 h 37.149 v -4.817 c -2.98,2.104 -6.035,2.798 -12.252,2.798 h -4.411 l 0.011,-11.653 c -0.032,-5.49 0.182,-11.077 0.577,-15.488 h -4.817 c 0.374,3.963 0.513,9.507 0.459,15.52 l 0.011,11.621 H 12.251 C 6.035,-2.019 2.99,-2.724 0,-4.817 Z"
                     style="fill:#ffffff;fill-opacity:1;fill-rule:nonzero;stroke:none"
                     id="path2538" /></g></g></g></g></g></g></mask></defs><sodipodi:namedview
     id="namedview4"
     pagecolor="#ffffff"
     bordercolor="#666666"
     borderopacity="1.0"
     inkscape:pageshadow="2"
     inkscape:pageopacity="0.0"
     inkscape:pagecheckerboard="0"
     showgrid="false"
     inkscape:zoom="1.9221429"
     inkscape:cx="233.0732"
     inkscape:cy="232.29282"
     inkscape:window-width="1920"
     inkscape:window-height="1038"
     inkscape:window-x="3840"
     inkscape:window-y="42"
     inkscape:window-maximized="1"
     inkscape:current-layer="g8" /><g
     id="g8"
     inkscape:groupmode="layer"
     inkscape:label="medallas (6)"
     transform="matrix(1.3333333,0,0,-1.3333333,0,466.66667)"><g
       id="g18"><g
         id="g20"><path
           d="M 49.604,350 C 31.98,350 17.692,338.017 17.692,323.235 v 0 -190.03 C 17.692,60.339 88.773,0.721 175.65,0.721 v 0 c 86.877,0 157.958,59.618 157.958,132.484 v 0 190.03 c 0,14.782 -14.286,26.765 -31.911,26.765 v 0 z"
           style="fill:url(#linearGradient28);stroke:none"
           id="path30" /></g></g><g
       id="g40"
       style="mix-blend-mode:multiply"><g
         id="g42" /><g
         id="g54"><g
           clip-path="url(#clipPath46)"
           opacity="0.5"
           id="g52"><g
             transform="translate(60.9328,330.303)"
             id="g50"><path
               d="m 0,0 c -13.809,0 -25.043,-9.133 -25.043,-20.359 v -172.95 c 0,-64.28 62.696,-116.577 139.761,-116.577 77.063,0 139.76,52.297 139.76,116.577 v 172.95 C 254.478,-9.133 243.244,0 229.436,0 Z m 114.718,-317.886 c -81.476,0 -147.761,55.886 -147.761,124.577 v 172.95 C -33.043,-4.722 -18.22,8 0,8 h 229.436 c 18.219,0 33.042,-12.722 33.042,-28.359 v -172.95 c 0,-68.691 -66.286,-124.577 -147.76,-124.577"
               style="fill:#a37e5c;fill-opacity:1;fill-rule:nonzero;stroke:none"
               id="path48" /></g></g></g></g><g
       id="g56"
       style="mix-blend-mode:multiply"><g
         id="g58" /><g
         id="g70"><g
           clip-path="url(#clipPath62)"
           opacity="0.350006"
           id="g68"><g
             transform="translate(69.011,319.9588)"
             id="g66"><path
               d="m 0,0 c -13.148,0 -23.846,-8.744 -23.846,-19.492 v -160.771 c 0,-60.067 58.536,-108.934 130.486,-108.934 71.949,0 130.485,48.867 130.485,108.934 V -19.492 C 237.125,-8.744 226.428,0 213.279,0 Z m 106.64,-295.501 c -75.426,0 -136.789,51.696 -136.789,115.238 v 160.771 c 0,14.224 13.525,25.796 30.149,25.796 h 213.279 c 16.624,0 30.15,-11.572 30.15,-25.796 v -160.771 c 0,-63.542 -61.364,-115.238 -136.789,-115.238"
               style="fill:#a37e5c;fill-opacity:1;fill-rule:nonzero;stroke:none"
               id="path64" /></g></g></g></g><g
       id="g72"
       style="mix-blend-mode:multiply"><g
         id="g74" /><g
         id="g86"><g
           clip-path="url(#clipPath78)"
           opacity="0.350006"
           id="g84"><g
             transform="translate(268.8752,81.5149)"
             id="g82"><path
               d="m 0,0 c -0.722,0 -1.444,0.258 -2.02,0.783 -1.224,1.116 -1.312,3.013 -0.197,4.238 15.24,16.722 23.296,36.612 23.296,57.519 v 141.122 c 0,1.656 1.343,3 3,3 1.657,0 3,-1.344 3,-3 V 62.54 C 27.079,40.113 18.482,18.825 2.219,0.979 1.626,0.33 0.814,0 0,0"
               style="fill:#a37e5c;fill-opacity:1;fill-rule:nonzero;stroke:none"
               id="path80" /></g></g></g></g><g
       id="g88"
       style="mix-blend-mode:multiply"><g
         id="g90" /><g
         id="g102"><g
           clip-path="url(#clipPath94)"
           opacity="0.350006"
           id="g100"><g
             transform="translate(84.299,79.511)"
             id="g98"><path
               d="M 0,0 C -0.788,0 -1.574,0.309 -2.163,0.922 -19.438,18.904 -28.952,41.5 -28.952,64.544 v 141.122 c 0,1.656 1.343,3 3,3 1.657,0 3,-1.344 3,-3 V 64.544 c 0,-21.487 8.92,-42.606 25.115,-59.466 C 3.312,3.883 3.273,1.984 2.078,0.836 1.497,0.278 0.748,0 0,0"
               style="fill:#a37e5c;fill-opacity:1;fill-rule:nonzero;stroke:none"
               id="path96" /></g></g></g></g><g
       id="g114" /><g
       id="g348"
       mask="url(#mask2328)"><g
         id="g350" /><g
         id="g378"><g
           clip-path="url(#clipPath354)"
           id="g376"><g
             id="g374"><g
               id="g372"><g
                 id="g370"><g
                   id="g368"><path
                     d="M 267.83,53.946 H 72.013 v 261.8 H 267.83 Z"
                     style="fill:url(#linearGradient364);stroke:none"
                     id="path366" /></g></g></g></g></g></g></g><g
       id="g380"
       style="mix-blend-mode:multiply"><g
         id="g382" /><g
         id="g442"><g
           clip-path="url(#clipPath386)"
           id="g440"><g
             transform="translate(108.468,71.0564)"
             id="g390"><path
               d="M 0,0 -1.143,-1.397 C -1.459,0.118 -2.635,1.183 -3.803,2.138 -4.029,2.323 -4.251,2.5 -4.472,2.679 L -7.148,4.874 -7.937,5.52 -10.41,2.496 -6.646,-0.582 c 1.579,-1.291 2.488,-1.672 3.247,-1.3 l -1.807,-2.209 c 0.182,0.746 -0.343,1.635 -1.919,2.924 l -3.764,3.078 -3.011,-3.683 3.36,-2.743 c 2.295,-1.877 4.042,-2.933 5.245,-2.94 l -1.514,-1.093 c -1.883,1.54 -3.312,2.713 -4.79,3.922 l -3.995,3.267 c 2.134,2.307 5.077,5.906 6.915,8.456 z"
               style="fill:#a37e5c;fill-opacity:1;fill-rule:nonzero;stroke:none"
               id="path388" /></g><g
             transform="translate(109.0676,70.5242)"
             id="g394"><path
               d="m 0,0 11.729,-7.483 -0.971,-1.521 c -0.517,1.265 -1.342,2.099 -3.304,3.352 L 6.062,-4.764 3.717,-8.445 c -1.115,-1.727 -2.173,-3.534 -2.938,-5.006 l -1.52,0.971 c 0.916,1.175 2.077,2.897 3.271,4.807 l 2.344,3.667 -1.413,0.901 c -1.962,1.252 -3.065,1.643 -4.432,1.584 z"
               style="fill:#a37e5c;fill-opacity:1;fill-rule:nonzero;stroke:none"
               id="path392" /></g><g
             transform="translate(116.592,52.9407)"
             id="g398"><path
               d="M 0,0 C 1.611,2.711 3.514,6.961 4.707,9.873 L 6.338,9.095 C 5.648,7.937 4.905,6.538 4.177,5.056 l 8.856,-4.223 c 0.686,1.502 1.313,2.957 1.821,4.201 L 16.485,4.256 C 14.873,1.545 12.869,-2.657 11.778,-5.616 l -1.631,0.778 c 0.824,1.382 1.731,3.173 2.572,4.983 L 3.848,4.375 C 2.989,2.574 2.188,0.736 1.631,-0.778 Z"
               style="fill:#a37e5c;fill-opacity:1;fill-rule:nonzero;stroke:none"
               id="path396" /></g><g
             transform="translate(138.2512,44.7303)"
             id="g402"><path
               d="M 0,0 C 2.233,-0.745 3.716,1.282 4.45,3.536 5.188,5.751 5.209,8.193 2.975,8.938 l -1.516,0.505 -4.43,1.48 -2.983,-8.939 z M 3.247,9.641 C 5.918,8.75 6.759,5.979 5.846,3.087 4.953,0.257 2.541,-1.645 -0.209,-0.728 l -7.474,2.491 c 0.533,1.33 1.131,2.975 1.704,4.658 0.681,2.002 1.317,4.061 1.753,5.714 L 1.689,10.16 Z"
               style="fill:#a37e5c;fill-opacity:1;fill-rule:nonzero;stroke:none"
               id="path400" /></g><g
             transform="translate(157.4143,50.4397)"
             id="g406"><path
               d="m 0,0 -0.371,-1.762 c -0.976,1.198 -2.506,1.602 -3.979,1.913 -0.285,0.06 -0.563,0.115 -0.84,0.173 l -3.378,0.717 -0.996,0.21 -0.805,-3.813 4.746,-1.001 c 1.992,-0.42 2.972,-0.341 3.474,0.336 l -0.587,-2.785 c -0.182,0.744 -1.054,1.291 -3.042,1.711 l -4.746,1.001 -0.981,-4.644 4.235,-0.89 c 2.895,-0.61 4.927,-0.745 5.998,-0.2 l -0.841,-1.663 c -2.375,0.501 -4.179,0.886 -6.042,1.279 l -5.039,1.063 c 0.833,3.023 1.791,7.562 2.249,10.664 z"
               style="fill:#a37e5c;fill-opacity:1;fill-rule:nonzero;stroke:none"
               id="path404" /></g><g
             transform="translate(157.7229,39.3426)"
             id="g410"><path
               d="m 0,0 c 0.49,3.104 0.934,7.732 1.041,10.873 l 0.011,0.316 C 4.641,7.457 8.264,4.112 11.196,1.632 l 0.242,2.469 c 0.194,2.035 0.343,4.091 0.404,5.737 L 13.168,9.711 C 12.678,6.607 12.234,1.979 12.127,-1.162 L 12.119,-1.49 C 8.546,2.28 5.393,5.154 1.972,8.079 L 1.731,5.61 C 1.536,3.575 1.388,1.519 1.326,-0.127 Z"
               style="fill:#a37e5c;fill-opacity:1;fill-rule:nonzero;stroke:none"
               id="path408" /></g><g
             transform="translate(173.3049,49.0203)"
             id="g414"><path
               d="m 0,0 c 0.52,-0.896 1.205,-1.992 2.023,-3.231 l 3.95,-6.15 3.914,6.39 c 0.727,1.21 1.384,2.347 1.934,3.352 l 1.331,0.041 C 12.203,-1.004 11.1,-2.722 10.021,-4.464 l -4.222,-6.963 -3.697,5.773 c -1.33,1.984 -2.772,4.001 -4.005,5.596 z"
               style="fill:#a37e5c;fill-opacity:1;fill-rule:nonzero;stroke:none"
               id="path412" /></g><g
             transform="translate(198.135,51.2273)"
             id="g418"><path
               d="m 0,0 0.269,-1.782 c -1.334,0.781 -2.912,0.624 -4.402,0.4 -0.288,-0.044 -0.568,-0.09 -0.848,-0.132 l -3.419,-0.511 -1.008,-0.152 0.58,-3.857 4.802,0.723 c 2.015,0.304 2.907,0.721 3.14,1.532 l 0.424,-2.818 c -0.431,0.635 -1.44,0.842 -3.451,0.539 l -4.802,-0.723 0.707,-4.698 4.283,0.648 c 2.929,0.441 4.882,1.026 5.695,1.913 l -0.206,-1.854 c -2.404,-0.362 -4.23,-0.633 -6.115,-0.917 l -5.098,-0.768 c -0.277,3.127 -0.968,7.72 -1.624,10.79 z"
               style="fill:#a37e5c;fill-opacity:1;fill-rule:nonzero;stroke:none"
               id="path416" /></g><g
             transform="translate(202.2893,46.8748)"
             id="g422"><path
               d="M 0,0 5.822,1.565 C 8.602,2.312 7.471,6.611 4.664,5.856 L -1.15,4.298 Z m -0.03,-5.923 c -0.289,1.4 -0.697,3.099 -1.146,4.816 -0.536,2.042 -1.14,4.106 -1.687,5.723 l 7.367,1.976 c 4.54,1.22 6.17,-4.506 1.545,-5.749 L 5.365,0.66 C 5.907,0.541 6.385,0.288 6.89,-0.052 l 2.989,-2.004 c 0.606,-0.408 1.185,-0.715 1.583,-0.621 l 0.314,0.076 0.066,-0.136 -1.483,-0.398 C 9.903,-3.257 9.152,-3.141 8.251,-2.543 l -2.67,1.771 C 4.669,-0.169 3.784,0.23 2.595,-0.089 L 0.197,-0.733 c 0.473,-1.711 0.974,-3.39 1.425,-4.746 z"
               style="fill:#a37e5c;fill-opacity:1;fill-rule:nonzero;stroke:none"
               id="path420" /></g><g
             transform="translate(219.2668,47.5291)"
             id="g426"><path
               d="M 0,0 C 1.658,2.696 6.163,8.645 4.935,11.622 4.397,12.917 3.103,12.755 0.684,11.851 -0.28,11.435 -2.057,10.275 -2.568,9.701 l 0.16,-2.09 -0.613,-0.164 -0.727,2.4 c 0.862,0.782 2.2,1.957 4.143,2.795 3.163,1.191 5.087,1.188 5.976,-0.871 C 7.623,8.869 2.692,1.978 1.534,0.043 L 4.331,1.254 C 7.056,2.43 8.782,3.524 9.312,4.673 L 9.667,2.636 0.557,-1.291 Z"
               style="fill:#a37e5c;fill-opacity:1;fill-rule:nonzero;stroke:none"
               id="path424" /></g><g
             transform="translate(229.2024,57.2322)"
             id="g430"><path
               d="m 0,0 c 1.917,-3.356 3.895,-4.433 6.89,-2.738 2.992,1.693 3.094,3.946 1.2,7.32 C 6.176,7.94 4.191,9.013 1.199,7.32 -1.8,5.623 -1.889,3.377 0,0 M -1.434,-0.788 C -3.586,3.115 -2.422,6.236 0.793,8.055 4.008,9.873 7.282,9.264 9.519,5.409 11.672,1.506 10.507,-1.614 7.293,-3.433 4.078,-5.252 0.804,-4.643 -1.434,-0.788"
               style="fill:#a37e5c;fill-opacity:1;fill-rule:nonzero;stroke:none"
               id="path428" /></g><g
             transform="translate(242.2287,59.2078)"
             id="g434"><path
               d="M 0,0 C 1.06,2.983 4.224,9.74 2.401,12.396 1.605,13.55 0.373,13.122 -1.805,11.732 -2.66,11.125 -4.156,9.62 -4.536,8.952 L -3.943,6.941 -4.509,6.652 -5.72,8.848 c 0.68,0.945 1.743,2.373 3.468,3.598 2.845,1.825 4.729,2.223 6.027,0.395 C 5.604,10.265 2.221,2.496 1.491,0.362 L 3.975,2.13 C 6.394,3.849 7.854,5.279 8.132,6.513 L 8.904,4.595 0.813,-1.146 Z"
               style="fill:#a37e5c;fill-opacity:1;fill-rule:nonzero;stroke:none"
               id="path432" /></g><g
             transform="translate(251.8352,66.1272)"
             id="g438"><path
               d="m 0,0 c 0.764,3.07 3.252,10.098 1.181,12.561 -0.904,1.07 -2.088,0.523 -4.118,-1.07 C -3.729,10.804 -5.069,9.162 -5.382,8.46 L -4.597,6.519 -5.132,6.176 -6.549,8.242 c 0.584,1.005 1.502,2.529 3.098,3.915 2.651,2.092 4.485,2.672 5.955,0.98 C 4.574,10.753 1.966,2.699 1.448,0.505 l 2.297,2 C 5.984,4.45 7.297,6.015 7.453,7.269 L 8.408,5.437 0.922,-1.061 Z"
               style="fill:#a37e5c;fill-opacity:1;fill-rule:nonzero;stroke:none"
               id="path436" /></g></g></g></g><g
       id="g444"
       style="mix-blend-mode:multiply"><g
         id="g446" /><g
         id="g458"><g
           clip-path="url(#clipPath450)"
           id="g456"><g
             transform="translate(83.802,240.5843)"
             id="g454"><path
               d="M 0,0 4.279,-4.279 8.559,0 4.279,4.279 Z m 4.279,-6.693 c -0.256,0 -0.511,0.097 -0.707,0.293 l -5.693,5.693 c -0.391,0.391 -0.391,1.023 0,1.414 L 3.572,6.4 c 0.391,0.391 1.024,0.391 1.414,0 L 10.68,0.707 c 0.39,-0.391 0.39,-1.023 0,-1.414 L 4.986,-6.4 C 4.791,-6.596 4.535,-6.693 4.279,-6.693"
               style="fill:#a37e5c;fill-opacity:1;fill-rule:nonzero;stroke:none"
               id="path452" /></g></g></g></g><g
       id="g460"
       style="mix-blend-mode:multiply"><g
         id="g462" /><g
         id="g474"><g
           clip-path="url(#clipPath466)"
           id="g472"><g
             transform="translate(96.6682,215.8582)"
             id="g470"><path
               d="M 0,0 1.433,-1.433 2.865,0 1.433,1.433 Z m 1.433,-3.847 c -0.266,0 -0.52,0.105 -0.707,0.293 l -2.847,2.847 c -0.391,0.391 -0.391,1.023 0,1.414 l 2.847,2.847 c 0.39,0.39 1.023,0.39 1.414,0 L 4.986,0.707 c 0.391,-0.391 0.391,-1.023 0,-1.414 L 2.14,-3.554 C 1.952,-3.742 1.698,-3.847 1.433,-3.847"
               style="fill:#a37e5c;fill-opacity:1;fill-rule:nonzero;stroke:none"
               id="path468" /></g></g></g></g><g
       id="g476"
       style="mix-blend-mode:multiply"><g
         id="g478" /><g
         id="g490"><g
           clip-path="url(#clipPath482)"
           id="g488"><g
             transform="translate(243.258,236.2166)"
             id="g486"><path
               d="M 0,0 1.433,-1.433 2.865,0 1.433,1.433 Z m 1.433,-3.847 c -0.256,0 -0.512,0.098 -0.707,0.293 l -2.847,2.847 c -0.391,0.391 -0.391,1.023 0,1.414 l 2.847,2.847 c 0.39,0.39 1.023,0.39 1.414,0 L 4.986,0.707 c 0.391,-0.391 0.391,-1.023 0,-1.414 L 2.14,-3.554 C 1.944,-3.749 1.688,-3.847 1.433,-3.847"
               style="fill:#a37e5c;fill-opacity:1;fill-rule:nonzero;stroke:none"
               id="path484" /></g></g></g></g><g
       id="g492"
       style="mix-blend-mode:multiply"><g
         id="g494" /><g
         id="g506"><g
           clip-path="url(#clipPath498)"
           id="g504"><g
             transform="translate(252.1848,212.4153)"
             id="g502"><path
               d="m 0,0 3.025,-5.24 5.242,3.026 -3.027,5.24 z m 2.66,-7.606 c -0.346,0 -0.681,0.179 -0.867,0.5 l -4.025,6.972 c -0.277,0.479 -0.113,1.09 0.366,1.366 L 5.106,5.259 C 5.336,5.392 5.61,5.427 5.865,5.358 6.121,5.29 6.34,5.122 6.473,4.893 l 4.026,-6.974 c 0.133,-0.229 0.168,-0.502 0.1,-0.758 -0.069,-0.257 -0.237,-0.475 -0.466,-0.608 L 3.159,-7.473 C 3.002,-7.563 2.83,-7.606 2.66,-7.606"
               style="fill:#a37e5c;fill-opacity:1;fill-rule:nonzero;stroke:none"
               id="path500" /></g></g></g></g><g
       id="g508"
       style="mix-blend-mode:multiply"><g
         id="g510" /><g
         id="g530"><g
           clip-path="url(#clipPath514)"
           id="g528"><g
             transform="translate(188.1653,84.5198)"
             id="g518"><path
               d="M 0,0 6.886,-4.276 0,-8.56 c 0.5,1.332 0.794,2.775 0.794,4.284 C 0.794,-2.768 0.5,-1.332 0,0 m -22.775,0 c -0.501,-1.332 -0.795,-2.775 -0.795,-4.276 0,-1.509 0.287,-2.944 0.795,-4.276 l -6.886,4.276 z m 11.387,5.358 c 5.333,0 9.622,-4.298 9.622,-9.634 0,-5.336 -4.296,-9.627 -9.622,-9.627 -5.334,0 -9.63,4.298 -9.63,9.627 0,5.328 4.304,9.634 9.63,9.634 m 0,4.681 -1.192,-0.736 -4.715,-2.929 c -0.339,-0.191 -0.662,-0.39 -0.978,-0.611 l -16.148,-10.039 16.148,-10.032 c 0.323,-0.221 0.654,-0.427 1,-0.618 l 5.892,-3.658 5.797,3.606 c 0.015,0.007 0.029,0.022 0.045,0.03 0.36,0.198 0.713,0.419 1.052,0.655 L 11.652,-4.276 -4.495,5.755 c -0.323,0.222 -0.654,0.435 -1,0.626 z"
               style="fill:#a37e5c;fill-opacity:1;fill-rule:nonzero;stroke:none"
               id="path516" /></g><g
             transform="translate(202.1867,77.9695)"
             id="g522"><path
               d="m 0,0 c -0.743,-0.008 -1.553,-0.207 -2.369,-0.685 l -20.657,-12.828 0.206,-0.126 c 0.581,-0.338 1.346,-0.573 2.192,-0.559 0.743,0.008 1.553,0.206 2.369,0.685 l 4.061,2.524 16.589,10.312 -0.213,0.132 C 1.596,-0.221 0.846,0.007 0,0"
               style="fill:#a37e5c;fill-opacity:1;fill-rule:nonzero;stroke:none"
               id="path520" /></g><g
             transform="translate(171.9953,96.7229)"
             id="g526"><path
               d="M 0,0 C -0.743,-0.007 -1.552,-0.206 -2.368,-0.685 L -6.43,-3.209 -23.025,-13.521 c 1.074,-0.721 2.89,-1.089 4.766,0 L 2.398,-0.692 2.192,-0.567 C 1.611,-0.221 0.854,0.015 0,0"
               style="fill:#a37e5c;fill-opacity:1;fill-rule:nonzero;stroke:none"
               id="path524" /></g></g></g></g><g
       id="g532"
       style="mix-blend-mode:multiply"><g
         id="g534" /><g
         id="g546"><g
           clip-path="url(#clipPath538)"
           id="g544"><g
             transform="translate(105.302,274.5965)"
             id="g542"><path
               d="m 0,0 2.846,-2.762 3.888,0.779 c 0.801,0.16 1.438,-0.667 1.078,-1.4 l -1.748,-3.56 1.943,-3.458 c 0.4,-0.712 -0.191,-1.573 -0.998,-1.457 l -3.926,0.561 -2.688,-2.915 c -0.554,-0.601 -1.556,-0.306 -1.696,0.499 l -0.678,3.907 -3.604,1.656 c -0.742,0.34 -0.771,1.384 -0.049,1.766 l 3.506,1.853 0.461,3.939 C -1.569,0.219 -0.586,0.569 0,0"
               style="fill:#a37e5c;fill-opacity:1;fill-rule:nonzero;stroke:none"
               id="path540" /></g></g></g></g><g
       id="g548"
       style="mix-blend-mode:multiply"><g
         id="g550" /><g
         id="g562"><g
           clip-path="url(#clipPath554)"
           id="g560"><g
             transform="translate(243.4094,201.6878)"
             id="g558"><path
               d="m 0,0 0.248,-3.958 3.401,-2.04 C 4.35,-6.417 4.264,-7.458 3.505,-7.759 l -3.688,-1.458 -0.888,-3.865 c -0.184,-0.796 -1.2,-1.036 -1.72,-0.407 l -2.527,3.056 -3.951,-0.349 c -0.813,-0.072 -1.355,0.821 -0.918,1.51 l 2.126,3.347 -1.552,3.65 c -0.32,0.751 0.361,1.543 1.151,1.339 l 3.841,-0.987 2.991,2.604 C -1.015,1.218 -0.051,0.815 0,0"
               style="fill:#a37e5c;fill-opacity:1;fill-rule:nonzero;stroke:none"
               id="path556" /></g></g></g></g><g
       id="g564"
       style="mix-blend-mode:multiply"><g
         id="g566" /><g
         id="g630"><g
           clip-path="url(#clipPath570)"
           id="g628"><g
             transform="translate(62.1438,296.5398)"
             id="g574"><path
               d="m 0,0 c -1.523,4.002 -4.452,9.953 -6.574,13.955 h 2.397 c 1.166,-3.046 3.031,-7.125 4.866,-10.719 1.78,3.594 3.717,7.77 4.964,10.822 l 0.19,0.47 0.204,-0.573 C 7.212,10.883 9.14,6.666 10.984,3.057 c 1.795,3.614 3.733,7.826 5,10.898 h 1.595 C 15.452,9.948 12.641,4.008 11.005,0 L 10.561,-0.823 10.224,0 C 9.099,2.965 7.202,7.008 5.423,10.52 3.681,6.993 1.927,2.965 0.7,0 L 0.286,-0.771 Z"
               style="fill:#a37e5c;fill-opacity:1;fill-rule:nonzero;stroke:none"
               id="path572" /></g><g
             transform="translate(81.2424,296.5398)"
             id="g578"><path
               d="M 0,0 C 0.367,4.008 0.225,9.948 0,13.955 H 2.305 C 1.937,9.948 1.937,4.008 2.305,0 Z"
               style="fill:#a37e5c;fill-opacity:1;fill-rule:nonzero;stroke:none"
               id="path576" /></g><g
             transform="translate(85.3147,310.4949)"
             id="g582"><path
               d="m 0,0 h 23.975 v -2.305 c -1.427,1.007 -2.889,1.339 -5.864,1.339 H 15.97 l 0.005,-5.561 c -0.026,-2.878 0.041,-5.532 0.219,-7.428 h -2.305 c 0.189,2.111 0.292,4.785 0.276,7.412 l 0.005,5.577 H 9.805 L 9.81,-6.543 c -0.015,-2.627 0.086,-5.301 0.276,-7.412 H 7.78 c 0.179,1.896 0.245,4.55 0.22,7.428 l 0.006,5.561 H 5.863 C 2.889,-0.966 1.432,-1.303 0,-2.305 Z"
               style="fill:#a37e5c;fill-opacity:1;fill-rule:nonzero;stroke:none"
               id="path580" /></g><g
             transform="translate(118.7414,303.7835)"
             id="g586"><path
               d="m 0,0 c -0.016,-2.577 0.087,-5.173 0.276,-7.244 h -2.305 c 0.189,2.091 0.245,4.714 0.219,7.315 -2.264,2.372 -4.569,4.734 -6.492,6.64 h 2.669 c 1.416,-1.65 3.394,-3.685 5.301,-5.73 1.917,2.04 3.741,4.08 5.198,5.73 H 6.518 C 4.637,4.846 2.407,2.556 0.215,0.225 Z"
               style="fill:#a37e5c;fill-opacity:1;fill-rule:nonzero;stroke:none"
               id="path584" /></g><g
             transform="translate(134.6555,303.1956)"
             id="g590"><path
               d="m 0,0 0.006,-5.689 h 8.321 c 3.681,0 3.711,5.684 -0.005,5.684 z m 0,0.971 h 7.709 c 3.675,0 3.716,5.362 -0.005,5.362 L 0.006,6.338 Z m -2.003,6.328 h 1.968 L 7.75,7.294 c 4.953,0 5.894,-4.948 2.658,-6.691 3.895,-1.498 3.292,-7.259 -2.04,-7.259 l -8.485,-0.005 v 0.005 h -1.886 c 0.107,1.825 0.168,4.059 0.184,6.329 0.015,2.699 -0.046,5.449 -0.184,7.626"
               style="fill:#a37e5c;fill-opacity:1;fill-rule:nonzero;stroke:none"
               id="path588" /></g><g
             transform="translate(151.6291,310.4949)"
             id="g594"><path
               d="m 0,0 c -0.107,-1.825 -0.169,-4.054 -0.185,-6.323 l 0.006,-1.973 c -0.082,-3.246 2.658,-4.861 5.408,-4.882 2.776,0 5.562,1.61 5.48,4.882 l 0.005,1.973 C 10.698,-4.054 10.638,-1.825 10.53,0 h 2.188 C 12.61,-1.825 12.549,-4.054 12.534,-6.328 l -0.006,-2.014 c 0,-3.895 -3.639,-5.817 -7.284,-5.817 -3.634,0 -7.243,1.947 -7.243,5.817 l -0.005,2.014 C -2.02,-4.054 -2.08,-1.825 -2.188,0 Z"
               style="fill:#a37e5c;fill-opacity:1;fill-rule:nonzero;stroke:none"
               id="path592" /></g><g
             transform="translate(180.7424,310.4949)"
             id="g598"><path
               d="m 0,0 v -2.305 c -1.196,0.971 -2.325,1.339 -6.108,1.339 l -4.903,0.005 h -0.996 l -0.006,-4.989 h 5.909 c 2.608,0 3.814,0.358 4.264,1.339 v -3.644 c -0.425,0.884 -1.661,1.339 -4.264,1.339 l -5.909,-0.005 v -0.711 c 0.016,-2.264 0.077,-4.498 0.185,-6.323 h -2.188 c 0.108,1.825 0.168,4.059 0.184,6.329 0.016,2.698 -0.046,5.448 -0.184,7.626 z"
               style="fill:#a37e5c;fill-opacity:1;fill-rule:nonzero;stroke:none"
               id="path596" /></g><g
             transform="translate(196.6272,310.4949)"
             id="g602"><path
               d="m 0,0 v -2.305 c -1.196,0.971 -2.325,1.339 -6.108,1.339 l -4.903,0.005 h -0.996 l -0.006,-4.989 h 5.909 c 2.608,0 3.814,0.358 4.264,1.339 v -3.644 c -0.425,0.884 -1.661,1.339 -4.264,1.339 l -5.909,-0.005 v -0.711 c 0.016,-2.264 0.077,-4.498 0.185,-6.323 h -2.188 c 0.108,1.825 0.168,4.059 0.184,6.329 0.016,2.698 -0.046,5.448 -0.184,7.626 z"
               style="fill:#a37e5c;fill-opacity:1;fill-rule:nonzero;stroke:none"
               id="path600" /></g><g
             transform="translate(198.4963,296.5398)"
             id="g606"><path
               d="M 0,0 C 0.367,4.008 0.225,9.948 0,13.955 H 2.305 C 1.937,9.948 1.937,4.008 2.305,0 Z"
               style="fill:#a37e5c;fill-opacity:1;fill-rule:nonzero;stroke:none"
               id="path604" /></g><g
             transform="translate(212.8791,311.1595)"
             id="g610"><path
               d="m 0,0 c 2.919,0 5.685,-0.818 7.085,-2.326 v -2.331 c -1.513,2.428 -4.688,3.727 -7.739,3.727 -4.069,0 -7.58,-2.255 -7.58,-6.646 0,-4.406 3.537,-6.619 7.6,-6.619 3.052,0 6.2,1.303 7.719,3.721 v -2.331 c -1.4,-1.508 -4.166,-2.325 -7.095,-2.325 h -0.24 c -4.866,0.081 -10.061,2.387 -10.061,7.554 0,5.215 5.302,7.551 10.204,7.576 z"
               style="fill:#a37e5c;fill-opacity:1;fill-rule:nonzero;stroke:none"
               id="path608" /></g><g
             transform="translate(230.9367,310.1834)"
             id="g614"><path
               d="m 0,0 c -5.332,0 -7.611,-2.183 -7.637,-6.6 0.026,-4.416 2.305,-6.599 7.637,-6.599 5.321,0 7.621,2.183 7.637,6.599 C 7.621,-2.183 5.321,0 0,0 m 0.015,-14.119 c -5.72,0 -9.651,2.449 -9.733,7.54 0.082,5.091 4.013,7.54 9.733,7.54 5.72,0 9.651,-2.449 9.733,-7.54 -0.082,-5.091 -4.013,-7.54 -9.733,-7.54"
               style="fill:#a37e5c;fill-opacity:1;fill-rule:nonzero;stroke:none"
               id="path612" /></g><g
             transform="translate(244.5549,303.8445)"
             id="g618"><path
               d="M 0,0 H 7.709 C 11.39,0 11.42,5.685 7.704,5.685 L 0.006,5.689 Z m -2.003,-7.305 c 0.107,1.826 0.168,4.059 0.184,6.329 0.015,2.699 -0.046,5.449 -0.184,7.626 L 7.75,6.646 c 6.011,0 6.124,-7.612 0,-7.612 H 6.845 c 0.629,-0.327 1.134,-0.797 1.646,-1.385 l 3.027,-3.466 c 0.613,-0.705 1.226,-1.278 1.748,-1.293 l 0.414,-0.011 0.035,-0.189 h -1.963 c -0.603,0 -1.492,0.394 -2.407,1.432 L 6.636,-2.806 C 5.71,-1.758 4.749,-0.971 3.175,-0.971 H 0 c 0.016,-2.27 0.077,-4.508 0.185,-6.334 z"
               style="fill:#a37e5c;fill-opacity:1;fill-rule:nonzero;stroke:none"
               id="path616" /></g><g
             transform="translate(260.1643,296.5398)"
             id="g622"><path
               d="m 0,0 c 0.245,4.008 0.245,9.948 0,13.955 l -0.025,0.404 C 4.994,10.05 10.009,6.236 14.042,3.44 l 0.005,3.17 c 0,2.612 -0.062,5.244 -0.185,7.345 h 1.702 C 15.319,9.948 15.319,4.008 15.564,0 l 0.032,-0.419 C 10.591,3.941 6.23,7.213 1.523,10.515 L 1.518,7.346 C 1.518,4.734 1.579,2.101 1.702,0 Z"
               style="fill:#a37e5c;fill-opacity:1;fill-rule:nonzero;stroke:none"
               id="path620" /></g><g
             transform="translate(284.3186,310.8221)"
             id="g626"><path
               d="m 0,0 c 0.22,0.016 0.424,0.01 0.645,0.01 2.974,0 5.468,-0.818 7.227,-2.07 L 7.861,-4.432 c -2.1,2.444 -4.431,3.548 -7.289,3.548 -0.169,0 -0.332,0.005 -0.51,-0.011 -2.997,-0.138 -4.852,-1.39 -4.811,-2.668 0.062,-1.866 2.689,-2.714 5.429,-2.714 0.118,0 0.219,0 0.338,0.005 0.142,0.005 0.281,0.005 0.423,0.005 3.436,0 7.008,-1.027 7.193,-3.966 0.122,-2.056 -2.214,-4.218 -6.559,-4.381 -0.22,-0.011 -0.439,-0.015 -0.664,-0.015 -3.077,0 -6.339,0.807 -8.102,2.059 l 0.01,2.372 c 2.101,-2.428 5.229,-3.527 8.173,-3.527 0.18,0 0.348,-0.005 0.528,0.011 2.984,0.137 4.85,1.462 4.793,2.811 -0.081,2.065 -2.754,2.852 -5.806,2.852 -3.394,0 -7.427,0.88 -7.57,3.849 C -6.646,-2.229 -4.319,-0.164 0,0"
               style="fill:#a37e5c;fill-opacity:1;fill-rule:nonzero;stroke:none"
               id="path624" /></g></g></g></g><g
       id="g632"
       style="mix-blend-mode:multiply"><g
         id="g634" /><g
         id="g646"><g
           clip-path="url(#clipPath638)"
           opacity="0.350006"
           id="g644"><g
             transform="translate(95.2541,136.6629)"
             id="g642"><path
               d="m 0,0 h -18.049 c -0.828,0 -1.5,0.671 -1.5,1.5 0,0.829 0.672,1.5 1.5,1.5 H 0 C 0.828,3 1.5,2.329 1.5,1.5 1.5,0.671 0.828,0 0,0"
               style="fill:#a37e5c;fill-opacity:1;fill-rule:nonzero;stroke:none"
               id="path640" /></g></g></g></g><g
       id="g648"
       style="mix-blend-mode:multiply"><g
         id="g650" /><g
         id="g662"><g
           clip-path="url(#clipPath654)"
           opacity="0.350006"
           id="g660"><g
             transform="translate(95.2541,127.6575)"
             id="g658"><path
               d="m 0,0 h -18.049 c -0.828,0 -1.5,0.671 -1.5,1.5 0,0.829 0.672,1.5 1.5,1.5 H 0 C 0.828,3 1.5,2.329 1.5,1.5 1.5,0.671 0.828,0 0,0"
               style="fill:#a37e5c;fill-opacity:1;fill-rule:nonzero;stroke:none"
               id="path656" /></g></g></g></g><g
       id="g664"
       style="mix-blend-mode:multiply"><g
         id="g666" /><g
         id="g678"><g
           clip-path="url(#clipPath670)"
           opacity="0.350006"
           id="g676"><g
             transform="translate(271.3645,136.6629)"
             id="g674"><path
               d="m 0,0 h -18.049 c -0.828,0 -1.5,0.671 -1.5,1.5 0,0.829 0.672,1.5 1.5,1.5 H 0 C 0.828,3 1.5,2.329 1.5,1.5 1.5,0.671 0.828,0 0,0"
               style="fill:#a37e5c;fill-opacity:1;fill-rule:nonzero;stroke:none"
               id="path672" /></g></g></g></g><g
       id="g680"
       style="mix-blend-mode:multiply"><g
         id="g682" /><g
         id="g694"><g
           clip-path="url(#clipPath686)"
           opacity="0.350006"
           id="g692"><g
             transform="translate(271.3645,127.6575)"
             id="g690"><path
               d="m 0,0 h -18.049 c -0.828,0 -1.5,0.671 -1.5,1.5 0,0.829 0.672,1.5 1.5,1.5 H 0 C 0.828,3 1.5,2.329 1.5,1.5 1.5,0.671 0.828,0 0,0"
               style="fill:#a37e5c;fill-opacity:1;fill-rule:nonzero;stroke:none"
               id="path688" /></g></g></g></g></g></svg>
