<?xml version="1.0" encoding="UTF-8" standalone="no"?>
<!-- Created with Inkscape (http://www.inkscape.org/) -->

<svg
   version="1.1"
   id="svg2"
   xml:space="preserve"
   width="466.66666"
   height="466.66666"
   viewBox="0 0 466.66666 466.66666"
   sodipodi:docname="coat-bronze.svg"
   inkscape:version="1.1 (c4e8f9ed74, 2021-05-24)"
   xmlns:inkscape="http://www.inkscape.org/namespaces/inkscape"
   xmlns:sodipodi="http://sodipodi.sourceforge.net/DTD/sodipodi-0.dtd"
   xmlns="http://www.w3.org/2000/svg"
   xmlns:svg="http://www.w3.org/2000/svg"><defs
     id="defs6"><linearGradient
       x1="0"
       y1="0"
       x2="1"
       y2="0"
       gradientUnits="userSpaceOnUse"
       gradientTransform="matrix(306.53372,0,0,-306.53372,25.073257,175)"
       spreadMethod="pad"
       id="linearGradient28"><stop
         style="stop-opacity:1;stop-color:#bfa286"
         offset="0"
         id="stop22" /><stop
         style="stop-opacity:1;stop-color:#bfa286"
         offset="0.00289017"
         id="stop24" /><stop
         style="stop-opacity:1;stop-color:#986f4c"
         offset="1"
         id="stop26" /></linearGradient><clipPath
       clipPathUnits="userSpaceOnUse"
       id="clipPath38"><path
         d="M 0,350 H 350 V 0 H 0 Z"
         id="path36" /></clipPath><clipPath
       clipPathUnits="userSpaceOnUse"
       id="clipPath46"><path
         d="M 36.549,335.438 H 320.131 V 14.5622 H 36.549 Z"
         id="path44" /></clipPath><clipPath
       clipPathUnits="userSpaceOnUse"
       id="clipPath62"><path
         d="M 97.0343,95.7354 H 261.54 V 53.7673 H 97.0343 Z"
         id="path60" /></clipPath><clipPath
       clipPathUnits="userSpaceOnUse"
       id="clipPath126"><path
         d="m 55.1418,227.154 h 37.618 V 89.5085 h -37.618 z"
         id="path124" /></clipPath><clipPath
       clipPathUnits="userSpaceOnUse"
       id="clipPath142"><path
         d="m 264.899,224.864 h 36.508 V 90.657 h -36.508 z"
         id="path140" /></clipPath><clipPath
       clipPathUnits="userSpaceOnUse"
       id="clipPath158"><path
         d="M 43.7736,309.552 H 312.775 V 40.5515 H 43.7736 Z"
         id="path156" /></clipPath><clipPath
       clipPathUnits="userSpaceOnUse"
       id="clipPath174"><path
         d="M 70.8654,295.023 H 284.725 V 229.876 H 70.8654 Z"
         id="path172" /></clipPath><clipPath
       clipPathUnits="userSpaceOnUse"
       id="clipPath242"><path
         d="m 152.142,113.819 h 54.626 V 81.4474 h -54.626 z"
         id="path240" /></clipPath><linearGradient
       x1="0"
       y1="0"
       x2="1"
       y2="0"
       gradientUnits="userSpaceOnUse"
       gradientTransform="matrix(-100.78217,174.55984,174.55984,100.78217,229.38345,109.99604)"
       spreadMethod="pad"
       id="linearGradient276"><stop
         style="stop-opacity:1;stop-color:#f5c8a4"
         offset="0"
         id="stop272" /><stop
         style="stop-opacity:1;stop-color:#ffffff"
         offset="1"
         id="stop274" /></linearGradient></defs><sodipodi:namedview
     id="namedview4"
     pagecolor="#ffffff"
     bordercolor="#666666"
     borderopacity="1.0"
     inkscape:pageshadow="2"
     inkscape:pageopacity="0.0"
     inkscape:pagecheckerboard="0"
     showgrid="false"
     inkscape:zoom="1.9221429"
     inkscape:cx="233.0732"
     inkscape:cy="232.29282"
     inkscape:window-width="1920"
     inkscape:window-height="1038"
     inkscape:window-x="3840"
     inkscape:window-y="42"
     inkscape:window-maximized="1"
     inkscape:current-layer="g8" /><g
     id="g8"
     inkscape:groupmode="layer"
     inkscape:label="medallas (5)"
     transform="matrix(1.3333333,0,0,-1.3333333,0,466.66667)"><g
       id="g10"><g
         id="g12"><g
           id="g18"><g
             id="g20"><path
               d="M 169.487,346.866 33.926,268.6 c -5.478,-3.163 -8.853,-9.009 -8.853,-15.334 v 0 -156.532 c 0,-6.326 3.375,-12.171 8.853,-15.334 v 0 L 169.487,3.134 c 5.478,-3.163 12.228,-3.163 17.707,0 v 0 L 322.754,81.4 c 5.479,3.163 8.853,9.008 8.853,15.334 v 0 156.532 c 0,6.325 -3.374,12.171 -8.853,15.334 v 0 l -135.56,78.266 c -2.739,1.582 -5.797,2.372 -8.854,2.372 v 0 c -3.057,0 -6.114,-0.79 -8.853,-2.372"
               style="fill:url(#linearGradient28);stroke:none"
               id="path30" /></g></g></g></g><g
       id="g32"
       style="mix-blend-mode:multiply"><g
         id="g34"
         clip-path="url(#clipPath38)"><g
           id="g40"><g
             id="g42" /><g
             id="g54"><g
               clip-path="url(#clipPath46)"
               opacity="0.350006"
               id="g52"><g
                 transform="translate(178.34,328.4499)"
                 id="g50"><path
                   d="m 0,0 c -2.457,0 -4.913,-0.633 -7.104,-1.898 l -120.591,-69.623 c -4.383,-2.53 -7.106,-7.246 -7.106,-12.306 v -139.245 c 0,-5.061 2.723,-9.777 7.106,-12.307 l 120.591,-69.623 c 4.381,-2.532 9.828,-2.53 14.209,0 l 120.59,69.623 c 4.383,2.53 7.106,7.246 7.106,12.307 v 139.245 c 0,5.06 -2.723,9.776 -7.106,12.306 L 7.105,-1.898 C 4.914,-0.633 2.457,0 0,0 m 0,-313.888 c -3.666,0 -7.331,0.944 -10.601,2.831 l -120.59,69.623 c -6.538,3.777 -10.6,10.812 -10.6,18.362 v 139.245 c 0,7.55 4.062,14.585 10.6,18.361 l 120.59,69.622 c 6.539,3.776 14.663,3.776 21.203,0 l 120.589,-69.622 c 6.539,-3.776 10.6,-10.811 10.6,-18.361 v -139.245 c 0,-7.55 -4.061,-14.585 -10.6,-18.362 L 10.602,-311.057 C 7.332,-312.944 3.665,-313.888 0,-313.888"
                   style="fill:#a27f5c;fill-opacity:1;fill-rule:nonzero;stroke:none"
                   id="path48" /></g></g></g></g><g
           id="g56"><g
             id="g58" /><g
             id="g118"><g
               clip-path="url(#clipPath62)"
               id="g116"><g
                 transform="translate(112.3322,86.6247)"
                 id="g66"><path
                   d="m 0,0 -1.121,-1.369 c -0.31,1.486 -1.463,2.532 -2.608,3.47 -0.221,0.181 -0.439,0.354 -0.655,0.531 l -2.624,2.154 -0.774,0.635 -2.428,-2.964 3.689,-3.021 c 1.549,-1.269 2.44,-1.644 3.185,-1.28 l -1.773,-2.165 c 0.177,0.732 -0.335,1.605 -1.881,2.87 l -3.69,3.022 -2.957,-3.611 3.294,-2.692 c 2.25,-1.844 3.963,-2.881 5.144,-2.889 L -6.686,-8.38 c -1.846,1.513 -3.247,2.664 -4.695,3.851 l -3.917,3.209 c 2.096,2.26 4.986,5.789 6.79,8.289 z"
                   style="fill:#a27f5c;fill-opacity:1;fill-rule:nonzero;stroke:none"
                   id="path64" /></g><g
                 transform="translate(112.923,86.113)"
                 id="g70"><path
                   d="m 0,0 11.516,-7.323 -0.95,-1.493 C 10.058,-7.577 9.247,-6.76 7.32,-5.534 L 5.953,-4.664 3.658,-8.279 C 2.566,-9.975 1.531,-11.748 0.784,-13.194 l -1.493,0.95 c 0.896,1.154 2.033,2.846 3.202,4.721 l 2.294,3.6 -1.388,0.882 C 1.473,-1.815 0.39,-1.434 -0.95,-1.493 Z"
                   style="fill:#a27f5c;fill-opacity:1;fill-rule:nonzero;stroke:none"
                   id="path68" /></g><g
                 transform="translate(120.3576,68.8327)"
                 id="g74"><path
                   d="M 0,0 C 1.584,2.665 3.452,6.844 4.624,9.705 L 6.228,8.941 C 5.55,7.803 4.82,6.428 4.104,4.972 L 12.812,0.823 C 13.484,2.3 14.101,3.729 14.6,4.953 L 16.203,4.189 C 14.619,1.523 12.651,-2.607 11.58,-5.517 l -1.603,0.764 c 0.808,1.359 1.7,3.12 2.525,4.899 L 3.781,4.301 C 2.938,2.53 2.151,0.724 1.604,-0.765 Z"
                   style="fill:#a27f5c;fill-opacity:1;fill-rule:nonzero;stroke:none"
                   id="path72" /></g><g
                 transform="translate(141.6359,60.7419)"
                 id="g78"><path
                   d="M 0,0 C 2.189,-0.736 3.647,1.248 4.374,3.457 5.104,5.628 5.129,8.022 2.939,8.758 L 1.454,9.257 -2.886,10.72 -5.834,1.961 Z M 3.208,9.446 C 5.826,8.567 6.644,5.848 5.741,3.014 4.858,0.24 2.489,-1.62 -0.206,-0.714 l -7.323,2.461 c 0.524,1.303 1.116,2.915 1.682,4.565 0.672,1.961 1.301,3.98 1.733,5.599 L 1.682,9.96 Z"
                   style="fill:#a27f5c;fill-opacity:1;fill-rule:nonzero;stroke:none"
                   id="path76" /></g><g
                 transform="translate(160.5051,66.3972)"
                 id="g82"><path
                   d="m 0,0 -0.365,-1.734 c -0.961,1.177 -2.467,1.575 -3.917,1.88 -0.28,0.059 -0.554,0.112 -0.827,0.169 l -3.326,0.704 -0.98,0.207 -0.789,-3.753 4.672,-0.984 c 1.961,-0.412 2.925,-0.334 3.418,0.333 L -2.69,-5.919 c -0.18,0.732 -1.039,1.271 -2.996,1.682 l -4.671,0.982 -0.962,-4.571 4.169,-0.873 c 2.849,-0.6 4.849,-0.731 5.902,-0.194 l -0.826,-1.636 c -2.338,0.491 -4.113,0.869 -5.947,1.255 l -4.961,1.043 c 0.819,2.975 1.758,7.444 2.208,10.497 z"
                   style="fill:#a27f5c;fill-opacity:1;fill-rule:nonzero;stroke:none"
                   id="path80" /></g><g
                 transform="translate(160.7873,55.4792)"
                 id="g86"><path
                   d="m 0,0 c 0.475,3.045 0.9,7.584 1,10.664 l 0.01,0.311 C 4.537,7.321 8.096,4.048 10.978,1.623 l 0.23,2.421 c 0.188,1.996 0.329,4.013 0.386,5.627 L 12.895,9.549 C 12.42,6.504 11.994,1.965 11.895,-1.115 L 11.889,-1.437 C 8.376,2.253 5.278,5.065 1.918,7.926 L 1.687,5.504 C 1.5,3.508 1.358,1.492 1.301,-0.122 Z"
                   style="fill:#a27f5c;fill-opacity:1;fill-rule:nonzero;stroke:none"
                   id="path84" /></g><g
                 transform="translate(176.1379,64.9734)"
                 id="g90"><path
                   d="m 0,0 c 0.51,-0.879 1.184,-1.953 1.986,-3.168 l 3.878,-6.03 3.836,6.269 c 0.713,1.189 1.358,2.304 1.896,3.29 l 1.305,0.041 c -0.93,-1.38 -2.011,-3.066 -3.069,-4.775 l -4.137,-6.833 -3.631,5.661 c -1.304,1.945 -2.72,3.923 -3.93,5.487 z"
                   style="fill:#a27f5c;fill-opacity:1;fill-rule:nonzero;stroke:none"
                   id="path88" /></g><g
                 transform="translate(200.5314,67.2234)"
                 id="g94"><path
                   d="m 0,0 0.269,-1.755 c -1.316,0.767 -2.869,0.609 -4.335,0.384 -0.285,-0.043 -0.56,-0.089 -0.836,-0.132 l -3.367,-0.511 -0.992,-0.151 0.58,-3.798 4.728,0.723 c 1.984,0.303 2.861,0.717 3.09,1.516 l 0.424,-2.774 c -0.426,0.623 -1.42,0.825 -3.401,0.522 l -4.727,-0.722 0.707,-4.626 4.216,0.648 c 2.884,0.442 4.806,1.022 5.604,1.897 l -0.198,-1.826 c -2.366,-0.363 -4.164,-0.633 -6.02,-0.917 l -5.019,-0.768 c -0.281,3.079 -0.972,7.601 -1.625,10.622 z"
                   style="fill:#a27f5c;fill-opacity:1;fill-rule:nonzero;stroke:none"
                   id="path92" /></g><g
                 transform="translate(204.6144,62.9304)"
                 id="g98"><path
                   d="M 0,0 5.729,1.564 C 8.466,2.312 7.334,6.543 4.572,5.788 L -1.15,4.229 Z m -0.007,-5.837 c -0.29,1.379 -0.698,3.052 -1.147,4.741 -0.536,2.01 -1.141,4.041 -1.685,5.632 l 7.25,1.976 C 8.88,7.732 10.508,2.098 5.956,0.854 L 5.284,0.671 C 5.817,0.556 6.289,0.309 6.788,-0.024 l 2.953,-1.962 c 0.599,-0.4 1.171,-0.702 1.562,-0.607 l 0.31,0.076 0.065,-0.132 -1.459,-0.399 c -0.448,-0.123 -1.19,-0.011 -2.08,0.575 l -2.637,1.734 c -0.9,0.591 -1.774,0.98 -2.945,0.661 L 0.197,-0.723 C 0.67,-2.406 1.17,-4.058 1.62,-5.393 Z"
                   style="fill:#a27f5c;fill-opacity:1;fill-rule:nonzero;stroke:none"
                   id="path96" /></g><g
                 transform="translate(221.3273,63.572)"
                 id="g102"><path
                   d="M 0,0 C 1.624,2.642 6.032,8.471 4.828,11.386 4.301,12.654 3.032,12.495 0.663,11.607 -0.28,11.2 -2.02,10.063 -2.521,9.501 L -2.362,7.454 -2.963,7.292 -3.676,9.643 c 0.844,0.766 2.155,1.918 4.056,2.74 3.098,1.168 4.983,1.166 5.854,-0.851 C 7.463,8.691 2.637,1.938 1.504,0.043 L 4.242,1.23 c 2.669,1.154 4.36,2.226 4.877,3.352 L 9.468,2.588 0.547,-1.264 Z"
                   style="fill:#a27f5c;fill-opacity:1;fill-rule:nonzero;stroke:none"
                   id="path100" /></g><g
                 transform="translate(231.0754,73.1218)"
                 id="g106"><path
                   d="M 0,0 C 1.888,-3.298 3.833,-4.354 6.775,-2.686 9.715,-1.02 9.814,1.196 7.948,4.511 6.064,7.81 4.112,8.862 1.173,7.195 -1.773,5.525 -1.858,3.317 0,0 M -1.407,-0.776 C -3.527,3.059 -2.385,6.127 0.773,7.917 3.932,9.708 7.15,9.112 9.353,5.324 11.472,1.49 10.33,-1.578 7.172,-3.369 4.014,-5.159 0.794,-4.563 -1.407,-0.776"
                   style="fill:#a27f5c;fill-opacity:1;fill-rule:nonzero;stroke:none"
                   id="path104" /></g><g
                 transform="translate(243.8859,75.0866)"
                 id="g110"><path
                   d="M 0,0 C 1.034,2.936 4.128,9.587 2.329,12.193 1.544,13.326 0.333,12.901 -1.804,11.53 -2.644,10.931 -4.11,9.447 -4.482,8.789 L -3.895,6.814 -4.45,6.528 -5.646,8.684 c 0.666,0.93 1.708,2.337 3.4,3.546 2.793,1.801 4.642,2.199 5.925,0.405 C 5.484,10.106 2.178,2.46 1.466,0.359 L 3.902,2.104 C 6.276,3.801 7.709,5.21 7.979,6.425 L 8.743,4.541 0.804,-1.125 Z"
                   style="fill:#a27f5c;fill-opacity:1;fill-rule:nonzero;stroke:none"
                   id="path108" /></g><g
                 transform="translate(253.3,81.8777)"
                 id="g114"><path
                   d="M 0,0 C 0.744,3.013 3.176,9.91 1.141,12.323 0.253,13.373 -0.908,12.835 -2.897,11.269 -3.673,10.594 -4.986,8.98 -5.292,8.292 L -4.519,6.389 -5.043,6.052 -6.437,8.076 c 0.572,0.987 1.471,2.484 3.034,3.846 2.598,2.055 4.396,2.627 5.841,0.969 C 4.472,10.556 1.924,2.65 1.42,0.498 L 3.67,2.463 C 5.863,4.374 7.149,5.91 7.301,7.142 L 8.24,5.346 0.905,-1.039 Z"
                   style="fill:#a27f5c;fill-opacity:1;fill-rule:nonzero;stroke:none"
                   id="path112" /></g></g></g></g><g
           id="g120"><g
             id="g122" /><g
             id="g134"><g
               clip-path="url(#clipPath126)"
               opacity="0.350006"
               id="g132"><g
                 transform="translate(91.2863,89.5085)"
                 id="g130"><path
                   d="m 0,0 c -0.383,0 -0.765,0.148 -1.054,0.443 -7.986,8.167 -14.793,17.382 -20.228,27.39 -9.723,17.898 -14.863,38.194 -14.863,58.693 0,17.497 3.595,34.403 10.686,50.246 0.332,0.745 1.203,1.079 1.946,0.744 0.743,-0.332 1.076,-1.204 0.743,-1.947 -6.918,-15.463 -10.427,-31.964 -10.427,-49.043 0,-20.008 5.015,-39.818 14.505,-57.287 C -13.387,19.471 -6.743,10.476 1.054,2.504 1.622,1.922 1.612,0.989 1.03,0.42 0.743,0.14 0.372,0 0,0"
                   style="fill:#a27f5c;fill-opacity:1;fill-rule:nonzero;stroke:none"
                   id="path128" /></g></g></g></g><g
           id="g136"><g
             id="g138" /><g
             id="g150"><g
               clip-path="url(#clipPath142)"
               opacity="0.350006"
               id="g148"><g
                 transform="translate(266.3723,90.657)"
                 id="g146"><path
                   d="M 0,0 C -0.365,0 -0.731,0.135 -1.017,0.406 -1.605,0.968 -1.628,1.9 -1.067,2.49 7.25,11.22 14.184,21.1 19.542,31.854 c 8.325,16.71 12.546,34.718 12.546,53.524 0,16.226 -3.178,31.965 -9.444,46.781 -0.317,0.75 0.034,1.614 0.783,1.932 0.75,0.316 1.614,-0.034 1.931,-0.783 C 31.779,118.125 35.035,102 35.035,85.378 35.035,66.112 30.71,47.662 22.181,30.54 16.69,19.521 9.587,9.4 1.066,0.457 0.777,0.153 0.389,0 0,0"
                   style="fill:#a27f5c;fill-opacity:1;fill-rule:nonzero;stroke:none"
                   id="path144" /></g></g></g></g><g
           id="g152"><g
             id="g154" /><g
             id="g166"><g
               clip-path="url(#clipPath158)"
               opacity="0.350006"
               id="g164"><g
                 transform="translate(178.2746,303.6579)"
                 id="g162"><path
                   d="m 0,0 c -70.914,0 -128.606,-57.692 -128.606,-128.606 0,-70.914 57.692,-128.606 128.606,-128.606 70.913,0 128.605,57.692 128.605,128.606 C 128.605,-57.692 70.913,0 0,0 m 0,-263.106 c -74.164,0 -134.501,60.336 -134.501,134.5 0,74.164 60.337,134.501 134.501,134.501 74.163,0 134.5,-60.337 134.5,-134.501 0,-74.164 -60.337,-134.5 -134.5,-134.5"
                   style="fill:#a27f5c;fill-opacity:1;fill-rule:nonzero;stroke:none"
                   id="path160" /></g></g></g></g><g
           id="g168"><g
             id="g170" /><g
             id="g234"><g
               clip-path="url(#clipPath174)"
               id="g232"><g
                 transform="translate(85.5695,234.4861)"
                 id="g178"><path
                   d="m 0,0 c -3.993,1.325 -10.341,2.79 -14.704,3.66 l 1.488,1.825 C -10.173,4.48 -5.91,3.368 -2.035,2.534 -3.666,6.119 -5.642,10.187 -7.19,13.031 l -0.241,0.436 0.563,-0.199 c 3.062,-1.021 7.469,-2.172 11.361,-3.009 -1.637,3.61 -3.639,7.7 -5.191,10.572 l 0.99,1.214 C 2.022,17.938 4.798,12.11 6.833,8.377 L 7.184,7.527 6.348,7.781 C 3.393,8.767 -0.863,9.833 -4.641,10.659 -3.038,7.143 -1.061,3.308 0.435,0.532 l 0.33,-0.794 z"
                   style="fill:#a27f5c;fill-opacity:1;fill-rule:nonzero;stroke:none"
                   id="path176" /></g><g
                 transform="translate(97.799,248.3796)"
                 id="g182"><path
                   d="m 0,0 c -2.467,3.086 -6.61,7.19 -9.497,9.872 l 1.631,1.569 c 2.467,-3.086 6.51,-7.288 9.497,-9.873 z"
                   style="fill:#a27f5c;fill-opacity:1;fill-rule:nonzero;stroke:none"
                   id="path180" /></g><g
                 transform="translate(91.9582,262.4343)"
                 id="g186"><path
                   d="m 0,0 18.893,14.099 1.355,-1.818 C 18.532,12.236 17.185,11.639 14.84,9.889 L 13.152,8.63 16.427,4.25 C 18.1,1.967 19.712,-0.085 20.968,-1.475 L 19.151,-2.83 C 18.059,-1.055 16.567,1.112 15.01,3.174 L 11.734,7.571 8.294,5.004 11.578,0.612 c 1.532,-2.079 3.186,-4.126 4.576,-5.678 l -1.817,-1.356 c -0.974,1.6 -2.482,3.73 -4.194,5.983 L 6.876,3.946 5.188,2.687 C 2.844,0.937 1.895,-0.186 1.355,-1.816 Z"
                   style="fill:#a27f5c;fill-opacity:1;fill-rule:nonzero;stroke:none"
                   id="path184" /></g><g
                 transform="translate(124.0119,275.6687)"
                 id="g190"><path
                   d="M 0,0 C 1.133,-2.268 2.377,-4.501 3.464,-6.234 L 1.44,-7.26 c -0.763,1.919 -1.88,4.245 -3.06,6.518 -3.042,1.074 -6.115,2.122 -8.651,2.94 l 2.342,1.187 c 1.977,-0.82 4.618,-1.725 7.2,-2.671 0.776,2.642 1.47,5.244 2.014,7.341 L 2.734,8.789 C 1.914,6.314 0.977,3.313 0.089,0.293 Z"
                   style="fill:#a27f5c;fill-opacity:1;fill-rule:nonzero;stroke:none"
                   id="path188" /></g><g
                 transform="translate(139.4592,281.5427)"
                 id="g194"><path
                   d="m 0,0 1.567,-5.365 7.85,2.285 c 3.472,1.011 1.939,6.381 -1.565,5.36 z M -0.267,0.916 7.005,3.033 C 10.472,4.042 9.037,9.111 5.527,8.09 L -1.736,5.98 Z m -3.628,5.419 1.857,0.541 7.345,2.133 c 4.672,1.36 6.918,-3.049 4.344,-5.582 4.086,-0.343 5.099,-5.943 0.07,-7.406 L 1.718,-6.315 1.717,-6.311 -0.062,-6.828 c -0.4,1.751 -0.956,3.875 -1.565,6.019 -0.727,2.551 -1.54,5.128 -2.268,7.144"
                   style="fill:#a27f5c;fill-opacity:1;fill-rule:nonzero;stroke:none"
                   id="path192" /></g><g
                 transform="translate(155.2638,292.9743)"
                 id="g198"><path
                   d="m 0,0 c 0.141,-1.79 0.38,-3.968 0.67,-6.178 l 0.27,-1.92 c 0.357,-3.17 3.24,-4.373 5.918,-4.024 2.702,0.373 5.197,2.314 4.677,5.487 l -0.26,1.921 c -0.319,2.206 -0.678,4.367 -1.028,6.128 l 2.129,0.294 c 0.141,-1.79 0.38,-3.967 0.671,-6.183 l 0.266,-1.961 c 0.523,-3.79 -2.761,-6.149 -6.307,-6.638 -3.537,-0.489 -7.311,0.922 -7.83,4.687 l -0.277,1.959 c -0.32,2.212 -0.678,4.372 -1.028,6.134 z"
                   style="fill:#a27f5c;fill-opacity:1;fill-rule:nonzero;stroke:none"
                   id="path196" /></g><g
                 transform="translate(185.1535,295.0232)"
                 id="g202"><path
                   d="m 0,0 0.034,-2.264 c -1.189,0.936 -2.304,1.281 -6.018,1.225 l -4.815,-0.068 -0.979,-0.015 0.069,-4.9 5.804,0.088 c 2.56,0.038 3.739,0.409 4.167,1.379 l 0.054,-3.58 c -0.43,0.863 -1.652,1.291 -4.207,1.252 l -5.803,-0.094 0.01,-0.697 c 0.049,-2.223 0.143,-4.417 0.276,-6.207 l -2.149,-0.033 c 0.078,1.794 0.105,3.989 0.086,6.218 -0.025,2.651 -0.127,5.35 -0.295,7.487 z"
                   style="fill:#a27f5c;fill-opacity:1;fill-rule:nonzero;stroke:none"
                   id="path200" /></g><g
                 transform="translate(202.3605,292.8708)"
                 id="g206"><path
                   d="m 0,0 -0.296,-2.243 c -1.04,1.098 -2.092,1.601 -5.772,2.087 l -4.77,0.635 -0.971,0.127 -0.645,-4.854 5.751,-0.759 c 2.537,-0.334 3.757,-0.14 4.32,0.757 l -0.468,-3.547 c -0.299,0.915 -1.444,1.517 -3.976,1.851 l -5.751,0.753 -0.092,-0.692 c -0.275,-2.205 -0.502,-4.386 -0.632,-6.177 l -2.129,0.282 c 0.338,1.761 0.685,3.927 0.992,6.134 0.361,2.625 0.654,5.308 0.799,7.445 z"
                   style="fill:#a27f5c;fill-opacity:1;fill-rule:nonzero;stroke:none"
                   id="path204" /></g><g
                 transform="translate(202.1828,278.737)"
                 id="g210"><path
                   d="M 0,0 C 1.202,3.762 2.323,9.483 2.957,13.371 L 5.166,12.883 C 3.965,9.12 2.705,3.429 2.209,-0.489 Z"
                   style="fill:#a27f5c;fill-opacity:1;fill-rule:nonzero;stroke:none"
                   id="path208" /></g><g
                 transform="translate(220.0822,288.7048)"
                 id="g214"><path
                   d="m 0,0 c 2.727,-0.889 5.062,-2.494 5.911,-4.33 l -0.71,-2.178 c -0.674,2.73 -3.245,4.909 -6.096,5.838 -3.801,1.239 -7.769,0.202 -9.106,-3.9 -1.342,-4.118 1.289,-7.262 5.086,-8.499 2.852,-0.93 6.19,-0.67 8.346,1.127 l -0.71,-2.179 c -1.768,-0.983 -4.601,-0.904 -7.338,-0.013 l -0.224,0.073 c -4.522,1.559 -8.673,5.294 -7.099,10.123 1.587,4.872 7.252,5.44 11.839,3.971 z"
                   style="fill:#a27f5c;fill-opacity:1;fill-rule:nonzero;stroke:none"
                   id="path212" /></g><g
                 transform="translate(237.8009,279.987)"
                 id="g218"><path
                   d="m 0,0 c -4.631,2.435 -7.608,1.58 -9.647,-2.245 -1.996,-3.848 -1.012,-6.785 3.62,-9.22 4.622,-2.431 7.617,-1.585 9.647,2.244 C 5.624,-5.377 4.623,-2.431 0,0 m -6.435,-12.271 c -4.968,2.612 -7.264,6.534 -5.01,10.994 2.396,4.385 6.928,4.716 11.897,2.104 4.969,-2.612 7.266,-6.534 5.011,-10.994 -2.396,-4.386 -6.929,-4.717 -11.898,-2.104"
                   style="fill:#a27f5c;fill-opacity:1;fill-rule:nonzero;stroke:none"
                   id="path216" /></g><g
                 transform="translate(247.173,267.2741)"
                 id="g222"><path
                   d="m 0,0 6.052,-4.557 c 2.889,-2.174 6.273,2.27 3.356,4.466 L 3.367,4.463 Z m -5.89,-4.551 c 1.162,1.369 2.532,3.087 3.885,4.86 1.607,2.11 3.185,4.305 4.363,6.096 l 7.654,-5.768 c 4.719,-3.553 0.309,-9.595 -4.498,-5.976 l -0.711,0.535 c 0.301,-0.629 0.42,-1.297 0.473,-2.06 l 0.328,-4.51 c 0.064,-0.916 0.208,-1.729 0.608,-2.049 l 0.319,-0.252 -0.084,-0.17 -1.541,1.16 c -0.473,0.357 -0.939,1.192 -1.044,2.547 l -0.311,4.013 c -0.108,1.369 -0.397,2.556 -1.632,3.486 l -2.492,1.876 c -1.33,-1.791 -2.605,-3.585 -3.6,-5.081 z"
                   style="fill:#a27f5c;fill-opacity:1;fill-rule:nonzero;stroke:none"
                   id="path220" /></g><g
                 transform="translate(254.8039,252.3982)"
                 id="g226"><path
                   d="m 0,0 c 2.968,2.593 7.117,6.688 9.747,9.623 l 0.265,0.296 C 10.463,3.441 11.257,-2.69 12.085,-7.436 l 2.218,2.182 c 1.824,1.801 3.621,3.659 5.004,5.193 l 1.173,-1.188 c -2.968,-2.593 -7.118,-6.688 -9.748,-9.623 l -0.271,-0.311 C 10.056,-4.68 9.334,0.621 8.395,6.187 L 6.178,4.005 C 4.353,2.204 2.557,0.346 1.174,-1.188 Z"
                   style="fill:#a27f5c;fill-opacity:1;fill-rule:nonzero;stroke:none"
                   id="path224" /></g><g
                 transform="translate(281.7726,243.2966)"
                 id="g230"><path
                   d="M 0,0 C 0.14,-0.165 0.255,-0.329 0.383,-0.503 2.114,-2.856 2.919,-5.306 2.952,-7.426 L 1.07,-8.799 c 0.71,3.085 0.227,5.571 -1.436,7.831 -0.099,0.134 -0.19,0.267 -0.306,0.399 -1.853,2.289 -3.924,3.028 -4.911,2.252 -1.44,-1.135 -0.582,-3.707 1.013,-5.874 0.068,-0.093 0.128,-0.174 0.2,-0.264 0.088,-0.11 0.168,-0.22 0.251,-0.333 2,-2.717 3.266,-6.142 1.049,-7.998 -1.554,-1.293 -4.624,-0.704 -7.283,2.638 -0.136,0.168 -0.268,0.338 -0.399,0.516 -1.791,2.435 -3.051,5.485 -3.087,7.609 l 1.883,1.373 c -0.698,-3.077 0.254,-6.191 1.968,-8.52 0.103,-0.142 0.198,-0.277 0.314,-0.41 1.847,-2.281 3.981,-2.986 5.015,-2.156 1.586,1.266 0.652,3.84 -1.124,6.254 -1.976,2.684 -3.628,6.386 -1.362,8.228 C -5.632,3.96 -2.644,3.322 0,0"
                   style="fill:#a27f5c;fill-opacity:1;fill-rule:nonzero;stroke:none"
                   id="path228" /></g></g></g></g><g
           id="g236"><g
             id="g238" /><g
             id="g258"><g
               clip-path="url(#clipPath242)"
               id="g256"><g
                 transform="translate(190.6457,101.8298)"
                 id="g246"><path
                   d="M 0,0 6.764,-4.2 0,-8.408 C 0.491,-7.1 0.78,-5.683 0.78,-4.2 0.78,-2.718 0.491,-1.309 0,0 m -22.374,0 c -0.491,-1.309 -0.78,-2.726 -0.78,-4.2 0,-1.483 0.282,-2.893 0.78,-4.201 l -6.764,4.201 z m 11.187,5.264 c 5.24,0 9.453,-4.222 9.453,-9.464 0,-5.242 -4.221,-9.457 -9.453,-9.457 -5.239,0 -9.459,4.221 -9.459,9.457 0,5.234 4.227,9.464 9.459,9.464 m 0,4.598 -1.17,-0.722 -4.633,-2.878 c -0.332,-0.188 -0.651,-0.383 -0.961,-0.6 l -15.862,-9.862 15.862,-9.856 c 0.318,-0.216 0.643,-0.419 0.983,-0.606 l 5.788,-3.594 5.695,3.543 c 0.014,0.007 0.029,0.022 0.044,0.028 0.353,0.196 0.701,0.413 1.033,0.644 L 11.447,-4.2 -4.416,5.654 c -0.317,0.217 -0.643,0.427 -0.982,0.615 z"
                   style="fill:#a27f5c;fill-opacity:1;fill-rule:nonzero;stroke:none"
                   id="path244" /></g><g
                 transform="translate(204.4201,95.3952)"
                 id="g250"><path
                   d="m 0,0 c -0.73,-0.007 -1.525,-0.202 -2.327,-0.673 l -20.293,-12.601 0.202,-0.123 c 0.571,-0.333 1.323,-0.565 2.154,-0.55 0.73,0.008 1.525,0.202 2.327,0.673 l 3.989,2.479 16.297,10.13 -0.21,0.13 C 1.567,-0.217 0.831,0.007 0,0"
                   style="fill:#a27f5c;fill-opacity:1;fill-rule:nonzero;stroke:none"
                   id="path248" /></g><g
                 transform="translate(174.7619,113.8181)"
                 id="g254"><path
                   d="m 0,0 c -0.73,-0.008 -1.525,-0.202 -2.327,-0.673 l -3.989,-2.479 -16.304,-10.13 c 1.056,-0.708 2.84,-1.071 4.683,0 L 2.355,-0.68 2.153,-0.557 C 1.582,-0.217 0.838,0.015 0,0"
                   style="fill:#a27f5c;fill-opacity:1;fill-rule:nonzero;stroke:none"
                   id="path252" /></g></g></g></g></g></g><g
       id="g260"><g
         id="g262"><g
           id="g268"><g
             id="g270"><path
               d="M 163.389,240.5 C 151.051,220.76 124.614,219.351 122.5,184.454 v 0 c -2.389,-39.42 40.889,-53.226 40.889,-53.226 v 0 c 2.556,-0.882 5.064,-1.502 7.47,-1.923 v 0 c 10.133,-1.776 20.574,-0.057 29.963,4.148 v 0 c 56.708,25.405 31.453,73.186 20.765,89.269 v 0 c -1.464,2.203 -4.787,1.721 -5.621,-0.79 v 0 c -3.082,-9.276 -7.295,-13.449 -10.91,-15.262 v 0 c -2.732,-1.37 -5.643,1.669 -4.176,4.351 v 0 c 17.452,31.899 -6.825,52.038 -15.989,55.564 v 0 c -0.91,0.35 -1.768,0.514 -2.582,0.514 v 0 c -7.667,0.001 -11.44,-14.631 -18.92,-26.599 m 0.137,-102.963 c -7.492,4.243 -15.184,11.674 -12.886,23.856 v 0 c 4.226,22.393 24.929,19.858 25.351,30.844 v 0 c 0.392,10.184 49.482,-30.43 13.859,-54.947 v 0 c -3.341,-2.3 -7.688,-3.324 -12.137,-3.324 v 0 c -0.001,0 -0.004,0 -0.005,0 v 0 c -5.031,0 -10.191,1.311 -14.182,3.571"
               style="fill:url(#linearGradient276);stroke:none"
               id="path278" /></g></g></g></g></g></svg>
