<svg width="256" height="256" version="1.1" viewBox="0 0 67.73 67.73" xmlns="http://www.w3.org/2000/svg"><g transform="matrix(2.765 0 0 2.765 -100.2 -79.55)" stroke-width=".3617"><path d="m60.72 41.02c0 6.765-5.485 12.25-12.25 12.25-6.765 0-12.25-5.483-12.25-12.25 0-6.763 5.483-12.25 12.25-12.25 6.763 0 12.25 5.485 12.25 12.25" fill="#bd2635"/><path d="m59.34 41.02c0 6.001-4.866 10.87-10.87 10.87-6.001 0-10.87-4.864-10.87-10.87 0-6 4.864-10.87 10.87-10.87 6 0 10.87 4.866 10.87 10.87" fill="#731123"/><path d="m57.33 39.27.2177.2742c.03721.04685.08682.08131.1433.102l.3321.113c.2343.07993.288.3872.0937.5416l-.2742.2177c-.04685.03721-.08268.08819-.102.1447l-.113.3307c-.07992.2343-.3886.288-.5416.09371l-.2191-.2742c-.0372-.04685-.08682-.0813-.1433-.1006l-.3307-.1144c-.2356-.07993-.288-.3872-.09508-.5416l.2742-.2177c.04823-.03721.08268-.08819.102-.1447l.1144-.3307c.07993-.2343.3872-.288.5416-.09371" fill="#540c1e"/><path d="m45.92 32.94.01517.4465c.0028.07717.02755.1516.07028.2136l.2536.3679c.1791.2604 0 .616-.3156.627l-.4465.01379c-.07717.0041-.1516.02755-.2136.07166l-.3679.2522c-.2604.1805-.616 0-.627-.3156l-.01517-.4465c-.0028-.07579-.02618-.1502-.07028-.2136l-.2536-.3679c-.1791-.2591 0-.616.317-.6256l.4465-.01517c.07579-.0028.1502-.02755.2136-.07028l.3679-.2536c.2591-.1791.616 0 .6256.3156" fill="#540c1e"/><g fill="#bd2635"><path d="m55.46 36.02-.3225.1764c-.05512.0303-.1006.07579-.1309.1309l-.1764.3225c-.1254.2288-.4534.2288-.5788 0l-.1764-.3225c-.0303-.05512-.07579-.1006-.1309-.1309l-.3225-.1764c-.2288-.1254-.2288-.4534 0-.5788l.3225-.1764c.05512-.0303.1006-.0758.1309-.1309l.1764-.3225c.1254-.2288.4534-.2288.5788 0l.1764.3225c.0303.05512.0758.1006.1309.1309l.3225.1764c.2288.1254.2288.4534 0 .5788"/><path d="m40.88 39.54-.2301.02618c-.03996.0055-.07855.02067-.1089.04547l-.1805.1475c-.1282.1034-.3197.0248-.339-.1392l-.02618-.2315c-.0041-.03858-.0193-.07579-.04547-.1075l-.1461-.1805c-.1033-.1282-.02618-.3197.1378-.339l.2315-.02618c.03996-.0041.07717-.0193.1089-.04548l.1805-.1461c.1282-.1034.3197-.02618.3376.1378l.02618.2315c.0055.03996.02067.07717.04548.1089l.1475.1805c.1034.1268.0248.3197-.1392.3376"/><path d="m42.94 36.63c0 .2508-.2039.4548-.4548.4548-.2508 0-.4548-.204-.4548-.4548 0-.2508.2039-.4548.4548-.4548.2508 0 .4548.204.4548.4548"/><path d="m57.66 44.35c0 .2508-.2039.4548-.4548.4548s-.4534-.204-.4534-.4548c0-.2508.2026-.4548.4534-.4548s.4548.204.4548.4548"/></g><path d="m53 33.33c0 .2508-.2039.4548-.4548.4548s-.4534-.2039-.4534-.4548c0-.2508.2026-.4548.4534-.4548s.4548.2039.4548.4548" fill="#bf6123"/><path d="m40.41 42.46c0 .2508-.2039.4548-.4548.4548s-.4548-.204-.4548-.4548c0-.2508.2039-.4534.4548-.4534s.4548.2026.4548.4534" fill="#540c1e"/><path d="m46.45 49.77s-5.438-1.735-5.137-6.688c.266-4.385 3.587-4.561 5.137-7.042 1.039-1.663 1.509-3.736 2.701-3.277 1.152.4424 4.202 2.974 2.009 6.981-.1847.3362.1819.7193.525.5471.4534-.2288.9825-.7524 1.371-1.918.1047-.3156.5223-.3762.7056-.09922 1.344 2.02 4.516 8.024-2.609 11.22-1.18.5278-2.491.7441-3.765.5209-.3018-.05236-.6174-.1309-.9384-.2412" fill="#fff"/><path d="m49.78 49.01c-.8943.616-2.362.5044-3.307-.0303-.9412-.5333-1.907-1.468-1.618-2.997.5305-2.814 3.131-2.496 3.185-3.875.04961-1.28 6.218 3.823 1.74 6.903" fill="#731123"/></g></svg>
