<svg width="50" height="22" viewBox="0 0 50 22" fill="none" xmlns="http://www.w3.org/2000/svg">
<path d="M24.6377 11.4052C25.3966 11.2906 26.3997 11.1439 26.9726 14.0223C27.3471 15.9039 28.7774 15.7754 29.6168 16.9711C31.3138 19.3887 34.8067 21.0279 37.9828 21.0279C43.0647 21.0279 47.1842 16.9083 47.1842 11.8265L47.2615 8.2092L48.6564 8.24608V5.20793C48.6564 5.20793 34.7205 -6.70147 26.9556 9.12492H24.7611H24.4214H22.2269C14.4619 -6.70147 0.526039 5.20793 0.526039 5.20793V8.24608L1.92097 8.2092L1.99826 11.8265C1.99826 16.9083 6.11783 21.0279 11.1997 21.0279C14.3757 21.0279 17.9122 19.4187 19.5657 16.9711" fill="#FFE8FF"/>
<path d="M24.6377 11.4052C25.3966 11.2906 26.3997 11.1439 26.9726 14.0223C27.3471 15.9039 28.7774 15.7754 29.6168 16.9711C31.3138 19.3887 34.8067 21.0279 37.9828 21.0279C43.0647 21.0279 47.1842 16.9083 47.1842 11.8265L47.2615 8.2092L48.6564 8.24608V5.20793C48.6564 5.20793 34.7205 -6.70147 26.9556 9.12492H24.7611H24.4214H22.2269C14.4619 -6.70147 0.526039 5.20793 0.526039 5.20793V8.24608L1.92097 8.2092L1.99826 11.8265C1.99826 16.9083 6.11783 21.0279 11.1997 21.0279C14.3757 21.0279 17.9122 19.4187 19.5657 16.9711" stroke="#FFE8FF" stroke-miterlimit="10"/>
<path d="M24.6377 11.4053C25.3966 11.2906 26.3997 11.1439 26.9726 14.0223C27.3471 15.9039 28.7774 15.7754 29.6168 16.9711C31.3138 19.3887 34.8067 21.0279 37.9828 21.0279" fill="#FFE8FF"/>
<path d="M24.6377 11.4053C25.3966 11.2906 26.3997 11.1439 26.9726 14.0223C27.3471 15.9039 28.7774 15.7754 29.6168 16.9711C31.3138 19.3887 34.8067 21.0279 37.9828 21.0279" stroke="#FFE8FF" stroke-miterlimit="10"/>
<path d="M11.4415 20.7909C14.6176 20.7909 18.1106 19.1517 19.8076 16.7341C20.6469 15.5383 21.4836 15.7201 22.5133 14.0468C22.7272 13.6992 19.84 10.4379 24.7867 11.1682" fill="#FFE8FF"/>
<path d="M11.4415 20.7909C14.6176 20.7909 18.1106 19.1517 19.8076 16.7341C20.6469 15.5383 21.4836 15.7201 22.5133 14.0468C22.7272 13.6992 19.84 10.4379 24.7867 11.1682" stroke="#FFE8FF" stroke-miterlimit="10"/>
<path d="M19.5658 16.9711C17.9122 19.4187 14.3758 21.0279 11.1997 21.0279C6.11791 21.0279 1.99833 16.9083 1.99833 11.8265L1.92104 8.2092L0.526112 8.24608V5.20793C0.526112 5.20793 14.462 -6.70147 22.227 9.12492H24.4215H24.7612H26.9557C34.7206 -6.70147 48.6565 5.20793 48.6565 5.20793V8.24608L47.2616 8.2092L47.1843 11.8265C47.1843 16.9083 43.0647 21.0279 37.9829 21.0279C34.8068 21.0279 31.2704 19.4187 29.6169 16.9711" stroke="#FFE8FF" stroke-miterlimit="10" stroke-linecap="round" stroke-linejoin="round"/>
<path d="M22.5559 14.0224C22.5559 12.8027 23.5446 11.814 24.7643 11.814C25.9839 11.814 26.9726 12.8027 26.9726 14.0224" stroke="#FFE8FF" stroke-miterlimit="10" stroke-linecap="round" stroke-linejoin="round"/>
<path d="M11.5182 18.0204C15.4128 18.0204 18.57 14.8632 18.57 10.9686C18.57 7.07401 15.4128 3.91681 11.5182 3.91681C7.62364 3.91681 4.46644 7.07401 4.46644 10.9686C4.46644 14.8632 7.62364 18.0204 11.5182 18.0204Z" stroke="#FFE8FF" stroke-miterlimit="10" stroke-linecap="round" stroke-linejoin="round"/>
<path d="M37.6643 18.0204C41.5589 18.0204 44.7161 14.8632 44.7161 10.9686C44.7161 7.07401 41.5589 3.91681 37.6643 3.91681C33.7697 3.91681 30.6125 7.07401 30.6125 10.9686C30.6125 14.8632 33.7697 18.0204 37.6643 18.0204Z" stroke="#FFE8FF" stroke-miterlimit="10" stroke-linecap="round" stroke-linejoin="round"/>
</svg>
