<svg width="50" height="22" fill="none" xmlns="http://www.w3.org/2000/svg"><path d="M24.638 11.405c.759-.114 1.762-.261 2.335 2.617.374 1.882 1.804 1.753 2.644 2.95 1.697 2.417 5.19 4.056 8.366 4.056a9.201 9.201 0 0 0 9.201-9.201l.078-3.618 1.394.037V5.208s-13.935-11.91-21.7 3.917H22.227C14.462-6.701.526 5.208.526 5.208v3.038l1.395-.037.077 3.617a9.201 9.201 0 0 0 9.202 9.202c3.176 0 6.712-1.61 8.366-4.057" fill="#FFE8FF"/><path d="M24.638 11.405c.759-.114 1.762-.261 2.335 2.617.374 1.882 1.804 1.753 2.644 2.95 1.697 2.417 5.19 4.056 8.366 4.056a9.201 9.201 0 0 0 9.201-9.201l.078-3.618 1.394.037V5.208s-13.935-11.91-21.7 3.917H22.227C14.462-6.701.526 5.208.526 5.208v3.038l1.395-.037.077 3.617a9.201 9.201 0 0 0 9.202 9.202c3.176 0 6.712-1.61 8.366-4.057" stroke="#FFE8FF" stroke-miterlimit="10"/><path d="M24.638 11.405c.759-.114 1.762-.261 2.335 2.617.374 1.882 1.804 1.753 2.644 2.95 1.697 2.417 5.19 4.056 8.366 4.056" fill="#FFE8FF"/><path d="M24.638 11.405c.759-.114 1.762-.261 2.335 2.617.374 1.882 1.804 1.753 2.644 2.95 1.697 2.417 5.19 4.056 8.366 4.056" stroke="#FFE8FF" stroke-miterlimit="10"/><path d="M11.441 20.79c3.177 0 6.67-1.638 8.367-4.056.839-1.196 1.676-1.014 2.705-2.687.214-.348-2.673-3.61 2.274-2.879" fill="#FFE8FF"/><path d="M11.441 20.79c3.177 0 6.67-1.638 8.367-4.056.839-1.196 1.676-1.014 2.705-2.687.214-.348-2.673-3.61 2.274-2.879" stroke="#FFE8FF" stroke-miterlimit="10"/><path d="M19.566 16.971c-1.654 2.448-5.19 4.057-8.366 4.057a9.201 9.201 0 0 1-9.202-9.201l-.077-3.618-1.395.037V5.208s13.936-11.91 21.701 3.917H26.956c7.765-15.826 21.7-3.917 21.7-3.917v3.038l-1.394-.037-.078 3.617a9.201 9.201 0 0 1-9.201 9.202c-3.176 0-6.713-1.61-8.366-4.057" stroke="#FFE8FF" stroke-miterlimit="10" stroke-linecap="round" stroke-linejoin="round"/><path d="M22.556 14.022a2.208 2.208 0 1 1 4.417 0M11.518 18.02a7.052 7.052 0 1 0 0-14.103 7.052 7.052 0 0 0 0 14.103ZM37.664 18.02a7.052 7.052 0 1 0 0-14.103 7.052 7.052 0 0 0 0 14.103Z" stroke="#FFE8FF" stroke-miterlimit="10" stroke-linecap="round" stroke-linejoin="round"/></svg>