<svg width="256" height="256" version="1.1" viewBox="0 0 67.73 67.73" xmlns="http://www.w3.org/2000/svg">
<g transform="matrix(2.764 0 0 2.764 -148.7 -68.88)" stroke-width=".3617">
<path d="m62.07 25.58c6.401-2.188 13.36 1.226 15.55 7.627 2.188 6.401-1.225 13.36-7.626 15.55-6.401 2.188-13.36-1.226-15.55-7.626-2.188-6.401 1.225-13.36 7.626-15.55" fill="#3fa33a"/>
<path d="m57.4 40.68 1.535-2.252c.4244-.6243.3969-1.451-.07028-2.045l-1.683-2.143c-.9302-1.184-.01101-2.909 1.491-2.797l2.717.2026c.7524.0565 1.455-.3817 1.736-1.083l1.014-2.53c.5609-1.397 2.515-1.463 3.168-.1061l1.184 2.454c.328.6794 1.058 1.069 1.805.9632l2.698-.3872c1.491-.2136 2.525 1.446 1.677 2.69l-1.535 2.253c-.4244.6243-.3969 1.451.07028 2.045l1.683 2.143c.9316 1.184.01101 2.909-1.491 2.797l-2.717-.2026c-.7524-.0565-1.455.3817-1.736 1.083l-1.014 2.529c-.5595 1.397-2.514 1.463-3.168.1075l-1.182-2.454c-.328-.6808-1.06-1.069-1.807-.9632l-2.697.3872c-1.491.2122-2.526-1.446-1.678-2.691" fill="#3fb83a"/>
<g fill="#3fa33a">
<path d="m58.23 41.04.3169-.2122c.05375-.03721.09646-.08819.1226-.1475l.1516-.35c.1075-.248.4465-.2784.5967-.05374l.2122.3169c.0372.05374.08819.09646.1474.1226l.35.1516c.248.1075.2784.4465.05375.5967l-.3156.2122c-.05512.03721-.09784.08819-.124.1475l-.1516.35c-.1075.248-.4465.2784-.5967.05374l-.2122-.317c-.03721-.05374-.08819-.09646-.1475-.1226l-.35-.1516c-.248-.1075-.2784-.4465-.05374-.5967"/>
<path d="m72.73 32.5.08268-.2053c.01379-.03583.01655-.07441.0096-.1116l-.04134-.2164c-.0303-.1543.1213-.2797.266-.2219l.2067.0813c.03447.01379.07303.01792.1102.01101l.2177-.04272c.153-.02893.2784.1226.2205.2673l-.0813.2053c-.01379.03583-.01655.07442-.0096.1116l.04134.2164c.0303.1543-.1213.2797-.2673.2219l-.2053-.0813c-.03583-.01379-.07303-.01792-.1102-.01101l-.2177.04272c-.153.0303-.2797-.1226-.2219-.2673"/>
<path d="m58.27 33.22.1406-.09508c.0248-.01655.0441-.03859.05512-.06477l.06753-.1571c.04823-.1089.1984-.1226.266-.02342l.0937.1406c.01655.0248.03996.0441.06615.05512l.1557.06752c.1102.04823.1226.1984.02342.266l-.1406.09371c-.0248.01655-.04272.03858-.05512.06615l-.06752.1557c-.04823.1102-.1984.1226-.2646.02343l-.09508-.1406c-.01655-.0248-.03859-.04272-.06477-.05512l-.1557-.06752c-.1102-.04823-.124-.1984-.0248-.2646"/></g>
<g fill="#54bf38">
<path d="m71.01 44.47c.1833-.113.4217-.05788.5361.124.113.1819.05788.4217-.1254.5347-.1819.113-.4203.05788-.5333-.124-.1144-.1819-.05788-.4203.1226-.5347"/>
<path d="m65.57 30.35c.1819-.113.4203-.05788.5347.124.113.1819.05788.4203-.124.5347-.1819.113-.4217.05788-.5347-.124-.1144-.1819-.05788-.4217.124-.5347"/>
<path d="m61.84 44.87c.1819-.113.4217-.05788.5347.124.1144.1819.05788.4203-.124.5347-.1819.113-.4203.05788-.5347-.124-.113-.1819-.05788-.4217.124-.5347"/>
<path d="m60.99 29.08c.1819-.113.4217-.05788.5347.124.113.1819.05788.4203-.124.5347-.1819.113-.4203.05788-.5347-.124-.113-.1819-.05788-.4217.124-.5347"/>
<path d="m70.04 29.23c.1819-.1144.4217-.05788.5347.124.113.1805.05788.4203-.124.5333-.1819.1144-.4203.05788-.5347-.124-.113-.1819-.05788-.4203.124-.5333"/>
<path d="m73.76 41.31c.1819-.1144.4217-.05788.5347.124.1144.1819.05788.4203-.124.5347-.1819.113-.4203.05788-.5347-.124-.113-.1819-.05788-.4217.124-.5347"/>
</g>
<path d="m75.08 34.24c-1.495.1502-4.649.7552-7.045 3.201-.2081.2136-.5691.04823-.5416-.2494.1667-1.728.266-5.307-1.316-7.798-.1461-.2288-.4906-.2191-.6215.01792-1.432 2.581-1.12 6.147-.8516 7.863.04547.2949-.3045.4809-.5264.2811-2.536-2.3-5.719-2.716-7.222-2.777-.3927-.01655-.6256.4244-.4065.751 1.849 2.753 4.796 3.911 6.303 4.344.339.09784.4051.5416.1144.7414-.8709.5967-1.596 1.298-2.092 1.831-.3032.3252-.02893.853.412.7979 1.903-.2384 3.4-1.305 4.218-2.024l.07855 2.635c.01242.3941.3404.7028.7317.6904.04134-.0014.08131-.0055.1199-.01379.3335-.06615.5815-.3666.5705-.718l-.07717-2.636c.8599.6697 2.417 1.647 4.331 1.771.4437.02893.6849-.514.3638-.8213-.5264-.503-1.293-1.159-2.197-1.705-.3018-.1805-.2632-.6284.07028-.7455 1.479-.5209 4.352-1.852 6.034-4.71.1998-.339-.06063-.7648-.452-.7262" fill="#fff"/>
</g>
</svg>
