<svg width="69" height="69" viewBox="0 0 69 69" fill="none" xmlns="http://www.w3.org/2000/svg">
<path d="M18.9523 0.308502L18.7084 0.312636L18.465 0.325039L18.2237 0.345192L17.9839 0.373098L17.7457 0.409271L17.509 0.453196L17.2749 0.504356L17.0429 0.563267L16.8135 0.629413L16.5866 0.70331L16.3623 0.783925L16.1411 0.872292L15.9231 0.96686L15.7081 1.06918L15.4967 1.1777L15.289 1.29346L15.0854 1.41541L14.8854 1.54409L14.6901 1.67896L14.4984 1.82004L14.3118 1.96783L14.1299 2.12131L13.9527 2.28151L13.7801 2.44687L13.6131 2.61844L13.4519 2.79569L13.2958 2.97811L13.1455 3.16673L13.0008 3.36051L12.8628 3.55947L12.7305 3.76359L12.6049 3.97288L4.82866 17.4418L4.54703 17.939L4.27469 18.4397L4.01062 18.9446L3.75586 19.452L3.5104 19.9631L3.2732 20.4773L3.04531 20.9946L2.8262 21.515L2.61639 22.0379L2.41537 22.564L2.22314 23.0921L2.03968 23.6228L1.86554 24.1561L1.70017 24.6915L1.54359 25.2289L1.39631 25.7684L1.25782 26.31L1.12811 26.8526L1.00771 27.3978L0.895569 27.944L0.792733 28.4918L0.699198 29.0406L0.614449 29.591L0.537968 30.1423L0.471305 30.6942L0.412911 31.2472L0.363818 31.8006L0.323511 32.3551L0.292505 32.9101L0.270284 33.4651L0.256848 34.0201L0.252197 34.5757L0.256848 35.1312L0.270284 35.6867L0.292505 36.2417L0.323511 36.7962L0.363818 37.3507L0.412911 37.9041L0.471305 38.4571L0.537968 39.0095L0.614449 39.5604L0.699198 40.1107L0.792733 40.6595L0.895569 41.2073L1.00771 41.7535L1.12811 42.2982L1.25782 42.8418L1.39631 43.3829L1.54359 43.9224L1.70017 44.4598L1.86554 44.9952L2.03968 45.5285L2.22314 46.0592L2.41537 46.5873L2.61639 47.1134L2.8262 47.6364L3.04531 48.1567L3.2732 48.674L3.5104 49.1882L3.75586 49.6993L4.01062 50.2073L4.27469 50.7111L4.54703 51.2124L4.82866 51.7095L5.11857 52.202L5.41571 52.6888L5.7206 53.1688L6.03324 53.6438L6.35312 54.1125L6.67971 54.5744L7.01354 55.0307L7.35461 55.4803L7.7029 55.9237L8.05741 56.3609L8.41862 56.7914L8.78708 57.2156L9.16121 57.6332L9.54259 58.044L9.92964 58.4481L10.3229 58.8455L10.7224 59.2367L11.128 59.6201L11.5394 59.9974L11.9569 60.3669L12.3796 60.7296L12.808 61.0857L13.2421 61.4345L13.6814 61.7756L14.1263 62.1099L14.5759 62.4365L15.0306 62.7559L15.4905 63.068L15.9556 63.3724L16.4249 63.6695L16.8992 63.9589L17.3778 64.2405L17.8615 64.5144L18.3488 64.78L18.8407 65.0384L19.3368 65.2885L19.837 65.5309L20.3409 65.765L20.8489 65.9913L21.3605 66.2094L21.8762 66.4192L22.395 66.6207L22.9175 66.814L23.443 66.9985L23.9722 67.1752L24.5039 67.3432L25.0393 67.5023L25.5773 67.6527L26.1183 67.7948L26.662 67.9282L27.2082 68.0527L27.757 68.1684L28.3084 68.2749L28.8623 68.3731L29.4179 68.4615L29.976 68.541L30.5361 68.6113L31.0979 68.6728L31.6622 68.725L32.2275 68.7674L32.7944 68.801L33.3634 68.8247L33.9333 68.8392L34.5049 68.8439L35.0764 68.8392L35.6464 68.8247L36.2154 68.801L36.7823 68.7674L37.3476 68.725L37.9119 68.6728L38.4736 68.6113L39.0338 68.541L39.5919 68.4615L40.1474 68.3731L40.7014 68.2749L41.2528 68.1684L41.8011 68.0527L42.3478 67.9282L42.8915 67.7948L43.4325 67.6527L43.9705 67.5023L44.5058 67.3432L45.0376 67.1752L45.5667 66.9985L46.0923 66.814L46.6147 66.6207L47.1336 66.4192L47.6488 66.2094L48.1604 65.9913L48.6684 65.765L49.1727 65.5309L49.6724 65.2885L50.1685 65.0384L50.6605 64.78L51.1483 64.5144L51.6315 64.2405L52.11 63.9589L52.5844 63.6695L53.0541 63.3724L53.5187 63.068L53.9786 62.7559L54.4334 62.4365L54.8835 62.1099L55.3279 61.7756L55.7672 61.4345L56.2012 61.0857L56.6296 60.7296L57.0529 60.3669L57.4699 59.9974L57.8812 59.6201L58.2869 59.2367L58.6864 58.8455L59.0796 58.4481L59.4672 58.044L59.8475 57.6332L60.2222 57.2156L60.5906 56.7914L60.9518 56.3609L61.3069 55.9237L61.6546 55.4803L61.9952 55.0307L62.3295 54.5744L62.6561 54.1125L62.976 53.6438L63.2881 53.1688L63.5935 52.6888L63.8907 52.202L64.1806 51.7095L64.4622 51.2124L64.7351 50.7111L64.9986 50.2073L65.2534 49.6993L65.4989 49.1882L65.7355 48.674L65.9639 48.1567L66.1831 47.6364L66.3929 47.1134L66.5939 46.5873L66.7861 46.0592L66.9691 45.5285L67.1437 44.9952L67.3091 44.4598L67.4651 43.9224L67.6129 43.3829L67.7514 42.8418L67.8811 42.2982L68.0015 41.7535L68.1137 41.2073L68.216 40.6595L68.3101 40.1107L68.3953 39.5604L68.4713 39.0095L68.5379 38.4571L68.5963 37.9041L68.6454 37.3507L68.6857 36.7962L68.7167 36.2417L68.739 35.6867L68.7524 35.1312L68.7571 34.5757L68.7524 34.0201L68.739 33.4651L68.7167 32.9101L68.6857 32.3551L68.6454 31.8006L68.5963 31.2472L68.5379 30.6942L68.4713 30.1423L68.3953 29.591L68.3101 29.0406L68.216 28.4918L68.1137 27.944L68.0015 27.3978L67.8811 26.8526L67.7514 26.31L67.6129 25.7684L67.4651 25.2289L67.3091 24.6915L67.1437 24.1561L66.9691 23.6228L66.7861 23.0921L66.5939 22.564L66.3929 22.0379L66.1831 21.515L65.9639 20.9946L65.7355 20.4773L65.4989 19.9631L65.2534 19.452L64.9986 18.9446L64.7351 18.4397L64.4622 17.939L64.1806 17.4418L56.4043 3.97288L56.2787 3.76359L56.147 3.55947L56.0085 3.36051L55.8638 3.16673L55.7134 2.97811L55.5579 2.79569L55.3961 2.61844L55.2292 2.44687L55.0571 2.28151L54.8799 2.12131L54.6974 1.96783L54.5109 1.82004L54.3197 1.67896L54.1238 1.54409L53.9239 1.41541L53.7202 1.29346L53.5125 1.1777L53.3017 1.06918L53.0867 0.96686L52.8686 0.872292L52.6474 0.783925L52.4232 0.70331L52.1963 0.629413L51.9664 0.563267L51.7348 0.504356L51.5002 0.453196L51.2641 0.409271L51.0258 0.373098L50.7861 0.345192L50.5442 0.325039L50.3013 0.312636L50.0574 0.308502H18.9523ZM34.4439 2.04741C34.7722 2.0474 35.0973 2.11206 35.4007 2.2377C35.704 2.36333 35.9796 2.54749 36.2118 2.77965C36.4439 3.01181 36.6281 3.28742 36.7537 3.59075C36.8794 3.89409 36.944 4.2192 36.944 4.54752C36.944 4.87584 36.8794 5.20095 36.7537 5.50429C36.6281 5.80762 36.4439 6.08323 36.2118 6.31539C35.9796 6.54755 35.704 6.73171 35.4007 6.85735C35.0973 6.98298 34.7722 7.04764 34.4439 7.04763C33.7809 7.04752 33.1451 6.78406 32.6764 6.31521C32.2076 5.84636 31.9443 5.21051 31.9443 4.54752C31.9443 3.88453 32.2076 3.24868 32.6764 2.77983C33.1451 2.31098 33.7809 2.04752 34.4439 2.04741V2.04741Z" fill="url(#paint0_linear_152_109)"/>
<path d="M20.1882 4.54764L20.0088 4.55075L19.8306 4.55953L19.6528 4.57452L19.4766 4.59519L19.3019 4.62154L19.1283 4.65358L18.9562 4.6913L18.7857 4.73471L18.6172 4.78329L18.4503 4.83755L18.2854 4.89698L18.1232 4.96157L17.963 5.03134L17.8054 5.10575L17.6498 5.18585L17.4974 5.2706L17.3475 5.36051L17.2007 5.45457L17.0571 5.55378L16.9165 5.65765L16.7791 5.76617L16.6457 5.87883L16.5155 5.99613L16.3889 6.11809L16.2664 6.24367L16.1476 6.37389L16.0329 6.50825L15.9228 6.64674L15.8163 6.78885L15.715 6.9351L15.6179 7.08496L15.5259 7.23895L8.41109 19.5612L8.1646 19.9968L7.92534 20.4361L7.69434 20.8779L7.4711 21.3228L7.25561 21.7709L7.04839 22.2215L6.8484 22.6747L6.65668 23.131L6.47271 23.5894L6.29649 24.0498L6.12803 24.5128L5.96731 24.9779L5.81487 25.4451L5.66966 25.9143L5.53272 26.3856L5.40353 26.8584L5.28209 27.3328L5.1684 27.8088L5.06298 28.2857L4.96479 28.7648L4.87488 29.2443L4.79271 29.726L4.7183 30.2081L4.65163 30.6908L4.59272 31.1744L4.54208 31.6592L4.49867 32.1444L4.46353 32.6302L4.43614 33.1159L4.41651 33.6027L4.40514 34.0895L4.401 34.5763L4.40514 35.0626L4.41651 35.5494L4.43614 36.0356L4.46353 36.5219L4.49867 37.0077L4.54208 37.4924L4.59272 37.9771L4.65163 38.4613L4.7183 38.944L4.79271 39.4261L4.87488 39.9072L4.96479 40.3873L5.06298 40.8658L5.1684 41.3433L5.28209 41.8193L5.40353 42.2937L5.53272 42.7665L5.66966 43.2373L5.81487 43.7065L5.96731 44.1736L6.12803 44.6387L6.29649 45.1018L6.47271 45.5622L6.65668 46.0206L6.8484 46.4764L7.04839 46.9296L7.25561 47.3802L7.4711 47.8282L7.69434 48.2731L7.92534 48.715L8.1646 49.1542L8.41109 49.5899L8.66534 50.0214L8.92579 50.4477L9.19296 50.8689L9.46684 51.2848L9.74693 51.6952L10.0332 52.1003L10.3262 52.5003L10.6249 52.8941L10.9298 53.2827L11.2409 53.6656L11.5577 54.0433L11.8801 54.4149L12.2083 54.7808L12.5421 55.1409L12.8816 55.4949L13.2263 55.8432L13.5767 56.1858L13.9317 56.5223L14.2924 56.8519L14.6577 57.1765C15.7562 58.144 16.939 59.0081 18.1619 59.8104L18.5738 60.0704L18.9893 60.3236L19.4084 60.5706L19.8321 60.8109L20.2595 61.0439L20.6904 61.2698L21.125 61.4894L21.5633 61.7013L22.0051 61.9069L22.45 62.1054L22.8986 62.2961L23.3502 62.48L23.805 62.6568L24.2623 62.8257L24.7233 62.988L25.1868 63.1425L25.6529 63.2893L26.1222 63.4293L26.5934 63.5611L27.0673 63.6856L27.5438 63.8024L28.0228 63.9115L28.5034 64.0128L28.9866 64.1068L29.4718 64.1921L29.9591 64.2696L30.448 64.3399L30.9384 64.4014L31.4314 64.4551L31.9254 64.5006L32.4205 64.5383L32.9176 64.5672L33.4158 64.5879L33.9155 64.6008L34.4162 64.6049L34.917 64.6008L35.4167 64.5879L35.9148 64.5672L36.412 64.5383L36.9075 64.5006L37.4016 64.4551L37.894 64.4014L38.385 64.3399L38.8738 64.2696L39.3611 64.1921L39.8464 64.1068L40.3296 64.0128L40.8107 63.9115L41.2892 63.8024L41.7656 63.6856L42.2395 63.5611L42.7113 63.4293L43.18 63.2893L43.6467 63.1425L44.1102 62.988L44.5706 62.8257L45.0285 62.6568L45.4832 62.48L45.9349 62.2961L46.3835 62.1054L46.8284 61.9069L47.2702 61.7013L47.7084 61.4894L48.143 61.2698L48.574 61.0439L49.0014 60.8109L49.4251 60.5706L49.8442 60.3236L50.2602 60.0704L50.6716 59.8104L51.0788 59.5433L51.4813 59.2699L51.8803 58.9898L52.2746 58.7035L52.6642 58.411L53.0492 58.1118L53.4295 57.8064L53.8047 57.4943L54.1757 57.1765L54.5411 56.8519L54.9018 56.5223L55.2573 56.1858L55.6072 55.8432L55.9519 55.4949L56.2914 55.1409L56.6252 54.7808L56.9533 54.4149L57.2758 54.0433L57.5926 53.6656L57.9037 53.2827L58.2086 52.8941L58.5073 52.5003L58.7997 52.1003L59.0866 51.6952L59.3666 51.2848L59.6405 50.8689L59.9077 50.4477L60.1681 50.0214L60.4224 49.5899L60.6689 49.1542L60.9081 48.715L61.1391 48.2731L61.3624 47.8282L61.5774 47.3802L61.7851 46.9296L61.9851 46.4764L62.1768 46.0206L62.3608 45.5622L62.537 45.1018L62.7055 44.6387L62.8662 44.1736L63.0186 43.7065L63.1638 43.2373L63.3008 42.7665L63.43 42.2937L63.5514 41.8193L63.6651 41.3433L63.7705 40.8658L63.8687 40.3873L63.9586 39.9072L64.0408 39.4261L64.1152 38.944L64.1818 38.4613L64.2408 37.9771L64.2914 37.4924L64.3343 37.0077L64.37 36.5219L64.3973 36.0356L64.417 35.5494L64.4283 35.0626L64.4325 34.5763L64.4283 34.0895L64.417 33.6027L64.3973 33.1159L64.37 32.6302L64.3343 32.1444L64.2914 31.6592L64.2408 31.1744L64.1818 30.6908L64.1152 30.2081L64.0408 29.726L63.9586 29.2443L63.8687 28.7648L63.7705 28.2857L63.6651 27.8088L63.5514 27.3328L63.43 26.8584L63.3008 26.3856L63.1638 25.9143L63.0186 25.4451L62.8662 24.9779L62.7055 24.5128L62.537 24.0498L62.3608 23.5894L62.1768 23.131L61.9851 22.6747L61.7851 22.2215L61.5774 21.7709L61.3624 21.3228L61.1391 20.8779L60.9081 20.4361L60.6689 19.9968L60.4224 19.5612L53.3076 7.23895L53.2156 7.08496L53.1184 6.9351L53.0172 6.78885L52.9107 6.64674L52.8006 6.50825L52.6859 6.37389L52.5676 6.24367L52.4446 6.11809L52.318 5.99613L52.1883 5.87883L52.0544 5.76617L51.917 5.65765L51.7764 5.55378L51.6327 5.45457L51.486 5.36051L51.3361 5.2706L51.1837 5.18585L51.0286 5.10575L50.871 5.03134L50.7108 4.96157L50.5481 4.89698L50.3837 4.83755L50.2168 4.78329L50.0483 4.73471L49.8778 4.6913L49.7057 4.65358L49.5321 4.62154L49.3574 4.59519L49.1812 4.57451L49.0034 4.55953L48.8252 4.55074L48.6458 4.54764H38.9958C39.0012 4.63452 39.0042 4.72155 39.0046 4.8086C39.0046 5.39959 38.8882 5.98479 38.662 6.53079C38.4358 7.07679 38.1043 7.57288 37.6864 7.99075C37.2685 8.40862 36.7723 8.74008 36.2263 8.96619C35.6803 9.19231 35.0951 9.30865 34.5041 9.30859C33.3106 9.30858 32.166 8.83448 31.3221 7.99057C30.4782 7.14666 30.0041 6.00207 30.0041 4.8086C30.0069 4.72148 30.0123 4.63445 30.0201 4.54764L20.1882 4.54764ZM13.8144 29.8743C14.017 29.9252 14.2226 29.9973 14.4252 30.0469C14.5024 30.1957 14.5794 30.3221 14.6552 30.4489C14.658 30.493 14.6621 30.5373 14.6428 30.5827C14.3795 31.1546 14.0459 31.6895 13.7813 32.2627C12.8057 34.4593 11.9942 36.7536 11.2445 39.0205C11.1908 39.1789 11.0917 39.3193 11.1717 39.4902C11.3191 39.4117 11.4194 39.2713 11.52 39.1528C11.9664 38.6539 12.4639 38.2403 13.0082 37.8655C13.0909 37.7925 13.175 37.7417 13.2811 37.6893C13.4092 37.6355 13.5403 37.6023 13.6712 37.5927C14.1549 37.5541 14.552 37.8326 14.6608 38.3756C14.7339 38.7449 14.7418 39.1211 14.6825 39.5C14.564 40.2387 14.4252 41.0005 14.3094 41.7598C14.2626 42.0065 14.2169 42.2752 14.1921 42.5205C14.1921 42.8071 14.1716 43.0952 14.4087 43.2977C14.5837 43.2839 14.6235 43.2374 14.7254 43.1189C15.092 42.7372 15.4103 42.2919 15.7052 41.8275C16.3364 40.8726 16.9425 39.875 17.5723 38.898C17.7217 38.6785 17.8496 38.4223 18.1128 38.2619C18.6204 37.5272 19.1993 36.9192 19.8202 36.6449C19.9704 36.5884 20.0998 36.5567 20.2321 36.5457C20.8908 36.4947 21.5424 36.9284 21.6403 37.6051C21.6733 37.758 21.6666 37.9346 21.8278 38.0324C22.0869 38.2336 22.0633 38.4994 22.0165 38.7461C21.9848 38.9032 21.9066 39.0205 21.8501 39.1569C21.4615 40.094 21.117 41.0477 20.8165 41.9986C20.749 42.2701 20.636 42.5205 20.7256 42.8223C20.964 42.7603 21.107 42.6156 21.2723 42.4709C21.9482 41.8932 22.5536 41.1992 23.0107 40.4225C23.2309 39.5854 23.4567 38.7475 23.6965 37.9084C23.7626 37.6162 23.8717 37.3212 23.9833 37.047C24.037 36.8885 24.1331 36.726 24.2324 36.5855C24.3894 36.3305 24.493 36.2339 24.668 36.2201C24.8003 36.2091 24.981 36.2618 25.2524 36.3514C25.3365 36.565 25.6145 36.741 25.5925 37.0304C25.5746 37.0759 25.6684 37.1351 25.7387 37.1958C25.9041 37.3363 26.0279 37.5046 26.1299 37.6728C26.3077 37.9677 26.5626 38.1249 26.8699 38.1001C27.1111 38.0822 28.0511 37.6755 28.2853 37.5694C28.4835 37.4797 28.8215 37.1572 29.107 37.0454C29.1969 36.8132 29.2924 36.5846 29.4041 36.3555C29.5337 36.0358 29.6839 35.6927 30.0242 35.5328C30.5947 35.7754 30.5948 35.7754 30.9131 36.1695C30.3481 37.1203 29.9224 38.169 29.6579 39.2949C29.8976 39.2535 29.9293 39.0963 30.0093 38.9791C30.7493 38.0159 31.6105 37.1751 32.6634 36.5178C32.8508 36.3703 33.0614 36.2436 33.3026 36.2243C33.807 36.1843 34.1446 36.2685 34.3403 36.7839C34.4712 37.0389 34.4932 37.3243 34.5139 37.5875C34.5359 37.5861 34.558 37.5832 34.58 37.5818C34.7551 37.568 34.7911 37.4552 34.871 37.3601C35.2541 36.8888 36.3758 35.7185 37.0042 35.5587C37.0676 35.5311 37.1556 35.5244 37.2217 35.5189C37.5731 35.4913 37.8971 35.6858 38.017 36.0744C38.0735 36.2467 38.0871 36.4213 38.0816 36.6211C38.0486 37.0442 37.9717 37.4704 37.8491 37.8769C37.6741 38.4639 37.4989 39.0303 37.3225 39.5967C37.1461 40.1617 37.0581 40.721 37.014 41.2984C37.003 41.432 36.9916 41.5659 37.044 41.672C37.0895 41.6899 37.1115 41.6882 37.1556 41.6854C37.2424 41.6786 37.3017 41.5852 37.3623 41.5149C38.4758 40.2347 39.2683 38.8028 40.08 37.3255C40.1186 37.2566 40.1804 37.2072 40.2438 37.1575C40.257 37.1496 40.2701 37.1426 40.2831 37.1374C40.818 36.2026 41.5029 35.4036 42.2462 35.3453C42.5756 35.3191 43.2855 35.639 43.3144 36.0124C43.3613 36.3183 43.492 36.5717 43.5816 36.8749C43.6656 37.1105 43.7082 37.3725 43.7082 37.6371C43.722 37.8121 43.6711 38.0147 43.7759 38.2283C43.8021 38.271 43.8477 38.2886 43.9138 38.2831C44.33 38.25 45.4431 37.5227 45.614 37.4428C45.6303 37.4311 45.6457 37.4224 45.661 37.4128C45.8815 36.815 46.1142 36.2219 46.3747 35.6388C46.5263 35.3177 46.6754 34.9747 46.9896 34.7515C47.3107 34.9031 47.71 34.9375 47.9167 35.3179C47.7679 35.661 47.6854 36.022 47.4428 36.3059C47.2816 36.4947 47.1891 36.7235 47.1643 36.9674C47.1671 37.0115 47.1479 37.0361 47.1493 37.0568C47.1714 37.0554 47.1905 37.0319 47.2346 37.0278C48.009 36.1941 49.3571 34.8078 50.454 34.721C50.8964 34.7307 51.2243 34.9692 51.3263 35.4254C51.42 35.7712 51.4033 36.1251 51.3206 36.464C51.209 37.0249 51.1096 37.1658 50.9305 37.6867C50.7003 38.4116 50.4454 39.0935 50.2153 39.8184C50.1229 40.0471 50.0985 40.2924 50.0489 40.517C50.0323 40.5846 50.0168 40.6741 50.0664 40.7361C50.0899 40.7568 50.1343 40.7525 50.1564 40.7511C50.2446 40.7443 50.305 40.6729 50.345 40.6261C51.2338 39.8489 52.5719 38.0655 53.1314 37.0278C53.2095 36.8874 53.2676 36.7295 53.3815 36.6005C53.6515 36.0058 53.9595 35.4256 54.3029 34.86C54.4572 34.583 54.6817 34.3446 54.9132 34.1944C54.9338 34.1931 54.934 34.1931 54.9561 34.1903C55.1104 34.1793 55.1614 34.2633 55.2744 34.2978C55.3874 34.3336 55.4797 34.3932 55.572 34.429C55.6975 34.6192 55.8199 34.786 55.7069 35.0368C55.6118 35.2214 55.6282 35.4404 55.3705 35.5272C55.263 35.5575 55.2094 35.7158 55.1281 35.8109C54.3909 37.1062 53.8576 38.4732 53.553 39.9326C53.5021 40.1131 53.4497 40.294 53.553 40.4855C53.5751 40.4827 53.6194 40.48 53.6414 40.4773C53.8385 40.4621 53.9816 40.3184 54.1277 40.2179C54.7478 39.6832 55.3199 39.0867 55.8201 38.4293C56.7392 37.2084 57.6594 35.9876 58.5083 34.706C58.6861 34.4497 58.8528 34.3255 59.0292 34.3118C59.1381 34.3035 59.25 34.3157 59.3878 34.3722C59.6138 34.4425 59.7349 34.5875 59.7749 34.8053C59.7873 34.9596 59.7747 35.0919 59.7651 35.2476C59.5019 36.6601 59.2611 38.0917 59.0406 39.5001C58.9744 39.7922 58.8638 40.0664 58.9093 40.3724L58.8902 40.3956L58.9124 40.3946C58.9345 40.3917 58.9548 40.3904 58.9548 40.3904C59.0651 40.3822 59.1495 40.331 59.2101 40.2607C60.2546 39.4932 59.9511 39.8485 60.8234 38.8742C60.924 38.7557 61.0482 38.6362 61.2218 38.6004C61.514 38.9531 61.5142 38.953 61.8104 39.0618C61.8159 39.1266 61.8418 39.1912 61.8487 39.2794C61.8749 39.3207 61.8997 39.3638 61.9272 39.4272C61.6695 39.8006 61.3626 40.1121 61.0126 40.4276C60.0245 41.344 60.2836 40.9923 59.1977 41.7847C59.0516 41.8839 58.9262 41.9831 58.7801 42.0823C58.4632 42.2615 58.3059 42.5166 58.1998 42.8569C57.5342 45.3388 55.7442 49.5213 52.8255 49.7501C52.5402 49.7735 52.2507 49.7515 51.9806 49.6839C50.9704 49.4772 50.6001 48.689 50.5615 47.9187C50.483 45.8061 52.4108 44.4832 54.0631 43.6026C55.0388 43.0845 55.9867 42.5014 56.91 41.8978C57.2049 41.7201 57.3852 41.4858 57.4665 41.1041C57.7132 40.0457 57.938 38.9697 58.1171 37.8728C58.1309 37.7611 58.1669 37.6702 58.0691 37.5462C57.8789 37.6481 57.7849 37.8545 57.665 38.0185C56.7885 39.2353 55.0167 41.6937 53.3934 41.8219C52.8408 41.8219 52.4174 41.4791 52.3071 40.9361C52.2686 40.7534 52.2517 40.5694 52.2575 40.3837C51.4528 41.3559 50.5866 42.1526 49.9176 42.2053C49.3678 42.2494 48.9227 41.9073 48.8304 41.2968C48.7518 40.8614 48.8069 40.4373 48.9048 40.0101C49.0357 39.4258 49.2575 38.8784 49.4339 38.312C49.6517 37.7208 49.7457 37.4938 49.9621 36.8806C50.0337 36.6752 50.1288 36.4696 50.1109 36.2491C50.064 36.2091 50.0418 36.2109 49.9977 36.215C49.9316 36.2191 49.8697 36.2685 49.805 36.2961C48.1734 37.4399 46.7001 39.7648 45.8429 41.5108C45.7258 41.6968 45.6323 41.9018 45.4683 42.0699C45.3277 42.2573 45.2463 42.3304 45.136 42.3386C45.0699 42.3441 44.9787 42.3071 44.8203 42.2534C44.7086 42.2396 44.5958 42.2053 44.5035 42.1681C44.2389 41.8801 44.2346 41.5494 44.3407 41.209C44.6 40.4875 44.8434 39.7608 45.09 39.036C45.0272 39.0612 44.9601 39.0884 44.906 39.1114C44.7338 39.1679 43.5225 39.4851 43.4674 39.6215C43.1146 40.7528 42.0726 42.668 40.7621 42.8595C40.696 42.865 40.6107 42.8942 40.5446 42.8983C39.8652 42.952 39.4158 42.5896 39.2036 41.8565C39.1508 41.6601 39.1157 41.4623 39.0961 41.2638C38.8541 41.5903 38.6092 41.907 38.3669 42.2079C38.0059 42.6778 37.5527 43.0885 36.9381 43.1381C36.3235 43.1863 35.8975 42.8225 35.8203 42.1211C35.728 41.2226 35.8563 40.3294 36.1195 39.4696C36.2725 38.8839 36.4711 38.3163 36.6254 37.7513C36.6819 37.6369 36.7369 37.5003 36.6611 37.3736C36.5081 37.386 36.4873 37.4096 36.3867 37.5281C35.3159 38.5175 34.1889 40.4604 33.6514 41.7847C33.5191 42.0589 33.3426 42.3386 33.1869 42.6156C32.9884 42.6087 32.8124 42.6225 32.636 42.6156C32.4886 42.4282 32.2625 42.3565 32.1564 42.1443C32.1399 41.9252 32.2333 41.7199 32.2815 41.4953C32.6177 40.43 32.9762 39.3648 33.176 38.2665C33.2063 38.0874 33.2808 37.9043 33.2008 37.7348C33.1553 37.7155 33.1317 37.6964 33.0876 37.6991C33.0215 37.7046 32.961 37.7746 32.899 37.8242C31.1654 39.0878 29.9719 41.0364 29.1065 42.9587C28.8639 43.5086 28.6452 44.0999 28.2207 44.5974C28.0209 44.5905 27.8223 44.5834 27.6446 44.5752C27.5026 44.4539 27.4046 44.3301 27.2627 44.2088C27.2268 44.0352 27.2548 43.8338 27.3071 43.6533C27.6643 42.0555 28.0213 40.4458 28.4951 38.8655C28.0281 39.0758 27.5309 39.2411 27.0725 39.2768C26.7211 39.3043 26.3659 39.2658 25.9966 39.0742C25.8588 38.9971 25.7194 38.9201 25.499 38.9145C24.7755 40.3849 24.1445 41.9142 23.5616 43.4838C23.41 43.5182 23.3008 43.5265 23.1699 43.5582C23.0486 43.4135 22.8311 43.4535 22.6919 43.3763C22.5325 43.2914 22.4437 43.2097 22.4056 43.0998C22.318 43.185 22.2287 43.269 22.1364 43.3515C21.8869 43.5485 21.6363 43.7239 21.3648 43.921C21.0892 44.0753 20.8369 44.2281 20.5075 44.2543C20.0032 44.2929 19.6259 43.9909 19.4482 43.4094C19.4399 43.3212 19.433 43.2333 19.3613 43.152C19.145 43.2126 19.0484 43.3973 18.905 43.5406C18.5123 43.881 18.0577 44.2696 17.5093 44.3137C16.9387 44.3578 16.4246 44.0005 16.2881 43.3928C16.2682 43.3192 16.2528 43.2454 16.2406 43.1711C16.0301 43.4602 15.8162 43.7547 15.5688 44.0243C15.2202 44.3605 14.8245 44.6567 14.3188 44.6966C13.9674 44.7242 13.6671 44.5492 13.4397 44.1923C13.0387 43.5832 12.8952 42.8873 13.0165 42.1707C13.1336 41.4114 13.2718 40.6493 13.4124 39.9093C13.4358 39.6433 13.5267 39.3927 13.462 39.1336C13.2621 39.1268 13.1626 39.267 13.0579 39.3414C11.5296 40.6767 10.6835 42.5539 9.85391 44.3633C9.72438 44.683 9.5976 45.0232 9.37436 45.2837C8.88929 45.2782 8.79713 45.2408 8.37132 44.877C8.34514 44.5476 8.45417 44.2527 8.54236 43.9592C9.60345 39.7686 11.1865 34.9181 13.062 30.9714C13.2508 30.5593 13.463 30.1678 13.8144 29.8743L13.8144 29.8743ZM42.3165 37.0842C42.0216 37.2619 41.9305 37.5117 41.9553 37.819C41.9966 38.0588 42.1443 38.2462 42.4364 38.311C42.5535 37.8383 42.5673 37.4617 42.3165 37.0842ZM20.3561 37.8397C19.9248 37.9844 19.9041 37.9856 19.6202 38.3177C18.6501 39.4532 18.0257 40.7832 17.5392 42.1681C17.5034 42.2825 17.4705 42.4173 17.4581 42.551C17.4264 42.7081 17.4152 42.8402 17.5144 42.9877C17.5365 42.9848 17.5368 42.9849 17.5589 42.9835C17.8 42.9642 17.9197 42.8006 18.0617 42.6352C18.4089 42.277 18.7078 41.877 18.9614 41.4374C19.2907 40.86 19.5968 40.2623 19.951 39.7042C20.3465 39.1212 20.2982 38.5066 20.3561 37.8397V37.8397ZM40.8902 38.5879C40.317 39.4506 40.0898 40.7708 40.4205 41.6058C40.5101 41.621 40.5776 41.6372 40.6438 41.6317C41.2363 41.5848 41.8299 40.4344 42.0587 39.9755C42.1179 39.8818 42.2187 39.7634 42.1636 39.6132C41.932 39.4782 41.7021 39.3622 41.4706 39.2272C41.2363 39.0687 41.1052 38.7919 40.8902 38.588V38.5879ZM56.6867 43.5499C56.5365 43.605 56.4729 43.6329 56.4082 43.6605C55.6061 44.1208 54.8236 44.5574 54.0202 45.0191C53.0211 45.5165 51.737 46.5899 51.7645 47.7791C51.7604 48.2876 51.9809 48.5579 52.488 48.562C52.5541 48.5565 52.6203 48.5526 52.6864 48.547C54.7934 48.3803 56.0223 45.4795 56.6397 43.7969C56.6562 43.7294 56.6536 43.685 56.6867 43.5499V43.5499Z" fill="#217821"/>
<path d="M34.1135 11.8128L34.1528 11.8149L34.1905 11.8258L34.2251 11.8449L34.2551 11.8718L34.3192 11.9477L34.4577 12.126L34.546 12.2495L34.6427 12.3937L34.7445 12.5575L34.8483 12.7384L34.9496 12.9358L35.0468 13.1477L35.1346 13.3719L35.1744 13.4882L35.2111 13.6076L35.2437 13.729L35.2721 13.853L35.2958 13.9786L35.315 14.1062L35.3279 14.2354L35.3356 14.3662L35.3367 14.498L35.331 14.6308L35.593 14.5264L35.8685 14.4313L36.01 14.3884L36.1542 14.3491L36.3005 14.3145L36.4488 14.2845L36.5981 14.2597L36.7485 14.2411L36.8999 14.2282L37.0518 14.222L37.2033 14.2236L37.3547 14.2323L37.505 14.2494L37.6549 14.2752L37.6952 14.2887L37.7298 14.3104L37.7588 14.3393L37.78 14.3745L37.7929 14.4137L37.7965 14.4546L37.7908 14.4949L37.7748 14.5326L37.7293 14.6117L37.6239 14.7796L37.4606 15.0158L37.3573 15.1537L37.2405 15.301L37.1097 15.4555L36.965 15.6142L36.8069 15.7754L36.6359 15.9356L36.4514 16.0932L36.254 16.2451L36.0442 16.3888L35.9346 16.4565L35.822 16.5216L35.885 16.581L35.9449 16.6441L36.0018 16.7113L36.0555 16.7821L36.1067 16.8565L36.1542 16.935L36.1987 17.0172L36.2405 17.103L36.2788 17.1929L36.3144 17.2859L36.3465 17.3831L36.3754 17.4843L36.425 17.6967L36.4612 17.9241L36.4629 17.9536L36.4598 17.982L36.452 18.0094L36.4401 18.0347L36.4246 18.058L36.405 18.0786L36.3823 18.0962L36.3569 18.1102L36.2939 18.1334L36.2226 18.1556L36.129 18.1815L36.0153 18.2068L35.8841 18.229L35.7378 18.245L35.5797 18.2507L35.4268 18.245L35.2676 18.2259L35.1865 18.2104L35.1048 18.1908L35.0221 18.167L34.94 18.1381L34.8573 18.104L34.7751 18.0647L34.6935 18.0192L34.6123 17.968L34.5322 17.9102L34.4537 17.8461L34.3762 17.7748L34.3007 17.6962V18.9675L34.2971 19.0031L34.2868 19.0362L34.2702 19.0662L34.2485 19.0925L34.2227 19.1137L34.1927 19.1297L34.1597 19.1401L34.1245 19.1437L34.0889 19.1401L34.0558 19.1297L34.0258 19.1137L33.9995 19.0925L33.9778 19.0662L33.9617 19.0362L33.9514 19.0031L33.9478 18.9675V17.6456L33.8739 17.706L33.7984 17.7613L33.7224 17.8115L33.646 17.8564L33.5679 17.8962L33.4899 17.9319L33.4114 17.9629L33.3328 17.9903L33.1762 18.0326L33.0212 18.0605L32.8693 18.0766L32.7215 18.0812L32.5592 18.0755L32.4068 18.0605L32.2662 18.0388L32.1396 18.0125L32.0295 17.9846L31.9381 17.9577L31.8177 17.9159L31.7934 17.9066L31.7897 17.905L31.7861 17.9029L31.7799 17.8998L31.7551 17.8838L31.7334 17.8642L31.7329 17.8636L31.7308 17.8616L31.7117 17.8363V17.8357L31.6967 17.8052L31.6962 17.8042L31.6879 17.7722L31.6853 17.7386L31.6894 17.705V17.704L31.7018 17.6662L31.801 17.4699L31.9033 17.2864L32.0087 17.1159L32.1178 16.9578L32.2299 16.8126L32.3457 16.6797L32.464 16.5604L32.586 16.4534L32.4749 16.38L32.3669 16.3035L32.1591 16.1418L31.9633 15.9713L31.7788 15.795L31.6072 15.6157L31.4475 15.4359L31.3013 15.2586L31.1685 15.0866L31.0486 14.9222L30.9432 14.7688L30.7747 14.5062L30.6657 14.3202L30.6187 14.2339L30.6026 14.1895L30.5985 14.1435L30.6073 14.0975L30.628 14.0546L30.6595 14.0189L30.6977 13.9931L30.7422 13.9786L30.7907 13.976L31.1504 14.0132L31.4827 14.0598L31.7891 14.1135L32.0708 14.1745L32.3292 14.2411L32.5658 14.313L32.7813 14.3889L32.9772 14.4685L32.956 14.3316L32.9415 14.1921L32.9328 14.0505L32.9317 13.9073L32.9384 13.7621L32.9529 13.6154L32.9766 13.4671L33.0092 13.3177L33.0516 13.1678L33.1048 13.017L33.1678 12.8661L33.2428 12.7141L33.3296 12.5627L33.4283 12.4113L33.5404 12.2604L33.6655 12.11L33.6918 12.0857L33.7213 12.0677L33.7533 12.0558L33.7869 12.0501L33.8205 12.0511L33.8536 12.0583L33.8851 12.0728L33.9135 12.0935L33.9321 12.1121L33.9476 12.1322V11.9891L33.9498 11.9622L33.9559 11.9363L33.9787 11.8888L33.9947 11.8681L34.0143 11.8506L34.036 11.8351L34.0608 11.8237L34.1135 11.8128ZM33.9476 12.3198L33.9301 12.3415L33.806 12.4919L33.6965 12.6428L33.6014 12.7937L33.5197 12.9451L33.451 13.0954L33.3947 13.2458L33.3502 13.3952L33.3167 13.544L33.2934 13.6908L33.2795 13.8365L33.2753 13.9807L33.279 14.1223L33.2908 14.2618L33.31 14.3987L33.3353 14.5326L33.3668 14.6638L33.5441 14.7723L33.6981 14.8793L33.8324 14.9832L33.9477 15.0819L33.9476 12.3198ZM34.3006 12.5182V15.1682L34.4334 15.0871L34.5879 14.9977L34.7626 14.9021L34.9558 14.8028L34.9744 14.669L34.9842 14.5109L34.9827 14.3532L34.9708 14.1972L34.9496 14.0432L34.9196 13.8913L34.8819 13.7424L34.838 13.5967L34.7884 13.4551L34.7341 13.3177L34.6757 13.1854L34.6147 13.0577L34.5522 12.9363L34.424 12.713L34.3006 12.5182ZM31.1034 14.3631L31.2289 14.5563L31.386 14.7806L31.5736 15.0271L31.6785 15.1553L31.7901 15.285L31.9085 15.4152L32.034 15.5449L32.1658 15.672L32.3038 15.7966L32.448 15.9165L32.5978 16.0307L32.7539 16.1382L32.9151 16.2374L33.0433 16.179L33.1745 16.1325L33.3074 16.0994L33.434 16.0798L33.5538 16.072L33.6665 16.0741L33.5921 15.963L33.5156 15.8405L33.4376 15.7077L33.3606 15.5651L33.2851 15.4131L33.2133 15.2529L33.1461 15.0845L33.0857 14.9088L32.9182 14.8261L32.7317 14.7455L32.5234 14.668L32.2919 14.5946L32.0361 14.5264L31.754 14.4649L31.4434 14.4101L31.1034 14.3631ZM37.0549 14.5744L36.9361 14.5791L36.8172 14.5879L36.6989 14.6018L36.5805 14.6194L36.3459 14.6659L36.1155 14.7253L35.8901 14.7956L35.6721 14.8742L35.4633 14.9589L35.2654 15.0473L35.224 15.193L35.1729 15.3351L35.1124 15.4741L35.0426 15.61L34.9636 15.7428L34.8752 15.872L34.7775 15.9976L34.6706 16.1201L34.7641 16.1211L34.8613 16.1273L34.9615 16.1381L35.0638 16.1547L35.1682 16.1779L35.2731 16.2089L35.378 16.2472L35.4829 16.2942L35.6545 16.2038L35.8193 16.1056L35.977 16.0007L36.1279 15.8901L36.271 15.7754L36.4069 15.6576L36.5351 15.5382L36.656 15.4178L36.7686 15.2984L36.8735 15.1811L37.0591 14.9563L37.211 14.7537L37.3283 14.5837L37.1919 14.5755L37.0549 14.5744ZM33.5714 15.2255L33.6634 15.4105L33.759 15.5811L33.8551 15.7351L33.9476 15.872V15.5635L33.8639 15.485L33.7306 15.3609L33.5714 15.2255ZM34.8142 15.2767L34.6406 15.3759L34.4959 15.4627L34.3006 15.5893V15.9935L34.3838 15.9103L34.4613 15.825L34.5331 15.7382L34.5998 15.6493L34.6618 15.5589L34.7176 15.4669L34.7688 15.3723L34.8142 15.2767ZM33.5699 16.4234L33.4686 16.4301L33.3601 16.4482L33.5027 16.4968L33.6479 16.5366L33.7962 16.5676L33.9476 16.5888V16.4875L33.8779 16.4642L33.7905 16.443L33.6872 16.4281L33.5699 16.4234ZM34.6964 16.4725L34.5791 16.4756L34.4732 16.4849L34.3791 16.4978L34.3006 16.5123V16.5996L34.4727 16.5883L34.6401 16.5666L34.8039 16.5356L34.9636 16.4952L34.8272 16.4782L34.6964 16.4725ZM32.9203 16.6425L32.8076 16.7267L32.6971 16.8244L32.589 16.935L32.4836 17.059L32.6505 16.9619L32.8154 16.8771L32.9787 16.8048L33.1394 16.7438L33.0288 16.6952L32.9203 16.6425ZM35.4695 16.6937L35.268 16.7717L35.0592 16.8373L35.1873 16.8983L35.3129 16.965L35.4349 17.0363L35.5542 17.1123L35.67 17.1924L35.7826 17.2761L35.8922 17.3629L35.9987 17.4528L35.9532 17.3288L35.902 17.213L35.8447 17.1055L35.7816 17.0063L35.7124 16.9154L35.6369 16.8327L35.5563 16.7588L35.4695 16.6937ZM33.9476 16.9546L33.8407 16.9593L33.7342 16.9696L33.6272 16.9851L33.5203 17.0058L33.4128 17.0322L33.3058 17.0637L33.1983 17.1004L33.0908 17.1427L32.9833 17.1903L32.8759 17.2435L32.7678 17.3019L32.6604 17.3655L32.5524 17.4347L32.4444 17.5091L32.3364 17.5892L32.2283 17.6745L32.4004 17.7086L32.4965 17.7215L32.5984 17.7303L32.7048 17.7344L32.8154 17.7318L32.9296 17.722L33.0448 17.7039L33.1621 17.676L33.28 17.6383L33.3973 17.5887L33.513 17.5267L33.6272 17.4507L33.7378 17.3603L33.8453 17.2544L33.9476 17.1314V16.9546ZM34.3006 16.9774V17.0781L34.3011 17.0797L34.345 17.1593L34.391 17.2342L34.4866 17.3691L34.5879 17.4859L34.6928 17.5851L34.8008 17.6683L34.9114 17.737L35.023 17.7918L35.1352 17.8342L35.2468 17.8657L35.3569 17.8864L35.4643 17.8988L35.5682 17.9034L35.6679 17.9013L35.7625 17.8941L35.8504 17.8827L35.9315 17.8683L35.73 17.6858L35.6287 17.6026L35.5279 17.5241L35.4261 17.4507L35.3248 17.3825L35.223 17.3189L35.1212 17.2611L35.0189 17.2078L34.9171 17.1598L34.8148 17.1169L34.7119 17.0787L34.6096 17.0456L34.5068 17.0177L34.4034 16.9949L34.3006 16.9774ZM14.2403 17.3799H29.0735L29.1092 17.3836L29.1422 17.3939L29.1722 17.4099L29.1986 17.4311L29.2203 17.4575L29.2363 17.4874L29.2466 17.5205L29.2503 17.5562L29.2466 17.5913L29.2363 17.6244L29.2203 17.6543L29.1986 17.6802L29.1722 17.7019L29.1422 17.7184L29.1092 17.7288L29.0735 17.7324H14.2403L14.2046 17.7288L14.1716 17.7184L14.1416 17.7019L14.1158 17.6802L14.0941 17.6543L14.078 17.6244L14.0677 17.5913L14.0641 17.5562L14.0677 17.5205L14.078 17.4874L14.0941 17.4575L14.1158 17.4311L14.1416 17.4099L14.1716 17.3939L14.2046 17.3836L14.2403 17.3799ZM38.829 17.3799H53.6622L53.6973 17.3836L53.7304 17.3939L53.7604 17.4099L53.7867 17.4311L53.8084 17.4575L53.8245 17.4874L53.8348 17.5205L53.8384 17.5562L53.8348 17.5913L53.8245 17.6244L53.8084 17.6543L53.7867 17.6802L53.7604 17.7019L53.7304 17.7184L53.6973 17.7288L53.6622 17.7324H38.829L38.7933 17.7288L38.7603 17.7184L38.7303 17.7019L38.7039 17.6802L38.6822 17.6543L38.6662 17.6244L38.6558 17.5913L38.6522 17.5562L38.6558 17.5205L38.6662 17.4874L38.6822 17.4575L38.7039 17.4311L38.7303 17.4099L38.7603 17.3939L38.7933 17.3836L38.829 17.3799ZM19.162 47.2629L19.2023 47.269L19.24 47.2845L19.2927 47.315L19.4043 47.3848L19.5619 47.4933L19.7531 47.639L19.857 47.7258L19.964 47.8214L20.073 47.9263L20.1821 48.0395L20.2895 48.162L20.3944 48.2927L20.4942 48.4317L20.5877 48.5795L20.674 48.503L20.7696 48.4343L20.8745 48.3723L20.9882 48.3186L21.1107 48.2721L21.2425 48.2333L21.383 48.2023L21.5318 48.179L21.5613 48.1773L21.5897 48.1805L21.6171 48.1882L21.6419 48.2001L21.6652 48.2156L21.6853 48.2352L21.7024 48.2579L21.7163 48.2833L21.7401 48.3442L21.7623 48.4119L21.782 48.4848L21.7985 48.5628L21.8114 48.6455L21.8197 48.7318L21.8228 48.8207L21.8202 48.9127L21.8109 49.0062L21.7949 49.1013L21.7711 49.1964L21.739 49.292L21.6977 49.386L21.6471 49.4796L21.5856 49.5705L21.5137 49.6589H22.2537L22.2889 49.6625L22.322 49.6728L22.3519 49.6894L22.3783 49.7111L22.3995 49.7369L22.416 49.7669L22.4263 49.8L22.43 49.8351L22.4263 49.8708L22.416 49.9038L22.3995 49.9338L22.3783 49.9597L22.3519 49.9813L22.322 49.9974L22.2889 50.0077L22.2537 50.0114H21.4595L21.5205 50.1049L21.5716 50.201L21.6135 50.2987L21.6465 50.3974L21.6719 50.4961L21.6894 50.5948L21.6998 50.693L21.7044 50.7896L21.7029 50.8837L21.6967 50.9756L21.6858 51.064L21.6708 51.1488L21.6527 51.2289L21.6321 51.3043L21.5845 51.4371L21.5757 51.4573L21.568 51.4728L21.5582 51.4883L21.5576 51.4886L21.5566 51.4904L21.5354 51.5142L21.5349 51.5145L21.5339 51.5156L21.523 51.5249L21.5215 51.5259L21.5199 51.527L21.5065 51.5358L21.4972 51.5415L21.4931 51.5436L21.475 51.5524L21.4543 51.5575L21.4336 51.5607L21.413 51.5618L21.3933 51.5607H21.3923L21.3768 51.5582L21.3716 51.5572L21.3556 51.5525L21.3375 51.5453L21.3308 51.5416L21.2057 51.4786L21.0879 51.414L20.9773 51.3468L20.8745 51.2781L20.7784 51.2068L20.69 51.1339L20.6089 51.059L20.5355 50.982L20.4301 51.1277L20.3185 51.2662L20.2012 51.3964L20.0807 51.5189L19.9588 51.6326L19.8374 51.7385L19.718 51.8352L19.6022 51.9235L19.3903 52.0729L19.2157 52.1845L19.0922 52.2568L19.0348 52.2884L18.9945 52.3028L18.9532 52.3075L18.902 52.3003L18.8772 52.2905L18.8539 52.277L18.8188 52.2465L18.7935 52.2073L18.7795 52.1628L18.777 52.1158L18.8002 51.8879L18.8286 51.6755L18.8617 51.4781L18.8989 51.2947L18.9397 51.1257L18.9837 50.9691L19.0307 50.8249L19.0798 50.6926L18.9506 50.7055L18.8183 50.7102L18.6607 50.7035L18.5005 50.6833L18.3382 50.6477L18.2566 50.6234L18.1744 50.595L18.0922 50.5619L18.0096 50.5247L17.9274 50.4823L17.8447 50.4348L17.762 50.3826L17.6799 50.3247L17.5977 50.2617L17.5161 50.1924L17.483 50.1531L17.4628 50.1082L17.4556 50.0596L17.4623 50.0115L17.4117 50.0022L17.3667 49.979L17.3305 49.9439L17.3052 49.8989L17.2975 49.8725L17.2938 49.8462L17.2985 49.794L17.3187 49.7454L17.3336 49.7242L17.3522 49.7046L17.4029 49.6617L17.5212 49.5697L17.6985 49.4457L17.807 49.3769L17.9274 49.3067L18.0587 49.2374L18.1997 49.1708L18.3496 49.1087L18.5072 49.054L18.6721 49.0085L18.8421 48.9749L19.0178 48.9542L19.1067 48.9501L19.1966 48.9494L19.1299 48.7732L19.0705 48.5887L19.0193 48.398L18.9801 48.2027L18.9542 48.0042L18.9475 47.904L18.9444 47.8037L18.9465 47.7035L18.9532 47.6032L18.9651 47.5035L18.9821 47.4043L18.9956 47.3645L19.0173 47.3299L19.0462 47.3004L19.0813 47.2787L19.1211 47.2658L19.162 47.2629ZM48.5064 47.2632H48.5359L48.5648 47.2684L48.5922 47.2782L48.6185 47.2926L48.6537 47.3242L48.6785 47.3629L48.6935 47.4069L48.6956 47.4539L48.6723 47.6818L48.6439 47.8942L48.6108 48.0916L48.5736 48.2745L48.5328 48.4445L48.4889 48.6006L48.4419 48.7448L48.3928 48.8771L48.4848 48.8672L48.5778 48.8616L48.6723 48.8602L48.7679 48.8638L48.8646 48.8721L48.9617 48.8855L49.0599 48.9046L49.1586 48.93L49.2578 48.961L49.3576 48.9987L49.4573 49.0437L49.5576 49.0953L49.6578 49.1543L49.7575 49.2209L49.8573 49.2959L49.9565 49.379L49.9891 49.4173L50.0092 49.4617L50.0164 49.5098L50.0103 49.5584L50.0609 49.5682L50.1059 49.5914L50.142 49.6266L50.1674 49.6715L50.1751 49.6979L50.1788 49.7242L50.1784 49.7506L50.1743 49.7764L50.166 49.8012L50.1541 49.825L50.1387 49.8467L50.1195 49.8658L50.0704 49.9077L49.9552 49.9981L49.7816 50.1196L49.6756 50.1873L49.5578 50.2565L49.4291 50.3252L49.2912 50.3914L49.1444 50.4534L48.9899 50.5087L48.8287 50.5552L48.6617 50.5914L48.4897 50.6141L48.4023 50.6202L48.314 50.6224L48.2762 50.6213L48.3429 50.7975L48.4023 50.982L48.453 51.1722L48.4922 51.3675L48.5176 51.566L48.5243 51.6657L48.5267 51.7659L48.525 51.8662L48.5183 51.9664L48.5064 52.0662L48.4888 52.1654L48.4759 52.2057L48.4552 52.2403L48.4263 52.2692L48.3912 52.2909L48.3545 52.3034L48.3168 52.3075L48.2728 52.3023L48.231 52.2853L48.1788 52.2548L48.0672 52.1851L47.9095 52.0771L47.7189 51.9313L47.615 51.8445L47.508 51.7489L47.399 51.644L47.2899 51.5308L47.1819 51.4084L47.0776 51.2776L46.9778 51.1386L46.8843 50.9908L46.798 51.0673L46.7024 51.136L46.5975 51.198L46.4838 51.2523L46.3613 51.2983L46.2301 51.3376L46.0895 51.3686L45.9407 51.3923L45.919 51.3941L45.8678 51.3869L45.8213 51.3652L45.7836 51.3316L45.7681 51.3104L45.7562 51.2866L45.7324 51.2256L45.7102 51.1579L45.6906 51.0851L45.674 51.007L45.6611 50.9249L45.6528 50.8386L45.6497 50.7492L45.6528 50.6577L45.6616 50.5637L45.6776 50.4691L45.7014 50.374L45.7335 50.2784L45.7748 50.1844L45.8254 50.0908L45.8864 49.9999L45.9582 49.9115H45.2188L45.1831 49.9079L45.15 49.8975L45.1201 49.881L45.0937 49.8593L45.0725 49.8329L45.0565 49.803L45.0462 49.7699L45.0425 49.7348L45.0462 49.6991L45.0565 49.666L45.0725 49.6361L45.0937 49.6102L45.1201 49.5885L45.15 49.5725L45.1831 49.5622L45.2188 49.5585H46.012L45.951 49.465L45.8999 49.3694L45.858 49.2722L45.8249 49.1735L45.8001 49.0748L45.7831 48.9767L45.7723 48.879L45.7676 48.7823L45.7694 48.6883L45.7755 48.5968L45.7869 48.5085L45.8014 48.4237L45.8195 48.3431L45.8407 48.2682L45.8877 48.1348L45.9037 48.0992L45.9115 48.0868L45.9147 48.0821L45.915 48.0811L45.9254 48.0681L45.9257 48.0671L45.9376 48.0557L45.9387 48.0546L45.9511 48.0443L45.9521 48.0432L45.9615 48.0371L45.9666 48.0339H45.967L45.998 48.0189L46.0274 48.0111L46.0579 48.008L46.0884 48.0104L46.1189 48.0182L46.1308 48.0223L46.1354 48.0244L46.1462 48.0301L46.2708 48.0932L46.3876 48.1578L46.4971 48.2249L46.6 48.2937L46.6956 48.3645L46.7834 48.4368L46.864 48.5117L46.9374 48.5882L47.0428 48.4425L47.1545 48.3045L47.2718 48.1738L47.3922 48.0518L47.5141 47.9376L47.6356 47.8317L47.7549 47.7345L47.8707 47.6467L48.0826 47.4973L48.2572 47.3862L48.3807 47.3139L48.4381 47.2829L48.4717 47.2694L48.5064 47.2632ZM19.2994 47.7407L19.302 47.9071L19.318 48.0735L19.3464 48.2389L19.3852 48.4027L19.4322 48.5624L19.486 48.7174L19.5449 48.8657L19.6069 49.0073L19.6932 49.0332L19.7774 49.0631L19.8606 49.0983L19.9418 49.1381L20.0213 49.1825L20.0994 49.2311L20.1753 49.2848L20.2497 49.3427L20.2611 49.2368L20.2823 49.1272L20.3143 49.0156L20.3588 48.904L20.3035 48.8011L20.2441 48.7019L20.181 48.6063L20.1144 48.5149L20.0456 48.427L19.9753 48.3438L19.8312 48.1889L19.6865 48.0504L19.5464 47.929L19.4157 47.8256L19.2994 47.7407ZM48.3044 47.7748L48.1741 47.8642L48.031 47.9696L47.8791 48.0911L47.723 48.227L47.5675 48.3779L47.4181 48.5417L47.3463 48.629L47.2781 48.7189L47.2135 48.8115L47.1535 48.9076L47.1876 48.9866L47.2155 49.0678L47.2331 49.1334L47.246 49.197L47.2589 49.3179L47.4078 49.2269L47.5757 49.1365L47.7612 49.0512L47.8599 49.012L47.9628 48.9758H47.9631L48.0138 48.8709L48.0629 48.7551L48.1109 48.627L48.1559 48.4859L48.1988 48.3314L48.2375 48.1614L48.2732 47.9764L48.3044 47.7748ZM46.1365 48.5598L46.1236 48.6709L46.12 48.7918L46.1298 48.92L46.1407 48.9856L46.1562 49.0518L46.1763 49.1179L46.2027 49.184L46.2347 49.2497L46.2724 49.3148L46.3179 49.3783L46.3701 49.4404L46.4301 49.5003L46.4983 49.5582H46.5489L46.5427 49.4786L46.5324 49.4016L46.5179 49.3261L46.5004 49.2528L46.4554 49.1132L46.4006 48.983L46.3386 48.8616L46.2725 48.7505L46.2043 48.6497L46.1365 48.5598ZM21.0301 48.69L20.9495 48.7391L20.8771 48.7939L20.813 48.8538L20.7577 48.9195L20.8042 49.043L20.8554 48.951L20.9102 48.8616L20.9686 48.7748L21.0301 48.69ZM21.4641 48.7169L21.3582 48.8419L21.2657 48.9649L21.1856 49.0859L21.1174 49.2047L21.0606 49.3205L21.014 49.4347L20.9784 49.5463L20.9515 49.6553L21.0373 49.6042L21.1138 49.5504L21.181 49.4941L21.2399 49.4357L21.291 49.3758L21.3344 49.3148L21.3706 49.2523L21.4006 49.1897L21.4244 49.1267L21.4424 49.0642L21.4559 49.0021L21.4647 48.9417L21.4703 48.8249L21.4641 48.7169ZM48.5958 49.2109L48.4951 49.2166L48.3964 49.228L48.2992 49.2445L48.2046 49.2657L48.1023 49.4259L48.0026 49.5582H49.619L49.4893 49.4668L49.3596 49.3908L49.2299 49.3293L49.1007 49.2818L48.972 49.2471L48.8449 49.2244L48.7193 49.213L48.5958 49.2109ZM19.1227 49.3008L18.9677 49.3122L18.8162 49.3376L18.6685 49.3737L18.5253 49.4202L18.3884 49.474L18.2587 49.5334L18.1372 49.5954L18.0246 49.659H19.5501L19.4591 49.5008L19.3614 49.3148L19.302 49.3076L19.2121 49.3014L19.1227 49.3008ZM19.8694 49.5029L19.9676 49.659H20.0766L19.9748 49.5752L19.8694 49.5029ZM47.3949 49.9111L47.4972 49.9943L47.6036 50.0667L47.5054 49.9111H47.3949ZM47.9225 49.9111L48.0134 50.0687L48.1111 50.2548L48.1705 50.2626L48.2604 50.2687L48.3493 50.2691L48.4382 50.2644L48.5261 50.2551L48.6134 50.2412L48.6992 50.2236L48.8661 50.1776L49.0263 50.1202L49.1772 50.0546L49.3183 49.9838L49.448 49.911L47.9225 49.9111ZM46.5215 49.9143L46.4363 49.965L46.3603 50.0187L46.2936 50.0745L46.2352 50.1329L46.1846 50.1923L46.1412 50.2538L46.105 50.3158L46.0756 50.3784L46.0518 50.4414L46.0332 50.5039L46.0198 50.5654L46.011 50.6264L46.0048 50.7432L46.0105 50.8512L46.1159 50.7267L46.2084 50.6037L46.288 50.4833L46.3562 50.3644L46.413 50.2481L46.459 50.1345L46.4952 50.0233L46.5215 49.9143ZM17.8525 50.0115L17.9445 50.0781L18.0359 50.1365L18.1284 50.1877L18.2199 50.2316L18.3119 50.2678L18.4028 50.2983L18.4938 50.3215L18.5842 50.3396L18.6736 50.3515L18.762 50.3582L18.8498 50.36L18.9361 50.3568L19.0214 50.3496L19.1051 50.3382L19.2679 50.3046L19.3707 50.1439L19.4705 50.0116L17.8525 50.0115ZM20.9236 50.0115L20.9298 50.091L20.9402 50.168L20.9546 50.2435L20.9722 50.3169L21.0166 50.4559L21.0714 50.5866L21.1334 50.7075L21.1996 50.8187L21.2678 50.9194L21.335 51.0093L21.3479 50.8982L21.3515 50.7773L21.3417 50.6497L21.3308 50.584L21.3153 50.5184L21.2947 50.4518L21.2688 50.3856L21.2373 50.32L21.199 50.2554L21.1541 50.1913L21.1019 50.1298L21.0419 50.0693L20.9737 50.0115L20.9236 50.0115ZM47.2228 50.2275L47.2114 50.3334L47.1902 50.443L47.1581 50.5541L47.1137 50.6657L47.169 50.7685L47.2284 50.8677L47.2915 50.9633L47.3576 51.0548L47.4269 51.1427L47.4971 51.2264L47.6413 51.3814L47.786 51.5199L47.9261 51.6413L48.0568 51.7447L48.1731 51.8294L48.171 51.6636L48.1549 51.4972L48.1265 51.3318L48.0882 51.1685L48.0412 51.0088L47.9875 50.8543L47.9291 50.7055L47.8671 50.5644L47.7808 50.5385L47.696 50.5081L47.6128 50.4729L47.5317 50.4331L47.4516 50.3887L47.3735 50.3396L47.2971 50.2859L47.2228 50.2275ZM20.2136 50.2528L20.0648 50.3432L19.8963 50.4337L19.7108 50.5184L19.6121 50.5577L19.5097 50.5933L19.4591 50.6983L19.4095 50.814L19.362 50.9422L19.3165 51.0832L19.2741 51.2383L19.2348 51.4078L19.1992 51.5928L19.1682 51.7948L19.2984 51.7059L19.4415 51.6L19.5935 51.4786L19.7495 51.3427L19.9051 51.1918L20.0544 51.0279L20.1257 50.9411L20.1945 50.8507L20.2585 50.7582L20.319 50.6621L20.2849 50.583L20.257 50.5024L20.2394 50.4373L20.2265 50.3737L20.2136 50.2528ZM46.6678 50.5272L46.6166 50.6192L46.5618 50.7081L46.5034 50.7954L46.4425 50.8796L46.5231 50.8305L46.5949 50.7763L46.659 50.7158L46.7143 50.6502L46.6678 50.5272ZM31.7483 55.084H36.1542L36.2539 55.0892L36.3511 55.1042L36.4446 55.128L36.5345 55.161L36.6198 55.2023L36.7004 55.2514L36.7759 55.3078L36.8456 55.3713L36.9087 55.4406L36.965 55.516L37.0141 55.5972L37.0554 55.6824L37.0885 55.7723L37.1123 55.8659L37.1273 55.963L37.1324 56.0628L37.1273 56.163L37.1123 56.2602L37.0885 56.3537L37.0554 56.4436L37.0141 56.5289L36.965 56.61L36.9087 56.6849L36.8456 56.7547L36.7759 56.8178L36.7004 56.8736L36.6198 56.9232L36.5345 56.964L36.4446 56.9971L36.3511 57.0213L36.2539 57.0358L36.1542 57.0409H31.7483L31.6485 57.0358L31.5514 57.0213L31.4579 56.9971L31.3679 56.964L31.2827 56.9232L31.2021 56.8736L31.1266 56.8178L31.0574 56.7547L30.9938 56.6849L30.9375 56.61L30.8884 56.5289L30.847 56.4436L30.814 56.3537L30.7902 56.2602L30.7752 56.163L30.7701 56.0628L30.7752 55.963L30.7902 55.8659L30.814 55.7723L30.847 55.6824L30.8884 55.5972L30.9375 55.516L30.9938 55.4406L31.0574 55.3713L31.1266 55.3078L31.2021 55.2514L31.2827 55.2023L31.3679 55.161L31.4579 55.128L31.5514 55.1042L31.6485 55.0892L31.7483 55.084ZM31.7483 55.437L31.6847 55.4402L31.6227 55.45L31.5628 55.4655L31.5049 55.4867L31.4506 55.513L31.3989 55.544L31.3509 55.5802L31.3064 55.621L31.2661 55.6655L31.23 55.7135L31.199 55.7652L31.1721 55.82L31.1509 55.8773L31.1359 55.9368L31.1261 55.9988L31.123 56.0628L31.1261 56.1269L31.1359 56.1884L31.1509 56.2484L31.1721 56.3057L31.199 56.3605L31.23 56.4122L31.2661 56.4602L31.3064 56.5047L31.3509 56.545L31.3989 56.5812L31.4506 56.6127L31.5049 56.639L31.5628 56.6597L31.6227 56.6752L31.6847 56.685L31.7483 56.6882H34.2375L34.1357 56.5796L34.0861 56.5181L34.0381 56.4515L33.9921 56.3797L33.9481 56.3021L33.9063 56.2184L33.868 56.129L33.82 56.0257L33.7642 55.9326L33.7022 55.8505L33.6355 55.7771L33.5647 55.713L33.4924 55.6572L33.419 55.6092L33.3456 55.5688L33.2753 55.5347L33.2076 55.5068L33.0882 55.4676L32.9994 55.4459L32.9518 55.4371L31.7483 55.437ZM33.7838 55.437L33.8443 55.4892L33.9027 55.5455L33.959 55.6075L34.0133 55.6742L34.0644 55.7465L34.112 55.8246L34.1559 55.9083L34.1957 55.9977L34.2406 56.099L34.2897 56.1899L34.3424 56.2716L34.3972 56.3434L34.4541 56.4069L34.5114 56.4622L34.5688 56.5098L34.6251 56.5506L34.6794 56.5852L34.7316 56.6132L34.8235 56.6545L34.8954 56.6777L34.9383 56.6881H36.1542L36.2178 56.6849L36.2803 56.6751L36.3397 56.6596L36.3971 56.6389L36.4519 56.6126L36.5035 56.5811L36.5516 56.5449L36.596 56.5046L36.6363 56.4602L36.6725 56.4121L36.7041 56.3604L36.7299 56.3056L36.7511 56.2483L36.7666 56.1883L36.7764 56.1269L36.7796 56.0628L36.7764 55.9987L36.7666 55.9367L36.7511 55.8773L36.7299 55.8199L36.7041 55.7651L36.6725 55.7134L36.6363 55.6654L36.596 55.6209L36.5516 55.5801L36.5035 55.5439L36.4519 55.5129L36.3971 55.4866L36.3397 55.4654L36.2803 55.4499L36.2178 55.4401L36.1542 55.4369L33.7838 55.437ZM17.6633 55.8861H29.0735L29.1092 55.8897L29.1422 55.9L29.1722 55.9166L29.1986 55.9383L29.2203 55.9646L29.2363 55.9946L29.2466 56.0277L29.2503 56.0628L29.2466 56.0984L29.2363 56.1315L29.2203 56.1615L29.1986 56.1873L29.1722 56.209L29.1422 56.2256L29.1092 56.2354L29.0735 56.239H17.6633L17.6277 56.2354L17.5946 56.2256L17.5646 56.209L17.5388 56.1873L17.5171 56.1615L17.5011 56.1315L17.4907 56.0984L17.4871 56.0628L17.4907 56.0277L17.5011 55.9946L17.5171 55.9646L17.5388 55.9383L17.5646 55.9166L17.5946 55.9L17.6277 55.8897L17.6633 55.8861ZM39.2987 55.8861H50.7089L50.744 55.8897L50.7771 55.9L50.8071 55.9166L50.8334 55.9383L50.8551 55.9646L50.8711 55.9946L50.8814 56.0277L50.8851 56.0628L50.8814 56.0984L50.8711 56.1315L50.8551 56.1615L50.8334 56.1873L50.8071 56.209L50.7771 56.2256L50.744 56.2354L50.7089 56.239H39.2987L39.2631 56.2354L39.23 56.2256L39.2 56.209L39.1737 56.1873L39.1525 56.1615L39.1365 56.1315L39.1261 56.0984L39.1225 56.0628L39.1261 56.0277L39.1365 55.9946L39.1525 55.9646L39.1737 55.9383L39.2 55.9166L39.23 55.9L39.2631 55.8897L39.2987 55.8861Z" fill="#2CA02C"/>
<path d="M24.5068 44.7157V53.3948H25.9538V49.779H27.4601V48.3321H25.9538V46.1627H27.7619V44.7157H24.5068ZM29.3587 44.7157L28.364 53.3948H29.8109L30.0507 51.5866H30.9256L31.1669 53.3948H32.6123L31.6191 44.7157H29.3587ZM33.2091 44.7157V53.3948H34.6561V50.381H35.0421L35.6441 53.3948H37.0911L36.4157 49.9593C36.8498 49.6824 37.0663 49.1806 37.0663 48.453V46.6438C37.0663 45.3595 36.4239 44.7157 35.1382 44.7157H33.2091ZM37.6931 44.7157V53.3948H39.1401V48.9051L39.941 53.3948H41.3518L42.2133 48.8323V53.3948H43.6602V44.7157H41.6288L40.6521 49.9469L39.7245 44.7157H37.6931ZM34.6561 46.1627H35.1382C35.4593 46.1627 35.6209 46.3227 35.6209 46.6438V48.453C35.6209 48.7741 35.4593 48.9341 35.1382 48.9341H34.6561V46.1627ZM30.4848 47.2954L30.7742 50.1397H30.2021L30.4848 47.2954Z" fill="white"/>
<path d="M13.6191 21.3637V30.0681C13.6803 30.0006 13.7427 29.9342 13.8145 29.8743C14.017 29.9253 14.2227 29.9973 14.4253 30.0469C14.5025 30.1957 14.5795 30.3221 14.6553 30.4489C14.6581 30.493 14.6621 30.5373 14.6429 30.5828C14.3796 31.1546 14.046 31.6895 13.7814 32.2628C13.7251 32.3895 13.6744 32.5194 13.6191 32.6467V34.5861H15.8226V21.3637H13.6191ZM16.7404 21.3637V34.5861H18.9449V28.9208L20.4596 34.5861H22.6176V21.3637H20.4141V27.029L18.8984 21.3637H16.7404ZM23.5369 21.3637V34.5861H25.7404V29.0764H28.0358V26.8729H25.7404V23.5672H28.4947V21.3637H23.5369ZM29.4125 21.3637V34.5861H31.6175V21.3637H29.4125ZM32.5353 21.3637V34.5861H34.7388V28.9208L36.2545 34.5861H38.4125V21.3637H36.2079V27.029L34.6933 21.3637H32.5353ZM39.3302 21.3637V34.5861H41.5337V21.3637H39.3302ZM42.453 21.3637V23.5672H44.2901V34.5861H46.4936V23.5672H48.3302V21.3637H42.453ZM49.248 21.3637V34.5861H54.2063V32.3826H51.4515V29.0764H53.7474V26.8729H51.4515V23.5672H54.2063V21.3637H49.248Z" fill="white"/>
<defs>
<linearGradient id="paint0_linear_152_109" x1="9.28146" y1="58.3964" x2="55.5788" y2="3.72204" gradientUnits="userSpaceOnUse">
<stop stop-color="#2CA02C"/>
<stop offset="1" stop-color="#2CA02C"/>
</linearGradient>
</defs>
</svg>
