<svg width="69mm" height="69mm" viewBox="0 0 195.591 195.591" version="1.2" xmlns:xlink="http://www.w3.org/1999/xlink" xmlns="http://www.w3.org/2000/svg"><defs><linearGradient id="a"><stop style="stop-color:#fc0;stop-opacity:1" offset="0"/><stop style="stop-color:#ffe680;stop-opacity:1" offset="1"/></linearGradient><linearGradient xlink:href="#a" id="c" x1="26.31" y1="165.533" x2="157.546" y2="10.551" gradientUnits="userSpaceOnUse" gradientTransform="scale(1.33333)"/><clipPath id="b"><path d="M0 0h255.117v198.426H0Zm0 0"/></clipPath></defs><g style="display:inline"><path style="display:inline;fill:url(#c);fill-opacity:1;fill-rule:nonzero;stroke:none;stroke-width:.1;stroke-miterlimit:4;stroke-dasharray:none" d="m71.63 1.166-.921.016-.92.047-.912.076-.906.105-.9.137-.895.166-.885.193-.877.223-.867.25-.858.28-.847.304-.836.334-.824.357-.813.387-.799.41-.785.438-.77.46-.755.487-.739.51-.724.533-.705.559-.688.58-.67.605-.652.625-.63.648-.61.67-.59.69-.568.713-.547.732-.522.752-.5.772-.474.79L18.25 65.923 17.186 67.8l-1.03 1.892-.998 1.909-.963 1.918-.927 1.931-.897 1.944-.861 1.955-.828 1.966-.793 1.977-.76 1.988-.727 1.996-.693 2.006-.658 2.016-.625 2.023-.592 2.032-.557 2.039-.523 2.046-.49 2.051-.455 2.06-.424 2.065-.389 2.07-.353 2.075-.32 2.08-.29 2.084-.252 2.086-.22 2.09-.186 2.091-.152 2.096-.118 2.098-.084 2.097-.05 2.098-.018 2.1.018 2.1.05 2.099.084 2.098.118 2.095.152 2.096.186 2.092.22 2.09.252 2.088.29 2.082.32 2.08.353 2.074.389 2.07.424 2.065.455 2.058.49 2.055.523 2.045.557 2.039.592 2.031.625 2.024.658 2.015.693 2.006.727 1.996.76 1.988.793 1.977.828 1.967.861 1.955.897 1.943.927 1.932.963 1.92.998 1.904 1.03 1.895 1.064 1.879 1.096 1.86 1.123 1.84 1.152 1.815 1.182 1.795 1.209 1.772 1.234 1.746 1.262 1.724 1.289 1.7 1.316 1.675 1.34 1.653 1.365 1.627 1.393 1.603 1.414 1.578 1.441 1.553 1.463 1.527 1.487 1.502 1.51 1.479 1.533 1.449 1.554 1.426 1.578 1.396 1.598 1.371 1.62 1.346 1.64 1.318 1.66 1.29 1.682 1.263 1.699 1.234 1.719 1.208 1.738 1.18 1.758 1.15 1.773 1.123 1.793 1.093 1.809 1.065 1.828 1.035 1.842 1.004 1.859.976 1.875.946 1.89.916 1.905.885 1.92.855 1.933.824 1.95.793 1.96.762 1.975.73 1.987.698 2 .668 2.01.634 2.023.602 2.033.568 2.045.537 2.055.504 2.064.471 2.074.438 2.084.402 2.094.371 2.1.334 2.109.3 2.117.266 2.123.233 2.133.197 2.137.16 2.142.127 2.15.09 2.155.055 2.16.017 2.16-.017 2.155-.055 2.15-.09 2.143-.127 2.136-.16 2.133-.197 2.123-.233 2.117-.265 2.11-.301 2.1-.334 2.093-.371 2.084-.402 2.072-.438 2.067-.47 2.054-.505 2.045-.537 2.033-.568 2.024-.602 2.01-.634 2-.668 1.986-.698 1.975-.73 1.96-.762 1.948-.793 1.933-.824 1.92-.855 1.907-.885 1.888-.916 1.875-.946 1.86-.976 1.843-1.004 1.827-1.035 1.808-1.065 1.793-1.093 1.776-1.123 1.755-1.15 1.739-1.18 1.718-1.208 1.702-1.234 1.68-1.264 1.66-1.289 1.64-1.318 1.62-1.346 1.599-1.37 1.576-1.397 1.555-1.426 1.533-1.45 1.51-1.478 1.486-1.502 1.465-1.527 1.437-1.553 1.416-1.578 1.393-1.603 1.365-1.627 1.342-1.653 1.314-1.676 1.287-1.699 1.264-1.724 1.235-1.746 1.209-1.772 1.18-1.795 1.154-1.814 1.123-1.84 1.095-1.861 1.065-1.88 1.031-1.894.996-1.904.963-1.92.928-1.932.894-1.943.863-1.955.829-1.967.793-1.977.76-1.988.726-1.996.691-2.006.66-2.015.625-2.024.59-2.031.559-2.04.523-2.044.49-2.055.456-2.058.423-2.065.387-2.07.356-2.074.322-2.08.287-2.082.252-2.088.22-2.09.186-2.092.153-2.096.117-2.095.084-2.098.05-2.1.018-2.1-.017-2.099-.051-2.098-.084-2.097-.117-2.098-.153-2.096-.185-2.091-.221-2.09-.252-2.086-.287-2.084-.322-2.08-.356-2.074-.386-2.07-.424-2.065-.455-2.06-.49-2.052-.524-2.046-.559-2.04-.59-2.03-.625-2.024-.66-2.016-.691-2.006-.727-1.996-.76-1.988-.792-1.977-.829-1.966-.863-1.955-.894-1.944-.928-1.931-.963-1.918-.996-1.909-1.031-1.892-1.065-1.88-29.39-50.905-.475-.791-.498-.772-.523-.752-.547-.732-.569-.713-.588-.69-.61-.67-.632-.648-.65-.625-.67-.605-.69-.58-.705-.56-.722-.532-.74-.51-.756-.486-.77-.461-.785-.438-.797-.41-.812-.387-.825-.357-.836-.334-.847-.305-.858-.28-.869-.25-.875-.222-.887-.193-.892-.166-.9-.137-.907-.105-.914-.076-.918-.047-.922-.016z" transform="scale(.75)"/><g style="display:inline;fill:#217821"><path style="display:inline;fill:#217821;fill-opacity:1;fill-rule:nonzero;stroke:none;stroke-width:.075;stroke-miterlimit:4;stroke-dasharray:none" d="m57.226 12.891-.508.009-.505.025-.504.042-.5.059-.495.074-.492.091-.488.107-.483.123-.478.138-.473.154-.467.168-.46.183-.454.198-.447.211-.44.227-.433.24-.425.255-.416.267-.407.281-.399.294-.39.308-.377.32-.37.332-.358.346-.347.356-.337.369-.325.38-.312.393-.302.403-.287.415-.276.424-.26.437-20.168 34.93-.7 1.234-.677 1.245-.655 1.253-.633 1.26-.61 1.27-.588 1.278-.567 1.285-.544 1.293-.521 1.3-.5 1.305-.477 1.312-.456 1.319-.432 1.324-.411 1.33-.389 1.336-.366 1.34-.344 1.345-.322 1.349-.3 1.352-.277 1.358-.255 1.36-.233 1.365-.211 1.366-.19 1.368-.166 1.372-.144 1.374-.123 1.375-.1 1.377-.077 1.377-.056 1.38-.032 1.38-.012 1.38.012 1.378.032 1.38.056 1.378.078 1.379.1 1.377.122 1.374.144 1.374.167 1.372.189 1.368.21 1.367.234 1.364.255 1.36.278 1.357.299 1.354.322 1.349.344 1.345.366 1.34.389 1.334.411 1.33.432 1.325.456 1.318.477 1.313.5 1.305.521 1.299.544 1.292.567 1.285.587 1.277.611 1.27.633 1.261.655 1.253.678 1.245.699 1.235.72 1.223.739 1.208.757 1.194.776 1.18.794 1.162.812 1.149.83 1.134.847 1.116.864 1.101.882 1.086.898 1.07.914 1.054.93 1.037.947 1.021.962 1.003.977.988.993.971 1.007.954 1.022.934 1.036.92c3.113 2.743 6.466 5.192 9.933 7.466l1.167.737 1.178.718 1.188.7 1.201.681 1.212.661 1.221.64 1.232.623 1.242.6 1.253.583 1.261.563 1.271.54 1.28.522 1.29.5 1.296.48 1.307.46 1.314.438 1.321.416 1.33.397 1.336.373 1.343.353 1.351.331 1.358.31 1.362.287 1.37.266 1.375.242 1.382.22 1.385.199 1.39.174 1.398.152 1.4.13 1.404.106 1.409.082 1.412.059 1.416.036 1.42.012 1.42-.012 1.416-.036 1.412-.059 1.41-.082 1.404-.107 1.4-.129 1.396-.152 1.392-.174 1.386-.2 1.381-.22 1.375-.24 1.37-.267 1.364-.288 1.356-.309 1.35-.33 1.344-.354 1.338-.373 1.328-.397 1.323-.416 1.314-.438 1.305-.46 1.298-.48 1.289-.5 1.28-.522 1.272-.54 1.261-.563 1.252-.583 1.243-.6 1.232-.623 1.221-.64 1.212-.66 1.2-.682 1.189-.7 1.179-.718 1.166-.737 1.154-.757 1.141-.775 1.131-.794 1.118-.811 1.104-.83 1.092-.848 1.078-.865 1.063-.885 1.052-.9 1.036-.92 1.022-.935 1.008-.954.992-.971.977-.988.962-1.003.947-1.02.93-1.038.914-1.053.898-1.071.882-1.086.864-1.101.846-1.116.83-1.134.813-1.149.793-1.163.777-1.179.757-1.194.738-1.208.721-1.223.699-1.235.678-1.245.655-1.253.633-1.26.61-1.271.588-1.277.567-1.285.543-1.292.522-1.3.5-1.304.477-1.313.455-1.318.433-1.325.411-1.33.388-1.334.367-1.34.344-1.345.322-1.35.299-1.353.278-1.356.255-1.361.233-1.364.211-1.367.189-1.368.167-1.372.143-1.374.122-1.374.101-1.377.078-1.379.055-1.378.033-1.38.011-1.378-.011-1.38-.033-1.38-.055-1.38-.078-1.377-.101-1.377-.122-1.375-.143-1.374-.167-1.372-.189-1.368-.211-1.366-.233-1.366-.255-1.359-.278-1.358-.299-1.352-.322-1.35-.344-1.344-.367-1.34-.388-1.336-.411-1.33-.433-1.324-.455-1.319-.478-1.312-.5-1.305-.52-1.3-.544-1.293-.567-1.285-.589-1.277-.61-1.27-.632-1.261-.655-1.253-.678-1.245-.699-1.235-20.168-34.93-.26-.436-.276-.424-.287-.415-.302-.403-.312-.392-.325-.381-.335-.37-.35-.355-.358-.346-.368-.333-.379-.319-.39-.308-.398-.294-.407-.281-.416-.267-.425-.255-.432-.24-.44-.227-.447-.21-.454-.199-.461-.183-.466-.168-.473-.154-.478-.138-.483-.123-.488-.107-.492-.09-.495-.075-.5-.059-.503-.042-.506-.025-.508-.009zM39.16 84.683c.574.145 1.157.349 1.731.49.22.421.437.78.652 1.139.008.125.02.25-.035.38-.746 1.62-1.692 3.136-2.442 4.761-2.765 6.227-5.066 12.73-7.19 19.156-.153.45-.434.847-.207 1.332.418-.223.702-.62.987-.957 1.266-1.414 2.676-2.586 4.219-3.649a3.33 3.33 0 0 1 .773-.5 3.535 3.535 0 0 1 1.106-.273c1.371-.11 2.497.68 2.805 2.22a9.093 9.093 0 0 1 .062 3.187c-.336 2.093-.73 4.253-1.058 6.405-.133.7-.262 1.461-.332 2.157 0 .812-.058 1.629.614 2.203.496-.04.608-.171.898-.507 1.039-1.082 1.94-2.344 2.777-3.66 1.789-2.708 3.507-5.535 5.292-8.305.424-.622.786-1.348 1.533-1.803 1.438-2.083 3.08-3.806 4.84-4.584a4.25 4.25 0 0 1 1.167-.28c1.867-.145 3.714 1.084 3.992 3.002.093.434.074.934.531 1.211.735.57.668 1.324.535 2.023-.09.446-.312.778-.472 1.165a98.678 98.678 0 0 0-2.93 8.055c-.19.77-.511 1.48-.257 2.335.676-.176 1.08-.586 1.55-.996 1.916-1.638 3.632-3.605 4.927-5.807a349.861 349.861 0 0 1 1.944-7.126c.188-.828.497-1.665.813-2.442.153-.45.425-.91.706-1.308.446-.723.739-.997 1.235-1.036.375-.03.887.118 1.657.372.238.606 1.026 1.105.964 1.925-.051.13.215.297.414.469.469.398.82.875 1.11 1.352.503.836 1.226 1.282 2.097 1.211.683-.05 3.348-1.203 4.012-1.504.562-.254 1.52-1.169 2.33-1.485.254-.659.525-1.307.841-1.956.368-.906.793-1.879 1.758-2.332 1.617.688 1.617.688 2.52 1.805a31.338 31.338 0 0 0-3.558 8.86c.68-.118.77-.564.996-.896 2.097-2.73 4.539-5.114 7.523-6.977.531-.418 1.129-.777 1.812-.832 1.43-.113 2.387.125 2.942 1.586.37.723.433 1.532.492 2.278.062-.004.125-.012.187-.016.496-.039.598-.359.825-.628 1.086-1.336 4.266-4.654 6.047-5.107.18-.078.43-.097.617-.113.996-.078 1.914.474 2.254 1.575.16.488.199.984.183 1.55a16.964 16.964 0 0 1-.66 3.56c-.495 1.664-.992 3.27-1.492 4.875-.5 1.601-.75 3.187-.874 4.823-.032.38-.064.759.085 1.06.129.05.191.045.316.037.246-.019.414-.284.586-.483 3.156-3.629 5.403-7.688 7.704-11.875.109-.196.284-.336.464-.476a.815.815 0 0 1 .111-.058c1.517-2.65 3.458-4.914 5.565-5.08.934-.074 2.946.833 3.028 1.891.133.868.504 1.586.757 2.445a6.48 6.48 0 0 1 .36 2.16c.038.497-.106 1.071.191 1.677.074.12.204.17.391.155 1.18-.094 4.335-2.155 4.82-2.382.046-.033.09-.058.133-.085a81.19 81.19 0 0 1 2.023-5.029c.43-.91.852-1.882 1.743-2.515.91.43 2.042.528 2.628 1.606-.422.972-.656 1.996-1.343 2.8a3.386 3.386 0 0 0-.79 1.875c.008.125-.046.195-.042.254.062-.004.116-.07.241-.082 2.196-2.363 6.017-6.293 9.126-6.54 1.254.028 2.184.704 2.473 1.997.266.98.218 1.984-.016 2.945-.316 1.59-.598 1.989-1.106 3.466-.652 2.054-1.375 3.987-2.027 6.042-.262.648-.331 1.344-.472 1.98-.047.192-.09.446.05.622.066.058.192.046.255.042.25-.02.421-.222.534-.354 2.52-2.204 6.313-7.259 7.899-10.2.221-.398.386-.846.709-1.212a46.782 46.782 0 0 1 2.612-4.933c.437-.785 1.073-1.461 1.73-1.887.058-.004.059-.004.121-.012.438-.03.582.207.902.305.32.102.582.27.844.372.356.54.703 1.012.383 1.723-.27.523-.224 1.144-.954 1.39-.305.086-.457.535-.687.804-2.09 3.672-3.602 7.547-4.465 11.684-.144.512-.293 1.024 0 1.567.063-.008.188-.016.25-.023.56-.043.965-.45 1.379-.736a33.518 33.518 0 0 0 4.797-5.07c2.606-3.46 5.214-6.92 7.62-10.554.504-.726.977-1.078 1.477-1.117.309-.024.626.011 1.017.171.64.2.983.61 1.097 1.228.035.437 0 .812-.028 1.254a424.486 424.486 0 0 0-2.054 12.054c-.187.828-.5 1.605-.372 2.472l-.054.066.063-.003c.062-.008.12-.011.12-.011.313-.024.552-.169.724-.368 2.96-2.176 2.1-1.169 4.573-3.93.285-.336.637-.675 1.13-.777.827 1 .828 1 1.668 1.308.015.184.089.367.108.617.074.117.145.24.223.42-.73 1.058-1.6 1.94-2.593 2.835-2.8 2.598-2.066 1.6-5.144 3.847-.414.281-.77.562-1.184.844-.898.507-1.344 1.23-1.645 2.195-1.887 7.035-6.961 18.891-15.234 19.54a7.434 7.434 0 0 1-2.395-.188c-2.864-.586-3.914-2.82-4.023-5.004-.223-5.988 5.242-9.738 9.926-12.234 2.766-1.469 5.453-3.122 8.07-4.832.836-.504 1.347-1.168 1.577-2.25.7-3 1.337-6.05 1.845-9.16.039-.317.14-.574-.137-.926-.539.29-.805.874-1.145 1.339-2.485 3.45-7.507 10.418-12.109 10.781-1.566 0-2.766-.971-3.079-2.51a6.553 6.553 0 0 1-.14-1.566c-2.282 2.755-4.737 5.014-6.633 5.163-1.559.125-2.82-.845-3.082-2.575-.223-1.234-.067-2.437.21-3.648.372-1.656 1-3.208 1.5-4.813.618-1.676.885-2.32 1.498-4.058.203-.582.473-1.165.422-1.79-.133-.113-.196-.108-.321-.096-.188.011-.363.152-.546.23-4.625 3.242-8.802 9.832-11.231 14.781-.332.528-.598 1.109-1.062 1.585-.399.532-.63.739-.942.762-.188.016-.446-.09-.895-.242a3.693 3.693 0 0 1-.898-.241c-.75-.817-.762-1.754-.462-2.72.735-2.044 1.425-4.104 2.124-6.159-.178.072-.368.149-.521.214-.488.16-3.922 1.06-4.078 1.446-1 3.207-3.954 8.636-7.669 9.179-.187.015-.429.098-.616.11-1.926.152-3.2-.876-3.802-2.954-.15-.556-.249-1.117-.304-1.68a84.384 84.384 0 0 1-2.067 2.676c-1.024 1.332-2.308 2.497-4.05 2.637-1.743.137-2.95-.894-3.169-2.883-.262-2.547.102-5.078.848-7.516.434-1.66.997-3.269 1.434-4.87.16-.325.316-.712.101-1.071-.433.035-.492.102-.778.438-3.035 2.804-6.23 8.312-7.753 12.066-.375.777-.875 1.57-1.317 2.355-.562-.02-1.061.02-1.561 0-.418-.531-1.059-.734-1.36-1.336-.047-.62.218-1.203.355-1.84.953-3.02 1.969-6.039 2.535-9.152.086-.508.297-1.027.07-1.507-.128-.055-.195-.11-.32-.101-.188.015-.359.214-.535.354-4.914 3.582-8.297 9.106-10.75 14.555-.688 1.558-1.308 3.235-2.511 4.645-.566-.02-1.13-.04-1.633-.063-.403-.344-.68-.695-1.083-1.039-.101-.492-.022-1.063.126-1.574 1.013-4.53 2.024-9.092 3.368-13.572-1.324.596-2.734 1.065-4.033 1.166-.996.078-2.003-.031-3.05-.574-.39-.22-.785-.437-1.41-.453-2.051 4.168-3.84 8.503-5.492 12.952-.43.098-.74.121-1.11.211-.344-.41-.96-.297-1.355-.516-.452-.24-.704-.472-.812-.783-.248.241-.502.48-.763.713-.707.559-1.418 1.056-2.187 1.614-.781.438-1.497.871-2.43.945-1.43.11-2.5-.746-3.003-2.395-.024-.25-.043-.499-.246-.73-.614.173-.888.696-1.294 1.102-1.113.965-2.402 2.067-3.956 2.192-1.618.125-3.075-.888-3.462-2.61a6.268 6.268 0 0 1-.135-.63c-.596.82-1.203 1.655-1.904 2.42-.988.952-2.11 1.792-3.543 1.905-.996.078-1.847-.418-2.492-1.43-1.137-1.726-1.543-3.699-1.2-5.73.332-2.152.724-4.313 1.122-6.41.067-.754.325-1.465.141-2.199-.566-.02-.849.378-1.146.589-4.332 3.785-6.73 9.106-9.082 14.235-.367.907-.726 1.87-1.359 2.61-1.375-.016-1.636-.122-2.843-1.154-.074-.933.235-1.77.485-2.601 3.007-11.88 7.495-25.629 12.811-36.816.535-1.168 1.137-2.278 2.133-3.11zm80.793 20.437c-.836.504-1.094 1.212-1.023 2.083.117.68.535 1.211 1.363 1.395.332-1.34.371-2.407-.34-3.478zm-62.25 2.142c-1.222.41-1.28.414-2.085 1.355-2.75 3.219-4.52 6.989-5.9 10.915a5.39 5.39 0 0 0-.23 1.085c-.09.445-.121.82.16 1.238.063-.008.064-.008.126-.012.684-.055 1.023-.518 1.426-.987a17.201 17.201 0 0 0 2.55-3.396c.933-1.636 1.801-3.33 2.805-4.913 1.121-1.652.984-3.394 1.148-5.285zm58.207 2.121c-1.625 2.446-2.269 6.188-1.331 8.555.254.043.445.089.633.073 1.68-.133 3.362-3.394 4.01-4.695.168-.265.454-.6.298-1.027-.656-.382-1.308-.71-1.965-1.094-.664-.449-1.035-1.234-1.645-1.812zm44.778 14.066c-.426.156-.606.235-.79.313-2.273 1.305-4.491 2.543-6.769 3.851-2.832 1.41-6.472 4.453-6.394 7.824-.012 1.441.613 2.207 2.051 2.22.187-.016.375-.028.562-.043 5.973-.473 9.457-8.696 11.207-13.465.046-.192.04-.318.133-.7z"/></g><path style="display:inline;fill:#2ca02c;fill-opacity:1;fill-rule:nonzero;stroke:none;stroke-width:.075;stroke-miterlimit:4;stroke-dasharray:none" d="m96.7 33.485.11.006.108.03.098.055.085.076.182.216.392.505.25.35.275.409.288.464.295.513.287.56.275.6.249.636.113.33.104.338.092.344.08.351.068.356.054.362.037.366.022.371.003.374-.016.376.742-.296.781-.27.402-.12.408-.112.415-.098.42-.085.424-.07.426-.053.429-.037.43-.018.43.005.43.025.425.048.425.073.114.038.098.062.082.082.06.1.037.11.01.117-.016.114-.045.107-.129.224-.299.476-.463.67-.293.39-.33.418-.371.438-.41.45-.449.457-.485.454-.522.447-.56.43-.595.407-.31.192-.32.185.18.168.169.18.161.19.152.2.145.211.135.223.126.233.119.243.108.255.101.263.091.276.082.287.14.602.103.645.005.083-.009.08-.022.078-.033.072-.044.066-.056.059-.064.05-.072.039-.179.066-.202.063-.265.073-.322.072-.372.063-.415.045-.448.016-.434-.016-.451-.054-.23-.044-.231-.056-.235-.067-.233-.082-.234-.097-.233-.111-.231-.129-.23-.145-.228-.164-.222-.182-.22-.202-.214-.222v3.603l-.01.101-.03.094-.046.085-.062.075-.073.06-.085.045-.094.03-.1.01-.1-.01-.094-.03-.085-.045-.075-.06-.061-.075-.046-.085-.029-.094-.01-.1v-3.748l-.21.171-.214.157-.215.142-.217.128-.221.112-.221.102-.223.087-.222.078-.444.12-.44.08-.43.045-.42.013-.46-.016-.431-.043-.399-.061-.359-.075-.312-.08-.26-.075-.34-.119-.07-.026-.01-.005-.01-.006-.017-.008-.07-.046-.062-.055-.002-.002-.006-.006-.054-.072v-.001l-.042-.086-.002-.003-.023-.091-.008-.095.012-.096v-.002l.035-.107.281-.557.29-.52.3-.483.308-.449.318-.411.328-.377.336-.338.346-.303-.315-.208-.307-.217-.588-.459-.556-.483-.523-.5-.486-.508-.453-.51-.414-.502-.377-.488-.34-.466-.298-.435-.478-.744-.309-.527-.133-.245-.046-.126-.011-.13.025-.13.058-.122.09-.101.108-.074.126-.04.138-.008 1.02.106.941.131.869.153.798.173.733.189.67.203.611.216.555.225-.06-.388-.04-.395-.026-.402-.003-.406.02-.411.04-.416.068-.42.092-.424.12-.425.151-.428.179-.427.212-.43.246-.43.28-.43.318-.427.355-.426.074-.07.084-.05.09-.034.096-.016.095.003.094.02.09.041.08.059.052.053.044.057v-.406l.006-.076.018-.074.064-.134.046-.059.055-.05.062-.044.07-.032zm-.47 1.437-.05.062-.352.426-.31.428-.27.428-.232.429-.194.426-.16.426-.126.424-.095.421-.066.416-.04.414-.011.408.01.402.034.395.054.388.072.38.089.372.502.307.437.304.38.294.327.28zm1 .563v7.511l.376-.23.438-.253.495-.27.548-.282.053-.38.028-.448-.005-.447-.033-.442-.06-.437-.085-.43-.107-.422-.125-.413-.14-.401-.154-.39-.166-.375-.173-.362-.177-.344-.363-.633Zm-9.063 5.23.356.547.445.636.532.699.297.363.317.368.335.369.356.367.374.36.39.354.41.34.424.323.443.305.457.281.363-.165.372-.132.376-.094.36-.056.34-.022.318.006-.21-.315-.217-.347-.222-.376-.218-.405-.214-.43-.203-.454-.19-.478-.172-.498-.475-.234-.528-.229-.59-.22-.657-.207-.725-.194-.8-.174-.88-.155zm16.87.598-.337.014-.336.024-.336.04-.335.05-.665.132-.654.168-.638.2-.619.222-.591.24-.561.25-.118.414-.145.403-.171.394-.198.385-.224.376-.25.367-.277.356-.303.347.265.003.275.017.284.031.29.047.296.066.298.088.297.108.297.133.487-.256.467-.278.447-.298.427-.313.406-.325.385-.334.364-.339.343-.341.319-.338.297-.333.526-.637.43-.574.333-.482-.386-.024zm-9.874 1.846.26.524.272.484.272.436.262.389v-.875l-.237-.223-.378-.351Zm3.523.145-.492.281-.41.246-.554.36v1.145l.236-.236.22-.242.203-.246.189-.252.176-.256.158-.26.145-.269zm-3.528 3.25-.287.02-.307.05.404.139.412.112.42.088.43.06v-.287l-.198-.066-.248-.06-.293-.042zm3.194.14-.333.009-.3.026-.267.037-.222.04v.248l.488-.032.474-.062.465-.088.452-.114-.387-.048zm-5.035.482-.32.238-.313.277-.306.314-.299.351.474-.275.467-.24.463-.205.455-.173-.313-.138zm7.226.145-.571.22-.592.187.363.173.356.189.346.202.338.215.329.227.319.238.31.246.302.255-.129-.352-.145-.328-.162-.305-.179-.281-.196-.258-.214-.234-.229-.21zm-4.314.74-.303.013-.302.029-.303.044-.303.058-.305.075-.303.09-.305.104-.304.12-.305.134-.305.151-.306.166-.305.18-.306.196-.306.211-.306.227-.306.242.488.097.272.036.289.025.301.012.314-.008.324-.027.326-.052.333-.079.334-.107.332-.14.328-.176.324-.215.314-.257.304-.3.29-.349zm1 .064v.286l.002.004.125.226.13.212.271.382.287.331.298.282.306.235.313.195.317.155.318.12.316.09.312.059.305.035.294.013.283-.006.268-.02.249-.033.23-.04-.571-.518-.288-.236-.285-.222-.289-.208-.287-.194-.288-.18-.289-.164-.29-.15-.289-.137-.29-.122-.291-.108-.29-.094-.292-.079-.293-.064zm-56.863 1.141h42.047l.101.01.094.03.085.045.074.06.062.075.045.085.03.093.01.102-.01.1-.03.093-.045.085-.062.073-.074.062-.085.046-.094.03-.101.01H40.366l-.101-.01-.094-.03-.085-.046-.073-.062-.062-.073-.045-.085-.03-.094-.01-.1.01-.1.03-.094.045-.085.062-.075.073-.06.085-.045.094-.03zm69.7 0h42.047l.1.01.093.03.085.045.075.06.062.075.045.085.03.093.01.102-.01.1-.03.093-.045.085-.062.073-.075.062-.085.046-.093.03-.1.01h-42.047l-.1-.01-.095-.03-.085-.046-.074-.062-.062-.073-.045-.085-.03-.094-.01-.1.01-.1.03-.094.045-.085.062-.075.074-.06.085-.045.094-.03zm-55.749 84.708.114.017.107.044.15.086.316.198.447.308.542.413.294.246.304.27.309.298.309.321.304.347.298.37.283.395.265.419.244-.217.271-.195.298-.176.322-.152.347-.132.374-.11.398-.088.422-.065.083-.005.081.009.078.022.07.033.066.044.057.056.048.064.04.072.067.173.063.192.056.206.047.221.036.235.024.244.009.252-.008.261-.026.265-.045.27-.068.27-.09.27-.118.267-.143.265-.175.258-.203.25h2.097l.1.01.094.03.085.047.074.061.06.074.047.085.03.093.01.1-.01.101-.03.094-.047.085-.06.073-.074.061-.085.046-.094.03-.1.01H60.83l.173.265.145.272.118.277.094.28.072.28.05.28.029.278.013.274-.004.266-.018.26-.03.251-.043.24-.051.228-.059.214-.135.376-.025.057-.022.044-.027.044-.002.001-.003.005-.06.067-.001.001-.003.003-.031.027-.004.003-.005.003-.038.025-.026.016-.012.006-.051.025-.059.014-.058.01-.06.002-.055-.003h-.003l-.044-.007-.014-.003-.046-.013-.05-.02-.02-.01-.354-.18-.334-.182-.314-.19-.291-.196-.273-.202-.25-.206-.23-.213-.208-.218-.3.413-.316.393-.332.369-.341.347-.346.322-.344.3-.339.274-.328.25-.6.424-.496.317-.35.205-.162.09-.114.04-.118.013-.145-.02-.07-.028-.066-.038-.1-.087-.071-.11-.04-.127-.007-.133.066-.646.08-.602.094-.56.106-.52.115-.479.125-.444.133-.408.14-.375-.367.036-.375.013-.447-.019-.454-.057-.46-.1-.231-.07-.233-.08-.233-.094-.234-.105-.233-.12-.235-.135-.234-.148-.233-.164-.233-.179-.231-.196-.094-.112-.057-.127-.02-.138.018-.136-.143-.026-.128-.066-.102-.1-.072-.127-.022-.075-.01-.075.013-.148.057-.137.043-.06.052-.056.144-.122.335-.26.503-.352.307-.195.342-.2.372-.195.4-.19.424-.175.447-.155.467-.13.482-.094.498-.06.252-.01.255-.003-.189-.5-.168-.522-.145-.54-.111-.554-.074-.563-.019-.284-.009-.284.006-.285.02-.284.033-.282.048-.282.038-.112.062-.099.082-.083.1-.062.112-.036zm83.181 0h.084l.082.015.077.028.075.04.1.09.07.11.043.125.006.133-.066.646-.081.602-.094.56-.105.518-.116.482-.124.442-.134.41-.139.374.26-.028.265-.016.268-.004.27.01.275.024.275.038.278.054.28.072.281.088.283.107.283.127.284.147.284.167.283.189.283.212.28.236.093.109.057.125.02.137-.017.137.144.028.127.066.103.1.072.127.022.075.01.075-.001.074-.012.074-.023.07-.034.067-.044.062-.054.054-.14.119-.326.256-.492.344-.3.192-.334.196-.365.195-.391.188-.416.175-.438.157-.457.132-.473.103-.488.064-.248.018-.25.006-.107-.003.189.499.168.523.144.539.111.554.072.562.019.283.007.284-.005.284-.02.284-.033.283-.05.281-.036.115-.059.098-.082.082-.1.061-.103.036-.107.011-.125-.014-.118-.049-.148-.086-.317-.198-.447-.306-.54-.413-.295-.246-.303-.271-.309-.298-.309-.32-.306-.348-.296-.37-.283-.394-.265-.42-.244.218-.271.195-.298.175-.322.154-.347.13-.372.112-.399.088-.422.067-.061.005-.145-.02-.132-.062-.107-.095-.044-.06-.034-.068-.067-.172-.063-.192-.056-.207-.047-.221-.036-.233-.024-.245-.009-.253.01-.26.024-.266.046-.268.067-.27.091-.27.117-.267.144-.265.173-.258.203-.25h-2.096l-.101-.01-.094-.03-.085-.047-.075-.062-.06-.074-.045-.085-.03-.094-.01-.1.01-.1.03-.094.045-.085.06-.074.075-.061.085-.046.094-.029.101-.01h2.248l-.172-.265-.145-.271-.119-.276-.094-.28-.07-.28-.048-.278-.031-.276-.013-.274.005-.267.017-.26.033-.25.04-.24.052-.228.06-.213.133-.378.046-.1.022-.036.009-.013v-.003l.03-.037.001-.003.034-.032.003-.003.035-.03.003-.002.026-.018.015-.009.089-.042.083-.022.087-.01.086.008.086.022.034.011.013.006.031.016.353.18.331.182.31.19.292.195.271.201.25.205.228.213.208.216.299-.413.316-.39.333-.371.34-.346.347-.324.344-.3.338-.276.328-.249.6-.423.496-.315.35-.205.163-.088.095-.038zm-82.791 1.354.007.472.046.471.08.47.11.463.133.453.153.44.167.42.175.401.245.074.239.085.236.1.23.112.225.126.221.138.216.152.21.164.033-.3.06-.31.09-.317.127-.317-.157-.291-.168-.281-.18-.271-.188-.26-.195-.249-.2-.235-.408-.44-.41-.392-.397-.344-.37-.293zm82.219.097-.37.253-.405.299-.431.344-.442.385-.441.428-.424.465-.203.247-.194.255-.183.262-.17.273.097.224.08.23.049.186.037.18.036.343.422-.258.476-.256.526-.242.28-.111.291-.103h.001l.144-.297.139-.328.136-.364.128-.4.121-.438.11-.482.101-.524zm-6.145 2.225-.037.315-.01.343.027.363.031.186.044.187.057.188.075.187.09.186.108.185.129.18.148.176.17.17.193.164h.143l-.017-.226-.03-.218-.04-.214-.05-.208-.128-.395-.155-.37-.176-.344-.187-.315-.193-.285zm-71.168.369-.229.14-.205.154-.182.17-.156.186.131.35.145-.26.156-.254.165-.246zm1.23.076-.3.355-.262.348-.227.343-.194.337-.161.328-.132.324-.1.316-.077.31.243-.146.217-.152.19-.16.167-.165.145-.17.123-.173.103-.177.085-.178.067-.178.052-.177.038-.176.025-.172.016-.33zm76.909 1.4-.286.017-.28.032-.275.047-.268.06-.29.454-.283.375h4.582l-.368-.26-.367-.215-.368-.174-.366-.135-.365-.098-.36-.064-.356-.033zm-83.546.255-.44.033-.429.072-.419.102-.406.132-.388.152-.367.169-.345.175-.319.18h4.324l-.258-.448-.276-.527-.169-.02-.255-.018zm2.117.573.278.443h.309l-.289-.238zm78.024 1.157.29.236.302.205-.278-.44zm1.496 0 .258.447.277.528.168.022.255.017.252.001.252-.013.249-.027.248-.04.243-.049.473-.13.454-.163.428-.186.4-.2.367-.207zm-3.971.01-.242.143-.215.152-.19.159-.165.165-.143.169-.123.174-.103.176-.083.177-.068.179-.052.177-.038.174-.025.173-.018.331.016.306.299-.353.262-.348.226-.342.193-.337.161-.33.13-.322.103-.315zm-81.267.275.261.189.26.165.261.145.26.125.26.102.258.087.258.066.256.051.254.034.25.019.25.005.244-.01.242-.02.237-.032.461-.095.292-.456.283-.375zm8.706 0 .017.225.03.219.04.214.05.208.127.394.155.37.176.343.187.315.193.286.19.254.037-.315.01-.342-.027-.362-.03-.186-.045-.186-.058-.19-.074-.187-.089-.186-.108-.183-.128-.181-.148-.175-.17-.171-.193-.164zm74.549.612-.033.3-.06.311-.09.315-.127.316.157.292.169.281.178.271.188.26.196.248.2.238.408.44.41.392.397.344.37.293.33.24-.006-.47-.045-.472-.08-.469-.11-.462-.132-.453-.153-.438-.165-.422-.176-.4-.245-.073-.24-.087-.236-.1-.23-.112-.227-.126-.221-.139-.217-.152zm-76.562.072-.422.256-.477.257-.526.24-.28.111-.29.101-.144.298-.14.328-.135.363-.129.4-.12.44-.111.48-.101.524-.088.573.369-.252.406-.3.43-.344.443-.386.44-.427.424-.465.202-.246.195-.256.182-.262.171-.273-.097-.224-.079-.229-.05-.184-.036-.18zm74.988.778-.145.26-.155.252-.165.248-.173.239.228-.14.204-.153.182-.172.156-.186zm-42.291 12.917h12.49l.282.014.275.043.265.067.255.094.242.117.229.14.213.159.198.18.179.196.16.214.139.23.117.242.094.255.067.265.042.275.015.283-.015.284-.042.276-.067.265-.094.255-.117.241-.14.23-.16.213-.178.198-.198.178-.213.158-.229.141-.242.116-.255.093-.265.07-.275.04-.283.015h-12.49l-.282-.015-.275-.04-.265-.07-.255-.093-.242-.116-.228-.14-.214-.159-.197-.178-.18-.198-.16-.213-.139-.23-.117-.241-.094-.255-.067-.265-.042-.276-.015-.284.015-.283.042-.275.067-.265.094-.255.117-.242.14-.23.16-.214.18-.196.196-.18.214-.16.228-.139.242-.117.255-.094.265-.067.275-.043zm0 1-.18.01-.176.027-.17.044-.164.06-.154.075-.146.088-.137.102-.126.116-.114.126-.102.136-.088.147-.076.155-.06.162-.043.169-.028.176-.009.181.01.182.027.174.043.17.06.163.076.155.088.147.102.136.114.126.126.114.137.103.146.089.154.075.164.058.17.044.176.028.18.009h7.056l-.289-.308-.14-.174-.136-.189-.13-.204-.125-.22-.119-.237-.108-.253-.137-.293-.158-.264-.176-.233-.188-.208-.201-.181-.205-.158-.208-.137-.208-.114-.2-.097-.191-.079-.339-.111-.252-.062-.134-.025zm5.77 0 .171.148.166.16.16.176.153.189.145.205.135.22.125.238.112.254.128.287.139.258.15.231.155.204.16.18.163.156.163.135.16.116.154.098.147.08.261.116.204.066.121.03h3.447l.18-.01.178-.027.168-.044.163-.059.155-.074.146-.09.137-.102.126-.114.114-.126.102-.137.09-.146.073-.155.06-.163.044-.17.028-.174.009-.182-.01-.182-.027-.175-.044-.169-.06-.162-.073-.156-.09-.146-.102-.136-.114-.126-.126-.116-.137-.103-.146-.087-.155-.075-.163-.06-.168-.044-.178-.028-.18-.009zm-45.696 1.273h32.344l.101.01.094.03.085.047.074.061.062.075.045.085.03.094.01.1-.01.1-.03.094-.045.085-.062.073-.074.062-.085.047-.094.027-.101.01H50.069l-.1-.01-.095-.027-.085-.047-.073-.062-.061-.073-.046-.085-.03-.094-.01-.1.01-.1.03-.094.046-.085.061-.075.073-.061.085-.047.094-.03zm61.329 0h32.343l.1.01.094.03.085.047.074.061.062.075.045.085.03.094.01.1-.01.1-.03.094-.045.085-.062.073-.074.062-.085.047-.094.027-.1.01h-32.343l-.101-.01-.094-.027-.085-.047-.075-.062-.06-.073-.045-.085-.03-.094-.01-.1.01-.1.03-.094.045-.085.06-.075.075-.061.085-.047.094-.03z"/><path style="display:inline;fill:#fff;fill-opacity:1;fill-rule:nonzero;stroke:none;stroke-width:.999997" d="M69.468 126.753v24.602h4.102v-10.25h4.27v-4.1h-4.27v-6.15h5.125v-4.102zm13.753 0-2.82 24.602h4.102l.68-5.125h2.48l.684 5.125h4.097l-2.815-24.602Zm10.915 0v24.602h4.102v-8.543h1.094l1.706 8.543h4.102l-1.915-9.738c1.23-.785 1.845-2.207 1.845-4.27v-5.128c0-3.641-1.821-5.466-5.466-5.466zm12.71 0v24.602h4.102V138.63l2.27 12.726h4l2.441-12.933v12.933h4.102v-24.602h-5.758l-2.769 14.829-2.63-14.829zm-8.608 4.102h1.366c.91 0 1.368.453 1.368 1.364v5.128c0 .91-.458 1.364-1.368 1.364h-1.366zm-11.825 3.21.82 8.063h-1.62zM38.605 60.558v24.674c.174-.19.35-.38.554-.549.574.145 1.157.349 1.731.49.22.421.437.78.652 1.139.008.125.02.25-.035.38-.746 1.62-1.692 3.136-2.442 4.761-.16.36-.303.728-.46 1.089v5.497h6.246V60.56Zm8.848 0V98.04h6.249V81.98l4.293 16.06h6.118V60.557h-6.246v16.06l-4.297-16.06Zm19.266 0V98.04h6.246V82.421h6.506v-6.246h-6.506v-9.37h7.807v-6.247zm16.655 0V98.04h6.25V60.56Zm8.852 0V98.04h6.246V81.98l4.296 16.06h6.118V60.557h-6.25v16.06l-4.293-16.06Zm19.261 0V98.04h6.246V60.56Zm8.852 0v6.247h5.208v31.234h6.246V66.805h5.206v-6.247zm19.261 0V98.04h14.056v-6.246h-7.81v-9.372h6.509v-6.246h-6.509v-9.37h7.81v-6.247z"/></g></svg>