<?xml version="1.0" encoding="UTF-8" standalone="no"?>
<svg
   width="69mm"
   height="69mm"
   viewBox="0 0 195.59055 195.59053"
   version="1.2"
   id="svg102"
   sodipodi:docname="Harmony.svg"
   inkscape:version="1.1.1 (3bf5ae0d25, 2021-09-20, custom)"
   xmlns:inkscape="http://www.inkscape.org/namespaces/inkscape"
   xmlns:sodipodi="http://sodipodi.sourceforge.net/DTD/sodipodi-0.dtd"
   xmlns:xlink="http://www.w3.org/1999/xlink"
   xmlns="http://www.w3.org/2000/svg"
   xmlns:svg="http://www.w3.org/2000/svg">
  <sodipodi:namedview
     id="namedview104"
     pagecolor="#ffffff"
     bordercolor="#666666"
     borderopacity="1.0"
     inkscape:pageshadow="2"
     inkscape:pageopacity="0.0"
     inkscape:pagecheckerboard="0"
     inkscape:document-units="pt"
     showgrid="false"
     fit-margin-top="0"
     fit-margin-left="0"
     fit-margin-right="0"
     fit-margin-bottom="0"
     units="mm"
     borderlayer="true"
     inkscape:showpageshadow="false"
     width="89mm"
     inkscape:zoom="2.3332653"
     inkscape:cx="-14.14327"
     inkscape:cy="157.5046"
     inkscape:window-width="2560"
     inkscape:window-height="1381"
     inkscape:window-x="0"
     inkscape:window-y="0"
     inkscape:window-maximized="1"
     inkscape:current-layer="layer1"
     inkscape:lockguides="true"
     showguides="true"
     inkscape:guide-bbox="true"
     inkscape:snap-bbox="true"
     inkscape:bbox-paths="true"
     inkscape:snap-center="true"
     inkscape:snap-object-midpoints="true" />
  <defs
     id="defs5">
    <linearGradient
       inkscape:collect="always"
       id="linearGradient40626">
      <stop
         style="stop-color:#ffcc00;stop-opacity:1;"
         offset="0"
         id="stop40622" />
      <stop
         style="stop-color:#ffe680;stop-opacity:1"
         offset="1"
         id="stop40624" />
    </linearGradient>
    <clipPath
       id="clip1">
      <path
         d="M 0,0 H 255.11719 V 198.42578 H 0 Z m 0,0"
         id="path2" />
    </clipPath>
    <linearGradient
       inkscape:collect="always"
       xlink:href="#linearGradient40626"
       id="linearGradient40628"
       x1="26.309614"
       y1="165.53299"
       x2="157.54604"
       y2="10.550678"
       gradientUnits="userSpaceOnUse"
       gradientTransform="scale(1.3333333)" />
  </defs>
  <g
     clip-path="url(#clip1)"
     clip-rule="nonzero"
     id="g9"
     transform="translate(-25.547559,-0.89465169)" />
  <g
     inkscape:groupmode="layer"
     id="layer1"
     inkscape:label="F.Cu"
     style="display:inline">
    <path
       id="path2060"
       style="display:inline;fill:url(#linearGradient40628);fill-opacity:1;fill-rule:nonzero;stroke:none;stroke-width:0.1;stroke-miterlimit:4;stroke-dasharray:none"
       d="M 71.630859 1.1660156 L 70.708984 1.1816406 L 69.789062 1.2285156 L 68.876953 1.3046875 L 67.970703 1.4101562 L 67.070312 1.546875 L 66.175781 1.7128906 L 65.291016 1.90625 L 64.414062 2.1289062 L 63.546875 2.3789062 L 62.689453 2.6582031 L 61.841797 2.9628906 L 61.005859 3.296875 L 60.181641 3.6542969 L 59.369141 4.0410156 L 58.570312 4.4511719 L 57.785156 4.8886719 L 57.015625 5.3496094 L 56.259766 5.8359375 L 55.521484 6.3457031 L 54.796875 6.8789062 L 54.091797 7.4375 L 53.404297 8.0175781 L 52.734375 8.6230469 L 52.082031 9.2480469 L 51.451172 9.8964844 L 50.841797 10.566406 L 50.251953 11.255859 L 49.683594 11.96875 L 49.136719 12.701172 L 48.615234 13.453125 L 48.115234 14.224609 L 47.640625 15.015625 L 18.25 65.921875 L 17.185547 67.800781 L 16.15625 69.693359 L 15.158203 71.601562 L 14.195312 73.519531 L 13.267578 75.451172 L 12.371094 77.394531 L 11.509766 79.349609 L 10.681641 81.316406 L 9.8886719 83.292969 L 9.1289062 85.28125 L 8.4023438 87.277344 L 7.7089844 89.283203 L 7.0507812 91.298828 L 6.4257812 93.322266 L 5.8339844 95.353516 L 5.2773438 97.392578 L 4.7539062 99.439453 L 4.2636719 101.49023 L 3.8085938 103.55078 L 3.3847656 105.61523 L 2.9960938 107.68555 L 2.6425781 109.75977 L 2.3222656 111.83984 L 2.0332031 113.92383 L 1.78125 116.00977 L 1.5605469 118.09961 L 1.375 120.19141 L 1.2226562 122.28711 L 1.1054688 124.38477 L 1.0214844 126.48242 L 0.97070312 128.58008 L 0.953125 130.67969 L 0.97070312 132.7793 L 1.0214844 134.87891 L 1.1054688 136.97656 L 1.2226562 139.07227 L 1.375 141.16797 L 1.5605469 143.25977 L 1.78125 145.34961 L 2.0332031 147.4375 L 2.3222656 149.51953 L 2.6425781 151.59961 L 2.9960938 153.67383 L 3.3847656 155.74414 L 3.8085938 157.80859 L 4.2636719 159.86719 L 4.7539062 161.92188 L 5.2773438 163.9668 L 5.8339844 166.00586 L 6.4257812 168.03711 L 7.0507812 170.06055 L 7.7089844 172.07617 L 8.4023438 174.08203 L 9.1289062 176.07812 L 9.8886719 178.06641 L 10.681641 180.04297 L 11.509766 182.00977 L 12.371094 183.96484 L 13.267578 185.9082 L 14.195312 187.83984 L 15.158203 189.75977 L 16.15625 191.66406 L 17.185547 193.55859 L 18.25 195.4375 L 19.345703 197.29883 L 20.46875 199.13867 L 21.621094 200.95312 L 22.802734 202.74805 L 24.011719 204.51953 L 25.246094 206.26562 L 26.507812 207.99023 L 27.796875 209.68945 L 29.113281 211.36523 L 30.453125 213.01758 L 31.818359 214.64453 L 33.210938 216.24805 L 34.625 217.82617 L 36.066406 219.37891 L 37.529297 220.90625 L 39.015625 222.4082 L 40.525391 223.88672 L 42.058594 225.33594 L 43.613281 226.76172 L 45.191406 228.1582 L 46.789062 229.5293 L 48.408203 230.875 L 50.048828 232.19336 L 51.708984 233.48242 L 53.390625 234.74609 L 55.089844 235.98047 L 56.808594 237.1875 L 58.546875 238.36719 L 60.304688 239.51758 L 62.078125 240.64062 L 63.871094 241.73438 L 65.679688 242.79883 L 67.507812 243.83398 L 69.349609 244.83789 L 71.208984 245.81445 L 73.083984 246.75977 L 74.974609 247.67578 L 76.878906 248.56055 L 78.798828 249.41602 L 80.732422 250.24023 L 82.681641 251.0332 L 84.642578 251.79492 L 86.617188 252.52539 L 88.603516 253.22266 L 90.603516 253.89062 L 92.613281 254.52539 L 94.636719 255.12695 L 96.669922 255.69531 L 98.714844 256.23242 L 100.76953 256.73633 L 102.83398 257.20703 L 104.9082 257.64453 L 106.99219 258.04688 L 109.08594 258.41797 L 111.18555 258.75195 L 113.29492 259.05273 L 115.41211 259.31836 L 117.53516 259.55078 L 119.66797 259.74805 L 121.80469 259.9082 L 123.94727 260.03516 L 126.09766 260.125 L 128.25195 260.17969 L 130.41211 260.19727 L 132.57227 260.17969 L 134.72656 260.125 L 136.87695 260.03516 L 139.01953 259.9082 L 141.15625 259.74805 L 143.28906 259.55078 L 145.41211 259.31836 L 147.5293 259.05273 L 149.63867 258.75195 L 151.73828 258.41797 L 153.83203 258.04688 L 155.91602 257.64453 L 157.98828 257.20703 L 160.05469 256.73633 L 162.10938 256.23242 L 164.1543 255.69531 L 166.1875 255.12695 L 168.21094 254.52539 L 170.2207 253.89062 L 172.2207 253.22266 L 174.20703 252.52539 L 176.18164 251.79492 L 178.14258 251.0332 L 180.08984 250.24023 L 182.02344 249.41602 L 183.94336 248.56055 L 185.84961 247.67578 L 187.73828 246.75977 L 189.61328 245.81445 L 191.47266 244.83789 L 193.31641 243.83398 L 195.14258 242.79883 L 196.95117 241.73438 L 198.74414 240.64062 L 200.51953 239.51758 L 202.27539 238.36719 L 204.01367 237.1875 L 205.73242 235.98047 L 207.43359 234.74609 L 209.11328 233.48242 L 210.77344 232.19336 L 212.41406 230.875 L 214.0332 229.5293 L 215.63281 228.1582 L 217.20898 226.76172 L 218.76367 225.33594 L 220.29688 223.88672 L 221.80664 222.4082 L 223.29297 220.90625 L 224.75781 219.37891 L 226.19531 217.82617 L 227.61133 216.24805 L 229.00391 214.64453 L 230.36914 213.01758 L 231.71094 211.36523 L 233.02539 209.68945 L 234.3125 207.99023 L 235.57617 206.26562 L 236.81055 204.51953 L 238.01953 202.74805 L 239.19922 200.95312 L 240.35352 199.13867 L 241.47656 197.29883 L 242.57227 195.4375 L 243.63672 193.55859 L 244.66797 191.66406 L 245.66406 189.75977 L 246.62695 187.83984 L 247.55469 185.9082 L 248.44922 183.96484 L 249.3125 182.00977 L 250.14062 180.04297 L 250.93359 178.06641 L 251.69336 176.07812 L 252.41992 174.08203 L 253.11133 172.07617 L 253.77148 170.06055 L 254.39648 168.03711 L 254.98633 166.00586 L 255.54492 163.9668 L 256.06836 161.92188 L 256.55859 159.86719 L 257.01367 157.80859 L 257.4375 155.74414 L 257.82422 153.67383 L 258.17969 151.59961 L 258.50195 149.51953 L 258.78906 147.4375 L 259.04102 145.34961 L 259.26172 143.25977 L 259.44727 141.16797 L 259.59961 139.07227 L 259.7168 136.97656 L 259.80078 134.87891 L 259.85156 132.7793 L 259.86914 130.67969 L 259.85156 128.58008 L 259.80078 126.48242 L 259.7168 124.38477 L 259.59961 122.28711 L 259.44727 120.19141 L 259.26172 118.09961 L 259.04102 116.00977 L 258.78906 113.92383 L 258.50195 111.83984 L 258.17969 109.75977 L 257.82422 107.68555 L 257.4375 105.61523 L 257.01367 103.55078 L 256.55859 101.49023 L 256.06836 99.439453 L 255.54492 97.392578 L 254.98633 95.353516 L 254.39648 93.322266 L 253.77148 91.298828 L 253.11133 89.283203 L 252.41992 87.277344 L 251.69336 85.28125 L 250.93359 83.292969 L 250.14062 81.316406 L 249.3125 79.349609 L 248.44922 77.394531 L 247.55469 75.451172 L 246.62695 73.519531 L 245.66406 71.601562 L 244.66797 69.693359 L 243.63672 67.800781 L 242.57227 65.921875 L 213.18164 15.015625 L 212.70703 14.224609 L 212.20898 13.453125 L 211.68555 12.701172 L 211.13867 11.96875 L 210.57031 11.255859 L 209.98242 10.566406 L 209.37109 9.8964844 L 208.74023 9.2480469 L 208.08984 8.6230469 L 207.41992 8.0175781 L 206.73047 7.4375 L 206.02539 6.8789062 L 205.30273 6.3457031 L 204.5625 5.8359375 L 203.80664 5.3496094 L 203.03711 4.8886719 L 202.25195 4.4511719 L 201.45508 4.0410156 L 200.64258 3.6542969 L 199.81836 3.296875 L 198.98242 2.9628906 L 198.13477 2.6582031 L 197.27734 2.3789062 L 196.4082 2.1289062 L 195.5332 1.90625 L 194.64648 1.7128906 L 193.75391 1.546875 L 192.85352 1.4101562 L 191.94727 1.3046875 L 191.0332 1.2285156 L 190.11523 1.1816406 L 189.19336 1.1660156 L 71.630859 1.1660156 z M 130.18164 7.7382812 A 9.4488188 9.4488188 0 0 1 139.63086 17.1875 A 9.4488188 9.4488188 0 0 1 130.18164 26.636719 A 9.4488188 9.4488188 0 0 1 120.73438 17.1875 A 9.4488188 9.4488188 0 0 1 130.18164 7.7382812 z "
       transform="scale(0.75)" />
    <g
       id="g40584"
       style="display:inline;fill:#217821">
      <path
         id="path4445"
         style="display:inline;fill:#217821;fill-opacity:1;fill-rule:nonzero;stroke:none;stroke-width:0.075;stroke-miterlimit:4;stroke-dasharray:none"
         d="m 57.226367,12.890992 -0.508301,0.0088 -0.505371,0.0249 -0.503906,0.04248 -0.499512,0.0586 -0.495117,0.0747 -0.492188,0.09082 -0.487793,0.106934 -0.483398,0.123047 -0.477539,0.137695 -0.473145,0.153809 -0.467285,0.168457 -0.459961,0.183105 -0.454101,0.197754 -0.446778,0.210937 -0.440918,0.227051 -0.432128,0.240234 -0.424805,0.254883 -0.416016,0.266602 -0.407226,0.28125 -0.398438,0.294434 -0.389648,0.307617 -0.37793,0.319335 -0.369141,0.33252 -0.358887,0.345703 -0.347167,0.355958 -0.336914,0.36914 -0.325196,0.38086 -0.312011,0.392577 -0.301758,0.402833 -0.28711,0.41455 -0.27539,0.424805 -0.260742,0.436523 -20.167969,34.9292 -0.698731,1.234863 -0.678222,1.245117 -0.654786,1.252442 -0.632812,1.26123 -0.61084,1.27002 -0.587402,1.277343 -0.566894,1.284668 -0.543458,1.293457 -0.521484,1.299316 -0.499512,1.305177 -0.477539,1.3125 -0.455567,1.318359 -0.432128,1.324218 -0.411622,1.330079 -0.388183,1.335937 -0.366211,1.34033 -0.344238,1.344727 -0.322266,1.349123 -0.298828,1.352047 -0.27832,1.357913 -0.254883,1.359375 -0.23291,1.365232 -0.210938,1.366703 -0.188965,1.368165 -0.166992,1.37109 -0.143554,1.374022 -0.123047,1.375493 -0.09961,1.376955 -0.07764,1.376947 -0.05566,1.379888 -0.03223,1.37988 -0.01172,1.37988 0.01172,1.378428 0.03223,1.379881 0.05566,1.37842 0.07764,1.37841 0.09961,1.37696 0.123047,1.37402 0.143554,1.37402 0.166992,1.37256 0.188965,1.36817 0.210938,1.36669 0.23291,1.36377 0.254883,1.36085 0.27832,1.35644 0.298828,1.35352 0.322266,1.34911 0.344238,1.34473 0.366211,1.34033 0.388183,1.33448 0.411622,1.33008 0.432128,1.32421 0.455567,1.31837 0.477539,1.3125 0.499512,1.30517 0.521484,1.29932 0.543458,1.29199 0.566894,1.28467 0.587402,1.27734 0.61084,1.27002 0.632812,1.26123 0.654786,1.25244 0.678222,1.24512 0.698731,1.23487 0.720703,1.22313 0.738281,1.2085 0.757325,1.19385 0.776367,1.1792 0.793945,1.16309 0.811523,1.14844 0.830567,1.13379 0.846679,1.11621 0.864258,1.10156 0.881836,1.08544 0.89795,1.07081 0.914062,1.05322 0.930176,1.03711 0.946289,1.02099 0.962402,1.00342 0.977051,0.98731 0.993164,0.97119 1.006348,0.95361 1.02246,0.93457 1.035645,0.91992 c 3.11384,2.74259 6.466616,5.19198 9.933105,7.46631 l 1.167481,0.73682 1.177734,0.71777 1.187989,0.7002 1.201171,0.68115 1.211427,0.66064 1.221679,0.64014 1.231934,0.62257 1.242187,0.60058 1.252442,0.58301 1.26123,0.5625 1.271484,0.54052 1.280274,0.52149 1.289062,0.50097 1.296387,0.47901 1.30664,0.45996 1.313966,0.43798 1.321288,0.41602 1.330079,0.39698 1.335937,0.37353 1.343262,0.35303 1.350585,0.33105 1.357913,0.30908 1.3623,0.28711 1.369635,0.2666 1.375485,0.2417 1.38135,0.21973 1.385737,0.19922 1.39014,0.17431 1.39746,0.15235 1.400393,0.1289 1.403317,0.10694 1.409183,0.082 1.412107,0.0586 1.416503,0.0366 1.419435,0.0117 1.419435,-0.0117 1.416505,-0.0366 1.41211,-0.0586 1.40918,-0.082 1.40479,-0.10694 1.40038,-0.1289 1.396,-0.15235 1.3916,-0.17431 1.38575,-0.19922 1.38134,-0.21973 1.37549,-0.2417 1.36963,-0.2666 1.36377,-0.28711 1.35644,-0.30908 1.35059,-0.33105 1.34326,-0.35303 1.3374,-0.37353 1.32862,-0.39698 1.32275,-0.41602 1.31396,-0.43798 1.30518,-0.45996 1.29785,-0.47901 1.28906,-0.50097 1.28028,-0.52149 1.27148,-0.54052 1.26123,-0.5625 1.25244,-0.58301 1.24219,-0.60058 1.23193,-0.62257 1.22169,-0.64014 1.21142,-0.66064 1.20117,-0.68115 1.18799,-0.7002 1.1792,-0.71777 1.16601,-0.73682 1.1543,-0.75732 1.14112,-0.77491 1.13085,-0.79394 1.11768,-0.81152 1.10449,-0.8291 1.09131,-0.84815 1.07813,-0.86572 1.06347,-0.88476 1.05176,-0.90089 1.03564,-0.91992 1.02246,-0.93457 1.00782,-0.95361 0.9917,-0.97119 0.97705,-0.98731 0.9624,-1.00342 0.94629,-1.02099 0.93018,-1.03711 0.91406,-1.05322 0.89794,-1.07081 0.88184,-1.08544 0.86426,-1.10156 0.84668,-1.11621 0.8291,-1.13379 0.81299,-1.14844 0.79394,-1.16309 0.77637,-1.1792 0.75732,-1.19385 0.73829,-1.2085 0.7207,-1.22313 0.69873,-1.23487 0.67822,-1.24512 0.65479,-1.25244 0.63281,-1.26123 0.60938,-1.27002 0.58887,-1.27734 0.56689,-1.28467 0.54346,-1.29199 0.52148,-1.29932 0.49951,-1.30517 0.47754,-1.3125 0.45556,-1.31837 0.43214,-1.32421 0.41161,-1.33008 0.38819,-1.33448 0.36621,-1.34033 0.34424,-1.34473 0.32227,-1.34911 0.29882,-1.35352 0.27833,-1.35644 0.25488,-1.36085 0.23291,-1.36377 0.21094,-1.36669 0.18896,-1.36817 0.16699,-1.37256 0.14355,-1.37402 0.12159,-1.37402 0.10107,-1.37696 0.0776,-1.37841 0.0557,-1.37842 0.0322,-1.379881 0.0117,-1.378428 -0.0117,-1.37988 -0.0322,-1.37988 -0.0557,-1.379888 -0.0776,-1.376947 -0.10107,-1.376955 -0.12159,-1.375493 -0.14355,-1.374022 -0.16699,-1.37109 -0.18896,-1.368165 -0.21094,-1.366703 -0.23291,-1.365232 -0.25488,-1.359375 -0.27833,-1.357913 -0.29882,-1.352047 -0.32227,-1.349123 -0.34424,-1.344727 -0.36621,-1.34033 -0.38819,-1.335937 -0.41161,-1.330079 -0.43214,-1.324218 -0.45556,-1.318359 -0.47754,-1.3125 -0.49951,-1.305177 -0.52148,-1.299316 -0.54346,-1.293457 -0.56689,-1.284668 -0.58887,-1.277343 -0.60938,-1.27002 -0.63281,-1.26123 -0.65479,-1.252442 -0.67822,-1.245117 -0.69873,-1.234863 -20.16797,-34.9292 -0.26074,-0.436523 -0.27539,-0.424805 -0.28711,-0.41455 -0.30176,-0.402833 -0.31201,-0.392577 -0.3252,-0.38086 -0.33544,-0.36914 -0.34864,-0.355958 -0.35888,-0.345703 -0.36768,-0.33252 -0.3794,-0.319335 -0.38964,-0.307617 -0.39844,-0.294434 -0.40723,-0.28125 -0.41602,-0.266602 -0.4248,-0.254883 -0.43212,-0.240234 -0.43946,-0.227051 -0.44677,-0.210937 -0.45411,-0.197754 -0.46143,-0.183105 -0.46581,-0.168457 -0.47315,-0.153809 -0.47754,-0.137695 -0.4834,-0.123047 -0.48779,-0.106934 -0.49219,-0.09082 -0.49512,-0.07471 -0.4995,-0.0586 -0.50391,-0.04248 -0.50538,-0.0249 -0.50829,-0.0088 h -27.3545 a 12.755906,12.755906 0 0 1 0.0249,0.739746 12.755906,12.755906 0 0 1 -12.757325,12.755859 12.755906,12.755906 0 0 1 -12.755857,-12.755859 12.755906,12.755906 0 0 1 0.04545,-0.739746 z M 39.158984,84.682984 c 0.57422,0.144532 1.157226,0.34863 1.731445,0.489255 0.21875,0.421875 0.437006,0.78027 0.651856,1.139655 0.008,0.124995 0.01955,0.250462 -0.03515,0.379395 -0.7461,1.621065 -1.691894,3.137205 -2.441894,4.7622 -2.76562,6.226567 -5.065918,12.729981 -7.190918,19.155761 -0.15234,0.44922 -0.433103,0.84717 -0.206543,1.33155 0.41797,-0.22266 0.702155,-0.62061 0.987305,-0.95655 1.265629,-1.41407 2.67579,-2.58643 4.21875,-3.64892 0.234379,-0.20703 0.472657,-0.35107 0.773437,-0.49951 0.36328,-0.15234 0.734867,-0.24658 1.105957,-0.27393 1.37109,-0.10937 2.496586,0.68018 2.805176,2.21924 0.20704,1.04688 0.229524,2.11328 0.06152,3.1875 -0.33594,2.09375 -0.729497,4.25342 -1.057618,6.40576 -0.13281,0.69922 -0.262209,1.46094 -0.332519,2.15625 0,0.8125 -0.0581,1.62891 0.613769,2.20313 0.496091,-0.0391 0.60889,-0.1709 0.89795,-0.50684 1.03906,-1.08202 1.941414,-2.34424 2.777344,-3.66064 1.78907,-2.70704 3.50733,-5.53466 5.29248,-8.3042 0.42338,-0.62218 0.786147,-1.34853 1.532226,-1.80323 1.438901,-2.08258 3.079635,-3.80593 4.839844,-4.5835 0.42578,-0.16014 0.792481,-0.24999 1.167481,-0.28125 1.86719,-0.14451 3.714359,1.08498 3.991699,3.00294 0.0937,0.43359 0.0747,0.93408 0.531738,1.21142 0.73438,0.57032 0.667479,1.32373 0.534669,2.02295 -0.0898,0.44532 -0.31152,0.77783 -0.471681,1.16455 -1.101559,2.65626 -2.078127,5.35987 -2.929687,8.05518 -0.19141,0.76953 -0.511722,1.47949 -0.257813,2.33496 0.67578,-0.17577 1.081056,-0.58595 1.549806,-0.99609 1.915989,-1.63772 3.632073,-3.60493 4.927734,-5.80664 0.62411,-2.3727 1.264248,-4.7479 1.943847,-7.12647 0.1875,-0.82813 0.496589,-1.66456 0.812988,-2.44189 0.152351,-0.44922 0.424806,-0.90969 0.706056,-1.30811 0.445309,-0.72265 0.738773,-0.99658 1.234863,-1.03564 0.375,-0.0312 0.887208,0.11815 1.656738,0.37207 0.23828,0.60546 1.026367,1.10449 0.963867,1.9248 -0.0508,0.12891 0.215331,0.29688 0.414551,0.46875 0.46875,0.39844 0.819817,0.87549 1.108887,1.35205 0.503899,0.83594 1.226566,1.28174 2.097657,1.21142 0.683595,-0.0508 3.348157,-1.2036 4.0122,-1.50439 0.56166,-0.2544 1.519807,-1.1685 2.329102,-1.48535 0.25491,-0.65816 0.525668,-1.30626 0.842288,-1.95557 0.3672,-0.90625 0.792975,-1.87891 1.757812,-2.33202 1.61718,0.68749 1.617195,0.68749 2.519535,1.80468 -1.601565,2.69531 -2.808097,5.66798 -3.558112,8.85938 0.679702,-0.11718 0.769537,-0.56298 0.996097,-0.89502 2.09766,-2.73048 4.539068,-5.11378 7.523438,-6.97705 0.531247,-0.41798 1.128412,-0.77735 1.812015,-0.83204 1.429687,-0.11328 2.38671,0.1255 2.941402,1.58643 0.371093,0.72265 0.433598,1.53173 0.492188,2.27783 0.06248,-0.004 0.125003,-0.0122 0.1875,-0.0161 0.496103,-0.0391 0.598147,-0.35889 0.824707,-0.62841 1.085937,-1.33594 4.265627,-4.65333 6.046877,-5.10644 0.17967,-0.0781 0.4292,-0.0972 0.6167,-0.1128 0.9961,-0.0781 1.91454,0.47315 2.2544,1.5747 0.16014,0.4883 0.19873,0.9834 0.1831,1.54981 -0.0937,1.19921 -0.31153,2.40723 -0.65918,3.55957 -0.4961,1.66406 -0.99269,3.26953 -1.49267,4.875 -0.50002,1.60156 -0.74951,3.187 -0.87452,4.82373 -0.0312,0.3789 -0.0635,0.7583 0.085,1.05908 0.12891,0.0508 0.19141,0.0459 0.31641,0.0381 0.2461,-0.0195 0.41407,-0.28418 0.58594,-0.48341 3.15624,-3.6289 5.40282,-7.68798 7.70361,-11.87548 0.10937,-0.19531 0.28465,-0.33545 0.46435,-0.47608 0.0374,-0.0224 0.0747,-0.0423 0.11133,-0.0571 1.51647,-2.64982 3.45788,-4.91471 5.56494,-5.08007 0.93359,-0.0742 2.94581,0.83252 3.02783,1.89111 0.13282,0.86719 0.50343,1.58545 0.75732,2.44482 0.23831,0.66797 0.35889,1.41064 0.35889,2.16064 0.0391,0.49611 -0.10498,1.07032 0.1919,1.67579 0.0742,0.1211 0.20361,0.1709 0.39111,0.15527 1.17969,-0.0937 4.33496,-2.15527 4.81934,-2.38183 0.0463,-0.0333 0.0897,-0.0579 0.1333,-0.085 0.62501,-1.69464 1.28462,-3.37578 2.02295,-5.02881 0.42967,-0.91016 0.85255,-1.882324 1.74316,-2.515144 0.91017,0.42969 2.04199,0.527348 2.62793,1.605474 -0.42189,0.97266 -0.65577,1.9961 -1.34326,2.80078 -0.45704,0.53516 -0.71923,1.1836 -0.78955,1.875 0.008,0.125 -0.0464,0.19482 -0.0425,0.25341 0.0625,-0.004 0.11669,-0.0704 0.2417,-0.082 2.19531,-2.36328 6.01659,-6.292969 9.12597,-6.539066 1.2539,0.02737 2.1836,0.703612 2.47266,1.996586 0.26562,0.98047 0.21823,1.9834 -0.0161,2.94433 -0.3164,1.58985 -0.59814,1.98925 -1.10595,3.46582 -0.65235,2.05469 -1.375,3.9878 -2.02735,6.04248 -0.26171,0.64844 -0.33105,1.34376 -0.47168,1.98047 -0.0469,0.1914 -0.0908,0.44531 0.0498,0.6211 0.0664,0.0586 0.19238,0.0464 0.25488,0.0425 0.25001,-0.0195 0.4214,-0.22169 0.53466,-0.3545 2.51955,-2.20313 6.31251,-7.25829 7.89845,-10.1997 0.2215,-0.3982 0.38617,-0.84579 0.70898,-1.21143 0.76542,-1.68582 1.63861,-3.33025 2.61182,-4.933594 0.43749,-0.78516 1.07373,-1.46094 1.72998,-1.886715 0.0586,-0.0037 0.0591,-0.0037 0.12158,-0.0117 0.4375,-0.03127 0.58203,0.20703 0.90234,0.304688 0.32031,0.101565 0.58203,0.270517 0.84375,0.372067 0.35547,0.53907 0.70264,1.01172 0.38233,1.72266 -0.26953,0.523443 -0.22316,1.144044 -0.95361,1.390144 -0.3047,0.0859 -0.45656,0.53467 -0.68702,0.80419 -2.08986,3.67188 -3.60156,7.54688 -4.46485,11.6836 -0.14452,0.51172 -0.29296,1.02442 0,1.56738 0.0625,-0.008 0.188,-0.0157 0.2505,-0.0234 0.5586,-0.043 0.96435,-0.4502 1.37841,-0.73535 1.75782,-1.51563 3.3794,-3.20654 4.79736,-5.06983 2.60547,-3.46093 5.21388,-6.92138 7.62012,-10.554196 0.50391,-0.726563 0.97656,-1.078605 1.47657,-1.11768 0.30858,-0.0234 0.62598,0.01125 1.0166,0.17139 0.64063,0.199222 0.98389,0.61035 1.09717,1.22754 0.0352,0.437497 -5.7e-4,0.812515 -0.0278,1.253905 -0.7461,4.003921 -1.42872,8.062011 -2.05371,12.054201 -0.1875,0.82813 -0.50098,1.60546 -0.37207,2.47266 l -0.0542,0.0659 0.063,-0.003 c 0.0625,-0.008 0.12012,-0.0117 0.12012,-0.0117 0.31251,-0.0234 0.55176,-0.16845 0.72363,-0.36767 2.96094,-2.17578 2.10058,-1.16846 4.57324,-3.93017 0.28515,-0.33594 0.63722,-0.67482 1.1294,-0.77637 0.82813,0.99999 0.82861,0.99952 1.66846,1.3081 0.0156,0.1836 0.0888,0.3667 0.10839,0.61671 0.0742,0.11718 0.14454,0.23924 0.22266,0.41894 -0.73047,1.05858 -1.60059,1.9414 -2.59278,2.83594 -2.80077,2.59764 -2.0664,1.60059 -5.14452,3.84668 -0.41406,0.28125 -0.76954,0.5625 -1.1836,0.84375 -0.89844,0.50782 -1.34423,1.23094 -1.64502,2.1958 -1.88671,7.03515 -6.96093,18.89111 -15.23438,19.53954 -0.80857,0.0664 -1.62938,0.004 -2.39501,-0.1875 -2.86329,-0.58593 -3.91309,-2.8203 -4.02247,-5.0039 -0.22264,-5.98828 5.2422,-9.73828 9.92579,-12.23437 2.76564,-1.46875 5.45265,-3.12159 8.06982,-4.83252 0.83594,-0.50391 1.34718,-1.16797 1.57764,-2.25 0.69922,-3.00001 1.33644,-6.05029 1.84423,-9.15967 0.0391,-0.31641 0.14112,-0.57422 -0.13623,-0.92579 -0.53905,0.28908 -0.80565,0.87403 -1.1455,1.33887 -2.48436,3.44922 -7.50685,10.41798 -12.1084,10.78125 -1.56642,0 -2.76659,-0.97166 -3.0791,-2.51074 -0.1093,-0.5181 -0.15728,-1.03948 -0.14063,-1.56592 -2.28123,2.7557 -4.73638,5.01429 -6.63281,5.16358 -1.55859,0.12501 -2.82031,-0.84473 -3.08203,-2.57519 -0.22265,-1.23438 -0.0664,-2.43652 0.21094,-3.64747 0.37108,-1.65625 0.99999,-3.20801 1.5,-4.81347 0.61719,-1.67579 0.88379,-2.31934 1.49707,-4.05762 0.20313,-0.58203 0.47266,-1.16505 0.42187,-1.79004 -0.13281,-0.11328 -0.19578,-0.10834 -0.3208,-0.0967 -0.18748,0.0117 -0.36278,0.15186 -0.54638,0.22998 -4.62501,3.24219 -8.80126,9.83252 -11.23096,14.78174 -0.33203,0.52734 -0.59717,1.10841 -1.06202,1.58496 -0.39843,0.53125 -0.62937,0.73827 -0.94189,0.76172 -0.1875,0.0156 -0.44581,-0.0893 -0.89501,-0.2417 -0.31641,-0.0391 -0.63624,-0.13623 -0.89796,-0.2417 -0.75,-0.8164 -0.7622,-1.7539 -0.46142,-2.71875 0.73513,-2.04507 1.42506,-4.10501 2.12402,-6.15967 -0.17795,0.0715 -0.3684,0.14858 -0.52149,0.21387 -0.48828,0.16016 -3.92186,1.05908 -4.07812,1.4458 -0.99999,3.20703 -3.95362,8.63574 -7.66845,9.17871 -0.1875,0.0156 -0.4292,0.0982 -0.6167,0.10986 -1.92579,0.15235 -3.19971,-0.87499 -3.80127,-2.95312 -0.14968,-0.55662 -0.2491,-1.11734 -0.30469,-1.68017 -0.68588,0.92569 -1.38013,1.82332 -2.0669,2.67627 -1.02344,1.33201 -2.30811,2.49609 -4.05029,2.63671 -1.74219,0.13671 -2.9497,-0.89453 -3.16846,-2.88281 -0.26172,-2.54688 0.10206,-5.07861 0.84815,-7.51611 0.4336,-1.66016 0.99658,-3.26905 1.43408,-4.87061 0.16014,-0.32421 0.31592,-0.71143 0.10108,-1.0708 -0.43359,0.0352 -0.49268,0.10204 -0.77783,0.43799 -3.03517,2.80468 -6.229989,8.31202 -7.753419,12.06592 -0.375015,0.77734 -0.875498,1.57031 -1.316895,2.35546 -0.5625,-0.0195 -1.061528,0.0195 -1.56153,0 -0.417953,-0.53124 -1.058595,-0.73437 -1.359375,-1.33593 -0.04687,-0.6211 0.217777,-1.20312 0.354495,-1.83984 0.953122,-3.01953 1.969245,-6.03907 2.535645,-9.15235 0.0859,-0.50781 0.296955,-1.02686 0.07027,-1.50733 -0.12891,-0.0547 -0.195803,-0.10888 -0.320798,-0.10107 -0.1875,0.0156 -0.358867,0.21386 -0.534675,0.3545 -4.91406,3.58203 -8.297362,9.10546 -10.750485,14.55468 -0.687502,1.55859 -1.307625,3.23486 -2.510745,4.64502 -0.566407,-0.0195 -1.129395,-0.0396 -1.633297,-0.063 -0.402353,-0.34375 -0.680183,-0.69484 -1.08252,-1.03857 -0.101573,-0.49221 -0.02242,-1.06299 0.125977,-1.57471 1.012568,-4.52916 2.024363,-9.09203 3.367673,-13.57178 -1.323945,0.59622 -2.73339,1.06471 -4.032713,1.16601 -0.99609,0.0781 -2.002922,-0.0312 -3.049802,-0.57422 -0.390619,-0.21874 -0.785644,-0.43701 -1.410644,-0.45263 -2.05078,4.16796 -3.83936,8.50293 -5.4917,12.95215 -0.42969,0.0977 -0.739261,0.12108 -1.110351,0.21093 -0.34375,-0.41016 -0.96045,-0.29686 -1.35498,-0.51562 -0.45192,-0.24069 -0.703655,-0.4722 -0.811524,-0.78369 -0.2482,0.24138 -0.501582,0.47959 -0.763183,0.71338 -0.70703,0.55859 -1.417483,1.05567 -2.187012,1.61425 -0.78125,0.43751 -1.496576,0.87062 -2.430176,0.94483 -1.42969,0.10938 -2.49902,-0.74658 -3.00293,-2.39502 -0.0234,-0.24999 -0.04301,-0.49902 -0.246094,-0.7295 -0.613281,0.17189 -0.887206,0.69533 -1.293456,1.10157 -1.11328,0.96485 -2.401854,2.0664 -3.956544,2.19141 -1.617189,0.125 -3.074705,-0.8877 -3.461425,-2.61036 -0.0566,-0.20882 -0.100275,-0.41787 -0.134765,-0.62841 -0.596721,0.8195 -1.203158,1.65415 -1.904298,2.41845 -0.98828,0.95313 -2.109857,1.7925 -3.543456,1.90576 -0.99609,0.0781 -1.84716,-0.41796 -2.4917,-1.42968 -1.13671,-1.72657 -1.543457,-3.69922 -1.199707,-5.73047 0.33203,-2.15234 0.72363,-4.31251 1.12207,-6.41015 0.0664,-0.75393 0.324225,-1.46437 0.140625,-2.19874 -0.5664,-0.0195 -0.848638,0.37794 -1.145507,0.58887 -4.332039,3.78516 -6.730462,9.10643 -9.082031,14.23535 -0.367181,0.90624 -0.726566,1.8706 -1.359375,2.60889 -1.375001,-0.0156 -1.636233,-0.12158 -2.843262,-1.15283 -0.0742,-0.93359 0.234863,-1.76954 0.484863,-2.60156 3.00781,-11.87892 7.495123,-25.628419 12.811524,-36.815929 0.535159,-1.167952 1.136712,-2.277825 2.132812,-3.10986 z m 80.793456,20.437496 c -0.83595,0.50391 -1.09424,1.21192 -1.02393,2.08301 0.11719,0.67968 0.53565,1.21093 1.36377,1.39453 0.33204,-1.33985 0.37108,-2.40723 -0.33984,-3.47754 z m -62.249999,2.14161 c -1.22265,0.41016 -1.281257,0.41358 -2.085937,1.35498 -2.750001,3.21876 -4.520016,6.98877 -5.898926,10.91454 -0.10156,0.32423 -0.194821,0.70655 -0.229981,1.08546 -0.0898,0.44531 -0.121581,0.81983 0.159669,1.23779 0.0625,-0.008 0.06351,-0.008 0.125976,-0.0117 0.6836,-0.0547 1.022943,-0.51856 1.425293,-0.98731 0.98437,-1.01562 1.831543,-2.14942 2.550293,-3.3955 0.93359,-1.63673 1.801265,-3.33105 2.805176,-4.9131 1.12109,-1.65234 0.984377,-3.39452 1.148437,-5.28515 z m 58.207029,2.12109 c -1.62501,2.44533 -2.26904,6.1875 -1.33154,8.55468 0.25392,0.043 0.44531,0.0888 0.63281,0.0733 1.67969,-0.13281 3.3623,-3.39406 4.01075,-4.69482 0.16797,-0.26565 0.4536,-0.60107 0.29736,-1.02686 -0.65625,-0.3828 -1.30811,-0.71141 -1.96436,-1.09424 -0.66406,-0.44921 -1.03564,-1.23388 -1.64502,-1.81201 z m 44.77735,14.06543 c -0.4258,0.15625 -0.60596,0.23536 -0.78956,0.31348 -2.27343,1.30469 -4.49171,2.54248 -6.76904,3.85107 -2.83203,1.41016 -6.47216,4.45264 -6.39404,7.82373 -0.0117,1.44141 0.61329,2.20752 2.05078,2.21924 0.1875,-0.0156 0.375,-0.0268 0.5625,-0.0425 5.97266,-0.47265 9.45606,-8.69531 11.20605,-13.46485 0.0469,-0.19141 0.0396,-0.31738 0.13331,-0.70019 z" />
    </g>
    <path
       id="path40769"
       style="display:inline;fill:#2ca02c;fill-opacity:1;fill-rule:nonzero;stroke:none;stroke-width:0.075;stroke-miterlimit:4;stroke-dasharray:none"
       d="m 96.699512,33.485231 0.11133,0.0059 0.106928,0.03076 0.09815,0.0542 0.08496,0.07617 0.181642,0.215332 0.39258,0.505371 0.250485,0.350098 0.27393,0.408691 0.28857,0.464356 0.294435,0.512696 0.287108,0.55957 0.27539,0.600586 0.24902,0.635742 0.11279,0.32959 0.10401,0.338379 0.0923,0.344238 0.0806,0.351562 0.0673,0.355958 0.0542,0.361816 0.0366,0.366211 0.022,0.370605 0.003,0.373535 -0.0161,0.376465 0.74268,-0.295898 0.78076,-0.269531 0.40137,-0.121582 0.40869,-0.111329 0.41454,-0.09814 0.42042,-0.08496 0.42333,-0.07031 0.42627,-0.05273 0.42921,-0.03662 0.43066,-0.01758 0.4292,0.0044 0.4292,0.0249 0.42627,0.04834 0.4248,0.07325 0.11426,0.03809 0.0981,0.06152 0.082,0.08203 0.0601,0.09961 0.0366,0.111329 0.0103,0.115722 -0.0161,0.114258 -0.0454,0.106934 -0.1289,0.224121 -0.29883,0.476074 -0.46289,0.669434 -0.29297,0.391113 -0.33105,0.41748 -0.37061,0.437989 -0.41016,0.449706 -0.44823,0.457031 -0.48487,0.454102 -0.52295,0.446778 -0.55957,0.430664 -0.59473,0.407226 -0.31054,0.191895 -0.31934,0.18457 0.17871,0.168457 0.16992,0.178711 0.16114,0.19043 0.15234,0.200683 0.14502,0.210938 0.13477,0.222656 0.12597,0.23291 0.11865,0.243164 0.1084,0.254883 0.10108,0.263672 0.0908,0.27539 0.082,0.28711 0.14063,0.602051 0.10254,0.644531 0.005,0.0835 -0.009,0.08057 -0.022,0.07764 -0.0337,0.07177 -0.044,0.06592 -0.0556,0.0586 -0.0644,0.04981 -0.0718,0.03955 -0.17871,0.06592 -0.20215,0.06298 -0.26513,0.07325 -0.32227,0.07178 -0.37206,0.06298 -0.41456,0.04541 -0.44824,0.01611 -0.43359,-0.01611 -0.45117,-0.0542 -0.22998,-0.04394 -0.23145,-0.05567 -0.23438,-0.06738 -0.23291,-0.08203 -0.234375,-0.09668 -0.232912,-0.111328 -0.231443,-0.128906 -0.229987,-0.145019 -0.227048,-0.164063 -0.22266,-0.181641 -0.21972,-0.202148 -0.21387,-0.222656 v 3.603515 l -0.01027,0.101075 -0.02933,0.09375 -0.04687,0.08496 -0.0615,0.07471 -0.0732,0.06006 -0.08496,0.04541 -0.09375,0.0293 -0.09962,0.01025 -0.10107,-0.01025 -0.09375,-0.0293 -0.08496,-0.04541 -0.0747,-0.06006 -0.0615,-0.07471 -0.04545,-0.08496 -0.02933,-0.09375 -0.01028,-0.101075 v -3.74707 l -0.209475,0.171387 -0.21387,0.156738 -0.215332,0.14209 -0.216795,0.127441 -0.22119,0.112793 -0.22119,0.101074 -0.22266,0.08789 -0.222653,0.07764 -0.44385,0.120117 -0.439455,0.0791 -0.430665,0.04541 -0.418942,0.01319 -0.45996,-0.01611 -0.432128,-0.04248 -0.398437,-0.06152 -0.35889,-0.07471 -0.312008,-0.0791 -0.259282,-0.07617 -0.34131,-0.118652 -0.06885,-0.02637 -0.01027,-0.0044 -0.01028,-0.0059 -0.01755,-0.0088 -0.07027,-0.04541 -0.0615,-0.05567 -0.0015,-0.0015 -0.006,-0.0058 -0.05423,-0.07178 v -0.0015 l -0.04245,-0.08643 -0.0015,-0.0029 -0.0234,-0.09082 -0.0075,-0.09521 0.0117,-0.09522 v -0.0029 l 0.03517,-0.106934 0.28125,-0.556641 0.29004,-0.520019 0.29883,-0.483398 0.309082,-0.448243 0.317873,-0.411621 0.328125,-0.376465 0.335445,-0.338379 0.345705,-0.303222 -0.31494,-0.208008 -0.30615,-0.216797 -0.58887,-0.458496 -0.555173,-0.483398 -0.522952,-0.499512 -0.48633,-0.508301 -0.452633,-0.509766 -0.414555,-0.502441 -0.376462,-0.487793 -0.339848,-0.46582 -0.298822,-0.435059 -0.47754,-0.744141 -0.309083,-0.527343 -0.133305,-0.244629 -0.04537,-0.125976 -0.0117,-0.130372 0.0249,-0.130371 0.05858,-0.121582 0.08935,-0.101074 0.108398,-0.07325 0.125977,-0.04102 0.1377,-0.0073 1.019528,0.105469 0.941895,0.131836 0.86865,0.152343 0.798345,0.172852 0.73242,0.188965 0.670897,0.203614 0.610838,0.215331 0.55518,0.225586 -0.06,-0.388104 -0.04103,-0.395508 -0.0249,-0.401367 -0.003,-0.405762 0.01905,-0.411621 0.04102,-0.416015 0.06735,-0.42041 0.09229,-0.42334 0.12012,-0.424805 0.150878,-0.427734 0.17871,-0.427734 0.2124,-0.430665 0.246097,-0.429199 0.27978,-0.429199 0.317873,-0.427735 0.354495,-0.426269 0.0747,-0.06885 0.0835,-0.05127 0.09082,-0.03369 0.09521,-0.01611 0.09522,0.0029 0.09375,0.0205 0.08935,0.04102 0.08057,0.0586 0.05272,0.05273 0.04395,0.05713 v -0.405895 l 0.006,-0.07617 0.01755,-0.07325 0.06442,-0.134766 0.04545,-0.0586 0.05565,-0.04981 0.0615,-0.04394 0.07028,-0.03223 z m -0.470212,1.437011 -0.0498,0.06152 -0.351563,0.42627 -0.310545,0.427734 -0.269535,0.427734 -0.231442,0.4292 -0.194828,0.426269 -0.159667,0.426269 -0.125978,0.423341 -0.09521,0.421875 -0.06592,0.416015 -0.03952,0.413086 -0.0117,0.408691 0.01027,0.401367 0.03368,0.395508 0.05423,0.388184 0.07178,0.379395 0.08935,0.37207 0.50244,0.307617 0.43653,0.303222 0.380857,0.294435 0.326663,0.279785 z m 1.000485,0.5625 v 7.511719 l 0.376462,-0.22998 0.437993,-0.253419 0.495112,-0.270996 0.547853,-0.28125 0.05272,-0.379394 0.02783,-0.448243 -0.0045,-0.446777 -0.03368,-0.442382 -0.06007,-0.436524 -0.08496,-0.430664 -0.106928,-0.421875 -0.124515,-0.413086 -0.140625,-0.401367 -0.15381,-0.389648 -0.165525,-0.375 L 98.12029,37.014039 97.943042,36.6698 97.579765,36.036988 Z m -9.062985,5.229493 0.35595,0.547851 0.44532,0.635742 0.531735,0.69873 0.29736,0.363282 0.31641,0.367676 0.335445,0.36914 0.355957,0.367676 0.373538,0.360351 0.39111,0.353028 0.408697,0.339843 0.4248,0.323731 0.442388,0.304688 0.457027,0.28125 0.363285,-0.165528 0.372068,-0.131835 0.376462,-0.09375 0.35889,-0.05567 0.33984,-0.02197 0.319343,0.0059 -0.210938,-0.314942 -0.216802,-0.347168 -0.22119,-0.376465 -0.218258,-0.404297 -0.21387,-0.430664 -0.203617,-0.454101 -0.190425,-0.47754 -0.17139,-0.498046 -0.474608,-0.234375 -0.52881,-0.228516 -0.590332,-0.219727 -0.65625,-0.208007 -0.725093,-0.19336 -0.799807,-0.174316 -0.880373,-0.155274 z m 16.87061,0.599121 -0.33692,0.01319 -0.33691,0.0249 -0.33546,0.03955 -0.33544,0.04981 -0.66504,0.131835 -0.65332,0.168457 -0.63868,0.199219 -0.61816,0.222656 -0.5918,0.240235 -0.56104,0.250488 -0.11718,0.413086 -0.14502,0.402832 -0.17139,0.394043 -0.19775,0.385254 -0.22412,0.376464 -0.250485,0.366212 -0.276863,0.355957 -0.303217,0.347168 0.265132,0.0029 0.275393,0.01758 0.284182,0.03077 0.290038,0.04687 0.2959,0.06592 0.29736,0.08789 0.29737,0.108398 0.29736,0.133301 0.48633,-0.256348 0.46728,-0.27832 0.44678,-0.297363 0.42773,-0.313477 0.40577,-0.325195 0.38525,-0.333984 0.36328,-0.338379 0.34277,-0.341309 0.31933,-0.338379 0.29737,-0.332519 0.52588,-0.637208 0.43066,-0.574218 0.33252,-0.481934 -0.38672,-0.02344 z m -9.87452,1.845702 0.260745,0.524415 0.27099,0.483398 0.272468,0.436524 0.262207,0.388183 V 44.117066 L 95.991993,43.89441 95.61406,43.542848 Z m 3.522952,0.14502 -0.492187,0.28125 -0.41016,0.246094 -0.55371,0.358886 v 1.145508 l 0.235838,-0.235839 0.219727,-0.2417 0.203617,-0.246094 0.188963,-0.251952 0.175777,-0.256348 0.158205,-0.260742 0.145021,-0.268067 z m -3.527347,3.250488 -0.287108,0.01904 -0.30762,0.05127 0.404303,0.137695 0.411615,0.112793 0.420412,0.08789 0.429203,0.06006 v -0.287105 l -0.19776,-0.06592 -0.247552,-0.06006 -0.292973,-0.04248 z m 3.193357,0.139161 -0.33252,0.0088 -0.300292,0.02637 -0.266595,0.03662 -0.22266,0.04102 v 0.247558 l 0.487792,-0.03223 0.474608,-0.06152 0.464355,-0.08789 0.45264,-0.114258 -0.386723,-0.04834 z m -5.034667,0.481933 -0.319335,0.238769 -0.313478,0.276856 -0.30615,0.313477 -0.298829,0.351562 0.473145,-0.275391 0.467287,-0.240234 0.462892,-0.205078 0.455566,-0.172851 -0.313478,-0.137696 z m 7.226075,0.145019 -0.57129,0.221192 -0.59179,0.186035 0.36327,0.172852 0.35596,0.188965 0.34571,0.202148 0.33837,0.215332 0.32813,0.227051 0.31933,0.237304 0.31055,0.246094 0.30176,0.254883 -0.12891,-0.351562 -0.14502,-0.328125 -0.16259,-0.304688 -0.17871,-0.28125 -0.19629,-0.257812 -0.21387,-0.234375 -0.22852,-0.209473 z m -4.31396,0.739746 -0.303225,0.01319 -0.301755,0.02929 -0.303225,0.04394 -0.303225,0.0586 -0.304688,0.07471 -0.303225,0.08936 -0.304687,0.104004 -0.304688,0.120117 -0.304687,0.134766 -0.304688,0.150878 -0.30615,0.165527 -0.304687,0.180176 -0.30615,0.19629 -0.30615,0.210937 -0.306158,0.227051 -0.30615,0.241699 0.487793,0.09668 0.27246,0.03662 0.288577,0.0249 0.301755,0.01172 0.313478,-0.0074 0.32373,-0.02783 0.326662,-0.05127 0.332521,-0.0791 0.333982,-0.106933 0.33252,-0.140625 0.328125,-0.175781 0.32373,-0.215333 0.313477,-0.256347 0.304688,-0.300249 0.29004,-0.348633 z m 1.000485,0.06445 v 0.285644 l 0.0015,0.0044 0.124515,0.225586 0.130373,0.212402 0.270989,0.382325 0.287116,0.331054 0.29736,0.28125 0.306149,0.23584 0.313478,0.194824 0.316405,0.155274 0.31788,0.120117 0.3164,0.08935 0.31202,0.0586 0.30468,0.03515 0.29444,0.01319 0.28271,-0.0059 0.26807,-0.0205 0.24902,-0.03223 0.22998,-0.04102 -0.57129,-0.51709 -0.28711,-0.23584 -0.28565,-0.222656 -0.28857,-0.208008 -0.28711,-0.193359 -0.28857,-0.180176 -0.28858,-0.164062 -0.29004,-0.150879 -0.288568,-0.136231 -0.29004,-0.121582 -0.291502,-0.108399 -0.29004,-0.09375 -0.291502,-0.0791 -0.292973,-0.06445 z M 40.366016,49.265992 H 82.41289 l 0.101077,0.01025 0.09375,0.0293 0.08496,0.04541 0.0747,0.06006 0.0615,0.07471 0.04545,0.08496 0.02933,0.09375 0.01027,0.101075 -0.01027,0.09961 -0.02933,0.09375 -0.04545,0.08496 -0.0615,0.07325 -0.0747,0.06152 -0.08496,0.04687 -0.09375,0.02929 -0.101077,0.01025 H 40.366016 l -0.101075,-0.01025 -0.09375,-0.02929 -0.08496,-0.04687 -0.07325,-0.06152 -0.06152,-0.07325 -0.04541,-0.08496 -0.02929,-0.09375 -0.01025,-0.09961 0.01025,-0.101075 0.02929,-0.09375 0.04541,-0.08496 0.06152,-0.07471 0.07325,-0.06006 0.08496,-0.04541 0.09375,-0.0293 z m 69.700194,0 h 42.04687 l 0.0996,0.01025 0.0937,0.0293 0.085,0.04541 0.0747,0.06006 0.0615,0.07471 0.0455,0.08496 0.0293,0.09375 0.0103,0.101075 -0.0103,0.09961 -0.0293,0.09375 -0.0455,0.08496 -0.0615,0.07325 -0.0747,0.06152 -0.085,0.04687 -0.0937,0.02929 -0.0996,0.01025 h -42.04687 l -0.10107,-0.01025 -0.0937,-0.02929 -0.085,-0.04687 -0.0747,-0.06152 -0.0615,-0.07325 -0.0455,-0.08496 -0.0293,-0.09375 -0.0103,-0.09961 0.0103,-0.101075 0.0293,-0.09375 0.0455,-0.08496 0.0615,-0.07471 0.0747,-0.06006 0.085,-0.04541 0.0937,-0.0293 z m -55.749023,84.707518 0.114258,0.0175 0.106934,0.0439 0.149414,0.0864 0.316406,0.19775 0.446777,0.30762 0.541992,0.41309 0.294434,0.24609 0.303223,0.271 0.309081,0.29736 0.309083,0.3208 0.304687,0.34717 0.297363,0.3706 0.282715,0.39405 0.265137,0.41895 0.244629,-0.21681 0.270996,-0.19482 0.297363,-0.17578 0.322266,-0.15234 0.347168,-0.13184 0.373535,-0.10986 0.398437,-0.0879 0.421875,-0.0659 0.0835,-0.005 0.08057,0.009 0.07764,0.022 0.07031,0.0337 0.06592,0.0439 0.05713,0.0556 0.04834,0.0644 0.03955,0.0718 0.06738,0.17285 0.06298,0.19189 0.05567,0.20655 0.04687,0.22119 0.03662,0.23438 0.02344,0.24463 0.0088,0.25195 -0.0074,0.26074 -0.02637,0.26514 -0.04541,0.26953 -0.06738,0.26953 -0.09082,0.271 -0.117187,0.26659 -0.143556,0.26514 -0.174316,0.25782 -0.203613,0.25048 h 2.097656 l 0.09961,0.0103 0.09375,0.0293 0.08496,0.0469 0.07471,0.0615 0.06006,0.0733 0.04687,0.085 0.0293,0.0937 0.01025,0.0996 -0.01025,0.10108 -0.0293,0.0937 -0.04687,0.085 -0.06006,0.0732 -0.07471,0.0615 -0.08496,0.0455 -0.09375,0.0293 -0.09961,0.0103 h -2.251465 l 0.172852,0.26513 0.145019,0.27246 0.118653,0.27685 0.09375,0.27979 0.07178,0.27979 0.04981,0.27978 0.0293,0.27832 0.01319,0.27393 -0.0044,0.2666 -0.01758,0.26074 -0.03077,0.25049 -0.04248,0.24023 -0.05127,0.22706 -0.0586,0.21386 -0.134766,0.37647 -0.0249,0.0572 -0.02197,0.0439 -0.02783,0.0439 -0.0015,0.001 -0.0029,0.005 -0.06006,0.0674 -0.0015,0.001 -0.0029,0.003 -0.03076,0.0264 -0.0044,0.003 -0.0044,0.003 -0.03809,0.0249 -0.02637,0.0161 -0.01172,0.006 -0.05127,0.0249 -0.0586,0.0146 -0.0586,0.009 -0.0586,0.003 -0.05566,-0.003 h -0.0029 l -0.04394,-0.007 -0.01465,-0.003 -0.04541,-0.0132 -0.05127,-0.0205 -0.01904,-0.0103 -0.354493,-0.17871 -0.333984,-0.1831 -0.313476,-0.19043 -0.291504,-0.19483 -0.272461,-0.20215 -0.250488,-0.20654 -0.229981,-0.2124 -0.208008,-0.21827 -0.298828,0.4131 -0.316406,0.39257 -0.332519,0.36914 -0.341309,0.34717 -0.345703,0.32227 -0.344238,0.30029 -0.338379,0.27392 -0.328125,0.25049 -0.600587,0.42334 -0.495117,0.31641 -0.350097,0.20507 -0.162598,0.0894 -0.114257,0.041 -0.117188,0.0132 -0.14502,-0.0205 -0.07031,-0.0278 -0.06592,-0.0381 -0.09961,-0.0864 -0.07178,-0.11133 -0.03955,-0.12597 -0.0073,-0.1333 0.06592,-0.646 0.08057,-0.60205 0.09375,-0.55957 0.105468,-0.52002 0.115723,-0.479 0.124512,-0.44385 0.1333,-0.40869 0.13916,-0.375 -0.36621,0.0366 -0.375,0.0132 -0.446778,-0.019 -0.454101,-0.0572 -0.459961,-0.10108 -0.231446,-0.0688 -0.23291,-0.0806 -0.23291,-0.0937 -0.234375,-0.10547 -0.23291,-0.12012 -0.234375,-0.13477 -0.234375,-0.14794 -0.23291,-0.16406 -0.23291,-0.17871 -0.231446,-0.19629 -0.09375,-0.11133 -0.05713,-0.12744 -0.0205,-0.1377 0.01904,-0.13623 -0.143554,-0.0264 -0.127442,-0.0659 -0.102539,-0.0996 -0.07178,-0.12745 -0.02197,-0.0747 -0.01025,-0.0747 0.01319,-0.14795 0.05713,-0.13769 0.04248,-0.0601 0.05273,-0.0557 0.143555,-0.12158 0.335449,-0.26074 0.502441,-0.35157 0.307617,-0.19482 0.341309,-0.19922 0.37207,-0.19629 0.399902,-0.18896 0.424806,-0.17578 0.446777,-0.15527 0.467285,-0.12891 0.481934,-0.0952 0.498046,-0.0586 0.251954,-0.0117 0.254882,-0.002 -0.188965,-0.49951 -0.168457,-0.52295 -0.145019,-0.54052 -0.111328,-0.55371 -0.07325,-0.5625 -0.01904,-0.28419 -0.0088,-0.28417 0.0059,-0.28418 0.01904,-0.28419 0.03369,-0.28271 0.04834,-0.28125 0.03808,-0.11279 0.06152,-0.0981 0.08203,-0.0835 0.09961,-0.0615 0.112792,-0.0366 z m 83.181153,0.001 h 0.0835 l 0.082,0.0146 0.0776,0.0278 0.0747,0.041 0.0996,0.0894 0.0703,0.10986 0.0425,0.12451 0.006,0.1333 -0.0659,0.646 -0.0806,0.60204 -0.0937,0.55958 -0.10547,0.51855 -0.11572,0.48193 -0.12451,0.44238 -0.1333,0.4087 -0.13916,0.375 0.26074,-0.0278 0.26367,-0.0161 0.26807,-0.004 0.27099,0.0103 0.27393,0.0235 0.27539,0.0381 0.27832,0.0542 0.27978,0.0718 0.28125,0.0879 0.28272,0.10694 0.28272,0.12744 0.28417,0.14648 0.28418,0.167 0.28272,0.18896 0.28271,0.21241 0.28125,0.23583 0.0923,0.1084 0.0571,0.12598 0.0205,0.13623 -0.0175,0.13769 0.14356,0.0278 0.12744,0.0659 0.10254,0.0996 0.0718,0.12744 0.022,0.0747 0.0103,0.0747 -0.001,0.0747 -0.0117,0.0733 -0.0234,0.0703 -0.0337,0.0674 -0.0439,0.0615 -0.0542,0.0542 -0.13916,0.11866 -0.32666,0.25634 -0.49218,0.34424 -0.3003,0.1919 -0.33399,0.19629 -0.36474,0.19482 -0.39111,0.1875 -0.41602,0.17578 -0.43799,0.15674 -0.45703,0.13183 -0.47315,0.10254 -0.48779,0.0644 -0.24755,0.0175 -0.25049,0.006 -0.10694,-0.003 0.18897,0.49952 0.16846,0.52294 0.14355,0.53906 0.11133,0.55372 0.0718,0.5625 0.019,0.28271 0.007,0.28418 -0.005,0.28418 -0.019,0.28418 -0.0337,0.28271 -0.0498,0.28125 -0.0366,0.11426 -0.0586,0.0981 -0.082,0.082 -0.0996,0.0615 -0.104,0.0352 -0.10694,0.0117 -0.12451,-0.0146 -0.11865,-0.0483 -0.14795,-0.0864 -0.31641,-0.19775 -0.44677,-0.30615 -0.54053,-0.41309 -0.29443,-0.2461 -0.30323,-0.27099 -0.30908,-0.29736 -0.30908,-0.32081 -0.30615,-0.34717 -0.2959,-0.3706 -0.28272,-0.39404 -0.26513,-0.41894 -0.24463,0.21679 -0.271,0.19483 -0.29736,0.17578 -0.32226,0.15381 -0.34718,0.13037 -0.37207,0.11132 -0.39843,0.0879 -0.42188,0.0674 -0.0615,0.005 -0.14502,-0.0205 -0.13183,-0.0615 -0.10694,-0.0952 -0.0439,-0.0601 -0.0337,-0.0674 -0.0674,-0.17286 -0.063,-0.19189 -0.0557,-0.20654 -0.0469,-0.2212 -0.0366,-0.23291 -0.0234,-0.24462 -0.009,-0.25343 0.009,-0.25927 0.0249,-0.26661 0.0454,-0.26806 0.0674,-0.26953 0.0908,-0.271 0.11718,-0.2666 0.14355,-0.26514 0.17286,-0.25781 0.20361,-0.25049 h -2.09619 l -0.10107,-0.0103 -0.0937,-0.0293 -0.085,-0.0469 -0.0747,-0.0615 -0.0601,-0.0747 -0.0454,-0.085 -0.0293,-0.0937 -0.0103,-0.0996 0.0103,-0.10107 0.0293,-0.0937 0.0454,-0.085 0.0601,-0.0733 0.0747,-0.0615 0.085,-0.0454 0.0937,-0.0293 0.10107,-0.0103 h 2.24853 l -0.17285,-0.26513 -0.14502,-0.271 -0.11865,-0.27539 -0.0937,-0.27978 -0.0703,-0.27979 -0.0483,-0.27831 -0.0307,-0.27686 -0.0132,-0.27393 0.005,-0.2666 0.0175,-0.25928 0.0323,-0.25048 0.041,-0.24024 0.0513,-0.22851 0.0601,-0.21241 0.1333,-0.37792 0.0454,-0.10108 0.022,-0.0352 0.009,-0.0132 0.001,-0.003 0.0293,-0.0366 10e-4,-0.003 0.0337,-0.0323 0.003,-0.003 0.0352,-0.0293 0.003,-0.003 0.0264,-0.0175 0.0146,-0.009 h 0.001 l 0.0879,-0.0425 0.0835,-0.022 0.0864,-0.009 0.0864,0.007 0.0864,0.022 0.0337,0.0117 0.0132,0.006 0.0307,0.0161 0.35303,0.17872 0.33105,0.18311 0.31056,0.19042 0.2915,0.19483 0.271,0.20068 0.24902,0.20508 0.22852,0.2124 0.208,0.2168 0.29883,-0.41309 0.3164,-0.39111 0.33252,-0.37061 0.34131,-0.3457 0.34571,-0.32373 0.34423,-0.3003 0.33838,-0.27538 0.32813,-0.24902 0.60058,-0.42335 0.49512,-0.31494 0.3501,-0.20508 0.16259,-0.0879 0.0952,-0.0381 z m -82.791504,1.35351 0.0073,0.47168 0.04541,0.47168 0.08057,0.46875 0.109863,0.46436 0.133301,0.45263 0.152343,0.43946 0.166993,0.42041 0.175781,0.40136 0.244629,0.0733 0.238769,0.085 0.23584,0.0996 0.229981,0.1128 0.225585,0.12597 0.221192,0.1377 0.215332,0.15234 0.210937,0.16407 0.03223,-0.3003 0.06006,-0.31054 0.09082,-0.31641 0.125977,-0.3164 -0.156739,-0.29151 -0.168457,-0.28125 -0.178711,-0.27099 -0.188965,-0.25928 -0.194824,-0.24903 -0.199219,-0.23584 -0.408674,-0.43907 -0.410156,-0.39257 -0.396973,-0.34425 -0.370605,-0.29296 z m 82.218744,0.0967 -0.36913,0.25342 -0.40577,0.29883 -0.43066,0.34423 -0.44238,0.38526 -0.44092,0.42774 -0.42335,0.46435 -0.20361,0.24756 -0.19335,0.25488 -0.18311,0.26221 -0.16993,0.27246 0.0967,0.22412 0.0791,0.22998 0.0498,0.18604 0.0366,0.18017 0.0366,0.34277 0.42187,-0.25781 0.47608,-0.25634 0.52588,-0.2417 0.27979,-0.11133 0.2915,-0.10254 h 0.001 l 0.14356,-0.29736 0.13915,-0.32813 0.13624,-0.36328 0.12744,-0.3999 0.12158,-0.43799 0.10986,-0.48193 0.10108,-0.52442 z m -6.14501,2.2251 -0.0366,0.31494 -0.0103,0.34277 0.0278,0.36329 0.0308,0.18603 0.0439,0.1875 0.0572,0.1875 0.0747,0.1875 0.0908,0.18604 0.10693,0.18456 0.1289,0.18018 0.14796,0.17578 0.16992,0.16993 0.19336,0.16405 h 0.14355 l -0.0175,-0.22558 -0.0293,-0.21826 -0.041,-0.21387 -0.0498,-0.208 -0.12744,-0.39552 -0.15528,-0.36913 -0.17577,-0.34424 -0.1875,-0.31494 -0.19337,-0.28565 z m -71.167973,0.36914 -0.228516,0.13916 -0.205077,0.15527 -0.181641,0.16993 -0.156738,0.18603 0.131835,0.3501 0.14502,-0.26075 0.155274,-0.25341 0.165527,-0.24609 z m 1.230469,0.0762 -0.300293,0.35449 -0.262207,0.34864 -0.22705,0.34277 -0.19336,0.33692 -0.161133,0.32812 -0.131836,0.32373 -0.101074,0.3164 -0.07617,0.30909 0.243164,-0.14502 0.216797,-0.15234 0.190429,-0.15967 0.166993,-0.16553 0.145019,-0.16992 0.123048,-0.17286 0.102538,-0.17724 0.08496,-0.17724 0.06738,-0.17871 0.05127,-0.17725 0.03809,-0.17579 0.0249,-0.17138 0.01611,-0.33106 z m 76.908694,1.40039 -0.28565,0.0161 -0.27978,0.0323 -0.2754,0.0469 -0.26806,0.0601 -0.29004,0.4541 -0.28271,0.375 h 4.58202 l -0.36767,-0.25928 -0.36767,-0.21533 -0.36768,-0.17431 -0.36621,-0.13477 -0.36475,-0.0982 -0.36035,-0.0644 -0.35596,-0.0323 z m -83.545901,0.25489 -0.439453,0.0323 -0.4292,0.0718 -0.418944,0.10254 -0.405762,0.13184 -0.388184,0.15234 -0.367675,0.16846 -0.344239,0.17578 -0.319336,0.18017 h 4.324219 l -0.257813,-0.44829 -0.276855,-0.52735 -0.168457,-0.0205 -0.254883,-0.0175 z m 2.116699,0.57275 0.278321,0.44238 h 0.309081 l -0.288573,-0.2373 z m 78.024902,1.15723 0.29004,0.23583 0.30176,0.20508 -0.27833,-0.44091 z m 1.49561,0 0.2578,0.44677 0.27687,0.52735 0.16845,0.022 0.25488,0.0175 0.25196,10e-4 0.25195,-0.0132 0.24902,-0.0264 0.24756,-0.0395 0.24316,-0.0498 0.47315,-0.13037 0.4541,-0.1626 0.42773,-0.18603 0.39991,-0.20069 0.36767,-0.20654 z m -3.9712,0.009 -0.24169,0.14355 -0.21534,0.15235 -0.18897,0.1582 -0.16552,0.16553 -0.14355,0.16846 -0.12305,0.17431 -0.10254,0.17579 -0.0835,0.17724 -0.0674,0.17871 -0.0527,0.17724 -0.0381,0.17433 -0.0249,0.17284 -0.0175,0.33106 0.0161,0.30615 0.29883,-0.35303 0.2622,-0.34863 0.22559,-0.34131 0.19336,-0.33691 0.16113,-0.32959 0.13037,-0.32227 0.10254,-0.31494 z m -81.266597,0.27539 0.260743,0.18897 0.259277,0.16552 0.262207,0.14502 0.259277,0.12452 0.260742,0.10254 0.257812,0.0864 0.257813,0.0659 0.256348,0.0513 0.253418,0.0337 0.250488,0.019 0.249024,0.005 0.244629,-0.009 0.241699,-0.0205 0.237304,-0.0323 0.461426,-0.0952 0.291504,-0.45557 0.282715,-0.375 z m 8.705566,0 0.01758,0.22559 0.0293,0.21826 0.04102,0.21387 0.04981,0.208 0.125977,0.39404 0.155273,0.37061 0.175782,0.34278 0.1875,0.31494 0.193359,0.28564 0.19043,0.25488 0.03662,-0.31494 0.01025,-0.34277 -0.02783,-0.36182 -0.03077,-0.18603 -0.04394,-0.18604 -0.0586,-0.18896 -0.07325,-0.1875 -0.08936,-0.18604 -0.108399,-0.1831 -0.127438,-0.18166 -0.14795,-0.17432 -0.169921,-0.17138 -0.19336,-0.16406 z m 74.548821,0.6123 -0.0323,0.3003 -0.0601,0.31055 -0.0908,0.31494 -0.12597,0.3164 0.15674,0.2915 0.16846,0.28125 0.17871,0.271 0.1875,0.25928 0.19629,0.24903 0.19921,0.2373 0.4087,0.43945 0.41015,0.39258 0.39698,0.34424 0.3706,0.29297 0.32959,0.24023 -0.006,-0.47021 -0.0455,-0.47168 -0.0806,-0.46875 -0.10839,-0.4629 -0.13331,-0.45263 -0.15234,-0.43799 -0.16552,-0.42188 -0.17579,-0.3999 -0.24463,-0.0733 -0.24023,-0.0864 -0.23584,-0.0996 -0.22998,-0.11279 -0.22705,-0.12598 -0.22119,-0.13916 -0.2168,-0.15235 z m -76.561516,0.0718 -0.421875,0.25635 -0.477539,0.25635 -0.525879,0.24023 -0.279785,0.11133 -0.290039,0.10107 -0.143555,0.29737 -0.140625,0.32812 -0.134766,0.36328 -0.128905,0.39991 -0.120118,0.43945 -0.111328,0.48047 -0.101074,0.52441 -0.08789,0.57276 0.36914,-0.25196 0.405762,-0.30029 0.430663,-0.34424 0.442383,-0.38525 0.440919,-0.42774 0.423339,-0.46435 0.202149,-0.24609 0.194824,-0.25635 0.18164,-0.26221 0.171387,-0.27246 -0.09668,-0.22412 -0.0791,-0.22852 -0.04981,-0.18457 -0.03662,-0.18017 z m 74.988286,0.77783 -0.14502,0.26075 -0.15528,0.25195 -0.16553,0.24756 -0.17285,0.23877 0.22852,-0.13916 0.20361,-0.15381 0.18164,-0.17139 0.15674,-0.18603 z m -42.291505,12.917 h 12.489255 l 0.28271,0.0146 0.27539,0.0425 0.26514,0.0674 0.25488,0.0937 0.2417,0.11719 0.22852,0.13915 0.21387,0.15967 0.19775,0.18018 0.17871,0.19629 0.15967,0.21386 0.13916,0.22998 0.11719,0.24171 0.0937,0.25488 0.0674,0.26514 0.0425,0.27539 0.0146,0.28271 -0.0146,0.28418 -0.0425,0.27539 -0.0674,0.26514 -0.0937,0.25488 -0.11719,0.2417 -0.13916,0.22998 -0.15967,0.2124 -0.17871,0.19775 -0.19775,0.17871 -0.21387,0.15821 -0.22852,0.14062 -0.2417,0.11573 -0.25488,0.0937 -0.26514,0.0688 -0.27539,0.041 -0.28271,0.0146 H 89.994925 l -0.28272,-0.0146 -0.275385,-0.041 -0.26514,-0.0688 -0.25488,-0.0937 -0.241703,-0.11573 -0.228517,-0.14062 -0.213863,-0.15821 -0.196289,-0.17871 -0.18018,-0.19775 -0.159668,-0.2124 -0.139155,-0.22998 -0.117187,-0.2417 -0.09375,-0.25488 -0.06735,-0.26514 -0.04245,-0.27539 -0.01462,-0.28418 0.01462,-0.28271 0.04245,-0.27539 0.06735,-0.26514 0.09375,-0.25488 0.117187,-0.24171 0.139155,-0.22998 0.159668,-0.21386 0.18018,-0.19629 0.196289,-0.18018 0.213863,-0.15967 0.228517,-0.13915 0.241703,-0.11719 0.25488,-0.0937 0.26514,-0.0674 0.275385,-0.0425 z m 0,1.00049 -0.18018,0.009 -0.175778,0.0278 -0.169927,0.0439 -0.164063,0.0601 -0.153802,0.0747 -0.14649,0.0879 -0.13623,0.10254 -0.125978,0.11572 -0.114255,0.12598 -0.10254,0.13623 -0.08789,0.14648 -0.07617,0.15527 -0.06007,0.1626 -0.04245,0.16846 -0.02782,0.17578 -0.0088,0.18164 0.0088,0.18164 0.02782,0.17432 0.04245,0.16992 0.06007,0.1626 0.07617,0.15527 0.08789,0.14648 0.10254,0.13623 0.114255,0.12598 0.125978,0.11426 0.13623,0.10254 0.14649,0.0893 0.153802,0.0747 0.164063,0.0586 0.169927,0.0439 0.175778,0.0278 0.18018,0.009 h 7.05615 l -0.288578,-0.30762 -0.140625,-0.17432 -0.13623,-0.18896 -0.130372,-0.20361 -0.124508,-0.21973 -0.11865,-0.23731 -0.108405,-0.25341 -0.13623,-0.29297 -0.158197,-0.26368 -0.175785,-0.2329 -0.188963,-0.20801 -0.200685,-0.18165 -0.20508,-0.15819 -0.208005,-0.13623 -0.208012,-0.11427 -0.199215,-0.0967 -0.191895,-0.0791 -0.338378,-0.11133 -0.251955,-0.0615 -0.134767,-0.0249 z m 5.77002,0 0.171382,0.14794 0.165525,0.15967 0.159668,0.17579 0.15381,0.18896 0.14502,0.20508 0.134767,0.22119 0.124508,0.2373 0.1128,0.25342 0.12744,0.28711 0.139155,0.25781 0.149415,0.23145 0.155272,0.20361 0.161138,0.18018 0.1626,0.15674 0.162592,0.13476 0.159668,0.11572 0.15381,0.0982 0.147952,0.0791 0.260738,0.11719 0.203617,0.0659 0.121583,0.0293 h 3.446775 l 0.18017,-0.009 0.17725,-0.0278 0.16846,-0.0439 0.1626,-0.0586 0.15527,-0.0747 0.14648,-0.0893 0.13623,-0.10253 0.12598,-0.11427 0.11425,-0.12597 0.10254,-0.13623 0.0894,-0.14649 0.0733,-0.15527 0.0601,-0.1626 0.0439,-0.16992 0.0278,-0.17431 0.009,-0.18165 -0.009,-0.18164 -0.0278,-0.17578 -0.0439,-0.16845 -0.0601,-0.1626 -0.0733,-0.15528 -0.0894,-0.14648 -0.10254,-0.13623 -0.11425,-0.12598 -0.12598,-0.11572 -0.13623,-0.10254 -0.14648,-0.0879 -0.15527,-0.0747 -0.1626,-0.0601 -0.16846,-0.0439 -0.17725,-0.0278 -0.18017,-0.009 z m -45.695804,1.27294 H 82.41289 l 0.101077,0.0103 0.09375,0.0293 0.08496,0.0469 0.0747,0.0615 0.0615,0.0747 0.04545,0.085 0.02933,0.0937 0.01027,0.0996 -0.01027,0.10107 -0.02933,0.0937 -0.04545,0.085 -0.0615,0.0733 -0.0747,0.0615 -0.08496,0.0469 -0.09375,0.0278 -0.101077,0.0103 H 50.069141 l -0.101075,-0.0103 -0.09375,-0.0278 -0.08496,-0.0469 -0.07325,-0.0615 -0.06152,-0.0733 -0.04541,-0.085 -0.02929,-0.0937 -0.01025,-0.10107 0.01025,-0.0996 0.02929,-0.0937 0.04541,-0.085 0.06152,-0.0747 0.07325,-0.0615 0.08496,-0.0469 0.09375,-0.0293 z m 61.328609,0 h 32.34375 l 0.0996,0.0103 0.0937,0.0293 0.085,0.0469 0.0747,0.0615 0.0615,0.0747 0.0454,0.085 0.0293,0.0937 0.0103,0.0996 -0.0103,0.10107 -0.0293,0.0937 -0.0454,0.085 -0.0615,0.0733 -0.0747,0.0615 -0.085,0.0469 -0.0937,0.0278 -0.0996,0.0103 h -32.34375 l -0.10107,-0.0103 -0.0937,-0.0278 -0.085,-0.0469 -0.0747,-0.0615 -0.0601,-0.0733 -0.0454,-0.085 -0.0293,-0.0937 -0.0103,-0.10107 0.0103,-0.0996 0.0293,-0.0937 0.0454,-0.085 0.0601,-0.0747 0.0747,-0.0615 0.085,-0.0469 0.0937,-0.0293 z" />
    <path
       id="path67"
       style="display:inline;fill:#ffffff;fill-opacity:1;fill-rule:nonzero;stroke:none;stroke-width:0.999997"
       d="m 69.468066,126.7533 v 24.60204 h 4.101563 v -10.2495 h 4.270016 v -4.10157 h -4.270016 v -6.14941 h 5.125488 v -4.10156 z m 13.753421,0 -2.819827,24.60204 h 4.101562 l 0.679688,-5.12548 h 2.47998 l 0.684082,5.12548 H 92.44414 L 89.628707,126.7533 Z m 10.914548,0 v 24.60204 h 4.101562 v -8.54296 h 1.094233 l 1.70654,8.54296 h 4.10157 l -1.91455,-9.73827 c 1.23047,-0.78516 1.84423,-2.20752 1.84423,-4.27002 v -5.12842 c 0,-3.64062 -1.82079,-5.46533 -5.46532,-5.46533 z m 12.710455,0 v 24.60204 h 4.10156 v -12.72655 l 2.2705,12.72655 h 3.99903 l 2.44189,-12.9331 v 12.9331 h 4.10157 V 126.7533 h -5.7583 l -2.76856,14.82861 -2.62939,-14.82861 z m -8.608893,4.10156 H 99.6043 c 0.91015,0 1.36816,0.45361 1.36816,1.36377 v 5.12842 c 0,0.91014 -0.45801,1.36377 -1.36816,1.36377 h -1.366703 z m -11.824222,3.21094 0.82032,8.0625 h -1.621583 z" />
    <path
       id="path31"
       style="display:inline;fill:#ffffff;fill-opacity:1;fill-rule:nonzero;stroke:none;stroke-width:0.999997"
       d="m 38.605273,60.558473 v 24.673826 c 0.173278,-0.191175 0.350332,-0.379433 0.553711,-0.549315 0.57422,0.144532 1.157226,0.34863 1.731445,0.489255 0.21875,0.421875 0.437006,0.78027 0.651856,1.139655 0.008,0.124995 0.01955,0.25047 -0.03515,0.379395 -0.7461,1.621065 -1.691894,3.137205 -2.441894,4.7622 -0.159553,0.35922 -0.30345,0.727387 -0.459961,1.088385 v 5.497552 h 6.24609 V 60.558473 Z m 8.847656,0 v 37.480953 h 6.249024 V 81.980344 l 4.293457,16.059082 h 6.117187 V 60.558473 H 57.866504 V 76.617551 L 53.570117,60.558473 Z m 19.265625,0 v 37.480953 h 6.246094 V 82.421269 h 6.506839 v -6.246098 h -6.506839 v -9.370605 h 7.807617 v -6.246093 z m 16.655273,0 V 98.039426 H 89.62432 V 60.558473 Z m 8.852048,0 v 37.480953 h 6.246097 V 81.980344 l 4.296388,16.059082 h 6.11719 V 60.558473 h -6.24903 V 76.617551 L 98.34307,60.558473 Z m 19.261235,0 v 37.480953 h 6.24609 V 60.558473 Z m 8.85205,0 v 6.246093 h 5.20752 v 31.23486 h 6.24609 v -31.23486 h 5.20606 v -6.246093 z m 19.26123,0 v 37.480953 h 14.05518 v -6.24609 h -7.80908 v -9.372067 h 6.50829 v -6.246098 h -6.50829 v -9.370605 h 7.80908 v -6.246093 z" />
  </g>
</svg>
