<svg width="69" height="69" viewBox="0 0 69 69" fill="none" xmlns="http://www.w3.org/2000/svg">
<path d="M20.1882 4.54766L20.0089 4.55076L19.8306 4.55955L19.6528 4.57453L19.4766 4.5952L19.302 4.62156L19.1283 4.6536L18.9562 4.69132L18.7857 4.73473L18.6173 4.7833L18.4503 4.83756L18.2855 4.89699L18.1232 4.96159L17.963 5.03135L17.8054 5.10576L17.6499 5.18586L17.4974 5.27061L17.3476 5.36053L17.2008 5.45458L17.0571 5.5538L16.9166 5.65767L16.7791 5.76619L16.6458 5.87884L16.5156 5.99615L16.389 6.11811L16.2665 6.24368L16.1476 6.3739L16.0329 6.50826L15.9228 6.64676L15.8164 6.78887L15.7151 6.93511L15.618 7.08497L15.526 7.23897L8.41116 19.5612L8.16466 19.9968L7.9254 20.4361L7.6944 20.8779L7.47116 21.3229L7.25567 21.7709L7.04845 22.2215L6.84846 22.6747L6.65674 23.131L6.47277 23.5894L6.29655 24.0498L6.12809 24.5128L5.96738 24.9779L5.81493 25.4451L5.66972 25.9143L5.53278 26.3856L5.40359 26.8584L5.28215 27.3328L5.16846 27.8088L5.06304 28.2857L4.96485 28.7648L4.87494 29.2443L4.79277 29.726L4.71836 30.2081L4.65169 30.6908L4.59278 31.1745L4.54214 31.6592L4.49873 32.1444L4.46359 32.6302L4.4362 33.1159L4.41657 33.6027L4.4052 34.0895L4.40106 34.5763L4.4052 35.0626L4.41657 35.5494L4.4362 36.0357L4.46359 36.5219L4.49873 37.0077L4.54214 37.4924L4.59278 37.9771L4.65169 38.4614L4.71836 38.944L4.79277 39.4261L4.87494 39.9073L4.96485 40.3873L5.06304 40.8659L5.16846 41.3433L5.28215 41.8193L5.40359 42.2937L5.53278 42.7665L5.66972 43.2373L5.81493 43.7065L5.96738 44.1737L6.12809 44.6388L6.29655 45.1018L6.47277 45.5622L6.65674 46.0206L6.84846 46.4764L7.04845 46.9296L7.25567 47.3802L7.47116 47.8282L7.6944 48.2732L7.9254 48.715L8.16466 49.1542L8.41116 49.5899L8.6654 50.0214L8.92585 50.4477L9.19302 50.8689L9.4669 51.2849L9.74699 51.6952L10.0333 52.1003L10.3263 52.5003L10.625 52.8941L10.9299 53.2827L11.241 53.6656L11.5577 54.0434L11.8802 54.4149L12.2083 54.7808L12.5422 55.141L12.8817 55.4949L13.2264 55.8432L13.5767 56.1859L13.9317 56.5223L14.2924 56.852L14.6578 57.1765C15.7563 58.144 16.9391 59.0081 18.162 59.8104L18.5738 60.0704L18.9893 60.3236L19.4084 60.5706L19.8322 60.8109L20.2595 61.044L20.6905 61.2698L21.1251 61.4894L21.5633 61.7013L22.0052 61.907L22.4501 62.1054L22.8986 62.2961L23.3503 62.48L23.805 62.6568L24.2624 62.8258L24.7233 62.988L25.1869 63.1425L25.653 63.2893L26.1222 63.4293L26.5935 63.5611L27.0674 63.6857L27.5438 63.8024L28.0229 63.9115L28.5035 64.0128L28.9866 64.1068L29.4719 64.1921L29.9592 64.2696L30.4481 64.3399L30.9385 64.4014L31.4315 64.4551L31.9255 64.5006L32.4205 64.5383L32.9177 64.5672L33.4158 64.5879L33.9155 64.6008L34.4163 64.605L34.917 64.6008L35.4167 64.5879L35.9149 64.5672L36.412 64.5383L36.9076 64.5006L37.4016 64.4551L37.8941 64.4014L38.385 64.3399L38.8739 64.2696L39.3612 64.1921L39.8464 64.1068L40.3296 64.0128L40.8107 63.9115L41.2892 63.8024L41.7657 63.6857L42.2396 63.5611L42.7114 63.4293L43.1801 63.2893L43.6467 63.1425L44.1103 62.988L44.5707 62.8258L45.0286 62.6568L45.4833 62.48L45.935 62.2961L46.3835 62.1054L46.8284 61.907L47.2703 61.7013L47.7085 61.4894L48.1431 61.2698L48.5741 61.044L49.0014 60.8109L49.4252 60.5706L49.8443 60.3236L50.2603 60.0704L50.6716 59.8104L51.0788 59.5433L51.4814 59.2699L51.8803 58.9898L52.2746 58.7035L52.6643 58.411L53.0493 58.1118L53.4296 57.8064L53.8048 57.4943L54.1758 57.1765L54.5412 56.852L54.9019 56.5223L55.2574 56.1859L55.6072 55.8432L55.9519 55.4949L56.2914 55.141L56.6253 54.7808L56.9534 54.4149L57.2759 54.0434L57.5926 53.6656L57.9037 53.2827L58.2086 52.8941L58.5073 52.5003L58.7998 52.1003L59.0866 51.6952L59.3667 51.2849L59.6406 50.8689L59.9078 50.4477L60.1682 50.0214L60.4224 49.5899L60.6689 49.1542L60.9082 48.715L61.1392 48.2732L61.3624 47.8282L61.5774 47.3802L61.7852 46.9296L61.9851 46.4764L62.1769 46.0206L62.3608 45.5622L62.537 45.1018L62.7055 44.6388L62.8662 44.1737L63.0187 43.7065L63.1639 43.2373L63.3008 42.7665L63.43 42.2937L63.5515 41.8193L63.6651 41.3433L63.7706 40.8659L63.8688 40.3873L63.9587 39.9073L64.0408 39.4261L64.1153 38.944L64.1819 38.4614L64.2408 37.9771L64.2915 37.4924L64.3344 37.0077L64.37 36.5219L64.3974 36.0357L64.417 35.5494L64.4284 35.0626L64.4325 34.5763L64.4284 34.0895L64.417 33.6027L64.3974 33.1159L64.37 32.6302L64.3344 32.1444L64.2915 31.6592L64.2408 31.1745L64.1819 30.6908L64.1153 30.2081L64.0408 29.726L63.9587 29.2443L63.8688 28.7648L63.7706 28.2857L63.6651 27.8088L63.5515 27.3328L63.43 26.8584L63.3008 26.3856L63.1639 25.9143L63.0187 25.4451L62.8662 24.9779L62.7055 24.5128L62.537 24.0498L62.3608 23.5894L62.1769 23.131L61.9851 22.6747L61.7852 22.2215L61.5774 21.7709L61.3624 21.3229L61.1392 20.8779L60.9082 20.4361L60.6689 19.9968L60.4224 19.5612L53.3076 7.23897L53.2157 7.08497L53.1185 6.93511L53.0172 6.78887L52.9108 6.64676L52.8007 6.50826L52.686 6.3739L52.5676 6.24368L52.4446 6.11811L52.318 5.99615L52.1883 5.87884L52.0545 5.76619L51.917 5.65767L51.7765 5.5538L51.6328 5.45458L51.486 5.36053L51.3362 5.27061L51.1837 5.18586L51.0287 5.10576L50.8711 5.03135L50.7109 4.96159L50.5481 4.89699L50.3838 4.83756L50.2169 4.7833L50.0484 4.73473L49.8779 4.69132L49.7058 4.6536L49.5322 4.62156L49.3575 4.5952L49.1813 4.57453L49.0035 4.55954L48.8252 4.55076L48.6459 4.54765H38.9958C39.0013 4.63454 39.0042 4.72156 39.0046 4.80862C39.0046 5.39961 38.8882 5.98481 38.662 6.53081C38.4359 7.0768 38.1043 7.5729 37.6864 7.99077C37.2685 8.40863 36.7724 8.74009 36.2264 8.96621C35.6803 9.19232 35.0951 9.30867 34.5041 9.3086C33.3107 9.3086 32.1661 8.83449 31.3222 7.99058C30.4783 7.14667 30.0042 6.00209 30.0042 4.80862C30.007 4.72149 30.0123 4.63447 30.0202 4.54765L20.1882 4.54766ZM13.8144 29.8743C14.017 29.9253 14.2227 29.9973 14.4253 30.0469C14.5024 30.1957 14.5794 30.3221 14.6552 30.4489C14.658 30.493 14.6621 30.5373 14.6428 30.5828C14.3796 31.1546 14.046 31.6895 13.7814 32.2628C12.8057 34.4594 11.9942 36.7536 11.2446 39.0205C11.1908 39.179 11.0918 39.3194 11.1717 39.4902C11.3192 39.4117 11.4194 39.2713 11.52 39.1528C11.9665 38.6539 12.464 38.2403 13.0083 37.8655C13.091 37.7925 13.175 37.7417 13.2811 37.6893C13.4093 37.6356 13.5404 37.6023 13.6713 37.5927C14.155 37.5541 14.552 37.8326 14.6609 38.3756C14.7339 38.7449 14.7419 39.1211 14.6826 39.5C14.5641 40.2387 14.4253 41.0006 14.3095 41.7599C14.2627 42.0065 14.217 42.2752 14.1922 42.5205C14.1922 42.8072 14.1717 43.0952 14.4087 43.2977C14.5837 43.284 14.6235 43.2375 14.7255 43.1189C15.0921 42.7372 15.4104 42.292 15.7053 41.8276C16.3364 40.8726 16.9426 39.875 17.5724 38.898C17.7217 38.6785 17.8497 38.4223 18.1129 38.2619C18.6205 37.5272 19.1993 36.9192 19.8203 36.6449C19.9705 36.5884 20.0998 36.5567 20.2321 36.5457C20.8908 36.4947 21.5425 36.9285 21.6403 37.6051C21.6734 37.758 21.6667 37.9346 21.8279 38.0324C22.087 38.2336 22.0634 38.4994 22.0165 38.7461C21.9848 38.9032 21.9066 39.0205 21.8501 39.1569C21.4615 40.094 21.117 41.0478 20.8166 41.9986C20.7491 42.2701 20.6361 42.5205 20.7256 42.8223C20.964 42.7603 21.107 42.6156 21.2724 42.4709C21.9483 41.8932 22.5537 41.1992 23.0108 40.4225C23.231 39.5854 23.4568 38.7475 23.6965 37.9084C23.7627 37.6163 23.8717 37.3212 23.9833 37.047C24.0371 36.8885 24.1332 36.726 24.2324 36.5855C24.3895 36.3306 24.493 36.2339 24.668 36.2201C24.8003 36.2091 24.981 36.2618 25.2525 36.3514C25.3366 36.565 25.6146 36.741 25.5925 37.0304C25.5746 37.0759 25.6685 37.1352 25.7388 37.1958C25.9041 37.3364 26.028 37.5046 26.13 37.6728C26.3077 37.9677 26.5627 38.1249 26.87 38.1001C27.1111 38.0822 28.0511 37.6755 28.2854 37.5694C28.4835 37.4797 28.8215 37.1572 29.107 37.0454C29.197 36.8132 29.2925 36.5846 29.4042 36.3555C29.5337 36.0358 29.6839 35.6927 30.0243 35.5328C30.5948 35.7754 30.5948 35.7754 30.9131 36.1695C30.3481 37.1203 29.9225 38.169 29.6579 39.2949C29.8977 39.2536 29.9294 39.0963 30.0093 38.9791C30.7493 38.0159 31.6106 37.1751 32.6634 36.5178C32.8508 36.3703 33.0615 36.2436 33.3027 36.2243C33.807 36.1843 34.1446 36.2685 34.3403 36.7839C34.4712 37.0389 34.4933 37.3243 34.514 37.5875C34.536 37.5861 34.5581 37.5832 34.5801 37.5818C34.7551 37.568 34.7911 37.4552 34.871 37.3601C35.2541 36.8888 36.3759 35.7185 37.0042 35.5587C37.0676 35.5311 37.1557 35.5244 37.2218 35.5189C37.5732 35.4913 37.8972 35.6858 38.0171 36.0744C38.0736 36.2467 38.0872 36.4213 38.0817 36.6212C38.0486 37.0442 37.9718 37.4704 37.8492 37.8769C37.6741 38.4639 37.499 39.0303 37.3226 39.5967C37.1462 40.1617 37.0582 40.721 37.0141 41.2984C37.0031 41.4321 36.9917 41.5659 37.044 41.672C37.0895 41.6899 37.1116 41.6882 37.1557 41.6855C37.2425 41.6786 37.3017 41.5852 37.3624 41.5149C38.4758 40.2347 39.2684 38.8028 40.08 37.3255C40.1186 37.2566 40.1805 37.2072 40.2438 37.1576C40.257 37.1497 40.2702 37.1426 40.2831 37.1374C40.8181 36.2026 41.503 35.4036 42.2463 35.3453C42.5757 35.3191 43.2855 35.639 43.3145 36.0124C43.3613 36.3183 43.4921 36.5717 43.5816 36.8749C43.6657 37.1105 43.7082 37.3725 43.7082 37.6371C43.722 37.8121 43.6712 38.0147 43.7759 38.2283C43.8021 38.271 43.8478 38.2886 43.9139 38.2831C44.3301 38.25 45.4432 37.5227 45.6141 37.4428C45.6304 37.4311 45.6457 37.4224 45.6611 37.4128C45.8816 36.815 46.1143 36.2219 46.3747 35.6388C46.5263 35.3177 46.6755 34.9747 46.9897 34.7515C47.3108 34.9031 47.7101 34.9375 47.9168 35.3179C47.7679 35.661 47.6854 36.0221 47.4429 36.3059C47.2817 36.4947 47.1892 36.7235 47.1644 36.9674C47.1672 37.0115 47.148 37.0361 47.1494 37.0568C47.1714 37.0554 47.1905 37.0319 47.2346 37.0279C48.0091 36.1941 49.3572 34.8078 50.4541 34.721C50.8964 34.7307 51.2244 34.9692 51.3264 35.4254C51.4201 35.7713 51.4034 36.1251 51.3207 36.4641C51.2091 37.0249 51.1097 37.1658 50.9305 37.6867C50.7004 38.4116 50.4455 39.0935 50.2153 39.8184C50.123 40.0471 50.0985 40.2924 50.0489 40.517C50.0324 40.5846 50.0169 40.6741 50.0665 40.7362C50.0899 40.7568 50.1344 40.7525 50.1564 40.7511C50.2446 40.7443 50.3051 40.6729 50.345 40.6261C51.2339 39.8489 52.5719 38.0655 53.1314 37.0279C53.2096 36.8874 53.2677 36.7295 53.3815 36.6005C53.6516 36.0058 53.9596 35.4257 54.3029 34.86C54.4573 34.583 54.6817 34.3446 54.9132 34.1944C54.9339 34.1931 54.9341 34.1931 54.9561 34.1903C55.1105 34.1793 55.1615 34.2634 55.2745 34.2978C55.3875 34.3336 55.4798 34.3932 55.5721 34.4291C55.6975 34.6192 55.82 34.786 55.707 35.0368C55.6119 35.2214 55.6283 35.4404 55.3706 35.5272C55.2631 35.5575 55.2095 35.7158 55.1282 35.8109C54.391 37.1062 53.8577 38.4733 53.5531 39.9326C53.5021 40.1131 53.4498 40.294 53.5531 40.4855C53.5752 40.4827 53.6194 40.48 53.6415 40.4773C53.8385 40.4621 53.9817 40.3185 54.1278 40.2179C54.7479 39.6832 55.3199 39.0867 55.8202 38.4293C56.7393 37.2084 57.6595 35.9876 58.5084 34.7061C58.6861 34.4497 58.8529 34.3256 59.0293 34.3118C59.1381 34.3035 59.2501 34.3157 59.3879 34.3722C59.6139 34.4425 59.735 34.5876 59.775 34.8053C59.7874 34.9596 59.7748 35.0919 59.7651 35.2476C59.5019 36.6601 59.2611 38.0917 59.0406 39.5001C58.9745 39.7922 58.8639 40.0665 58.9094 40.3724L58.8903 40.3956L58.9125 40.3946C58.9345 40.3918 58.9549 40.3904 58.9549 40.3904C59.0651 40.3822 59.1495 40.331 59.2101 40.2607C60.2547 39.4932 59.9512 39.8485 60.8235 38.8743C60.9241 38.7558 61.0483 38.6362 61.2219 38.6004C61.5141 38.9532 61.5142 38.953 61.8105 39.0618C61.816 39.1266 61.8418 39.1912 61.8487 39.2794C61.8749 39.3207 61.8997 39.3638 61.9273 39.4272C61.6696 39.8006 61.3626 40.1121 61.0126 40.4277C60.0246 41.344 60.2836 40.9923 59.1977 41.7847C59.0517 41.8839 58.9263 41.9831 58.7802 42.0823C58.4632 42.2615 58.306 42.5166 58.1999 42.857C57.5343 45.3388 55.7442 49.5213 52.8255 49.7501C52.5403 49.7735 52.2507 49.7515 51.9806 49.6839C50.9705 49.4772 50.6002 48.689 50.5616 47.9187C50.483 45.8061 52.4109 44.4832 54.0632 43.6027C55.0388 43.0845 55.9867 42.5014 56.91 41.8978C57.2049 41.7201 57.3853 41.4858 57.4666 41.1041C57.7133 40.0458 57.9381 38.9697 58.1172 37.8728C58.131 37.7612 58.167 37.6702 58.0691 37.5462C57.879 37.6482 57.7849 37.8545 57.665 38.0185C56.7886 39.2353 55.0168 41.6937 53.3934 41.8219C52.8408 41.8219 52.4175 41.4791 52.3072 40.9362C52.2687 40.7534 52.2517 40.5694 52.2576 40.3837C51.4528 41.3559 50.5867 42.1527 49.9177 42.2053C49.3679 42.2494 48.9227 41.9073 48.8304 41.2969C48.7519 40.8614 48.807 40.4373 48.9048 40.0101C49.0357 39.4258 49.2576 38.8784 49.434 38.312C49.6517 37.7208 49.7458 37.4938 49.9621 36.8806C50.0338 36.6753 50.1289 36.4696 50.111 36.2491C50.0641 36.2091 50.0419 36.2109 49.9978 36.215C49.9317 36.2191 49.8698 36.2686 49.805 36.2961C48.1734 37.4399 46.7001 39.7648 45.843 41.5108C45.7259 41.6968 45.6323 41.9018 45.4683 42.0699C45.3278 42.2573 45.2463 42.3304 45.1361 42.3386C45.0699 42.3441 44.9788 42.3071 44.8203 42.2534C44.7087 42.2396 44.5959 42.2053 44.5036 42.1681C44.239 41.8801 44.2347 41.5494 44.3408 41.209C44.6001 40.4875 44.8435 39.7608 45.0901 39.036C45.0273 39.0612 44.9601 39.0884 44.9061 39.1115C44.7339 39.168 43.5226 39.4851 43.4674 39.6215C43.1147 40.7529 42.0727 42.668 40.7622 42.8595C40.696 42.865 40.6108 42.8942 40.5446 42.8983C39.8652 42.952 39.4158 42.5896 39.2036 41.8565C39.1508 41.6601 39.1157 41.4623 39.0961 41.2638C38.8542 41.5903 38.6092 41.907 38.367 42.2079C38.0059 42.6778 37.5527 43.0885 36.9381 43.1381C36.3235 43.1863 35.8975 42.8225 35.8204 42.1211C35.728 41.2226 35.8564 40.3295 36.1196 39.4696C36.2725 38.8839 36.4711 38.3163 36.6255 37.7513C36.682 37.637 36.7369 37.5003 36.6611 37.3736C36.5082 37.386 36.4873 37.4096 36.3867 37.5281C35.316 38.5175 34.1889 40.4604 33.6515 41.7847C33.5192 42.0589 33.3426 42.3386 33.1869 42.6156C32.9885 42.6087 32.8124 42.6225 32.6361 42.6156C32.4886 42.4282 32.2626 42.3566 32.1565 42.1443C32.14 41.9252 32.2333 41.7199 32.2816 41.4953C32.6178 40.4301 32.9763 39.3648 33.1761 38.2665C33.2064 38.0874 33.2808 37.9043 33.2009 37.7348C33.1554 37.7155 33.1318 37.6964 33.0877 37.6991C33.0216 37.7046 32.9611 37.7746 32.8991 37.8242C31.1655 39.0879 29.972 41.0364 29.1065 42.9588C28.864 43.5086 28.6452 44.0999 28.2208 44.5974C28.021 44.5905 27.8224 44.5835 27.6446 44.5752C27.5027 44.4539 27.4047 44.3301 27.2627 44.2088C27.2269 44.0352 27.2548 43.8338 27.3072 43.6533C27.6644 42.0555 28.0213 40.4458 28.4952 38.8655C28.0282 39.0758 27.5309 39.2411 27.0726 39.2768C26.7212 39.3044 26.366 39.2658 25.9967 39.0742C25.8589 38.9971 25.7195 38.9201 25.499 38.9146C24.7755 40.3849 24.1446 41.9142 23.5617 43.4838C23.4101 43.5183 23.3009 43.5265 23.17 43.5582C23.0487 43.4135 22.8311 43.4535 22.6919 43.3763C22.5325 43.2914 22.4437 43.2097 22.4057 43.0998C22.3181 43.185 22.2287 43.269 22.1364 43.3515C21.887 43.5486 21.6364 43.7239 21.3649 43.921C21.0893 44.0753 20.8369 44.2281 20.5076 44.2543C20.0032 44.2929 19.626 43.9909 19.4482 43.4094C19.44 43.3212 19.433 43.2333 19.3614 43.152C19.1451 43.2127 19.0484 43.3973 18.9051 43.5406C18.5124 43.881 18.0578 44.2696 17.5093 44.3137C16.9388 44.3578 16.4246 44.0006 16.2882 43.3928C16.2682 43.3192 16.2528 43.2454 16.2407 43.1711C16.0302 43.4602 15.8162 43.7547 15.5689 44.0243C15.2202 44.3606 14.8246 44.6567 14.3188 44.6966C13.9674 44.7242 13.6672 44.5492 13.4398 44.1923C13.0388 43.5832 12.8953 42.8873 13.0166 42.1707C13.1337 41.4114 13.2719 40.6493 13.4124 39.9093C13.4358 39.6434 13.5268 39.3927 13.462 39.1337C13.2622 39.1268 13.1626 39.267 13.0579 39.3414C11.5297 40.6767 10.6836 42.5539 9.85397 44.3633C9.72444 44.683 9.59766 45.0232 9.37442 45.2837C8.88935 45.2782 8.79719 45.2408 8.37138 44.877C8.3452 44.5476 8.45423 44.2527 8.54243 43.9592C9.60351 39.7686 11.1865 34.9181 13.062 30.9714C13.2508 30.5593 13.4631 30.1678 13.8145 29.8743L13.8144 29.8743ZM42.3166 37.0842C42.0217 37.2619 41.9306 37.5117 41.9554 37.819C41.9967 38.0588 42.1443 38.2462 42.4365 38.311C42.5536 37.8383 42.5674 37.4618 42.3166 37.0842ZM20.3562 37.8397C19.9248 37.9844 19.9042 37.9856 19.6203 38.3177C18.6502 39.4532 18.0257 40.7832 17.5393 42.1681C17.5035 42.2825 17.4706 42.4174 17.4581 42.551C17.4265 42.7081 17.4153 42.8402 17.5145 42.9877C17.5365 42.9849 17.5369 42.9849 17.5589 42.9836C17.8001 42.9643 17.9198 42.8006 18.0617 42.6353C18.409 42.277 18.7079 41.877 18.9614 41.4374C19.2908 40.86 19.5969 40.2623 19.951 39.7042C20.3465 39.1213 20.2983 38.5067 20.3562 37.8397V37.8397ZM40.8903 38.588C40.317 39.4506 40.0898 40.7708 40.4206 41.6059C40.5101 41.621 40.5777 41.6372 40.6438 41.6317C41.2364 41.5849 41.83 40.4344 42.0587 39.9755C42.118 39.8818 42.2187 39.7634 42.1636 39.6132C41.9321 39.4782 41.7021 39.3623 41.4706 39.2272C41.2364 39.0687 41.1053 38.7919 40.8903 38.588V38.588ZM56.6868 43.5499C56.5365 43.605 56.473 43.633 56.4082 43.6605C55.6062 44.1208 54.8236 44.5574 54.0203 45.0191C53.0212 45.5166 51.737 46.5899 51.7646 47.7791C51.7605 48.2876 51.9809 48.5579 52.488 48.562C52.5542 48.5565 52.6203 48.5526 52.6865 48.547C54.7935 48.3803 56.0224 45.4795 56.6397 43.7969C56.6563 43.7294 56.6537 43.685 56.6868 43.5499V43.5499Z" fill="#217821"/>
<path d="M34.1134 11.8129L34.1527 11.8149L34.1904 11.8258L34.2251 11.8449L34.255 11.8718L34.3191 11.9477L34.4576 12.126L34.546 12.2495L34.6426 12.3937L34.7444 12.5575L34.8483 12.7384L34.9496 12.9358L35.0467 13.1477L35.1346 13.3719L35.1744 13.4882L35.211 13.6076L35.2436 13.729L35.272 13.853L35.2958 13.9786L35.3149 14.1063L35.3278 14.2355L35.3356 14.3662L35.3366 14.498L35.331 14.6308L35.593 14.5264L35.8684 14.4313L36.01 14.3884L36.1542 14.3491L36.3004 14.3145L36.4487 14.2846L36.5981 14.2597L36.7484 14.2411L36.8999 14.2282L37.0518 14.222L37.2032 14.2236L37.3546 14.2324L37.505 14.2494L37.6548 14.2753L37.6952 14.2887L37.7298 14.3104L37.7587 14.3393L37.7799 14.3745L37.7928 14.4137L37.7964 14.4546L37.7908 14.4949L37.7747 14.5326L37.7293 14.6117L37.6238 14.7796L37.4606 15.0158L37.3572 15.1538L37.2404 15.301L37.1097 15.4555L36.965 15.6142L36.8068 15.7754L36.6358 15.9356L36.4513 16.0932L36.2539 16.2452L36.0441 16.3888L35.9345 16.4565L35.8219 16.5216L35.8849 16.5811L35.9449 16.6441L36.0017 16.7113L36.0555 16.7821L36.1066 16.8565L36.1542 16.935L36.1986 17.0172L36.2405 17.103L36.2787 17.1929L36.3144 17.2859L36.3464 17.3831L36.3753 17.4844L36.4249 17.6968L36.4611 17.9241L36.4629 17.9536L36.4597 17.982L36.4519 18.0094L36.4401 18.0347L36.4245 18.058L36.4049 18.0786L36.3822 18.0962L36.3569 18.1102L36.2938 18.1334L36.2225 18.1556L36.129 18.1815L36.0153 18.2068L35.884 18.229L35.7378 18.245L35.5797 18.2507L35.4267 18.245L35.2675 18.2259L35.1864 18.2104L35.1048 18.1908L35.0221 18.167L34.9399 18.1381L34.8572 18.104L34.7751 18.0647L34.6934 18.0192L34.6123 17.9681L34.5322 17.9102L34.4536 17.8461L34.3761 17.7748L34.3007 17.6962V18.9675L34.297 19.0031L34.2867 19.0362L34.2702 19.0662L34.2485 19.0925L34.2226 19.1137L34.1927 19.1297L34.1596 19.1401L34.1245 19.1437L34.0888 19.1401L34.0557 19.1297L34.0258 19.1137L33.9994 19.0925L33.9777 19.0662L33.9617 19.0362L33.9513 19.0031L33.9477 18.9675V17.6456L33.8738 17.7061L33.7983 17.7614L33.7224 17.8115L33.6459 17.8564L33.5679 17.8962L33.4898 17.9319L33.4113 17.9629L33.3327 17.9903L33.1762 18.0327L33.0211 18.0606L32.8692 18.0766L32.7214 18.0812L32.5592 18.0755L32.4067 18.0606L32.2661 18.0389L32.1395 18.0125L32.0295 17.9846L31.938 17.9577L31.8176 17.9159L31.7933 17.9066L31.7897 17.905L31.7861 17.9029L31.7799 17.8998L31.7551 17.8838L31.7334 17.8642L31.7328 17.8636L31.7307 17.8616L31.7116 17.8363V17.8357L31.6966 17.8053L31.6961 17.8042L31.6878 17.7722L31.6852 17.7386L31.6893 17.705V17.704L31.7017 17.6663L31.8009 17.4699L31.9033 17.2864L32.0087 17.1159L32.1177 16.9578L32.2299 16.8126L32.3456 16.6798L32.464 16.5604L32.5859 16.4534L32.4748 16.38L32.3668 16.3036L32.1591 16.1418L31.9632 15.9713L31.7787 15.7951L31.6072 15.6157L31.4475 15.4359L31.3012 15.2587L31.1684 15.0866L31.0485 14.9222L30.9431 14.7688L30.7747 14.5063L30.6656 14.3202L30.6186 14.2339L30.6026 14.1895L30.5985 14.1435L30.6072 14.0975L30.6279 14.0546L30.6594 14.0189L30.6977 13.9931L30.7421 13.9786L30.7907 13.9761L31.1504 14.0133L31.4826 14.0598L31.7891 14.1135L32.0707 14.1745L32.3291 14.2412L32.5658 14.313L32.7813 14.3889L32.9771 14.4685L32.9559 14.3316L32.9415 14.1921L32.9327 14.0505L32.9316 13.9074L32.9384 13.7621L32.9528 13.6154L32.9766 13.4671L33.0091 13.3177L33.0515 13.1679L33.1047 13.017L33.1678 12.8661L33.2427 12.7141L33.3295 12.5627L33.4282 12.4113L33.5404 12.2604L33.6654 12.11L33.6918 12.0858L33.7212 12.0677L33.7533 12.0558L33.7869 12.0501L33.8205 12.0511L33.8535 12.0584L33.8851 12.0728L33.9135 12.0935L33.9321 12.1121L33.9476 12.1323V11.9891L33.9497 11.9622L33.9559 11.9364L33.9786 11.8888L33.9946 11.8681L34.0143 11.8506L34.036 11.8351L34.0608 11.8237L34.1134 11.8129ZM33.9476 12.3198L33.93 12.3415L33.806 12.4919L33.6964 12.6428L33.6013 12.7937L33.5197 12.9451L33.451 13.0955L33.3946 13.2458L33.3502 13.3952L33.3166 13.544L33.2933 13.6908L33.2794 13.8365L33.2753 13.9807L33.2789 14.1223L33.2908 14.2618L33.3099 14.3987L33.3352 14.5326L33.3668 14.6638L33.544 14.7724L33.698 14.8793L33.8324 14.9832L33.9476 15.0819L33.9476 12.3198ZM34.3005 12.5182V15.1682L34.4333 15.0871L34.5878 14.9977L34.7625 14.9021L34.9558 14.8028L34.9744 14.669L34.9842 14.5109L34.9826 14.3533L34.9707 14.1972L34.9495 14.0432L34.9196 13.8913L34.8818 13.7424L34.8379 13.5967L34.7883 13.4551L34.734 13.3177L34.6756 13.1854L34.6147 13.0577L34.5521 12.9363L34.424 12.7131L34.3005 12.5182ZM31.1033 14.3631L31.2289 14.5564L31.386 14.7806L31.5735 15.0271L31.6784 15.1553L31.7901 15.285L31.9084 15.4152L32.034 15.5449L32.1658 15.672L32.3037 15.7966L32.4479 15.9165L32.5978 16.0307L32.7538 16.1382L32.9151 16.2374L33.0432 16.179L33.1745 16.1325L33.3073 16.0994L33.4339 16.0798L33.5538 16.072L33.6664 16.0741L33.592 15.963L33.5155 15.8405L33.4375 15.7077L33.3605 15.5651L33.2851 15.4132L33.2132 15.253L33.1461 15.0845L33.0856 14.9088L32.9182 14.8261L32.7316 14.7455L32.5234 14.668L32.2918 14.5946L32.0361 14.5264L31.7539 14.4649L31.4433 14.4101L31.1033 14.3631ZM37.0549 14.5744L36.936 14.5791L36.8172 14.5879L36.6988 14.6018L36.5805 14.6194L36.3459 14.6659L36.1154 14.7253L35.8901 14.7956L35.672 14.8742L35.4632 14.9589L35.2653 15.0473L35.224 15.193L35.1728 15.3351L35.1123 15.4741L35.0426 15.61L34.9635 15.7428L34.8752 15.872L34.7775 15.9976L34.6705 16.1201L34.764 16.1211L34.8612 16.1273L34.9615 16.1382L35.0638 16.1547L35.1682 16.178L35.2731 16.209L35.378 16.2472L35.4829 16.2942L35.6544 16.2038L35.8193 16.1056L35.9769 16.0007L36.1278 15.8901L36.2709 15.7754L36.4068 15.6576L36.535 15.5382L36.6559 15.4178L36.7686 15.2984L36.8735 15.1811L37.059 14.9563L37.2109 14.7538L37.3282 14.5837L37.1918 14.5755L37.0549 14.5744ZM33.5714 15.2256L33.6633 15.4106L33.7589 15.5811L33.8551 15.7351L33.9476 15.872V15.5635L33.8638 15.485L33.7305 15.361L33.5714 15.2256ZM34.8142 15.2767L34.6405 15.3759L34.4958 15.4628L34.3005 15.5894V15.9935L34.3837 15.9103L34.4612 15.825L34.5331 15.7382L34.5997 15.6493L34.6617 15.5589L34.7175 15.4669L34.7687 15.3723L34.8142 15.2767ZM33.5698 16.4234L33.4685 16.4301L33.36 16.4482L33.5026 16.4968L33.6478 16.5366L33.7961 16.5676L33.9476 16.5888V16.4875L33.8778 16.4642L33.7905 16.4431L33.6871 16.4281L33.5698 16.4234ZM34.6964 16.4725L34.579 16.4756L34.4731 16.4849L34.3791 16.4978L34.3005 16.5123V16.5996L34.4726 16.5883L34.64 16.5666L34.8038 16.5356L34.9635 16.4953L34.8271 16.4782L34.6964 16.4725ZM32.9202 16.6425L32.8076 16.7268L32.697 16.8244L32.589 16.935L32.4836 17.059L32.6505 16.9619L32.8153 16.8771L32.9786 16.8048L33.1393 16.7438L33.0288 16.6952L32.9202 16.6425ZM35.4694 16.6937L35.2679 16.7717L35.0591 16.8374L35.1873 16.8983L35.3129 16.965L35.4348 17.0363L35.5542 17.1123L35.6699 17.1924L35.7826 17.2761L35.8921 17.3629L35.9986 17.4528L35.9531 17.3288L35.902 17.213L35.8446 17.1056L35.7816 17.0063L35.7123 16.9154L35.6369 16.8327L35.5562 16.7588L35.4694 16.6937ZM33.9476 16.9547L33.8406 16.9593L33.7341 16.9696L33.6272 16.9851L33.5202 17.0058L33.4127 17.0322L33.3057 17.0637L33.1983 17.1004L33.0908 17.1428L32.9833 17.1903L32.8758 17.2435L32.7678 17.3019L32.6603 17.3655L32.5523 17.4347L32.4443 17.5091L32.3363 17.5892L32.2283 17.6745L32.4004 17.7086L32.4965 17.7215L32.5983 17.7303L32.7047 17.7345L32.8153 17.7318L32.9295 17.722L33.0448 17.7039L33.1621 17.676L33.2799 17.6383L33.3972 17.5887L33.513 17.5267L33.6272 17.4507L33.7378 17.3603L33.8452 17.2544L33.9476 17.1314V16.9547ZM34.3005 16.9774V17.0782L34.301 17.0797L34.345 17.1593L34.391 17.2342L34.4866 17.3691L34.5878 17.4859L34.6927 17.5851L34.8008 17.6683L34.9113 17.737L35.023 17.7918L35.1351 17.8342L35.2467 17.8657L35.3568 17.8864L35.4643 17.8988L35.5682 17.9034L35.6679 17.9014L35.7625 17.8941L35.8503 17.8828L35.9314 17.8683L35.7299 17.6859L35.6286 17.6027L35.5278 17.5241L35.426 17.4507L35.3248 17.3825L35.2229 17.319L35.1211 17.2611L35.0188 17.2079L34.917 17.1598L34.8147 17.1169L34.7119 17.0787L34.6095 17.0456L34.5067 17.0177L34.4034 16.995L34.3005 16.9774ZM14.2402 17.38H29.0734L29.1091 17.3836L29.1422 17.3939L29.1721 17.4099L29.1985 17.4311L29.2202 17.4575L29.2362 17.4874L29.2466 17.5205L29.2502 17.5562L29.2466 17.5913L29.2362 17.6244L29.2202 17.6544L29.1985 17.6802L29.1721 17.7019L29.1422 17.7184L29.1091 17.7288L29.0734 17.7324H14.2402L14.2046 17.7288L14.1715 17.7184L14.1415 17.7019L14.1157 17.6802L14.094 17.6544L14.078 17.6244L14.0676 17.5913L14.064 17.5562L14.0676 17.5205L14.078 17.4874L14.094 17.4575L14.1157 17.4311L14.1415 17.4099L14.1715 17.3939L14.2046 17.3836L14.2402 17.38ZM38.8289 17.38H53.6621L53.6973 17.3836L53.7303 17.3939L53.7603 17.4099L53.7866 17.4311L53.8083 17.4575L53.8244 17.4874L53.8347 17.5205L53.8384 17.5562L53.8347 17.5913L53.8244 17.6244L53.8083 17.6544L53.7866 17.6802L53.7603 17.7019L53.7303 17.7184L53.6973 17.7288L53.6621 17.7324H38.8289L38.7933 17.7288L38.7602 17.7184L38.7302 17.7019L38.7039 17.6802L38.6822 17.6544L38.6661 17.6244L38.6558 17.5913L38.6521 17.5562L38.6558 17.5205L38.6661 17.4874L38.6822 17.4575L38.7039 17.4311L38.7302 17.4099L38.7602 17.3939L38.7933 17.3836L38.8289 17.38ZM19.1619 47.2629L19.2022 47.2691L19.2399 47.2845L19.2926 47.315L19.4043 47.3848L19.5619 47.4933L19.7531 47.639L19.857 47.7259L19.9639 47.8215L20.073 47.9264L20.182 48.0395L20.2895 48.162L20.3944 48.2927L20.4941 48.4318L20.5877 48.5796L20.674 48.5031L20.7696 48.4343L20.8745 48.3723L20.9881 48.3186L21.1106 48.2721L21.2424 48.2333L21.383 48.2023L21.5318 48.1791L21.5612 48.1773L21.5897 48.1805L21.6171 48.1882L21.6419 48.2001L21.6651 48.2156L21.6853 48.2352L21.7023 48.2579L21.7163 48.2833L21.74 48.3442L21.7623 48.4119L21.7819 48.4848L21.7984 48.5628L21.8114 48.6455L21.8196 48.7318L21.8227 48.8207L21.8201 48.9127L21.8108 49.0062L21.7948 49.1013L21.771 49.1964L21.739 49.292L21.6976 49.386L21.647 49.4796L21.5855 49.5705L21.5137 49.6589H22.2537L22.2888 49.6625L22.3219 49.6729L22.3519 49.6894L22.3782 49.7111L22.3994 49.737L22.4159 49.767L22.4263 49.8L22.4299 49.8351L22.4263 49.8708L22.4159 49.9039L22.3994 49.9338L22.3782 49.9597L22.3519 49.9814L22.3219 49.9974L22.2888 50.0077L22.2537 50.0114H21.4594L21.5204 50.1049L21.5716 50.201L21.6134 50.2987L21.6465 50.3974L21.6718 50.4961L21.6894 50.5948L21.6997 50.693L21.7044 50.7896L21.7028 50.8837L21.6966 50.9757L21.6858 51.064L21.6708 51.1488L21.6527 51.2289L21.632 51.3043L21.5845 51.4371L21.5757 51.4573L21.5679 51.4728L21.5581 51.4883L21.5576 51.4886L21.5566 51.4904L21.5354 51.5142L21.5348 51.5145L21.5338 51.5156L21.523 51.5249L21.5214 51.526L21.5199 51.527L21.5064 51.5358L21.4971 51.5415L21.493 51.5436L21.4749 51.5524L21.4542 51.5575L21.4336 51.5607L21.4129 51.5618L21.3933 51.5607H21.3922L21.3767 51.5582L21.3716 51.5572L21.3555 51.5525L21.3375 51.5453L21.3307 51.5417L21.2057 51.4786L21.0879 51.414L20.9773 51.3468L20.8744 51.2781L20.7783 51.2068L20.69 51.1339L20.6088 51.059L20.5354 50.982L20.43 51.1277L20.3184 51.2662L20.2011 51.3964L20.0807 51.5189L19.9587 51.6326L19.8373 51.7386L19.7179 51.8352L19.6022 51.9235L19.3903 52.0729L19.2156 52.1845L19.0921 52.2569L19.0348 52.2884L18.9944 52.3029L18.9531 52.3075L18.9019 52.3003L18.8771 52.2905L18.8539 52.277L18.8187 52.2466L18.7934 52.2073L18.7795 52.1628L18.7769 52.1158L18.8002 51.8879L18.8286 51.6755L18.8616 51.4781L18.8989 51.2947L18.9397 51.1257L18.9836 50.9691L19.0306 50.8249L19.0797 50.6927L18.9505 50.7056L18.8182 50.7102L18.6606 50.7035L18.5004 50.6833L18.3382 50.6477L18.2565 50.6234L18.1744 50.595L18.0922 50.5619L18.0095 50.5247L17.9273 50.4823L17.8447 50.4348L17.762 50.3826L17.6798 50.3247L17.5976 50.2617L17.516 50.1924L17.4829 50.1532L17.4628 50.1082L17.4555 50.0596L17.4623 50.0116L17.4116 50.0023L17.3666 49.979L17.3305 49.9439L17.3052 49.8989L17.2974 49.8726L17.2938 49.8462L17.2984 49.794L17.3186 49.7454L17.3336 49.7242L17.3522 49.7046L17.4028 49.6617L17.5212 49.5697L17.6984 49.4457L17.8069 49.377L17.9273 49.3067L18.0586 49.2374L18.1997 49.1708L18.3495 49.1088L18.5072 49.054L18.672 49.0085L18.842 48.9749L19.0177 48.9542L19.1066 48.9501L19.1965 48.9494L19.1299 48.7732L19.0704 48.5887L19.0193 48.398L18.98 48.2027L18.9541 48.0043L18.9474 47.904L18.9443 47.8037L18.9464 47.7035L18.9531 47.6032L18.965 47.5035L18.9821 47.4043L18.9955 47.3645L19.0172 47.3299L19.0461 47.3004L19.0813 47.2787L19.1211 47.2658L19.1619 47.2629ZM48.5064 47.2632H48.5358L48.5647 47.2684L48.5921 47.2782L48.6185 47.2927L48.6536 47.3242L48.6784 47.363L48.6934 47.4069L48.6955 47.4539L48.6723 47.6818L48.6438 47.8942L48.6108 48.0916L48.5736 48.2745L48.5328 48.4445L48.4888 48.6006L48.4418 48.7448L48.3927 48.8771L48.4847 48.8673L48.5777 48.8616L48.6723 48.8602L48.7679 48.8638L48.8645 48.8721L48.9617 48.8855L49.0599 48.9047L49.1586 48.93L49.2578 48.961L49.3575 48.9987L49.4572 49.0437L49.5575 49.0954L49.6577 49.1543L49.7575 49.2209L49.8572 49.2959L49.9564 49.3791L49.989 49.4173L50.0091 49.4617L50.0164 49.5098L50.0102 49.5584L50.0608 49.5682L50.1058 49.5914L50.142 49.6266L50.1673 49.6715L50.1751 49.6979L50.1787 49.7242L50.1783 49.7506L50.1742 49.7764L50.166 49.8012L50.1541 49.825L50.1386 49.8467L50.1195 49.8658L50.0704 49.9077L49.9551 49.9981L49.7815 50.1196L49.6756 50.1873L49.5577 50.2565L49.4291 50.3252L49.2911 50.3914L49.1443 50.4534L48.9898 50.5087L48.8286 50.5552L48.6617 50.5914L48.4896 50.6141L48.4023 50.6203L48.3139 50.6224L48.2762 50.6213L48.3428 50.7975L48.4023 50.982L48.4529 51.1722L48.4922 51.3675L48.5175 51.566L48.5242 51.6657L48.5267 51.766L48.5249 51.8662L48.5182 51.9665L48.5063 52.0662L48.4888 52.1654L48.4758 52.2057L48.4552 52.2403L48.4262 52.2693L48.3911 52.291L48.3544 52.3034L48.3167 52.3075L48.2728 52.3023L48.2309 52.2853L48.1787 52.2548L48.0671 52.1851L47.9095 52.0771L47.7188 51.9313L47.6149 51.8445L47.508 51.7489L47.3989 51.644L47.2899 51.5308L47.1819 51.4084L47.0775 51.2776L46.9778 51.1386L46.8842 50.9908L46.7979 51.0673L46.7023 51.136L46.5974 51.198L46.4837 51.2523L46.3613 51.2983L46.23 51.3376L46.0894 51.3686L45.9406 51.3924L45.9189 51.3941L45.8678 51.3869L45.8212 51.3652L45.7835 51.3316L45.768 51.3104L45.7561 51.2866L45.7324 51.2256L45.7101 51.158L45.6905 51.0851L45.674 51.0071L45.661 50.9249L45.6528 50.8386L45.6496 50.7492L45.6528 50.6577L45.6616 50.5637L45.6776 50.4691L45.7014 50.374L45.7334 50.2784L45.7747 50.1844L45.8254 50.0908L45.8864 49.9999L45.9582 49.9115H45.2187L45.183 49.9079L45.15 49.8975L45.12 49.881L45.0936 49.8593L45.0724 49.833L45.0564 49.803L45.0461 49.7699L45.0425 49.7348L45.0461 49.6991L45.0564 49.6661L45.0724 49.6361L45.0936 49.6102L45.12 49.5885L45.15 49.5725L45.183 49.5622L45.2187 49.5585H46.0119L45.9509 49.465L45.8998 49.3694L45.8579 49.2723L45.8249 49.1736L45.8001 49.0748L45.783 48.9767L45.7722 48.879L45.7676 48.7824L45.7693 48.6883L45.7755 48.5968L45.7869 48.5085L45.8013 48.4237L45.8194 48.3431L45.8406 48.2682L45.8877 48.1349L45.9037 48.0992L45.9114 48.0868L45.9146 48.0821L45.915 48.0811L45.9253 48.0682L45.9257 48.0671L45.9376 48.0557L45.9386 48.0546L45.951 48.0443L45.9521 48.0433L45.9614 48.0371L45.9665 48.0339H45.9669L45.9979 48.0189L46.0274 48.0111L46.0578 48.008L46.0883 48.0104L46.1188 48.0182L46.1307 48.0223L46.1354 48.0244L46.1462 48.0301L46.2707 48.0932L46.3875 48.1578L46.4971 48.2249L46.5999 48.2937L46.6955 48.3645L46.7834 48.4368L46.864 48.5118L46.9374 48.5882L47.0428 48.4425L47.1544 48.3045L47.2717 48.1738L47.3921 48.0518L47.5141 47.9376L47.6355 47.8317L47.7549 47.7345L47.8706 47.6467L48.0825 47.4973L48.2572 47.3862L48.3807 47.3139L48.438 47.2829L48.4716 47.2694L48.5064 47.2632ZM19.2994 47.7407L19.3019 47.9071L19.318 48.0735L19.3464 48.2389L19.3851 48.4027L19.4322 48.5624L19.4859 48.7174L19.5448 48.8657L19.6068 49.0073L19.6931 49.0332L19.7774 49.0632L19.8606 49.0983L19.9417 49.1381L20.0213 49.1825L20.0993 49.2311L20.1753 49.2848L20.2497 49.3427L20.2611 49.2368L20.2822 49.1272L20.3143 49.0156L20.3587 48.904L20.3034 48.8012L20.244 48.7019L20.181 48.6063L20.1143 48.5149L20.0456 48.427L19.9753 48.3438L19.8311 48.1889L19.6864 48.0504L19.5464 47.929L19.4156 47.8256L19.2994 47.7407ZM48.3043 47.7748L48.1741 47.8642L48.0309 47.9697L47.879 48.0911L47.7229 48.227L47.5674 48.3779L47.4181 48.5417L47.3462 48.6291L47.278 48.719L47.2134 48.8115L47.1535 48.9076L47.1876 48.9867L47.2155 49.0678L47.2331 49.1334L47.246 49.197L47.2589 49.3179L47.4077 49.2269L47.5757 49.1365L47.7612 49.0512L47.8599 49.012L47.9627 48.9758H47.9631L48.0137 48.8709L48.0628 48.7551L48.1109 48.627L48.1558 48.4859L48.1987 48.3314L48.2375 48.1614L48.2731 47.9764L48.3043 47.7748ZM46.1365 48.5598L46.1236 48.6709L46.1199 48.7918L46.1297 48.92L46.1406 48.9856L46.1561 49.0518L46.1763 49.1179L46.2026 49.1841L46.2347 49.2497L46.2724 49.3148L46.3179 49.3784L46.3701 49.4404L46.43 49.5003L46.4982 49.5582H46.5489L46.5427 49.4786L46.5323 49.4016L46.5179 49.3262L46.5003 49.2528L46.4553 49.1133L46.4006 48.983L46.3386 48.8616L46.2724 48.7505L46.2042 48.6497L46.1365 48.5598ZM21.03 48.69L20.9494 48.7391L20.877 48.7939L20.813 48.8538L20.7577 48.9195L20.8042 49.043L20.8553 48.951L20.9101 48.8616L20.9685 48.7748L21.03 48.69ZM21.4641 48.7169L21.3582 48.842L21.2657 48.965L21.1856 49.0859L21.1173 49.2047L21.0605 49.3205L21.014 49.4347L20.9783 49.5463L20.9515 49.6554L21.0372 49.6042L21.1137 49.5505L21.1809 49.4941L21.2398 49.4357L21.291 49.3758L21.3344 49.3148L21.3706 49.2523L21.4005 49.1898L21.4243 49.1267L21.4424 49.0642L21.4558 49.0022L21.4646 48.9417L21.4703 48.8249L21.4641 48.7169ZM48.5958 49.2109L48.495 49.2166L48.3963 49.228L48.2991 49.2446L48.2046 49.2658L48.1023 49.426L48.0025 49.5582H49.619L49.4892 49.4668L49.3595 49.3908L49.2298 49.3293L49.1006 49.2818L48.972 49.2471L48.8448 49.2244L48.7193 49.213L48.5958 49.2109ZM19.1226 49.3009L18.9676 49.3123L18.8162 49.3376L18.6684 49.3738L18.5252 49.4203L18.3883 49.474L18.2586 49.5334L18.1372 49.5954L18.0245 49.659H19.55L19.459 49.5009L19.3614 49.3148L19.3019 49.3076L19.212 49.3014L19.1226 49.3009ZM19.8694 49.5029L19.9675 49.659H20.0766L19.9748 49.5753L19.8694 49.5029ZM47.3948 49.9112L47.4971 49.9943L47.6036 50.0667L47.5054 49.9112H47.3948ZM47.9224 49.9112L48.0134 50.0688L48.111 50.2548L48.1705 50.2626L48.2604 50.2687L48.3493 50.2691L48.4381 50.2644L48.526 50.2551L48.6133 50.2412L48.6991 50.2236L48.866 50.1776L49.0262 50.1203L49.1771 50.0546L49.3182 49.9838L49.4479 49.911L47.9224 49.9112ZM46.5215 49.9143L46.4362 49.965L46.3602 50.0187L46.2936 50.0745L46.2352 50.1329L46.1845 50.1924L46.1411 50.2538L46.105 50.3159L46.0755 50.3784L46.0517 50.4414L46.0331 50.504L46.0197 50.5655L46.0109 50.6264L46.0047 50.7432L46.0104 50.8512L46.1158 50.7267L46.2083 50.6037L46.2879 50.4833L46.3561 50.3644L46.413 50.2482L46.459 50.1345L46.4951 50.0234L46.5215 49.9143ZM17.8524 50.0115L17.9444 50.0781L18.0359 50.1365L18.1284 50.1877L18.2198 50.2316L18.3118 50.2678L18.4028 50.2983L18.4937 50.3215L18.5842 50.3396L18.6736 50.3515L18.7619 50.3582L18.8498 50.36L18.9361 50.3568L19.0213 50.3496L19.1051 50.3382L19.2678 50.3046L19.3707 50.1439L19.4704 50.0116L17.8524 50.0115ZM20.9236 50.0115L20.9298 50.0911L20.9401 50.1681L20.9546 50.2435L20.9721 50.3169L21.0166 50.4559L21.0714 50.5866L21.1334 50.7076L21.1995 50.8187L21.2677 50.9194L21.3349 51.0093L21.3478 50.8982L21.3514 50.7773L21.3416 50.6497L21.3308 50.5841L21.3153 50.5184L21.2946 50.4518L21.2687 50.3856L21.2372 50.32L21.199 50.2554L21.154 50.1913L21.1018 50.1298L21.0419 50.0694L20.9737 50.0115L20.9236 50.0115ZM47.2227 50.2275L47.2113 50.3334L47.1901 50.443L47.1581 50.5541L47.1136 50.6657L47.1689 50.7685L47.2284 50.8678L47.2914 50.9634L47.3576 51.0548L47.4268 51.1427L47.4971 51.2264L47.6413 51.3814L47.786 51.5199L47.926 51.6414L48.0567 51.7447L48.173 51.8295L48.1709 51.6636L48.1548 51.4972L48.1264 51.3318L48.0882 51.1685L48.0411 51.0088L47.9874 50.8543L47.929 50.7055L47.867 50.5644L47.7807 50.5386L47.6959 50.5081L47.6128 50.4729L47.5316 50.4332L47.4515 50.3887L47.3735 50.3396L47.297 50.2859L47.2227 50.2275ZM20.2135 50.2528L20.0647 50.3433L19.8962 50.4337L19.7107 50.5184L19.612 50.5577L19.5097 50.5934L19.459 50.6983L19.4094 50.814L19.3619 50.9422L19.3164 51.0833L19.274 51.2383L19.2348 51.4078L19.1991 51.5928L19.1681 51.7948L19.2983 51.706L19.4415 51.6L19.5934 51.4786L19.7495 51.3427L19.905 51.1918L20.0544 51.028L20.1257 50.9411L20.1944 50.8507L20.2585 50.7582L20.3189 50.6621L20.2848 50.583L20.2569 50.5024L20.2394 50.4373L20.2264 50.3737L20.2135 50.2528ZM46.6677 50.5272L46.6166 50.6192L46.5618 50.7081L46.5034 50.7954L46.4424 50.8797L46.523 50.8306L46.5948 50.7763L46.6589 50.7158L46.7142 50.6502L46.6677 50.5272ZM31.7482 55.084H36.1541L36.2539 55.0892L36.351 55.1042L36.4446 55.128L36.5345 55.161L36.6197 55.2024L36.7004 55.2515L36.7758 55.3078L36.8456 55.3713L36.9086 55.4406L36.9649 55.516L37.014 55.5972L37.0554 55.6824L37.0884 55.7724L37.1122 55.8659L37.1272 55.963L37.1324 56.0628L37.1272 56.163L37.1122 56.2602L37.0884 56.3537L37.0554 56.4436L37.014 56.5289L36.9649 56.61L36.9086 56.685L36.8456 56.7547L36.7758 56.8178L36.7004 56.8736L36.6197 56.9232L36.5345 56.964L36.4446 56.9971L36.351 57.0213L36.2539 57.0358L36.1541 57.041H31.7482L31.6485 57.0358L31.5513 57.0213L31.4578 56.9971L31.3679 56.964L31.2826 56.9232L31.202 56.8736L31.1265 56.8178L31.0573 56.7547L30.9937 56.685L30.9374 56.61L30.8883 56.5289L30.847 56.4436L30.8139 56.3537L30.7901 56.2602L30.7752 56.163L30.77 56.0628L30.7752 55.963L30.7901 55.8659L30.8139 55.7724L30.847 55.6824L30.8883 55.5972L30.9374 55.516L30.9937 55.4406L31.0573 55.3713L31.1265 55.3078L31.202 55.2515L31.2826 55.2024L31.3679 55.161L31.4578 55.128L31.5513 55.1042L31.6485 55.0892L31.7482 55.084ZM31.7482 55.437L31.6847 55.4402L31.6226 55.45L31.5627 55.4655L31.5048 55.4867L31.4506 55.513L31.3989 55.544L31.3508 55.5802L31.3064 55.621L31.2661 55.6655L31.2299 55.7135L31.1989 55.7652L31.172 55.82L31.1508 55.8773L31.1359 55.9368L31.126 55.9988L31.1229 56.0629L31.126 56.1269L31.1359 56.1884L31.1508 56.2484L31.172 56.3057L31.1989 56.3605L31.2299 56.4122L31.2661 56.4602L31.3064 56.5047L31.3508 56.545L31.3989 56.5812L31.4506 56.6127L31.5048 56.639L31.5627 56.6597L31.6226 56.6752L31.6847 56.685L31.7482 56.6882H34.2375L34.1357 56.5797L34.0861 56.5182L34.038 56.4515L33.992 56.3797L33.9481 56.3022L33.9062 56.2184L33.868 56.129L33.8199 56.0257L33.7641 55.9327L33.7021 55.8505L33.6354 55.7771L33.5646 55.713L33.4923 55.6572L33.4189 55.6092L33.3455 55.5689L33.2753 55.5347L33.2076 55.5068L33.0882 55.4676L32.9993 55.4459L32.9518 55.4371L31.7482 55.437ZM33.7837 55.437L33.8442 55.4892L33.9026 55.5455L33.9589 55.6075L34.0132 55.6742L34.0643 55.7465L34.1119 55.8246L34.1558 55.9083L34.1956 55.9977L34.2406 56.099L34.2897 56.1899L34.3424 56.2716L34.3971 56.3434L34.454 56.407L34.5114 56.4623L34.5687 56.5098L34.625 56.5506L34.6793 56.5853L34.7315 56.6132L34.8235 56.6545L34.8953 56.6778L34.9382 56.6881H36.1541L36.2177 56.6849L36.2802 56.6751L36.3397 56.6596L36.397 56.639L36.4518 56.6126L36.5035 56.5811L36.5515 56.5449L36.596 56.5046L36.6363 56.4602L36.6725 56.4121L36.704 56.3604L36.7299 56.3057L36.7511 56.2483L36.7665 56.1884L36.7763 56.1269L36.7795 56.0628L36.7763 55.9987L36.7665 55.9367L36.7511 55.8773L36.7299 55.8199L36.704 55.7651L36.6725 55.7135L36.6363 55.6654L36.596 55.6209L36.5515 55.5801L36.5035 55.544L36.4518 55.5129L36.397 55.4866L36.3397 55.4654L36.2802 55.4499L36.2177 55.4401L36.1541 55.4369L33.7837 55.437ZM17.6633 55.8861H29.0734L29.1091 55.8897L29.1422 55.9L29.1721 55.9166L29.1985 55.9383L29.2202 55.9646L29.2362 55.9946L29.2466 56.0277L29.2502 56.0628L29.2466 56.0985L29.2362 56.1315L29.2202 56.1615L29.1985 56.1874L29.1721 56.2091L29.1422 56.2256L29.1091 56.2354L29.0734 56.239H17.6633L17.6276 56.2354L17.5946 56.2256L17.5646 56.2091L17.5387 56.1874L17.517 56.1615L17.501 56.1315L17.4907 56.0985L17.4871 56.0628L17.4907 56.0277L17.501 55.9946L17.517 55.9646L17.5387 55.9383L17.5646 55.9166L17.5946 55.9L17.6276 55.8897L17.6633 55.8861ZM39.2987 55.8861H50.7088L50.7439 55.8897L50.777 55.9L50.807 55.9166L50.8333 55.9383L50.855 55.9646L50.8711 55.9946L50.8814 56.0277L50.885 56.0628L50.8814 56.0985L50.8711 56.1315L50.855 56.1615L50.8333 56.1874L50.807 56.2091L50.777 56.2256L50.7439 56.2354L50.7088 56.239H39.2987L39.263 56.2354L39.2299 56.2256L39.2 56.2091L39.1736 56.1874L39.1524 56.1615L39.1364 56.1315L39.126 56.0985L39.1224 56.0628L39.126 56.0277L39.1364 55.9946L39.1524 55.9646L39.1736 55.9383L39.2 55.9166L39.2299 55.9L39.263 55.8897L39.2987 55.8861Z" fill="#2CA02C"/>
<path d="M24.5068 44.7157V53.3948H25.9538V49.779H27.4601V48.3321H25.9538V46.1627H27.7619V44.7157H24.5068ZM29.3587 44.7157L28.364 53.3948H29.8109L30.0507 51.5866H30.9256L31.1669 53.3948H32.6123L31.6191 44.7157H29.3587ZM33.2091 44.7157V53.3948H34.6561V50.381H35.0421L35.6441 53.3948H37.0911L36.4157 49.9593C36.8498 49.6824 37.0663 49.1806 37.0663 48.453V46.6438C37.0663 45.3595 36.4239 44.7157 35.1382 44.7157H33.2091ZM37.6931 44.7157V53.3948H39.1401V48.9051L39.941 53.3948H41.3518L42.2133 48.8323V53.3948H43.6602V44.7157H41.6288L40.6521 49.9469L39.7245 44.7157H37.6931ZM34.6561 46.1627H35.1382C35.4593 46.1627 35.6209 46.3227 35.6209 46.6438V48.453C35.6209 48.7741 35.4593 48.9341 35.1382 48.9341H34.6561V46.1627ZM30.4848 47.2954L30.7742 50.1397H30.2021L30.4848 47.2954Z" fill="white"/>
<path d="M13.6191 21.3637V30.0681C13.6802 30.0006 13.7427 29.9342 13.8144 29.8743C14.017 29.9253 14.2227 29.9973 14.4252 30.0469C14.5024 30.1957 14.5794 30.3221 14.6552 30.4489C14.658 30.493 14.6621 30.5373 14.6428 30.5828C14.3796 31.1546 14.0459 31.6895 13.7813 32.2628C13.7251 32.3895 13.6743 32.5194 13.6191 32.6467V34.5861H15.8226V21.3637H13.6191ZM16.7403 21.3637V34.5861H18.9449V28.9208L20.4595 34.5861H22.6175V21.3637H20.414V27.029L18.8983 21.3637H16.7403ZM23.5368 21.3637V34.5861H25.7403V29.0764H28.0358V26.8729H25.7403V23.5672H28.4947V21.3637H23.5368ZM29.4124 21.3637V34.5861H31.6175V21.3637H29.4124ZM32.5352 21.3637V34.5861H34.7387V28.9208L36.2544 34.5861H38.4124V21.3637H36.2079V27.029L34.6932 21.3637H32.5352ZM39.3302 21.3637V34.5861H41.5337V21.3637H39.3302ZM42.453 21.3637V23.5672H44.2901V34.5861H46.4936V23.5672H48.3301V21.3637H42.453ZM49.2479 21.3637V34.5861H54.2063V32.3826H51.4514V29.0764H53.7474V26.8729H51.4514V23.5672H54.2063V21.3637H49.2479Z" fill="white"/>
</svg>
