<svg width="256" height="256" version="1.1" viewBox="0 0 67.73 67.73" xmlns="http://www.w3.org/2000/svg"><g transform="matrix(2.765 0 0 2.765 -51.28 -53.6)" stroke-width=".3617"><path d="m43.04 31.63c0 6.765-5.483 12.25-12.25 12.25s-12.25-5.483-12.25-12.25c0-6.763 5.483-12.25 12.25-12.25s12.25 5.485 12.25 12.25" fill="#171717"/><g fill="#262826"><path d="m29.36 39.15.01516.4465c.0028.07717.02618.1502.07028.2136l.2536.3679c.1791.2604 0 .616-.3169.6256l-.4465.01655c-.07579.0014-.1502.02618-.2122.07028l-.3679.2522c-.2604.1805-.616 0-.627-.3156l-.01516-.4465c-.0028-.07717-.02756-.1502-.07028-.2136l-.2536-.3679c-.1791-.2604 0-.616.3156-.627l.4465-.01379c.07717-.0028.1516-.02755.2136-.07028l.3679-.2536c.2604-.1791.616 0 .627.3156"/><path d="m22.69 35.66-.1736.2412c-.03032.04134-.04823.09095-.05099.1419l-.01654.2977c-.01103.2108-.2508.3252-.4231.2026l-.2412-.175c-.04134-.0303-.09095-.04686-.1419-.04961l-.2977-.01655c-.2108-.01242-.3252-.2522-.2026-.4231l.175-.2425c.03032-.04134.04685-.09095.04961-.1419l.01791-.2977c.01102-.2108.2508-.3252.4217-.2012l.2425.1736c.04134.0303.09095.04823.1419.05099l.2977.01655c.2108.01101.3252.2508.2012.4231"/><path d="m39.82 27.32-.215.05374c-.03583.0096-.0689.02893-.09508.0565l-.1516.1612c-.1075.1144-.2977.06477-.3362-.08682l-.05374-.215c-.0096-.03583-.02894-.0689-.0565-.09509l-.1626-.1516c-.113-.1075-.06339-.2977.08682-.3362l.215-.05375c.03721-.0096.07028-.02893.09646-.0565l.1502-.1612c.1075-.1144.299-.06477.3362.08682l.05512.2136c.0096.03721.02894.07028.0565.09646l.1612.1516c.1144.1061.06477.2977-.08682.3362"/><path d="m25.33 37.79c0 .2508-.204.4548-.4548.4548s-.4548-.2039-.4548-.4548.204-.4548.4548-.4548.4548.2039.4548.4548"/><path d="m37.91 38.98c0 .2508-.2026.4548-.4534.4548-.2522 0-.4548-.2039-.4548-.4548 0-.2508.2026-.4548.4548-.4548.2508 0 .4534.2039.4534.4548"/></g><path d="m24.23 33.27s-4.75-.1502-2.551-4.45c0 0 .1006-1.7 1.401-2.201 0 0 .04961-1.95 2-1.65 0 0 1.55-1.501 3.7-.9495 0 0 1.299-1.7 2.3.09922 0 0 1.95-.8999 4.2.8999 0 0 2.85-.277 2.65 3.262 0 0 1.55.2384 1.65 3.438.1006 3.2-2.399 4.05-2.399 4.05s.4988 2.45-2.301 2.15c0 0 1.401 2.851.9012 3.801l-2.051-1.25s-.4492-1.55-1.65-1.851-2.701-1.75-2.901-2.5c0 0-2.95.6008-3.7-1.55 0 0-1.55.05099-1.25-1.299" fill="#fff"/><g fill="#171717"><path d="m23.38 30.67c-.02205 0-.0441-.0028-.06752-.0069-.1902-.03721-.3142-.2205-.2784-.4107.0069-.0372.1778-.9012.9384-1.395.4272-.277.9426-.3803 1.539-.3059.09095-.5609.3707-1.244 1.018-1.466-.03169-.3335-.02067-.8241.2274-1.202.1723-.2632.4355-.4313.7621-.4892.1929-.0303.3748.09509.4079.2866.03445.1929-.09371.3748-.2866.4093-.1337.02342-.2274.07992-.2935.1791-.1888.2866-.1144.8434-.07304 1.016.02343.102.0014.2108-.06201.2949-.06339.08268-.1612.135-.266.1392-.7483.03447-.7634 1.236-.7634 1.249 0 .1075-.04961.2095-.135.277-.08406.06477-.1943.09095-.299.06477-.5691-.135-1.035-.08957-1.386.1364-.5071.3238-.6353.9329-.6353.9384-.03445.1681-.1819.2853-.3473.2853"/><path d="m25.52 34.58c-.02756 0-.0565-.0028-.08544-.01101-.1888-.04685-.3032-.2384-.2563-.4272.0083-.03306.8558-3.265 4.148-3.218.07304.0014.1447.02618.2039.07028.1764.1282.7304.4355 1.166.3128.2549-.07304.4603-.2963.6077-.6628.04547-.1089.1406-.1888.2563-.2122l2.439-.5002c.1502-.0303.3018.03859.3776.1709.08268.1419.379.5292.7372.5926.2164.03858.4396-.03997.6821-.2398.1488-.124.3721-.1034.4961.04685.124.1502.1034.3734-.04685.4975-.4079.3376-.8323.4685-1.26.39-.5113-.09371-.8806-.4727-1.072-.7193l-2.034.4162c-.2343.4782-.5678.78-.9949.8999-.6987.1971-1.412-.1915-1.673-.3569-2.654.02342-3.343 2.657-3.349 2.683-.04134.1612-.1847.2673-.3431.2673"/><path d="m29.91 36.46c-.2729 0-.5526-.05374-.7662-.2164-.1723-.1309-.3721-.3845-.3418-.8461.01378-.1957.1847-.3362.3748-.3293.1957.01242.3418.1805.3294.3748-.01102.1805.04548.2232.06339.2384.1847.1406.7524.05099 1.091-.06752.186-.06339.3858.03305.4506.2164.06339.1833-.03307.3845-.2164.4492-.1199.04134-.5443.1805-.9853.1805"/><path d="m37.18 36.12c-.1654 0-.3128-.1171-.3459-.2866-.0248-.1282-.0813-.215-.1833-.2797-.3486-.2205-1.069-.1034-1.294-.0441-.1874.04823-.3803-.06477-.4299-.2536-.04961-.1874.06339-.3803.2508-.4299.1185-.0303 1.18-.2908 1.848.1309.2673.1681.441.4258.5016.7441.03721.1915-.08957.3762-.2811.412-.02205.0055-.0441.0069-.06615.0069"/><path d="m33.23 26.82c-.02205 0-.04548-.0014-.0689-.0069-.1915-.0372-.3156-.2232-.277-.4148.2977-1.486 2.274-1.721 2.358-1.731.1957-.0193.3666.1171.3886.3114.02205.1929-.1171.3679-.3114.39-.01516.0014-1.548.1888-1.743 1.169-.03307.1667-.1805.2825-.3459.2825"/><path d="m31.63 31.14c-.07166 0-.1433-.02205-.2053-.06752-.1585-.1144-.1943-.3349-.07993-.492.3652-.5044 0-1.123-.01516-1.148-.09922-.1667-.04823-.3831.1185-.4851.1654-.1006.3803-.04961.4823.1158.02618.04134.6298 1.04-.01378 1.931-.0689.09508-.1764.1461-.2866.1461"/></g></g></svg>
