<svg width="52" height="52" fill="none" xmlns="http://www.w3.org/2000/svg"><mask id="a" style="mask-type:alpha" maskUnits="userSpaceOnUse" x="0" y="0" width="52" height="52"><rect width="52" height="52" rx="4" fill="#000"/></mask><g mask="url(#a)"><rect width="52" height="52" rx="4" fill="#F8971E"/><path d="M31.423 13.973c-.116 1.118-.748 2.16-1.307 3.08l-.488.802-.09-.771c-.123-1.157-.21-2.483.32-3.592.196-.412.561-.788.919-.788.04 0 .08.005.12.017.415.104.58.723.526 1.252ZM96.288-1.934c-.698-1.416-1.979-2.572-3.507-2.944-1.316-.321-2.791-.002-3.81.874-.236.202-.184.571.074.747 1.314.893 1.757 2.997 1.205 4.537-.618 1.735-2.645 3.275-3.933 3.615-2.477.657-6.078 1.119-10.149 1.447-.618-.012-1.286-.026-1.99-.043a783.99 783.99 0 0 0-2.992-.062c1.1-4.945 2.046-9.03 2.252-9.68.201-.64-.294-1.287-.962-1.244-2.235.147-4.205.323-6.448 1.106-.14.722-.779 4.784-1.553 9.747-.77.002-1.496.012-2.171.029 1.096-4.927 2.038-8.99 2.242-9.637.201-.64-.294-1.288-.961-1.245-2.236.147-4.203.323-6.448 1.106-.147.753-.834 5.132-1.65 10.373-21.663 3.365-21.213 19.346-20.983 27.324.016.585.03 1.132.038 1.637-1.34-3.691-2.671-7.488-3.654-11.358.651-.997 1.468-2.297 2.18-3.687 1.924-3.746 2.572-7.356 1.874-10.441-.313-1.376-.89-2.318-1.722-2.804-.9-.526-2.117-.493-3.175.086-.803.438-1.504 1.145-2.205 2.225-2.446 3.763-2.694 8.235-2.474 11.325.07 1 .201 2.037.395 3.163-1.072 1.825-2.209 4.965-3.308 8.002-.8 2.213-1.62 4.477-2.42 6.26 1.362-7.41 2.065-18.896 1.523-26.053-.204-2.709-.609-5.52-2.179-7.721-2.053-2.885-6.13-4.272-9.694-3.304C6.294 2.37 3.436 5.281 2.4 8.865c-.435 1.511-.518 3.006-.239 4.32.325 1.52 1.163 2.863 2.3 3.68 1.214.876 2.862 1.263 4.894 1.15 1.672-.091 2.934-.498 3.853-1.243 1.091-.88 1.878-2.487 1.267-3.849l-.06-.13-.137-.039c-.24-.066-.438-.269-.54-.554-.12-.334-.083-.714.095-.974.35-.51 1.162-.693 1.809-.412.599.262 1.084.857 1.335 1.636.237.74.254 1.551.25 2.32-.046 7.193-2.108 19.822-4.008 27.102l-.76 2.923a4.916 4.916 0 0 0 1.291 4.763 4.865 4.865 0 0 0 4.75 1.268l.107-.028a4.914 4.914 0 0 0 3.49-3.573c.144-.59.308-1.278.485-2.035 1.028-4.334 2.702-11.412 4.556-14.975.154.566.313 1.135.47 1.701l.158.571c.587 2.128 1.193 4.397 1.594 6.648a4.972 4.972 0 0 0 5.332 4.106c.19-.017.382-.029.573-.04 2.47-.141 4.452-2.13 4.61-4.625.029-.419.017-1.05.006-1.85-.079-4.584-.237-14.12 5.524-20.011 2.337-2.39 5.437-3.909 9.242-4.549-1.011 6.49-2.015 12.92-2.344 14.797-.211 1.207-.417 2.438-.258 3.654.158 1.216.74 2.435 1.783 3.07 1.451.888 3.438.386 4.686-.776 1.099-1.026 1.726-2.447 2.152-3.903.086-.288-.106-.571-.397-.636-.794-.173-1.57-.764-1.781-1.506-.263-.921-.1-1.904.071-2.847.49-2.713 1.482-7.464 2.522-12.262.717-.024 1.582-.05 2.533-.076-1.037 6.652-2.083 13.36-2.42 15.282-.213 1.207-.419 2.438-.258 3.654.159 1.216.74 2.435 1.781 3.07 1.454.888 3.44.386 4.689-.776 1.098-1.026 1.724-2.447 2.152-3.903.083-.288-.106-.571-.4-.636-.79-.173-1.568-.764-1.778-1.506-.263-.921-.1-1.904.068-2.847.498-2.749 1.511-7.585 2.565-12.448 7.362.09 16.613.412 21.584-1.737 2.034-.88 4.802-4.094 5.29-7.138.248-1.562.099-3.213-.6-4.63Z" fill="#000"/></g></svg>