<svg width="153" height="103" fill="none" xmlns="http://www.w3.org/2000/svg"><path d="M149.311.101c-1.346.32-4.3 2.6-6.408 4.95-3.263 3.644-5.503 7.371-10.719 17.9-2.549 5.152-3.621 7.158-5.11 9.556-6.384 10.327-16.079 17.532-27.263 20.239-1.334.332-4.24.89-4.61.89-.047 0-.143-.155-.226-.356-.179-.428-.893-1.092-1.513-1.413-1.477-.748-4.192-.854-5.645-.225-.322.13-.608.225-.62.201a51.869 51.869 0 0 0-.321-.629c-.691-1.341-2.466-2.611-4.407-3.157-1.99-.546-2.847-.617-9.588-.712-3.538-.06-6.587-.143-6.765-.19-.262-.06-.465.011-.977.356-.858.558-3.418 2.706-4.776 3.988-1.06.997-2.096 1.662-2.609 1.662-.13 0-.571-.297-.952-.653-1.108-1.02-2.18-1.223-4.348-.819-2.37.427-3.87.154-6.253-1.14-2.12-1.163-3.645-1.863-4.383-2.03l-.679-.142-3.55-3.573c-6.86-6.944-8.098-8.82-12.66-19.3-3.204-7.336-5.11-10.565-7.909-13.355-4.228-4.225-9.66-6.682-15.233-6.908L0 5.17l.262.368c.786 1.092 2.203 1.958 4.86 2.967 2.072.796 2.822 1.176 3.87 2.018 3.407 2.707 6.242 7.063 9.362 14.387.87 2.042 1.072 2.635 2.001 5.805 1.346 4.593 1.822 5.863 3.621 9.579 3.228 6.623 7.027 11.74 11.803 15.882 2.144 1.852 2.668 2.208 3.502 2.386.846.178 1.68.57 3.573 1.685 1.513.89 1.787 1.021 5.253 2.422 3.06 1.246 4.478 1.994 5.502 2.908 1.025.902 1.12 1.246 1.192 4.155l.06 2.279.869.047c2.096.13 3.287 1.437 3.12 3.407-.107 1.33-.786 2.778-1.798 3.905l-.43.463.799.463c1.62.938 3.097 2.825 3.919 5.021.75 1.983 1.19 4.096 1.584 7.55l.202 1.78.465.261c.25.143.81.32 1.238.392.917.166 1.656.487 2.001.867.227.237.239.332.143 1.032-.214 1.472.179 2.885 1.06 3.822.596.641 1.81 1.294 2.93 1.579 1.084.273 3.073.439 4.67.392 1.726-.048 1.714-.036 2.44-1.448.894-1.721 1.335-2.172 2.407-2.493.143-.047.202-.19.202-.546 0-.38-.083-.57-.428-.938-.227-.26-.43-.617-.441-.795-.024-.261.036-.332.333-.416.203-.047.87-.344 1.501-.664l1.143-.57.072-1.365c.167-3.027.786-5.092 2.668-8.903.69-1.4 1.465-3.015 1.703-3.585.56-1.27.512-1.555-.345-2.492-1.418-1.555-1.299-2.303.583-3.561.56-.368 1.215-.89 1.465-1.163.453-.475.465-.5.358-1.105-.382-2.385.214-4.237 1.965-6.16.834-.902 1.596-1.353 2.406-1.46 4.347-.522 9.219-2.09 13.637-4.38 2.692-1.413 4.598-2.588 8.397-5.235.953-.653 2.573-1.745 3.621-2.41 2.561-1.65 3.514-2.374 4.788-3.644 1.918-1.91 3.049-3.478 5.908-8.25a482.827 482.827 0 0 1 3.859-6.29c2.311-3.716 3.966-6.921 4.728-9.2.31-.914.941-3.027 1.394-4.689 1.739-6.244 1.941-6.754 4.681-11.443 1.286-2.196 2.465-4.498 2.465-4.795 0-.083.786-.665 1.751-1.294.965-.63 2.013-1.389 2.335-1.686.679-.629 1.322-1.507 1.167-1.602-.048-.036-.417-.143-.798-.25-.739-.19-1.644-.213-2.287-.059Zm-7.48 9.223c-.81 3.312-2.787 9.164-4.812 14.22-3.442 8.56-5.502 12.75-8.349 16.916-3.764 5.52-7.706 9.306-14.174 13.627-4.478 2.98-12.458 6.647-17.472 8.012l-1.096.297-.227-.297c-.31-.38-.44-.843-.607-1.994-.226-1.697-.345-2.077-.643-2.077-.345 0-.75.297-.953.688-.095.178-.226.855-.298 1.52-.071.664-.166 1.317-.226 1.472l-.095.26-.358-.296c-.38-.32-.488-.582-.881-2.066-.25-.913-.643-1.578-.94-1.578-.227 0-.704.771-.859 1.341-.178.736 0 2.137.5 3.834.191.665.346 1.246.346 1.282 0 .036-.393.071-.857.071-.596 0-1 .072-1.287.214-.393.202-.405.214-.38.855.035.724-.144 1.495-.632 2.849-.238.64-.334 1.139-.346 1.756-.011.82-.023.867-.31.926-.75.166-1.369.487-1.917.973-1.084.974-1.477 1.995-1.393 3.668.035.855.119 1.187.405 1.817.416.878.857 1.436 1.488 1.899l.453.32-1.12 1.436c-2.739 3.526-3.847 5.627-4.228 8.025-.155.914-.107 3.858.06 4.25.06.154-.036.26-.44.462-1.311.665-1.788 1.282-3.253 4.202l-1.072 2.137-.535.166c-.346.107-1.346.178-2.883.214l-2.358.059v-.748c0-1.068-.381-2.79-.822-3.691-.703-1.484-1.834-2.398-3.466-2.814-1.048-.26-.977-.095-1.191-2.682-.072-.914-.19-2.327-.25-3.146-.298-3.597-.798-4.665-3.109-6.588-1.06-.89-2-1.863-2-2.077 0-.048.13-.13.297-.166.476-.119 1.203-.843 1.465-1.472.739-1.71.62-4.452-.274-6.256-.167-.344-.37-.688-.453-.748-.083-.07-.702-.142-1.381-.166-1.06-.035-1.239-.012-1.382.178-.13.19-.166.155-.286-.32-.071-.297-.13-1.057-.13-1.698 0-1.27-.227-1.982-.715-2.326l-.274-.19.31-.356c.81-.974 1.119-3.063.595-4.167-.25-.546-.679-1.068-.87-1.068-.047 0-.25.44-.416.973-.179.546-.465 1.247-.632 1.555-.297.558-.667.89-.786.7-.024-.047-.047-.854-.035-1.803.011-1.555-.012-1.77-.25-2.22-.489-.938-1.18-.736-1.656.51-.358.914-.489 1.033-1.167 1.021-1.251-.024-3.026-.7-5.3-2.006-2.573-1.484-3.752-1.947-5.456-2.196l-1.012-.142-3.061-2.873c-3.133-2.944-4.538-4.416-5.967-6.256a24.445 24.445 0 0 1-3.728-6.79c-.227-.652-.786-1.91-1.227-2.789-1.132-2.196-2.001-4.297-3.942-9.437a489.71 489.71 0 0 0-2.144-5.579c-2.192-5.424-4.348-9.01-7.075-11.727-1.263-1.259-1.25-1.413.036-.772.976.487 3.513 2.968 4.764 4.665.476.653 1.19 1.59 1.596 2.077 1.739 2.113 2.048 2.719 4.288 8.428 2.465 6.244 5.836 12.155 9.23 16.203.655.783 1.394 1.816 1.632 2.29.417.784.536.915 1.43 1.508 1.417.938 2.572 1.983 3.489 3.134l.822 1.021 1.703.7c7.218 2.968 12.435 4.143 16.758 3.763 1.763-.154 2.18-.261 3.252-.795.738-.368.929-.558 2.287-2.208.81-.997 1.643-1.935 1.834-2.077.345-.261.453-.261 4.157-.297l3.787-.036 1.084.44c.608.249 1.287.45 1.525.45s1.012-.19 1.727-.415c1.5-.486 2.203-.522 3.263-.166 1.644.546 2.918 1.757 3.919 3.75.583 1.14.655 1.224.929 1.164.56-.142 2.715-.071 3.823.119.62.107 1.846.38 2.752.593 2.215.547 3.275.677 4.835.63 1.263-.036 1.334-.048 1.834-.416 1.239-.914 1.442-.997 2.799-1.116.715-.06 1.394-.142 1.525-.178.131-.035 1.441-.653 2.918-1.353 2.763-1.317 4.05-1.816 5.205-2.03 1.203-.225 3.728-2.124 7.301-5.496a139.445 139.445 0 0 1 4.085-3.703c3.002-2.588 3.729-3.62 6.17-8.737.786-1.65 1.537-3.121 1.668-3.252.131-.142.44-.344.679-.451.369-.166.547-.38 1-1.235.584-1.092 1.608-3.418 2.882-6.528 1.763-4.285 2.43-5.567 4.598-8.808.643-.95 1.334-2.03 1.548-2.41.417-.747.524-.83.405-.356Z" fill="#BD3800"/><path d="M58.112 56.033c-.334 1.128-.167 2.505.428 3.68.406.807 1.49 1.84 2.395 2.291.714.356.964.416 1.655.416.917 0 1.144-.06 1.298-.356.191-.345.024-.57-.726-.962-.465-.25-.703-.451-.703-.593 0-.475.941-.452 3.919.13 2.918.57 3.966.451 4.669-.51.393-.546.428-.736.143-.855-.215-.083-2.466-.285-6.051-.534-1.048-.083-2.12-.178-2.382-.226l-.476-.07-.06-1.01c-.072-1.21-.214-1.507-.786-1.614-.334-.06-.477-.024-.667.154-.274.273-.31.748-.167 2.018.095.772.083.867-.095.867-.429 0-.75-.535-1.013-1.698-.202-.843-.345-1.21-.571-1.436-.441-.451-.596-.38-.81.308ZM83.898 57.541c-.69.178-1.489.44-1.786.57-.882.38-1.668 1.472-1.358 1.875.06.072.274.368.464.641.358.487.358.499 1.013.451.44-.023.953-.19 1.572-.475.69-.332 1.06-.439 1.524-.439h.632l-.072.44c-.035.249-.13.747-.214 1.104-.179.807-.084 1.222.31 1.4.166.083.333.143.357.143.024 0 .214-.44.429-.986a5.693 5.693 0 0 0 .44-1.946c.048-.974.048-.974-.262-1.057-.428-.107-.94-.724-1.203-1.46-.143-.392-.297-.605-.405-.593-.107 0-.75.154-1.44.332ZM80.623 66.527c-.524.439-1.12.866-1.334.95l-.381.166-.036 2.041-.048 2.054-.571 1.353c-1.418 3.36-2.132 8.095-2.275 15.158a245.275 245.275 0 0 1-.12 4.06l-.059.973h.298c.155 0 .464-.154.679-.344l.393-.344v-2.066c0-1.127.047-2.16.083-2.29.048-.131.298-1.757.572-3.621.881-6.196 1.43-8.274 2.692-10.114l.536-.795-.18-.617c-.237-.783-.237-2.172-.011-2.849.095-.285.548-1.27 1.012-2.184.465-.914.858-1.792.87-1.959.024-.273-.012-.296-.572-.332-.584-.035-.62-.012-1.548.76ZM67.378 69.744c-.155.57-.083 1.495.143 1.934.12.226.524.843.893 1.365 1.037 1.437 1.132 1.65 1.12 2.671 0 .487-.071 1.01-.143 1.152-.19.356-.024.344.37-.012.738-.677.952-1.757.619-3.098-.37-1.46-1.334-3.146-2.275-3.965-.512-.451-.62-.463-.727-.047ZM69.498 85.258c-.071.083-.19.463-.262.843-.143.807.012 2.018.31 2.302.178.178.214.167.381-.047.345-.451.655-1.282.715-1.947.047-.558.023-.712-.203-.997-.274-.344-.714-.427-.94-.154ZM75.763 93.876c-.798.237-1.131.937-1.239 2.611l-.071 1.187-.548.012c-.667.012-1.322.225-1.489.498-.214.333.143.796.93 1.235.81.463.928.475 1.393.142.69-.486.965-1.317 1.239-3.667.095-.879.214-1.722.25-1.876.083-.285.047-.297-.465-.142Z" fill="#BD3800"/></svg>