<svg width="56" height="69" viewBox="0 0 56 69" fill="none" xmlns="http://www.w3.org/2000/svg">
<path d="M31.21 2.17093C31.4963 2.72142 31.6735 3.33715 31.6735 3.99976C31.6735 6.2058 29.8798 8.00003 27.6738 8.00003C25.4678 8.00003 23.6735 6.2058 23.6735 3.99976C23.6735 3.3545 23.8417 2.75383 24.1143 2.21434C11.3648 4.02717 1.52759 15.0102 1.52759 28.2525V51.7028C1.52759 53.3579 2.50007 54.8755 4.00341 55.5682L25.8227 65.6141C26.4578 65.9063 27.1338 66.0533 27.8335 66.0533C28.5332 66.0533 29.2091 65.9063 29.8442 65.6141L51.6651 55.5682C53.1684 54.8755 54.1394 53.3593 54.1394 51.7028V28.2525C54.1394 14.8921 44.1251 3.8343 31.21 2.17093ZM23.8466 23.1676L25.2528 27.8805C25.2528 27.8805 25.9546 26.6401 27.1539 26.5994C27.1539 26.5994 27.1539 27.8806 25.831 29.0799L25.8718 31.1888L26.6992 33.0497L27.1539 32.057L28.7662 31.1888V31.5614L28.3942 32.7603L28.2298 34.2155L27.7746 35.4888L28.064 36.9352L28.5807 39.5407L29.9248 35.1167C29.9248 35.1167 29.1381 34.4553 29.221 33.8346C29.3038 33.2139 29.6763 32.9246 29.6763 32.9246C29.6763 32.9246 30.0062 34.2476 30.7098 33.4626L30.5031 32.057L30.7098 31.8099L30.006 28.667L30.7098 28.7497L31.1227 29.7832L31.3712 28.5435L32.4466 27.1782L32.6942 26.062L33.3975 26.5576L32.9427 27.4268L32.8177 29.3703L31.826 31.3955L31.041 34.5385L32.8595 32.7603L32.9835 34.2155L31.2054 36.2743L30.3785 38.0938L30.131 39.9531L30.2969 40.2017L31.4539 38.5646L31.5774 39.1682L30.7925 40.6978L29.6763 42.1034L28.3533 43.4681L28.5807 46.8586L27.6738 46.3486L26.7245 45.5047L25.3763 46.3207C25.3763 46.3207 27.0713 40.9465 26.6992 39.5407C26.327 38.135 25.3763 37.5967 25.3763 37.5967V36.9776C25.3763 36.9776 26.8479 38.2178 26.7524 37.1435C26.6583 36.0678 26.0672 35.7782 26.0672 35.7782L26.2439 34.2155L24.8802 33.5861H23.764L22.9366 32.5525L22.2333 32.2631V31.272H25.1277L25.0042 30.5273L22.6054 24.1184L23.8466 23.1676ZM47.6643 38.7542H51.3829V38.7584H51.3871L51.3829 40.9081H50.2466V39.8844H48.7986V41.0363H49.9277V42.1706H48.7986V43.2971L48.8074 44.4009H48.7986V44.405H47.6643V44.4009H47.6586L47.2468 43.2971H47.6643V41.9587L47.2468 41.5417L47.6643 41.1246V39.8622H47.2468L47.6586 38.7584H47.6643V38.7542ZM37.5543 38.7708V38.7764L37.5771 38.8467V41.1877L37.1781 41.5809L37.5771 41.9711V44.387H36.4195L36.0123 43.293H36.4547V42.5163L36.1193 42.1793L34.9886 42.956V43.3095L35.0015 44.3828L33.8538 44.387L33.4455 43.293H33.8667V42.0207L33.4367 41.5949L33.8667 41.1654V39.8932H33.3975L33.8088 38.7935L37.5543 38.7708ZM15.2327 38.7723H16.3587V41.1737L16.7665 41.5809L16.3587 41.9897V43.262H17.7509V42.1974H18.8769V44.387H15.2244L14.8126 43.293H15.2327V41.998L14.8126 41.5809L15.2327 41.1598V39.8746H14.7635L15.1753 38.7806H15.2327V38.7723ZM19.728 38.7723H19.9626V38.7749H22.8565L23.7614 39.6797V41.1117L24.1686 41.5194L23.7614 41.9266V43.4826L22.8565 44.387H19.7239V44.3642L19.3193 43.2842H19.7239V41.9266L19.3193 41.5189L19.7239 41.1117V39.8704H19.3193L19.7239 38.7847V38.7749H19.728V38.7723ZM5.11858 38.7894H8.82895V38.7935H8.8429L8.83464 39.8885L6.24926 39.9195V43.2744L6.49783 43.2785H7.69827V42.1215H7.18047V40.997H8.82895V41.1386L9.24598 41.5597L8.82895 41.9799V43.3054L8.8429 44.405H8.82895V44.4092H7.69827V44.405H6.09062L5.11858 44.4092V44.405L4.70724 43.3054H5.11858V41.9628L4.71551 41.5597L5.11858 41.1567V39.8885H4.70724L5.11858 38.7935V38.7894ZM10.1012 38.7894H10.3317V38.7935H13.6695V38.7894H13.9L14.3113 39.8834H13.9V41.1696L14.3201 41.5907L13.9 42.0078V44.387H13.7315L12.9336 44.4009H11.0841L10.2867 44.387H10.1012L9.68833 43.293H10.1141V42.0078L9.69711 41.5907L10.1141 41.1696V39.8834L10.1012 38.7894ZM38.4855 38.7894H42.1856V38.7935H42.1902V40.9308H41.0611V39.9154H39.6105V41.0626H40.7366V42.1892H39.6105V43.2873H41.0611V42.2734H42.1902V44.4092H42.1856V44.4133H38.4855V44.4092H38.4323L38.0194 43.3095H38.4855V41.9938L38.0556 41.5639L38.4855 41.1344V39.8932H38.0194L38.4323 38.7935H38.4855V38.7894ZM43.0987 38.7894H46.8003V38.7935H46.8044V40.9308H45.6742V39.9154H44.2247V41.0626H45.3497V42.1892H44.2247V43.2873H45.6742V42.2734H46.8044V44.4092H46.8003V44.4133H43.0987V44.4092H43.0455L42.6336 43.3095H43.0987V41.9938L42.6687 41.5639L43.0987 41.1344V39.8932H42.6336L43.0455 38.7935H43.0987V38.7894ZM34.9886 39.8932V41.5334L36.4547 40.5303V39.8932H34.9886ZM20.8484 39.9014V43.262H22.3201L22.6348 42.9462V40.2161L22.3201 39.9014H20.8484ZM11.2402 39.9195V43.2744H12.7739V39.9195H11.2402ZM27.9518 58.3985L28.6019 59.7173L30.0566 59.9292L29.005 60.956L29.2535 62.405L27.9518 61.7197L26.6496 62.405L26.8981 60.956L25.845 59.9292L27.3002 59.7173L27.9518 58.3985Z" fill="#D40000"/>
<path d="M32.2017 3.06494C32.264 3.36696 32.2968 3.67956 32.2968 3.99977C32.2968 6.54958 30.2237 8.62326 27.6738 8.62326C25.124 8.62326 23.0503 6.54958 23.0503 3.99977C23.0503 3.70002 23.0799 3.40733 23.1346 3.12334C11.2716 5.33696 2.25989 15.7589 2.25989 28.2551V51.6945C2.25989 53.0694 3.06714 54.3289 4.31558 54.9047L26.1261 64.9459C27.2046 65.4416 28.4645 65.4416 29.543 64.9459L51.353 54.9047C52.6015 54.3303 53.4077 53.0707 53.4077 51.6945V28.2551C53.4077 15.6429 44.2286 5.14458 32.2017 3.06494V3.06494ZM33.1293 12.7445C33.2684 12.7276 33.3992 12.7866 33.475 12.899L34.3442 14.1811C34.385 14.2414 34.4057 14.3106 34.4057 14.3836V23.1604L34.9649 23.0441C35.0491 23.0272 35.1391 23.0398 35.215 23.0834L36.1653 23.6213C36.2791 23.6845 36.3482 23.8039 36.3482 23.9345V25.5607L36.5152 25.9902L36.7007 25.9731C36.8566 25.9605 36.9942 26.042 37.0588 26.1783L37.5936 27.3115L38.3605 20.5848C38.3717 20.4893 38.4207 20.4009 38.498 20.3419C38.5752 20.2829 38.6738 20.2566 38.7693 20.2706L41.0849 20.6003C41.2675 20.627 41.4008 20.7884 41.3924 20.9724L41.2337 24.5566L41.519 24.9044C41.599 25.0027 41.6214 25.138 41.5779 25.2574L41.1914 26.309L42.4471 27.9239L43.9509 28.3859C43.9511 28.386 43.9522 28.386 43.9525 28.3864L44.7545 25.8357C44.7545 25.8357 42.3982 25.0088 43.1003 22.6524C43.8039 20.2959 44.7963 21.2003 44.2992 22.6524C43.8906 23.8489 44.6616 24.4063 44.9509 24.1577C45.2401 23.9092 45.8299 18.6413 45.8299 18.6413C45.8299 18.6413 45.9559 18.0405 46.5415 18.0568C46.6251 18.0591 46.7181 18.0738 46.8215 18.1049C47.6487 18.352 47.4003 19.22 47.4003 19.22L46.6867 23.3557C46.653 23.5481 46.8242 23.7209 47.0138 23.6745C47.2258 23.6226 47.4818 23.4035 47.6489 22.7351C47.9789 21.4122 48.848 22.1566 48.8059 22.7759C48.7652 23.3966 49.1371 25.5462 46.4913 26.3312L45.3751 29.8633L45.4707 29.9672L46.0733 30.269C46.1449 30.3041 46.2025 30.3634 46.2376 30.4364L47.3538 32.7929C47.4381 32.9726 47.362 33.1871 47.1822 33.2714C47.0025 33.357 46.7894 33.2802 46.7037 33.1019L45.6407 30.856L45.0899 30.5811C45.0505 30.5614 45.0155 30.5349 44.986 30.5026L43.6465 29.0448L42.1267 28.5771C42.0565 28.556 41.9948 28.5122 41.9485 28.4546L40.502 26.5943C40.4248 26.496 40.4051 26.3651 40.4473 26.2485L40.8322 25.2011L40.5894 24.906C40.5346 24.8372 40.5051 24.75 40.5093 24.6616L40.6503 21.4716L39.6917 22.0302L39.4111 22.8374L39.0597 22.0467L38.7331 23.6689L38.1652 28.6458C38.1469 28.8059 38.0263 28.9338 37.8676 28.9605C37.7075 28.9858 37.5519 28.9042 37.4831 28.7595L36.5152 26.7121L36.3116 26.7317C36.1431 26.7444 36.0012 26.6531 35.9437 26.5028L35.6543 25.7597C35.6374 25.7176 35.6289 25.673 35.6289 25.6295V24.1438L34.9789 23.7758L34.1195 23.9551C34.0156 23.9776 33.9035 23.9511 33.8192 23.8823C33.7364 23.8135 33.6869 23.7108 33.6869 23.6027V14.857L33.3976 14.5619L33.2079 14.5449L32.9847 14.5971L32.7335 15.6518L32.2126 15.722C31.2999 14.6578 32.4417 15.9903 32.7061 16.2988C32.7707 16.3746 32.8016 16.4733 32.7904 16.5716L32.3775 20.3755C32.3634 20.4963 32.2892 20.6034 32.1811 20.6582L30.3373 21.5791L29.6784 23.9076C29.6489 24.0087 29.5775 24.0916 29.482 24.1365C29.3865 24.1801 29.2768 24.1801 29.1813 24.1365L28.1069 23.6394C28.0522 23.6155 28.0061 23.5776 27.971 23.5298L26.7422 21.9067L25.5836 21.3656C25.5344 21.3418 25.4907 21.3082 25.457 21.2674L24.6384 20.2634L22.7569 20.0319C22.5757 20.0108 22.4406 19.8573 22.4406 19.6748V18.88L22.0514 18.7834C21.8801 18.7412 21.7652 18.5796 21.7807 18.4041L21.8892 17.1545L20.8908 17.7426L20.7151 19.9559L20.1885 22.4162H19.7121L19.4774 25.1225C19.462 25.3135 19.2976 25.4554 19.1038 25.4512C18.9128 25.4427 18.7612 25.2839 18.7612 25.0915V23.6957L18.3302 23.1996C18.3119 23.6462 18.2952 24.1127 18.2811 24.5649C18.2741 24.7587 18.1153 24.9132 17.9215 24.9132H17.5453C17.0383 30.0671 16.642 30.1458 16.3794 30.1992C16.3064 30.2132 16.1973 30.2255 16.0652 30.2395C15.4642 30.3013 14.3474 30.4168 13.8488 31.2679C13.1017 32.5416 11.1023 33.5933 11.018 33.6383C10.9646 33.6649 10.9069 33.6791 10.8521 33.6791C10.7215 33.6791 10.5963 33.6089 10.5317 33.4853C10.4405 33.3098 10.5097 33.0919 10.6852 33.0006C10.6963 32.9946 11.3998 32.6221 12.0929 32.0859V32.0854L9.0326 25.7121C7.25474 26.0843 6.84187 24.1407 6.42759 22.8586C6.01472 21.5778 6.26198 20.4613 6.71698 20.4613C7.17198 20.4613 7.33761 21.825 7.33761 21.825C7.75048 24.885 8.94992 24.0058 8.94992 24.0058L8.0399 17.6909C8.0399 17.6909 7.91624 16.2444 8.66053 16.1194C8.68379 16.1156 8.70665 16.1128 8.72926 16.1117C9.43015 16.0769 9.81757 17.3183 9.81757 17.3183L10.0661 22.9412C11.5126 22.6112 10.6449 18.973 11.4299 18.973C12.2163 18.973 12.4226 19.9642 12.4226 19.9642C13.2497 23.7685 10.9834 24.6238 10.9834 24.6238L12.7611 31.4994C12.9466 31.3083 13.1092 31.108 13.2287 30.9041C13.9126 29.7385 15.3154 29.5935 15.9908 29.5233C16.0372 29.5191 16.0795 29.5151 16.1174 29.5109C16.3351 28.9758 16.6653 26.5815 16.8605 24.52C16.8788 24.336 17.0333 24.1939 17.2187 24.1939H17.5737C17.6959 20.5089 17.8068 20.3252 17.8615 20.2339C17.9416 20.1019 18.1142 20.0235 18.263 20.0572C18.5397 20.119 18.6455 20.1414 18.9292 22.7914L18.9555 22.8219L19.2588 19.3125C19.2631 19.2592 19.2799 19.2059 19.3079 19.1596L19.6299 18.6247V16.7809C19.6299 16.5969 19.7674 16.4435 19.9513 16.4238L22.2654 16.1752C22.3721 16.164 22.4791 16.2007 22.5563 16.2765C22.6322 16.351 22.6712 16.4576 22.6628 16.5644L22.5238 18.1596L22.8876 18.2511C23.0477 18.2918 23.1599 18.4347 23.1599 18.6004V19.3575L24.8694 19.5668C24.962 19.578 25.046 19.6243 25.105 19.696L25.9618 20.7491L27.1287 21.2928C27.182 21.318 27.227 21.3546 27.2635 21.4023L28.4893 23.0244L29.1017 23.3066L29.6903 21.2307C29.7169 21.1338 29.7843 21.0524 29.8742 21.0075L31.6844 20.1032L32.0591 16.6486L31.1687 15.6094C31.1125 15.5448 31.0819 15.4604 31.0819 15.3748V14.92C31.0819 14.722 31.2422 14.5604 31.4416 14.5604H31.8643L31.6958 14.2064C31.679 14.1699 31.6675 14.1308 31.6633 14.0901L31.5806 13.3051C31.5595 13.1113 31.6968 12.937 31.8906 12.9103L33.1293 12.7445ZM23.8467 23.1676L25.2528 27.8805C25.2528 27.8805 25.9547 26.6401 27.154 26.5994C27.154 26.5994 27.1539 27.8806 25.8311 29.0799L25.8719 31.1888L26.6992 33.0497L27.154 32.057L28.7663 31.1888V31.5614L28.3942 32.7603L28.2299 34.2155L27.7746 35.4888L28.064 36.9352L28.5808 39.5407L29.9249 35.1167C29.9249 35.1167 29.1382 34.4553 29.221 33.8346C29.3039 33.2139 29.6763 32.9246 29.6763 32.9246C29.6763 32.9246 30.0063 34.2476 30.7098 33.4626L30.5031 32.057L30.7098 31.81L30.006 28.667L30.7098 28.7497L31.1227 29.7832L31.3713 28.5435L32.4467 27.1782L32.6942 26.062L33.3975 26.5576L32.9428 27.4268L32.8177 29.3703L31.826 31.3955L31.0411 34.5385L32.8596 32.7603L32.9836 34.2155L31.2054 36.2743L30.3786 38.0938L30.1311 39.9531L30.2969 40.2017L31.454 38.5646L31.5775 39.1682L30.7925 40.6978L29.6763 42.1034L28.3534 43.4682L28.5808 46.8586L27.6738 46.3486L26.7245 45.5047L25.3763 46.3207C25.3763 46.3207 27.0714 40.9465 26.6992 39.5407C26.3271 38.135 25.3763 37.5967 25.3763 37.5967V36.9776C25.3763 36.9776 26.8479 38.2178 26.7524 37.1435C26.6584 36.0678 26.0672 35.7782 26.0672 35.7782L26.244 34.2155L24.8802 33.5861H23.764L22.9367 32.5525L22.2333 32.2632V31.272H25.1277L25.0042 30.5273L22.6054 24.1184L23.8467 23.1676ZM4.70728 36.2588H22.9914C23.0897 36.2588 23.1713 36.3384 23.1713 36.4381C23.1713 36.5378 23.0897 36.6179 22.9914 36.6179H4.70728C4.60758 36.6179 4.52745 36.5378 4.52745 36.4381C4.52745 36.3384 4.60758 36.2588 4.70728 36.2588ZM33.6745 36.2588H51.5458C51.6455 36.2588 51.7256 36.3384 51.7256 36.4381C51.7256 36.5378 51.6455 36.6179 51.5458 36.6179H33.6745C33.5748 36.6179 33.4947 36.5378 33.4947 36.4381C33.4947 36.3384 33.5748 36.2588 33.6745 36.2588V36.2588ZM47.6643 38.7542H51.383V38.7584H51.3871L51.383 40.9081H50.2466V39.8844H48.7986V41.0363H49.9278V42.1706H48.7986V43.2971L48.8074 44.4009H48.7986V44.405H47.6643V44.4009H47.6587L47.2468 43.2971H47.6643V41.9587L47.2468 41.5417L47.6643 41.1246V39.8622H47.2468L47.6587 38.7584H47.6643V38.7542ZM37.5544 38.7708V38.7765L37.5771 38.8467V41.1877L37.1782 41.5809L37.5771 41.9711V44.387H36.4195L36.0123 43.293H36.4547V42.5163L36.1193 42.1793L34.9886 42.956V43.3095L35.0015 44.3828L33.8538 44.387L33.4456 43.293H33.8667V42.0207L33.4368 41.5949L33.8667 41.1655V39.8932H33.3975L33.8089 38.7935L37.5544 38.7708ZM15.2327 38.7729H16.3588V41.1743L16.7665 41.5815L16.3588 41.9903V43.2625H17.7509V42.198H18.877V44.3875H15.2245L14.8126 43.2935H15.2327V41.9985L14.8126 41.5815L15.2327 41.1603V39.8751H14.7635L15.1754 38.7812H15.2327V38.7729ZM19.7281 38.7729H19.9627V38.775H22.8566L23.7614 39.6799V41.1118L24.1686 41.5195L23.7614 41.9267V43.4827L22.8566 44.3871H19.7239V44.3643L19.3193 43.2843H19.7239V41.9268L19.3193 41.519L19.7239 41.1118V39.8706H19.3193L19.7239 38.7848V38.775H19.7281L19.7281 38.7729ZM5.11863 38.7899H8.829V38.794H8.84295L8.83468 39.8891L6.24931 39.9201V43.2749L6.49787 43.279H7.69831V42.122H7.18052V40.9975H8.82899V41.1391L9.24602 41.5603L8.82899 41.9804V43.3059L8.84295 44.4056H8.82899V44.4097H7.69831V44.4056H6.09066L5.11863 44.4097V44.4056L4.70728 43.3059H5.11863V41.9634L4.71555 41.5603L5.11863 41.1572V39.8891H4.70728L5.11863 38.794L5.11863 38.7899ZM10.1013 38.7899H10.3317V38.794H13.6695V38.7899H13.9L14.3113 39.8839H13.9V41.1701L14.3201 41.5913L13.9 42.0083V44.3875H13.7315L12.9337 44.4015H11.0842L10.2868 44.3875H10.1013L9.68837 43.293H10.1142V42.0078L9.69716 41.5908L10.1142 41.1696V39.8834L10.1013 38.7899ZM38.4856 38.7899H42.1856V38.794H42.1903V40.9314H41.0611V39.9159H39.6106V41.0632H40.7366V42.1897H39.6106V43.2878H41.0611V42.2739H42.1903V44.4097H42.1856V44.4139H38.4856V44.4097H38.4324L38.0195 43.3101H38.4856V41.9944L38.0556 41.5644L38.4856 41.135V39.8937H38.0195L38.4324 38.794H38.4856V38.7899ZM43.0987 38.7899H46.8003V38.794H46.8044V40.9314H45.6743V39.9159H44.2248V41.0632H45.3498V42.1897H44.2248V43.2878H45.6743V42.2739H46.8044V44.4097H46.8003V44.4139H43.0987V44.4097H43.0455L42.6336 43.3101H43.0987V41.9944L42.6688 41.5644L43.0987 41.135V39.8937H42.6336L43.0455 38.794H43.0987V38.7899ZM34.9886 39.8937V41.5339L36.4547 40.5309V39.8937H34.9886ZM20.8484 39.902V43.2625H22.3202L22.6349 42.9468V40.2167L22.3202 39.902L20.8484 39.902ZM12.774 39.9196L11.2402 39.9201V43.2749H12.774V39.9196ZM4.70728 46.1424H22.9914C23.0897 46.1424 23.1713 46.222 23.1713 46.3217C23.1713 46.42 23.0897 46.5016 22.9914 46.5016H4.70728C4.60758 46.5016 4.52745 46.42 4.52745 46.3217C4.52745 46.222 4.60758 46.1424 4.70728 46.1424ZM33.6745 46.1424H51.5458C51.6455 46.1424 51.7256 46.222 51.7256 46.3217C51.7256 46.42 51.6455 46.5016 51.5458 46.5016H33.6745C33.5748 46.5016 33.4947 46.42 33.4947 46.3217C33.4947 46.222 33.5748 46.1424 33.6745 46.1424V46.1424ZM15.1935 48.2307H18.0589V48.2312V48.2339H18.062V48.2344L18.0589 49.0834V49.8891V49.8896H17.1856V49.8891V49.1046H16.0668V50.0586V50.0591L16.3872 50.3795H16.3877V50.38L16.0668 50.6978V51.7133H17.1856V50.9257V50.9252H18.0589V50.9257V51.7303V51.7308L18.062 52.5799V52.5804H18.0589V52.5866V52.5871H15.1935V52.5866V52.5804H15.1904V52.5799L14.8726 51.7308V51.7303H15.1935V50.7009V50.7004L14.8726 50.3795L15.1935 50.0591V50.0586V49.0839H14.8726V49.0834L15.1904 48.2344V48.2338H15.1935V48.2312V48.2307ZM31.2793 48.2405H31.4607V48.241V48.2437H32.6647V48.241L32.9133 49.0901L33.1836 50.0347L33.5856 50.2636V50.2642L33.3608 50.6626L33.7944 52.1907V52.1912L33.8926 52.5726V52.5731H33.644V52.5767V52.5772H32.7738V52.5767V52.5695V52.569L32.456 51.7246V51.724H32.7567L32.6787 51.4445H31.4498L31.13 52.5767V52.5772H30.4706V52.5767V52.5695V52.569L30.1543 51.7246V51.724H30.4675L30.7677 50.6662V50.6657L30.5398 50.2642V50.2636L30.945 50.0347L31.2142 49.0906H30.9625V49.09L31.2793 48.241V48.2405ZM34.5649 48.2436H35.4305V48.2441V48.2581L35.448 48.2472V48.2477L36.7642 50.7375V49.0906H36.4402V49.0901L36.7575 48.2477V48.2472H36.7642V48.2446V48.244H37.6345V48.2446L37.6308 49.0869V49.0874V50.0858L37.9616 50.4129V50.4134H37.961L37.6308 50.7447V50.7452V52.5694V52.5699H36.7751L36.7544 52.5808V52.5802L35.4305 50.0729L35.4336 52.5658V52.5663H35.4305V52.5694V52.5699H34.5649V52.5694V52.5663H34.5509V52.5658L34.2331 51.7214V51.7208H34.5649V50.7452V50.7447L34.2336 50.4134L34.2331 50.4129L34.5649 50.0832V49.0905H34.2331V49.09L34.5509 48.2476V48.2471H34.5649V48.244L34.5649 48.2436ZM22.6845 48.2482H23.5537V48.2488L24.5262 50.0724L25.5014 48.2488V48.2482H26.3711V48.2488V48.2504H26.3757V48.2509L26.6925 49.0963V49.0968H26.3711V50.0854V50.0859L26.6925 50.41V50.4105L26.3711 50.7309V50.7314V51.7231H26.6925V51.7236L26.3757 52.569V52.5696H25.4977V52.569L25.5014 50.1046L24.5293 51.8363L23.5537 50.0999V52.569V52.5696H22.6261V52.569L22.3083 51.7236V51.7231H22.6845V50.7345V50.734L22.3605 50.4105V50.41L22.6845 50.0828V50.0823V49.0968H22.3083V49.0963L22.6261 48.2509V48.2504H22.6845V48.2488V48.2482ZM38.6168 48.2482H39.3129V48.2488L40.0328 49.5267L40.7557 48.2488V48.2482H41.7412V48.2488L41.5707 48.5645V48.565L41.2735 49.0932V49.0905L40.6358 50.2119V50.2124L40.779 50.3556H40.7795V50.3561L40.4617 50.6698V52.5694V52.5699H39.5915V52.5694L39.2747 51.7276V51.7271H39.5961V50.6729L39.2747 50.3561V50.3556H39.2752L39.422 50.2093V50.2088L38.7941 49.0905H38.3022V49.09L38.6169 48.2487L38.6168 48.2482ZM18.7204 48.2612H18.8976V48.2617V48.2643H21.4665V48.2617V48.2612H21.6437V48.2617L21.9615 49.103V49.1035H21.6437V50.0931V50.0936L21.9677 50.4171H21.9683V50.4177L21.6437 50.7386V52.5689V52.5695H21.514L20.9001 52.5803H19.478L18.864 52.5695H18.7204V52.5689L18.4036 51.7277V51.7271H18.7312V50.7386V50.738L18.4103 50.4176V50.4171L18.7312 50.0936V50.0931V49.1035V49.103L18.7204 48.2617L18.7204 48.2612ZM27.4961 48.2612H30.2044V48.2617V48.2643H30.2189V48.2649V48.2711H30.222V48.2716L30.2189 49.1139V50.1231V50.1237L29.3564 50.7107L28.2268 51.4859V51.7339V51.7344L28.2304 52.5726V52.5732H27.3602V52.5726L27.0465 51.7344V51.7339H27.3633V50.7515V50.751L27.0331 50.4208L27.0325 50.4203L27.3633 50.0932V49.1144H27.0465V49.1139L27.3602 48.2716V48.271H27.3633V48.2648V48.2643H27.388L27.4961 48.2612ZM28.2268 49.1283V50.3902L29.3564 49.6151V49.1283H28.2268ZM19.5968 49.1314V51.7131H20.7771V49.1314H19.5968ZM32.0638 49.2885L31.6994 50.5742H32.4291L32.0638 49.2885ZM10.7198 50.4093H12.7161C12.8158 50.4093 12.8959 50.4889 12.8959 50.5887C12.8959 50.687 12.8158 50.7685 12.7161 50.7685H10.7198C10.6201 50.7685 10.54 50.687 10.54 50.5887C10.54 50.4889 10.6201 50.4093 10.7198 50.4093ZM42.9515 50.4093H44.9477C45.0474 50.4093 45.1276 50.4889 45.1276 50.5887C45.1276 50.687 45.0474 50.7685 44.9477 50.7685H42.9515C42.8517 50.7685 42.7716 50.687 42.7716 50.5887C42.7716 50.4889 42.8517 50.4093 42.9515 50.4093ZM23.2385 54.361C23.4503 54.361 23.6884 54.3996 23.9521 54.4763L23.8606 55.085H23.4684L23.3769 54.652H23.039V54.9057L23.7051 55.3992C23.8043 55.4713 23.8774 55.5569 23.9247 55.656C23.9721 55.7552 23.996 55.8683 23.996 55.9945C23.996 56.1208 23.9792 56.2209 23.9454 56.2953C23.9116 56.3674 23.8686 56.4237 23.8167 56.4643C23.7671 56.5048 23.7006 56.5368 23.6172 56.5593C23.4842 56.5954 23.2928 56.6131 23.0426 56.6131C22.7924 56.6131 22.5238 56.575 22.2375 56.4984L22.3289 55.8896H22.762L22.8664 56.3222H23.2421V56.0689L22.576 55.5749C22.4768 55.5028 22.4032 55.4173 22.3558 55.3181C22.3085 55.2189 22.285 55.1108 22.285 54.9936C22.285 54.8741 22.2952 54.7828 22.3155 54.7197C22.3381 54.6543 22.3709 54.6011 22.4137 54.5605C22.4565 54.5177 22.5026 54.4832 22.5522 54.4561C22.6018 54.4291 22.6625 54.4087 22.7346 54.3951C22.8586 54.3726 23.0266 54.361 23.2385 54.361ZM20.3575 54.4153H22.0685V55.1388H21.6732L21.5342 54.6184H21.2334V55.4163H21.8794V55.6023H21.2334V56.3594H21.5342L21.6732 55.839H22.0685V56.5625H20.3575V56.4338H20.5063V54.544H20.3575V54.4153ZM24.0803 54.4153H26.0047V55.1186H25.6088L25.5241 54.652H25.3313L25.4058 55.2199V56.4338H25.69V56.5625H24.395V56.4338H24.6792V55.2199L24.7536 54.652H24.5609L24.4761 55.1388H24.0803V54.4153ZM28.7466 54.483C29.1006 54.483 29.3226 54.5495 29.4128 54.6825C29.4511 54.7411 29.4701 54.8213 29.4701 54.9228C29.4701 55.0219 29.4431 55.1301 29.389 55.2473C29.3349 55.3622 29.2472 55.5134 29.1254 55.7005L28.7094 56.3392H28.9461L29.2608 55.8591H29.467L29.528 56.5625H27.9286L27.878 56.4338L28.9327 54.7026H28.6624L28.3611 55.2132H28.0805L28.0232 54.5843C28.2892 54.5166 28.5302 54.483 28.7466 54.483V54.483ZM32.6017 54.483C32.9556 54.483 33.1776 54.5495 33.2678 54.6825C33.3061 54.7411 33.3252 54.8213 33.3252 54.9228C33.3252 55.0219 33.2981 55.1301 33.244 55.2473C33.1899 55.3622 33.1017 55.5134 32.98 55.7005L32.5645 56.3392H32.8012L33.1154 55.8591H33.3216L33.3825 56.5625H31.7831L31.7325 56.4338L32.7872 54.7026H32.517L32.2162 55.2132H31.9351L31.8777 54.5843C32.1437 54.5166 32.3853 54.483 32.6017 54.483V54.483ZM34.5287 54.483C34.8826 54.483 35.1047 54.5495 35.1948 54.6825C35.2331 54.7411 35.2522 54.8213 35.2522 54.9228C35.2522 55.0219 35.2252 55.1301 35.1711 55.2473C35.117 55.3622 35.0292 55.5134 34.9075 55.7005L34.4915 56.3392H34.7282L35.0429 55.8591H35.2491L35.3101 56.5625H33.7107L33.66 56.4338L34.7148 54.7026H34.4445L34.1432 55.2132H33.8626L33.8052 54.5843C34.0712 54.5166 34.3123 54.483 34.5287 54.483V54.483ZM30.6809 54.5032C30.7575 54.5032 30.8152 54.5045 30.8535 54.5068C30.8918 54.5068 30.9445 54.512 31.0121 54.5233C31.082 54.5323 31.1361 54.5475 31.1744 54.5678C31.2127 54.588 31.2566 54.6181 31.3062 54.6587C31.3558 54.6993 31.3944 54.7481 31.4214 54.8044C31.4845 54.9487 31.516 55.1255 31.516 55.3351V55.7609C31.516 55.9728 31.4801 56.1502 31.408 56.2922C31.3584 56.3869 31.2679 56.4657 31.1372 56.5289C31.0583 56.5672 30.9413 56.5871 30.7858 56.5893C30.743 56.5917 30.6831 56.5929 30.6065 56.5929C30.5321 56.5929 30.4758 56.5916 30.4375 56.5893C30.3992 56.5893 30.3451 56.584 30.2752 56.5728C30.2076 56.5638 30.1544 56.5492 30.1161 56.5289C30.0777 56.5086 30.0339 56.478 29.9843 56.4374C29.9347 56.3968 29.8975 56.3485 29.8727 56.2922C29.8073 56.1479 29.7745 55.9706 29.7745 55.7609V55.3351C29.7745 55.1277 29.8095 54.9509 29.8794 54.8044C29.9267 54.7097 30.018 54.6309 30.1533 54.5677C30.2322 54.5294 30.3496 54.509 30.5052 54.5068C30.548 54.5044 30.6065 54.5031 30.6809 54.5031V54.5032ZM30.4881 54.7197L30.3155 56.3868H30.8194L30.992 54.7197H30.4881ZM26.3628 55.9268C26.4958 55.9268 26.5805 55.9472 26.6165 55.9878C26.6549 56.0261 26.6739 56.1183 26.6739 56.2648C26.6739 56.4091 26.6548 56.5004 26.6165 56.5387C26.5782 56.577 26.4927 56.596 26.3597 56.596C26.2267 56.596 26.1398 56.577 26.0993 56.5387C26.0587 56.5004 26.0383 56.4082 26.0383 56.2617C26.0383 56.1152 26.0587 56.0225 26.0993 55.9842C26.1421 55.9459 26.2298 55.9268 26.3628 55.9268V55.9268ZM27.9519 58.3985L28.6019 59.7173L30.0566 59.9292L29.005 60.956L29.2536 62.405L27.9519 61.7198L26.6496 62.405L26.8982 60.956L25.845 59.9292L27.3002 59.7173L27.9519 58.3985Z" fill="white"/>
</svg>
