<svg version="1.2" viewBox="0 0 158.74 195.591" height="69mm" width="56mm" xmlns:xlink="http://www.w3.org/1999/xlink" xmlns="http://www.w3.org/2000/svg"><defs><linearGradient id="a"><stop style="stop-color:#fc0;stop-opacity:1" offset="0"/><stop style="stop-color:#ffe680;stop-opacity:1" offset="1"/></linearGradient><linearGradient xlink:href="#a" id="b" x1="3.158" y1="211.546" x2="178.695" y2="28.641" gradientUnits="userSpaceOnUse"/></defs><g style="display:inline"><path style="display:inline;fill:url(#b);fill-opacity:1;fill-rule:nonzero;stroke:none;stroke-width:1.30838" d="M105.2 0C47.1 0 .001 47.101.001 105.2v95.08a15.794 15.794 0 0 0 9.186 14.347l88.472 40.725a17.989 17.989 0 0 0 15.08 0l88.469-40.725c5.6-2.58 9.187-8.18 9.187-14.348V105.2C210.396 47.101 163.296 0 105.2 0ZM32.993 60.895c2.65-.132 4.111 4.56 4.111 4.56l.94 21.252c5.467-1.247 2.187-14.998 5.154-14.998 2.973 0 3.752 3.746 3.752 3.746 3.126 14.379-5.44 17.611-5.44 17.611l6.72 25.987-.077.101c-.583.401-1.198.885-1.812 1.44-.231.208-.45.417-.66.627L34.139 97.18c-6.72 1.406-8.28-5.94-9.846-10.785-1.56-4.841-.626-9.061 1.094-9.061 1.72 0 2.345 5.154 2.345 5.154 1.56 11.566 6.094 8.242 6.094 8.242l-3.44-23.867s-.467-5.467 2.346-5.94c.088-.014.177-.024.262-.028zm142.91 7.351c.316.009.668.064 1.059.182 3.126.934 2.187 4.215 2.187 4.215l-2.697 15.63c-.127.728.52 1.38 1.236 1.206.802-.197 1.77-1.025 2.4-3.551 1.248-5 4.533-2.187 4.374.154-.154 2.346 1.251 10.47-8.748 13.438l-4.219 13.35.313.339c-2.11-1.344-3.709-4.32-5.938-5.998l.244.074c.001 0 .003 0 .004.002l3.031-9.64s-8.905-3.125-6.251-12.032c2.659-8.906 6.41-5.488 4.53 0-1.544 4.522 1.37 6.63 2.464 5.69 1.093-.94 3.322-20.85 3.322-20.85s.476-2.27 2.69-2.209zM87.83 205.46c.8 0 1.7.146 2.697.436l-.345 2.3h-1.483l-.345-1.636h-1.278v.959l2.518 1.865c.375.272.65.596.83.97.179.375.27.803.27 1.28s-.064.855-.192 1.137c-.128.272-.29.485-.486.638-.188.154-.44.274-.754.36-.503.136-1.226.203-2.172.203-.946 0-1.961-.144-3.043-.434l.346-2.3h1.636l.395 1.634h1.42v-.957l-2.518-1.867a2.569 2.569 0 0 1-.832-.97 2.81 2.81 0 0 1-.267-1.227c0-.452.038-.797.115-1.036.085-.247.209-.448.37-.601.163-.162.337-.292.524-.395.188-.102.417-.179.69-.23.468-.085 1.103-.129 1.904-.129zm-10.889.205h6.467v2.734h-1.494l-.525-1.966h-1.137v3.015h2.441v.703h-2.441v2.862h1.137l.525-1.967h1.494v2.734h-6.467v-.486h.563v-7.143h-.563zm14.07 0h7.274v2.658H96.79l-.32-1.763h-.729l.281 2.146v4.588h1.075v.486H92.2v-.486h1.074v-4.588l.282-2.146h-.729l-.32 1.84h-1.496zm17.637.256c1.338 0 2.177.251 2.518.754.145.221.217.525.217.908 0 .375-.102.784-.307 1.227-.204.434-.536 1.005-.996 1.712l-1.572 2.415h.894l1.19-1.815h.78l.23 2.658h-6.045l-.192-.486 3.987-6.543h-1.022l-1.139 1.93h-1.06l-.217-2.377c1.005-.256 1.917-.383 2.734-.383zm14.57 0c1.338 0 2.178.251 2.518.754.145.221.217.525.217.908 0 .375-.102.784-.307 1.227-.204.434-.538 1.005-.998 1.712l-1.57 2.415h.895l1.187-1.815h.78l.23 2.658h-6.045l-.191-.486 3.986-6.543h-1.022l-1.136 1.93h-1.063l-.217-2.377c1.006-.256 1.919-.383 2.737-.383zm7.284 0c1.338 0 2.177.251 2.518.754.144.221.216.525.216.908 0 .375-.102.784-.306 1.227-.205.434-.536 1.005-.996 1.712l-1.573 2.415h.895l1.19-1.815h.779l.23 2.658h-6.045l-.191-.486 3.986-6.543h-1.021l-1.14 1.93h-1.06l-.216-2.377c1.005-.256 1.916-.383 2.734-.383zm-14.543.076c.29 0 .507.005.652.014.145 0 .344.02.6.062.264.034.468.092.613.168.145.077.31.19.498.344.188.153.334.338.436.55.238.546.357 1.214.357 2.007v1.609c0 .8-.135 1.471-.408 2.008-.187.358-.53.656-1.023.894-.299.145-.74.22-1.329.229-.161.009-.388.014-.677.014-.281 0-.494-.005-.639-.014-.145 0-.35-.02-.613-.063a1.83 1.83 0 0 1-.602-.166 3.145 3.145 0 0 1-.498-.345 1.464 1.464 0 0 1-.422-.55c-.247-.544-.37-1.215-.37-2.007v-1.61c0-.783.132-1.451.396-2.005.179-.358.524-.656 1.035-.895.298-.145.742-.222 1.33-.23.162-.01.383-.014.664-.014zm-.729.818-.652 6.301h1.904l.653-6.3zm-15.591 4.563c.502 0 .822.077.959.23.144.145.216.494.216 1.047 0 .546-.072.89-.216 1.035-.145.145-.468.217-.971.217-.503 0-.831-.072-.984-.217-.154-.144-.23-.493-.23-1.046 0-.554.076-.904.23-1.05.161-.144.493-.216.996-.216z" transform="scale(.75)"/><path style="display:inline;fill:#d40000;fill-opacity:1;fill-rule:nonzero;stroke:none;stroke-width:1.30838" d="M117.959 8.205c1.082 2.08 1.752 4.408 1.752 6.912 0 8.338-6.78 15.12-15.117 15.12-8.338 0-15.12-6.782-15.12-15.12 0-2.439.636-4.709 1.667-6.748-48.187 6.852-85.368 48.362-85.368 98.412v88.631c0 6.256 3.676 11.992 9.358 14.61l82.467 37.968a18.042 18.042 0 0 0 7.6 1.66c2.644 0 5.199-.555 7.599-1.66l82.473-37.969a16.125 16.125 0 0 0 9.351-14.609v-88.63c0-50.497-37.85-92.29-86.662-98.577zm-27.83 79.358 5.314 17.812s2.653-4.688 7.186-4.842c0 0 0 4.842-5 9.375l.154 7.97 3.127 7.034 1.719-3.752 6.094-3.281v1.408l-1.407 4.531-.62 5.5-1.721 4.813 1.093 5.467 1.953 9.847 5.08-16.72s-2.973-2.5-2.66-4.846c.314-2.346 1.721-3.44 1.721-3.44s1.247 5 3.906 2.034l-.78-5.313.78-.933-2.66-11.88 2.66.313 1.56 3.906.94-4.685 4.065-5.16.935-4.219 2.659 1.873-1.72 3.285-.472 7.346-3.748 7.654-2.967 11.88 6.873-6.722.47 5.5-6.722 7.782-3.125 6.877-.935 7.027.627.94 4.373-6.188.467 2.281-2.967 5.781-4.219 5.313-5 5.158.86 12.815-3.428-1.928-3.588-3.19-5.096 3.084s6.407-20.312 5-25.625c-1.406-5.313-5-7.347-5-7.347v-2.34s5.562 4.687 5.201.627c-.355-4.066-2.59-5.16-2.59-5.16l.668-5.907-5.154-2.379h-4.219l-3.127-3.906-2.658-1.094v-3.746h10.94l-.467-2.814-9.067-24.223 4.692-3.594zm90.02 58.91h14.054v.015h.016l-.016 8.125h-4.295v-3.869h-5.472v4.354h4.267v4.287h-4.267v4.258l.033 4.171h-.033v.016h-4.288v-.016h-.021l-1.557-4.171h1.578v-5.059l-1.578-1.576 1.578-1.576v-4.772h-1.578l1.557-4.172h.021v-.015zm-38.212.062v.022l.086.265v8.848l-1.507 1.486 1.507 1.475v9.13h-4.375l-1.539-4.134h1.672v-2.936l-1.267-1.273-4.274 2.936v1.335l.05 4.057-4.339.016-1.543-4.135H128v-4.809l-1.625-1.609 1.625-1.623v-4.809h-1.773l1.554-4.156 14.156-.086zm-84.365.006h4.256v9.076l1.541 1.54-1.54 1.544v4.809h5.26v-4.024h4.257v8.276H57.54l-1.557-4.135h1.588v-4.895l-1.588-1.576 1.588-1.592v-4.857H55.8l1.556-4.135h.217v-.031zm16.99 0h.887v.01h10.938l3.42 3.42v5.412l1.539 1.54-1.54 1.54v5.88l-3.42 3.419h-11.84v-.086l-1.528-4.082h1.529v-5.131l-1.53-1.541 1.53-1.54v-4.69h-1.53l1.53-4.104v-.037h.016v-.01zm-55.216.064h14.023v.016h.053l-.031 4.139-9.772.117v12.68l.94.015h4.537V159.2h-1.957v-4.25h6.23v.535l1.576 1.592-1.576 1.588v5.01l.053 4.156h-.053v.016h-4.273v-.016H23.02l-3.674.016v-.016l-1.555-4.156h1.555V158.6l-1.524-1.524 1.524-1.523v-4.793H17.79l1.555-4.139v-.016zm18.832 0h.87v.016h12.616v-.016h.871l1.555 4.135h-1.555v4.862l1.588 1.591-1.588 1.577v8.992h-.637l-3.015.052h-6.99l-3.014-.052h-.701l-1.56-4.135h1.609v-4.857l-1.577-1.577 1.577-1.591v-4.862l-.05-4.135zm107.279 0h13.984v.016h.018v8.078h-4.268v-3.838h-5.482v4.336h4.256v4.258h-4.256v4.15h5.482v-3.832h4.268v8.073h-.018v.015h-13.984v-.015h-.201l-1.56-4.157h1.761v-4.972l-1.625-1.625 1.625-1.623v-4.692h-1.762l1.56-4.156h.202v-.016zm17.436 0h13.99v.016h.015v8.078h-4.271v-3.838h-5.479v4.336h4.252v4.258h-4.252v4.15h5.479v-3.832h4.271v8.073h-.015v.015h-13.99v-.015h-.202l-1.556-4.157h1.758v-4.972l-1.625-1.625 1.625-1.623v-4.692h-1.758l1.556-4.156h.202v-.016zm-30.653 4.172v6.2l5.541-3.791v-2.409h-5.54zm-53.443.032v12.7h5.562l1.19-1.193v-10.318l-1.19-1.19h-5.562zm-36.315.068v12.68h5.797v-12.68h-5.797zm63.163 69.842 2.457 4.984 5.498.8-3.975 3.882.94 5.476-4.92-2.59-4.922 2.59.94-5.476-3.981-3.881 5.5-.8 2.463-4.985z" transform="scale(.75)"/><path style="display:inline;fill:#fff;fill-opacity:1;fill-rule:nonzero;stroke:none;stroke-width:1.30838" d="M121.707 11.584a17.49 17.49 0 0 1 .36 3.533c0 9.637-7.836 17.475-17.473 17.475-9.637 0-17.475-7.838-17.475-17.475 0-1.133.112-2.239.318-3.312C42.602 20.17 8.541 59.56 8.541 106.79v88.59a13.4 13.4 0 0 0 7.77 12.133l82.433 37.95a15.538 15.538 0 0 0 12.914 0l82.432-37.95a13.386 13.386 0 0 0 7.765-12.133v-88.59c0-47.668-34.692-87.347-80.148-95.207zm3.506 36.584c.525-.064 1.02.16 1.307.584l3.285 4.846c.154.228.232.49.232.765v33.172l2.113-.44c.319-.063.66-.015.946.15l3.591 2.032c.43.24.692.69.692 1.184v6.146l.63 1.623.702-.064c.59-.048 1.11.26 1.353.775l2.022 4.284 2.898-25.424c.043-.361.228-.695.52-.918a1.37 1.37 0 0 1 1.025-.27l8.752 1.246c.69.101 1.194.711 1.162 1.407l-.6 13.547 1.079 1.314c.302.371.387.883.223 1.334l-1.461 3.975 4.746 6.103 5.683 1.746c.001 0 .005 0 .006.002l3.032-9.64s-8.906-3.125-6.252-12.032c2.659-8.906 6.41-5.488 4.53 0-1.544 4.522 1.37 6.63 2.464 5.69 1.093-.94 3.322-20.85 3.322-20.85s.476-2.27 2.69-2.209c.316.009.667.064 1.058.182 3.126.934 2.188 4.215 2.188 4.215l-2.698 15.63c-.127.728.52 1.38 1.237 1.206.801-.197 1.768-1.025 2.4-3.551 1.247-5 4.532-2.187 4.373.154-.154 2.346 1.252 10.47-8.748 13.438l-4.219 13.35.362.392 2.277 1.14c.27.133.488.357.621.633l4.219 8.906c.318.68.03 1.49-.649 1.809a1.357 1.357 0 0 1-1.808-.64l-4.018-8.489-2.082-1.039a1.346 1.346 0 0 1-.392-.297l-5.063-5.51-5.744-1.767a1.382 1.382 0 0 1-.674-.463l-5.467-7.031a1.364 1.364 0 0 1-.207-1.307l1.455-3.959-.918-1.115a1.385 1.385 0 0 1-.302-.924l.533-12.057-3.623 2.112-1.06 3.05-1.329-2.988-1.234 6.131-2.147 18.81a1.358 1.358 0 0 1-2.578.43l-3.658-7.738-.77.074c-.637.048-1.173-.297-1.39-.865l-1.094-2.809a1.33 1.33 0 0 1-.096-.492v-5.615l-2.457-1.39-3.248.677a1.354 1.354 0 0 1-1.635-1.332V56.152l-1.093-1.115-.717-.064-.844.197-.95 3.986-1.968.266c-3.45-4.023.866 1.014 1.865 2.18.245.286.361.66.319 1.03l-1.56 14.378a1.38 1.38 0 0 1-.743 1.068l-6.969 3.48-2.49 8.801a1.384 1.384 0 0 1-.742.866 1.37 1.37 0 0 1-1.137 0l-4.06-1.88a1.263 1.263 0 0 1-.514-.413l-4.645-6.135-4.379-2.045a1.436 1.436 0 0 1-.478-.371l-3.094-3.795-7.111-.875a1.353 1.353 0 0 1-1.195-1.35v-3.004l-1.471-.365a1.355 1.355 0 0 1-1.024-1.433l.41-4.723-3.773 2.223-.664 8.365-1.99 9.299h-1.801l-.887 10.228c-.058.722-.68 1.258-1.412 1.242a1.36 1.36 0 0 1-1.295-1.359v-5.275l-1.629-1.875a528.29 528.29 0 0 0-.185 5.16 1.364 1.364 0 0 1-1.36 1.316h-1.421c-1.917 19.48-3.414 19.777-4.407 19.979-.276.053-.688.099-1.187.152-2.272.234-6.493.67-8.377 3.887-2.824 4.814-10.381 8.789-10.7 8.959a1.361 1.361 0 0 1-1.838-.578 1.362 1.362 0 0 1 .58-1.832c.043-.023 2.702-1.43 5.321-3.457v-.002L34.14 97.18c-6.72 1.406-8.28-5.94-9.846-10.785-1.56-4.841-.626-9.061 1.094-9.061 1.72 0 2.345 5.154 2.345 5.154 1.56 11.566 6.094 8.242 6.094 8.242l-3.44-23.867s-.467-5.467 2.346-5.94c.088-.014.175-.024.26-.028 2.65-.132 4.113 4.56 4.113 4.56l.94 21.252c5.467-1.247 2.187-14.998 5.154-14.998 2.973 0 3.752 3.746 3.752 3.746 3.126 14.379-5.44 17.611-5.44 17.611l6.72 25.987c.7-.723 1.315-1.48 1.767-2.25 2.585-4.406 7.887-4.954 10.44-5.219.175-.016.335-.031.478-.047.823-2.022 2.07-11.072 2.809-18.863a1.365 1.365 0 0 1 1.353-1.233h1.342c.462-13.927.88-14.621 1.088-14.966.302-.5.955-.796 1.517-.668 1.046.233 1.446.318 2.518 10.334l.1.115 1.146-13.264c.016-.202.08-.403.186-.578l1.216-2.021v-6.97c0-.695.52-1.275 1.215-1.349l8.746-.94c.404-.042.808.097 1.1.384.287.28.434.684.402 1.087l-.525 6.03 1.375.345c.605.154 1.03.694 1.03 1.32v2.862l6.46.791c.35.043.668.218.89.488l3.239 3.98 4.41 2.056c.202.095.372.233.51.414l4.633 6.13 2.314 1.067 2.225-7.846c.1-.366.355-.674.695-.844l6.842-3.418 1.416-13.056-3.365-3.928a1.357 1.357 0 0 1-.328-.887v-1.718c0-.749.605-1.36 1.359-1.36h1.598l-.637-1.338a1.388 1.388 0 0 1-.123-.44l-.313-2.966a1.36 1.36 0 0 1 1.172-1.492zM90.129 87.563l5.314 17.812s2.653-4.688 7.186-4.842c0 0 0 4.842-5 9.375l.154 7.97 3.127 7.034 1.719-3.752 6.094-3.281v1.408l-1.407 4.531-.62 5.5-1.721 4.813 1.093 5.467 1.953 9.847 5.08-16.72s-2.973-2.5-2.66-4.846c.314-2.346 1.721-3.44 1.721-3.44s1.247 5 3.906 2.034l-.78-5.313.78-.933-2.66-11.88 2.66.313 1.56 3.906.94-4.685 4.065-5.16.935-4.219 2.659 1.873-1.72 3.285-.472 7.346-3.748 7.654-2.967 11.88 6.873-6.722.47 5.5-6.722 7.782-3.125 6.877-.935 7.027.627.94 4.373-6.188.467 2.281-2.967 5.781-4.219 5.313-5 5.158.86 12.815-3.428-1.928-3.588-3.19-5.096 3.084s6.407-20.312 5-25.625c-1.406-5.313-5-7.347-5-7.347v-2.34s5.562 4.687 5.201.627c-.355-4.066-2.59-5.16-2.59-5.16l.668-5.907-5.154-2.379h-4.219l-3.127-3.906-2.658-1.094v-3.746h10.94l-.467-2.814-9.067-24.223ZM17.79 137.04h69.105a.68.68 0 1 1 0 1.357H17.791a.678.678 0 1 1 0-1.357zm109.482 0h67.545a.678.678 0 1 1 0 1.357h-67.545a.678.678 0 1 1 0-1.357zm52.875 9.432h14.055v.015h.016l-.016 8.125h-4.295v-3.869h-5.472v4.354h4.267v4.287h-4.267v4.258l.033 4.171h-.033v.016h-4.288v-.016h-.021l-1.557-4.171h1.578v-5.059l-1.578-1.576 1.578-1.576v-4.772h-1.578l1.557-4.172h.021zm-38.21.062v.022l.085.265v8.848l-1.507 1.486 1.507 1.475v9.13h-4.375l-1.539-4.134h1.672v-2.936l-1.267-1.273-4.274 2.936v1.335l.049 4.057-4.338.016-1.543-4.135H128v-4.809l-1.625-1.609 1.625-1.623v-4.809h-1.773l1.554-4.156zm-84.366.008h4.256v9.076l1.541 1.54-1.54 1.544v4.809h5.26v-4.024h4.257v8.276H57.54l-1.557-4.135h1.588v-4.894l-1.588-1.577 1.588-1.591v-4.858H55.8l1.556-4.135h.217zm16.99 0h.887v.008h10.938l3.42 3.42v5.412l1.539 1.541-1.54 1.54v5.88l-3.42 3.418h-11.84v-.086l-1.528-4.082h1.529v-5.13l-1.53-1.542 1.53-1.539v-4.691h-1.53l1.53-4.104v-.037h.016zm-55.216.065h14.023v.015h.053l-.031 4.139-9.772.117v12.68l.94.015h4.537v-4.373h-1.957v-4.25h6.23v.535l1.576 1.592-1.576 1.588v5.01l.053 4.156h-.053v.016h-4.273v-.016H23.02l-3.674.016v-.016l-1.555-4.156h1.555v-5.074l-1.524-1.524 1.524-1.523v-4.793H17.79l1.555-4.139zm18.832 0h.87v.015h12.616v-.015h.871l1.555 4.134h-1.555v4.862l1.588 1.591-1.588 1.577v8.992h-.637l-3.015.053h-6.99l-3.014-.053h-.701l-1.56-4.137h1.609v-4.857l-1.577-1.576 1.577-1.592v-4.862zm107.279 0h13.984v.015h.018v8.078h-4.268v-3.838h-5.482v4.336h4.256v4.258h-4.256v4.15h5.482v-3.831h4.268v8.072h-.018v.015h-13.984v-.015h-.201l-1.56-4.156h1.761v-4.973l-1.625-1.625 1.625-1.623v-4.692h-1.762l1.56-4.156h.202zm17.436 0h13.99v.015h.015v8.078h-4.271v-3.838h-5.479v4.336h4.252v4.258h-4.252v4.15h5.479v-3.831h4.271v8.072h-.015v.015h-13.99v-.015h-.202l-1.556-4.156h1.758v-4.973l-1.625-1.625 1.625-1.623v-4.692h-1.758l1.556-4.156h.202zm-30.653 4.171v6.2l5.541-3.791v-2.409zm-53.443.032v12.7h5.562l1.19-1.193V152l-1.19-1.19zm-30.518.066-5.797.002v12.68h5.797zm-30.488 23.52h69.105c.372 0 .68.3.68.677 0 .372-.308.68-.68.68H17.791a.681.681 0 0 1-.68-.68c0-.377.303-.677.68-.677zm109.482 0h67.545c.377 0 .68.3.68.677 0 .372-.303.68-.68.68h-67.545a.681.681 0 0 1-.68-.68c0-.377.304-.677.68-.677zm-69.85 7.892h10.83v.012h.013v.002l-.012 3.21v3.046h-3.3V185.592h-4.23V189.2l1.212 1.21h.002v.003l-1.213 1.2v3.839h4.228V192.473h3.301V195.518l.012 3.21v.001h-.012V198.755h-10.83V198.729h-.012v-.002l-1.201-3.209v-.002h1.213v-3.892l-1.213-1.213 1.213-1.211v-3.686H56.21v-.002l1.201-3.209v-.002h.012v-.01zm60.798.037h.685v.012h4.551v-.01l.94 3.21 1.021 3.57 1.52.865v.002l-.85 1.506 1.639 5.775v.002l.37 1.441v.002h-.939v.016h-3.289v-.031l-1.201-3.192v-.002h1.137l-.295-1.056h-4.645l-1.209 4.28v.001h-2.492v-.031l-1.195-3.192v-.002h1.183l1.135-3.998v-.002l-.861-1.517v-.002l1.531-.865 1.018-3.569h-.952v-.002l1.198-3.209zm12.418.012h3.271v.055l.067-.041v.002l4.974 9.41v-6.225h-1.224v-.002l1.199-3.183v-.002h.025v-.012h3.29v.002l-.014 3.183v3.776l1.25 1.236v.002h-.002l-1.249 1.252v6.898h-3.234l-.078.041v-.002l-5.004-9.476.012 9.422v.002h-.012v.013h-3.271v-.013h-.053v-.002l-1.201-3.192v-.002h1.254V191.791l-1.252-1.252-.002-.002 1.254-1.246v-3.752h-1.254v-.002l1.2-3.184v-.002h.054v-.011zm-44.903.018h3.285v.002l3.676 6.892 3.686-6.892v-.002h3.287v.008h.018v.002l1.197 3.195v.002H99.67v3.738l1.215 1.225v.002l-1.215 1.21V195.49h1.215v.002l-1.197 3.195v.002h-3.319v-.002l.014-9.314-3.674 6.545-3.688-6.563V198.688h-3.505v-.002l-1.202-3.195v-.002h1.422v-3.739l-1.224-1.222v-.002l1.224-1.237v-3.726h-1.422v-.002l1.202-3.195v-.002h.22v-.006zm60.217 0h2.631v.002l2.72 4.83 2.733-4.83v-.002h3.725v.002l-.645 1.193v.002l-1.123 1.996v-.01l-2.41 4.238v.002l.541.541h.002v.002l-1.201 1.186V198.69h-3.29v-.002l-1.196-3.182v-.002h1.214v-3.984l-1.214-1.198v-.002h.002l.554-.552v-.002l-2.373-4.227h-1.86v-.002l1.19-3.18zm-75.2.048h.67v.012h9.71v-.012h.67v.002l1.2 3.18v.002h-1.2v3.742l1.224 1.223h.002v.002l-1.226 1.213v6.92h-.49l-2.32.04h-5.376l-2.32-.04h-.543v-.002l-1.197-3.18v-.002h1.238v-3.738l-1.213-1.211v-.002l1.213-1.223V185.586l-.041-3.18zm33.169 0h10.236v.012h.055V182.442h.012v.002l-.012 3.183V189.444l-3.26 2.219-4.27 2.93V195.531l.014 3.168v.002h-3.289v-.002l-1.185-3.168v-.002h1.197v-3.715l-1.248-1.248-.002-.002 1.25-1.237v-3.699h-1.197v-.002l1.185-3.183v-.002h.012V182.416h.094zm2.762 3.278v4.77l4.27-2.93v-1.84zm-32.618.011v9.758h4.461v-9.758zm47.12.594-1.377 4.86h2.757zm-80.67 4.236h7.545c.376 0 .68.301.68.678 0 .372-.304.68-.68.68h-7.545a.681.681 0 0 1-.68-.68c0-.377.303-.678.68-.678zm121.82 0h7.545c.377 0 .68.301.68.678 0 .372-.303.68-.68.68h-7.545a.681.681 0 0 1-.68-.68c0-.377.303-.678.68-.678zM87.83 205.46c.8 0 1.7.146 2.697.436l-.345 2.3h-1.483l-.345-1.636h-1.278v.959l2.518 1.865c.375.272.65.596.83.97.179.375.27.803.27 1.28s-.064.855-.192 1.137c-.128.272-.29.485-.486.638-.188.154-.44.274-.754.36-.503.136-1.226.203-2.172.203-.946 0-1.961-.144-3.043-.434l.346-2.3h1.636l.395 1.634h1.42v-.957l-2.518-1.867a2.569 2.569 0 0 1-.832-.97 2.81 2.81 0 0 1-.267-1.227c0-.452.038-.797.115-1.036.085-.247.209-.448.37-.601.163-.162.337-.292.524-.395.188-.102.417-.179.69-.23.468-.085 1.103-.129 1.904-.129zm-10.889.205h6.467v2.734h-1.494l-.525-1.966h-1.137v3.015h2.441v.703h-2.441v2.862h1.137l.525-1.967h1.494v2.734h-6.467v-.486h.563v-7.143h-.563zm14.07 0h7.274v2.658H96.79l-.32-1.763h-.729l.281 2.146v4.588h1.075v.486H92.2v-.486h1.074v-4.588l.282-2.146h-.729l-.32 1.84h-1.496zm17.637.256c1.338 0 2.177.251 2.518.754.145.221.217.525.217.908 0 .375-.102.784-.307 1.227-.204.434-.536 1.005-.996 1.713l-1.572 2.414h.894l1.19-1.815h.78l.23 2.658h-6.045l-.192-.486 3.987-6.543h-1.022l-1.139 1.93h-1.06l-.217-2.377c1.005-.256 1.917-.383 2.734-.383zm14.57 0c1.338 0 2.178.251 2.518.754.145.221.217.525.217.908 0 .375-.102.784-.307 1.227-.204.434-.537 1.005-.998 1.713l-1.57 2.414h.895l1.187-1.815h.78l.23 2.658h-6.045l-.191-.486 3.986-6.543h-1.022l-1.136 1.93h-1.063l-.217-2.377c1.006-.256 1.919-.383 2.737-.383zm7.284 0c1.338 0 2.177.251 2.518.754.144.221.216.525.216.908 0 .375-.102.784-.306 1.227-.205.434-.536 1.005-.996 1.713l-1.573 2.414h.895l1.19-1.815h.779l.23 2.658h-6.045l-.191-.486 3.986-6.543h-1.021l-1.14 1.93h-1.06l-.216-2.377c1.005-.256 1.916-.383 2.734-.383zm-14.543.076c.29 0 .507.005.652.014.145 0 .344.02.6.062.264.034.468.092.613.168.145.077.31.19.498.344.188.153.334.338.436.55.238.546.357 1.214.357 2.007v1.609c0 .8-.135 1.471-.408 2.008-.187.358-.53.656-1.023.894-.299.145-.74.22-1.329.229-.161.009-.388.014-.677.014-.281 0-.494-.005-.639-.014-.145 0-.35-.02-.613-.063a1.83 1.83 0 0 1-.602-.166 3.145 3.145 0 0 1-.498-.345 1.464 1.464 0 0 1-.422-.55c-.247-.544-.37-1.215-.37-2.007v-1.61c0-.783.132-1.451.396-2.005.179-.358.524-.656 1.035-.895.298-.145.742-.222 1.33-.23.162-.01.383-.014.664-.014zm-.729.819-.652 6.3h1.904l.653-6.3zm-15.591 4.562c.502 0 .822.077.959.23.144.145.216.494.216 1.047 0 .546-.072.89-.216 1.036-.145.144-.468.216-.971.216-.503 0-.831-.072-.984-.216-.154-.145-.23-.494-.23-1.047 0-.554.076-.904.23-1.05.161-.144.493-.216.996-.216zm6.006 9.342 2.457 4.984 5.498.801-3.975 3.88.94 5.477-4.92-2.59-4.922 2.59.94-5.476-3.981-3.881 5.5-.8z" transform="scale(.75)"/></g></svg>