<?xml version="1.0" encoding="UTF-8" standalone="no"?>
<svg
   inkscape:version="1.1.1 (3bf5ae0d25, 2021-09-20, custom)"
   sodipodi:docname="Reef.svg"
   id="svg74"
   version="1.2"
   viewBox="0 0 158.74017 195.59055"
   height="69mm"
   width="56mm"
   xmlns:inkscape="http://www.inkscape.org/namespaces/inkscape"
   xmlns:sodipodi="http://sodipodi.sourceforge.net/DTD/sodipodi-0.dtd"
   xmlns:xlink="http://www.w3.org/1999/xlink"
   xmlns="http://www.w3.org/2000/svg"
   xmlns:svg="http://www.w3.org/2000/svg">
  <sodipodi:namedview
     id="namedview76"
     pagecolor="#ffffff"
     bordercolor="#666666"
     borderopacity="1.0"
     inkscape:pageshadow="2"
     inkscape:pageopacity="0.0"
     inkscape:pagecheckerboard="0"
     inkscape:document-units="pt"
     showgrid="false"
     borderlayer="true"
     inkscape:showpageshadow="false"
     showguides="false"
     inkscape:snap-global="true"
     inkscape:zoom="2.8284271"
     inkscape:cx="18.561553"
     inkscape:cy="147.60854"
     inkscape:window-width="2560"
     inkscape:window-height="1381"
     inkscape:window-x="0"
     inkscape:window-y="0"
     inkscape:window-maximized="1"
     inkscape:current-layer="layer2"
     fit-margin-top="0"
     fit-margin-left="0"
     fit-margin-right="0"
     fit-margin-bottom="0"
     units="mm"
     inkscape:lockguides="true" />
  <defs
     id="defs5">
    <linearGradient
       inkscape:collect="always"
       id="linearGradient39800">
      <stop
         style="stop-color:#ffcc00;stop-opacity:1;"
         offset="0"
         id="stop39796" />
      <stop
         style="stop-color:#ffe680;stop-opacity:1"
         offset="1"
         id="stop39798" />
    </linearGradient>
    <clipPath
       id="clip1">
      <path
         d="M 0,0 H 255.11719 V 198.42578 H 0 Z m 0,0"
         id="path2" />
    </clipPath>
    <linearGradient
       inkscape:collect="always"
       xlink:href="#linearGradient39800"
       id="linearGradient39802"
       x1="3.15802"
       y1="211.54591"
       x2="178.69501"
       y2="28.640846"
       gradientUnits="userSpaceOnUse" />
  </defs>
  <g
     inkscape:groupmode="layer"
     id="layer2"
     inkscape:label="F.Cu"
     style="display:inline"
     transform="translate(-49.898437,-4.4838867)">
    <path
       id="path20841"
       style="display:inline;fill:url(#linearGradient39802);fill-opacity:1;fill-rule:nonzero;stroke:none;stroke-width:1.30838"
       d="M 105.19922 0 C 47.10147 0 0.001953125 47.101492 0.001953125 105.19922 L 0.001953125 200.2793 C 0.001953125 206.4468 3.5879107 212.04742 9.1875 214.62695 L 97.660156 255.35156 C 100.05392 256.45556 102.62499 257.00781 105.19922 257.00781 C 107.77343 257.00781 110.34647 256.45556 112.74023 255.35156 L 201.20898 214.62695 C 206.80857 212.04742 210.39648 206.4468 210.39648 200.2793 L 210.39648 105.19922 C 210.39648 47.101492 163.29694 0 105.19922 0 z M 104.59375 5.71875 A 9.398819 9.398819 0 0 1 113.99219 15.117188 A 9.398819 9.398819 0 0 1 104.59375 24.517578 A 9.398819 9.398819 0 0 1 95.193359 15.117188 A 9.398819 9.398819 0 0 1 104.59375 5.71875 z M 32.994141 60.894531 C 35.64317 60.763158 37.105469 65.455078 37.105469 65.455078 L 38.044922 86.707031 C 43.511833 85.459727 40.232228 71.708984 43.199219 71.708984 C 46.171509 71.708984 46.951172 75.455078 46.951172 75.455078 C 50.077383 89.83355 41.511719 93.066406 41.511719 93.066406 L 48.230469 119.05273 L 48.154297 119.1543 C 47.571448 119.55528 46.955588 120.03931 46.341797 120.59375 C 46.110717 120.80248 45.892471 121.01119 45.681641 121.2207 L 34.138672 97.179688 C 27.419192 98.586225 25.858727 91.240433 24.292969 86.394531 C 22.732498 81.553938 23.667039 77.333984 25.386719 77.333984 C 27.106399 77.333984 27.732422 82.488281 27.732422 82.488281 C 29.292871 94.053685 33.826172 90.730469 33.826172 90.730469 L 30.386719 66.863281 C 30.386719 66.863281 29.919353 61.396208 32.732422 60.923828 C 32.820292 60.909228 32.908641 60.898731 32.994141 60.894531 z M 175.9043 68.246094 C 176.22046 68.254894 176.5721 68.310304 176.96289 68.427734 C 180.0891 69.361885 179.15039 72.642578 179.15039 72.642578 L 176.45312 88.273438 C 176.32579 89.000586 176.97293 89.653672 177.68945 89.478516 C 178.49093 89.282132 179.45824 88.454186 180.08984 85.927734 C 181.33716 80.927913 184.62213 83.74135 184.46289 86.082031 C 184.30897 88.428019 185.71448 96.552541 175.71484 99.519531 L 171.49609 112.86914 L 171.80859 113.20898 C 169.69946 111.86543 168.10029 108.88849 165.87109 107.21094 L 166.11523 107.28516 C 166.11623 107.28575 166.11814 107.28556 166.11914 107.28711 L 169.15039 97.646484 C 169.15039 97.646484 160.2446 94.521505 162.89844 85.615234 C 165.55756 76.708966 169.30861 80.127106 167.42969 85.615234 C 165.88514 90.137366 168.79919 92.244144 169.89258 91.304688 C 170.98594 90.365228 173.21484 70.455078 173.21484 70.455078 C 173.21484 70.455078 173.69111 68.18463 175.9043 68.246094 z M 87.830078 205.45898 C 88.630945 205.45898 89.53053 205.60485 90.527344 205.89453 L 90.181641 208.19531 L 88.699219 208.19531 L 88.353516 206.55859 L 87.076172 206.55859 L 87.076172 207.51758 L 89.59375 209.38281 C 89.968617 209.65544 90.244908 209.97865 90.423828 210.35352 C 90.602748 210.7284 90.693359 211.15569 90.693359 211.63281 C 90.693359 212.10992 90.629769 212.48837 90.501953 212.76953 C 90.37422 213.04216 90.211572 213.25484 90.015625 213.4082 C 89.828172 213.56156 89.576945 213.68238 89.261719 213.76758 C 88.759039 213.9039 88.03555 213.9707 87.089844 213.9707 C 86.144137 213.9707 85.128942 213.82679 84.046875 213.53711 L 84.392578 211.23633 L 86.029297 211.23633 L 86.423828 212.87109 L 87.84375 212.87109 L 87.84375 211.91406 L 85.326172 210.04688 C 84.951292 209.77424 84.673061 209.45104 84.494141 209.07617 C 84.315221 208.70129 84.226563 208.29265 84.226562 207.84961 C 84.226562 207.39806 84.265132 207.05301 84.341797 206.81445 C 84.426997 206.56737 84.551011 206.36624 84.712891 206.21289 C 84.874771 206.05101 85.048888 205.92057 85.236328 205.81836 C 85.423768 205.71609 85.653141 205.63901 85.925781 205.58789 C 86.394368 205.50269 87.029211 205.45898 87.830078 205.45898 z M 76.941406 205.66406 L 83.408203 205.66406 L 83.408203 208.39844 L 81.914062 208.39844 L 81.388672 206.43164 L 80.251953 206.43164 L 80.251953 209.44727 L 82.693359 209.44727 L 82.693359 210.15039 L 80.251953 210.15039 L 80.251953 213.01172 L 81.388672 213.01172 L 81.914062 211.04492 L 83.408203 211.04492 L 83.408203 213.7793 L 76.941406 213.7793 L 76.941406 213.29297 L 77.503906 213.29297 L 77.503906 206.15039 L 76.941406 206.15039 L 76.941406 205.66406 z M 91.011719 205.66406 L 98.285156 205.66406 L 98.285156 208.32227 L 96.789062 208.32227 L 96.46875 206.55859 L 95.740234 206.55859 L 96.021484 208.70508 L 96.021484 213.29297 L 97.095703 213.29297 L 97.095703 213.7793 L 92.201172 213.7793 L 92.201172 213.29297 L 93.275391 213.29297 L 93.275391 208.70508 L 93.556641 206.55859 L 92.828125 206.55859 L 92.507812 208.39844 L 91.011719 208.39844 L 91.011719 205.66406 z M 108.64844 205.91992 C 109.98605 205.91992 110.82522 206.17116 111.16602 206.67383 C 111.31084 206.89535 111.38281 207.19863 111.38281 207.58203 C 111.38281 207.9569 111.28068 208.36557 111.07617 208.80859 C 110.87169 209.2431 110.54014 209.81434 110.08008 210.52148 L 108.50781 212.93555 L 109.40234 212.93555 L 110.5918 211.12109 L 111.37109 211.12109 L 111.60156 213.7793 L 105.55664 213.7793 L 105.36523 213.29297 L 109.35156 206.75 L 108.33008 206.75 L 107.19141 208.67969 L 106.13086 208.67969 L 105.91406 206.30273 C 106.91941 206.04713 107.83052 205.91992 108.64844 205.91992 z M 123.21875 205.91992 C 124.55636 205.91992 125.39553 206.17116 125.73633 206.67383 C 125.88117 206.89535 125.95313 207.19863 125.95312 207.58203 C 125.9531 207.9569 125.85099 208.36557 125.64648 208.80859 C 125.442 209.2431 125.1085 209.81434 124.64844 210.52148 L 123.07812 212.93555 L 123.97266 212.93555 L 125.16016 211.12109 L 125.93945 211.12109 L 126.16992 213.7793 L 120.125 213.7793 L 119.93359 213.29297 L 123.91992 206.75 L 122.89844 206.75 L 121.76172 208.67969 L 120.69922 208.67969 L 120.48242 206.30273 C 121.48777 206.04713 122.40084 205.91992 123.21875 205.91992 z M 130.50195 205.91992 C 131.83957 205.91992 132.67874 206.17116 133.01953 206.67383 C 133.16437 206.89535 133.23633 207.19863 133.23633 207.58203 C 133.23633 207.9569 133.13419 208.36557 132.92969 208.80859 C 132.72521 209.2431 132.39367 209.81434 131.93359 210.52148 L 130.36133 212.93555 L 131.25586 212.93555 L 132.44531 211.12109 L 133.22461 211.12109 L 133.45508 213.7793 L 127.41016 213.7793 L 127.21875 213.29297 L 131.20508 206.75 L 130.18359 206.75 L 129.04492 208.67969 L 127.98438 208.67969 L 127.76758 206.30273 C 128.77292 206.04713 129.68405 205.91992 130.50195 205.91992 z M 115.95898 205.99609 C 116.24866 205.99609 116.46649 206.00107 116.61133 206.00977 C 116.75617 206.00977 116.95534 206.02957 117.21094 206.07227 C 117.47504 206.10637 117.67938 206.16357 117.82422 206.24023 C 117.96906 206.31693 118.13483 206.43062 118.32227 206.58398 C 118.50969 206.73734 118.65557 206.92177 118.75781 207.13477 C 118.99637 207.68005 119.11523 208.3483 119.11523 209.14062 L 119.11523 210.75 C 119.11523 211.55085 118.97967 212.22107 118.70703 212.75781 C 118.51959 213.11565 118.17775 213.41378 117.68359 213.65234 C 117.38541 213.79718 116.94334 213.87231 116.35547 213.88086 C 116.19359 213.88986 115.96741 213.89453 115.67773 213.89453 C 115.39659 213.89453 115.1839 213.88956 115.03906 213.88086 C 114.89422 213.88086 114.6899 213.86106 114.42578 213.81836 C 114.17018 213.78426 113.96906 213.72906 113.82422 213.65234 C 113.67938 213.57564 113.51361 213.45999 113.32617 213.30664 C 113.13873 213.15328 112.99802 212.97081 112.9043 212.75781 C 112.65722 212.21255 112.5332 211.54233 112.5332 210.75 L 112.5332 209.14062 C 112.5332 208.35682 112.66561 207.68857 112.92969 207.13477 C 113.10861 206.77694 113.45364 206.47879 113.96484 206.24023 C 114.26304 206.09539 114.70704 206.01829 115.29492 206.00977 C 115.4568 206.00077 115.67784 205.99609 115.95898 205.99609 z M 115.23047 206.81445 L 114.57812 213.11523 L 116.48242 213.11523 L 117.13477 206.81445 L 115.23047 206.81445 z M 99.638672 211.37695 C 100.14134 211.37695 100.46134 211.45405 100.59766 211.60742 C 100.74248 211.75226 100.81445 212.1005 100.81445 212.6543 C 100.81445 213.19956 100.74245 213.54461 100.59766 213.68945 C 100.45282 213.83429 100.12963 213.90625 99.626953 213.90625 C 99.124286 213.90625 98.795938 213.83425 98.642578 213.68945 C 98.489218 213.54461 98.412109 213.19638 98.412109 212.64258 C 98.412109 212.08878 98.489179 211.73859 98.642578 211.59375 C 98.804458 211.44891 99.136005 211.37695 99.638672 211.37695 z "
       transform="matrix(0.75,0,0,0.75,49.898437,4.4838867)" />
    <g
       id="g19797"
       style="display:inline;fill:#aad400;fill-opacity:1" />
    <path
       id="path22825"
       style="display:inline;fill:#d40000;fill-opacity:1;fill-rule:nonzero;stroke:none;stroke-width:1.30838"
       d="M 117.95898 8.2050781 C 119.04103 10.285683 119.71094 12.612846 119.71094 15.117188 C 119.71094 23.454979 112.93155 30.236328 104.59375 30.236328 C 96.255977 30.236328 89.474609 23.454979 89.474609 15.117188 C 89.474609 12.678427 90.110392 10.408177 91.140625 8.3691406 C 42.953562 15.2208 5.7734375 56.731445 5.7734375 106.78125 L 5.7734375 195.41211 C 5.7734375 201.66754 9.448942 207.40356 15.130859 210.02148 L 97.597656 247.99023 C 99.99787 249.09477 102.55279 249.65039 105.19727 249.65039 C 107.84175 249.65039 110.39666 249.09477 112.79688 247.99023 L 195.26953 210.02148 C 200.95144 207.40356 204.62109 201.67283 204.62109 195.41211 L 204.62109 106.78125 C 204.62109 56.285193 166.77175 14.491821 117.95898 8.2050781 z M 90.128906 87.5625 L 95.443359 105.375 C 95.443359 105.375 98.096152 100.68713 102.62891 100.5332 C 102.62891 100.5332 102.62873 105.37545 97.628906 109.9082 L 97.783203 117.87891 L 100.91016 124.91211 L 102.62891 121.16016 L 108.72266 117.87891 L 108.72266 119.28711 L 107.31641 123.81836 L 106.69531 129.31836 L 104.97461 134.13086 L 106.06836 139.59766 L 108.02148 149.44531 L 113.10156 132.72461 C 113.10156 132.72461 110.12826 130.22491 110.44141 127.87891 C 110.75457 125.53292 112.16211 124.43945 112.16211 124.43945 C 112.16211 124.43945 113.40921 129.43964 116.06836 126.47266 L 115.28711 121.16016 L 116.06836 120.22656 L 113.4082 108.34766 L 116.06836 108.66016 L 117.62891 112.56641 L 118.56836 107.88086 L 122.63281 102.7207 L 123.56836 98.501953 L 126.22656 100.375 L 124.50781 103.66016 L 124.03516 111.00586 L 120.28711 118.66016 L 117.32031 130.53906 L 124.19336 123.81836 L 124.66211 129.31836 L 117.94141 137.09961 L 114.81641 143.97656 L 113.88086 151.00391 L 114.50781 151.94336 L 118.88086 145.75586 L 119.34766 148.03711 L 116.38086 153.81836 L 112.16211 159.13086 L 107.16211 164.28906 L 108.02148 177.10352 L 104.59375 175.17578 L 101.00586 171.98633 L 95.910156 175.07031 C 95.910156 175.07031 102.31669 154.75829 100.91016 149.44531 C 99.503628 144.13234 95.910156 142.09766 95.910156 142.09766 L 95.910156 139.75781 C 95.910156 139.75781 101.47226 144.44513 101.11133 140.38477 C 100.75571 136.31909 98.521484 135.22461 98.521484 135.22461 L 99.189453 129.31836 L 94.035156 126.93945 L 89.816406 126.93945 L 86.689453 123.0332 L 84.03125 121.93945 L 84.03125 118.19336 L 94.970703 118.19336 L 94.503906 115.37891 L 85.4375 91.15625 L 90.128906 87.5625 z M 180.14844 146.47266 L 194.20312 146.47266 L 194.20312 146.48828 L 194.21875 146.48828 L 194.20312 154.61328 L 189.9082 154.61328 L 189.9082 150.74414 L 184.43555 150.74414 L 184.43555 155.09766 L 188.70312 155.09766 L 188.70312 159.38477 L 184.43555 159.38477 L 184.43555 163.64258 L 184.46875 167.81445 L 184.43555 167.81445 L 184.43555 167.83008 L 180.14844 167.83008 L 180.14844 167.81445 L 180.12695 167.81445 L 178.57031 163.64258 L 180.14844 163.64258 L 180.14844 158.58398 L 178.57031 157.00781 L 180.14844 155.43164 L 180.14844 150.66016 L 178.57031 150.66016 L 180.12695 146.48828 L 180.14844 146.48828 L 180.14844 146.47266 z M 141.9375 146.53516 L 141.9375 146.55664 L 142.02344 146.82227 L 142.02344 155.66992 L 140.51562 157.15625 L 142.02344 158.63086 L 142.02344 167.76172 L 137.64844 167.76172 L 136.10938 163.62695 L 137.78125 163.62695 L 137.78125 160.69141 L 136.51367 159.41797 L 132.24023 162.35352 L 132.24023 163.68945 L 132.28906 167.74609 L 127.95117 167.76172 L 126.4082 163.62695 L 128 163.62695 L 128 158.81836 L 126.375 157.20898 L 128 155.58594 L 128 150.77734 L 126.22656 150.77734 L 127.78125 146.62109 L 141.9375 146.53516 z M 57.572266 146.54102 L 61.828125 146.54102 L 61.828125 155.61719 L 63.369141 157.15625 L 61.828125 158.70117 L 61.828125 163.50977 L 67.089844 163.50977 L 67.089844 159.48633 L 71.345703 159.48633 L 71.345703 167.76172 L 57.541016 167.76172 L 55.984375 163.62695 L 57.572266 163.62695 L 57.572266 158.73242 L 55.984375 157.15625 L 57.572266 155.56445 L 57.572266 150.70703 L 55.798828 150.70703 L 57.355469 146.57227 L 57.572266 146.57227 L 57.572266 146.54102 z M 74.5625 146.54102 L 75.449219 146.54102 L 75.449219 146.55078 L 86.386719 146.55078 L 89.806641 149.9707 L 89.806641 155.38281 L 91.345703 156.92383 L 89.806641 158.46289 L 89.806641 164.34375 L 86.386719 167.76172 L 74.546875 167.76172 L 74.546875 167.67578 L 73.017578 163.59375 L 74.546875 163.59375 L 74.546875 158.46289 L 73.017578 156.92188 L 74.546875 155.38281 L 74.546875 150.69141 L 73.017578 150.69141 L 74.546875 146.58789 L 74.546875 146.55078 L 74.5625 146.55078 L 74.5625 146.54102 z M 19.345703 146.60547 L 33.369141 146.60547 L 33.369141 146.62109 L 33.421875 146.62109 L 33.390625 150.75977 L 23.619141 150.87695 L 23.619141 163.55664 L 24.558594 163.57227 L 29.095703 163.57227 L 29.095703 159.19922 L 27.138672 159.19922 L 27.138672 154.94922 L 33.369141 154.94922 L 33.369141 155.48438 L 34.945312 157.07617 L 33.369141 158.66406 L 33.369141 163.67383 L 33.421875 167.83008 L 33.369141 167.83008 L 33.369141 167.8457 L 29.095703 167.8457 L 29.095703 167.83008 L 23.019531 167.83008 L 19.345703 167.8457 L 19.345703 167.83008 L 17.791016 163.67383 L 19.345703 163.67383 L 19.345703 158.59961 L 17.822266 157.07617 L 19.345703 155.55273 L 19.345703 150.75977 L 17.791016 150.75977 L 19.345703 146.62109 L 19.345703 146.60547 z M 38.177734 146.60547 L 39.048828 146.60547 L 39.048828 146.62109 L 51.664062 146.62109 L 51.664062 146.60547 L 52.535156 146.60547 L 54.089844 150.74023 L 52.535156 150.74023 L 52.535156 155.60156 L 54.123047 157.19336 L 52.535156 158.76953 L 52.535156 167.76172 L 51.898438 167.76172 L 48.882812 167.81445 L 41.892578 167.81445 L 38.878906 167.76172 L 38.177734 167.76172 L 36.617188 163.62695 L 38.226562 163.62695 L 38.226562 158.76953 L 36.650391 157.19336 L 38.226562 155.60156 L 38.226562 150.74023 L 38.177734 146.60547 z M 145.45703 146.60547 L 159.44141 146.60547 L 159.44141 146.62109 L 159.45898 146.62109 L 159.45898 154.69922 L 155.19141 154.69922 L 155.19141 150.86133 L 149.70898 150.86133 L 149.70898 155.19727 L 153.96484 155.19727 L 153.96484 159.45508 L 149.70898 159.45508 L 149.70898 163.60547 L 155.19141 163.60547 L 155.19141 159.77344 L 159.45898 159.77344 L 159.45898 167.8457 L 159.44141 167.8457 L 159.44141 167.86133 L 145.45703 167.86133 L 145.45703 167.8457 L 145.25586 167.8457 L 143.69531 163.68945 L 145.45703 163.68945 L 145.45703 158.7168 L 143.83203 157.0918 L 145.45703 155.46875 L 145.45703 150.77734 L 143.69531 150.77734 L 145.25586 146.62109 L 145.45703 146.62109 L 145.45703 146.60547 z M 162.89258 146.60547 L 176.88281 146.60547 L 176.88281 146.62109 L 176.89844 146.62109 L 176.89844 154.69922 L 172.62695 154.69922 L 172.62695 150.86133 L 167.14844 150.86133 L 167.14844 155.19727 L 171.40039 155.19727 L 171.40039 159.45508 L 167.14844 159.45508 L 167.14844 163.60547 L 172.62695 163.60547 L 172.62695 159.77344 L 176.89844 159.77344 L 176.89844 167.8457 L 176.88281 167.8457 L 176.88281 167.86133 L 162.89258 167.86133 L 162.89258 167.8457 L 162.69141 167.8457 L 161.13477 163.68945 L 162.89258 163.68945 L 162.89258 158.7168 L 161.26758 157.0918 L 162.89258 155.46875 L 162.89258 150.77734 L 161.13477 150.77734 L 162.69141 146.62109 L 162.89258 146.62109 L 162.89258 146.60547 z M 132.24023 150.77734 L 132.24023 156.97656 L 137.78125 153.18555 L 137.78125 150.77734 L 132.24023 150.77734 z M 78.796875 150.80859 L 78.796875 163.50977 L 84.359375 163.50977 L 85.548828 162.31641 L 85.548828 151.99805 L 84.359375 150.80859 L 78.796875 150.80859 z M 42.482422 150.87695 L 42.482422 163.55664 L 48.279297 163.55664 L 48.279297 150.87695 L 42.482422 150.87695 z M 105.64453 220.71875 L 108.10156 225.70312 L 113.59961 226.50391 L 109.625 230.38477 L 110.56445 235.86133 L 105.64453 233.27148 L 100.72266 235.86133 L 101.66211 230.38477 L 97.681641 226.50391 L 103.18164 225.70312 L 105.64453 220.71875 z "
       transform="matrix(0.75,0,0,0.75,49.898437,4.4838867)" />
    <path
       id="path1159"
       style="display:inline;fill:#ffffff;fill-opacity:1;fill-rule:nonzero;stroke:none;stroke-width:1.30838"
       d="m 121.70703,11.583984 c 0.23523,1.1415 0.35938,2.322967 0.35938,3.533204 0,9.637093 -7.83555,17.474609 -17.47266,17.474609 -9.63707,0 -17.474609,-7.837515 -17.474609,-17.474609 0,-1.132911 0.111559,-2.239154 0.318359,-3.3125 C 42.60111,20.171146 8.5410156,59.561299 8.5410156,106.79102 v 88.58984 c 0,5.1962 3.0510154,9.95665 7.7695314,12.13281 l 82.433594,37.95117 c 4.076289,1.8736 8.837769,1.8736 12.914059,0 l 82.43164,-37.95117 c 4.71851,-2.17084 7.76563,-6.93138 7.76563,-12.13281 v -88.58984 c 0,-47.668134 -34.69251,-87.346965 -80.14844,-95.207036 z m 3.50586,36.583985 c 0.52548,-0.06368 1.02001,0.159369 1.30664,0.583984 l 3.28516,4.845703 c 0.15392,0.228228 0.23242,0.489625 0.23242,0.765625 v 33.171875 l 2.11328,-0.439453 c 0.31845,-0.06369 0.6587,-0.01609 0.94531,0.148438 l 3.5918,2.033203 c 0.42993,0.238847 0.69141,0.689981 0.69141,1.183594 v 6.146484 l 0.63086,1.623047 0.70117,-0.06445 c 0.58916,-0.0478 1.10938,0.26055 1.35351,0.77539 l 2.02149,4.283201 2.89844,-25.423826 c 0.0424,-0.360923 0.22761,-0.695045 0.51953,-0.917969 0.29192,-0.22292 0.66447,-0.322608 1.02539,-0.269531 l 8.75195,1.246094 c 0.69,0.100853 1.19395,0.710944 1.16211,1.40625 l -0.59961,13.546875 1.07813,1.314453 c 0.30251,0.37153 0.38718,0.882835 0.22265,1.333985 l -1.46094,3.974609 4.7461,6.10351 5.68359,1.7461 c 0.001,5.9e-4 0.005,6e-4 0.006,0.002 l 3.03125,-9.640623 c 0,0 -8.90579,-3.12498 -6.25195,-12.03125 2.65913,-8.906268 6.41017,-5.488128 4.53125,0 -1.54455,4.522132 1.3695,6.628911 2.46289,5.689454 1.09336,-0.939458 3.32226,-20.84961 3.32226,-20.84961 0,0 0.47627,-2.270448 2.68946,-2.208984 0.31616,0.0088 0.6678,0.06421 1.05859,0.18164 3.12621,0.934149 2.1875,4.214844 2.1875,4.214844 l -2.69727,15.63086 c -0.12737,0.727151 0.5198,1.380233 1.23633,1.205078 0.80147,-0.196384 1.76879,-1.02433 2.40039,-3.550782 1.24731,-4.999823 4.53229,-2.186384 4.37305,0.154297 -0.15392,2.345988 1.25158,10.47051 -8.74805,13.4375 l -4.21875,13.349606 0.36133,0.39258 2.27735,1.14062 c 0.27069,0.13269 0.4884,0.35682 0.62109,0.63282 l 4.21875,8.90625 c 0.31845,0.67938 0.0309,1.49013 -0.64844,1.80859 -0.67938,0.32376 -1.48483,0.0335 -1.80859,-0.64062 l -4.01758,-8.48829 -2.08203,-1.03906 c -0.1486,-0.0743 -0.2811,-0.17479 -0.39258,-0.29687 l -5.0625,-5.50977 -5.74414,-1.76758 c -0.26539,-0.0796 -0.49868,-0.24528 -0.67383,-0.46289 l -5.4668,-7.03125 c -0.29195,-0.37154 -0.36625,-0.866106 -0.20703,-1.306636 l 1.45508,-3.958984 -0.91797,-1.115235 c -0.207,-0.260092 -0.31864,-0.589445 -0.30273,-0.923828 l 0.5332,-12.05664 -3.62305,2.111328 -1.06054,3.050781 -1.32813,-2.988281 -1.23437,6.130859 -2.14649,18.810546 c -0.0691,0.60508 -0.52524,1.0886 -1.125,1.18945 -0.60508,0.0955 -1.19305,-0.21307 -1.45312,-0.75976 l -3.6582,-7.73829 -0.76954,0.0742 c -0.63692,0.0478 -1.17302,-0.29731 -1.39062,-0.86523 L 134.756,97.359408 c -0.0637,-0.15923 -0.0957,-0.327648 -0.0957,-0.492187 v -5.615235 l -2.45704,-1.390625 -3.24804,0.677734 c -0.39278,0.08492 -0.8163,-0.01531 -1.13477,-0.27539 -0.31313,-0.260076 -0.5,-0.647952 -0.5,-1.056641 v -33.05472 l -1.09375,-1.115235 -0.71679,-0.06445 -0.84375,0.197266 -0.94922,3.986328 -1.96875,0.265625 c -3.44975,-4.022498 0.866,1.013723 1.86523,2.179687 0.24415,0.286615 0.36081,0.659715 0.31836,1.03125 l -1.56055,14.376954 c -0.0531,0.45646 -0.33349,0.861359 -0.74218,1.068359 l -6.96875,3.480469 -2.49024,8.800781 c -0.11146,0.382152 -0.38127,0.695389 -0.74219,0.865234 -0.36092,0.164536 -0.77578,0.164536 -1.13671,0 l -4.06055,-1.878906 c -0.207,-0.09024 -0.38099,-0.233602 -0.51367,-0.414062 l -4.64453,-6.134766 -4.378911,-2.044922 c -0.18577,-0.09024 -0.351135,-0.217173 -0.478515,-0.371094 l -3.09375,-3.794921 -7.111328,-0.875 c -0.6847,-0.07961 -1.195313,-0.659614 -1.195313,-1.34961 V 71.357422 L 83.34375,70.992188 c -0.64752,-0.159229 -1.081817,-0.770136 -1.023438,-1.433594 l 0.410157,-4.722656 -3.773438,2.222656 -0.664062,8.365234 -1.990235,9.298828 h -1.800781 l -0.886719,10.228516 c -0.0584,0.72184 -0.679679,1.258107 -1.412109,1.242187 -0.72184,-0.0319 -1.294922,-0.632225 -1.294922,-1.359375 v -5.27539 l -1.628906,-1.875 c -0.0691,1.687839 -0.132517,3.451086 -0.185547,5.160156 -0.0265,0.732458 -0.626905,1.316406 -1.359375,1.316406 H 66.3125 c -1.91606,19.479144 -3.41371,19.776824 -4.40625,19.978514 -0.276,0.0531 -0.68858,0.0993 -1.1875,0.15235 -2.27168,0.23354 -6.492733,0.67026 -8.376953,3.88671 -2.82368,4.81405 -10.380759,8.78915 -10.699219,8.95899 -0.20169,0.1008 -0.419963,0.1543 -0.626953,0.1543 -0.49363,0 -0.966789,-0.26535 -1.210937,-0.73243 -0.345,-0.66345 -0.0834,-1.48703 0.580078,-1.83203 0.042,-0.0226 2.700792,-1.43049 5.320312,-3.45703 v -0.002 L 34.138672,97.179688 c -6.719485,1.40654 -8.279941,-5.939256 -9.845703,-10.785157 -1.560455,-4.840593 -0.625934,-9.060547 1.09375,-9.060547 1.719684,0 2.345703,5.154297 2.345703,5.154297 1.560453,11.565403 6.09375,8.242188 6.09375,8.242188 L 30.386719,66.863281 c 0,0 -0.46736,-5.467072 2.345703,-5.939453 0.08791,-0.0146 0.174302,-0.02506 0.259766,-0.0293 2.649022,-0.131373 4.113281,4.560547 4.113281,4.560547 l 0.939453,21.251953 c 5.4669,-1.247303 2.187307,-14.998047 5.154297,-14.998047 2.97229,0 3.751953,3.746094 3.751953,3.746094 3.12622,14.378472 -5.439453,17.611328 -5.439453,17.611328 l 6.71875,25.986327 c 0.70122,-0.72223 1.315918,-1.47912 1.767578,-2.25 2.58483,-4.40536 7.886463,-4.95337 10.439453,-5.21875 0.17515,-0.0159 0.335206,-0.031 0.478516,-0.0469 0.82268,-2.02222 2.070823,-11.07162 2.808593,-18.863285 0.069,-0.695304 0.652886,-1.232422 1.353516,-1.232422 h 1.341797 c 0.46177,-13.92732 0.880912,-14.621797 1.08789,-14.966797 0.30255,-0.49892 0.954979,-0.795352 1.517579,-0.667968 1.04561,0.233538 1.445418,0.318416 2.517578,10.333984 l 0.09961,0.115234 1.146484,-13.263671 c 0.0159,-0.201691 0.0795,-0.402973 0.185547,-0.578126 l 1.216797,-2.021484 v -6.96875 c 0,-0.695304 0.519554,-1.275302 1.214844,-1.349609 l 8.746094,-0.939453 c 0.40339,-0.04247 0.807689,0.09619 1.099609,0.382812 0.28663,0.281306 0.434184,0.684509 0.402344,1.087891 l -0.525391,6.029297 1.375,0.345703 c 0.60506,0.153924 1.029297,0.694008 1.029297,1.320312 v 2.861328 l 6.460938,0.791016 c 0.35028,0.04247 0.667705,0.21759 0.890625,0.488281 l 3.238281,3.980469 4.410152,2.054687 c 0.20168,0.09553 0.37176,0.233603 0.50977,0.414063 l 4.63281,6.130859 2.31445,1.066407 2.22461,-7.845703 c 0.1008,-0.366231 0.35561,-0.673906 0.69532,-0.84375 l 6.84179,-3.417969 1.41602,-13.056641 -3.36524,-3.927734 c -0.21229,-0.244153 -0.32812,-0.562951 -0.32812,-0.886719 v -1.71875 c 0,-0.74838 0.60568,-1.359375 1.35937,-1.359375 h 1.59766 l -0.63672,-1.337891 c -0.0637,-0.137999 -0.10718,-0.285529 -0.12304,-0.439453 l -0.3125,-2.966797 c -0.0796,-0.73246 0.43943,-1.391345 1.17187,-1.492187 z M 90.128906,87.5625 95.443359,105.375 c 0,0 2.652793,-4.68788 7.185551,-4.8418 0,0 -1.8e-4,4.84225 -5.000004,9.375 l 0.154297,7.97071 3.126957,7.0332 1.71875,-3.75195 6.09375,-3.28125 v 1.4082 l -1.40625,4.53125 -0.6211,5.5 -1.7207,4.8125 1.09375,5.4668 1.95312,9.84765 5.08008,-16.7207 c 0,0 -2.9733,-2.4997 -2.66015,-4.8457 0.31316,-2.34598 1.7207,-3.43946 1.7207,-3.43946 0,0 1.2471,5.0002 3.90625,2.03321 l -0.78125,-5.3125 0.78125,-0.9336 -2.66016,-11.8789 2.66016,0.3125 1.56055,3.90625 0.93945,-4.68555 4.06445,-5.16016 0.93555,-4.218747 2.6582,1.873047 -1.71875,3.28516 -0.47265,7.3457 -3.74805,7.6543 -2.9668,11.8789 6.87305,-6.7207 0.46875,5.5 -6.7207,7.78125 -3.125,6.87695 -0.93555,7.02735 0.62695,0.93945 4.37305,-6.1875 0.4668,2.28125 -2.9668,5.78125 -4.21875,5.3125 -5,5.1582 0.85937,12.81446 -3.42773,-1.92774 -3.58789,-3.18945 -5.095704,3.08398 c 0,0 6.406534,-20.31203 5.000004,-25.625 -1.406528,-5.31298 -5.000004,-7.34765 -5.000004,-7.34765 v -2.33985 c 0,0 5.562104,4.68732 5.201174,0.62696 -0.35562,-4.06568 -2.589846,-5.16012 -2.589846,-5.16016 l 0.667969,-5.90625 -5.154297,-2.37891 h -4.21875 l -3.126953,-3.90625 -2.658203,-1.09375 v -3.74609 H 94.970703 L 94.503906,115.37891 85.4375,91.15625 Z m -72.33789,49.47852 h 69.105468 c 0.37154,0 0.679688,0.30089 0.679688,0.67773 0,0.37684 -0.308148,0.67969 -0.679688,0.67969 H 17.791016 c -0.376846,0 -0.679688,-0.30285 -0.679688,-0.67969 0,-0.37684 0.302842,-0.67773 0.679688,-0.67773 z m 109.482424,0 h 67.54492 c 0.37685,0 0.67969,0.30089 0.67969,0.67773 0,0.37684 -0.30284,0.67969 -0.67969,0.67969 h -67.54492 c -0.37686,0 -0.67969,-0.30285 -0.67969,-0.67969 0,-0.37684 0.30283,-0.67773 0.67969,-0.67773 z m 52.875,9.43164 h 14.05468 v 0.0156 h 0.0156 l -0.0156,8.125 h -4.29492 v -3.86914 h -5.47265 v 4.35352 h 4.26757 v 4.28711 h -4.26757 v 4.25781 l 0.0332,4.17187 h -0.0332 v 0.0156 h -4.28711 v -0.0156 h -0.0215 l -1.55664,-4.17187 h 1.57813 v -5.0586 l -1.57813,-1.57617 1.57813,-1.57617 v -4.77148 h -1.57813 l 1.55664,-4.17188 h 0.0215 z m -38.21094,0.0625 v 0.0215 l 0.0859,0.26563 v 8.84765 l -1.50782,1.48633 1.50782,1.47461 v 9.13086 h -4.375 l -1.53906,-4.13477 h 1.67187 v -2.93554 l -1.26758,-1.27344 -4.27344,2.93555 v 1.33593 l 0.0488,4.05664 -4.33789,0.0156 -1.54297,-4.13477 H 128 v -4.80859 l -1.625,-1.60938 1.625,-1.62304 v -4.8086 h -1.77344 l 1.55469,-4.15625 z m -84.365234,0.008 h 4.255859 v 9.07617 l 1.541016,1.53906 -1.541016,1.54492 v 4.8086 h 5.261719 v -4.02344 h 4.255859 v 8.27539 H 57.541016 l -1.556641,-4.13476 h 1.587891 v -4.89453 l -1.587891,-1.57618 1.587891,-1.59179 v -4.85743 h -1.773438 l 1.556641,-4.13476 h 0.216797 z m 16.990234,0 h 0.886719 v 0.008 h 10.9375 l 3.419922,3.41992 v 5.41211 l 1.539062,1.54102 -1.539062,1.53906 v 5.88086 l -3.419922,3.41797 H 74.546875 v -0.0859 l -1.529297,-4.08203 h 1.529297 v -5.13086 l -1.529297,-1.54101 1.529297,-1.53907 v -4.6914 h -1.529297 l 1.529297,-4.10352 v -0.0371 h 0.01563 z m -55.216797,0.0644 h 14.023438 v 0.0156 h 0.05273 l -0.03125,4.13867 -9.771484,0.11719 v 12.67968 l 0.939453,0.0156 h 4.537109 v -4.37305 h -1.957031 v -4.25 h 6.230469 v 0.53516 l 1.576171,1.59179 -1.576171,1.5879 v 5.00976 l 0.05273,4.15625 h -0.05273 v 0.0156 h -4.273438 v -0.0156 h -6.076172 l -3.673828,0.0156 v -0.0156 l -1.554687,-4.15625 h 1.554687 v -5.07422 l -1.523437,-1.52344 1.523437,-1.52343 v -4.79297 h -1.554687 l 1.554687,-4.13867 z m 18.832031,0 h 0.871094 v 0.0156 h 12.615234 v -0.0156 h 0.871094 l 1.554688,4.13477 h -1.554688 v 4.86133 l 1.587891,1.59179 -1.587891,1.57617 v 8.99219 h -0.636718 l -3.015626,0.0527 h -6.990234 l -3.013672,-0.0527 h -0.701172 l -1.560546,-4.13672 h 1.609374 v -4.85742 l -1.576171,-1.57617 1.576171,-1.5918 v -4.86133 z m 107.279296,0 h 13.98438 v 0.0156 h 0.0176 v 8.07812 h -4.26757 v -3.83789 h -5.48243 v 4.33594 h 4.25586 v 4.25781 h -4.25586 v 4.15039 h 5.48243 v -3.83203 h 4.26757 v 8.07227 h -0.0176 v 0.0156 h -13.98438 v -0.0156 h -0.20117 l -1.56055,-4.15625 h 1.76172 v -4.97266 l -1.625,-1.625 1.625,-1.62305 v -4.6914 h -1.76172 l 1.56055,-4.15625 h 0.20117 z m 17.43555,0 h 13.99023 v 0.0156 h 0.0156 v 8.07812 h -4.27149 v -3.83789 h -5.47851 v 4.33594 h 4.25195 v 4.25781 h -4.25195 v 4.15039 h 5.47851 v -3.83203 h 4.27149 v 8.07227 h -0.0156 v 0.0156 h -13.99023 v -0.0156 h -0.20117 l -1.55664,-4.15625 h 1.75781 v -4.97266 l -1.625,-1.625 1.625,-1.62305 v -4.6914 h -1.75781 l 1.55664,-4.15625 h 0.20117 z m -30.65235,4.17188 v 6.19922 l 5.54102,-3.79102 v -2.4082 z m -53.443355,0.0312 v 12.70117 h 5.5625 l 1.189453,-1.19336 V 152 l -1.189453,-1.18945 z m -30.517578,0.0664 -5.796875,0.002 v 12.67968 h 5.796875 z m -30.488281,23.51953 h 69.105468 c 0.37154,0 0.679688,0.30089 0.679688,0.67774 0,0.37152 -0.308148,0.67969 -0.679688,0.67969 H 17.791016 c -0.376846,0 -0.679688,-0.30817 -0.679688,-0.67969 0,-0.37685 0.302842,-0.67774 0.679688,-0.67774 z m 109.482424,0 h 67.54492 c 0.37685,0 0.67969,0.30089 0.67969,0.67774 0,0.37152 -0.30284,0.67969 -0.67969,0.67969 h -67.54492 c -0.37686,0 -0.67969,-0.30817 -0.67969,-0.67969 0,-0.37685 0.30283,-0.67774 0.67969,-0.67774 z m -69.849612,7.89258 h 10.830078 v 0.002 0.01 h 0.01172 v 0.002 l -0.01172,3.20899 v 3.04492 0.002 h -3.300781 v -0.002 -2.96484 h -4.228516 v 3.60547 0.002 l 1.210938,1.21094 h 0.002 v 0.002 l -1.212891,1.20117 v 3.83789 h 4.228516 v -2.97656 -0.002 h 3.300781 v 0.002 3.04101 0.002 l 0.01172,3.20898 v 0.002 h -0.01172 v 0.0234 0.002 H 57.423828 v -0.002 -0.0234 h -0.01172 v -0.002 l -1.201171,-3.20898 v -0.002 h 1.21289 v -3.89062 -0.002 l -1.21289,-1.21289 1.21289,-1.21094 v -0.002 -3.6836 h -1.21289 v -0.002 l 1.201171,-3.20899 v -0.002 h 0.01172 v -0.01 z m 60.796872,0.0371 h 0.68555 v 0.002 0.01 h 4.55078 v -0.01 l 0.93945,3.20899 1.02149,3.57031 1.51953,0.86524 v 0.002 l -0.84961,1.50586 1.63867,5.77539 v 0.002 l 0.3711,1.44141 v 0.002 h -0.93946 v 0.0137 0.002 h -3.28906 v -0.002 -0.0273 -0.002 l -1.20117,-3.19141 v -0.002 h 1.13672 l -0.29492,-1.05664 h -4.64454 l -1.20898,4.27929 v 0.002 h -2.49219 v -0.002 -0.0273 -0.002 l -1.19531,-3.19141 v -0.002 h 1.18359 l 1.13477,-3.99805 v -0.002 l -0.86133,-1.51758 v -0.002 l 1.53125,-0.86524 1.01758,-3.56836 h -0.95117 v -0.002 l 1.19726,-3.20899 z m 12.41797,0.0117 h 3.27149 v 0.002 0.0527 l 0.0664,-0.041 v 0.002 l 4.97461,9.41015 v -6.22461 h -1.22461 v -0.002 l 1.19922,-3.18359 v -0.002 h 0.0254 v -0.01 -0.002 h 3.28906 v 0.002 l -0.0137,3.18359 v 0.002 3.77344 l 1.25,1.23633 v 0.002 h -0.002 l -1.24805,1.25196 v 0.002 6.89453 0.002 h -3.23437 l -0.0781,0.041 v -0.002 l -5.0039,-9.47657 0.0117,9.42188 v 0.002 h -0.0117 v 0.0117 0.002 h -3.27149 v -0.002 -0.0117 h -0.0527 v -0.002 l -1.20117,-3.19141 v -0.002 h 1.2539 v -3.6875 -0.002 l -1.25195,-1.25196 -0.002,-0.002 1.2539,-1.24609 v -3.75196 h -1.2539 v -0.002 l 1.20117,-3.18359 v -0.002 h 0.0527 v -0.0117 z m -44.902342,0.0176 h 3.285156 v 0.002 l 3.675782,6.89258 3.685546,-6.89258 v -0.002 h 3.28711 v 0.002 0.006 h 0.01758 v 0.002 l 1.197268,3.19532 v 0.002 h -1.214846 v 3.73633 0.002 l 1.214846,1.22461 v 0.002 l -1.214846,1.21094 v 0.002 3.74805 h 1.214846 v 0.002 l -1.197268,3.19532 v 0.002 h -3.318359 v -0.002 l 0.01367,-9.31446 -3.673828,6.54493 -3.6875,-6.5625 v 9.33203 0.002 h -3.505859 v -0.002 l -1.201172,-3.19532 v -0.002 h 1.421875 v -3.73633 -0.002 l -1.224609,-1.22266 v -0.002 l 1.224609,-1.23633 v -0.002 -3.72461 h -1.421875 v -0.002 l 1.201172,-3.19532 v -0.002 h 0.220703 v -0.006 z m 60.216792,0 h 2.63086 v 0.002 l 2.72071,4.83008 2.73242,-4.83008 v -0.002 h 3.72461 v 0.002 l -0.64453,1.19336 v 0.002 l -1.12305,1.9961 v -0.01 l -2.41016,4.23828 v 0.002 l 0.54102,0.54101 h 0.002 v 0.002 l -1.20117,1.18554 v 7.17969 0.002 h -3.28906 v -0.002 l -1.19727,-3.18164 v -0.002 h 1.21485 v -3.98438 l -1.21485,-1.19726 v -0.002 h 0.002 l 0.55468,-0.55273 v -0.002 l -2.37304,-4.22656 h -1.85938 v -0.002 l 1.18945,-3.17969 z m -75.199214,0.0488 h 0.669922 v 0.002 0.01 h 9.708984 v -0.01 -0.002 h 0.669922 v 0.002 l 1.201172,3.17969 v 0.002 h -1.201172 v 3.74023 0.002 l 1.22461,1.22265 h 0.002 v 0.002 l -1.226563,1.21289 v 6.91797 0.002 H 81.3125 l -2.320312,0.041 h -5.375 l -2.320313,-0.041 h -0.542969 v -0.002 l -1.197265,-3.17969 v -0.002 h 1.238281 v -3.73633 -0.002 l -1.212891,-1.21093 v -0.002 l 1.212891,-1.22265 v -0.002 -3.74023 -0.002 l -0.04102,-3.17969 z m 33.167974,0 h 10.23632 v 0.002 0.01 h 0.0547 v 0.002 0.0234 h 0.0117 v 0.002 l -0.0117,3.18359 v 3.81446 0.002 l -3.25977,2.21875 -4.26953,2.92969 v 0.9375 0.002 l 0.0137,3.16797 v 0.002 h -3.28907 v -0.002 l -1.18554,-3.16797 v -0.002 h 1.19726 v -3.71289 -0.002 l -1.24804,-1.24804 -0.002,-0.002 1.25,-1.23633 v -3.69921 h -1.19726 v -0.002 l 1.18554,-3.18359 v -0.002 h 0.0117 v -0.0234 -0.002 h 0.0937 z m 2.76171,3.27734 v 4.76953 l 4.26953,-2.92969 v -1.83984 z m -32.617184,0.0117 v 9.75781 h 4.460938 v -9.75781 z m 47.119144,0.59375 -1.37696,4.85937 h 2.75782 z m -80.669925,4.23633 h 7.544922 c 0.37684,0 0.679687,0.30088 0.679687,0.67773 0,0.37152 -0.302847,0.67969 -0.679687,0.67969 h -7.544922 c -0.376867,0 -0.679687,-0.30817 -0.679687,-0.67969 0,-0.37685 0.30282,-0.67773 0.679687,-0.67773 z m 121.820315,0 h 7.54492 c 0.37684,0 0.67969,0.30088 0.67969,0.67773 0,0.37152 -0.30285,0.67969 -0.67969,0.67969 h -7.54492 c -0.37687,0 -0.67969,-0.30817 -0.67969,-0.67969 0,-0.37685 0.30282,-0.67773 0.67969,-0.67773 z m -74.505862,14.93554 c 0.80087,0 1.700446,0.14587 2.697266,0.43555 l -0.345703,2.30078 h -1.482422 l -0.345703,-1.63672 h -1.277344 v 0.95899 l 2.517578,1.86523 c 0.37487,0.27263 0.651158,0.59584 0.830078,0.97071 0.17892,0.37488 0.269531,0.80218 0.269531,1.27929 0,0.47711 -0.0636,0.85556 -0.191406,1.13672 -0.1278,0.27263 -0.290378,0.48531 -0.486328,0.63867 -0.18745,0.15336 -0.438676,0.27418 -0.753906,0.35938 -0.50267,0.13632 -1.226165,0.20312 -2.171875,0.20312 -0.9457,0 -1.960909,-0.14391 -3.042969,-0.43359 l 0.345703,-2.30078 h 1.636719 l 0.394531,1.63476 h 1.419922 v -0.95703 l -2.517578,-1.86718 c -0.37487,-0.27264 -0.653111,-0.59584 -0.832031,-0.97071 -0.17892,-0.37488 -0.267578,-0.78351 -0.267579,-1.22656 0,-0.45154 0.0386,-0.7966 0.115235,-1.03516 0.0852,-0.24708 0.209214,-0.44821 0.371094,-0.60156 0.16188,-0.16188 0.335997,-0.29231 0.523437,-0.39453 0.18744,-0.10224 0.416823,-0.17935 0.689453,-0.23047 0.46859,-0.0852 1.103427,-0.12891 1.904297,-0.12891 z m -10.888672,0.20508 h 6.466797 v 2.73438 h -1.494141 l -0.52539,-1.9668 h -1.136719 v 3.01563 h 2.441406 v 0.70312 h -2.441406 v 2.86133 h 1.136719 l 0.52539,-1.9668 h 1.494141 v 2.73438 H 76.941406 V 213.293 h 0.5625 v -7.14258 h -0.5625 z m 14.070313,0 h 7.273437 v 2.65821 h -1.496094 l -0.320312,-1.76368 h -0.728516 l 0.28125,2.14649 v 4.58789 h 1.074219 v 0.48633 H 92.201172 V 213.293 h 1.074219 v -4.58789 l 0.28125,-2.14649 h -0.728516 l -0.320313,1.83985 h -1.496093 z m 17.636721,0.25586 c 1.33762,0 2.17678,0.25124 2.51758,0.75391 0.14483,0.22152 0.21679,0.5248 0.21679,0.9082 0,0.37487 -0.10216,0.78353 -0.30664,1.22656 -0.20448,0.43451 -0.53602,1.00574 -0.99609,1.71289 l -1.57227,2.41407 h 0.89453 l 1.18946,-1.81446 h 0.77929 l 0.23047,2.65821 h -6.04492 l -0.19141,-0.48633 3.98633,-6.54297 h -1.02148 l -1.13867,1.92969 h -1.06055 l -0.2168,-2.37696 c 1.00535,-0.2556 1.91647,-0.38281 2.73438,-0.38281 z m 14.57031,0 c 1.33762,0 2.17678,0.25124 2.51758,0.75391 0.14484,0.22152 0.21679,0.5248 0.21679,0.9082 -2e-5,0.37487 -0.10216,0.78353 -0.30664,1.22656 -0.20447,0.43451 -0.53797,1.00574 -0.99804,1.71289 l -1.57032,2.41407 h 0.89454 l 1.1875,-1.81446 h 0.77929 l 0.23047,2.65821 H 120.125 l -0.19141,-0.48633 3.98633,-6.54297 h -1.02148 l -1.13672,1.92969 h -1.0625 l -0.2168,-2.37696 c 1.00535,-0.2556 1.91842,-0.38281 2.73633,-0.38281 z m 7.2832,0 c 1.33762,0 2.17679,0.25124 2.51758,0.75391 0.14484,0.22152 0.2168,0.5248 0.2168,0.9082 0,0.37487 -0.10217,0.78353 -0.30664,1.22656 -0.20448,0.43451 -0.53602,1.00574 -0.9961,1.71289 l -1.57226,2.41407 h 0.89453 l 1.18945,-1.81446 h 0.7793 l 0.23047,2.65821 h -6.04492 l -0.19141,-0.48633 3.98633,-6.54297 h -1.02149 l -1.13867,1.92969 h -1.06054 l -0.2168,-2.37696 c 1.00534,-0.2556 1.91647,-0.38281 2.73437,-0.38281 z m -14.54297,0.0762 c 0.28968,0 0.50751,0.005 0.65235,0.0137 0.14484,0 0.34401,0.0199 0.59961,0.0625 0.26411,0.0341 0.46844,0.0913 0.61328,0.16796 0.14484,0.0767 0.31061,0.19039 0.49805,0.34375 0.18743,0.15336 0.3333,0.33779 0.43554,0.55079 0.23856,0.54527 0.35742,1.21351 0.35742,2.00585 v 1.6093 c 0,0.80086 -0.13556,1.47106 -0.4082,2.00781 -0.18744,0.35783 -0.52928,0.65597 -1.02344,0.89453 -0.29819,0.14484 -0.74025,0.21997 -1.32812,0.22852 -0.16188,0.009 -0.38806,0.0137 -0.67774,0.0137 -0.28115,0 -0.49383,-0.005 -0.63867,-0.0137 -0.14484,0 -0.34916,-0.0199 -0.61328,-0.0625 -0.2556,-0.0341 -0.45672,-0.0893 -0.60156,-0.16602 -0.14484,-0.0767 -0.31061,-0.19235 -0.49805,-0.3457 -0.18744,-0.15336 -0.32815,-0.33583 -0.42187,-0.54883 -0.24708,-0.54527 -0.3711,-1.21547 -0.3711,-2.00781 v -1.60938 c 0,-0.78381 0.13237,-1.45206 0.39649,-2.00585 0.17891,-0.35783 0.52396,-0.65598 1.03515,-0.89454 0.2982,-0.14484 0.74221,-0.22194 1.33008,-0.23046 0.16188,-0.009 0.38291,-0.0137 0.66406,-0.0137 z m -0.72851,0.81836 -0.65235,6.30078 h 1.9043 l 0.65235,-6.30078 z m -15.591798,4.5625 c 0.502668,0 0.822668,0.0771 0.958988,0.23047 0.14483,0.14484 0.21679,0.49309 0.21679,1.04688 0,0.54527 -0.072,0.89031 -0.21679,1.03515 -0.14484,0.14484 -0.46803,0.2168 -0.970707,0.2168 -0.50267,0 -0.831015,-0.072 -0.984375,-0.2168 -0.15336,-0.14484 -0.230469,-0.49307 -0.230469,-1.04687 0,-0.55379 0.0771,-0.904 0.230469,-1.04883 0.16188,-0.14484 0.493424,-0.2168 0.996094,-0.2168 z m 6.005858,9.3418 2.45703,4.98437 5.49805,0.80079 -3.97461,3.88086 0.93945,5.47656 -4.91992,-2.58985 -4.92187,2.58985 0.93945,-5.47656 -3.980469,-3.88086 5.499999,-0.80079 z"
       transform="matrix(0.75,0,0,0.75,49.898437,4.4838867)" />
  </g>
</svg>
