<svg width="56" height="69" viewBox="0 0 56 69" fill="none" xmlns="http://www.w3.org/2000/svg">
<g clip-path="url(#clip0_152_101)">
<path d="M27.8339 0C12.4622 0 0.000488281 12.4623 0.000488281 27.834V52.9906C0.000488281 54.6224 0.949273 56.1042 2.43083 56.7867L25.8392 67.5618C26.4726 67.8539 27.1528 68 27.8339 68C28.515 68 29.1958 67.8539 29.8292 67.5618L53.2365 56.7867C54.7181 56.1042 55.6674 54.6224 55.6674 52.9906V27.834C55.6674 12.4623 43.2056 0 27.8339 0ZM27.6737 1.51309C28.3332 1.51311 28.9657 1.77511 29.432 2.24144C29.8984 2.70778 30.1604 3.34026 30.1604 3.99976C30.1605 4.32635 30.0962 4.64976 29.9712 4.95151C29.8463 5.25326 29.6631 5.52744 29.4322 5.7584C29.2013 5.98936 28.9272 6.17258 28.6254 6.29758C28.3237 6.42258 28.0003 6.48693 27.6737 6.48694C27.3471 6.487 27.0236 6.4227 26.7219 6.29773C26.4201 6.17275 26.1459 5.98955 25.9149 5.75858C25.6839 5.52762 25.5007 5.25341 25.3758 4.95163C25.2508 4.64984 25.1865 4.32639 25.1865 3.99976C25.1866 3.67316 25.2509 3.34977 25.3759 3.04804C25.5009 2.74632 25.6841 2.47217 25.9151 2.24126C26.146 2.01035 26.4202 1.82719 26.722 1.70225C27.0237 1.57731 27.3471 1.51303 27.6737 1.51309V1.51309ZM8.72967 16.1117C9.43056 16.0769 9.81746 17.3183 9.81746 17.3183L10.066 22.9412C11.5125 22.6112 10.6447 18.973 11.4298 18.973C12.2162 18.973 12.4225 19.9642 12.4225 19.9642C13.2496 23.7685 10.9833 24.6238 10.9833 24.6238L12.7609 31.4994L12.7408 31.5262C12.5866 31.6323 12.4236 31.7604 12.2612 31.9071C12.2001 31.9623 12.1424 32.0175 12.0866 32.073L9.03249 25.7121C7.25463 26.0843 6.84176 24.1407 6.42749 22.8586C6.01461 21.5778 6.26188 20.4613 6.71687 20.4613C7.17187 20.4613 7.33751 21.825 7.33751 21.825C7.75038 24.885 8.94981 24.0058 8.94981 24.0058L8.03979 17.6909C8.03979 17.6909 7.91613 16.2444 8.66042 16.1194C8.68367 16.1156 8.70705 16.1128 8.72967 16.1117ZM46.5413 18.0568C46.625 18.0591 46.718 18.0738 46.8214 18.1048C47.6485 18.352 47.4002 19.22 47.4002 19.22L46.6865 23.3557C46.6528 23.5481 46.8241 23.7209 47.0136 23.6745C47.2257 23.6226 47.4816 23.4035 47.6487 22.735C47.9788 21.4122 48.8479 22.1566 48.8058 22.7759C48.7651 23.3966 49.1369 25.5462 46.4912 26.3312L45.375 29.8633L45.4577 29.9532C44.8996 29.5977 44.4765 28.8101 43.8867 28.3662L43.9513 28.3859C43.9516 28.386 43.9521 28.386 43.9523 28.3864L44.7543 25.8356C44.7543 25.8356 42.398 25.0088 43.1002 22.6524C43.8037 20.2959 44.7962 21.2003 44.2991 22.6524C43.8904 23.8488 44.6614 24.4063 44.9507 24.1577C45.24 23.9091 45.8297 18.6412 45.8297 18.6412C45.8297 18.6412 45.9557 18.0405 46.5413 18.0568ZM23.2383 54.361C23.4502 54.361 23.6883 54.3996 23.952 54.4763L23.8605 55.085H23.4683L23.3768 54.652H23.0389V54.9057L23.705 55.3992C23.8042 55.4713 23.8773 55.5568 23.9246 55.656C23.9719 55.7552 23.9959 55.8683 23.9959 55.9945C23.9959 56.1207 23.9791 56.2209 23.9453 56.2953C23.9115 56.3674 23.8684 56.4237 23.8166 56.4643C23.767 56.5048 23.7005 56.5368 23.6171 56.5593C23.4841 56.5954 23.2927 56.6131 23.0425 56.6131C22.7923 56.6131 22.5237 56.575 22.2374 56.4984L22.3288 55.8896H22.7619L22.8663 56.3221H23.242V56.0689L22.5759 55.5749C22.4767 55.5028 22.4031 55.4173 22.3557 55.3181C22.3084 55.2189 22.2849 55.1108 22.2849 54.9935C22.2849 54.8741 22.2951 54.7828 22.3154 54.7197C22.3379 54.6543 22.3708 54.6011 22.4136 54.5605C22.4564 54.5177 22.5025 54.4831 22.5521 54.4561C22.6017 54.429 22.6624 54.4087 22.7345 54.3951C22.8585 54.3726 23.0264 54.361 23.2383 54.361ZM20.3574 54.4153H22.0684V55.1388H21.6731L21.5341 54.6184H21.2333V55.4163H21.8793V55.6023H21.2333V56.3593H21.5341L21.6731 55.839H22.0684V56.5624H20.3574V56.4338H20.5062V54.544H20.3574V54.4153ZM24.0802 54.4153H26.0046V55.1186H25.6087L25.524 54.652H25.3312L25.4057 55.2199V56.4338H25.6899V56.5624H24.3949V56.4338H24.6791V55.2199L24.7535 54.652H24.5607L24.476 55.1388H24.0802V54.4153ZM28.7465 54.483C29.1004 54.483 29.3225 54.5494 29.4126 54.6824C29.451 54.7411 29.47 54.8213 29.47 54.9227C29.47 55.0219 29.443 55.1301 29.3889 55.2473C29.3348 55.3622 29.247 55.5134 29.1253 55.7005L28.7093 56.3392H28.946L29.2607 55.8591H29.4669L29.5279 56.5624H27.9285L27.8779 56.4338L28.9326 54.7026H28.6623L28.361 55.2132H28.0804L28.0231 54.5843C28.2891 54.5166 28.5301 54.483 28.7465 54.483ZM32.6016 54.483C32.9555 54.483 33.1775 54.5494 33.2677 54.6824C33.306 54.7411 33.3251 54.8213 33.3251 54.9227C33.3251 55.0219 33.298 55.1301 33.2439 55.2473C33.1898 55.3622 33.1016 55.5134 32.9799 55.7005L32.5644 56.3392H32.8011L33.1153 55.8591H33.3215L33.3824 56.5624H31.783L31.7324 56.4338L32.7871 54.7026H32.5168L32.2161 55.2132H31.935L31.8776 54.5843C32.1436 54.5166 32.3852 54.483 32.6016 54.483ZM34.5286 54.483C34.8825 54.483 35.1046 54.5494 35.1947 54.6824C35.233 54.7411 35.2521 54.8213 35.2521 54.9227C35.2521 55.0219 35.2251 55.1301 35.1709 55.2473C35.1168 55.3622 35.0291 55.5134 34.9074 55.7005L34.4914 56.3392H34.7281L35.0428 55.8591H35.249L35.31 56.5624H33.7106L33.6599 56.4338L34.7146 54.7026H34.4444L34.1431 55.2132H33.8625L33.8051 54.5843C34.0711 54.5166 34.3122 54.483 34.5286 54.483ZM30.6808 54.5031C30.7574 54.5031 30.8151 54.5044 30.8534 54.5067C30.8917 54.5067 30.9444 54.512 31.012 54.5233C31.0819 54.5323 31.136 54.5474 31.1743 54.5677C31.2126 54.588 31.2565 54.6181 31.3061 54.6587C31.3557 54.6993 31.3943 54.748 31.4213 54.8044C31.4844 54.9487 31.5159 55.1255 31.5159 55.3351V55.7609C31.5159 55.9728 31.48 56.1502 31.4079 56.2922C31.3583 56.3868 31.2678 56.4657 31.1371 56.5288C31.0582 56.5672 30.9412 56.587 30.7857 56.5893C30.7429 56.5917 30.683 56.5929 30.6064 56.5929C30.532 56.5929 30.4757 56.5916 30.4374 56.5893C30.3991 56.5893 30.345 56.5841 30.2751 56.5728C30.2075 56.5637 30.1543 56.5491 30.116 56.5288C30.0776 56.5086 30.0338 56.478 29.9842 56.4374C29.9346 56.3968 29.8974 56.3485 29.8726 56.2922C29.8072 56.1479 29.7744 55.9706 29.7744 55.7609V55.3351C29.7744 55.1277 29.8094 54.9509 29.8793 54.8044C29.9266 54.7097 30.0179 54.6308 30.1532 54.5677C30.2321 54.5294 30.3495 54.509 30.5051 54.5067C30.5479 54.5044 30.6064 54.5031 30.6808 54.5031ZM30.488 54.7197L30.3154 56.3867H30.8193L30.9919 54.7197H30.488ZM26.3627 55.9268C26.4957 55.9268 26.5804 55.9472 26.6164 55.9878C26.6548 56.0261 26.6738 56.1183 26.6738 56.2648C26.6738 56.409 26.6547 56.5003 26.6164 56.5387C26.5781 56.577 26.4926 56.596 26.3596 56.596C26.2266 56.596 26.1397 56.577 26.0992 56.5387C26.0586 56.5003 26.0382 56.4082 26.0382 56.2617C26.0382 56.1152 26.0586 56.0225 26.0992 55.9842C26.142 55.9459 26.2297 55.9268 26.3627 55.9268Z" fill="url(#paint0_linear_152_101)"/>
<path d="M31.21 2.17093C31.4963 2.72142 31.6735 3.33715 31.6735 3.99976C31.6735 6.2058 29.8798 8.00003 27.6738 8.00003C25.4678 8.00003 23.6735 6.2058 23.6735 3.99976C23.6735 3.3545 23.8417 2.75383 24.1143 2.21434C11.3648 4.02717 1.52759 15.0102 1.52759 28.2525V51.7028C1.52759 53.3579 2.50007 54.8755 4.00341 55.5682L25.8227 65.6141C26.4578 65.9063 27.1338 66.0533 27.8335 66.0533C28.5332 66.0533 29.2091 65.9063 29.8442 65.6141L51.6651 55.5682C53.1684 54.8755 54.1394 53.3593 54.1394 51.7028V28.2525C54.1394 14.8921 44.1251 3.8343 31.21 2.17093ZM23.8466 23.1676L25.2528 27.8805C25.2528 27.8805 25.9546 26.6401 27.1539 26.5994C27.1539 26.5994 27.1539 27.8806 25.831 29.0799L25.8718 31.1888L26.6992 33.0497L27.1539 32.057L28.7662 31.1888V31.5614L28.3942 32.7603L28.2298 34.2155L27.7746 35.4888L28.064 36.9352L28.5807 39.5407L29.9248 35.1167C29.9248 35.1167 29.1381 34.4553 29.221 33.8346C29.3038 33.2139 29.6763 32.9246 29.6763 32.9246C29.6763 32.9246 30.0062 34.2476 30.7098 33.4626L30.5031 32.057L30.7098 31.8099L30.006 28.667L30.7098 28.7497L31.1227 29.7832L31.3712 28.5435L32.4466 27.1782L32.6942 26.062L33.3975 26.5576L32.9427 27.4268L32.8177 29.3703L31.826 31.3955L31.041 34.5385L32.8595 32.7603L32.9835 34.2155L31.2054 36.2743L30.3785 38.0938L30.131 39.9531L30.2969 40.2017L31.4539 38.5646L31.5774 39.1682L30.7925 40.6978L29.6763 42.1034L28.3533 43.4681L28.5807 46.8586L27.6738 46.3486L26.7245 45.5047L25.3763 46.3207C25.3763 46.3207 27.0713 40.9465 26.6992 39.5407C26.327 38.135 25.3763 37.5967 25.3763 37.5967V36.9776C25.3763 36.9776 26.8479 38.2178 26.7524 37.1435C26.6583 36.0678 26.0672 35.7782 26.0672 35.7782L26.2439 34.2155L24.8802 33.5861H23.764L22.9366 32.5525L22.2333 32.2631V31.272H25.1277L25.0042 30.5273L22.6054 24.1184L23.8466 23.1676ZM47.6643 38.7542H51.3829V38.7584H51.3871L51.3829 40.9081H50.2466V39.8844H48.7986V41.0363H49.9277V42.1706H48.7986V43.2971L48.8074 44.4009H48.7986V44.405H47.6643V44.4009H47.6586L47.2468 43.2971H47.6643V41.9587L47.2468 41.5417L47.6643 41.1246V39.8622H47.2468L47.6586 38.7584H47.6643V38.7542ZM37.5543 38.7708V38.7764L37.5771 38.8467V41.1877L37.1781 41.5809L37.5771 41.9711V44.387H36.4195L36.0123 43.293H36.4547V42.5163L36.1193 42.1793L34.9886 42.956V43.3095L35.0015 44.3828L33.8538 44.387L33.4455 43.293H33.8667V42.0207L33.4367 41.5949L33.8667 41.1654V39.8932H33.3975L33.8088 38.7935L37.5543 38.7708ZM15.2327 38.7723H16.3587V41.1737L16.7665 41.5809L16.3587 41.9897V43.262H17.7509V42.1974H18.8769V44.387H15.2244L14.8126 43.293H15.2327V41.998L14.8126 41.5809L15.2327 41.1598V39.8746H14.7635L15.1753 38.7806H15.2327V38.7723ZM19.728 38.7723H19.9626V38.7749H22.8565L23.7614 39.6797V41.1117L24.1686 41.5194L23.7614 41.9266V43.4826L22.8565 44.387H19.7239V44.3642L19.3193 43.2842H19.7239V41.9266L19.3193 41.5189L19.7239 41.1117V39.8704H19.3193L19.7239 38.7847V38.7749H19.728V38.7723ZM5.11858 38.7894H8.82895V38.7935H8.8429L8.83464 39.8885L6.24926 39.9195V43.2744L6.49783 43.2785H7.69827V42.1215H7.18047V40.997H8.82895V41.1386L9.24598 41.5597L8.82895 41.9799V43.3054L8.8429 44.405H8.82895V44.4092H7.69827V44.405H6.09062L5.11858 44.4092V44.405L4.70724 43.3054H5.11858V41.9628L4.71551 41.5597L5.11858 41.1567V39.8885H4.70724L5.11858 38.7935V38.7894ZM10.1012 38.7894H10.3317V38.7935H13.6695V38.7894H13.9L14.3113 39.8834H13.9V41.1696L14.3201 41.5907L13.9 42.0078V44.387H13.7315L12.9336 44.4009H11.0841L10.2867 44.387H10.1012L9.68833 43.293H10.1141V42.0078L9.69711 41.5907L10.1141 41.1696V39.8834L10.1012 38.7894ZM38.4855 38.7894H42.1856V38.7935H42.1902V40.9308H41.0611V39.9154H39.6105V41.0626H40.7366V42.1892H39.6105V43.2873H41.0611V42.2734H42.1902V44.4092H42.1856V44.4133H38.4855V44.4092H38.4323L38.0194 43.3095H38.4855V41.9938L38.0556 41.5639L38.4855 41.1344V39.8932H38.0194L38.4323 38.7935H38.4855V38.7894ZM43.0987 38.7894H46.8003V38.7935H46.8044V40.9308H45.6742V39.9154H44.2247V41.0626H45.3497V42.1892H44.2247V43.2873H45.6742V42.2734H46.8044V44.4092H46.8003V44.4133H43.0987V44.4092H43.0455L42.6336 43.3095H43.0987V41.9938L42.6687 41.5639L43.0987 41.1344V39.8932H42.6336L43.0455 38.7935H43.0987V38.7894ZM34.9886 39.8932V41.5334L36.4547 40.5303V39.8932H34.9886ZM20.8484 39.9014V43.262H22.3201L22.6348 42.9462V40.2161L22.3201 39.9014H20.8484ZM11.2402 39.9195V43.2744H12.7739V39.9195H11.2402ZM27.9518 58.3985L28.6019 59.7173L30.0566 59.9292L29.005 60.956L29.2535 62.405L27.9518 61.7197L26.6496 62.405L26.8981 60.956L25.845 59.9292L27.3002 59.7173L27.9518 58.3985Z" fill="#D40000"/>
<path d="M32.2016 3.06494C32.2638 3.36696 32.2967 3.67956 32.2967 3.99977C32.2967 6.54958 30.2235 8.62326 27.6737 8.62326C25.1239 8.62326 23.0502 6.54958 23.0502 3.99977C23.0502 3.70002 23.0797 3.40733 23.1345 3.12334C11.2715 5.33696 2.25977 15.7589 2.25977 28.2551V51.6945C2.25977 53.0694 3.06701 54.3289 4.31545 54.9047L26.126 64.9459C27.2045 65.4416 28.4643 65.4416 29.5429 64.9459L51.3529 54.9047C52.6013 54.3303 53.4075 53.0707 53.4075 51.6945V28.2551C53.4075 15.6429 44.2285 5.14458 32.2016 3.06494V3.06494ZM33.1292 12.7445C33.2682 12.7276 33.3991 12.7866 33.4749 12.899L34.3441 14.1811C34.3848 14.2414 34.4056 14.3106 34.4056 14.3836V23.1604L34.9647 23.0441C35.049 23.0272 35.139 23.0398 35.2149 23.0834L36.1652 23.6213C36.2789 23.6845 36.3481 23.8039 36.3481 23.9345V25.5607L36.515 25.9902L36.7006 25.9731C36.8564 25.9605 36.9941 26.042 37.0587 26.1783L37.5935 27.3115L38.3604 20.5848C38.3716 20.4893 38.4206 20.4009 38.4979 20.3419C38.5751 20.2829 38.6737 20.2566 38.7692 20.2706L41.0848 20.6003C41.2673 20.627 41.4007 20.7884 41.3923 20.9724L41.2336 24.5566L41.5189 24.9044C41.5989 25.0027 41.6213 25.138 41.5778 25.2574L41.1912 26.309L42.447 27.9239L43.9508 28.3859C43.951 28.386 43.9521 28.386 43.9523 28.3864L44.7544 25.8357C44.7544 25.8357 42.398 25.0088 43.1002 22.6524C43.8038 20.2959 44.7962 21.2003 44.2991 22.6524C43.8904 23.8489 44.6614 24.4063 44.9507 24.1577C45.24 23.9092 45.8298 18.6413 45.8298 18.6413C45.8298 18.6413 45.9558 18.0405 46.5413 18.0568C46.625 18.0591 46.718 18.0738 46.8214 18.1049C47.6486 18.352 47.4002 19.22 47.4002 19.22L46.6865 23.3557C46.6528 23.5481 46.8241 23.7209 47.0137 23.6745C47.2257 23.6226 47.4816 23.4035 47.6488 22.7351C47.9788 21.4122 48.8479 22.1566 48.8058 22.7759C48.7651 23.3966 49.1369 25.5462 46.4912 26.3312L45.375 29.8633L45.4706 29.9672L46.0731 30.269C46.1448 30.3041 46.2024 30.3634 46.2375 30.4364L47.3537 32.7929C47.4379 32.9726 47.3619 33.1871 47.1821 33.2714C47.0024 33.357 46.7893 33.2802 46.7036 33.1019L45.6406 30.856L45.0897 30.5811C45.0504 30.5614 45.0154 30.5349 44.9859 30.5026L43.6464 29.0448L42.1266 28.5771C42.0564 28.556 41.9947 28.5122 41.9483 28.4546L40.5019 26.5943C40.4247 26.496 40.405 26.3651 40.4471 26.2485L40.8321 25.2011L40.5892 24.906C40.5345 24.8372 40.5049 24.75 40.5091 24.6616L40.6502 21.4716L39.6916 22.0302L39.411 22.8374L39.0596 22.0467L38.733 23.6689L38.1651 28.6458C38.1468 28.8059 38.0261 28.9338 37.8674 28.9605C37.7074 28.9858 37.5518 28.9042 37.483 28.7595L36.5151 26.7121L36.3115 26.7317C36.143 26.7444 36.0011 26.6531 35.9435 26.5028L35.6541 25.7597C35.6373 25.7176 35.6288 25.673 35.6288 25.6295V24.1438L34.9787 23.7758L34.1194 23.9551C34.0154 23.9776 33.9034 23.9511 33.8191 23.8823C33.7363 23.8135 33.6868 23.7108 33.6868 23.6027V14.857L33.3974 14.5619L33.2078 14.5449L32.9845 14.5971L32.7334 15.6518L32.2125 15.722C31.2997 14.6578 32.4416 15.9903 32.706 16.2988C32.7706 16.3746 32.8015 16.4733 32.7902 16.5716L32.3773 20.3755C32.3633 20.4963 32.2891 20.6034 32.181 20.6582L30.3372 21.5791L29.6783 23.9076C29.6488 24.0087 29.5774 24.0916 29.4819 24.1365C29.3864 24.1801 29.2767 24.1801 29.1812 24.1365L28.1068 23.6394C28.052 23.6155 28.006 23.5776 27.9709 23.5298L26.742 21.9067L25.5834 21.3656C25.5343 21.3418 25.4905 21.3082 25.4568 21.2674L24.6383 20.2634L22.7567 20.0319C22.5756 20.0108 22.4405 19.8573 22.4405 19.6748V18.88L22.0513 18.7834C21.88 18.7412 21.7651 18.5796 21.7805 18.4041L21.8891 17.1545L20.8907 17.7426L20.715 19.9559L20.1884 22.4162H19.7119L19.4773 25.1225C19.4619 25.3135 19.2975 25.4554 19.1037 25.4512C18.9127 25.4427 18.7611 25.2839 18.7611 25.0915V23.6957L18.3301 23.1996C18.3118 23.6462 18.295 24.1127 18.281 24.5649C18.274 24.7587 18.1151 24.9132 17.9213 24.9132H17.5451C17.0382 30.0671 16.6419 30.1458 16.3793 30.1992C16.3063 30.2132 16.1971 30.2255 16.0651 30.2395C15.4641 30.3013 14.3473 30.4168 13.8487 31.2679C13.1016 32.5416 11.1021 33.5933 11.0179 33.6383C10.9645 33.6649 10.9068 33.6791 10.852 33.6791C10.7214 33.6791 10.5962 33.6089 10.5316 33.4853C10.4403 33.3098 10.5095 33.0919 10.6851 33.0006C10.6962 32.9946 11.3997 32.6221 12.0928 32.0859V32.0854L9.03248 25.7121C7.25461 26.0843 6.84174 24.1407 6.42747 22.8586C6.0146 21.5778 6.26186 20.4613 6.71686 20.4613C7.17186 20.4613 7.33749 21.825 7.33749 21.825C7.75036 24.885 8.9498 24.0058 8.9498 24.0058L8.03977 17.6909C8.03977 17.6909 7.91612 16.2444 8.66041 16.1194C8.68367 16.1156 8.70653 16.1128 8.72914 16.1117C9.43002 16.0769 9.81744 17.3183 9.81744 17.3183L10.066 22.9412C11.5125 22.6112 10.6447 18.973 11.4297 18.973C12.2162 18.973 12.4225 19.9642 12.4225 19.9642C13.2496 23.7685 10.9833 24.6238 10.9833 24.6238L12.7609 31.4994C12.9465 31.3083 13.1091 31.108 13.2286 30.9041C13.9125 29.7385 15.3152 29.5935 15.9907 29.5233C16.0371 29.5191 16.0794 29.5151 16.1173 29.5109C16.335 28.9758 16.6652 26.5815 16.8604 24.52C16.8787 24.336 17.0332 24.1939 17.2185 24.1939H17.5736C17.6957 20.5089 17.8066 20.3252 17.8614 20.2339C17.9414 20.1019 18.1141 20.0235 18.2629 20.0572C18.5396 20.119 18.6454 20.1414 18.929 22.7914L18.9554 22.8219L19.2587 19.3125C19.2629 19.2592 19.2798 19.2059 19.3078 19.1596L19.6298 18.6247V16.7809C19.6298 16.5969 19.7672 16.4435 19.9512 16.4238L22.2653 16.1752C22.372 16.164 22.479 16.2007 22.5562 16.2765C22.632 16.351 22.6711 16.4576 22.6627 16.5644L22.5236 18.1596L22.8874 18.2511C23.0475 18.2918 23.1598 18.4347 23.1598 18.6004V19.3575L24.8692 19.5668C24.9619 19.578 25.0459 19.6243 25.1049 19.696L25.9617 20.7491L27.1285 21.2928C27.1819 21.318 27.2269 21.3546 27.2634 21.4023L28.4892 23.0244L29.1015 23.3066L29.6901 21.2307C29.7168 21.1338 29.7842 21.0524 29.8741 21.0075L31.6843 20.1032L32.059 16.6486L31.1686 15.6094C31.1124 15.5448 31.0818 15.4604 31.0818 15.3748V14.92C31.0818 14.722 31.242 14.5604 31.4414 14.5604H31.8642L31.6957 14.2064C31.6788 14.1699 31.6673 14.1308 31.6631 14.0901L31.5805 13.3051C31.5594 13.1113 31.6967 12.937 31.8905 12.9103L33.1292 12.7445ZM23.8466 23.1676L25.2527 27.8805C25.2527 27.8805 25.9546 26.6401 27.1539 26.5994C27.1539 26.5994 27.1538 27.8806 25.8309 29.0799L25.8718 31.1888L26.6991 33.0497L27.1539 32.057L28.7662 31.1888V31.5614L28.3941 32.7603L28.2298 34.2155L27.7745 35.4888L28.0639 36.9352L28.5806 39.5407L29.9247 35.1167C29.9247 35.1167 29.1381 34.4553 29.2209 33.8346C29.3038 33.2139 29.6762 32.9246 29.6762 32.9246C29.6762 32.9246 30.0061 34.2476 30.7097 33.4626L30.503 32.057L30.7097 31.81L30.0059 28.667L30.7097 28.7497L31.1226 29.7832L31.3712 28.5435L32.4466 27.1782L32.6941 26.062L33.3974 26.5576L32.9426 27.4268L32.8176 29.3703L31.8259 31.3955L31.041 34.5385L32.8594 32.7603L32.9835 34.2155L31.2053 36.2743L30.3785 38.0938L30.1309 39.9531L30.2968 40.2017L31.4538 38.5646L31.5774 39.1682L30.7924 40.6978L29.6762 42.1034L28.3533 43.4682L28.5806 46.8586L27.6737 46.3486L26.7244 45.5047L25.3762 46.3207C25.3762 46.3207 27.0712 40.9465 26.6991 39.5407C26.327 38.135 25.3762 37.5967 25.3762 37.5967V36.9776C25.3762 36.9776 26.8478 38.2178 26.7523 37.1435C26.6582 36.0678 26.0671 35.7782 26.0671 35.7782L26.2438 34.2155L24.8801 33.5861H23.7639L22.9365 32.5525L22.2332 32.2632V31.272H25.1276L25.0041 30.5273L22.6053 24.1184L23.8466 23.1676ZM4.70716 36.2588H22.9913C23.0896 36.2588 23.1711 36.3384 23.1711 36.4381C23.1711 36.5378 23.0896 36.6179 22.9913 36.6179H4.70716C4.60745 36.6179 4.52733 36.5378 4.52733 36.4381C4.52733 36.3384 4.60745 36.2588 4.70716 36.2588ZM33.6744 36.2588H51.5456C51.6454 36.2588 51.7255 36.3384 51.7255 36.4381C51.7255 36.5378 51.6454 36.6179 51.5456 36.6179H33.6744C33.5747 36.6179 33.4945 36.5378 33.4945 36.4381C33.4945 36.3384 33.5747 36.2588 33.6744 36.2588V36.2588ZM47.6642 38.7542H51.3829V38.7584H51.387L51.3829 40.9081H50.2465V39.8844H48.7985V41.0363H49.9277V42.1706H48.7985V43.2971L48.8073 44.4009H48.7985V44.405H47.6642V44.4009H47.6585L47.2467 43.2971H47.6642V41.9587L47.2467 41.5417L47.6642 41.1246V39.8622H47.2467L47.6585 38.7584H47.6642V38.7542ZM37.5543 38.7708V38.7765L37.577 38.8467V41.1877L37.178 41.5809L37.577 41.9711V44.387H36.4194L36.0122 43.293H36.4546V42.5163L36.1192 42.1793L34.9885 42.956V43.3095L35.0014 44.3828L33.8537 44.387L33.4454 43.293H33.8666V42.0207L33.4367 41.5949L33.8666 41.1655V39.8932H33.3974L33.8087 38.7935L37.5543 38.7708ZM15.2326 38.7729H16.3586V41.1743L16.7664 41.5815L16.3586 41.9903V43.2625H17.7508V42.198H18.8768V44.3875H15.2243L14.8125 43.2935H15.2326V41.9985L14.8125 41.5815L15.2326 41.1603V39.8751H14.7634L15.1753 38.7812H15.2326V38.7729ZM19.7279 38.7729H19.9626V38.775H22.8564L23.7613 39.6799V41.1118L24.1685 41.5195L23.7613 41.9267V43.4827L22.8564 44.3871H19.7238V44.3643L19.3192 43.2843H19.7238V41.9268L19.3192 41.519L19.7238 41.1118V39.8706H19.3192L19.7238 38.7848V38.775H19.728L19.7279 38.7729ZM5.11851 38.7899H8.82887V38.794H8.84282L8.83456 39.8891L6.24918 39.9201V43.2749L6.49775 43.279H7.69819V42.122H7.18039V40.9975H8.82887V41.1391L9.2459 41.5603L8.82887 41.9804V43.3059L8.84282 44.4056H8.82887V44.4097H7.69819V44.4056H6.09054L5.1185 44.4097V44.4056L4.70716 43.3059H5.1185V41.9634L4.71543 41.5603L5.1185 41.1572V39.8891H4.70716L5.1185 38.794L5.11851 38.7899ZM10.1011 38.7899H10.3316V38.794H13.6694V38.7899H13.8999L14.3112 39.8839H13.8999V41.1701L14.32 41.5913L13.8999 42.0083V44.3875H13.7314L12.9335 44.4015H11.084L10.2867 44.3875H10.1011L9.68825 43.293H10.1141V42.0078L9.69704 41.5908L10.1141 41.1696V39.8834L10.1011 38.7899ZM38.4855 38.7899H42.1855V38.794H42.1902V40.9314H41.061V39.9159H39.6105V41.0632H40.7365V42.1897H39.6105V43.2878H41.061V42.2739H42.1902V44.4097H42.1855V44.4139H38.4855V44.4097H38.4322L38.0193 43.3101H38.4855V41.9944L38.0555 41.5644L38.4855 41.135V39.8937H38.0193L38.4322 38.794H38.4855V38.7899ZM43.0986 38.7899H46.8002V38.794H46.8043V40.9314H45.6742V39.9159H44.2246V41.0632H45.3496V42.1897H44.2246V43.2878H45.6742V42.2739H46.8043V44.4097H46.8002V44.4139H43.0986V44.4097H43.0454L42.6335 43.3101H43.0986V41.9944L42.6687 41.5644L43.0986 41.135V39.8937H42.6335L43.0454 38.794H43.0986V38.7899ZM34.9885 39.8937V41.5339L36.4546 40.5309V39.8937H34.9885ZM20.8483 39.902V43.2625H22.32L22.6347 42.9468V40.2167L22.32 39.902L20.8483 39.902ZM12.7739 39.9196L11.2401 39.9201V43.2749H12.7739V39.9196ZM4.70716 46.1424H22.9913C23.0896 46.1424 23.1711 46.222 23.1711 46.3217C23.1711 46.42 23.0896 46.5016 22.9913 46.5016H4.70716C4.60745 46.5016 4.52733 46.42 4.52733 46.3217C4.52733 46.222 4.60745 46.1424 4.70716 46.1424ZM33.6744 46.1424H51.5456C51.6454 46.1424 51.7255 46.222 51.7255 46.3217C51.7255 46.42 51.6454 46.5016 51.5456 46.5016H33.6744C33.5747 46.5016 33.4945 46.42 33.4945 46.3217C33.4945 46.222 33.5747 46.1424 33.6744 46.1424V46.1424ZM15.1933 48.2307H18.0588V48.2312V48.2339H18.0619V48.2344L18.0588 49.0834V49.8891V49.8896H17.1855V49.8891V49.1046H16.0667V50.0586V50.0591L16.3871 50.3795H16.3876V50.38L16.0667 50.6978V51.7133H17.1855V50.9257V50.9252H18.0588V50.9257V51.7303V51.7308L18.0619 52.5799V52.5804H18.0588V52.5866V52.5871H15.1933V52.5866V52.5804H15.1902V52.5799L14.8724 51.7308V51.7303H15.1933V50.7009V50.7004L14.8724 50.3795L15.1933 50.0591V50.0586V49.0839H14.8724V49.0834L15.1902 48.2344V48.2338H15.1933V48.2312V48.2307ZM31.2792 48.2405H31.4606V48.241V48.2437H32.6646V48.241L32.9132 49.0901L33.1835 50.0347L33.5855 50.2636V50.2642L33.3607 50.6626L33.7943 52.1907V52.1912L33.8925 52.5726V52.5731H33.6439V52.5767V52.5772H32.7737V52.5767V52.5695V52.569L32.4559 51.7246V51.724H32.7566L32.6786 51.4445H31.4497L31.1298 52.5767V52.5772H30.4704V52.5767V52.5695V52.569L30.1542 51.7246V51.724H30.4673L30.7676 50.6662V50.6657L30.5397 50.2642V50.2636L30.9448 50.0347L31.2141 49.0906H30.9624V49.09L31.2792 48.241V48.2405ZM34.5648 48.2436H35.4303V48.2441V48.2581L35.4479 48.2472V48.2477L36.7641 50.7375V49.0906H36.4401V49.0901L36.7574 48.2477V48.2472H36.7641V48.2446V48.244H37.6343V48.2446L37.6307 49.0869V49.0874V50.0858L37.9615 50.4129V50.4134H37.9609L37.6307 50.7447V50.7452V52.5694V52.5699H36.775L36.7543 52.5808V52.5802L35.4303 50.0729L35.4334 52.5658V52.5663H35.4303V52.5694V52.5699H34.5648V52.5694V52.5663H34.5508V52.5658L34.233 51.7214V51.7208H34.5648V50.7452V50.7447L34.2335 50.4134L34.233 50.4129L34.5648 50.0832V49.0905H34.233V49.09L34.5508 48.2476V48.2471H34.5647V48.244L34.5648 48.2436ZM22.6844 48.2482H23.5536V48.2488L24.5261 50.0724L25.5012 48.2488V48.2482H26.371V48.2488V48.2504H26.3756V48.2509L26.6924 49.0963V49.0968H26.371V50.0854V50.0859L26.6924 50.41V50.4105L26.371 50.7309V50.7314V51.7231H26.6924V51.7236L26.3756 52.569V52.5696H25.4976V52.569L25.5012 50.1046L24.5292 51.8363L23.5536 50.0999V52.569V52.5696H22.626V52.569L22.3082 51.7236V51.7231H22.6844V50.7345V50.734L22.3603 50.4105V50.41L22.6844 50.0828V50.0823V49.0968H22.3082V49.0963L22.626 48.2509V48.2504H22.6844V48.2488V48.2482ZM38.6167 48.2482H39.3128V48.2488L40.0327 49.5267L40.7556 48.2488V48.2482H41.7411V48.2488L41.5705 48.5645V48.565L41.2734 49.0932V49.0905L40.6357 50.2119V50.2124L40.7789 50.3556H40.7794V50.3561L40.4616 50.6698V52.5694V52.5699H39.5913V52.5694L39.2746 51.7276V51.7271H39.596V50.6729L39.2746 50.3561V50.3556H39.2751L39.4219 50.2093V50.2088L38.794 49.0905H38.302V49.09L38.6167 48.2487L38.6167 48.2482ZM18.7203 48.2612H18.8975V48.2617V48.2643H21.4663V48.2617V48.2612H21.6436V48.2617L21.9614 49.103V49.1035H21.6436V50.0931V50.0936L21.9676 50.4171H21.9681V50.4177L21.6436 50.7386V52.5689V52.5695H21.5139L20.9 52.5803H19.4778L18.8639 52.5695H18.7203V52.5689L18.4035 51.7277V51.7271H18.7311V50.7386V50.738L18.4102 50.4176V50.4171L18.7311 50.0936V50.0931V49.1035V49.103L18.7203 48.2617L18.7203 48.2612ZM27.496 48.2612H30.2043V48.2617V48.2643H30.2188V48.2649V48.2711H30.2219V48.2716L30.2188 49.1139V50.1231V50.1237L29.3563 50.7107L28.2267 51.4859V51.7339V51.7344L28.2303 52.5726V52.5732H27.36V52.5726L27.0464 51.7344V51.7339H27.3631V50.7515V50.751L27.0329 50.4208L27.0324 50.4203L27.3631 50.0932V49.1144H27.0464V49.1139L27.36 48.2716V48.271H27.3631V48.2648V48.2643H27.3879L27.496 48.2612ZM28.2267 49.1283V50.3902L29.3563 49.6151V49.1283H28.2267ZM19.5967 49.1314V51.7131H20.777V49.1314H19.5967ZM32.0636 49.2885L31.6993 50.5742H32.429L32.0636 49.2885ZM10.7197 50.4093H12.716C12.8157 50.4093 12.8958 50.4889 12.8958 50.5887C12.8958 50.687 12.8157 50.7685 12.716 50.7685H10.7197C10.62 50.7685 10.5399 50.687 10.5399 50.5887C10.5399 50.4889 10.62 50.4093 10.7197 50.4093ZM42.9513 50.4093H44.9476C45.0473 50.4093 45.1274 50.4889 45.1274 50.5887C45.1274 50.687 45.0473 50.7685 44.9476 50.7685H42.9513C42.8516 50.7685 42.7715 50.687 42.7715 50.5887C42.7715 50.4889 42.8516 50.4093 42.9513 50.4093ZM23.2383 54.361C23.4502 54.361 23.6882 54.3996 23.952 54.4763L23.8605 55.085H23.4683L23.3768 54.652H23.0389V54.9057L23.705 55.3992C23.8042 55.4713 23.8773 55.5569 23.9246 55.656C23.9719 55.7552 23.9959 55.8683 23.9959 55.9945C23.9959 56.1208 23.9791 56.2209 23.9453 56.2953C23.9114 56.3674 23.8684 56.4237 23.8166 56.4643C23.767 56.5048 23.7005 56.5368 23.6171 56.5593C23.4841 56.5954 23.2927 56.6131 23.0425 56.6131C22.7923 56.6131 22.5237 56.575 22.2374 56.4984L22.3288 55.8896H22.7619L22.8663 56.3222H23.2419V56.0689L22.5758 55.5749C22.4767 55.5028 22.403 55.4173 22.3557 55.3181C22.3084 55.2189 22.2849 55.1108 22.2849 54.9936C22.2849 54.8741 22.2951 54.7828 22.3154 54.7197C22.3379 54.6543 22.3707 54.6011 22.4136 54.5605C22.4564 54.5177 22.5025 54.4832 22.5521 54.4561C22.6017 54.4291 22.6624 54.4087 22.7345 54.3951C22.8585 54.3726 23.0264 54.361 23.2383 54.361ZM20.3574 54.4153H22.0684V55.1388H21.673L21.534 54.6184H21.2333V55.4163H21.8792V55.6023H21.2333V56.3594H21.534L21.673 55.839H22.0684V56.5625H20.3574V56.4338H20.5062V54.544H20.3574V54.4153ZM24.0801 54.4153H26.0046V55.1186H25.6087L25.524 54.652H25.3312L25.4056 55.2199V56.4338H25.6899V56.5625H24.3948V56.4338H24.6791V55.2199L24.7535 54.652H24.5607L24.476 55.1388H24.0801V54.4153ZM28.7465 54.483C29.1004 54.483 29.3225 54.5495 29.4126 54.6825C29.451 54.7411 29.47 54.8213 29.47 54.9228C29.47 55.0219 29.443 55.1301 29.3889 55.2473C29.3348 55.3622 29.247 55.5134 29.1253 55.7005L28.7093 56.3392H28.946L29.2607 55.8591H29.4669L29.5279 56.5625H27.9285L27.8778 56.4338L28.9326 54.7026H28.6623L28.361 55.2132H28.0804L28.023 54.5843C28.289 54.5166 28.5301 54.483 28.7465 54.483V54.483ZM32.6016 54.483C32.9555 54.483 33.1775 54.5495 33.2677 54.6825C33.306 54.7411 33.325 54.8213 33.325 54.9228C33.325 55.0219 33.298 55.1301 33.2439 55.2473C33.1898 55.3622 33.1016 55.5134 32.9799 55.7005L32.5644 56.3392H32.8011L33.1152 55.8591H33.3214L33.3824 56.5625H31.783L31.7324 56.4338L32.7871 54.7026H32.5168L32.2161 55.2132H31.935L31.8776 54.5843C32.1436 54.5166 32.3852 54.483 32.6016 54.483V54.483ZM34.5286 54.483C34.8825 54.483 35.1045 54.5495 35.1947 54.6825C35.233 54.7411 35.2521 54.8213 35.2521 54.9228C35.2521 55.0219 35.225 55.1301 35.1709 55.2473C35.1168 55.3622 35.0291 55.5134 34.9074 55.7005L34.4914 56.3392H34.7281L35.0428 55.8591H35.249L35.3099 56.5625H33.7106L33.6599 56.4338L34.7146 54.7026H34.4444L34.1431 55.2132H33.8625L33.8051 54.5843C34.0711 54.5166 34.3122 54.483 34.5286 54.483V54.483ZM30.6808 54.5032C30.7574 54.5032 30.815 54.5045 30.8534 54.5068C30.8917 54.5068 30.9444 54.512 31.012 54.5233C31.0819 54.5323 31.136 54.5475 31.1743 54.5678C31.2126 54.588 31.2565 54.6181 31.3061 54.6587C31.3556 54.6993 31.3942 54.7481 31.4213 54.8044C31.4844 54.9487 31.5159 55.1255 31.5159 55.3351V55.7609C31.5159 55.9728 31.48 56.1502 31.4079 56.2922C31.3583 56.3869 31.2678 56.4657 31.1371 56.5289C31.0582 56.5672 30.9412 56.5871 30.7857 56.5893C30.7428 56.5917 30.683 56.5929 30.6064 56.5929C30.532 56.5929 30.4757 56.5916 30.4374 56.5893C30.3991 56.5893 30.345 56.584 30.2751 56.5728C30.2075 56.5638 30.1543 56.5492 30.1159 56.5289C30.0776 56.5086 30.0338 56.478 29.9842 56.4374C29.9346 56.3968 29.8973 56.3485 29.8725 56.2922C29.8072 56.1479 29.7744 55.9706 29.7744 55.7609V55.3351C29.7744 55.1277 29.8094 54.9509 29.8793 54.8044C29.9266 54.7097 30.0179 54.6309 30.1532 54.5677C30.2321 54.5294 30.3495 54.509 30.5051 54.5068C30.5479 54.5044 30.6064 54.5031 30.6808 54.5031V54.5032ZM30.488 54.7197L30.3154 56.3868H30.8193L30.9919 54.7197H30.488ZM26.3627 55.9268C26.4957 55.9268 26.5803 55.9472 26.6164 55.9878C26.6547 56.0261 26.6738 56.1183 26.6738 56.2648C26.6738 56.4091 26.6547 56.5004 26.6164 56.5387C26.5781 56.577 26.4926 56.596 26.3596 56.596C26.2266 56.596 26.1397 56.577 26.0991 56.5387C26.0586 56.5004 26.0382 56.4082 26.0382 56.2617C26.0382 56.1152 26.0586 56.0225 26.0991 55.9842C26.142 55.9459 26.2297 55.9268 26.3627 55.9268V55.9268ZM27.9517 58.3985L28.6018 59.7173L30.0565 59.9292L29.0049 60.956L29.2535 62.405L27.9517 61.7198L26.6495 62.405L26.8981 60.956L25.8449 59.9292L27.3001 59.7173L27.9517 58.3985Z" fill="white"/>
</g>
<defs>
<linearGradient id="paint0_linear_152_101" x1="0.83553" y1="55.9715" x2="47.2797" y2="7.57789" gradientUnits="userSpaceOnUse">
<stop stop-color="#BD3800"/>
<stop offset="1" stop-color="#BD3800"/>
</linearGradient>
<clipPath id="clip0_152_101">
<rect width="56" height="69" fill="white"/>
</clipPath>
</defs>
</svg>
