<svg width="256" height="256" version="1.1" viewBox="0 0 67.73 67.73" xmlns="http://www.w3.org/2000/svg"><g transform="matrix(2.765 0 0 2.765 -46.96 -2.72)" stroke-width=".3616"><path d="m41.48 13.23c0 6.765-5.483 12.25-12.25 12.25-6.765 0-12.25-5.483-12.25-12.25 0-6.763 5.483-12.25 12.25-12.25 6.763 0 12.25 5.485 12.25 12.25" fill="#f58f3a"/><path d="m40.09 13.23c0 6.001-4.866 10.87-10.87 10.87-6.001 0-10.87-4.864-10.87-10.87 0-6 4.866-10.87 10.87-10.87 6 0 10.87 4.866 10.87 10.87" fill="#d4732e"/><path d="m21.57 8.872.2177.2742c.03721.04685.08682.08268.1433.102l.3321.113c.2343.07993.288.3872.0937.5416l-.2742.2177c-.04685.03721-.08268.08819-.102.1447l-.113.3307c-.07993.2356-.3886.288-.543.09371l-.2177-.2742c-.03721-.04685-.08682-.08131-.1433-.1006l-.3321-.1144c-.2343-.07993-.2866-.3872-.09371-.5416l.2742-.2177c.04685-.03721.08268-.08682.102-.1447l.113-.3307c.07993-.2343.3886-.288.5429-.09371" fill="#bf6123"/><path d="m33.99 19.49.01517.4465c.0028.07579.02618.1502.07028.2136l.2536.3679c.1791.2604 0 .616-.317.6256l-.4451.01516c-.07717.0028-.1516.02756-.2136.07028l-.3679.2536c-.2604.1791-.616 0-.627-.3156l-.01517-.4465c-.0028-.07717-.02618-.1502-.07028-.2136l-.2536-.3679c-.1791-.2604 0-.616.3169-.627l.4451-.01516c.07717-.0014.1516-.02618.215-.07028l.3679-.2536c.2591-.1791.6146 0 .6256.3169" fill="#bf6123"/><g fill="#f58f3a"><path d="m36.22 6.829-.3225.1778c-.05512.02894-.1006.07441-.1309.1309l-.1764.3225c-.1254.2288-.4534.2288-.5788 0l-.1764-.3225c-.0303-.0565-.07579-.102-.1309-.1309l-.3238-.1778c-.2274-.124-.2274-.4534 0-.5774l.3238-.1764c.05512-.03169.1006-.07579.1309-.1309l.1764-.3238c.1254-.2288.4534-.2288.5788 0l.1764.3238c.0303.05512.07579.09922.1309.1309l.3225.1764c.2288.124.2288.4534 0 .5774"/><path d="m24.64 19.05-.2315.02618c-.03858.0055-.07717.02067-.1075.04547l-.1805.1474c-.1282.1034-.3197.0248-.339-.1378l-.02618-.2315c-.0041-.03996-.0193-.07717-.04548-.1089l-.1461-.1805c-.1047-.1282-.02618-.3197.1378-.339l.2315-.0248c.03997-.0055.07717-.02067.1075-.04547l.1805-.1474c.1282-.1034.3211-.0248.339.1378l.02618.2315c.0041.03996.02067.07717.04547.1089l.1475.1805c.1034.1282.0248.3197-.1392.3376"/><path d="m35.75 17.36c0 .2508-.2039.4548-.4548.4548s-.4548-.204-.4548-.4548.2039-.4534.4548-.4534.4548.2026.4548.4534"/></g><path d="m33.3 8.788c0 .2508-.204.4548-.4548.4548-.2508 0-.4548-.2039-.4548-.4548 0-.2508.204-.4548.4548-.4548.2508 0 .4548.2039.4548.4548" fill="#bf6123"/><path d="m27.39 22.02 6.142-9.404c.3238-.4961-.03168-1.155-.6243-1.155h-2.201c-2.009 0-3.7 1.508-3.929 3.504l-.7538 6.561c-.08957.7827.9357 1.152 1.366.4933" fill="#fff"/><path d="m22.93 17c0 .2522-.2026.4548-.4534.4548-.2522 0-.4548-.2026-.4548-.4548 0-.2508.2026-.4534.4548-.4534.2508 0 .4534.2026.4534.4534" fill="#bf6123"/><path d="m29.88 3.97-6.142 9.404c-.3238.4961.03168 1.155.6243 1.155h2.201c2.009 0 3.7-1.508 3.929-3.504l.7538-6.561c.08957-.7827-.9357-1.152-1.366-.4933" fill="#fff"/></g></svg>
