<svg width="28" height="22" fill="none" xmlns="http://www.w3.org/2000/svg"><path d="M21.9 6.309c-.162 0-.32.01-.478.024a3.32 3.32 0 0 0-4.764-1.941A4.978 4.978 0 0 0 6.962 5.98c0 .228.02.45.05.67l-6.2 2.613v4.546l6.154 2.432-.001.03c0 2.75 2.23 4.978 4.98 4.977a4.975 4.975 0 0 0 4.5-2.86 3.32 3.32 0 0 0 5.061-2.14c.131.01.262.019.396.019a4.98 4.98 0 1 0-.002-9.958Z" fill="#FFE8FF"/><path d="M22.091 6.309c-.16 0-.32.01-.477.024a3.32 3.32 0 0 0-4.765-1.941A4.978 4.978 0 0 0 7.154 5.98c0 .228.02.45.05.67l-1.644.699a4.998 4.998 0 0 1 2.419 2.829 3.32 3.32 0 0 1 4.765 1.941 4.98 4.98 0 0 1 5.457 4.954c0 .633-.123 1.237-.338 1.794a3.3 3.3 0 0 0 .58.056 3.32 3.32 0 0 0 3.255-2.676c.13.01.262.02.395.02a4.98 4.98 0 1 0-.002-9.958Z" fill="#FFE8FF"/><path d="m1.226 13.717 5.932 2.524-.002.03c0 2.75 2.23 4.978 4.98 4.977a4.975 4.975 0 0 0 4.5-2.86 3.32 3.32 0 0 0 5.061-2.14c.132.01.263.019.396.019a4.98 4.98 0 1 0-.479-9.934 3.32 3.32 0 0 0-4.765-1.941A4.978 4.978 0 0 0 7.154 5.98c0 .228.02.45.05.67L1.226 9.192M1.226 6.783l3.72-1.653s-.414-2.066 1.653-3.306M1.226 15.876l3.72 1.653s-.414 2.066 1.653 3.306" stroke="#FFE8FF" stroke-miterlimit="10" stroke-linecap="round" stroke-linejoin="round"/></svg>