<svg width="256" height="256" version="1.1" viewBox="0 0 67.73 67.73" xmlns="http://www.w3.org/2000/svg"><g transform="matrix(2.765 0 0 2.765 -48.61 -19.24)" stroke-width=".3617"><path d="m42.08 19.21c0 6.765-5.483 12.25-12.25 12.25-6.763 0-12.25-5.483-12.25-12.25 0-6.763 5.485-12.25 12.25-12.25 6.765 0 12.25 5.485 12.25 12.25" fill="#234c8a"/><path d="m29.3 9.897 1.636 2.181c.452.6036 1.244.8447 1.957.5953l2.573-.8999c1.421-.4961 2.756.9316 2.164 2.316l-1.071 2.505c-.2963.6945-.1089 1.502.463 1.994l2.066 1.778c1.141.9825.5719 2.853-.9233 3.033l-2.706.3252c-.7497.09095-1.355.6559-1.494 1.397l-.5085 2.678c-.2797 1.48-2.184 1.922-3.087.7166l-1.634-2.18c-.4534-.6036-1.246-.8447-1.958-.5953l-2.573.8985c-1.422.4975-2.756-.9302-2.165-2.315l1.071-2.507c.2977-.6945.1102-1.501-.4616-1.993l-2.066-1.779c-1.141-.9825-.5719-2.853.9233-3.032l2.705-.3252c.7497-.09095 1.355-.6559 1.495-1.397l.5071-2.678c.2811-1.48 2.184-1.922 3.088-.718" fill="#355c87"/><g fill="#4c82bf"><path d="m23.62 16.42.09784.3679c.01792.06339.05237.1199.1006.164l.2811.2577c.1998.1819.1199.5113-.1419.5815l-.3679.09922c-.06339.01653-.1199.05099-.164.09922l-.2563.2811c-.1819.1998-.5126.1199-.5829-.1406l-.09784-.3693c-.01792-.06339-.05236-.1199-.09922-.164l-.2825-.2563c-.1998-.1819-.1185-.5126.1419-.5829l.3679-.09784c.06339-.01654.1199-.05237.164-.1006l.2577-.2811c.1819-.1998.5126-.1185.5815.1419"/><path d="m32.08 27.06.1681.1433c.02893.0248.06339.03996.1006.04548l.2191.03032c.1557.02205.2246.2053.124.3252l-.1447.1681c-.02343.02756-.03997.06339-.04548.1006l-.0303.2191c-.02067.1557-.2053.2246-.3238.124l-.1681-.1447c-.02893-.0248-.06477-.03996-.102-.04547l-.2191-.03032c-.1543-.02067-.2246-.2053-.1226-.3238l.1433-.1681c.0248-.02894.03996-.06477.04547-.102l.0303-.2191c.02205-.1543.2053-.2246.3252-.1226"/><path d="m36.07 13.14.0441.164c.0083.02894.02343.05374.0441.07304l.1254.1144c.08957.0813.05374.2288-.06202.2591l-.164.0441c-.02755.0069-.05374.02205-.07304.0441l-.1144.1254c-.08131.08819-.2274.05237-.2591-.06339l-.0441-.164c-.0069-.02756-.02205-.05237-.0441-.07304l-.1254-.1144c-.08819-.07993-.05237-.2274.06339-.2577l.164-.0441c.02755-.0083.05374-.02343.07304-.0441l.1144-.1254c.07993-.08957.2274-.05374.2577.06201"/></g><path d="m36.43 20.98c.04961.2095-.0813.4175-.2894.4658-.2095.04823-.4175-.0813-.4658-.2908-.04823-.2081.0813-.4175.2908-.4644.2081-.04961.4162.0813.4644.2894" fill="#234c8a"/><path d="m21.31 21.55c.04823.2081-.0813.4175-.2908.4658-.2081.04823-.4175-.08131-.4658-.2908-.04823-.2081.08268-.4162.2908-.4658.2081-.04823.4162.08268.4658.2908" fill="#4c82bf"/><g fill="#1c3f66"><path d="m23.9 12.74c.04823.2081-.0813.4162-.2894.4644-.2095.04961-.4175-.0813-.4672-.2894-.04686-.2095.08268-.4175.2908-.4658.2081-.04823.4175.0813.4658.2908"/><path d="m39.12 17.05c.04961.2081-.08131.4175-.2894.4658-.2095.04823-.4175-.0813-.4658-.2908-.04823-.2081.0813-.4175.2908-.4658.2081-.04823.4162.0813.4644.2908"/><path d="m36.05 25.56c.04823.2095-.0813.4175-.2908.4658-.2081.04823-.4175-.0813-.4658-.2894-.04823-.2095.08268-.4175.2908-.4658.2081-.04823.4162.0813.4658.2894"/></g><path d="m23.41 25.18c.04823.2081-.08131.4175-.2908.4658-.2081.04823-.4175-.0813-.4658-.2908-.04823-.2081.08268-.4175.2908-.4658.2081-.04823.4162.0813.4658.2908" fill="#234c8a"/><path d="m36.22 19.73v-1.042c0-.915.7497-1.663 1.665-1.663.915 0 1.665.7483 1.665 1.663v1.042c0 .9164-.7497 1.665-1.665 1.665-.915 0-1.665-.7483-1.665-1.665" fill="#fff"/><path d="m37.88 17.38c-.7235 0-1.312.5884-1.312 1.311v1.042c0 .7235.5884 1.312 1.312 1.312.7235 0 1.312-.5884 1.312-1.312v-1.042c0-.7221-.5884-1.311-1.312-1.311m0 4.37c-1.112 0-2.017-.9054-2.017-2.017v-1.042c0-1.112.9054-2.016 2.017-2.016 1.112 0 2.017.904 2.017 2.016v1.042c0 1.112-.9054 2.017-2.017 2.017" fill="#234c8a"/><path d="m21.32 22.65v-6.886c0-.9136.7469-1.662 1.661-1.662h12.67c.9136 0 1.661.7483 1.661 1.662v6.886c0 .9136-.7469 1.661-1.661 1.661h-12.67c-.9136 0-1.661-.7469-1.661-1.661" fill="#fff"/><g fill="#234c8a"><path d="m22.98 14.46c-.7207 0-1.308.5857-1.308 1.308v6.886c0 .7207.587 1.308 1.308 1.308h12.67c.7207 0 1.308-.587 1.308-1.308v-6.886c0-.7221-.587-1.308-1.308-1.308zm12.67 10.21h-12.67c-1.109 0-2.013-.9026-2.013-2.013v-6.886c0-1.111.904-2.013 2.013-2.013h12.67c1.109 0 2.013.9026 2.013 2.013v6.886c0 1.111-.904 2.013-2.013 2.013"/><path d="m25.06 22.52c-.8434 0-1.534-.6904-1.534-1.535v-3.695c0-.8434.6904-1.534 1.534-1.534.8447 0 1.535.6904 1.535 1.534v3.695c0 .8447-.6904 1.535-1.535 1.535"/><path d="m30.17 22.52c-.8434 0-1.534-.6904-1.534-1.535v-3.695c0-.8434.6904-1.534 1.534-1.534.8447 0 1.535.6904 1.535 1.534v3.695c0 .8447-.6904 1.535-1.535 1.535"/></g></g></svg>
