<svg width="51" height="65" viewBox="0 0 51 65" fill="none" xmlns="http://www.w3.org/2000/svg">
<path d="M21.5619 3.12021C21.4955 3.40872 21.4614 3.7037 21.4601 3.99974C21.4599 6.20889 23.2507 7.99988 25.4598 8.00001C27.6692 8.00016 29.4603 6.20909 29.4601 3.99974C29.4598 3.70416 29.4267 3.40953 29.3614 3.12124L47.4068 13.5402L47.6574 13.6958L47.8957 13.8679L48.1205 14.0534L48.3313 14.2523L48.5287 14.4642L48.7111 14.6875L48.8791 14.9221L49.0305 15.1665L49.1669 15.4202L49.2858 15.6827L49.3881 15.9525L49.4734 16.2295L49.5405 16.5116L49.5881 16.7995L49.6181 17.0914L49.6274 17.3865V42.2439L46.9045 39.2451C46.8963 39.2356 46.8864 39.227 46.8782 39.2188C46.8193 39.1668 46.6774 39.0436 46.4761 38.8834L42.6934 34.7653C42.6815 34.7524 42.6686 34.741 42.6552 34.7302C42.6482 34.7245 42.6408 34.7197 42.6335 34.7147C42.6264 34.7097 42.6192 34.7045 42.6118 34.7002C42.6008 34.6937 42.5892 34.6883 42.5777 34.6831C42.5752 34.6821 42.5729 34.6805 42.5704 34.6795C42.5701 34.6793 42.5694 34.6793 42.5687 34.679C42.5561 34.6737 42.5435 34.6693 42.5304 34.6656C42.5269 34.6645 42.5236 34.664 42.5201 34.6629C42.5077 34.6597 42.4951 34.6575 42.4824 34.6557C42.4783 34.6551 42.4741 34.6546 42.47 34.6541C42.4576 34.6528 42.4452 34.652 42.4328 34.652C42.4281 34.652 42.4235 34.6518 42.4188 34.652C42.4067 34.6525 42.3947 34.6538 42.3826 34.6556C42.3776 34.6564 42.3727 34.6572 42.3677 34.6582C42.3561 34.6603 42.3445 34.663 42.3331 34.6665C42.3313 34.667 42.3293 34.6675 42.3274 34.6681C42.3233 34.6694 42.3195 34.6713 42.3155 34.6727C42.3081 34.6754 42.3006 34.6773 42.2933 34.6805L39.7234 35.8112C39.6796 35.8303 39.64 35.8591 39.6072 35.8933L38.9359 36.6163L32.5704 32.1654L32.57 32.1649L29.6896 29.4493L24.5214 25.1493C24.4892 25.1226 24.4526 25.1044 24.4144 25.0909C24.405 25.0875 24.3957 25.0852 24.386 25.0826C24.3495 25.0731 24.3122 25.0677 24.2744 25.0702C24.2719 25.0704 24.2696 25.069 24.2672 25.0692C24.237 25.0717 24.2068 25.0782 24.1778 25.0888L23.2037 25.4397L22.5841 25.6624C22.583 25.6628 22.5826 25.6636 22.5816 25.664L21.608 26.0143C21.5546 26.0335 21.5058 26.0665 21.4674 26.1089L17.7803 30.2079L14.9216 33.0651L13.5077 34.0753C13.479 34.0945 13.4552 34.1191 13.4333 34.1451L12.0138 35.9729L8.13595 40.1675L2.36473 33.9534C2.3442 33.9329 2.32219 33.914 2.29755 33.8976L1.31466 33.2651L1.29297 33.2423V17.3865L1.30278 17.0914L1.33223 16.7995L1.38029 16.5116L1.44747 16.2295L1.5317 15.9525L1.63402 15.6827L1.75391 15.4202L1.8893 15.1665L2.04175 14.9221L2.20918 14.6875L2.39211 14.4642L2.589 14.2523L2.80036 14.0534L3.02515 13.8679L3.26338 13.6958L3.51401 13.5402L21.5619 3.12021Z" fill="#002255"/>
<path d="M25.4588 0L25.1586 0.00981852L24.8573 0.0387573L24.5581 0.0873332L24.262 0.155546L23.97 0.242879L23.6832 0.349849L23.4026 0.476457L23.1292 0.622184L2.40852 12.5853L2.14497 12.7491L1.89486 12.9294L1.6587 13.1243L1.43701 13.3336V13.3341L1.22978 13.5558V13.5563L1.03806 13.7904V13.7909L0.861848 14.0369V14.0374L0.702168 14.2937V14.2942L0.559541 14.5604V14.5609L0.433967 14.8358V14.8363L0.32648 15.119V15.1195L0.237597 15.4099V15.4104L0.167317 15.7065V15.7071L0.116674 16.0088V16.0094L0.0856679 16.3153V16.3158L0.0753326 16.6253V16.6259V32.8502V32.8507C0.0690215 32.8585 0.0601802 32.8633 0.054662 32.8719V32.8724C0.0327799 32.9068 0.0190354 32.9439 0.0102203 32.9815V32.982C0.00931806 32.9857 0.00785948 32.9891 0.0071197 32.9928V32.9933C-0.000148403 33.0301 -0.000985248 33.0673 0.00350235 33.1039V33.1044C0.00397542 33.1081 0.00444595 33.1116 0.00505264 33.1153V33.1158C0.0110322 33.1539 0.0231374 33.1905 0.0412261 33.2248V33.2254C0.0414958 33.2259 0.0419633 33.2263 0.0422597 33.2269V33.2274C0.0506038 33.2428 0.0647352 33.2547 0.0753326 33.2688V33.2693V33.353V33.3535V33.5551V33.5556L0.0221059 33.6936V33.6941C-0.00042023 33.7527 -0.00499994 33.8127 0.00505264 33.8698V33.8703C0.0151862 33.9273 0.0398324 33.9813 0.0753326 34.0279V34.0284V48.3753V48.3759L0.0856679 48.6854V48.6859L0.116674 48.9908V48.9913V48.9918V48.9924C0.116809 48.9932 0.117058 48.9941 0.11719 48.9949V48.9955L0.167317 49.2942V49.2947L0.237597 49.5913V49.5918L0.32648 49.8812V49.8817L0.433967 50.1649V50.1654L0.559541 50.4403V50.4409L0.702168 50.707V50.7075L0.861848 50.9638V50.9643L1.0329 51.2026V51.2031L1.03806 51.2098V51.2103C1.04017 51.213 1.0427 51.2154 1.04478 51.2181V51.2186L1.22978 51.4444V51.4449L1.42977 51.6589V51.6594L1.43701 51.6666V51.6671C1.43983 51.67 1.44295 51.6726 1.44579 51.6754L1.6587 51.8759L1.89486 52.0712L2.14497 52.2506L2.40852 52.4149L23.1292 64.379L23.4026 64.5247L23.6708 64.6452C23.6796 64.6488 23.6883 64.6524 23.6971 64.656L23.97 64.7578L24.248 64.841C24.2577 64.8435 24.2673 64.8462 24.277 64.8488L24.5581 64.9134L24.8573 64.9619L25.1586 64.9909L25.4609 65.0007L25.7627 64.9909L26.0639 64.9619L26.3631 64.9134L26.6443 64.8488C26.654 64.8459 26.6635 64.8436 26.6732 64.841L26.9512 64.7578L27.2241 64.656C27.2329 64.6524 27.2416 64.6488 27.2504 64.6452L27.5186 64.5247L27.792 64.379L48.5117 52.4149L48.7752 52.2506L49.0248 52.0712H49.0253L49.2615 51.8759L49.4749 51.6749C49.4777 51.6721 49.4805 51.6698 49.4832 51.6671L49.4904 51.6594L49.6904 51.4449L49.8754 51.2186L49.8821 51.2108V51.2103L49.8873 51.2031L50.0583 50.9643L50.2108 50.7184C50.2153 50.7106 50.2197 50.7029 50.2242 50.6951L50.3606 50.4409L50.48 50.1783C50.4837 50.1694 50.4872 50.1604 50.4909 50.1515L50.5932 49.8817L50.6826 49.5918L50.7529 49.2947L50.7999 49.0094C50.8016 48.9986 50.8031 48.9878 50.8045 48.9769L50.8345 48.6859L50.8438 48.3903C50.8438 48.3855 50.8448 48.3807 50.8448 48.3759V44.4991L50.8443 44.4986V16.6259L50.8345 16.3158L50.803 16.0094L50.7529 15.7071L50.6826 15.4104L50.5932 15.1195L50.4857 14.8363L50.3606 14.5609L50.2175 14.2942L50.0583 14.0374L49.8821 13.7909L49.6904 13.5563L49.4832 13.3341L49.2615 13.1248L49.0253 12.93L48.7752 12.7496L48.5117 12.5858L43.3476 9.60407V9.60355L27.792 0.622184L27.5186 0.476457L27.238 0.349849L26.9512 0.242879L26.6592 0.155546L26.3631 0.0873332L26.0639 0.0387573L25.7627 0.00981852L25.6898 0.0072347C25.6142 0.0026592 25.5386 0.000265184 25.4629 0H25.4598H25.4588ZM25.4598 1.51309C25.7864 1.51303 26.1098 1.57731 26.4116 1.70225C26.7133 1.82719 26.9875 2.01035 27.2185 2.24126C27.4494 2.47217 27.6326 2.74632 27.7577 3.04804C27.8827 3.34977 27.947 3.67316 27.947 3.99976C27.9471 4.32639 27.8828 4.64984 27.7578 4.95163C27.6328 5.25341 27.4496 5.52762 27.2187 5.75859C26.9877 5.98955 26.7135 6.17276 26.4117 6.29773C26.1099 6.4227 25.7865 6.487 25.4598 6.48694C25.1332 6.48693 24.8098 6.42258 24.5081 6.29758C24.2064 6.17258 23.9322 5.98936 23.7013 5.7584C23.4704 5.52744 23.2873 5.25326 23.1623 4.95151C23.0374 4.64976 22.9731 4.32635 22.9732 3.99976C22.9732 3.34026 23.2352 2.70778 23.7015 2.24145C24.1679 1.77511 24.8003 1.51311 25.4598 1.51309V1.51309ZM21.5619 3.12126C21.4956 3.40945 21.4614 3.70405 21.4601 3.99976C21.4599 6.20891 23.2507 7.99989 25.4598 8.00003C27.6692 8.00018 29.4603 6.20911 29.4601 3.99976C29.4598 3.70435 29.4266 3.4099 29.3614 3.12177L43.3476 11.1967L47.4068 13.5408L47.6574 13.6963L47.8957 13.8684L48.1205 14.0539L48.3313 14.2529L48.5287 14.4648L48.7111 14.688L48.8791 14.9226L49.0305 15.167L49.1669 15.4208L49.2858 15.6833L49.3881 15.953L49.4734 16.23L49.5405 16.5122L49.5881 16.8L49.618 17.092L49.6273 17.3871V42.2445L46.9045 39.2457C46.8963 39.2361 46.8864 39.2275 46.8782 39.2193C46.8193 39.1673 46.6774 39.0441 46.4761 38.8839L43.3476 35.4779V35.4774L42.6934 34.7658V34.7653C42.6815 34.7524 42.6686 34.741 42.6552 34.7302C42.6482 34.7245 42.6408 34.7197 42.6335 34.7147C42.6263 34.7098 42.6192 34.7045 42.6118 34.7002C42.6008 34.6938 42.5892 34.6883 42.5776 34.6832C42.5753 34.6821 42.5729 34.6805 42.5704 34.6795C42.5699 34.6793 42.5694 34.6793 42.5689 34.679C42.5563 34.6738 42.5437 34.6693 42.5306 34.6656C42.5272 34.6645 42.5238 34.6641 42.5203 34.663C42.5079 34.6598 42.4953 34.6576 42.4826 34.6558C42.4784 34.6552 42.4743 34.6547 42.4702 34.6542C42.4578 34.6529 42.4454 34.6521 42.433 34.6521C42.4283 34.6522 42.4237 34.652 42.419 34.6521C42.4069 34.6527 42.3949 34.654 42.3828 34.6558C42.3778 34.6566 42.3728 34.6573 42.3678 34.6584C42.3562 34.6605 42.3447 34.6632 42.3332 34.6666C42.3314 34.6671 42.3294 34.6676 42.3275 34.6682C42.3234 34.6695 42.3197 34.6714 42.3156 34.6728C42.3082 34.6755 42.3007 34.6774 42.2934 34.6806L39.7236 35.8113C39.6797 35.8304 39.6401 35.8592 39.6073 35.8934L38.936 36.6164L32.5705 32.1655L32.57 32.165L29.6895 29.4494L24.5214 25.1494C24.4892 25.1227 24.4525 25.1045 24.4144 25.091C24.4049 25.0876 24.3957 25.0853 24.386 25.0827C24.3495 25.0732 24.3122 25.0678 24.2744 25.0703C24.272 25.0705 24.2695 25.0691 24.2671 25.0693C24.237 25.0718 24.2068 25.0783 24.1777 25.0889L23.2036 25.4398L22.584 25.6625C22.583 25.6629 22.5825 25.6637 22.5815 25.6641L21.6079 26.0144C21.5545 26.0336 21.5056 26.0666 21.4673 26.109L17.7802 30.208L14.9215 33.0652L13.5076 34.0754C13.4788 34.0946 13.4551 34.1192 13.4332 34.1452L12.0136 35.973L8.13582 40.1676L2.3646 33.9535C2.34406 33.933 2.32206 33.9141 2.29742 33.8977L1.31453 33.2652L1.29283 33.2424V17.3871V17.3865L1.30265 17.092V17.0915L1.3321 16.8V16.7995L1.38016 16.5122V16.5117L1.44734 16.23V16.2295L1.53157 15.953V15.9525L1.63389 15.6833V15.6828L1.75378 15.4208V15.4202L1.88918 15.167V15.1665L2.04162 14.9226V14.9221L2.20905 14.688V14.6875L2.39199 14.4648V14.4642L2.58887 14.2529L2.80023 14.0539L3.02502 13.8684L3.26325 13.6963L3.51388 13.5408L21.5619 3.12126ZM14.429 13.2478L14.0264 13.9842L13.2895 14.3867L14.0264 14.7893L14.429 15.5272L14.831 14.7893L15.5679 14.3867L14.831 13.9842L14.429 13.2478ZM36.6498 13.2478L36.2478 13.9842L35.5109 14.3867L36.2478 14.7893L36.6498 15.5272L37.0524 14.7893L37.7893 14.3867L37.0524 13.9842L36.6498 13.2478ZM9.87783 15.7722C9.552 15.7722 9.28666 16.0367 9.28666 16.3639C9.28666 16.6897 9.552 16.955 9.87783 16.955C10.205 16.955 10.4695 16.6897 10.4695 16.3639C10.4695 16.0367 10.205 15.7722 9.87783 15.7722ZM40.7137 16.1871C40.3865 16.1871 40.122 16.4516 40.122 16.7788C40.122 17.1047 40.3865 17.3685 40.7137 17.3685C41.0395 17.3685 41.3033 17.1047 41.3033 16.7788C41.3033 16.4516 41.0395 16.1871 40.7137 16.1871ZM5.28483 20.2107L4.88227 20.9476L4.14433 21.3501L4.88227 21.7527L5.28483 22.4891L5.68739 21.7527L6.42378 21.3501L5.68739 20.9476L5.28483 20.2107ZM13.0828 20.5993C12.9821 20.6043 12.8842 20.6531 12.8187 20.7409C12.7037 20.8969 12.735 21.1157 12.8911 21.2307L16.8371 24.1593C16.9001 24.2058 16.9723 24.228 17.0448 24.228C17.153 24.228 17.2585 24.18 17.327 24.0869C17.4434 23.9308 17.4107 23.7115 17.2546 23.5965L13.3086 20.668C13.2409 20.6177 13.1611 20.5953 13.0828 20.5993ZM36.177 20.5993C36.1097 20.6023 36.0428 20.6249 35.9848 20.668L32.0377 23.5965C31.883 23.7115 31.8504 23.9308 31.9654 24.0869C32.0352 24.18 32.1402 24.228 32.247 24.228C32.3196 24.228 32.3938 24.2058 32.4568 24.1593L36.4023 21.2307C36.557 21.1157 36.5897 20.8969 36.4747 20.7409C36.4019 20.6433 36.2892 20.5941 36.177 20.5993ZM11.8839 25.2383C11.7147 25.2479 11.5614 25.3937 11.5537 25.5747C11.5469 25.7691 11.6976 25.9321 11.8906 25.939L17.064 26.1431H17.0779C17.2655 26.1431 17.4214 25.9953 17.4283 25.8077C17.4365 25.6133 17.2858 25.4503 17.0913 25.4434L11.918 25.2383C11.9066 25.2376 11.8952 25.2376 11.8839 25.2383ZM37.3759 25.2383L32.2005 25.4434C32.0075 25.4503 31.8569 25.6133 31.8651 25.8077C31.872 25.9953 32.0283 26.1431 32.2145 26.1431H32.2279L37.4033 25.939C37.5963 25.9321 37.7465 25.7691 37.7397 25.5747C37.7315 25.3816 37.5621 25.2341 37.3759 25.2383ZM5.30654 26.295C4.97933 26.295 4.71536 26.5604 4.71536 26.8862C4.71536 27.2134 4.97933 27.4779 5.30654 27.4779C5.63238 27.4779 5.89823 27.2134 5.89823 26.8862C5.89823 26.5604 5.63238 26.295 5.30654 26.295ZM17.1141 27.1234C17.0687 27.1255 17.0227 27.1366 16.9792 27.1575L12.5516 29.2701C12.3763 29.3522 12.3027 29.5615 12.3862 29.7367C12.4464 29.8626 12.5724 29.9367 12.7025 29.9367C12.7545 29.9367 12.8051 29.9259 12.8544 29.9026L17.2805 27.79C17.4557 27.7065 17.5299 27.4971 17.4464 27.3218C17.3837 27.1914 17.2503 27.1171 17.1141 27.1234ZM32.1447 27.1234C32.0204 27.1298 31.904 27.2023 31.8476 27.3218C31.764 27.4971 31.838 27.7065 32.0119 27.79L36.439 29.9026C36.4883 29.9259 36.5392 29.9367 36.5899 29.9367C36.7213 29.9367 36.8473 29.8626 36.9062 29.7367C36.991 29.5615 36.9157 29.3522 36.7418 29.2701L32.3142 27.1575C32.2594 27.1314 32.2012 27.1205 32.1447 27.1234ZM8.4402 28.7786L8.03815 29.515L7.30125 29.9191L8.03815 30.3217L8.4402 31.0581L8.84276 30.3217L9.57966 29.9191L8.84276 29.515L8.4402 28.7786ZM43.3409 28.7786L43.3404 28.7791L42.9384 29.515L42.2004 29.9191L42.9384 30.3217L43.3404 31.0575V31.0581H43.3409L43.3476 31.0457V31.0446L43.743 30.3217L44.4799 29.9191L43.743 29.515L43.3476 28.792V28.791L43.3409 28.7786ZM8.70581 48.0188H12.6286C12.6772 48.0188 12.7209 48.0383 12.7526 48.0699C12.7841 48.1015 12.8036 48.145 12.8038 48.1934C12.8038 48.2414 12.7842 48.2851 12.7526 48.317C12.7209 48.3488 12.6772 48.3686 12.6286 48.3686H8.70581C8.65721 48.3686 8.61344 48.3488 8.58179 48.317C8.55026 48.2852 8.53077 48.2417 8.53063 48.194V48.1934C8.53063 48.145 8.55034 48.1016 8.58179 48.0699C8.61344 48.0383 8.65721 48.0188 8.70581 48.0188ZM36.3966 48.0188H40.3194C40.3673 48.0188 40.4111 48.0383 40.4429 48.0699C40.4746 48.1015 40.4944 48.145 40.4946 48.1934V48.194C40.4946 48.2417 40.4745 48.2852 40.4429 48.317C40.4111 48.3488 40.3673 48.3686 40.3194 48.3686H36.3966C36.348 48.3686 36.3043 48.3488 36.2726 48.317C36.2412 48.2852 36.2214 48.2417 36.2214 48.194V48.1934C36.2216 48.1481 36.2387 48.1067 36.2669 48.0756C36.2952 48.0445 36.3347 48.0238 36.3791 48.0193C36.3849 48.019 36.3905 48.0193 36.3966 48.0193V48.0188Z" fill="url(#paint0_linear_152_3)"/>
<path d="M21.5618 3.12021C21.4955 3.40872 21.4613 3.7037 21.46 3.99974C21.4614 3.7037 21.4955 3.40872 21.5618 3.12021ZM21.46 3.99974C21.46 4.53699 21.5692 5.04789 21.7613 5.51593C21.5633 5.03493 21.4609 4.51992 21.46 3.99974V3.99974ZM29.3614 3.12124C29.4266 3.40953 29.4597 3.70416 29.4601 3.99974C29.4598 3.70416 29.4266 3.40953 29.3614 3.12124ZM29.4601 3.99974C29.4593 4.15973 29.4489 4.31952 29.4291 4.47827C29.4478 4.32101 29.4601 4.16205 29.4601 3.99974V3.99974ZM29.4099 4.60229C29.3942 4.6996 29.3749 4.7963 29.3521 4.89219C29.374 4.79634 29.395 4.70063 29.4099 4.60229ZM21.7675 5.53505C21.9702 6.02192 22.2644 6.46133 22.6315 6.82851C22.2617 6.45805 21.9681 6.01859 21.7675 5.53505ZM22.6315 6.82851C22.9987 7.19569 23.4376 7.48983 23.9245 7.69254C23.4411 7.49189 23.0018 7.19833 22.6315 6.82851ZM29.151 5.53918C29.1383 5.5662 29.1252 5.59307 29.1118 5.6198C29.124 5.5923 29.1394 5.567 29.151 5.53918ZM28.8219 6.1531C28.7899 6.20344 28.7568 6.25306 28.7226 6.30193C28.7572 6.25305 28.7895 6.20356 28.8219 6.1531ZM27.762 7.26259C27.7131 7.29677 27.6635 7.32985 27.6131 7.36181C27.6636 7.32942 27.7131 7.29715 27.762 7.26259ZM27.0798 7.65171C27.0531 7.66511 27.0262 7.6782 26.9992 7.69099C27.0271 7.67937 27.0523 7.66394 27.0798 7.65171ZM23.9436 7.69874C24.4116 7.89086 24.9225 7.99998 25.4598 8.00001C24.9396 7.99914 24.4246 7.8968 23.9436 7.69874ZM25.4598 8.00001C25.6221 8.00003 25.7811 7.98779 25.9383 7.96901C25.7796 7.9889 25.6198 7.99926 25.4598 8.00001ZM26.3522 7.89201C26.2564 7.91487 26.1596 7.93417 26.0623 7.94989C26.1607 7.93499 26.2564 7.91393 26.3522 7.89201ZM9.87779 15.7721C9.55195 15.7721 9.28662 16.0366 9.28662 16.3638C9.28662 16.6897 9.55195 16.955 9.87779 16.955C10.205 16.955 10.4695 16.6897 10.4695 16.3638C10.4695 16.0366 10.205 15.7721 9.87779 15.7721ZM40.7136 16.1871C40.3864 16.1871 40.1219 16.4516 40.1219 16.7788C40.1219 17.1046 40.3864 17.3684 40.7136 17.3684C41.0395 17.3684 41.3033 17.1046 41.3033 16.7788C41.3033 16.4516 41.0395 16.1871 40.7136 16.1871ZM13.0828 20.5992C12.9821 20.6043 12.8842 20.653 12.8187 20.7408C12.7037 20.8969 12.735 21.1157 12.891 21.2307L16.8371 24.1592C16.9 24.2058 16.9722 24.228 17.0448 24.228C17.153 24.228 17.2585 24.18 17.327 24.0869C17.4433 23.9308 17.4107 23.7115 17.2546 23.5965L13.3086 20.668C13.2409 20.6177 13.1611 20.5953 13.0828 20.5992ZM36.177 20.5992C36.1097 20.6023 36.0427 20.6248 35.9847 20.668L32.0377 23.5965C31.883 23.7115 31.8503 23.9308 31.9653 24.0869C32.0352 24.18 32.1402 24.228 32.247 24.228C32.3195 24.228 32.3938 24.2058 32.4568 24.1592L36.4023 21.2307C36.557 21.1157 36.5896 20.8969 36.4746 20.7408C36.4019 20.6433 36.2891 20.5941 36.177 20.5992ZM24.2671 25.0693C24.2369 25.0718 24.2068 25.0783 24.1777 25.0889L23.2036 25.4398L22.584 25.6625C22.5829 25.6628 22.5824 25.6637 22.5813 25.6641L21.6078 26.0144C21.5544 26.0336 21.5055 26.0666 21.4672 26.109L17.7801 30.208L14.9214 33.0652L13.5075 34.0754C13.4787 34.0946 13.455 34.1192 13.4331 34.1452L12.0135 35.973L8.13572 40.1676L2.36449 33.9535C2.34396 33.9329 2.32196 33.9141 2.29731 33.8977L1.31443 33.2651L1.29272 33.2424V47.6142L1.30254 47.9092L1.332 48.2012L1.38006 48.489L1.44724 48.7717L1.53147 49.0477L1.63379 49.3179L1.75368 49.5799L1.88907 49.8342L2.04152 50.0786L2.20895 50.3127L2.39188 50.5359L2.58877 50.7478L2.80013 50.9462L3.02492 51.1323L3.26315 51.3028L3.51378 51.4594L23.2413 62.8499L23.5012 62.9889L23.7684 63.1088L24.0417 63.2106L24.3197 63.2938L24.6014 63.3584L24.8861 63.4049L25.1729 63.4323L25.4608 63.4416L25.7481 63.4323L26.0349 63.4049L26.3201 63.3584L26.6018 63.2938L26.8798 63.2106L27.1526 63.1088L27.4198 62.9889L27.6803 62.8499L47.4067 51.4594L47.6573 51.3028L47.8956 51.1323L48.1204 50.9462L48.3312 50.7478L48.5286 50.5359L48.711 50.3127L48.879 50.0786L49.0304 49.8342L49.1668 49.5799L49.2857 49.3179L49.388 49.0477L49.4732 48.7717L49.5404 48.489L49.588 48.2012L49.6179 47.9092L49.6273 47.6142V42.2439L46.9044 39.2452C46.8962 39.2356 46.8863 39.227 46.8781 39.2188C46.8192 39.1668 46.6773 39.0436 46.476 38.8834L42.6933 34.7653C42.6814 34.7524 42.6685 34.741 42.6551 34.7302C42.6481 34.7245 42.6407 34.7197 42.6334 34.7147C42.6262 34.7098 42.6191 34.7045 42.6117 34.7002C42.6007 34.6938 42.5891 34.6884 42.5776 34.6832C42.5752 34.6821 42.5728 34.6805 42.5704 34.6795C42.5698 34.6793 42.5693 34.6793 42.5688 34.679C42.5562 34.6738 42.5436 34.6693 42.5305 34.6656C42.5271 34.6645 42.5236 34.664 42.5202 34.6629C42.5077 34.6598 42.4951 34.6575 42.4825 34.6557C42.4783 34.6551 42.4742 34.6546 42.4701 34.6541C42.4577 34.6528 42.4453 34.652 42.4328 34.652C42.4282 34.652 42.4236 34.6518 42.4189 34.652C42.4068 34.6525 42.3948 34.6538 42.3827 34.6556C42.3777 34.6564 42.3727 34.6572 42.3678 34.6582C42.3561 34.6604 42.3446 34.6631 42.3331 34.6665C42.3313 34.667 42.3293 34.6676 42.3274 34.6681C42.3233 34.6694 42.3196 34.6713 42.3156 34.6727C42.3081 34.6754 42.3006 34.6773 42.2933 34.6805L39.7235 35.8112C39.6797 35.8303 39.64 35.8591 39.6072 35.8933L38.9359 36.6163L32.5704 32.1654L32.5699 32.1649L29.6894 29.4493L24.5213 25.1493C24.4891 25.1226 24.4524 25.1044 24.4143 25.0909C24.4048 25.0875 24.3956 25.0852 24.3859 25.0826C24.3494 25.0731 24.3121 25.0678 24.2743 25.0702C24.2719 25.0704 24.2694 25.069 24.267 25.0692L24.2671 25.0693ZM11.8839 25.2382C11.7147 25.2479 11.5614 25.3937 11.5537 25.5747C11.5468 25.7691 11.6976 25.9321 11.8906 25.939L17.0639 26.1431H17.0779C17.2654 26.1431 17.4214 25.9953 17.4282 25.8077C17.4365 25.6133 17.2857 25.4502 17.0913 25.4434L11.918 25.2382C11.9066 25.2376 11.8951 25.2376 11.8839 25.2382H11.8839ZM37.3759 25.2382L32.2005 25.4434C32.0074 25.4502 31.8569 25.6133 31.8651 25.8077C31.8719 25.9953 32.0282 26.1431 32.2144 26.1431H32.2279L37.4033 25.939C37.5963 25.9321 37.7465 25.7691 37.7397 25.5747C37.7315 25.3816 37.5621 25.2341 37.3759 25.2382H37.3759ZM45.7955 25.7927C45.4683 25.7927 45.2038 26.0581 45.2038 26.3839C45.2038 26.7111 45.4683 26.9756 45.7955 26.9756C46.1213 26.9756 46.3867 26.7111 46.3867 26.3839C46.3867 26.0581 46.1213 25.7927 45.7955 25.7927ZM5.3065 26.295C4.97929 26.295 4.71532 26.5604 4.71532 26.8862C4.71532 27.2134 4.97929 27.4779 5.3065 27.4779C5.63234 27.4779 5.89819 27.2134 5.89819 26.8862C5.89819 26.5604 5.63234 26.295 5.3065 26.295ZM17.114 27.1234C17.0687 27.1255 17.0226 27.1366 16.9792 27.1575L12.5515 29.27C12.3763 29.3522 12.3027 29.5614 12.3862 29.7367C12.4464 29.8626 12.5724 29.9367 12.7024 29.9367C12.7545 29.9367 12.8051 29.9258 12.8544 29.9026L17.2804 27.79C17.4557 27.7065 17.5298 27.4971 17.4463 27.3218C17.3837 27.1914 17.2502 27.1171 17.114 27.1234ZM32.1447 27.1234C32.0203 27.1298 31.904 27.2023 31.8475 27.3218C31.764 27.4971 31.838 27.7065 32.0118 27.79L36.439 29.9026C36.4883 29.9258 36.5392 29.9367 36.5899 29.9367C36.7213 29.9367 36.8473 29.8626 36.9061 29.7367C36.991 29.5614 36.9157 29.3522 36.7418 29.27L32.3142 27.1575C32.2594 27.1314 32.2012 27.1205 32.1447 27.1234ZM20.2529 43.187C20.4348 43.187 20.6013 43.227 20.7515 43.3028C20.9018 43.3799 20.9779 43.4888 20.9779 43.6294L20.9681 43.65C20.9681 43.6707 20.8701 43.8571 20.673 44.2071C20.4759 44.5585 20.323 44.8355 20.21 45.0381L19.7377 45.8799C18.496 48.115 17.8758 49.4655 17.8758 49.9272C17.8758 50.0539 17.9212 50.1173 18.0122 50.1173C18.2657 50.1173 18.5122 49.9907 18.7548 49.7385C18.9909 49.4917 19.1861 49.2449 19.3377 48.998C19.4099 48.787 19.5025 48.5676 19.6162 48.3397C19.9277 47.7154 20.3312 47.1847 20.826 46.7465C21.3193 46.3096 21.8223 46.0907 22.3349 46.0907C22.6353 46.0907 22.8587 46.1803 23.0021 46.3636C23.1454 46.5455 23.2186 46.7945 23.2186 47.1087C23.2186 47.4174 23.1524 47.7647 23.0243 48.1505C22.8934 48.5364 22.7128 48.9143 22.4827 49.2864C22.6081 49.3002 22.706 49.307 22.7762 49.307C23.0918 49.307 23.3657 49.2201 23.5958 49.045C23.6069 49.034 23.6178 49.0241 23.6289 49.0146C23.812 48.6553 24.0018 48.2872 24.2061 47.8989C24.4225 47.4854 24.6142 47.113 24.7782 46.7837C24.9435 46.4543 25.0262 46.2545 25.0262 46.1842C25.1241 46.1429 25.2303 46.1212 25.342 46.1212C25.4756 46.1212 25.5869 46.1513 25.6779 46.2106C25.7688 46.2698 25.8143 46.3637 25.8143 46.4891C25.8143 46.525 25.703 46.7589 25.4784 47.193C25.9414 46.5976 26.4251 46.3 26.9295 46.3L26.9197 46.2793C27.2063 46.2793 27.4257 46.3911 27.5759 46.6157C27.7275 46.8404 27.8018 47.1382 27.8018 47.5103C27.8018 48.0008 27.6777 48.5176 27.4297 49.0606C27.1803 49.6035 26.8222 50.0595 26.3564 50.4274C25.8906 50.7953 25.3516 50.9798 24.7425 50.9798C24.427 50.9798 24.201 50.9264 24.0645 50.8217C23.9267 50.717 23.8456 50.5969 23.818 50.4646C22.9196 52.3635 22.4713 53.59 22.4713 54.144C22.4713 54.1715 22.4397 54.1869 22.3763 54.1869C22.3487 54.1869 22.2786 54.18 22.167 54.1662C22.0402 54.1442 21.9356 54.0832 21.8502 53.9812C21.7661 53.8792 21.7246 53.765 21.7246 53.6396C21.7246 53.5969 21.7284 53.5623 21.7339 53.5347C21.8814 52.8471 22.1708 52.0394 22.6021 51.1106C22.8269 50.6265 23.0813 50.1023 23.3622 49.5411C23.0037 49.711 22.6021 49.7839 22.1561 49.7587C21.8543 50.1652 21.526 50.4906 21.1732 50.7318C20.8191 50.9743 20.4625 51.094 20.1056 51.094C19.7831 51.094 19.5432 50.9991 19.3847 50.8062C19.2276 50.6133 19.1491 50.3516 19.1491 50.0223C19.1491 49.9707 19.1509 49.9181 19.1542 49.8652C18.9942 50.0738 18.824 50.2771 18.6431 50.4744C18.2656 50.8878 17.9116 51.0945 17.5822 51.0945C17.1468 51.0945 16.9306 50.867 16.9306 50.4109C16.9306 49.9974 17.082 49.4461 17.3879 48.7557C17.6925 48.0653 18.1281 47.1835 18.6959 46.1114C18.7317 46.0549 18.7768 45.9708 18.8333 45.8592C19.5899 44.3999 19.9761 43.5248 19.9898 43.2299C20.0532 43.2024 20.1399 43.187 20.2529 43.187H20.2529ZM16.5198 45.9641C16.7168 45.9641 16.8781 46.0041 17.0035 46.084C17.1302 46.1653 17.2184 46.2575 17.2722 46.3636C17.3245 46.4683 17.3507 46.5632 17.3507 46.6473C17.3507 46.6748 17.1826 46.6886 16.8464 46.6886C16.5239 46.7175 16.3132 46.8156 16.2154 46.9837C16.0817 47.2083 16.0294 47.4427 16.0583 47.688C16.0721 47.8148 16.1051 47.9375 16.1575 48.056C16.2099 48.1759 16.2855 48.3119 16.3833 48.4663L16.4355 48.5076C16.6037 48.7956 16.706 48.9777 16.7404 49.0549C16.8603 49.307 16.9123 49.5883 16.8986 49.8956C16.8834 50.1905 16.7924 50.4289 16.6257 50.6108C16.4355 50.8217 16.1585 50.9443 15.7947 50.9788C15.7451 50.987 15.668 50.9896 15.5632 50.9896C15.3248 50.9896 15.1033 50.955 14.9007 50.8847C14.6623 50.8007 14.4803 50.678 14.3535 50.5168C14.2556 50.39 14.1964 50.237 14.1757 50.0538C14.1619 49.9559 14.1535 49.8788 14.1535 49.8223C14.1535 49.6679 14.1757 49.515 14.2171 49.3592C14.2598 49.2063 14.3232 49.0728 14.4072 48.9598C14.483 48.8413 14.5531 48.7915 14.6165 48.8135C14.6799 48.8342 14.7116 48.9291 14.7116 49.0972C14.7116 49.2378 14.7393 49.3634 14.7958 49.475C14.8523 49.588 14.9393 49.6652 15.0578 49.7065C15.1212 49.7272 15.1846 49.738 15.248 49.738C15.3596 49.738 15.4699 49.7134 15.5787 49.6652C15.6876 49.6156 15.7841 49.5492 15.8681 49.4652C15.9811 49.3536 16.0318 49.2295 16.0263 49.0972C16.018 49.0132 15.966 48.9157 15.8681 48.8027C15.8199 48.7545 15.7413 48.6799 15.6366 48.582L15.4051 48.3603C15.2866 48.2349 15.1956 48.0877 15.1323 47.9195C15.0689 47.7514 15.0372 47.5828 15.0372 47.4147C15.0372 47.1694 15.0975 46.9478 15.216 46.7522C15.3414 46.5344 15.5288 46.3499 15.7782 46.1956C16.0276 46.0413 16.2745 45.9641 16.5198 45.9641L16.5198 45.9641ZM34.2469 45.9641C34.4439 45.9641 34.6051 46.0041 34.7305 46.084C34.8573 46.1653 34.9469 46.2575 34.9993 46.3636C35.0516 46.4683 35.0778 46.5632 35.0778 46.6473C35.0778 46.6748 34.9097 46.6886 34.5734 46.6886C34.251 46.7175 34.0403 46.8156 33.9425 46.9837C33.8102 47.2083 33.7564 47.4427 33.7854 47.688C33.7992 47.8148 33.8322 47.9375 33.8846 48.056C33.937 48.1759 34.0126 48.3119 34.1104 48.4663L34.1642 48.5076C34.3323 48.7956 34.4327 48.9777 34.4685 49.0549C34.5871 49.307 34.6394 49.5883 34.6256 49.8956C34.6119 50.1905 34.5209 50.4289 34.3528 50.6108C34.164 50.8217 33.887 50.9443 33.5218 50.9788C33.4736 50.987 33.395 50.9896 33.2903 50.9896C33.0519 50.9896 32.8318 50.955 32.6278 50.8847C32.3894 50.8007 32.2075 50.678 32.0821 50.5168C31.9829 50.39 31.9235 50.237 31.9028 50.0538C31.889 49.9559 31.8821 49.8788 31.8821 49.8223C31.8821 49.7427 31.8875 49.6634 31.8987 49.584C31.4723 49.9645 31.0352 50.2811 30.5882 50.5323C29.9088 50.9154 29.2665 51.1054 28.6643 51.1054C28.3418 51.1054 28.1024 51.0075 27.9439 50.8119C27.7868 50.6148 27.7067 50.3516 27.7067 50.0222C27.7067 49.5248 27.864 48.9586 28.1754 48.3247C28.4868 47.6894 28.8903 47.1518 29.3836 46.7108C29.8783 46.2685 30.3815 46.0478 30.8941 46.0478C31.2579 46.0478 31.5278 46.125 31.7028 46.2793C31.8778 46.4337 31.9664 46.6404 31.9664 46.8994C31.9664 47.2288 31.8408 47.5983 31.5928 48.0089C31.3433 48.4182 31.0331 48.7653 30.661 49.0492C30.2903 49.3331 29.9324 49.4765 29.5893 49.4765C29.366 49.4765 29.1688 49.4118 29.0007 49.2864C28.9869 49.3842 28.98 49.4519 28.98 49.4864C28.98 49.6545 29.0157 49.7851 29.0901 49.8801C29.1631 49.9752 29.2778 50.0222 29.4322 50.0222C29.993 50.0222 30.5029 49.912 30.9618 49.6915C31.4221 49.4697 31.7941 49.2025 32.0821 48.8869V48.8755C32.18 48.8135 32.2749 48.782 32.3658 48.782C32.4637 48.782 32.5269 48.8344 32.5545 48.9391C32.5156 48.9811 32.4767 49.0223 32.4377 49.0631C32.4379 49.0744 32.4387 49.0852 32.4387 49.0972C32.4387 49.2378 32.4665 49.3634 32.523 49.475C32.5795 49.588 32.6675 49.6652 32.786 49.7065C32.8494 49.7272 32.9131 49.738 32.9751 49.738C33.0868 49.738 33.198 49.7134 33.3069 49.6652C33.4158 49.6155 33.5112 49.5492 33.5953 49.4652C33.7082 49.3535 33.7603 49.2295 33.7534 49.0972C33.7465 49.0132 33.6945 48.9157 33.5953 48.8027C33.547 48.7544 33.4695 48.6799 33.3648 48.582L33.1333 48.3603C33.0134 48.2349 32.9228 48.0876 32.8594 47.9195C32.7974 47.7514 32.7653 47.5828 32.7653 47.4146C32.7653 47.1694 32.8248 46.9478 32.9446 46.7522C33.07 46.5344 33.2575 46.3499 33.5069 46.1956C33.7549 46.0413 34.003 45.9641 34.2469 45.9641L34.2469 45.9641ZM30.7783 47.1103C30.5041 47.1103 30.2271 47.2443 29.9474 47.5144C29.6663 47.7845 29.4322 48.1125 29.242 48.4983C29.3825 48.5824 29.5186 48.6234 29.6523 48.6234C29.8631 48.6234 30.0688 48.5448 30.2672 48.3877C30.4684 48.2293 30.6307 48.0432 30.7561 47.8296C30.8829 47.616 30.9452 47.44 30.9452 47.2994C30.9452 47.1726 30.8943 47.1103 30.7881 47.1103H30.7783ZM22.2398 47.1516C21.967 47.1516 21.6915 47.2674 21.4146 47.4989C21.1376 47.7304 20.9076 48.0074 20.7257 48.3298C20.5438 48.6523 20.4529 48.9362 20.4529 49.1815C20.4529 49.322 20.4914 49.4338 20.5686 49.5179C20.6458 49.6019 20.7614 49.6445 20.9143 49.6445C21.0204 49.6445 21.125 49.6228 21.2311 49.5815L21.1665 49.5608C21.0976 49.5388 21.0468 49.4986 21.0151 49.4393C20.9834 49.3801 20.9749 49.3138 20.9887 49.2435C21.0094 49.1746 21.0496 49.1169 21.1102 49.0714C21.1694 49.0246 21.2366 49.0027 21.3138 49.0027C21.3565 49.0027 21.3882 49.0066 21.4089 49.0135C21.5067 49.048 21.6542 49.0935 21.8512 49.15L21.861 49.1608C22.0926 48.9362 22.2839 48.6745 22.4341 48.3769C22.5857 48.0792 22.6605 47.8176 22.6605 47.5929C22.6605 47.2994 22.5196 47.1516 22.2398 47.1516V47.1516ZM26.8137 47.163C26.5615 47.163 26.2609 47.3449 25.9151 47.7087C25.5678 48.0739 25.2622 48.487 25.0004 48.95C24.7372 49.4116 24.6061 49.7523 24.6061 49.9701C24.6061 50.0886 24.6516 50.1489 24.7425 50.1489C25.0581 50.1489 25.3943 49.9821 25.7512 49.6486C26.1095 49.3165 26.4143 48.9279 26.6664 48.487C26.92 48.046 27.0452 47.6989 27.0452 47.4467C27.0452 47.2579 26.9681 47.163 26.8137 47.163V47.163Z" fill="#0044AA"/>
<path d="M22.5355 26.4258L21.9283 26.6444L18.2882 30.6896L15.3979 33.5814C15.3842 33.5951 15.3694 33.6072 15.353 33.6181L13.9562 34.6165L12.549 36.4262L5.00425 44.5885C4.93443 44.6624 4.84137 44.7006 4.7469 44.7006C4.66202 44.7006 4.57712 44.6692 4.50867 44.6076C4.36629 44.4762 4.35813 44.2544 4.48955 44.112L7.55913 40.7913C7.5075 40.784 7.45682 40.7655 7.41237 40.7334L5.73082 39.5779L2.94908 37.2463L2.9806 37.5254C3.0025 37.7129 2.8712 37.8826 2.68501 37.9114C2.49745 37.9401 2.32321 37.8156 2.28762 37.6308C2.28542 37.6188 2.05753 36.5823 1.29285 35.7177V47.6142L1.30266 47.9092L1.33212 48.2012L1.38018 48.489L1.44736 48.7717L1.53159 49.0477L1.63391 49.3179L1.7538 49.5799L1.88919 49.8342L2.04164 50.0786L2.20907 50.3127L2.392 50.5359L2.58889 50.7478L2.80025 50.9462L3.02504 51.1323L3.26327 51.3028L3.5139 51.4594L23.2414 62.8499L23.5013 62.9889L23.7685 63.1088L24.0418 63.2106L24.3199 63.2938L24.6015 63.3584L24.8862 63.4049L25.173 63.4323L25.4609 63.4416L25.7482 63.4323L26.035 63.4049L26.3203 63.3584L26.6019 63.2938L26.8799 63.2106L27.1528 63.1088L27.4199 62.9889L27.6804 62.8499L47.4068 51.4594L47.6575 51.3028L47.8957 51.1323L48.1205 50.9462L48.3313 50.7478L48.5287 50.5359L48.7111 50.3127L48.8791 50.0786L49.0305 49.8342L49.1669 49.5799L49.2858 49.3179L49.3881 49.0477L49.4734 48.7717L49.5406 48.489L49.5881 48.2012L49.6181 47.9092L49.6274 47.6142V43.3684L45.9764 39.3857C45.0343 38.6618 43.3239 37.6068 42.54 38.254C41.2393 39.3232 40.3111 41.0784 40.3029 41.0962C40.2276 41.2386 40.0647 41.3108 39.9086 41.2724C39.7511 41.2341 39.6414 41.0945 39.6414 40.9329V40.5443L38.0193 41.952C37.8879 42.067 37.6908 42.0656 37.5594 41.9504C37.4266 41.834 37.4015 41.6395 37.4974 41.493L39.6058 38.3196C39.6208 38.2977 39.6376 38.2769 39.6554 38.2591L41.9472 36.0686L42.0098 35.572L40.0714 36.4236L35.5822 41.2574C35.4508 41.3998 35.229 41.4079 35.0867 41.2765C34.9457 41.1451 34.9377 40.9233 35.0691 40.7809L38.256 37.3486L34.6717 35.0407L32.9483 33.8661C32.9332 33.9866 32.8552 34.0933 32.7416 34.1426C32.6129 34.1987 32.465 34.1738 32.3623 34.078L30.7577 32.5954L29.3382 32.505L29.8389 34.5079C29.8773 34.6585 29.8103 34.8159 29.6761 34.894C29.542 34.9734 29.3722 34.9542 29.2586 34.8475L24.7762 30.6064C24.7488 30.5818 24.7258 30.5499 24.708 30.517L22.5355 26.4258ZM0.00610352 33.8615C0.00718831 33.8688 0.00919915 33.875 0.0107549 33.8822C0.00943198 33.8752 0.00698987 33.8686 0.00610352 33.8615ZM15.124 37.5476H17.9528V37.7119H17.3394L18.792 42.0352L20.2963 37.7119H19.6214V37.5476H20.9454V37.7119H20.5387L18.4536 43.6878H17.728L15.5225 37.7119H15.124V37.5476ZM28.6659 38.2731C29.0725 38.2731 29.3666 38.4991 29.3666 38.9139C29.3666 39.3123 29.1067 39.4844 28.8219 39.4844C28.5618 39.4844 28.3369 39.3283 28.3191 39.0353L28.5615 38.8876C28.5875 38.7493 28.5355 38.6194 28.3548 38.6194C28.2495 38.6194 28.0143 38.6508 27.9853 39.0958C27.9834 39.1255 27.9826 39.1569 27.9826 39.1904C27.9826 39.3287 28.0001 39.5025 28.0426 39.7092C28.3807 39.9337 28.6999 40.2364 28.6999 40.8073C28.6999 41.6698 28.1569 42.1547 27.315 42.2625C27.2548 42.2702 27.1931 42.2763 27.13 42.2801C27.0669 42.2839 27.0026 42.2858 26.9367 42.2858C26.6862 42.2858 26.4175 42.2513 26.2354 42.2171C25.9329 42.4074 25.8551 42.5023 25.8551 42.5803C25.8551 42.6584 25.9508 42.7018 26.4081 42.7018H27.2912C28.2382 42.7018 29.1925 42.9202 29.2513 44.003C29.2531 44.0379 29.2544 44.0737 29.2544 44.1105C29.2544 45.0702 28.5617 45.7621 26.8147 45.7621C25.3101 45.7621 24.679 45.3989 24.679 44.8376C24.679 44.405 25.043 44.231 25.3456 44.1461L25.8644 44.3792C25.8124 44.5695 25.7946 44.7158 25.7946 44.8541C25.7946 45.0362 25.8401 45.2223 26.0014 45.3626C26.0215 45.3802 26.0436 45.3967 26.0675 45.4127C26.2348 45.5249 26.4972 45.5977 26.9021 45.5977C26.9593 45.5977 27.0151 45.5959 27.069 45.5931C27.1767 45.5874 27.2778 45.576 27.3718 45.5595C27.9831 45.4521 28.303 45.1242 28.303 44.6815C28.303 44.2667 28.1126 44.1027 27.2049 44.1027H26.3657C25.3361 44.1027 25.0593 43.6779 25.0593 43.2987C25.0593 42.8058 25.3703 42.5624 26.0453 42.1571C25.3703 41.9668 25.0433 41.5602 25.0433 40.8414C25.0433 40.0296 25.6042 39.3986 26.9103 39.3986C27.3334 39.3986 27.5852 39.4586 27.87 39.6146C27.8357 39.4586 27.8183 39.3204 27.8183 39.1904C27.8183 38.4812 28.3112 38.2731 28.6658 38.2731H28.6659ZM22.6569 39.3986C24.0137 39.3986 24.5941 40.0818 24.5421 41.3701H22.1024V41.7065C22.1024 41.7702 22.103 41.833 22.1045 41.8941C22.1276 42.8106 22.3368 43.4196 23.1236 43.4196C23.763 43.4196 24.1958 43.013 24.3861 42.3463L24.5421 42.3721C24.3422 43.1169 23.8933 43.6878 22.6652 43.6878C21.1264 43.6878 20.4333 42.8047 20.4333 41.552C20.4333 40.0556 21.4549 39.3986 22.657 39.3986L22.6569 39.3986ZM31.2683 39.3986C32.625 39.3986 33.0837 39.7789 33.0837 41.0316V42.7881C33.0837 43.1427 33.1878 43.2372 33.3343 43.2372C33.4904 43.2372 33.6381 43.0732 33.6805 42.3463L33.8108 42.3555C33.767 43.3933 33.4481 43.6878 32.7033 43.6878C32.6159 43.6878 32.5331 43.6842 32.4553 43.6774C31.9105 43.6302 31.6005 43.4183 31.5106 43.047C31.3724 43.4618 31.1205 43.6878 30.5154 43.6878C29.9102 43.6878 29.2353 43.5055 29.2353 42.6403C29.2353 41.7668 29.9881 41.5685 31.2244 41.5685H31.475V40.9029C31.475 39.8035 31.3806 39.519 31.0342 39.519C30.9955 39.519 30.9509 39.5231 30.9055 39.534C30.8942 39.5367 30.8827 39.5397 30.8714 39.5433C30.7467 39.5825 30.6275 39.6751 30.6275 39.8652C30.6275 39.9337 30.6455 40.0214 30.6797 40.1159H30.8957C30.9395 40.2281 30.966 40.3402 30.966 40.5045C30.966 40.8603 30.7141 41.1101 30.3614 41.167C30.3362 41.171 30.3105 41.1742 30.2844 41.1763C30.2582 41.1784 30.2318 41.1794 30.2048 41.1794C29.6681 41.1794 29.4612 40.8851 29.4612 40.4621C29.4612 40.3939 29.4667 40.3291 29.4777 40.2678C29.4814 40.2473 29.4857 40.2275 29.4906 40.2078C29.6275 39.6564 30.2392 39.3986 31.2683 39.3986L31.2683 39.3986ZM26.9021 39.5531C26.6598 39.5531 26.4861 39.7093 26.4861 40.6513V41.1195C26.4861 41.9313 26.6341 42.1132 26.8928 42.1132C27.1269 42.1132 27.2732 41.975 27.2732 41.0755V40.6513C27.2732 39.6833 27.1349 39.5531 26.9021 39.5531V39.5531ZM22.5789 39.5625C22.2763 39.5625 22.1117 39.8568 22.1117 40.7727V41.196H23.0016V40.7727C23.0016 39.865 22.9335 39.5625 22.5789 39.5625ZM31.415 41.7065C31.0522 41.7065 30.8797 41.967 30.8797 42.4941V42.632C30.8797 43.255 30.9397 43.3416 31.1039 43.3416C31.2682 43.3416 31.475 43.0647 31.475 42.5116V41.7065H31.415ZM20.2529 43.187C20.4348 43.187 20.6014 43.227 20.7516 43.3028C20.9018 43.38 20.978 43.4888 20.978 43.6294L20.9681 43.6501C20.9681 43.6707 20.8701 43.8571 20.6731 44.2071C20.476 44.5585 20.323 44.8355 20.21 45.0381L19.7377 45.8799C18.4961 48.1151 17.8758 49.4656 17.8758 49.9272C17.8758 50.054 17.9213 50.1174 18.0122 50.1174C18.2658 50.1174 18.5123 49.9908 18.7548 49.7386C18.9909 49.4917 19.1861 49.2449 19.3377 48.9981C19.4099 48.787 19.5025 48.5677 19.6163 48.3397C19.9277 47.7154 20.3313 47.1847 20.826 46.7465C21.3194 46.3097 21.8223 46.0907 22.335 46.0907C22.6354 46.0907 22.8588 46.1803 23.0021 46.3636C23.1454 46.5455 23.2186 46.7946 23.2186 47.1088C23.2186 47.4174 23.1525 47.7647 23.0243 48.1506C22.8934 48.5364 22.7129 48.9143 22.4828 49.2864C22.6082 49.3002 22.706 49.3071 22.7763 49.3071C23.0919 49.3071 23.3658 49.2201 23.5959 49.0451C23.6069 49.034 23.6179 49.0241 23.629 49.0146C23.8121 48.6554 24.0019 48.2872 24.2062 47.8989C24.4225 47.4855 24.6143 47.1131 24.7782 46.7837C24.9436 46.4544 25.0263 46.2545 25.0263 46.1843C25.1241 46.1429 25.2304 46.1212 25.342 46.1212C25.4757 46.1212 25.587 46.1514 25.6779 46.2106C25.7689 46.2699 25.8144 46.3638 25.8144 46.4892C25.8144 46.525 25.7031 46.7589 25.4785 47.193C25.9415 46.5977 26.4252 46.3 26.9295 46.3L26.9197 46.2794C27.2063 46.2794 27.4258 46.3912 27.576 46.6158C27.7276 46.8404 27.8018 47.1382 27.8018 47.5103C27.8018 48.0009 27.6778 48.5176 27.4298 49.0606C27.1803 49.6035 26.8222 50.0595 26.3564 50.4274C25.8907 50.7954 25.3517 50.9798 24.7426 50.9798C24.427 50.9798 24.201 50.9264 24.0646 50.8217C23.9268 50.717 23.8457 50.5969 23.8181 50.4646C23.0972 51.9882 22.6715 53.0713 22.5293 53.729V55.2003C22.5293 55.4809 22.6119 55.5573 22.7282 55.5573C22.8515 55.5573 22.9674 55.4273 23.0016 54.8509L23.1044 54.8582C23.0702 55.681 22.8172 55.9134 22.2285 55.9134C22.159 55.9134 22.0934 55.911 22.0316 55.9056C21.5992 55.8683 21.3542 55.7001 21.2823 55.4054C21.1728 55.7353 20.9745 55.9134 20.4953 55.9134C20.0161 55.9134 19.4804 55.7699 19.4804 55.084C19.4804 54.3926 20.0776 54.2349 21.0565 54.2349H21.2549V53.7068C21.2549 52.8374 21.1794 52.6113 20.9056 52.6113C20.7824 52.6113 20.5842 52.6661 20.5842 52.8851C20.5842 52.9399 20.5976 53.0083 20.625 53.0836H20.7961C20.8303 53.1726 20.8508 53.2615 20.8508 53.3916C20.8508 53.6731 20.6519 53.8718 20.3728 53.9171C20.3529 53.9203 20.3326 53.9227 20.3118 53.9243C20.2911 53.9259 20.2702 53.927 20.2488 53.927C19.823 53.927 19.6587 53.6929 19.6587 53.3575C19.6587 52.7825 20.1596 52.5157 21.0906 52.5157C21.4605 52.5157 21.7463 52.5511 21.9619 52.6382C21.9695 52.6413 21.9767 52.6447 21.9841 52.648C21.982 52.6542 21.981 52.6593 21.9789 52.6656C22.1363 52.19 22.3398 51.6755 22.6022 51.1106C22.827 50.6266 23.0814 50.1024 23.3623 49.5412C23.0038 49.7111 22.6021 49.784 22.1562 49.7588C21.8544 50.1653 21.5261 50.4907 21.1733 50.7318C20.8192 50.9744 20.4626 51.0941 20.1057 51.0941C19.7832 51.0941 19.5433 50.9992 19.3848 50.8062C19.2277 50.6133 19.1491 50.3517 19.1491 50.0223C19.1491 49.9707 19.151 49.9182 19.1543 49.8652C18.9943 50.0738 18.8241 50.2772 18.6432 50.4745C18.2656 50.8879 17.9117 51.0946 17.5823 51.0946C17.1469 51.0946 16.9307 50.8671 16.9307 50.4109C16.9307 49.9975 17.0821 49.4461 17.388 48.7557C17.6926 48.0653 18.1282 47.1836 18.6959 46.1114C18.7318 46.0549 18.7769 45.9709 18.8334 45.8593C19.5899 44.3999 19.9761 43.5249 19.9899 43.23C20.0533 43.2024 20.1399 43.1871 20.253 43.1871L20.2529 43.187ZM16.5198 45.9641C16.7169 45.9641 16.8781 46.0041 17.0035 46.084C17.1303 46.1653 17.2185 46.2575 17.2722 46.3636C17.3246 46.4683 17.3508 46.5632 17.3508 46.6473C17.3508 46.6748 17.1827 46.6886 16.8464 46.6886C16.524 46.7176 16.3133 46.8156 16.2155 46.9837C16.0818 47.2083 16.0294 47.4428 16.0584 47.6881C16.0721 47.8148 16.1052 47.9375 16.1576 48.056C16.2099 48.1759 16.2856 48.312 16.3834 48.4663L16.4356 48.5076C16.6037 48.7957 16.706 48.9777 16.7405 49.0549C16.8604 49.3071 16.9124 49.5884 16.8986 49.8957C16.8835 50.1906 16.7925 50.429 16.6258 50.6109C16.4356 50.8217 16.1586 50.9444 15.7948 50.9788C15.7452 50.9871 15.668 50.9897 15.5633 50.9897C15.3249 50.9897 15.1034 50.955 14.9008 50.8848C14.6624 50.8007 14.4803 50.6781 14.3535 50.5168C14.2557 50.39 14.1965 50.2371 14.1758 50.0538C14.162 49.956 14.1536 49.8788 14.1536 49.8223C14.1536 49.668 14.1758 49.515 14.2171 49.3593C14.2598 49.2063 14.3232 49.0728 14.4073 48.9598C14.4831 48.8413 14.5532 48.7915 14.6166 48.8136C14.68 48.8342 14.7117 48.9292 14.7117 49.0973C14.7117 49.2378 14.7394 49.3634 14.7959 49.475C14.8524 49.588 14.9394 49.6652 15.0579 49.7065C15.1213 49.7272 15.1847 49.7381 15.2481 49.7381C15.3597 49.7381 15.4699 49.7134 15.5788 49.6652C15.6877 49.6156 15.7841 49.5493 15.8682 49.4652C15.9812 49.3536 16.0318 49.2296 16.0263 49.0973C16.018 49.0132 15.966 48.9157 15.8682 48.8027C15.82 48.7545 15.7414 48.6799 15.6367 48.5821L15.4052 48.3604C15.2867 48.235 15.1957 48.0877 15.1323 47.9196C15.0689 47.7514 15.0372 47.5828 15.0372 47.4147C15.0372 47.1694 15.0975 46.9479 15.216 46.7522C15.3414 46.5345 15.5288 46.35 15.7783 46.1956C16.0277 46.0413 16.2745 45.9641 16.5198 45.9641L16.5198 45.9641ZM34.2469 45.9641C34.444 45.9641 34.6052 46.0041 34.7306 46.084C34.8574 46.1653 34.947 46.2575 34.9993 46.3636C35.0517 46.4683 35.0779 46.5632 35.0779 46.6473C35.0779 46.6748 34.9097 46.6886 34.5735 46.6886C34.251 46.7176 34.0404 46.8156 33.9425 46.9837C33.8102 47.2083 33.7565 47.4428 33.7854 47.6881C33.7992 47.8148 33.8323 47.9375 33.8847 48.056C33.937 48.1759 34.0126 48.312 34.1105 48.4663L34.1642 48.5076C34.3323 48.7957 34.4328 48.9777 34.4686 49.0549C34.5871 49.3071 34.6395 49.5884 34.6257 49.8957C34.6119 50.1906 34.521 50.429 34.3528 50.6109C34.1641 50.8217 33.8871 50.9444 33.5219 50.9788C33.4737 50.9871 33.3951 50.9897 33.2904 50.9897C33.052 50.9897 32.8318 50.955 32.6279 50.8848C32.3895 50.8007 32.2076 50.6781 32.0822 50.5168C31.983 50.39 31.9235 50.2371 31.9029 50.0538C31.8891 49.956 31.8822 49.8788 31.8822 49.8223C31.8822 49.7427 31.8876 49.6635 31.8987 49.5841C31.4723 49.9646 31.0353 50.2811 30.5882 50.5323C29.9089 50.9154 29.2665 51.1054 28.6643 51.1054C28.3418 51.1054 28.1024 51.0076 27.9439 50.8119C27.7868 50.6148 27.7067 50.3516 27.7067 50.0223C27.7067 49.5248 27.864 48.9586 28.1755 48.3247C28.4869 47.6894 28.8903 47.1518 29.3836 46.7109C29.8784 46.2685 30.3815 46.0478 30.8942 46.0478C31.258 46.0478 31.5279 46.125 31.7029 46.2794C31.8779 46.4337 31.9664 46.6404 31.9664 46.8995C31.9664 47.2288 31.8409 47.5983 31.5928 48.009C31.3434 48.4182 31.0332 48.7653 30.6611 49.0492C30.2904 49.3331 29.9325 49.4766 29.5893 49.4766C29.3661 49.4766 29.1688 49.4118 29.0007 49.2864C28.9869 49.3842 28.9801 49.4519 28.9801 49.4864C28.9801 49.6545 29.0157 49.7851 29.0901 49.8802C29.1632 49.9753 29.2779 50.0223 29.4322 50.0223C29.9931 50.0223 30.503 49.912 30.9619 49.6916C31.4221 49.4697 31.7942 49.2025 32.0822 48.8869V48.8756C32.18 48.8136 32.275 48.782 32.3659 48.782C32.4637 48.782 32.527 48.8344 32.5545 48.9391C32.5157 48.9811 32.4768 49.0223 32.4377 49.0632C32.438 49.0745 32.4388 49.0852 32.4388 49.0973C32.4388 49.2378 32.4665 49.3634 32.523 49.475C32.5795 49.588 32.6675 49.6652 32.7861 49.7065C32.8494 49.7272 32.9132 49.7381 32.9752 49.7381C33.0868 49.7381 33.1981 49.7134 33.307 49.6652C33.4158 49.6156 33.5112 49.5493 33.5953 49.4652C33.7083 49.3536 33.7603 49.2296 33.7534 49.0973C33.7466 49.0132 33.6945 48.9157 33.5953 48.8027C33.5471 48.7545 33.4696 48.6799 33.3648 48.5821L33.1333 48.3604C33.0134 48.235 32.9228 48.0877 32.8594 47.9196C32.7974 47.7514 32.7654 47.5828 32.7654 47.4147C32.7654 47.1694 32.8248 46.9479 32.9447 46.7522C33.0701 46.5345 33.2575 46.35 33.5069 46.1956C33.755 46.0413 34.003 45.9641 34.2469 45.9641L34.2469 45.9641ZM30.7784 47.1103C30.5042 47.1103 30.2272 47.2443 29.9474 47.5144C29.6663 47.7845 29.4322 48.1125 29.242 48.4983C29.3826 48.5824 29.5187 48.6234 29.6524 48.6234C29.8632 48.6234 30.0689 48.5449 30.2673 48.3878C30.4685 48.2293 30.6308 48.0432 30.7562 47.8297C30.8829 47.6161 30.9453 47.44 30.9453 47.2995C30.9453 47.1727 30.8943 47.1103 30.7882 47.1103H30.7784ZM22.2399 47.1517C21.967 47.1517 21.6916 47.2674 21.4146 47.4989C21.1376 47.7304 20.9077 48.0074 20.7258 48.3299C20.5439 48.6523 20.4529 48.9362 20.4529 49.1815C20.4529 49.3221 20.4915 49.4339 20.5687 49.5179C20.6458 49.602 20.7614 49.6445 20.9144 49.6445C21.0205 49.6445 21.1251 49.6228 21.2312 49.5815L21.1666 49.5608C21.0977 49.5388 21.0469 49.4986 21.0152 49.4394C20.9835 49.3801 20.975 49.3138 20.9888 49.2435C21.0095 49.1746 21.0496 49.1169 21.1102 49.0714C21.1695 49.0246 21.2367 49.0027 21.3139 49.0027C21.3566 49.0027 21.3883 49.0067 21.4089 49.0136C21.5068 49.048 21.6542 49.0935 21.8513 49.15L21.8611 49.1608C22.0926 48.9362 22.284 48.6746 22.4342 48.3769C22.5858 48.0792 22.6605 47.8176 22.6605 47.593C22.6605 47.2994 22.5196 47.1517 22.2399 47.1517V47.1517ZM26.8138 47.163C26.5616 47.163 26.261 47.3449 25.9151 47.7087C25.5678 48.0739 25.2623 48.487 25.0004 48.95C24.7372 49.4117 24.6062 49.7524 24.6062 49.9701C24.6062 50.0886 24.6516 50.1489 24.7426 50.1489C25.0581 50.1489 25.3944 49.9822 25.7513 49.6487C26.1096 49.3166 26.4143 48.928 26.6665 48.487C26.9201 48.046 27.0453 47.6989 27.0453 47.4467C27.0453 47.258 26.9681 47.163 26.8138 47.163V47.163ZM8.70583 48.0183H12.6286C12.7258 48.0183 12.8038 48.0963 12.8038 48.1935C12.8038 48.2893 12.7258 48.3686 12.6286 48.3686H8.70583C8.60863 48.3686 8.53065 48.2893 8.53065 48.1935C8.53065 48.0963 8.60863 48.0183 8.70583 48.0183V48.0183ZM36.3966 48.0183H40.3194C40.4152 48.0183 40.4946 48.0963 40.4946 48.1935C40.4946 48.2893 40.4152 48.3686 40.3194 48.3686H36.3966C36.2994 48.3686 36.2215 48.2893 36.2215 48.1935C36.2215 48.1023 36.2904 48.0277 36.3791 48.0188C36.385 48.0183 36.3906 48.0183 36.3966 48.0183V48.0183ZM30.4182 51.6243C30.7399 51.6243 30.9727 51.8023 30.9727 52.1322C30.9727 52.4471 30.7674 52.5839 30.5402 52.5839C30.3348 52.5839 30.1565 52.4606 30.1428 52.2278L30.3345 52.11C30.355 52.0019 30.3153 51.8992 30.1702 51.8992C30.0867 51.8992 29.9011 51.9237 29.8782 52.2764C29.8766 52.2999 29.8761 52.3248 29.8761 52.3513C29.8761 52.4609 29.8894 52.5974 29.9236 52.7617C30.1906 52.9396 30.4455 53.1796 30.4455 53.6314C30.4455 54.12 30.2257 54.4555 29.8569 54.6385C29.8385 54.6477 29.8198 54.6565 29.8006 54.6649C29.6664 54.7236 29.5142 54.7634 29.3474 54.7848C29.2998 54.7909 29.2512 54.7957 29.2012 54.7987C29.1512 54.8018 29.0999 54.8034 29.0477 54.8034C28.8478 54.8034 28.637 54.776 28.4932 54.7486C28.2523 54.8992 28.1904 54.9743 28.1904 55.0359C28.1904 55.0975 28.2658 55.1315 28.6286 55.1315H29.3283C30.1018 55.1315 30.8838 55.3164 30.8838 56.2488C30.8838 56.6532 30.7284 56.9974 30.3758 57.2312C30.355 57.2449 30.3338 57.2585 30.3117 57.2715C30.0021 57.4531 29.5565 57.5577 28.9516 57.5577C27.7591 57.5577 27.2597 57.2703 27.2597 56.8239C27.2597 56.4817 27.5472 56.3446 27.7868 56.2762L28.1976 56.4612C28.1565 56.6118 28.1428 56.7278 28.1428 56.8374C28.1428 56.9818 28.1785 57.1296 28.3061 57.241C28.3221 57.2549 28.3394 57.268 28.3583 57.2808C28.4909 57.3698 28.6993 57.4275 29.0203 57.4275C29.0657 57.4275 29.1094 57.4267 29.1521 57.4244C29.2374 57.4199 29.3174 57.4107 29.3919 57.3976C29.876 57.312 30.1293 57.0514 30.1293 56.701C30.1293 56.3724 29.9788 56.2421 29.2601 56.2421H28.596C28.0351 56.2421 27.7559 56.0835 27.6364 55.8865C27.6255 55.8686 27.6163 55.8502 27.608 55.8318C27.5747 55.758 27.561 55.6807 27.561 55.6054C27.561 55.2152 27.807 55.0223 28.3423 54.7006C27.807 54.55 27.547 54.2283 27.547 53.6588C27.547 53.6387 27.5478 53.6186 27.5486 53.5988C27.5757 52.9845 28.0244 52.5157 29.0271 52.5157C29.3625 52.5157 29.5608 52.5635 29.7867 52.6867C29.7593 52.5635 29.7459 52.454 29.7459 52.3513C29.7459 51.7887 30.1362 51.6243 30.4182 51.6243H30.4182ZM18.6918 52.5157C19.0957 52.5157 19.4178 52.7277 19.4178 53.2479C19.4178 53.6381 19.2123 53.8996 18.8427 53.8996C18.7854 53.8996 18.7316 53.8949 18.682 53.8861C18.6696 53.884 18.6577 53.8816 18.6458 53.8789C18.3245 53.8049 18.1876 53.5362 18.3089 53.125H18.5554C18.6923 52.8443 18.5549 52.7756 18.4112 52.7756C18.3804 52.7756 18.3499 52.7802 18.3197 52.7885C18.3096 52.7913 18.2997 52.7942 18.2897 52.7978C18.0104 52.9006 17.7735 53.3459 17.7735 53.8862V55.7217H18.2608V55.8452H16.1224V55.7217H16.5002V52.7074H16.1224V52.5839H17.7735V53.2412C17.8981 52.7552 18.2811 52.5157 18.6918 52.5157V52.5157ZM25.8603 52.5157C26.497 52.5157 26.9213 52.8305 26.9213 53.6588V55.7217H27.3062V55.8452H25.3679V55.7217H25.6485V53.496C25.6485 52.9128 25.5662 52.8438 25.3937 52.8438C25.1076 52.8438 24.8392 53.2755 24.8392 53.8314V55.7217H25.1348V55.8452H23.1882V55.7217H23.5644V52.7074H23.1882V52.7017C23.2044 52.662 23.2205 52.6225 23.2357 52.5839H24.8392V53.2138C24.9556 52.8716 25.1827 52.5157 25.8603 52.5157V52.5157ZM32.5633 52.5157C33.638 52.5157 34.0981 53.056 34.0557 54.0773H32.124V54.3445C32.124 54.395 32.1242 54.4444 32.1256 54.4928C32.1439 55.2187 32.3095 55.7015 32.9333 55.7015C33.4399 55.7015 33.7822 55.378 33.9328 54.8509L34.0557 54.8716C33.8983 55.4603 33.5424 55.9134 32.569 55.9134C31.7694 55.9134 31.2582 55.613 31.0011 55.1253C30.9889 55.1021 30.9771 55.0781 30.966 55.054C30.8551 54.8135 30.8017 54.5321 30.8017 54.2215C30.8017 53.0359 31.6105 52.5157 32.5633 52.5157L32.5633 52.5157ZM29.0204 52.6387C28.8287 52.6387 28.6901 52.7617 28.6901 53.5079V53.8789C28.6901 54.5224 28.8069 54.6665 29.0136 54.6665C29.1985 54.6665 29.3144 54.5565 29.3144 53.8432V53.5079C29.3144 52.7412 29.2052 52.6387 29.0204 52.6387V52.6387ZM32.5002 52.6454C32.2607 52.6454 32.1307 52.8784 32.1308 53.604V53.9409H32.8372V53.604C32.8372 52.8852 32.7823 52.6454 32.5002 52.6454ZM21.7459 53.4888C21.7422 53.5051 21.7344 53.5248 21.7309 53.5409C21.7254 53.5685 21.721 53.6031 21.721 53.6458C21.721 53.6617 21.7275 53.6758 21.7288 53.6913C21.7272 53.6742 21.7247 53.6573 21.7247 53.6396C21.7247 53.5969 21.7285 53.5623 21.734 53.5347C21.7371 53.5201 21.7426 53.5036 21.7458 53.4888H21.7459ZM22.522 53.7637C22.4965 53.8882 22.4799 53.9988 22.4761 54.0908C22.492 54.0054 22.5065 53.8424 22.522 53.7637ZM21.7428 53.7694C21.7523 53.8084 21.7668 53.846 21.7857 53.8825C21.7665 53.8462 21.7527 53.8083 21.7428 53.7694ZM21.8089 53.9223C21.8224 53.9438 21.8297 53.9669 21.8466 53.9874C21.8651 54.0095 21.8884 54.0219 21.9086 54.0401C21.8885 54.022 21.8686 54.0032 21.8502 53.9812C21.8345 53.9621 21.8217 53.9423 21.8089 53.9223V53.9223ZM21.9283 54.0577C21.9692 54.0911 22.0142 54.1173 22.0626 54.1363C22.0142 54.1172 21.9693 54.0912 21.9283 54.0577ZM22.0911 54.1466C22.1156 54.1546 22.137 54.1678 22.1634 54.1724C22.275 54.1862 22.3451 54.1931 22.3727 54.1931C22.4124 54.1931 22.4354 54.1852 22.4502 54.174C22.4344 54.1822 22.4101 54.1869 22.3763 54.1869C22.3488 54.1869 22.2786 54.18 22.167 54.1662C22.1406 54.1616 22.1156 54.1546 22.0911 54.1466V54.1466ZM21.2069 54.3445C20.9194 54.3445 20.7826 54.5502 20.7826 54.9677V55.0768C20.7826 55.571 20.8303 55.6395 20.9604 55.6395C21.0904 55.6395 21.2549 55.4193 21.2549 54.9812V54.3445H21.2069Z" fill="white"/>
<path d="M25.403 9.48158C24.8855 9.48158 24.4656 9.90182 24.4656 10.418C24.4656 10.8233 24.7247 11.1696 25.0867 11.2996V12.3259L24.249 11.4871C24.1464 11.3845 23.9791 11.3845 23.8764 11.4871C23.7738 11.5898 23.7738 11.757 23.8764 11.8597L25.0867 13.0684V13.9552L24.386 13.2545V13.2478C24.386 13.1026 24.2681 12.9847 24.1229 12.9847C24.0401 12.9847 23.9665 13.0235 23.9183 13.0834L23.9178 13.084C23.9032 13.0936 23.8893 13.1047 23.8764 13.1175C23.7795 13.2145 23.7742 13.3678 23.8604 13.471V14.4348L23.2331 13.8074V12.0964C23.2331 11.9513 23.1157 11.8334 22.9706 11.8334C22.8254 11.8334 22.7075 11.9513 22.7075 12.0964V13.2819L22.0249 12.5992C22.2513 12.2381 22.2075 11.7538 21.8931 11.4406C21.5276 11.0751 20.9331 11.0751 20.5676 11.4406C20.391 11.6172 20.2937 11.8529 20.2937 12.1021C20.2937 12.3526 20.391 12.588 20.5676 12.7646C20.7442 12.9426 20.9796 13.0395 21.2301 13.0395C21.371 13.0395 21.508 13.0082 21.6316 12.9496L22.3572 13.6751H21.1712C21.0261 13.6751 20.9087 13.7925 20.9087 13.9376C20.9087 14.0828 21.0261 14.2007 21.1712 14.2007H22.8827L23.5095 14.8275H22.5174L22.5132 14.8234C22.4105 14.7207 22.2433 14.7207 22.1406 14.8234C22.0819 14.8821 22.0568 14.9615 22.0652 15.0378C22.0617 15.0549 22.06 15.0724 22.06 15.0905C22.06 15.2275 22.1645 15.3397 22.2983 15.352L22.9799 16.0336H22.0941L20.8823 14.8234C20.7796 14.7207 20.614 14.7207 20.5113 14.8234C20.4086 14.9261 20.4086 15.0917 20.5113 15.1944L21.3505 16.0336H20.3847C20.2888 15.6176 19.916 15.3071 19.471 15.3071C18.9549 15.3071 18.5347 15.727 18.5347 16.2445C18.5347 16.7606 18.9549 17.1814 19.471 17.1814C19.8778 17.1814 20.2239 16.9215 20.3537 16.5597H21.3805L20.5418 17.3989C20.4391 17.5016 20.4391 17.6673 20.5418 17.77C20.5938 17.822 20.6607 17.8464 20.7278 17.8464C20.7949 17.8464 20.8618 17.822 20.9138 17.77L22.1246 16.5597H23.0098L22.3076 17.262H22.3024C22.1573 17.262 22.0394 17.3799 22.0394 17.525C22.0394 17.608 22.078 17.6815 22.1381 17.7297C22.1475 17.7438 22.1582 17.7575 22.1706 17.77C22.2227 17.822 22.2901 17.8464 22.3572 17.8464C22.4159 17.8464 22.475 17.8271 22.5236 17.7875H23.4879L22.8621 18.4133H21.1495C21.0044 18.4133 20.8865 18.5312 20.8865 18.6764C20.8865 18.8215 21.0044 18.9389 21.1495 18.9389H22.3365L21.6518 19.6236C21.2936 19.408 20.7974 19.4513 20.4937 19.7538C20.3171 19.9318 20.2198 20.1658 20.2198 20.4163C20.2198 20.6669 20.3171 20.9022 20.4937 21.0788C20.6703 21.2554 20.9057 21.3542 21.1562 21.3542C21.4068 21.3542 21.6421 21.2554 21.8187 21.0788C22.1059 20.7916 22.1673 20.3635 22.0032 20.0158L22.7292 19.2898V20.4752C22.7292 20.6203 22.8472 20.7377 22.9923 20.7377C23.1374 20.7377 23.2553 20.6203 23.2553 20.4752V18.7637L23.8806 18.1384V19.1306L23.8765 19.1347C23.7738 19.2374 23.7738 19.4031 23.8765 19.5058C23.9285 19.5578 23.9959 19.5823 24.063 19.5823C24.0721 19.5823 24.0809 19.5816 24.0899 19.5807C24.1073 19.5843 24.1253 19.5864 24.1436 19.5864C24.28 19.5864 24.3921 19.4827 24.4051 19.3497L25.0867 18.6681V19.5543L23.8765 20.7641C23.7738 20.8668 23.7738 21.0324 23.8765 21.1351C23.9285 21.1871 23.9959 21.2131 24.063 21.2131C24.1301 21.2131 24.197 21.1871 24.2491 21.1351L25.0867 20.2985V21.2633C24.6719 21.3593 24.3612 21.7318 24.3612 22.1754C24.3612 22.6915 24.7814 23.1117 25.2976 23.1117C25.8151 23.1117 26.2355 22.6915 26.2355 22.1754C26.2355 21.7694 25.9756 21.4228 25.6128 21.2932V20.2659L26.452 21.1046C26.5547 21.2073 26.7214 21.2073 26.8241 21.1046C26.9268 21.0019 26.9268 20.8363 26.8241 20.7336L25.6128 19.5223V18.6355L26.3151 19.3388V19.344C26.3151 19.4891 26.433 19.607 26.5781 19.607C26.6602 19.607 26.733 19.5693 26.7812 19.5104C26.7965 19.5005 26.8107 19.4892 26.8241 19.4758C26.9209 19.379 26.9263 19.2252 26.8406 19.1218V18.1586L27.468 18.7859V20.4969C27.468 20.642 27.5854 20.7599 27.7305 20.7599C27.8756 20.7599 27.9935 20.642 27.9935 20.4969V19.3115L28.6757 19.9936C28.4496 20.3553 28.4937 20.8384 28.808 21.1527C28.9846 21.3293 29.2199 21.4281 29.4704 21.4281C29.721 21.4281 29.9568 21.3293 30.1335 21.1527C30.3101 20.9761 30.4073 20.7407 30.4073 20.4902C30.4073 20.2397 30.3101 20.0057 30.1335 19.8277C29.8564 19.5518 29.4191 19.4911 29.0725 19.6463L28.3444 18.9187H29.5294C29.6745 18.9187 29.7924 18.8008 29.7924 18.6557C29.7924 18.5106 29.6745 18.3926 29.5294 18.3926H27.8184L27.1915 17.7658H28.1837L28.1878 17.7699C28.2399 17.822 28.3068 17.8464 28.3739 17.8464C28.4409 17.8464 28.5084 17.822 28.5604 17.7699C28.6187 17.7116 28.6433 17.6329 28.6353 17.557C28.639 17.5396 28.641 17.5213 28.641 17.5028C28.641 17.366 28.5363 17.2538 28.4028 17.2413L27.7212 16.5597H28.608L29.8182 17.7699C29.8689 17.822 29.9362 17.8464 30.0032 17.8464C30.0703 17.8464 30.1386 17.822 30.1893 17.7699C30.2919 17.6673 30.2919 17.5016 30.1893 17.3989L29.3506 16.5597H30.3164C30.4125 16.9746 30.7849 17.2852 31.2285 17.2852C31.746 17.2852 32.1664 16.865 32.1664 16.3488C32.1664 15.8327 31.746 15.4125 31.2285 15.4125C30.8228 15.4125 30.4766 15.6719 30.3469 16.0336H29.3206L30.1593 15.1944C30.262 15.0917 30.262 14.926 30.1593 14.8234C30.0566 14.7207 29.8894 14.7207 29.7867 14.8234L28.577 16.0336H27.6907L28.392 15.3313H28.3987C28.5438 15.3313 28.6617 15.2139 28.6617 15.0688C28.6617 14.9844 28.6218 14.9092 28.5599 14.8611C28.5509 14.8479 28.5406 14.8351 28.5289 14.8234C28.4326 14.7271 28.2802 14.7216 28.177 14.8058H27.2122L27.838 14.18H29.5516C29.6967 14.18 29.8141 14.0626 29.8141 13.9175C29.8141 13.7724 29.6967 13.6544 29.5516 13.6544H28.3635L29.0472 12.9708C29.1947 13.0638 29.3661 13.1134 29.5449 13.1134C29.7954 13.1134 30.0307 13.0164 30.2074 12.8385C30.384 12.6619 30.4812 12.4265 30.4812 12.176C30.4812 11.9268 30.384 11.6911 30.2074 11.5145C29.8528 11.1599 29.2351 11.1599 28.8819 11.5145C28.5945 11.8008 28.5335 12.2301 28.6979 12.5775L27.9713 13.3041V12.1171C27.9713 11.9719 27.8539 11.854 27.7088 11.854C27.5637 11.854 27.4458 11.9719 27.4458 12.1171V13.8296L26.8189 14.4565V13.4638L26.8241 13.4586C26.9268 13.3559 26.9268 13.1902 26.8241 13.0875C26.7654 13.0289 26.6858 13.0037 26.6091 13.0121C26.592 13.0086 26.574 13.0069 26.5559 13.0069C26.419 13.0069 26.3067 13.1114 26.2944 13.2452L25.6128 13.9257V13.0395L26.8241 11.8292C26.9268 11.7265 26.9268 11.5598 26.8241 11.4572C26.7214 11.3545 26.5547 11.3545 26.452 11.4572L25.6128 12.2964V11.3306C26.0285 11.2351 26.3399 10.8621 26.3399 10.4179C26.3399 9.90181 25.9191 9.48157 25.403 9.48157L25.403 9.48158ZM25.403 10.0071C25.6289 10.0071 25.8138 10.1907 25.8138 10.418C25.8138 10.6439 25.6289 10.8288 25.403 10.8288C25.1757 10.8288 24.9911 10.6439 24.9911 10.418C24.9911 10.1907 25.1757 10.0071 25.403 10.0071ZM21.2301 11.6913C21.3355 11.6913 21.4411 11.7323 21.5205 11.8117C21.6807 11.9719 21.6807 12.2334 21.5205 12.3935C21.3617 12.5537 21.1004 12.5537 20.9402 12.3935C20.78 12.2334 20.78 11.9719 20.9402 11.8117C21.0196 11.7323 21.1247 11.6913 21.2301 11.6913ZM29.5448 11.7652C29.6502 11.7652 29.7553 11.8062 29.8347 11.8856C29.9949 12.0457 29.9949 12.3073 29.8347 12.4674C29.68 12.6221 29.4089 12.6221 29.2529 12.4674C29.0927 12.3073 29.0927 12.0457 29.2529 11.8856C29.3336 11.8062 29.4394 11.7652 29.5448 11.7652ZM26.2928 13.9893V14.857L25.68 15.4698V14.6017L26.2928 13.9893ZM24.386 13.9976L24.9994 14.6105V15.4791L24.386 14.8647V13.9976ZM26.7817 15.3314H27.6499L27.037 15.9448H26.1688L26.7817 15.3314ZM23.0434 15.3536H23.9111L24.5245 15.967H23.6563L23.0434 15.3536ZM19.471 15.8326C19.6983 15.8326 19.8829 16.0172 19.8829 16.2445C19.8829 16.4704 19.6983 16.6553 19.471 16.6553C19.2451 16.6553 19.0602 16.4704 19.0602 16.2445C19.0602 16.0172 19.2451 15.8326 19.471 15.8326ZM31.2285 15.938C31.4557 15.938 31.6408 16.1216 31.6408 16.3489C31.6408 16.5761 31.4557 16.7597 31.2285 16.7597C31.0026 16.7597 30.8176 16.5761 30.8176 16.3489C30.8176 16.1216 31.0026 15.938 31.2285 15.938ZM26.1771 16.6269H27.0463L27.6581 17.2398H26.7894L26.1771 16.6269ZM23.6661 16.647H24.5338L23.9193 17.262H23.0512L23.6661 16.647ZM25.7017 17.1142L26.3151 17.7276V18.5947L25.7017 17.9818V17.1142ZM25.02 17.1245V17.9917L24.4066 18.6045V17.7369L25.02 17.1245ZM21.1562 20.0055C21.2616 20.0055 21.3672 20.0451 21.4466 20.1259C21.6068 20.2861 21.6068 20.5462 21.4466 20.7078C21.2878 20.8666 21.0265 20.8679 20.8663 20.7078C20.7061 20.5462 20.7061 20.2861 20.8663 20.1259C20.9457 20.0451 21.0508 20.0055 21.1562 20.0055ZM29.4704 20.0794C29.5758 20.0794 29.6814 20.119 29.7608 20.1998C29.921 20.36 29.921 20.6201 29.7608 20.7817C29.6007 20.9418 29.3391 20.9405 29.179 20.7817C29.0202 20.6201 29.0202 20.36 29.179 20.1998C29.2597 20.119 29.365 20.0794 29.4704 20.0794ZM25.2975 21.7645C25.5248 21.7645 25.7099 21.9481 25.7099 22.1754C25.7099 22.4026 25.5248 22.5862 25.2975 22.5862C25.0717 22.5862 24.8872 22.4026 24.8872 22.1754C24.8872 21.9481 25.0717 21.7645 25.2975 21.7645Z" fill="white"/>
<defs>
<linearGradient id="paint0_linear_152_3" x1="6.76003" y1="54.673" x2="38.7955" y2="7.28565" gradientUnits="userSpaceOnUse">
<stop stop-color="#EEDBA5"/>
<stop offset="1" stop-color="#EEDBA5"/>
</linearGradient>
</defs>
</svg>
