<?xml version="1.0" encoding="UTF-8" standalone="no"?>
<svg
   inkscape:version="1.1.1 (3bf5ae0d25, 2021-09-20, custom)"
   sodipodi:docname="Vega.svg"
   id="svg296"
   version="1.2"
   viewBox="0 0 184.25197 184.25197"
   height="65mm"
   width="65mm"
   xmlns:inkscape="http://www.inkscape.org/namespaces/inkscape"
   xmlns:sodipodi="http://sodipodi.sourceforge.net/DTD/sodipodi-0.dtd"
   xmlns:xlink="http://www.w3.org/1999/xlink"
   xmlns="http://www.w3.org/2000/svg"
   xmlns:svg="http://www.w3.org/2000/svg">
  <sodipodi:namedview
     id="namedview298"
     pagecolor="#ffffff"
     bordercolor="#666666"
     borderopacity="1.0"
     inkscape:pageshadow="2"
     inkscape:pageopacity="0.0"
     inkscape:pagecheckerboard="0"
     inkscape:document-units="pt"
     showgrid="false"
     units="mm"
     borderlayer="true"
     inkscape:showpageshadow="false"
     inkscape:snap-bbox="true"
     inkscape:bbox-paths="true"
     inkscape:bbox-nodes="true"
     inkscape:snap-page="true"
     inkscape:zoom="3.3092597"
     inkscape:cx="158.04139"
     inkscape:cy="137.94626"
     inkscape:window-width="2560"
     inkscape:window-height="1381"
     inkscape:window-x="0"
     inkscape:window-y="0"
     inkscape:window-maximized="1"
     inkscape:current-layer="layer2" />
  <defs
     id="defs71">
    <linearGradient
       inkscape:collect="always"
       id="linearGradient47440">
      <stop
         style="stop-color:#ffcc00;stop-opacity:1;"
         offset="0"
         id="stop47436" />
      <stop
         style="stop-color:#ffe680;stop-opacity:1"
         offset="1"
         id="stop47438" />
    </linearGradient>
    <clipPath
       id="clip1">
      <path
         d="M 0,0 H 255.11719 V 198.42578 H 0 Z m 0,0"
         id="path2" />
    </clipPath>
    <clipPath
       id="clip2">
      <path
         d="M 48,7 H 192 V 191 H 48 Z m 0,0"
         id="path5" />
    </clipPath>
    <clipPath
       id="clip3">
      <path
         d="M 114.15234,9.125 55.03125,43.257812 c -3.808594,2.199219 -6.152344,6.261719 -6.152344,10.660157 v 90.589841 c 0,4.39844 2.34375,8.46094 6.152344,10.66016 l 59.12109,34.13281 c 3.80469,2.19531 8.4961,2.19531 12.30469,0 l 59.11719,-34.13281 c 3.80859,-2.19922 6.15625,-6.26172 6.15625,-10.66016 V 53.917969 c 0,-4.398438 -2.34766,-8.460938 -6.15625,-10.660157 L 126.45703,9.125 c -1.90234,-1.097656 -4.02734,-1.648438 -6.15234,-1.648438 -2.125,0 -4.25,0.550782 -6.15235,1.648438"
         id="path8" />
    </clipPath>
    <clipPath
       id="clip4">
      <path
         d="M 48,80 H 192 V 191 H 48 Z m 0,0"
         id="path11" />
    </clipPath>
    <clipPath
       id="clip5">
      <path
         d="M 114.15234,9.125 55.03125,43.257812 c -3.808594,2.199219 -6.152344,6.261719 -6.152344,10.660157 v 90.589841 c 0,4.39844 2.34375,8.46094 6.152344,10.66016 l 59.12109,34.13281 c 3.80469,2.19531 8.4961,2.19531 12.30469,0 l 59.11719,-34.13281 c 3.80859,-2.19922 6.15625,-6.26172 6.15625,-10.66016 V 53.917969 c 0,-4.398438 -2.34766,-8.460938 -6.15625,-10.660157 L 126.45703,9.125 c -1.90234,-1.097656 -4.02734,-1.648438 -6.15234,-1.648438 -2.125,0 -4.25,0.550782 -6.15235,1.648438"
         id="path14" />
    </clipPath>
    <clipPath
       id="clip6">
      <path
         d="m 60,78 h 100 v 57 H 60 Z m 0,0"
         id="path17" />
    </clipPath>
    <clipPath
       id="clip7">
      <path
         d="M 114.15234,9.125 55.03125,43.257812 c -3.808594,2.199219 -6.152344,6.261719 -6.152344,10.660157 v 90.589841 c 0,4.39844 2.34375,8.46094 6.152344,10.66016 l 59.12109,34.13281 c 3.80469,2.19531 8.4961,2.19531 12.30469,0 l 59.11719,-34.13281 c 3.80859,-2.19922 6.15625,-6.26172 6.15625,-10.66016 V 53.917969 c 0,-4.398438 -2.34766,-8.460938 -6.15625,-10.660157 L 126.45703,9.125 c -1.90234,-1.097656 -4.02734,-1.648438 -6.15234,-1.648438 -2.125,0 -4.25,0.550782 -6.15235,1.648438"
         id="path20" />
    </clipPath>
    <clipPath
       id="clip8">
      <path
         d="m 112,79 h 46 v 34 h -46 z m 0,0"
         id="path23" />
    </clipPath>
    <clipPath
       id="clip9">
      <path
         d="M 114.15234,9.125 55.03125,43.257812 c -3.808594,2.199219 -6.152344,6.261719 -6.152344,10.660157 v 90.589841 c 0,4.39844 2.34375,8.46094 6.152344,10.66016 l 59.12109,34.13281 c 3.80469,2.19531 8.4961,2.19531 12.30469,0 l 59.11719,-34.13281 c 3.80859,-2.19922 6.15625,-6.26172 6.15625,-10.66016 V 53.917969 c 0,-4.398438 -2.34766,-8.460938 -6.15625,-10.660157 L 126.45703,9.125 c -1.90234,-1.097656 -4.02734,-1.648438 -6.15234,-1.648438 -2.125,0 -4.25,0.550782 -6.15235,1.648438"
         id="path26" />
    </clipPath>
    <clipPath
       id="clip10">
      <path
         d="m 111,78 h 48 v 36 h -48 z m 0,0"
         id="path29" />
    </clipPath>
    <clipPath
       id="clip11">
      <path
         d="M 114.15234,9.125 55.03125,43.257812 c -3.808594,2.199219 -6.152344,6.261719 -6.152344,10.660157 v 90.589841 c 0,4.39844 2.34375,8.46094 6.152344,10.66016 l 59.12109,34.13281 c 3.80469,2.19531 8.4961,2.19531 12.30469,0 l 59.11719,-34.13281 c 3.80859,-2.19922 6.15625,-6.26172 6.15625,-10.66016 V 53.917969 c 0,-4.398438 -2.34766,-8.460938 -6.15625,-10.660157 L 126.45703,9.125 c -1.90234,-1.097656 -4.02734,-1.648438 -6.15234,-1.648438 -2.125,0 -4.25,0.550782 -6.15235,1.648438"
         id="path32" />
    </clipPath>
    <clipPath
       id="clip12">
      <path
         d="m 147,105 h 45 v 28 h -45 z m 0,0"
         id="path35" />
    </clipPath>
    <clipPath
       id="clip13">
      <path
         d="M 114.15234,9.125 55.03125,43.257812 c -3.808594,2.199219 -6.152344,6.261719 -6.152344,10.660157 v 90.589841 c 0,4.39844 2.34375,8.46094 6.152344,10.66016 l 59.12109,34.13281 c 3.80469,2.19531 8.4961,2.19531 12.30469,0 l 59.11719,-34.13281 c 3.80859,-2.19922 6.15625,-6.26172 6.15625,-10.66016 V 53.917969 c 0,-4.398438 -2.34766,-8.460938 -6.15625,-10.660157 L 126.45703,9.125 c -1.90234,-1.097656 -4.02734,-1.648438 -6.15234,-1.648438 -2.125,0 -4.25,0.550782 -6.15235,1.648438"
         id="path38" />
    </clipPath>
    <clipPath
       id="clip14">
      <path
         d="m 155,106 h 36 v 24 h -36 z m 0,0"
         id="path41" />
    </clipPath>
    <clipPath
       id="clip15">
      <path
         d="M 114.15234,9.125 55.03125,43.257812 c -3.808594,2.199219 -6.152344,6.261719 -6.152344,10.660157 v 90.589841 c 0,4.39844 2.34375,8.46094 6.152344,10.66016 l 59.12109,34.13281 c 3.80469,2.19531 8.4961,2.19531 12.30469,0 l 59.11719,-34.13281 c 3.80859,-2.19922 6.15625,-6.26172 6.15625,-10.66016 V 53.917969 c 0,-4.398438 -2.34766,-8.460938 -6.15625,-10.660157 L 126.45703,9.125 c -1.90234,-1.097656 -4.02734,-1.648438 -6.15234,-1.648438 -2.125,0 -4.25,0.550782 -6.15235,1.648438"
         id="path44" />
    </clipPath>
    <clipPath
       id="clip16">
      <path
         d="m 154,105 h 38 v 26 h -38 z m 0,0"
         id="path47" />
    </clipPath>
    <clipPath
       id="clip17">
      <path
         d="M 114.15234,9.125 55.03125,43.257812 c -3.808594,2.199219 -6.152344,6.261719 -6.152344,10.660157 v 90.589841 c 0,4.39844 2.34375,8.46094 6.152344,10.66016 l 59.12109,34.13281 c 3.80469,2.19531 8.4961,2.19531 12.30469,0 l 59.11719,-34.13281 c 3.80859,-2.19922 6.15625,-6.26172 6.15625,-10.66016 V 53.917969 c 0,-4.398438 -2.34766,-8.460938 -6.15625,-10.660157 L 126.45703,9.125 c -1.90234,-1.097656 -4.02734,-1.648438 -6.15234,-1.648438 -2.125,0 -4.25,0.550782 -6.15235,1.648438"
         id="path50" />
    </clipPath>
    <clipPath
       id="clip18">
      <path
         d="m 48,99 h 24 v 25 H 48 Z m 0,0"
         id="path53" />
    </clipPath>
    <clipPath
       id="clip19">
      <path
         d="M 114.15234,9.125 55.03125,43.257812 c -3.808594,2.199219 -6.152344,6.261719 -6.152344,10.660157 v 90.589841 c 0,4.39844 2.34375,8.46094 6.152344,10.66016 l 59.12109,34.13281 c 3.80469,2.19531 8.4961,2.19531 12.30469,0 l 59.11719,-34.13281 c 3.80859,-2.19922 6.15625,-6.26172 6.15625,-10.66016 V 53.917969 c 0,-4.398438 -2.34766,-8.460938 -6.15625,-10.660157 L 126.45703,9.125 c -1.90234,-1.097656 -4.02734,-1.648438 -6.15234,-1.648438 -2.125,0 -4.25,0.550782 -6.15235,1.648438"
         id="path56" />
    </clipPath>
    <clipPath
       id="clip20">
      <path
         d="m 48,100 h 22 v 22 H 48 Z m 0,0"
         id="path59" />
    </clipPath>
    <clipPath
       id="clip21">
      <path
         d="M 114.15234,9.125 55.03125,43.257812 c -3.808594,2.199219 -6.152344,6.261719 -6.152344,10.660157 v 90.589841 c 0,4.39844 2.34375,8.46094 6.152344,10.66016 l 59.12109,34.13281 c 3.80469,2.19531 8.4961,2.19531 12.30469,0 l 59.11719,-34.13281 c 3.80859,-2.19922 6.15625,-6.26172 6.15625,-10.66016 V 53.917969 c 0,-4.398438 -2.34766,-8.460938 -6.15625,-10.660157 L 126.45703,9.125 c -1.90234,-1.097656 -4.02734,-1.648438 -6.15234,-1.648438 -2.125,0 -4.25,0.550782 -6.15235,1.648438"
         id="path62" />
    </clipPath>
    <clipPath
       id="clip22">
      <path
         d="m 48,99 h 23 v 24 H 48 Z m 0,0"
         id="path65" />
    </clipPath>
    <clipPath
       id="clip23">
      <path
         d="M 114.15234,9.125 55.03125,43.257812 c -3.808594,2.199219 -6.152344,6.261719 -6.152344,10.660157 v 90.589841 c 0,4.39844 2.34375,8.46094 6.152344,10.66016 l 59.12109,34.13281 c 3.80469,2.19531 8.4961,2.19531 12.30469,0 l 59.11719,-34.13281 c 3.80859,-2.19922 6.15625,-6.26172 6.15625,-10.66016 V 53.917969 c 0,-4.398438 -2.34766,-8.460938 -6.15625,-10.660157 L 126.45703,9.125 c -1.90234,-1.097656 -4.02734,-1.648438 -6.15234,-1.648438 -2.125,0 -4.25,0.550782 -6.15235,1.648438"
         id="path68" />
    </clipPath>
    <linearGradient
       inkscape:collect="always"
       xlink:href="#linearGradient47440"
       id="linearGradient47442"
       x1="52.157566"
       y1="206.63829"
       x2="173.23666"
       y2="27.536306"
       gradientUnits="userSpaceOnUse" />
  </defs>
  <g
     inkscape:groupmode="layer"
     id="layer2"
     inkscape:label="F.Cu"
     style="display:inline">
    <path
       id="path44219"
       style="clip-rule:nonzero;fill:#002255;fill-opacity:1;fill-rule:nonzero;stroke:none;stroke-width:0.1;stroke-miterlimit:4;stroke-dasharray:none"
       d="M 122.83398 5.890625 L 121.74805 5.9257812 L 120.66406 6.0292969 L 119.58594 6.2050781 L 118.52148 6.4492188 L 117.4707 6.7636719 L 116.43945 7.1484375 L 115.42969 7.6015625 L 114.44531 8.1269531 L 67.316406 35.339844 L 61.861328 38.490234 L 39.888672 51.175781 L 38.941406 51.763672 L 38.041016 52.414062 L 37.191406 53.115234 L 36.392578 53.867188 L 35.648438 54.667969 L 34.957031 55.511719 L 34.324219 56.398438 L 33.748047 57.322266 L 33.236328 58.28125 L 32.783203 59.273438 L 32.396484 60.292969 L 32.078125 61.339844 L 31.824219 62.40625 L 31.642578 63.494141 L 31.53125 64.597656 L 31.494141 65.712891 L 31.494141 125.64062 L 31.576172 125.72656 L 35.291016 128.11719 C 35.384149 128.17932 35.467322 128.25053 35.544922 128.32812 L 57.357422 151.81445 L 72.013672 135.96094 L 77.378906 129.05273 C 77.461706 128.95444 77.55149 128.86157 77.660156 128.78906 L 83.003906 124.9707 L 93.808594 114.17188 L 107.74414 98.679688 C 107.88902 98.519277 108.07359 98.394706 108.27539 98.322266 L 111.95508 96.998047 C 111.95908 96.996714 111.96084 96.993488 111.96484 96.992188 L 114.30664 96.150391 L 117.98828 94.824219 C 118.09824 94.784112 118.21204 94.7596 118.32617 94.75 C 118.33524 94.7492 118.34418 94.754489 118.35352 94.753906 C 118.49634 94.744613 118.63752 94.764768 118.77539 94.800781 C 118.81219 94.810501 118.84708 94.819231 118.88281 94.832031 C 119.02689 94.883015 119.16538 94.951881 119.28711 95.052734 L 138.82031 111.30469 L 149.70703 121.56836 L 149.70898 121.57031 L 173.76758 138.39258 L 176.30469 135.66016 C 176.42881 135.53074 176.57855 135.42201 176.74414 135.34961 L 186.45703 131.07617 C 186.48463 131.06408 186.51302 131.05701 186.54102 131.04688 C 186.55622 131.04141 186.57047 131.03423 186.58594 131.0293 C 186.593 131.0273 186.60076 131.02544 186.60742 131.02344 C 186.65062 131.01044 186.69441 131.00019 186.73828 130.99219 C 186.75708 130.98819 186.77586 130.98549 186.79492 130.98242 C 186.84058 130.97578 186.88577 130.97075 186.93164 130.96875 C 186.94924 130.96802 186.96677 130.96878 186.98438 130.96875 C 187.03152 130.96875 187.07833 130.97163 187.125 130.97656 C 187.14073 130.97856 187.15628 130.98042 187.17188 130.98242 C 187.2199 130.98922 187.26739 130.99777 187.31445 131.00977 C 187.32752 131.01377 187.34018 131.01553 187.35352 131.01953 C 187.40298 131.03373 187.45045 131.05042 187.49805 131.07031 C 187.50071 131.07139 187.50257 131.07146 187.50391 131.07227 C 187.51324 131.07596 187.52192 131.08194 187.53125 131.08594 C 187.57485 131.10554 187.61869 131.12599 187.66016 131.15039 C 187.68829 131.1668 187.71525 131.18648 187.74219 131.20508 C 187.76979 131.22418 187.79795 131.24238 187.82422 131.26367 C 187.87502 131.30459 187.92382 131.34758 187.96875 131.39648 L 202.26562 146.96094 C 203.02629 147.56634 203.56265 148.03189 203.78516 148.22852 C 203.81622 148.25958 203.8537 148.29199 203.88477 148.32812 L 214.17578 159.66211 L 214.17578 65.712891 L 214.14062 64.597656 L 214.02734 63.494141 L 213.84766 62.40625 L 213.59375 61.339844 L 213.27148 60.292969 L 212.88477 59.273438 L 212.43555 58.28125 L 211.91992 57.322266 L 211.34766 56.398438 L 210.71289 55.511719 L 210.02344 54.667969 L 209.27734 53.867188 L 208.48047 53.115234 L 207.63086 52.414062 L 206.73047 51.763672 L 205.7832 51.175781 L 137.58008 11.796875 L 131.22266 8.1269531 L 130.24023 7.6015625 L 129.23047 7.1484375 L 128.19727 6.7636719 L 127.14648 6.4492188 L 126.08203 6.2050781 L 125.00586 6.0292969 L 123.92188 5.9257812 L 122.83398 5.890625 z "
       transform="scale(0.75)" />
    <path
       id="path3253"
       style="clip-rule:nonzero;display:inline;fill:url(#linearGradient47442);fill-opacity:1;fill-rule:nonzero;stroke:none;stroke-width:0.1;stroke-miterlimit:4;stroke-dasharray:none"
       d="M 122.83008 0 L 121.69531 0.037109375 L 120.55664 0.14648438 L 119.42578 0.33007812 L 118.30664 0.58789062 L 117.20312 0.91796875 L 116.11914 1.3222656 L 115.05859 1.8007812 L 114.02539 2.3515625 L 35.710938 47.566406 L 34.714844 48.185547 L 33.769531 48.867188 L 32.876953 49.603516 L 32.039062 50.394531 L 32.039062 50.396484 L 31.255859 51.234375 L 31.255859 51.236328 L 30.53125 52.121094 L 30.53125 52.123047 L 29.865234 53.052734 L 29.865234 53.054688 L 29.261719 54.023438 L 29.261719 54.025391 L 28.722656 55.03125 L 28.722656 55.033203 L 28.248047 56.072266 L 28.248047 56.074219 L 27.841797 57.142578 L 27.841797 57.144531 L 27.505859 58.242188 L 27.505859 58.244141 L 27.240234 59.363281 L 27.240234 59.365234 L 27.048828 60.505859 L 27.048828 60.507812 L 26.931641 61.664062 L 26.931641 61.666016 L 26.892578 62.835938 L 26.892578 62.837891 L 26.892578 124.1582 L 26.892578 124.16016 C 26.868728 124.18956 26.835313 124.20763 26.814453 124.24023 L 26.814453 124.24219 C 26.731753 124.37218 26.679801 124.51222 26.646484 124.6543 L 26.646484 124.65625 C 26.643084 124.67025 26.637586 124.68307 26.634766 124.69727 L 26.634766 124.69922 C 26.607296 124.83825 26.604134 124.97877 26.621094 125.11719 L 26.621094 125.11914 C 26.622894 125.13294 26.624653 125.14636 26.626953 125.16016 L 26.626953 125.16211 C 26.649553 125.306 26.695303 125.44434 26.763672 125.57422 L 26.763672 125.57617 C 26.764672 125.57817 26.766478 125.58098 26.767578 125.58398 L 26.767578 125.58594 C 26.799118 125.64414 26.852528 125.68892 26.892578 125.74219 L 26.892578 125.74414 L 26.892578 126.06055 L 26.892578 126.0625 L 26.892578 126.82422 L 26.892578 126.82617 L 26.691406 127.34766 L 26.691406 127.34961 C 26.606266 127.57103 26.588956 127.79807 26.626953 128.01367 L 26.626953 128.01562 C 26.665253 128.2312 26.758404 128.43509 26.892578 128.61133 L 26.892578 128.61328 L 26.892578 182.83789 L 26.892578 182.83984 L 26.931641 184.00977 L 26.931641 184.01172 L 27.048828 185.16406 L 27.048828 185.16602 L 27.048828 185.16797 L 27.048828 185.16992 C 27.04934 185.17292 27.050281 185.17669 27.050781 185.17969 L 27.050781 185.18164 L 27.240234 186.31055 L 27.240234 186.3125 L 27.505859 187.43359 L 27.505859 187.43555 L 27.841797 188.5293 L 27.841797 188.53125 L 28.248047 189.60156 L 28.248047 189.60352 L 28.722656 190.64258 L 28.722656 190.64453 L 29.261719 191.65039 L 29.261719 191.65234 L 29.865234 192.62109 L 29.865234 192.62305 L 30.511719 193.52344 L 30.511719 193.52539 L 30.53125 193.55078 L 30.53125 193.55273 C 30.53915 193.56293 30.548761 193.57183 30.556641 193.58203 L 30.556641 193.58398 L 31.255859 194.4375 L 31.255859 194.43945 L 32.011719 195.24805 L 32.011719 195.25 L 32.039062 195.27734 L 32.039062 195.2793 C 32.049732 195.29 32.061526 195.29995 32.072266 195.31055 L 32.876953 196.06836 L 33.769531 196.80664 L 34.714844 197.48438 L 35.710938 198.10547 L 114.02539 243.32422 L 115.05859 243.875 L 116.07227 244.33008 C 116.10557 244.34378 116.13858 244.35749 116.17188 244.37109 L 117.20312 244.75586 L 118.25391 245.07031 C 118.29041 245.07931 118.32671 245.09001 118.36328 245.09961 L 119.42578 245.34375 L 120.55664 245.52734 L 121.69531 245.63672 L 122.83789 245.67383 L 123.97852 245.63672 L 125.11719 245.52734 L 126.24805 245.34375 L 127.31055 245.09961 C 127.34725 245.08891 127.38335 245.08021 127.41992 245.07031 L 128.4707 244.75586 L 129.50195 244.37109 C 129.53525 244.35749 129.56826 244.34398 129.60156 244.33008 L 130.61523 243.875 L 131.64844 243.32422 L 209.95898 198.10547 L 210.95508 197.48438 L 211.89844 196.80664 L 211.90039 196.80664 L 212.79297 196.06836 L 213.59961 195.30859 C 213.61031 195.29789 213.62086 195.2894 213.63086 195.2793 L 213.6582 195.25 L 214.41406 194.43945 L 215.11328 193.58398 L 215.13867 193.55469 L 215.13867 193.55273 L 215.1582 193.52539 L 215.80469 192.62305 L 216.38086 191.69336 C 216.39776 191.66406 216.41474 191.63477 216.43164 191.60547 L 216.94727 190.64453 L 217.39844 189.65234 C 217.41254 189.61864 217.42545 189.58464 217.43945 189.55078 L 217.82617 188.53125 L 218.16406 187.43555 L 218.42969 186.3125 L 218.60742 185.23438 C 218.61442 185.19327 218.6194 185.15257 218.625 185.11133 L 218.73828 184.01172 L 218.77344 182.89453 C 218.7735 182.87613 218.77734 182.85824 218.77734 182.83984 L 218.77734 168.1875 L 218.77539 168.18555 L 218.77539 62.837891 L 218.73828 61.666016 L 218.61914 60.507812 L 218.42969 59.365234 L 218.16406 58.244141 L 217.82617 57.144531 L 217.41992 56.074219 L 216.94727 55.033203 L 216.40625 54.025391 L 215.80469 53.054688 L 215.13867 52.123047 L 214.41406 51.236328 L 213.63086 50.396484 L 212.79297 49.605469 L 211.90039 48.869141 L 210.95508 48.1875 L 209.95898 47.568359 L 190.44141 36.298828 L 190.44141 36.296875 L 131.64844 2.3515625 L 130.61523 1.8007812 L 129.55469 1.3222656 L 128.4707 0.91796875 L 127.36719 0.58789062 L 126.24805 0.33007812 L 125.11719 0.14648438 L 123.97852 0.037109375 L 123.70312 0.02734375 C 123.41753 0.01005048 123.13171 0.00100227 122.8457 0 L 122.83398 0 L 122.83008 0 z M 122.83398 5.890625 L 123.92188 5.9257812 L 125.00586 6.0292969 L 126.08203 6.2050781 L 127.14648 6.4492188 L 128.19727 6.7636719 L 129.23047 7.1484375 L 130.24023 7.6015625 L 131.22266 8.1269531 L 137.58008 11.798828 L 183.80859 38.490234 L 190.44141 42.318359 L 205.7832 51.177734 L 206.73047 51.765625 L 207.63086 52.416016 L 208.48047 53.117188 L 209.27734 53.869141 L 210.02344 54.669922 L 210.71289 55.513672 L 211.34766 56.400391 L 211.91992 57.324219 L 212.43555 58.283203 L 212.88477 59.275391 L 213.27148 60.294922 L 213.59375 61.341797 L 213.84766 62.408203 L 214.02734 63.496094 L 214.14062 64.599609 L 214.17578 65.714844 L 214.17578 159.66406 L 203.88477 148.33008 C 203.85387 148.29398 203.81616 148.26137 203.78516 148.23047 C 203.56265 148.03386 203.0263 147.56829 202.26562 146.96289 L 190.44141 134.08984 L 190.44141 134.08789 L 187.96875 131.39844 L 187.96875 131.39648 C 187.92375 131.34758 187.87495 131.30458 187.82422 131.26367 C 187.79792 131.24237 187.76979 131.22418 187.74219 131.20508 C 187.71519 131.18648 187.68826 131.16679 187.66016 131.15039 C 187.61866 131.12599 187.57486 131.10554 187.53125 131.08594 C 187.52225 131.08194 187.51321 131.07597 187.50391 131.07227 C 187.50191 131.07146 187.50005 131.07143 187.49805 131.07031 C 187.45045 131.05041 187.40295 131.03373 187.35352 131.01953 C 187.34052 131.01553 187.32755 131.01377 187.31445 131.00977 C 187.26745 130.99777 187.21984 130.98922 187.17188 130.98242 C 187.15627 130.98042 187.1407 130.97856 187.125 130.97656 C 187.0783 130.97156 187.03149 130.96875 186.98438 130.96875 C 186.96678 130.96878 186.94924 130.96802 186.93164 130.96875 C 186.88584 130.97075 186.84064 130.97572 186.79492 130.98242 C 186.77592 130.98542 186.75708 130.98819 186.73828 130.99219 C 186.69438 131.00019 186.65068 131.01044 186.60742 131.02344 C 186.60042 131.02544 186.59304 131.0273 186.58594 131.0293 C 186.57044 131.0343 186.55622 131.04137 186.54102 131.04688 C 186.51302 131.05697 186.48463 131.06407 186.45703 131.07617 L 176.74414 135.34961 C 176.57856 135.42201 176.42881 135.53074 176.30469 135.66016 L 173.76758 138.39258 L 149.70898 121.57031 L 149.70703 121.56836 L 138.82031 111.30469 L 119.28711 95.052734 C 119.16539 94.951879 119.02688 94.883015 118.88281 94.832031 C 118.84701 94.819181 118.81211 94.810501 118.77539 94.800781 C 118.63752 94.764771 118.49635 94.744606 118.35352 94.753906 C 118.34452 94.754489 118.33517 94.7492 118.32617 94.75 C 118.21209 94.7596 118.09824 94.784119 117.98828 94.824219 L 114.30664 96.150391 L 111.96484 96.992188 C 111.96084 96.993488 111.95908 96.996647 111.95508 96.998047 L 108.27539 98.322266 C 108.07359 98.394706 107.88902 98.519277 107.74414 98.679688 L 93.808594 114.17188 L 83.003906 124.9707 L 77.660156 128.78906 C 77.551493 128.86156 77.461697 128.95444 77.378906 129.05273 L 72.013672 135.96094 L 57.357422 151.81445 L 35.544922 128.32812 C 35.467302 128.25053 35.384149 128.17932 35.291016 128.11719 L 31.576172 125.72656 L 31.494141 125.64062 L 31.494141 65.714844 L 31.494141 65.712891 L 31.53125 64.599609 L 31.53125 64.597656 L 31.642578 63.496094 L 31.642578 63.494141 L 31.824219 62.408203 L 31.824219 62.40625 L 32.078125 61.341797 L 32.078125 61.339844 L 32.396484 60.294922 L 32.396484 60.292969 L 32.783203 59.275391 L 32.783203 59.273438 L 33.236328 58.283203 L 33.236328 58.28125 L 33.748047 57.324219 L 33.748047 57.322266 L 34.324219 56.400391 L 34.324219 56.398438 L 34.957031 55.513672 L 34.957031 55.511719 L 35.648438 54.669922 L 35.648438 54.667969 L 36.392578 53.869141 L 37.191406 53.117188 L 38.041016 52.416016 L 38.941406 51.765625 L 39.888672 51.177734 L 61.865234 38.490234 L 61.861328 38.490234 L 114.44531 8.1269531 L 115.42969 7.6015625 L 116.43945 7.1484375 L 117.4707 6.7636719 L 118.52148 6.4492188 L 119.58594 6.2050781 L 120.66406 6.0292969 L 121.74805 5.9257812 L 122.83398 5.890625 z M 81.142578 50.070312 L 79.621094 52.853516 L 76.835938 54.375 L 79.621094 55.896484 L 81.142578 58.685547 L 82.662109 55.896484 L 85.447266 54.375 L 82.662109 52.853516 L 81.142578 50.070312 z M 165.12695 50.070312 L 163.60742 52.853516 L 160.82227 54.375 L 163.60742 55.896484 L 165.12695 58.685547 L 166.64844 55.896484 L 169.43359 54.375 L 166.64844 52.853516 L 165.12695 50.070312 z M 63.941406 59.611328 C 62.70989 59.611328 61.707031 60.610966 61.707031 61.847656 C 61.707031 63.079171 62.70989 64.082031 63.941406 64.082031 C 65.178097 64.082031 66.177734 63.079171 66.177734 61.847656 C 66.177734 60.610966 65.178097 59.611328 63.941406 59.611328 z M 180.48633 61.179688 C 179.24962 61.179687 178.25 62.179325 178.25 63.416016 C 178.25 64.64753 179.24962 65.644531 180.48633 65.644531 C 181.71785 65.644531 182.71484 64.64753 182.71484 63.416016 C 182.71484 62.179325 181.71785 61.179688 180.48633 61.179688 z M 46.582031 76.386719 L 45.060547 79.171875 L 42.271484 80.693359 L 45.060547 82.214844 L 46.582031 84.998047 L 48.103516 82.214844 L 50.886719 80.693359 L 48.103516 79.171875 L 46.582031 76.386719 z M 76.054688 77.855469 C 75.674053 77.874569 75.304043 78.058815 75.056641 78.390625 C 74.621988 78.980511 74.740193 79.807535 75.330078 80.242188 L 90.244141 91.310547 C 90.482164 91.486478 90.755052 91.570316 91.029297 91.570312 C 91.438076 91.570312 91.836982 91.388971 92.095703 91.037109 C 92.535531 90.447224 92.412152 89.618246 91.822266 89.183594 L 76.908203 78.115234 C 76.652392 77.925074 76.350732 77.840612 76.054688 77.855469 z M 163.33984 77.855469 C 163.08547 77.867109 162.83255 77.952239 162.61328 78.115234 L 147.69531 89.183594 C 147.11061 89.618246 146.98722 90.447224 147.42188 91.037109 C 147.68577 91.388971 148.08272 91.570316 148.48633 91.570312 C 148.76057 91.570313 149.04128 91.486482 149.2793 91.310547 L 164.19141 80.242188 C 164.77611 79.807535 164.89949 78.980511 164.46484 78.390625 C 164.18995 78.021947 163.7638 77.836065 163.33984 77.855469 z M 71.523438 95.388672 C 70.884068 95.425172 70.3045 95.976161 70.275391 96.660156 C 70.249521 97.394925 70.819232 98.011239 71.548828 98.037109 L 91.101562 98.808594 L 91.154297 98.808594 C 91.863194 98.808594 92.452645 98.249913 92.478516 97.541016 C 92.509566 96.806245 91.939849 96.189933 91.205078 96.164062 L 71.652344 95.388672 C 71.609334 95.386372 71.566064 95.386272 71.523438 95.388672 z M 167.87109 95.388672 L 148.31055 96.164062 C 147.58094 96.189932 147.01197 96.806245 147.04297 97.541016 C 147.06887 98.249913 147.65956 98.808594 148.36328 98.808594 L 148.41406 98.808594 L 167.97461 98.037109 C 168.7042 98.011239 169.27192 97.394925 169.24609 96.660156 C 169.21509 95.930561 168.57482 95.373147 167.87109 95.388672 z M 46.664062 99.382812 C 45.427374 99.382812 44.429688 100.38567 44.429688 101.61719 C 44.429688 102.85388 45.427379 103.85352 46.664062 103.85352 C 47.895578 103.85352 48.900391 102.85388 48.900391 101.61719 C 48.900391 100.38567 47.89558 99.382812 46.664062 99.382812 z M 91.291016 102.51367 C 91.119451 102.52167 90.945538 102.56367 90.78125 102.64258 L 74.046875 110.62695 C 73.384552 110.93742 73.106235 111.72833 73.421875 112.39062 C 73.64955 112.8667 74.125609 113.14648 74.617188 113.14648 C 74.813815 113.14648 75.005125 113.10558 75.191406 113.01758 L 91.919922 105.0332 C 92.582244 104.71756 92.862515 103.926 92.546875 103.26367 C 92.310145 102.77081 91.80571 102.4899 91.291016 102.51367 z M 148.09961 102.51367 C 147.62967 102.53777 147.19001 102.81188 146.97656 103.26367 C 146.66092 103.926 146.94046 104.71756 147.59766 105.0332 L 164.33008 113.01758 C 164.51635 113.10558 164.70894 113.14648 164.90039 113.14648 C 165.39714 113.14648 165.8732 112.8667 166.0957 112.39062 C 166.41651 111.72831 166.1318 110.93742 165.47461 110.62695 L 148.74023 102.64258 C 148.53326 102.54398 148.31322 102.50272 148.09961 102.51367 z M 58.507812 108.76953 L 56.988281 111.55273 L 54.203125 113.08008 L 56.988281 114.60156 L 58.507812 117.38477 L 60.029297 114.60156 L 62.814453 113.08008 L 60.029297 111.55273 L 58.507812 108.76953 z M 190.41602 108.76953 L 190.41406 108.77148 L 188.89453 111.55273 L 186.10547 113.08008 L 188.89453 114.60156 L 190.41406 117.38281 L 190.41406 117.38477 L 190.41602 117.38477 L 190.44141 117.33789 L 190.44141 117.33398 L 191.93555 114.60156 L 194.7207 113.08008 L 191.93555 111.55273 L 190.44141 108.82031 L 190.44141 108.81641 L 190.41602 108.76953 z M 59.511719 181.48828 L 74.337891 181.48828 C 74.521586 181.48828 74.687037 181.56208 74.806641 181.68164 C 74.925818 181.80082 74.999478 181.96553 75 182.14844 C 75 182.32954 74.92624 182.49498 74.806641 182.61523 C 74.687037 182.73549 74.521586 182.81055 74.337891 182.81055 L 59.511719 182.81055 C 59.328029 182.81055 59.162574 182.73545 59.042969 182.61523 C 58.923791 182.49541 58.850133 182.33074 58.849609 182.15039 L 58.849609 182.14844 C 58.849609 181.9654 58.924119 181.80114 59.042969 181.68164 C 59.162574 181.56204 59.328029 181.48828 59.511719 181.48828 z M 164.16992 181.48828 L 178.99609 181.48828 C 179.17721 181.48828 179.34264 181.56208 179.46289 181.68164 C 179.58271 181.80082 179.65767 181.96553 179.6582 182.14844 L 179.6582 182.15039 C 179.6582 182.33085 179.5824 182.49509 179.46289 182.61523 C 179.34264 182.73549 179.17721 182.81055 178.99609 182.81055 L 164.16992 182.81055 C 163.98624 182.81055 163.82078 182.73545 163.70117 182.61523 C 163.58232 182.49509 163.50781 182.33085 163.50781 182.15039 L 163.50781 182.14844 C 163.50831 181.977 163.57301 181.82048 163.67969 181.70312 C 163.78672 181.58536 163.93596 181.5071 164.10352 181.49023 C 164.12582 181.48923 164.14682 181.49023 164.16992 181.49023 L 164.16992 181.48828 z "
       transform="scale(0.75)" />
    <path
       id="path11004"
       style="display:inline;fill:#0044aa;fill-opacity:1;fill-rule:nonzero;stroke:none;stroke-width:0.1;stroke-miterlimit:4;stroke-dasharray:none"
       d="m 108.10156,11.792969 c -0.25087,1.090421 -0.37992,2.205321 -0.38476,3.324219 0.005,-1.118897 0.13389,-2.233798 0.38476,-3.324219 z m -0.38476,3.324219 c -1.4e-4,2.030541 0.41277,3.961491 1.13867,5.730468 -0.74855,-1.817946 -1.13533,-3.764444 -1.13867,-5.730468 z m 29.86328,-3.320313 c 0.24664,1.089589 0.37175,2.203159 0.37304,3.320313 -0.001,-1.117154 -0.1264,-2.230724 -0.37304,-3.320313 z m 0.37304,3.320313 c -0.003,0.604665 -0.042,1.208615 -0.11718,1.808593 0.071,-0.594337 0.11723,-1.195134 0.11718,-1.808593 z m -0.18945,2.277343 c -0.0594,0.367805 -0.13236,0.733289 -0.21875,1.095703 0.0829,-0.36228 0.16245,-0.724022 0.21875,-1.095703 z m -28.88476,3.525391 c 0.76591,1.840154 1.87802,3.500891 3.26562,4.888672 -1.39795,-1.400165 -2.50747,-3.061122 -3.26562,-4.888672 z m 3.26562,4.888672 c 1.3876,1.387781 3.04666,2.499476 4.88672,3.265625 -1.82685,-0.758377 -3.48713,-1.867882 -4.88672,-3.265625 z m 24.64063,-4.873047 c -0.0483,0.102114 -0.0978,0.203683 -0.14844,0.304687 0.0462,-0.103929 0.10453,-0.199538 0.14844,-0.304687 z m -1.24414,2.320312 c -0.12079,0.190272 -0.24582,0.377819 -0.375,0.5625 0.13061,-0.184727 0.25259,-0.371783 0.375,-0.5625 z m -4.00586,4.19336 c -0.18468,0.129177 -0.37223,0.254208 -0.5625,0.375 0.19071,-0.122406 0.37777,-0.244387 0.5625,-0.375 z m -2.57813,1.470703 c -0.10101,0.05062 -0.20258,0.100098 -0.30469,0.148437 0.10515,-0.04391 0.20076,-0.102241 0.30469,-0.148437 z m -11.85351,0.177734 c 1.76888,0.726124 3.69992,1.138547 5.73046,1.138672 -1.96602,-0.0033 -3.91252,-0.390118 -5.73046,-1.138672 z m 5.73046,1.138672 c 0.61346,4.2e-5 1.21426,-0.04621 1.8086,-0.117187 -0.59998,0.0752 -1.20393,0.114329 -1.8086,0.117187 z m 3.37305,-0.408203 c -0.36241,0.08639 -0.7279,0.159359 -1.0957,0.21875 0.37168,-0.0563 0.73342,-0.135904 1.0957,-0.21875 z M 63.941406,59.611328 c -1.231516,0 -2.234375,0.999638 -2.234375,2.236328 0,1.231515 1.002859,2.234375 2.234375,2.234375 1.236691,0 2.236328,-1.00286 2.236328,-2.234375 0,-1.23669 -0.999637,-2.236328 -2.236328,-2.236328 z m 116.544924,1.56836 c -1.23671,-10e-7 -2.23633,0.999637 -2.23633,2.236328 0,1.231514 0.99962,2.228515 2.23633,2.228515 1.23152,0 2.22851,-0.997001 2.22851,-2.228515 0,-1.236691 -0.99699,-2.236328 -2.22851,-2.236328 z M 76.054688,77.855469 c -0.380633,0.0191 -0.750645,0.203346 -0.998047,0.535156 -0.434653,0.589886 -0.316448,1.41691 0.273437,1.851563 l 14.914063,11.068359 c 0.238023,0.175931 0.510911,0.259766 0.785156,0.259765 0.408779,0 0.807685,-0.181341 1.066406,-0.533203 0.439828,-0.589885 0.316449,-1.418863 -0.273437,-1.853515 L 76.908203,78.115234 c -0.255811,-0.19016 -0.55747,-0.274622 -0.853515,-0.259765 z m 87.285152,0 c -0.25437,0.01164 -0.50729,0.09677 -0.72656,0.259765 l -14.91797,11.06836 c -0.5847,0.434652 -0.70808,1.26363 -0.27343,1.853515 0.26389,0.351862 0.66084,0.533204 1.06445,0.533203 0.27424,10e-7 0.55495,-0.08383 0.79297,-0.259765 l 14.91211,-11.068359 c 0.5847,-0.434653 0.70808,-1.261677 0.27343,-1.851563 -0.27489,-0.368678 -0.70104,-0.55456 -1.125,-0.535156 z M 118.32617,94.75 c -0.11408,0.0096 -0.22793,0.03412 -0.33789,0.07422 l -3.68164,1.326172 -2.3418,0.841797 c -0.004,0.0013 -0.006,0.0045 -0.01,0.0059 l -3.67969,1.324219 c -0.2018,0.07244 -0.38637,0.197011 -0.53125,0.357422 l -13.935546,15.492192 -10.804688,10.79882 -5.34375,3.81836 c -0.108663,0.0725 -0.198459,0.16538 -0.28125,0.26367 l -5.365234,6.90821 -14.65625,15.85351 -21.8125,-23.48633 c -0.07762,-0.0776 -0.160773,-0.1488 -0.253906,-0.21093 l -3.714844,-2.39063 -0.08203,-0.0859 v 54.31836 l 0.03711,1.11524 0.111328,1.10351 0.181641,1.08789 0.253906,1.06836 0.318359,1.04297 0.386719,1.02149 0.453125,0.99023 0.511719,0.96094 0.576172,0.92383 0.632812,0.88476 0.691407,0.84375 0.74414,0.80078 0.798828,0.75 0.84961,0.70313 0.90039,0.64453 0.947266,0.5918 74.560548,43.05078 0.98242,0.52539 1.00977,0.45312 1.0332,0.38477 1.05078,0.31445 1.06445,0.24414 1.07618,0.17578 1.08398,0.10352 1.08789,0.0352 1.08594,-0.0352 1.08398,-0.10352 1.07813,-0.17578 1.06445,-0.24414 1.05078,-0.31445 1.03125,-0.38477 1.00977,-0.45312 0.98437,-0.52539 74.55664,-43.05078 0.94727,-0.5918 0.90039,-0.64453 0.84961,-0.70313 0.79687,-0.75 0.7461,-0.80078 0.68945,-0.84375 0.63477,-0.88476 0.57226,-0.92383 0.51563,-0.96094 0.44922,-0.99023 0.38671,-1.02149 0.32227,-1.04297 0.25391,-1.06836 0.17968,-1.08789 0.11328,-1.10351 0.0352,-1.11524 v -20.29687 l -10.29101,-11.33399 c -0.031,-0.0361 -0.0686,-0.0686 -0.0996,-0.0996 -0.22251,-0.19662 -0.75887,-0.66218 -1.51954,-1.26758 l -14.29687,-15.56446 c -0.045,-0.0489 -0.0938,-0.0919 -0.14453,-0.13281 -0.0263,-0.0213 -0.0544,-0.0395 -0.082,-0.0586 -0.027,-0.0186 -0.0539,-0.0383 -0.082,-0.0547 -0.0415,-0.0244 -0.0853,-0.0448 -0.12891,-0.0644 -0.009,-0.004 -0.018,-0.01 -0.0273,-0.0137 -0.002,-8.1e-4 -0.004,-8.8e-4 -0.006,-0.002 -0.0476,-0.0199 -0.0951,-0.0366 -0.14453,-0.0508 -0.013,-0.004 -0.026,-0.006 -0.0391,-0.01 -0.047,-0.012 -0.0946,-0.0206 -0.14257,-0.0274 -0.0156,-0.002 -0.0312,-0.004 -0.0469,-0.006 -0.0467,-0.005 -0.0935,-0.008 -0.14062,-0.008 -0.0176,3e-5 -0.0351,-7.3e-4 -0.0527,0 -0.0458,0.002 -0.091,0.007 -0.13672,0.0137 -0.019,0.003 -0.0378,0.006 -0.0566,0.01 -0.0439,0.008 -0.0876,0.0182 -0.13086,0.0312 -0.007,0.002 -0.0144,0.004 -0.0215,0.006 -0.0155,0.005 -0.0297,0.0121 -0.0449,0.0176 -0.028,0.0101 -0.0564,0.0172 -0.084,0.0293 l -9.71289,4.27344 c -0.16558,0.0724 -0.31533,0.18113 -0.43945,0.31055 l -2.53711,2.73242 -24.0586,-16.82227 -0.002,-0.002 -10.88672,-10.26367 -19.5332,-16.251956 c -0.12172,-0.100855 -0.26023,-0.169719 -0.4043,-0.220703 -0.0358,-0.01285 -0.0707,-0.02153 -0.10742,-0.03125 -0.13787,-0.03601 -0.27904,-0.05617 -0.42187,-0.04687 -0.009,5.83e-4 -0.0183,-0.0047 -0.0273,-0.0039 z m -46.802732,0.638672 c -0.63937,0.0365 -1.218938,0.587489 -1.248047,1.271484 -0.02587,0.734769 0.543841,1.351083 1.273437,1.376953 l 19.552734,0.771485 h 0.05273 c 0.708897,0 1.298348,-0.558681 1.324219,-1.267578 0.03105,-0.734771 -0.538667,-1.351083 -1.273438,-1.376954 l -19.552734,-0.77539 c -0.04301,-0.0023 -0.08628,-0.0024 -0.128906,0 z m 96.347652,0 -19.56054,0.77539 c -0.72961,0.02587 -1.29858,0.642183 -1.26758,1.376954 0.0259,0.708897 0.61659,1.267578 1.32031,1.267578 h 0.0508 l 19.56055,-0.771485 c 0.72959,-0.02587 1.29731,-0.642184 1.27148,-1.376953 -0.031,-0.729595 -0.67127,-1.287009 -1.375,-1.271484 z m 31.82227,2.095703 c -1.23671,0 -2.23633,1.002858 -2.23633,2.234375 0,1.23669 0.99962,2.23633 2.23633,2.23633 1.23151,0 2.23437,-0.99964 2.23437,-2.23633 0,-1.231517 -1.00286,-2.234375 -2.23437,-2.234375 z M 46.664062,99.382812 c -1.236688,0 -2.234374,1.002858 -2.234374,2.234378 0,1.23669 0.997685,2.23633 2.234374,2.23633 1.231516,0 2.236329,-0.99964 2.236329,-2.23633 0,-1.23152 -1.004812,-2.234378 -2.236329,-2.234378 z m 44.626954,3.130858 c -0.171565,0.008 -0.345478,0.05 -0.509766,0.12891 l -16.734375,7.98437 c -0.662323,0.31047 -0.94064,1.10136 -0.625,1.76367 0.227675,0.47606 0.70374,0.75586 1.195313,0.75586 0.196627,0 0.387937,-0.0409 0.574218,-0.1289 l 16.728516,-7.98438 c 0.662322,-0.31564 0.942593,-1.1072 0.626953,-1.76953 -0.23673,-0.49286 -0.741165,-0.77377 -1.255859,-0.75 z m 56.808594,0 c -0.46994,0.0241 -0.9096,0.29821 -1.12305,0.75 -0.31564,0.66233 -0.0361,1.45389 0.6211,1.76953 l 16.73242,7.98438 c 0.18627,0.088 0.37886,0.1289 0.57031,0.1289 0.49675,0 0.97281,-0.2798 1.19531,-0.75586 0.32081,-0.66231 0.0361,-1.4532 -0.62109,-1.76367 l -16.73438,-7.98437 c -0.20697,-0.0986 -0.42701,-0.13986 -0.64062,-0.12891 z m -44.94531,60.71289 c 0.68749,0 1.31706,0.15105 1.88476,0.4375 0.56771,0.29167 0.85547,0.70314 0.85547,1.23438 l -0.0371,0.0781 c 0,0.0781 -0.37043,0.78255 -1.11523,2.10547 -0.74479,1.32813 -1.32291,2.375 -1.75,3.14063 l -1.78516,3.18164 c -4.6927,8.4479 -7.037108,13.55207 -7.037108,15.29687 0,0.47916 0.171874,0.71875 0.515625,0.71875 0.958333,0 1.88997,-0.47852 2.806641,-1.43164 0.8923,-0.93308 1.630089,-1.86575 2.203124,-2.79883 0.272881,-0.7977 0.622878,-1.62667 1.052738,-2.48828 1.17708,-2.35938 2.70246,-4.36523 4.57226,-6.02148 1.86458,-1.65104 3.76563,-2.47852 5.70313,-2.47852 1.13541,0 1.97982,0.33855 2.52148,1.03125 0.54167,0.68751 0.81836,1.62891 0.81836,2.81641 0,1.16666 -0.25,2.47916 -0.73437,3.9375 -0.4948,1.45833 -1.17709,2.88671 -2.04688,4.29297 0.47396,0.0521 0.84375,0.0781 1.10938,0.0781 1.1927,0 2.22787,-0.32878 3.09765,-0.99023 0.0418,-0.0418 0.0832,-0.0792 0.125,-0.11524 0.69211,-1.3577 1.40942,-2.74907 2.18164,-4.21679 0.81771,-1.5625 1.54233,-2.97006 2.16211,-4.21485 0.625,-1.24478 0.9375,-2 0.9375,-2.26562 0.36979,-0.15626 0.77148,-0.23828 1.19336,-0.23828 0.5052,0 0.92579,0.11387 1.26953,0.33789 0.34376,0.22396 0.51563,0.57877 0.51563,1.05273 0,0.13541 -0.42057,1.01953 -1.26953,2.66016 1.75,-2.25 3.57812,-3.375 5.48437,-3.375 l -0.0371,-0.0781 c 1.08334,0 1.91276,0.42253 2.48047,1.27149 0.57292,0.84896 0.85352,1.97462 0.85352,3.38086 0,1.85417 -0.46876,3.80729 -1.40625,5.85937 -0.94271,2.05209 -2.29623,3.7754 -4.05664,5.16602 -1.76042,1.39062 -3.79753,2.08789 -6.09961,2.08789 -1.19271,0 -2.04688,-0.20183 -2.5625,-0.59766 -0.52083,-0.39584 -0.82748,-0.84961 -0.93164,-1.34961 -3.39584,7.1771 -5.08985,11.81251 -5.08985,13.90625 0,0.10414 -0.11973,0.16211 -0.35937,0.16211 -0.10414,0 -0.36915,-0.026 -0.79102,-0.0781 -0.47917,-0.0833 -0.87434,-0.31381 -1.19726,-0.69922 -0.31771,-0.38542 -0.47461,-0.81706 -0.47461,-1.29102 0,-0.16145 0.0143,-0.29231 0.0351,-0.39648 0.55728,-2.59895 1.65105,-5.65169 3.28125,-9.16211 0.84963,-1.82954 1.81122,-3.81067 2.87305,-5.93164 -1.35504,0.64209 -2.87313,0.91744 -4.55859,0.82226 -1.14063,1.53647 -2.38151,2.76627 -3.71485,3.67774 -1.33853,0.91666 -2.68619,1.36914 -4.03515,1.36914 -1.21875,0 -2.12565,-0.35872 -2.724613,-1.08789 -0.593747,-0.72916 -0.890625,-1.71811 -0.890625,-2.96289 0,-0.195 0.0069,-0.3936 0.01953,-0.59375 -0.60474,0.78847 -1.24802,1.55697 -1.931641,2.30273 -1.427083,1.56249 -2.764973,2.34375 -4.009765,2.34375 -1.645833,0 -2.462891,-0.86002 -2.462891,-2.58398 0,-1.56251 0.572267,-3.64649 1.728516,-6.25586 1.151043,-2.60938 2.797531,-5.94208 4.943359,-9.99414 0.135427,-0.21355 0.305988,-0.53125 0.519531,-0.95313 2.859378,-5.51562 4.319018,-8.82291 4.371098,-9.9375 0.23958,-0.10413 0.56704,-0.16211 0.99414,-0.16211 z m -14.109378,10.4961 c 0.744792,0 1.354166,0.15104 1.828125,0.45312 0.479167,0.30729 0.8125,0.6556 1.015625,1.05664 0.197916,0.39584 0.296875,0.75456 0.296875,1.07227 0,0.10413 -0.635417,0.15625 -1.90625,0.15625 -1.218749,0.10933 -2.014974,0.47981 -2.384766,1.11523 -0.505208,0.84894 -0.703124,1.73502 -0.59375,2.66211 0.05208,0.47916 0.177084,0.94271 0.375,1.39063 0.197918,0.45312 0.483724,0.96744 0.853516,1.55078 l 0.197265,0.15625 c 0.635419,1.08852 1.022136,1.77669 1.152344,2.06836 0.453126,0.95312 0.649739,2.01628 0.597656,3.17773 -0.05729,1.11459 -0.401041,2.01562 -1.03125,2.70313 -0.718749,0.79686 -1.765624,1.26043 -3.140624,1.39062 -0.187502,0.0312 -0.47917,0.041 -0.875,0.041 -0.901044,0 -1.738281,-0.13091 -2.503907,-0.39649 -0.901041,-0.3177 -1.589192,-0.78125 -2.068359,-1.39062 -0.369792,-0.47916 -0.59375,-1.0573 -0.671875,-1.75 -0.05208,-0.36979 -0.08398,-0.66146 -0.08398,-0.875 10e-7,-0.58334 0.08399,-1.16146 0.240235,-1.75 0.161459,-0.57812 0.401041,-1.08269 0.71875,-1.50977 0.286459,-0.44792 0.551437,-0.63607 0.791015,-0.55273 0.239583,0.0781 0.359376,0.43685 0.359376,1.07226 0,0.53126 0.104824,1.00586 0.318359,1.42774 0.213541,0.42708 0.542317,0.71874 0.990234,0.875 0.239583,0.0781 0.479168,0.11914 0.71875,0.11914 0.421875,0 0.838542,-0.0931 1.25,-0.27539 0.411459,-0.18751 0.776042,-0.43816 1.09375,-0.75586 0.427083,-0.42187 0.618484,-0.89063 0.597657,-1.39063 -0.03125,-0.3177 -0.227866,-0.6862 -0.597657,-1.11328 -0.182292,-0.18229 -0.479166,-0.46418 -0.875,-0.83398 l -0.875,-0.83789 c -0.447917,-0.47396 -0.791666,-1.03061 -1.03125,-1.66602 -0.239582,-0.63541 -0.359375,-1.27279 -0.359375,-1.9082 0,-0.92708 0.227861,-1.76433 0.675782,-2.50391 0.473956,-0.82292 1.182292,-1.52018 2.125,-2.10351 0.942706,-0.58334 1.87565,-0.875 2.802734,-0.875 z m 66.999998,0 c 0.7448,0 1.35417,0.15104 1.82813,0.45312 0.47916,0.30729 0.8177,0.6556 1.01562,1.05664 0.19791,0.39584 0.29688,0.75456 0.29688,1.07227 0,0.10413 -0.63543,0.15625 -1.90625,0.15625 -1.21876,0.10933 -2.01497,0.47981 -2.38477,1.11523 -0.5,0.84894 -0.70312,1.73502 -0.59375,2.66211 0.0521,0.47916 0.17708,0.94271 0.375,1.39063 0.19792,0.45312 0.48372,0.96744 0.85352,1.55078 l 0.20312,0.15625 c 0.63542,1.08852 1.01498,1.77669 1.15039,2.06836 0.44792,0.95312 0.64585,2.01628 0.59375,3.17773 -0.0521,1.11459 -0.39583,2.01562 -1.03125,2.70313 -0.71354,0.79686 -1.76042,1.26043 -3.14062,1.39062 -0.1823,0.0312 -0.47918,0.041 -0.875,0.041 -0.90104,0 -1.73307,-0.13091 -2.50391,-0.39649 -0.90104,-0.3177 -1.58855,-0.78125 -2.0625,-1.39062 -0.375,-0.47916 -0.5996,-1.0573 -0.67773,-1.75 -0.0521,-0.36979 -0.0781,-0.66146 -0.0781,-0.875 0,-0.30074 0.0203,-0.60028 0.0625,-0.90039 -1.61163,1.43809 -3.26338,2.63457 -4.95312,3.58398 -2.5677,1.44791 -4.99545,2.16602 -7.27149,2.16602 -1.21876,0 -2.12369,-0.3698 -2.72265,-1.10938 -0.59375,-0.74481 -0.89649,-1.73957 -0.89649,-2.98437 0,-1.8802 0.5944,-4.02018 1.77149,-6.41602 1.17707,-2.40104 2.70182,-4.43294 4.5664,-6.09961 1.86979,-1.67188 3.77149,-2.50586 5.70899,-2.50586 1.375,0 2.39517,0.29167 3.05664,0.875 0.66145,0.58334 0.99609,1.36459 0.99609,2.34375 0,1.2448 -0.47461,2.64127 -1.41211,4.19336 -0.9427,1.54687 -2.11523,2.85874 -3.52148,3.93164 -1.40103,1.07292 -2.7539,1.61524 -4.05078,1.61524 -0.84375,0 -1.5892,-0.24479 -2.22461,-0.71875 -0.0521,0.36978 -0.0781,0.62566 -0.0781,0.75586 0,0.63542 0.13476,1.1289 0.41602,1.48828 0.27604,0.35937 0.70963,0.53711 1.29297,0.53711 2.11978,0 4.04687,-0.41667 5.78125,-1.25 1.73958,-0.83854 3.14582,-1.8483 4.23437,-3.04102 v -0.043 c 0.36979,-0.23437 0.72852,-0.35351 1.07227,-0.35351 0.3698,0 0.60871,0.19792 0.71289,0.59375 -0.14688,0.15876 -0.29375,0.3143 -0.44141,0.46875 0.001,0.0427 0.004,0.0833 0.004,0.1289 0,0.53126 0.10477,1.00586 0.31836,1.42774 0.21353,0.42708 0.54622,0.71874 0.99414,0.875 0.23958,0.0781 0.48045,0.11914 0.71484,0.11914 0.42187,0 0.84245,-0.0931 1.25391,-0.27539 0.41146,-0.18751 0.77213,-0.43816 1.08984,-0.75586 0.42708,-0.42187 0.6237,-0.89063 0.59766,-1.39063 -0.026,-0.3177 -0.22266,-0.6862 -0.59766,-1.11328 -0.18229,-0.18229 -0.47525,-0.46418 -0.87109,-0.83398 l -0.875,-0.83789 c -0.45312,-0.47396 -0.79557,-1.03061 -1.03516,-1.66602 -0.23437,-0.63541 -0.35547,-1.27279 -0.35547,-1.9082 0,-0.92708 0.2246,-1.76433 0.67774,-2.50391 0.47396,-0.82292 1.18229,-1.52018 2.125,-2.10351 0.93749,-0.58334 1.87501,-0.875 2.79687,-0.875 z m -13.10937,4.33203 c -1.03646,0 -2.08333,0.5065 -3.14063,1.52734 -1.06249,1.02084 -1.94725,2.26042 -2.66601,3.71875 0.53125,0.31772 1.04556,0.47266 1.55078,0.47266 0.79686,0 1.57422,-0.29687 2.32422,-0.89063 0.76041,-0.59894 1.37369,-1.30208 1.84765,-2.10937 0.47918,-0.8073 0.71485,-1.47267 0.71485,-2.00391 0,-0.47916 -0.19271,-0.71484 -0.59375,-0.71484 z m -32.27149,0.15625 c -1.03125,0 -2.07227,0.4375 -3.11914,1.3125 -1.04688,0.875 -1.91601,1.92188 -2.60351,3.14062 -0.6875,1.21875 -1.03125,2.29167 -1.03125,3.21875 0,0.53126 0.14583,0.95378 0.4375,1.27149 0.29166,0.3177 0.7285,0.47851 1.30664,0.47851 0.40104,0 0.79622,-0.082 1.19726,-0.23828 l -0.24414,-0.0781 c -0.26041,-0.0833 -0.45246,-0.23503 -0.57226,-0.45899 -0.11974,-0.22396 -0.15175,-0.47462 -0.0996,-0.74023 0.0781,-0.26043 0.22982,-0.47851 0.45898,-0.65039 0.22396,-0.17708 0.47787,-0.25977 0.76953,-0.25977 0.16146,0 0.28126,0.015 0.35938,0.041 0.36978,0.13026 0.92707,0.30208 1.67187,0.51562 l 0.0371,0.041 c 0.875,-0.84896 1.59831,-1.83789 2.16602,-2.96289 0.57292,-1.125 0.85547,-2.11395 0.85547,-2.96289 0,-1.10939 -0.53255,-1.66797 -1.58985,-1.66797 z m 17.28711,0.043 c -0.95312,0 -2.08919,0.6875 -3.39648,2.0625 -1.31251,1.38021 -2.46745,2.9414 -3.45703,4.6914 -0.9948,1.7448 -1.49024,3.03255 -1.49024,3.85547 0,0.44791 0.17188,0.67578 0.51563,0.67578 1.1927,0 2.46355,-0.6302 3.8125,-1.89062 1.35417,-1.2552 2.50586,-2.72396 3.45898,-4.39063 0.95833,-1.66666 1.43164,-2.97852 1.43164,-3.93164 0,-0.71353 -0.29166,-1.07226 -0.875,-1.07226 z"
       transform="scale(0.75)"
       sodipodi:nodetypes="ccccccccccccccccccccccccccccccccccccccccccssssssssssscccscccsscccscccsccccccccccccccccccccccccccccccccccccccccccccccccccccccccccccccccccccccccccccsscccccsccccccccccccccccscccccscccccccsccccssssssssssccccsccccscccscccssccccccssccscscsccscccccscsccccscssccssccscscccscsccssccccssccsccccccccccscccscccsccsccccccsscsssccsccccccccccscccsccscsccsssccscscscccsccsccscccccccsccssccsccssssssssscscccsccccsssccssccss" />
    <path
       id="path2021"
       style="display:inline;fill:#ffffff;fill-opacity:1;fill-rule:nonzero;stroke:none;stroke-width:0.1;stroke-miterlimit:4;stroke-dasharray:none"
       d="m 111.78125,99.876953 -2.29492,0.826167 -13.757814,15.28907 -10.923828,10.92969 c -0.05174,0.0518 -0.107828,0.0973 -0.169922,0.13867 l -5.279297,3.77343 -5.31836,6.83985 -28.515625,30.84961 c -0.263896,0.27942 -0.61562,0.42383 -0.972656,0.42383 -0.320814,0 -0.641672,-0.11865 -0.90039,-0.35157 -0.538143,-0.49674 -0.568993,-1.3349 -0.07227,-1.87304 L 55.17773,154.17188 c -0.195145,-0.0275 -0.386694,-0.0977 -0.554687,-0.21876 l -6.355469,-4.36718 -10.513672,-8.8125 0.119141,1.05468 c 0.08279,0.70895 -0.413464,1.35033 -1.117188,1.45899 -0.708897,0.10862 -1.367418,-0.36199 -1.501953,-1.06055 -0.0083,-0.0453 -0.869617,-3.96262 -3.759765,-7.23047 v 44.96289 l 0.03711,1.11524 0.111328,1.10351 0.181641,1.08789 0.253906,1.06836 0.318359,1.04297 0.386719,1.02149 0.453125,0.99023 0.511719,0.96094 0.576172,0.92383 0.632812,0.88476 0.691407,0.84375 0.74414,0.80078 0.798828,0.75 0.84961,0.70313 0.90039,0.64453 0.947266,0.5918 74.560551,43.05078 0.98242,0.52539 1.00977,0.45312 1.0332,0.38477 1.05078,0.31445 1.06445,0.24414 1.07618,0.17578 1.08398,0.10352 1.08789,0.0352 1.08594,-0.0352 1.08398,-0.10352 1.07813,-0.17578 1.06445,-0.24414 1.05078,-0.31445 1.03125,-0.38477 1.00977,-0.45312 0.98437,-0.52539 74.55664,-43.05078 0.94727,-0.5918 0.90039,-0.64453 0.84961,-0.70313 0.79687,-0.75 0.7461,-0.80078 0.68945,-0.84375 0.63477,-0.88476 0.57226,-0.92383 0.51563,-0.96094 0.44922,-0.99023 0.38671,-1.02149 0.32227,-1.04297 0.25391,-1.06836 0.17968,-1.08789 0.11328,-1.10351 0.0352,-1.11524 v -16.04687 l -13.79883,-15.05273 c -3.56093,-2.73609 -10.02529,-6.72349 -12.98828,-4.27735 -4.91572,4.04123 -8.42403,10.67492 -8.45508,10.74219 -0.28459,0.53814 -0.90033,0.81089 -1.49023,0.66601 -0.59506,-0.14489 -1.00977,-0.67261 -1.00977,-1.2832 v -1.46875 l -6.13086,5.32031 c -0.49674,0.43465 -1.24153,0.42948 -1.73828,-0.006 -0.50192,-0.43982 -0.59659,-1.17484 -0.23437,-1.72851 l 7.96875,-11.99414 c 0.057,-0.0828 0.12017,-0.16125 0.1875,-0.22852 l 8.66211,-8.27929 0.23633,-1.87696 -7.32618,3.21875 -16.96679,18.26953 c -0.49675,0.53815 -1.33491,0.56888 -1.87305,0.0723 -0.53296,-0.49675 -0.56317,-1.33491 -0.0664,-1.87305 l 12.04493,-12.97265 -13.54688,-8.72266 -6.51367,-4.43945 c -0.057,0.45535 -0.35177,0.85863 -0.78125,1.04492 -0.48639,0.21214 -1.04555,0.11802 -1.43359,-0.24414 l -6.06446,-5.60352 -5.36523,-0.34179 1.89258,7.57031 c 0.14489,0.56918 -0.10811,1.16403 -0.61524,1.45898 -0.50709,0.30012 -1.14864,0.22782 -1.57812,-0.17578 L 120.25,115.67773 c -0.10346,-0.0931 -0.19055,-0.2137 -0.25781,-0.33789 z M 26.630859,127.98047 c 0.0041,0.0274 0.0117,0.0511 0.01758,0.0781 -0.005,-0.0265 -0.01423,-0.0513 -0.01758,-0.0781 z m 57.138672,13.93164 h 10.691407 v 0.62109 h -2.31836 l 5.490234,16.33985 5.685548,-16.33985 h -2.55078 v -0.62109 h 5.0039 v 0.62109 h -1.5371 l -7.880864,22.58594 H 93.611328 L 85.275391,142.5332 h -1.50586 z m 51.181639,2.74219 c 1.5368,0 2.64844,0.85402 2.64844,2.42187 0,1.50576 -0.98231,2.15625 -2.05859,2.15625 -0.98315,0 -1.83312,-0.58994 -1.9004,-1.69726 l 0.91602,-0.5586 c 0.0983,-0.52261 -0.0982,-1.01367 -0.78125,-1.01367 -0.39779,0 -1.28692,0.11894 -1.39648,1.80078 -0.007,0.11212 -0.01,0.23097 -0.01,0.35742 0,0.52262 0.0662,1.17961 0.22656,1.96094 1.27809,0.84863 2.48438,1.99266 2.48438,4.15039 0,3.25989 -2.05216,5.09251 -5.23438,5.5 -0.2273,0.0291 -0.46072,0.0519 -0.69922,0.0664 -0.23849,0.0145 -0.48144,0.0215 -0.73046,0.0215 -0.94694,0 -1.9622,-0.13051 -2.6504,-0.25976 -1.14354,0.71925 -1.43747,1.0781 -1.4375,1.37304 0,0.29494 0.3616,0.45899 2.08985,0.45899 h 3.33789 c 3.5791,0 7.18618,0.82535 7.4082,4.91797 0.007,0.13202 0.0117,0.26735 0.0117,0.40625 0,3.62728 -2.61813,6.24218 -9.2207,6.24218 -5.68671,0 -8.07227,-1.37262 -8.07227,-3.49414 0,-1.63512 1.37598,-2.29248 2.51953,-2.61328 l 1.96094,0.88086 c -0.19663,0.71924 -0.26367,1.2723 -0.26367,1.79492 0,0.6882 0.17196,1.3915 0.78125,1.92188 0.0762,0.0663 0.15966,0.12889 0.25,0.18945 0.6324,0.4239 1.62395,0.69922 3.1543,0.69922 0.21635,0 0.42728,-0.007 0.63086,-0.0176 0.40714,-0.0215 0.78911,-0.0645 1.14453,-0.12695 2.31024,-0.40597 3.51953,-1.64508 3.51953,-3.31836 0,-1.56785 -0.71975,-2.1875 -4.15039,-2.1875 h -3.17188 c -3.89117,0 -4.9375,-1.60576 -4.9375,-3.03906 0,-1.8628 1.17554,-2.78283 3.72657,-4.31446 -2.55102,-0.71925 -3.78711,-2.25608 -3.78711,-4.97265 0,-3.06844 2.12021,-5.45313 7.05664,-5.45313 1.59889,0 2.55067,0.22653 3.62695,0.81641 -0.12941,-0.58988 -0.19531,-1.11193 -0.19531,-1.60352 0,-2.68036 1.86294,-3.46679 3.20312,-3.46679 z m -22.71094,4.2539 c 5.12787,0 7.32164,2.58201 7.125,7.45118 h -9.2207 v 1.27148 c 0,0.24093 0.002,0.47805 0.008,0.70898 0.0872,3.46403 0.87788,5.76563 3.85157,5.76563 2.41646,0 4.05223,-1.5367 4.77148,-4.05664 l 0.58984,0.0976 c -0.75546,2.8149 -2.45229,4.97266 -7.09375,4.97266 -5.81607,0 -8.43554,-3.3377 -8.43554,-8.07226 0,-5.65567 3.86114,-8.13868 8.40429,-8.13868 z m 32.54688,0 c 5.12787,0 6.86133,1.43726 6.86133,6.17188 v 6.63867 c 0,1.34016 0.3936,1.69727 0.94726,1.69727 0.58988,0 1.1482,-0.61957 1.3086,-3.36719 l 0.49218,0.0351 c -0.16558,3.92223 -1.37065,5.03516 -4.18554,5.03516 -0.33052,0 -0.64337,-0.0136 -0.9375,-0.0391 -2.05894,-0.17842 -3.23073,-0.97926 -3.57032,-2.38281 -0.52259,1.56785 -1.47461,2.42187 -3.76171,2.42187 -2.2871,0 -4.83789,-0.68873 -4.83789,-3.95898 0,-3.3013 2.84507,-4.0508 7.51757,-4.05078 h 0.94727 v -2.51563 c 0,-4.15508 -0.3569,-5.23047 -1.66602,-5.23047 -0.14618,0 -0.31484,0.0156 -0.48632,0.0566 -0.0429,0.0103 -0.0861,0.0217 -0.12891,0.0352 -0.47126,0.14813 -0.92188,0.49819 -0.92188,1.2168 0,0.25873 0.068,0.59023 0.19727,0.94726 h 0.81641 c 0.16558,0.42431 0.26562,0.84782 0.26562,1.46875 0,1.34471 -0.95207,2.28877 -2.28515,2.50391 -0.0952,0.0154 -0.1921,0.0273 -0.29102,0.0351 -0.0989,0.008 -0.19859,0.0117 -0.30078,0.0117 -2.02838,0 -2.81055,-1.11203 -2.81055,-2.71094 0,-0.25759 0.0208,-0.50254 0.0625,-0.73437 0.0139,-0.0773 0.0303,-0.15212 0.0488,-0.22656 0.51735,-2.08434 2.82951,-3.0586 6.71875,-3.0586 z m -16.50195,0.58399 c -0.91589,0 -1.57227,0.59037 -1.57227,4.15039 v 1.76953 c 0,3.06843 0.55913,3.75586 1.53711,3.75586 0.88482,0 1.4375,-0.52228 1.4375,-3.92188 v -1.60351 c 0,-3.65832 -0.52269,-4.15039 -1.40234,-4.15039 z m -16.33985,0.0352 c -1.14355,0 -1.76562,1.11253 -1.76562,4.57422 v 1.59961 h 3.36328 v -1.59961 c 0,-3.43065 -0.25748,-4.57422 -1.59766,-4.57422 z m 33.39649,8.10352 c -1.37123,0 -2.02344,0.98442 -2.02344,2.97656 v 0.52149 c 0,2.35437 0.22672,2.68164 0.84766,2.68164 0.62093,0 1.40234,-1.04624 1.40234,-3.13672 v -3.04297 z m -42.1875,5.5957 c 0.68749,0 1.31706,0.15105 1.88476,0.4375 0.56771,0.29167 0.85547,0.70314 0.85547,1.23438 l -0.0371,0.0781 c 0,0.0781 -0.37043,0.78255 -1.11523,2.10547 -0.74479,1.32813 -1.32291,2.375 -1.75,3.14063 l -1.78516,3.18164 c -4.692703,8.4479 -7.037108,13.55207 -7.037108,15.29687 0,0.47916 0.171874,0.71875 0.515625,0.71875 0.958333,0 1.889972,-0.47852 2.806641,-1.43164 0.8923,-0.93308 1.630089,-1.86575 2.203124,-2.79883 0.272879,-0.7977 0.622878,-1.62667 1.052738,-2.48828 1.17708,-2.35938 2.70246,-4.36523 4.57226,-6.02148 1.86458,-1.65104 3.76563,-2.47852 5.70313,-2.47852 1.13541,0 1.97982,0.33855 2.52148,1.03125 0.54167,0.68751 0.81836,1.62891 0.81836,2.81641 0,1.16666 -0.25,2.47916 -0.73437,3.9375 -0.4948,1.45833 -1.17709,2.88671 -2.04688,4.29297 0.47396,0.0521 0.84375,0.0781 1.10938,0.0781 1.1927,0 2.22787,-0.32878 3.09765,-0.99023 0.0418,-0.0418 0.0832,-0.0792 0.125,-0.11524 0.69211,-1.3577 1.40942,-2.74907 2.18164,-4.21679 0.81771,-1.5625 1.54233,-2.97006 2.16211,-4.21485 0.625,-1.24478 0.9375,-2 0.9375,-2.26562 0.36979,-0.15626 0.77148,-0.23828 1.19336,-0.23828 0.5052,0 0.92579,0.11387 1.26953,0.33789 0.34376,0.22396 0.51563,0.57877 0.51563,1.05273 0,0.13541 -0.42057,1.01953 -1.26953,2.66016 1.75,-2.25 3.57812,-3.375 5.48437,-3.375 l -0.0371,-0.0781 c 1.08334,0 1.91276,0.42253 2.48047,1.27149 0.57292,0.84896 0.85352,1.97462 0.85352,3.38086 0,1.85417 -0.46876,3.80729 -1.40625,5.85937 -0.94271,2.05209 -2.29623,3.7754 -4.05664,5.16602 -1.76042,1.39062 -3.79753,2.08789 -6.09961,2.08789 -1.19271,0 -2.04688,-0.20183 -2.5625,-0.59766 -0.52083,-0.39584 -0.82748,-0.84961 -0.93164,-1.34961 -2.72464,5.75852 -4.33356,9.85184 -4.8711,12.33789 v 5.56055 c 0,1.06076 0.31213,1.34961 0.75196,1.34961 0.4657,0 0.90385,-0.49148 1.0332,-2.66992 l 0.38867,0.0273 c -0.12941,3.10983 -1.08554,3.98828 -3.31055,3.98828 -0.2626,0 -0.51064,-0.009 -0.74414,-0.0293 -1.63447,-0.14126 -2.56036,-0.77684 -2.83203,-1.89063 -0.41395,1.24703 -1.16355,1.91992 -2.97461,1.91992 -1.81105,0 -3.83597,-0.54236 -3.83593,-3.13476 0,-2.6131 2.2573,-3.20899 5.95703,-3.20899 h 0.75 v -1.99609 c 0,-3.28578 -0.28543,-4.14063 -1.32032,-4.14063 -0.46569,0 -1.21484,0.20725 -1.21484,1.03516 0,0.20699 0.0509,0.4654 0.1543,0.75 h 0.64648 c 0.12941,0.33632 0.20703,0.67249 0.20703,1.16406 0,1.06399 -0.75184,1.8152 -1.80664,1.98633 -0.0753,0.0122 -0.15221,0.0211 -0.23047,0.0273 -0.0783,0.006 -0.15743,0.01 -0.23828,0.01 -1.60924,0 -2.23047,-0.88461 -2.23047,-2.15234 0,-2.17327 1.8935,-3.18165 5.41211,-3.18164 1.39807,-4e-5 2.47821,0.13395 3.29297,0.46289 0.029,0.0117 0.056,0.0248 0.084,0.0371 -0.008,0.0235 -0.0117,0.0429 -0.0195,0.0664 0.59461,-1.79726 1.36402,-3.74199 2.35547,-5.87695 0.84963,-1.82954 1.81122,-3.81067 2.87305,-5.93164 -1.35504,0.64209 -2.87313,0.91744 -4.55859,0.82226 -1.14063,1.53647 -2.38151,2.76627 -3.71485,3.67774 -1.33853,0.91666 -2.68619,1.36914 -4.03515,1.36914 -1.21875,0 -2.12565,-0.35872 -2.724613,-1.08789 -0.593747,-0.72916 -0.890625,-1.71811 -0.890625,-2.96289 0,-0.195 0.0069,-0.3936 0.01953,-0.59375 -0.60474,0.78847 -1.248023,1.55697 -1.931641,2.30273 -1.427086,1.56249 -2.764973,2.34375 -4.009765,2.34375 -1.645833,0 -2.462891,-0.86002 -2.462891,-2.58398 0,-1.56251 0.572267,-3.64649 1.728516,-6.25586 1.151043,-2.60938 2.797531,-5.94208 4.943359,-9.99414 0.135427,-0.21355 0.305986,-0.53125 0.519531,-0.95313 2.859379,-5.51562 4.319019,-8.82291 4.371099,-9.9375 0.23958,-0.10413 0.56704,-0.16211 0.99414,-0.16211 z m -14.109378,10.4961 c 0.744792,0 1.354166,0.15104 1.828125,0.45312 0.479167,0.30729 0.8125,0.6556 1.015625,1.05664 0.197916,0.39584 0.296875,0.75456 0.296875,1.07227 0,0.10413 -0.635417,0.15625 -1.90625,0.15625 -1.218749,0.10933 -2.014974,0.47981 -2.384766,1.11523 -0.505208,0.84894 -0.703124,1.73502 -0.59375,2.66211 0.05208,0.47916 0.177084,0.94271 0.375,1.39063 0.197918,0.45312 0.483724,0.96744 0.853516,1.55078 l 0.197265,0.15625 c 0.635419,1.08852 1.022136,1.77669 1.152344,2.06836 0.453126,0.95312 0.649739,2.01628 0.597656,3.17773 -0.05729,1.11459 -0.401041,2.01562 -1.03125,2.70313 -0.718749,0.79686 -1.765624,1.26043 -3.140624,1.39062 -0.187502,0.0312 -0.479169,0.041 -0.875,0.041 -0.901044,0 -1.738281,-0.13091 -2.503907,-0.39649 -0.901041,-0.3177 -1.589192,-0.78125 -2.068359,-1.39062 -0.369792,-0.47916 -0.59375,-1.0573 -0.671875,-1.75 -0.05208,-0.36979 -0.08398,-0.66146 -0.08398,-0.875 10e-7,-0.58334 0.08399,-1.16146 0.240235,-1.75 0.161459,-0.57812 0.401041,-1.08269 0.71875,-1.50977 0.286459,-0.44792 0.551434,-0.63607 0.791015,-0.55273 0.239583,0.0781 0.359376,0.43685 0.359376,1.07226 0,0.53126 0.104824,1.00586 0.318359,1.42774 0.213541,0.42708 0.542317,0.71874 0.990234,0.875 0.239583,0.0781 0.479168,0.11914 0.71875,0.11914 0.421875,0 0.838542,-0.0931 1.25,-0.27539 0.411459,-0.18751 0.776042,-0.43816 1.09375,-0.75586 0.427083,-0.42187 0.618488,-0.89063 0.597657,-1.39063 -0.03125,-0.3177 -0.227866,-0.6862 -0.597657,-1.11328 -0.182292,-0.18229 -0.479166,-0.46418 -0.875,-0.83398 l -0.875,-0.83789 c -0.447917,-0.47396 -0.791666,-1.03061 -1.03125,-1.66602 -0.239582,-0.63541 -0.359375,-1.27279 -0.359375,-1.9082 0,-0.92708 0.227863,-1.76433 0.675782,-2.50391 0.473956,-0.82292 1.182292,-1.52018 2.125,-2.10351 0.942708,-0.58334 1.87565,-0.875 2.802734,-0.875 z m 66.999998,0 c 0.7448,0 1.35417,0.15104 1.82813,0.45312 0.47916,0.30729 0.8177,0.6556 1.01562,1.05664 0.19791,0.39584 0.29688,0.75456 0.29688,1.07227 0,0.10413 -0.63543,0.15625 -1.90625,0.15625 -1.21876,0.10933 -2.01497,0.47981 -2.38477,1.11523 -0.5,0.84894 -0.70312,1.73502 -0.59375,2.66211 0.0521,0.47916 0.17708,0.94271 0.375,1.39063 0.19792,0.45312 0.48372,0.96744 0.85352,1.55078 l 0.20312,0.15625 c 0.63542,1.08852 1.01498,1.77669 1.15039,2.06836 0.44792,0.95312 0.64585,2.01628 0.59375,3.17773 -0.0521,1.11459 -0.39583,2.01562 -1.03125,2.70313 -0.71354,0.79686 -1.76042,1.26043 -3.14062,1.39062 -0.1823,0.0312 -0.47918,0.041 -0.875,0.041 -0.90104,0 -1.73307,-0.13091 -2.50391,-0.39649 -0.90104,-0.3177 -1.58855,-0.78125 -2.0625,-1.39062 -0.375,-0.47916 -0.5996,-1.0573 -0.67773,-1.75 -0.0521,-0.36979 -0.0781,-0.66146 -0.0781,-0.875 0,-0.30074 0.0203,-0.60028 0.0625,-0.90039 -1.61163,1.43809 -3.26338,2.63457 -4.95312,3.58398 -2.5677,1.44791 -4.99545,2.16602 -7.27149,2.16602 -1.21876,0 -2.12369,-0.3698 -2.72265,-1.10938 -0.59375,-0.74481 -0.89649,-1.73957 -0.89649,-2.98437 0,-1.8802 0.5944,-4.02018 1.77149,-6.41602 1.17707,-2.40104 2.70182,-4.43294 4.5664,-6.09961 1.86979,-1.67188 3.77149,-2.50586 5.70899,-2.50586 1.375,0 2.39517,0.29167 3.05664,0.875 0.66145,0.58334 0.99609,1.36459 0.99609,2.34375 0,1.2448 -0.47461,2.64127 -1.41211,4.19336 -0.9427,1.54687 -2.11523,2.85874 -3.52148,3.93164 -1.40103,1.07292 -2.7539,1.61524 -4.05078,1.61524 -0.84375,0 -1.5892,-0.24479 -2.22461,-0.71875 -0.0521,0.36978 -0.0781,0.62566 -0.0781,0.75586 0,0.63542 0.13476,1.1289 0.41602,1.48828 0.27604,0.35937 0.70963,0.53711 1.29297,0.53711 2.11978,0 4.04687,-0.41667 5.78125,-1.25 1.73958,-0.83854 3.14582,-1.8483 4.23437,-3.04102 v -0.043 c 0.36979,-0.23437 0.72852,-0.35351 1.07227,-0.35351 0.3698,0 0.60871,0.19792 0.71289,0.59375 -0.14688,0.15876 -0.29375,0.3143 -0.44141,0.46875 0.001,0.0427 0.004,0.0833 0.004,0.1289 0,0.53126 0.10477,1.00586 0.31836,1.42774 0.21353,0.42708 0.54622,0.71874 0.99414,0.875 0.23958,0.0781 0.48045,0.11914 0.71484,0.11914 0.42187,0 0.84245,-0.0931 1.25391,-0.27539 0.41146,-0.18751 0.77213,-0.43816 1.08984,-0.75586 0.42708,-0.42187 0.6237,-0.89063 0.59766,-1.39063 -0.026,-0.3177 -0.22266,-0.6862 -0.59766,-1.11328 -0.18229,-0.18229 -0.47525,-0.46418 -0.87109,-0.83398 l -0.875,-0.83789 c -0.45312,-0.47396 -0.79557,-1.03061 -1.03516,-1.66602 -0.23437,-0.63541 -0.35547,-1.27279 -0.35547,-1.9082 0,-0.92708 0.2246,-1.76433 0.67774,-2.50391 0.47396,-0.82292 1.18229,-1.52018 2.125,-2.10351 0.93749,-0.58334 1.87501,-0.875 2.79687,-0.875 z m -13.10937,4.33203 c -1.03646,0 -2.08333,0.5065 -3.14063,1.52734 -1.06249,1.02084 -1.94725,2.26042 -2.66601,3.71875 0.53125,0.31772 1.04556,0.47266 1.55078,0.47266 0.79686,0 1.57422,-0.29687 2.32422,-0.89063 0.76041,-0.59894 1.37369,-1.30208 1.84765,-2.10937 0.47918,-0.8073 0.71485,-1.47267 0.71485,-2.00391 0,-0.47916 -0.19271,-0.71484 -0.59375,-0.71484 z m -32.27149,0.15625 c -1.03125,0 -2.07227,0.4375 -3.11914,1.3125 -1.04688,0.875 -1.91601,1.92188 -2.60351,3.14062 -0.6875,1.21875 -1.03125,2.29167 -1.03125,3.21875 0,0.53126 0.14583,0.95378 0.4375,1.27149 0.29166,0.3177 0.7285,0.47851 1.30664,0.47851 0.40104,0 0.79622,-0.082 1.19726,-0.23828 l -0.24414,-0.0781 c -0.26041,-0.0833 -0.45246,-0.23503 -0.57226,-0.45899 -0.11974,-0.22396 -0.15173,-0.47462 -0.0996,-0.74023 0.0781,-0.26043 0.22982,-0.47851 0.45898,-0.65039 0.22396,-0.17708 0.47787,-0.25977 0.76953,-0.25977 0.16146,0 0.28126,0.015 0.35938,0.041 0.36978,0.13026 0.92707,0.30208 1.67187,0.51562 l 0.0371,0.041 c 0.875,-0.84896 1.59831,-1.83789 2.16602,-2.96289 0.57292,-1.125 0.85547,-2.11395 0.85547,-2.96289 0,-1.10939 -0.53255,-1.66797 -1.58985,-1.66797 z m 17.28711,0.043 c -0.95312,0 -2.08919,0.6875 -3.39648,2.0625 -1.31251,1.38021 -2.46745,2.9414 -3.45703,4.6914 -0.9948,1.7448 -1.49024,3.03255 -1.49024,3.85547 0,0.44791 0.17188,0.67578 0.51563,0.67578 1.1927,0 2.46355,-0.6302 3.8125,-1.89062 1.35417,-1.2552 2.50586,-2.72396 3.45898,-4.39063 0.95833,-1.66666 1.43164,-2.97852 1.43164,-3.93164 0,-0.71353 -0.29166,-1.07226 -0.875,-1.07226 z m -68.439451,3.23242 h 14.826172 c 0.367385,0 0.662109,0.29472 0.662109,0.66211 0,0.36221 -0.294724,0.66211 -0.662109,0.66211 H 59.511719 c -0.367386,0 -0.66211,-0.2999 -0.66211,-0.66211 0,-0.36739 0.294724,-0.66211 0.66211,-0.66211 z m 104.658201,0 h 14.82617 c 0.36222,0 0.66211,0.29472 0.66211,0.66211 0,0.36221 -0.29989,0.66211 -0.66211,0.66211 h -14.82617 c -0.36737,0 -0.66211,-0.2999 -0.66211,-0.66211 0,-0.34443 0.2606,-0.62641 0.59571,-0.66016 0.0223,-0.002 0.0434,-0.002 0.0664,-0.002 z m -22.5957,13.6289 c 1.21599,0 2.0957,0.67289 2.0957,1.91993 0,1.19012 -0.7758,1.70703 -1.63476,1.70703 -0.77615,0 -1.45022,-0.46607 -1.50196,-1.34571 l 0.72461,-0.44531 c 0.0776,-0.40877 -0.0726,-0.79687 -0.62109,-0.79687 -0.31533,0 -1.01701,0.0927 -1.10352,1.42578 -0.006,0.0889 -0.008,0.18295 -0.008,0.2832 0,0.41395 0.0503,0.92985 0.17969,1.55078 1.00902,0.67268 1.97265,1.57954 1.97265,3.28711 0,1.84662 -0.83091,3.11491 -2.22461,3.80664 -0.0697,0.0346 -0.14042,0.0679 -0.21289,0.0996 -0.50724,0.22192 -1.08249,0.37246 -1.71289,0.45313 -0.18011,0.023 -0.36377,0.0412 -0.55273,0.0527 -0.18896,0.0115 -0.3828,0.0176 -0.58008,0.0176 -0.75547,0 -1.55238,-0.10351 -2.0957,-0.20703 -0.9107,0.56918 -1.14453,0.8531 -1.14453,1.08594 0,0.23285 0.28501,0.36132 1.65625,0.36132 h 2.64453 c 2.92356,0 5.8789,0.69886 5.8789,4.22266 0,1.52839 -0.58734,2.82943 -1.91992,3.71289 -0.0784,0.052 -0.15863,0.1033 -0.24218,0.15234 -1.17027,0.68661 -2.85417,1.08204 -5.14063,1.08204 -4.50693,0 -6.39453,-1.08658 -6.39453,-2.77344 0,-1.2936 1.08665,-1.81159 1.99219,-2.07031 l 1.55273,0.69921 c -0.15524,0.56919 -0.20703,1.00792 -0.20703,1.42188 0,0.5459 0.13467,1.10432 0.61719,1.52539 0.0603,0.0526 0.1257,0.10231 0.19726,0.15039 0.50093,0.33656 1.28855,0.55469 2.50196,0.55469 0.1714,0 0.33678,-0.003 0.49804,-0.0117 0.32252,-0.0172 0.62477,-0.0518 0.90625,-0.10156 1.82966,-0.32325 2.78711,-1.30848 2.78711,-2.63282 0,-1.24186 -0.56858,-1.73437 -3.28515,-1.73437 h -2.50977 c -2.12023,0 -3.17533,-0.59933 -3.62695,-1.34375 -0.0411,-0.0677 -0.076,-0.1373 -0.10743,-0.20703 -0.12576,-0.27894 -0.17773,-0.57088 -0.17773,-0.85547 0,-1.47472 0.92992,-2.20392 2.95313,-3.41992 -2.02321,-0.56919 -3.00586,-1.78494 -3.00586,-3.9375 0,-0.076 0.003,-0.15165 0.006,-0.22657 0.10234,-2.32176 1.79825,-4.09376 5.58789,-4.09374 1.26773,-5e-5 2.0173,0.18079 2.87109,0.64648 -0.10347,-0.46569 -0.1543,-0.8795 -0.1543,-1.26758 0,-2.12669 1.47507,-2.74805 2.54102,-2.74805 z m -44.320314,3.36915 c 1.526454,-5e-5 2.744141,0.80128 2.744141,2.76757 0,1.47471 -0.77674,2.46289 -2.173828,2.46289 -0.216681,0 -0.419949,-0.0175 -0.607422,-0.0508 -0.04687,-0.008 -0.09175,-0.017 -0.136719,-0.0273 -1.214236,-0.2797 -1.731861,-1.29533 -1.273437,-2.84961 h 0.93164 c 0.517451,-1.06075 -0.0016,-1.32031 -0.544922,-1.32031 -0.116425,0 -0.231455,0.0172 -0.345703,0.0488 -0.03808,0.0105 -0.07557,0.0213 -0.113281,0.0352 -1.05579,0.38846 -1.951172,2.07132 -1.951172,4.11328 v 6.9375 H 95.625 v 0.4668 h -8.082031 v -0.4668 h 1.427734 V 199.2091 h -1.427734 v -0.46679 h 6.240234 v 2.48437 c 0.470873,-1.8369 1.918367,-2.74221 3.470703,-2.74218 z m 27.093754,0 c 2.40611,-5e-5 4.00976,1.18977 4.00976,4.32031 v 7.79687 h 1.45508 v 0.4668 h -7.32617 v -0.4668 h 1.06055 v -8.41211 c 0,-2.2043 -0.31091,-2.46484 -0.9629,-2.46484 -1.08144,0 -2.0957,1.63159 -2.0957,3.73242 v 7.14453 h 1.11719 v 0.4668 h -7.35742 v -0.4668 h 1.42187 v -11.39258 h -1.42187 v -0.0215 c 0.0614,-0.14999 0.12227,-0.29927 0.17968,-0.44531 h 6.06055 v 2.38086 c 0.43983,-1.2936 1.29804,-2.63871 3.85938,-2.63867 z m 25.33398,0 c 4.06193,-5e-5 5.80104,2.04222 5.64063,5.90234 h -7.30079 v 1.00976 c 0,0.19081 5.8e-4,0.37765 0.006,0.56055 0.0689,2.74349 0.69513,4.56836 3.05274,4.56836 1.91453,0 3.20814,-1.22268 3.77734,-3.21484 l 0.46485,0.0781 c -0.59506,2.22502 -1.94013,3.9375 -5.61915,3.9375 -3.02216,0 -4.95431,-1.13545 -5.92578,-2.97851 -0.0463,-0.0878 -0.0909,-0.17859 -0.13281,-0.26954 -0.41916,-0.90921 -0.62109,-1.97253 -0.62109,-3.14648 0,-4.48105 3.05679,-6.44731 6.6582,-6.44726 z m -13.39062,0.46484 c -0.72443,0 -1.24805,0.46505 -1.24805,3.28516 v 1.40234 c 0,2.43197 0.44134,2.97656 1.22265,2.97656 0.69857,0 1.13672,-0.41545 1.13672,-3.11133 v -1.26757 c 0,-2.89772 -0.41278,-3.28516 -1.11132,-3.28516 z m 13.15234,0.0254 c -0.90552,0 -1.39652,0.88059 -1.39648,3.62305 v 1.27343 h 2.66992 v -1.27343 c 0,-2.71659 -0.20751,-3.62305 -1.27344,-3.62305 z m -40.64648,3.1875 c -0.0139,0.0618 -0.0435,0.13612 -0.0567,0.19727 -0.0208,0.10414 -0.0371,0.23503 -0.0371,0.39648 0,0.0599 0.0243,0.11336 0.0293,0.17187 -0.006,-0.0649 -0.0156,-0.12876 -0.0156,-0.19531 0,-0.16145 0.0143,-0.29231 0.0351,-0.39648 0.0119,-0.0555 0.0325,-0.11787 0.0449,-0.17383 z m 2.93359,1.03906 c -0.0966,0.47059 -0.15918,0.8887 -0.17383,1.23633 0.0601,-0.3226 0.11491,-0.93875 0.17383,-1.23633 z m -2.94531,0.0215 c 0.036,0.14769 0.091,0.28982 0.16211,0.42773 -0.0725,-0.13727 -0.12467,-0.28069 -0.16211,-0.42773 z m 0.25,0.57812 c 0.0509,0.0812 0.0787,0.16859 0.14257,0.2461 0.0698,0.0833 0.15776,0.13034 0.23438,0.19921 -0.0762,-0.0686 -0.15129,-0.13981 -0.2207,-0.22265 -0.0595,-0.0722 -0.108,-0.14725 -0.15625,-0.22266 z m 0.45117,0.51172 c 0.15484,0.12612 0.32488,0.22506 0.50781,0.29688 -0.18317,-0.072 -0.35281,-0.17044 -0.50781,-0.29688 z m 0.61523,0.33594 c 0.0926,0.0302 0.17371,0.0803 0.27344,0.0977 0.42187,0.0521 0.68688,0.0781 0.79102,0.0781 0.14993,0 0.23687,-0.0298 0.29296,-0.0723 -0.0596,0.0312 -0.1515,0.0488 -0.27929,0.0488 -0.10414,0 -0.36915,-0.026 -0.79102,-0.0781 -0.1,-0.0174 -0.19433,-0.0439 -0.28711,-0.0742 z m -3.34179,0.74804 c -1.08663,0 -1.60352,0.77726 -1.60352,2.35547 v 0.41211 c 0,1.86796 0.18032,2.12696 0.67187,2.12696 0.49158,0 1.11329,-0.83246 1.11329,-2.48829 v -2.40625 z"
       transform="scale(0.75)" />
    <path
       id="path3610"
       style="display:inline;fill:#ffffff;fill-opacity:1;fill-rule:nonzero;stroke:none;stroke-width:0.1;stroke-miterlimit:4;stroke-dasharray:none"
       d="m 122.61914,35.835938 c -1.95595,0 -3.54297,1.588301 -3.54297,3.539062 0,1.53209 0.97953,2.840868 2.34766,3.332031 v 3.878907 l -3.16602,-3.169922 c -0.38808,-0.388083 -1.02012,-0.388083 -1.4082,0 -0.38808,0.388082 -0.38808,1.02012 0,1.408203 l 4.57422,4.568359 v 3.351563 l -2.64844,-2.648438 v -0.02539 c 0,-0.54849 -0.44565,-0.99414 -0.99414,-0.99414 -0.31304,0 -0.59131,0.146633 -0.77344,0.373047 0,0 -0.002,0.002 -0.002,0.002 -0.0552,0.03638 -0.10774,0.07844 -0.15625,0.126953 -0.36648,0.366481 -0.38623,0.945826 -0.0605,1.335937 v 3.642579 l -2.37109,-2.371094 V 45.71875 c 0,-0.548491 -0.4437,-0.994141 -0.99219,-0.994141 -0.54849,0 -0.99414,0.44565 -0.99414,0.994141 v 4.480469 l -2.58008,-2.580078 c 0.85568,-1.36483 0.6902,-3.195118 -0.49804,-4.378907 -1.38158,-1.381574 -3.62819,-1.381574 -5.00977,0 -0.66751,0.667502 -1.03516,1.558252 -1.03516,2.5 0,0.94692 0.36765,1.836405 1.03516,2.503907 0.66751,0.672676 1.55698,1.039062 2.50391,1.039062 0.53264,0 1.05042,-0.118409 1.51757,-0.339844 l 2.74219,2.742188 H 106.625 c -0.5485,0 -0.99219,0.443698 -0.99219,0.992187 0,0.548491 0.44369,0.994141 0.99219,0.994141 h 6.46875 l 2.36914,2.369141 h -3.75 l -0.0156,-0.01563 c -0.38809,-0.388084 -1.02012,-0.388084 -1.40821,0 -0.22183,0.221831 -0.31692,0.522081 -0.28515,0.810547 -0.0132,0.06466 -0.0195,0.130657 -0.0195,0.199218 0,0.517496 0.39496,0.941858 0.90039,0.988282 l 2.57617,2.576171 h -3.34766 l -4.58008,-4.574218 c -0.38808,-0.388084 -1.01426,-0.388084 -1.40234,0 -0.38807,0.388081 -0.38807,1.014261 0,1.402343 l 3.17187,3.171875 h -3.65039 c -0.36252,-1.572263 -1.77157,-2.746093 -3.45312,-2.746093 -1.950756,0 -3.539064,1.587032 -3.539064,3.542968 0,1.950763 1.588308,3.541016 3.539064,3.541016 1.53743,0 2.84553,-0.982221 3.33594,-2.349609 h 3.88086 l -3.16993,3.171875 c -0.38808,0.388082 -0.38808,1.014261 0,1.402343 0.19664,0.196636 0.44959,0.289063 0.70313,0.289063 0.25355,0 0.50649,-0.09243 0.70312,-0.289063 l 4.57618,-4.574218 h 3.3457 l -2.6543,2.654297 h -0.0195 c -0.54849,0 -0.99414,0.445649 -0.99414,0.99414 0,0.313606 0.14593,0.591329 0.37305,0.773438 0.0357,0.05335 0.0759,0.105167 0.12304,0.152343 0.19663,0.196636 0.45153,0.289063 0.70508,0.289063 0.22186,0 0.44518,-0.0731 0.62891,-0.222656 h 3.64453 l -2.36524,2.365234 h -6.47265 c -0.5485,0 -0.99414,0.445651 -0.99414,0.994141 0,0.54849 0.44564,0.992187 0.99414,0.992187 h 4.48633 l -2.58789,2.587891 c -1.35373,-0.814818 -3.22928,-0.651059 -4.37696,0.492187 -0.66749,0.672676 -1.03515,1.556984 -1.03515,2.503906 0,0.946922 0.36766,1.836404 1.03515,2.503907 0.66751,0.667501 1.55698,1.041015 2.50391,1.041015 0.94692,0 1.83641,-0.373514 2.50391,-1.041015 1.08542,-1.085427 1.31736,-2.703488 0.69726,-4.017578 l 2.74414,-2.744141 v 4.480469 c 0,0.54849 0.44566,0.992187 0.99414,0.992187 0.54849,0 0.99414,-0.443697 0.99414,-0.992187 v -6.46875 l 2.36328,-2.363281 v 3.75 l -0.0156,0.01562 c -0.38808,0.388083 -0.38808,1.014262 0,1.402344 0.19662,0.196635 0.45153,0.289063 0.70508,0.289063 0.0343,0 0.0674,-0.0024 0.10156,-0.0059 0.0656,0.01381 0.13371,0.02148 0.20313,0.02148 0.51552,0 0.93916,-0.39186 0.98828,-0.894532 l 2.57617,-2.576171 v 3.349609 l -4.57422,4.572266 c -0.38808,0.388082 -0.38808,1.014262 0,1.402343 0.19662,0.196623 0.45153,0.294922 0.70508,0.294922 0.25354,0 0.50649,-0.09829 0.70312,-0.294922 l 3.16602,-3.162109 v 3.646484 c -1.56805,0.363111 -2.74219,1.770829 -2.74219,3.447266 0,1.950761 1.58831,3.539062 3.53906,3.539062 1.95595,10e-7 3.54492,-1.588301 3.54492,-3.539062 1e-5,-1.534266 -0.98233,-2.844451 -2.35351,-3.333984 v -3.882813 l 3.17187,3.169922 c 0.38809,0.388083 1.01817,0.388083 1.40625,0 0.38809,-0.388083 0.38809,-1.01426 0,-1.402344 l -4.57812,-4.578125 V 70.43354 l 2.6543,2.658203 v 0.01953 c 0,0.548491 0.44565,0.994141 0.99414,0.994141 0.31007,0 0.58535,-0.142494 0.76757,-0.365235 0.0578,-0.03742 0.11149,-0.08023 0.16211,-0.130859 0.36579,-0.365788 0.38627,-0.947277 0.0625,-1.337891 v -3.640625 l 2.3711,2.371094 v 6.466797 c 0,0.548489 0.4437,0.994141 0.99219,0.994141 0.54848,0 0.99414,-0.445652 0.99414,-0.994141 v -4.480469 l 2.57812,2.578125 c -0.85435,1.366933 -0.68769,3.193163 0.5,4.38086 0.66751,0.667501 1.55699,1.041015 2.50391,1.041015 0.94693,0 1.83834,-0.373514 2.50586,-1.041015 0.66749,-0.667503 1.03515,-1.556985 1.03515,-2.503907 0,-0.946921 -0.36766,-1.83123 -1.03515,-2.503906 -1.04702,-1.042972 -2.69993,-1.272218 -4.00977,-0.685547 l -2.75195,-2.75 h 4.47851 c 0.54848,0 0.99414,-0.445651 0.99414,-0.99414 0,-0.548492 -0.44566,-0.994141 -0.99414,-0.994141 h -6.46679 l -2.36914,-2.369141 h 3.75 l 0.0156,0.01563 c 0.19663,0.196636 0.44958,0.289063 0.70313,0.289063 0.25354,0 0.50843,-0.09243 0.70507,-0.289063 0.22035,-0.220347 0.31308,-0.518008 0.28321,-0.804687 0.0138,-0.06598 0.0215,-0.135006 0.0215,-0.205078 0,-0.516838 -0.39588,-0.940957 -0.90039,-0.988282 l -2.57617,-2.576171 h 3.35156 l 4.57422,4.574218 c 0.19145,0.196636 0.44569,0.289063 0.69922,0.289063 0.25355,0 0.51167,-0.09243 0.70312,-0.289063 0.3881,-0.388082 0.3881,-1.014261 0,-1.402343 l -3.16992,-3.171875 h 3.65039 c 0.36311,1.568049 1.77082,2.742187 3.44727,2.742187 1.95593,0 3.54492,-1.5883 3.54492,-3.539062 0,-1.950762 -1.58899,-3.539063 -3.54492,-3.539063 -1.53331,0 -2.84177,0.980355 -3.33203,2.347656 h -3.87891 l 3.16992,-3.171875 c 0.3881,-0.388082 0.3881,-1.014262 0,-1.402343 -0.38808,-0.388084 -1.02012,-0.388084 -1.4082,0 l -4.57227,4.574218 h -3.34961 l 2.6504,-2.654297 h 0.0254 c 0.54848,0 0.99414,-0.443696 0.99414,-0.992187 0,-0.318932 -0.15099,-0.603347 -0.38477,-0.785156 -0.0342,-0.04992 -0.0728,-0.09817 -0.11719,-0.142578 -0.36382,-0.363829 -0.9401,-0.384757 -1.33007,-0.06641 h -3.64649 l 2.36524,-2.365234 h 6.47656 c 0.54849,0 0.99219,-0.443697 0.99219,-0.992188 0,-0.548489 -0.4437,-0.99414 -0.99219,-0.99414 h -4.49024 l 2.58399,-2.583984 c 0.5576,0.351638 1.2051,0.539062 1.88086,0.539062 0.9469,0 1.8364,-0.366385 2.5039,-1.039062 0.6675,-0.667502 1.03516,-1.556985 1.03516,-2.503907 0,-0.941746 -0.36766,-1.832497 -1.03516,-2.5 -1.34017,-1.340178 -3.67476,-1.340178 -5.00976,0 -1.08593,1.081863 -1.31648,2.704494 -0.69531,4.017578 l -2.7461,2.746094 v -4.486328 c 0,-0.548491 -0.4437,-0.994141 -0.99219,-0.994141 -0.54848,0 -0.99414,0.44565 -0.99414,0.994141 v 6.472656 l -2.36914,2.369141 v -3.751953 l 0.0195,-0.01953 c 0.38809,-0.388082 0.38809,-1.014262 0,-1.402344 -0.22183,-0.221832 -0.52258,-0.316928 -0.8125,-0.285156 -0.0647,-0.01324 -0.13261,-0.01953 -0.20117,-0.01953 -0.51749,0 -0.94186,0.394961 -0.98828,0.900391 l -2.57617,2.572265 v -3.349609 l 4.57812,-4.574219 c 0.38809,-0.388082 0.38809,-1.018167 0,-1.40625 -0.38808,-0.388082 -1.01816,-0.388082 -1.40625,0 l -3.17187,3.171875 v -3.65039 c 1.57103,-0.360914 2.74805,-1.770655 2.74805,-3.449219 0,-1.950761 -1.59027,-3.539062 -3.54102,-3.539062 z m 0,1.986328 c 0.85378,0 1.55274,0.693778 1.55274,1.552734 0,0.853781 -0.69896,1.552734 -1.55274,1.552734 -0.85896,0 -1.55664,-0.698953 -1.55664,-1.552734 0,-0.858956 0.69768,-1.552734 1.55664,-1.552734 z M 106.84766,44.1875 c 0.39843,0 0.79754,0.154961 1.09765,0.455078 0.60541,0.605409 0.60541,1.59381 0,2.199219 -0.60023,0.605408 -1.58795,0.605408 -2.19336,0 -0.6054,-0.605409 -0.6054,-1.59381 0,-2.199219 0.30012,-0.300117 0.69726,-0.455078 1.09571,-0.455078 z m 31.42578,0.279297 c 0.39842,0 0.79557,0.154961 1.0957,0.455078 0.6054,0.605408 0.6054,1.593808 0,2.199219 -0.58472,0.58471 -1.60934,0.58471 -2.19922,0 -0.6054,-0.605411 -0.6054,-1.593811 0,-2.199219 0.3053,-0.300117 0.70508,-0.455078 1.10352,-0.455078 z m -12.29102,8.40625 v 3.279297 l -2.3164,2.316406 V 55.1875 Z m -7.20703,0.03125 2.31836,2.316406 v 3.283203 l -2.31836,-2.322265 z m 9.05469,5.041015 h 3.28125 l -2.31641,2.31836 h -3.28125 z m -14.12891,0.08398 h 3.2793 l 2.31836,2.318359 h -3.28125 z m -13.50195,1.810547 c 0.85896,0 1.55664,0.697684 1.55664,1.55664 0,0.853782 -0.69768,1.552735 -1.55664,1.552735 -0.853781,0 -1.552736,-0.698953 -1.552736,-1.552735 0,-0.858956 0.698955,-1.55664 1.552736,-1.55664 z m 44.4375,0.398437 c 0.85896,0 1.55859,0.69378 1.55859,1.552735 0,0.858957 -0.69963,1.552734 -1.55859,1.552734 -0.85379,0 -1.55274,-0.693777 -1.55274,-1.552734 0,-0.858955 0.69895,-1.552735 1.55274,-1.552735 z m -19.0918,2.603516 h 3.28516 l 2.3125,2.316406 h -3.2832 z m -9.49023,0.07617 h 3.27929 l -2.32226,2.324219 h -3.28125 z m 7.69336,1.765625 2.31836,2.318359 v 3.277344 l -2.31836,-2.316406 z m -2.57617,0.03906 V 68 l -2.31836,2.316406 v -3.279297 z m -14.60352,10.888672 c 0.39843,0 0.79754,0.149786 1.09766,0.455078 0.6054,0.60541 0.6054,1.588636 0,2.199219 -0.60023,0.600235 -1.58796,0.605411 -2.19336,0 -0.60541,-0.610583 -0.60541,-1.593809 0,-2.199219 0.30012,-0.305292 0.69727,-0.455078 1.0957,-0.455078 z m 31.42383,0.279297 c 0.39842,0 0.79753,0.149786 1.09765,0.455078 0.60542,0.605409 0.60542,1.588635 0,2.199219 -0.60541,0.605408 -1.59381,0.600235 -2.19922,0 -0.60023,-0.610584 -0.60023,-1.59381 0,-2.199219 0.3053,-0.305292 0.70314,-0.455078 1.10157,-0.455078 z m -15.77149,6.369141 c 0.85896,0 1.5586,0.693778 1.5586,1.552734 0,0.858957 -0.69964,1.552734 -1.5586,1.552734 -0.85378,0 -1.55078,-0.693777 -1.55078,-1.552734 0,-0.858956 0.697,-1.552734 1.55078,-1.552734 z"
       transform="scale(0.75)" />
  </g>
  <g
     inkscape:groupmode="layer"
     id="layer6"
     inkscape:label="Drill"
     style="display:inline" />
</svg>
