<svg width="65" height="65" viewBox="0 0 65 65" fill="none" xmlns="http://www.w3.org/2000/svg">
<path d="M28.6018 3.12021C28.5354 3.40872 28.5013 3.7037 28.5 3.99974C28.4998 6.20889 30.2906 7.99988 32.4998 8.00001C34.7091 8.00016 36.5002 6.20909 36.5 3.99974C36.4998 3.70416 36.4666 3.40953 36.4013 3.12124L54.4467 13.5402L54.6974 13.6958L54.9356 13.8679L55.1604 14.0534L55.3712 14.2523L55.5686 14.4642L55.751 14.6875L55.919 14.9221L56.0704 15.1665L56.2068 15.4202L56.3257 15.6827L56.428 15.9525L56.5133 16.2295L56.5805 16.5116L56.628 16.7995L56.658 17.0914L56.6673 17.3865V42.2439L53.9445 39.2451C53.9362 39.2356 53.9263 39.227 53.9181 39.2188C53.8592 39.1668 53.7173 39.0436 53.5161 38.8834L49.7333 34.7653C49.7214 34.7524 49.7085 34.741 49.6951 34.7302C49.6881 34.7245 49.6807 34.7197 49.6734 34.7147C49.6663 34.7097 49.6591 34.7045 49.6517 34.7002C49.6407 34.6937 49.6291 34.6883 49.6176 34.6831C49.6151 34.6821 49.6128 34.6805 49.6104 34.6795C49.61 34.6793 49.6093 34.6793 49.6086 34.679C49.596 34.6737 49.5834 34.6693 49.5704 34.6656C49.5668 34.6645 49.5635 34.664 49.56 34.6629C49.5476 34.6597 49.535 34.6575 49.5223 34.6557C49.5182 34.6551 49.514 34.6546 49.5099 34.6541C49.4975 34.6528 49.4852 34.652 49.4727 34.652C49.468 34.652 49.4634 34.6518 49.4587 34.652C49.4466 34.6525 49.4346 34.6538 49.4226 34.6556C49.4175 34.6564 49.4126 34.6572 49.4076 34.6582C49.396 34.6603 49.3844 34.663 49.373 34.6665C49.3712 34.667 49.3692 34.6675 49.3673 34.6681C49.3632 34.6694 49.3595 34.6713 49.3554 34.6727C49.348 34.6754 49.3405 34.6773 49.3332 34.6805L46.7633 35.8112C46.7195 35.8303 46.6799 35.8591 46.6471 35.8933L45.9758 36.6163L39.6103 32.1654L39.6099 32.1649L36.7295 29.4493L31.5613 25.1493C31.5291 25.1226 31.4925 25.1044 31.4544 25.0909C31.4449 25.0875 31.4357 25.0852 31.4259 25.0826C31.3894 25.0731 31.3521 25.0677 31.3143 25.0702C31.3118 25.0704 31.3095 25.069 31.3071 25.0692C31.2769 25.0717 31.2468 25.0782 31.2177 25.0888L30.2436 25.4397L29.624 25.6624C29.6229 25.6628 29.6226 25.6636 29.6215 25.664L28.6479 26.0143C28.5945 26.0335 28.5457 26.0665 28.5074 26.1089L24.8202 30.2079L21.9615 33.0651L20.5476 34.0753C20.5189 34.0945 20.4951 34.1191 20.4732 34.1451L19.0537 35.9729L15.1759 40.1675L9.40465 33.9534C9.38412 33.9329 9.36211 33.914 9.33747 33.8976L8.35458 33.2651L8.33289 33.2423V17.3865L8.34269 17.0914L8.37215 16.7995L8.42021 16.5116L8.48739 16.2295L8.57162 15.9525L8.67394 15.6827L8.79383 15.4202L8.92922 15.1665L9.08167 14.9221L9.2491 14.6875L9.43203 14.4642L9.62892 14.2523L9.84028 14.0534L10.0651 13.8679L10.3033 13.6958L10.5539 13.5402L28.6018 3.12021Z" fill="#002255"/>
<path d="M28.6018 3.12021C28.5354 3.40872 28.5012 3.7037 28.4999 3.99974C28.5013 3.7037 28.5354 3.40872 28.6018 3.12021ZM28.4999 3.99974C28.4999 4.53699 28.6092 5.04789 28.8012 5.51593C28.6032 5.03493 28.5008 4.51992 28.4999 3.99974V3.99974ZM36.4013 3.12124C36.4665 3.40953 36.4996 3.70416 36.5 3.99974C36.4997 3.70416 36.4665 3.40953 36.4013 3.12124ZM36.5 3.99974C36.4992 4.15973 36.4889 4.31952 36.469 4.47827C36.4878 4.32101 36.5 4.16205 36.5 3.99974V3.99974ZM36.4499 4.60229C36.4341 4.6996 36.4148 4.7963 36.392 4.89219C36.4139 4.79634 36.435 4.70063 36.4499 4.60229ZM28.8074 5.53505C29.0101 6.02192 29.3043 6.46133 29.6715 6.82851C29.3016 6.45805 29.008 6.01859 28.8074 5.53505ZM29.6715 6.82851C30.0386 7.19569 30.4775 7.48983 30.9644 7.69254C30.481 7.49189 30.0418 7.19833 29.6715 6.82851ZM36.191 5.53918C36.1782 5.5662 36.1651 5.59307 36.1517 5.6198C36.1639 5.5923 36.1793 5.567 36.191 5.53918ZM35.8618 6.1531C35.8298 6.20344 35.7967 6.25306 35.7626 6.30193C35.7971 6.25305 35.8294 6.20356 35.8618 6.1531ZM34.8019 7.26259C34.753 7.29677 34.7034 7.32985 34.6531 7.36181C34.7035 7.32942 34.753 7.29715 34.8019 7.26259ZM34.1198 7.65171C34.093 7.66511 34.0662 7.6782 34.0391 7.69099C34.067 7.67937 34.0923 7.66394 34.1198 7.65171ZM30.9835 7.69874C31.4515 7.89086 31.9625 7.99998 32.4997 8.00001C31.9795 7.99914 31.4645 7.8968 30.9835 7.69874ZM32.4997 8.00001C32.662 8.00003 32.821 7.98779 32.9782 7.96901C32.8195 7.9889 32.6597 7.99926 32.4997 8.00001ZM33.3922 7.89201C33.2963 7.91487 33.1996 7.93417 33.1023 7.94989C33.2006 7.93499 33.2963 7.91393 33.3922 7.89201ZM16.9177 15.7721C16.5919 15.7721 16.3265 16.0366 16.3265 16.3638C16.3265 16.6897 16.5919 16.955 16.9177 16.955C17.2449 16.955 17.5094 16.6897 17.5094 16.3638C17.5094 16.0366 17.2449 15.7721 16.9177 15.7721ZM47.7536 16.1871C47.4263 16.1871 47.1619 16.4516 47.1619 16.7788C47.1619 17.1046 47.4263 17.3684 47.7536 17.3684C48.0794 17.3684 48.3432 17.1046 48.3432 16.7788C48.3432 16.4516 48.0794 16.1871 47.7536 16.1871ZM20.1227 20.5992C20.022 20.6043 19.9241 20.653 19.8586 20.7408C19.7436 20.8969 19.7749 21.1157 19.931 21.2307L23.877 24.1592C23.94 24.2058 24.0122 24.228 24.0847 24.228C24.1929 24.228 24.2984 24.18 24.3669 24.0869C24.4832 23.9308 24.4506 23.7115 24.2945 23.5965L20.3485 20.668C20.2808 20.6177 20.201 20.5953 20.1227 20.5992ZM43.2169 20.5992C43.1496 20.6023 43.0827 20.6248 43.0246 20.668L39.0776 23.5965C38.9229 23.7115 38.8903 23.9308 39.0053 24.0869C39.0751 24.18 39.1801 24.228 39.2869 24.228C39.3594 24.228 39.4337 24.2058 39.4967 24.1592L43.4422 21.2307C43.5969 21.1157 43.6295 20.8969 43.5145 20.7408C43.4418 20.6433 43.3291 20.5941 43.2169 20.5992ZM31.307 25.0693C31.2768 25.0718 31.2467 25.0783 31.2176 25.0889L30.2435 25.4398L29.6239 25.6625C29.6229 25.6628 29.6223 25.6637 29.6213 25.6641L28.6477 26.0144C28.5943 26.0336 28.5455 26.0666 28.5071 26.109L24.82 30.208L21.9613 33.0652L20.5474 34.0754C20.5187 34.0946 20.4949 34.1192 20.473 34.1452L19.0534 35.973L15.1756 40.1676L9.40441 33.9535C9.38387 33.9329 9.36187 33.9141 9.33723 33.8977L8.35435 33.2651L8.33264 33.2424V47.6142L8.34246 47.9092L8.37192 48.2012L8.41997 48.489L8.48715 48.7717L8.57139 49.0477L8.67371 49.3179L8.7936 49.5799L8.92899 49.8342L9.08143 50.0786L9.24887 50.3127L9.4318 50.5359L9.62869 50.7478L9.84004 50.9462L10.0648 51.1323L10.3031 51.3028L10.5537 51.4594L30.2812 62.8499L30.5411 62.9889L30.8083 63.1088L31.0816 63.2106L31.3597 63.2938L31.6413 63.3584L31.926 63.4049L32.2128 63.4323L32.5007 63.4416L32.788 63.4323L33.0748 63.4049L33.3601 63.3584L33.6417 63.2938L33.9197 63.2106L34.1926 63.1088L34.4597 62.9889L34.7202 62.8499L54.4466 51.4594L54.6973 51.3028L54.9355 51.1323L55.1603 50.9462L55.3711 50.7478L55.5685 50.5359L55.7509 50.3127L55.9189 50.0786L56.0703 49.8342L56.2067 49.5799L56.3256 49.3179L56.4279 49.0477L56.5132 48.7717L56.5803 48.489L56.6279 48.2012L56.6579 47.9092L56.6672 47.6142V42.2439L53.9443 39.2452C53.9361 39.2356 53.9262 39.227 53.918 39.2188C53.8591 39.1668 53.7172 39.0436 53.5159 38.8834L49.7332 34.7653C49.7213 34.7524 49.7084 34.741 49.695 34.7302C49.688 34.7245 49.6806 34.7197 49.6733 34.7147C49.6662 34.7098 49.659 34.7045 49.6516 34.7002C49.6406 34.6938 49.629 34.6884 49.6175 34.6832C49.6151 34.6821 49.6127 34.6805 49.6103 34.6795C49.6097 34.6793 49.6092 34.6793 49.6087 34.679C49.5961 34.6738 49.5835 34.6693 49.5704 34.6656C49.567 34.6645 49.5636 34.664 49.5601 34.6629C49.5477 34.6598 49.5351 34.6575 49.5224 34.6557C49.5182 34.6551 49.5141 34.6546 49.51 34.6541C49.4976 34.6528 49.4852 34.652 49.4728 34.652C49.4681 34.652 49.4635 34.6518 49.4588 34.652C49.4467 34.6525 49.4347 34.6538 49.4226 34.6556C49.4176 34.6564 49.4126 34.6572 49.4077 34.6582C49.3961 34.6604 49.3845 34.6631 49.373 34.6665C49.3712 34.667 49.3692 34.6676 49.3674 34.6681C49.3633 34.6694 49.3595 34.6713 49.3555 34.6727C49.3481 34.6754 49.3406 34.6773 49.3333 34.6805L46.7634 35.8112C46.7196 35.8303 46.68 35.8591 46.6471 35.8933L45.9758 36.6163L39.6103 32.1654L39.6098 32.1649L36.7294 29.4493L31.5612 25.1493C31.529 25.1226 31.4923 25.1044 31.4542 25.0909C31.4448 25.0875 31.4355 25.0852 31.4258 25.0826C31.3893 25.0731 31.352 25.0678 31.3142 25.0702C31.3118 25.0704 31.3093 25.069 31.307 25.0692L31.307 25.0693ZM18.9238 25.2382C18.7546 25.2479 18.6013 25.3937 18.5936 25.5747C18.5867 25.7691 18.7375 25.9321 18.9305 25.939L24.1038 26.1431H24.1178C24.3053 26.1431 24.4613 25.9953 24.4682 25.8077C24.4764 25.6133 24.3256 25.4502 24.1312 25.4434L18.9579 25.2382C18.9465 25.2376 18.9351 25.2376 18.9238 25.2382H18.9238ZM44.4158 25.2382L39.2404 25.4434C39.0473 25.4502 38.8968 25.6133 38.905 25.8077C38.9119 25.9953 39.0681 26.1431 39.2543 26.1431H39.2678L44.4432 25.939C44.6362 25.9321 44.7864 25.7691 44.7796 25.5747C44.7714 25.3816 44.602 25.2341 44.4158 25.2382H44.4158ZM52.8354 25.7927C52.5082 25.7927 52.2437 26.0581 52.2437 26.3839C52.2437 26.7111 52.5082 26.9756 52.8354 26.9756C53.1613 26.9756 53.4266 26.7111 53.4266 26.3839C53.4266 26.0581 53.1613 25.7927 52.8354 25.7927ZM12.3464 26.295C12.0192 26.295 11.7552 26.5604 11.7552 26.8862C11.7552 27.2134 12.0192 27.4779 12.3464 27.4779C12.6723 27.4779 12.9381 27.2134 12.9381 26.8862C12.9381 26.5604 12.6723 26.295 12.3464 26.295ZM24.154 27.1234C24.1086 27.1255 24.0626 27.1366 24.0191 27.1575L19.5914 29.27C19.4162 29.3522 19.3426 29.5614 19.4261 29.7367C19.4863 29.8626 19.6123 29.9367 19.7423 29.9367C19.7944 29.9367 19.845 29.9258 19.8943 29.9026L24.3204 27.79C24.4956 27.7065 24.5698 27.4971 24.4862 27.3218C24.4236 27.1914 24.2901 27.1171 24.154 27.1234ZM39.1846 27.1234C39.0602 27.1298 38.9439 27.2023 38.8874 27.3218C38.8039 27.4971 38.8779 27.7065 39.0518 27.79L43.4789 29.9026C43.5282 29.9258 43.5791 29.9367 43.6298 29.9367C43.7612 29.9367 43.8872 29.8626 43.946 29.7367C44.0309 29.5614 43.9556 29.3522 43.7817 29.27L39.3541 27.1575C39.2993 27.1314 39.2411 27.1205 39.1846 27.1234ZM27.2928 43.187C27.4747 43.187 27.6413 43.227 27.7915 43.3028C27.9417 43.3799 28.0178 43.4888 28.0178 43.6294L28.008 43.65C28.008 43.6707 27.91 43.8571 27.7129 44.2071C27.5159 44.5585 27.3629 44.8355 27.2499 45.0381L26.7776 45.8799C25.536 48.115 24.9157 49.4655 24.9157 49.9272C24.9157 50.0539 24.9611 50.1173 25.0521 50.1173C25.3057 50.1173 25.5522 49.9907 25.7947 49.7385C26.0308 49.4917 26.226 49.2449 26.3776 48.998C26.4498 48.787 26.5424 48.5676 26.6561 48.3397C26.9676 47.7154 27.3712 47.1847 27.8659 46.7465C28.3592 46.3096 28.8622 46.0907 29.3748 46.0907C29.6752 46.0907 29.8987 46.1803 30.042 46.3636C30.1853 46.5455 30.2585 46.7945 30.2585 47.1087C30.2585 47.4174 30.1924 47.7647 30.0642 48.1505C29.9333 48.5364 29.7528 48.9143 29.5226 49.2864C29.648 49.3002 29.7459 49.307 29.8162 49.307C30.1317 49.307 30.4056 49.2201 30.6357 49.045C30.6468 49.034 30.6578 49.0241 30.6688 49.0146C30.8519 48.6553 31.0417 48.2872 31.246 47.8989C31.4624 47.4854 31.6541 47.113 31.8181 46.7837C31.9835 46.4543 32.0661 46.2545 32.0661 46.1842C32.164 46.1429 32.2703 46.1212 32.3819 46.1212C32.5156 46.1212 32.6268 46.1513 32.7178 46.2106C32.8087 46.2698 32.8542 46.3637 32.8542 46.4891C32.8542 46.525 32.7429 46.7589 32.5183 47.193C32.9813 46.5976 33.465 46.3 33.9694 46.3L33.9596 46.2793C34.2462 46.2793 34.4657 46.3911 34.6159 46.6157C34.7674 46.8404 34.8417 47.1382 34.8417 47.5103C34.8417 48.0008 34.7177 48.5176 34.4696 49.0606C34.2202 49.6035 33.8621 50.0595 33.3963 50.4274C32.9305 50.7953 32.3915 50.9798 31.7824 50.9798C31.4669 50.9798 31.2409 50.9264 31.1044 50.8217C30.9666 50.717 30.8855 50.5969 30.858 50.4646C29.9595 52.3635 29.5113 53.59 29.5113 54.144C29.5113 54.1715 29.4796 54.1869 29.4162 54.1869C29.3886 54.1869 29.3185 54.18 29.2069 54.1662C29.0801 54.1442 28.9756 54.0832 28.8901 53.9812C28.8061 53.8792 28.7645 53.765 28.7645 53.6396C28.7645 53.5969 28.7683 53.5623 28.7738 53.5347C28.9213 52.8471 29.2107 52.0394 29.642 51.1106C29.8668 50.6265 30.1212 50.1023 30.4022 49.5411C30.0436 49.711 29.642 49.7839 29.196 49.7587C28.8942 50.1652 28.5659 50.4906 28.2131 50.7318C27.859 50.9743 27.5024 51.094 27.1455 51.094C26.823 51.094 26.5831 50.9991 26.4246 50.8062C26.2675 50.6133 26.189 50.3516 26.189 50.0223C26.189 49.9707 26.1908 49.9181 26.1941 49.8652C26.0341 50.0738 25.8639 50.2771 25.6831 50.4744C25.3055 50.8878 24.9515 51.0945 24.6221 51.0945C24.1867 51.0945 23.9705 50.867 23.9705 50.4109C23.9705 49.9974 24.1219 49.4461 24.4278 48.7557C24.7324 48.0653 25.168 47.1835 25.7358 46.1114C25.7716 46.0549 25.8167 45.9708 25.8732 45.8592C26.6298 44.3999 27.016 43.5248 27.0297 43.2299C27.0931 43.2024 27.1798 43.187 27.2928 43.187H27.2928ZM23.5597 45.9641C23.7567 45.9641 23.918 46.0041 24.0434 46.084C24.1702 46.1653 24.2583 46.2575 24.3121 46.3636C24.3645 46.4683 24.3906 46.5632 24.3906 46.6473C24.3906 46.6748 24.2225 46.6886 23.8863 46.6886C23.5638 46.7175 23.3531 46.8156 23.2553 46.9837C23.1216 47.2083 23.0693 47.4427 23.0982 47.688C23.112 47.8148 23.1451 47.9375 23.1974 48.056C23.2498 48.1759 23.3254 48.3119 23.4233 48.4663L23.4755 48.5076C23.6436 48.7956 23.7459 48.9777 23.7803 49.0549C23.9002 49.307 23.9523 49.5883 23.9385 49.8956C23.9233 50.1905 23.8324 50.4289 23.6656 50.6108C23.4755 50.8217 23.1985 50.9443 22.8347 50.9788C22.7851 50.987 22.7079 50.9896 22.6032 50.9896C22.3648 50.9896 22.1432 50.955 21.9407 50.8847C21.7023 50.8007 21.5202 50.678 21.3934 50.5168C21.2956 50.39 21.2363 50.237 21.2156 50.0538C21.2019 49.9559 21.1934 49.8788 21.1934 49.8223C21.1934 49.6679 21.2156 49.515 21.257 49.3592C21.2997 49.2063 21.3631 49.0728 21.4472 48.9598C21.5229 48.8413 21.5931 48.7915 21.6564 48.8135C21.7198 48.8342 21.7515 48.9291 21.7515 49.0972C21.7515 49.2378 21.7793 49.3634 21.8358 49.475C21.8923 49.588 21.9792 49.6652 22.0978 49.7065C22.1611 49.7272 22.2245 49.738 22.2879 49.738C22.3995 49.738 22.5098 49.7134 22.6187 49.6652C22.7275 49.6156 22.824 49.5492 22.908 49.4652C23.021 49.3536 23.0717 49.2295 23.0662 49.0972C23.0579 49.0132 23.0059 48.9157 22.908 48.8027C22.8598 48.7545 22.7813 48.6799 22.6765 48.582L22.445 48.3603C22.3265 48.2349 22.2356 48.0877 22.1722 47.9195C22.1088 47.7514 22.0771 47.5828 22.0771 47.4147C22.0771 47.1694 22.1374 46.9478 22.2559 46.7522C22.3813 46.5344 22.5687 46.3499 22.8181 46.1956C23.0676 46.0413 23.3144 45.9641 23.5597 45.9641L23.5597 45.9641ZM41.2868 45.9641C41.4838 45.9641 41.6451 46.0041 41.7705 46.084C41.8972 46.1653 41.9868 46.2575 42.0392 46.3636C42.0915 46.4683 42.1177 46.5632 42.1177 46.6473C42.1177 46.6748 41.9496 46.6886 41.6134 46.6886C41.2909 46.7175 41.0802 46.8156 40.9824 46.9837C40.8501 47.2083 40.7964 47.4427 40.8253 47.688C40.8391 47.8148 40.8721 47.9375 40.9245 48.056C40.9769 48.1759 41.0525 48.3119 41.1503 48.4663L41.2041 48.5076C41.3722 48.7956 41.4726 48.9777 41.5085 49.0549C41.627 49.307 41.6793 49.5883 41.6656 49.8956C41.6518 50.1905 41.5608 50.4289 41.3927 50.6108C41.2039 50.8217 40.9269 50.9443 40.5617 50.9788C40.5135 50.987 40.435 50.9896 40.3302 50.9896C40.0918 50.9896 39.8717 50.955 39.6677 50.8847C39.4293 50.8007 39.2474 50.678 39.122 50.5168C39.0228 50.39 38.9634 50.237 38.9427 50.0538C38.9289 49.9559 38.9221 49.8788 38.9221 49.8223C38.9221 49.7427 38.9274 49.6634 38.9386 49.584C38.5122 49.9645 38.0752 50.2811 37.6281 50.5323C36.9487 50.9154 36.3064 51.1054 35.7042 51.1054C35.3817 51.1054 35.1423 51.0075 34.9838 50.8119C34.8267 50.6148 34.7466 50.3516 34.7466 50.0222C34.7466 49.5248 34.9039 48.9586 35.2153 48.3247C35.5267 47.6894 35.9302 47.1518 36.4235 46.7108C36.9182 46.2685 37.4214 46.0478 37.934 46.0478C38.2978 46.0478 38.5677 46.125 38.7427 46.2793C38.9178 46.4337 39.0063 46.6404 39.0063 46.8994C39.0063 47.2288 38.8807 47.5983 38.6327 48.0089C38.3833 48.4182 38.073 48.7653 37.7009 49.0492C37.3303 49.3331 36.9723 49.4765 36.6292 49.4765C36.4059 49.4765 36.2087 49.4118 36.0406 49.2864C36.0268 49.3842 36.0199 49.4519 36.0199 49.4864C36.0199 49.6545 36.0556 49.7851 36.13 49.8801C36.203 49.9752 36.3177 50.0222 36.4721 50.0222C37.0329 50.0222 37.5428 49.912 38.0017 49.6915C38.462 49.4697 38.834 49.2025 39.1221 48.8869V48.8755C39.2199 48.8135 39.3148 48.782 39.4058 48.782C39.5036 48.782 39.5668 48.8344 39.5944 48.9391C39.5555 48.9811 39.5167 49.0223 39.4776 49.0631C39.4779 49.0744 39.4786 49.0852 39.4786 49.0972C39.4786 49.2378 39.5064 49.3634 39.5629 49.475C39.6194 49.588 39.7074 49.6652 39.8259 49.7065C39.8893 49.7272 39.953 49.738 40.0151 49.738C40.1267 49.738 40.2379 49.7134 40.3468 49.6652C40.4557 49.6155 40.5511 49.5492 40.6352 49.4652C40.7482 49.3535 40.8002 49.2295 40.7933 49.0972C40.7864 49.0132 40.7344 48.9157 40.6352 48.8027C40.5869 48.7544 40.5094 48.6799 40.4047 48.582L40.1732 48.3603C40.0533 48.2349 39.9627 48.0876 39.8993 47.9195C39.8373 47.7514 39.8052 47.5828 39.8052 47.4146C39.8052 47.1694 39.8647 46.9478 39.9846 46.7522C40.11 46.5344 40.2974 46.3499 40.5468 46.1956C40.7948 46.0413 41.0429 45.9641 41.2868 45.9641L41.2868 45.9641ZM37.8182 47.1103C37.544 47.1103 37.267 47.2443 36.9873 47.5144C36.7062 47.7845 36.4721 48.1125 36.2819 48.4983C36.4225 48.5824 36.5585 48.6234 36.6922 48.6234C36.9031 48.6234 37.1087 48.5448 37.3072 48.3877C37.5084 48.2293 37.6706 48.0432 37.796 47.8296C37.9228 47.616 37.9852 47.44 37.9852 47.2994C37.9852 47.1726 37.9342 47.1103 37.8281 47.1103H37.8182ZM29.2797 47.1516C29.0069 47.1516 28.7315 47.2674 28.4545 47.4989C28.1775 47.7304 27.9475 48.0074 27.7656 48.3298C27.5837 48.6523 27.4928 48.9362 27.4928 49.1815C27.4928 49.322 27.5314 49.4338 27.6085 49.5179C27.6857 49.6019 27.8013 49.6445 27.9542 49.6445C28.0604 49.6445 28.1649 49.6228 28.271 49.5815L28.2064 49.5608C28.1375 49.5388 28.0867 49.4986 28.055 49.4393C28.0233 49.3801 28.0149 49.3138 28.0287 49.2435C28.0493 49.1746 28.0895 49.1169 28.1501 49.0714C28.2094 49.0246 28.2765 49.0027 28.3537 49.0027C28.3964 49.0027 28.4281 49.0066 28.4488 49.0135C28.5466 49.048 28.6941 49.0935 28.8911 49.15L28.901 49.1608C29.1325 48.9362 29.3238 48.6745 29.4741 48.3769C29.6256 48.0792 29.7004 47.8176 29.7004 47.5929C29.7004 47.2994 29.5595 47.1516 29.2797 47.1516V47.1516ZM33.8536 47.163C33.6014 47.163 33.3009 47.3449 32.955 47.7087C32.6077 48.0739 32.3021 48.487 32.0403 48.95C31.7771 49.4116 31.646 49.7523 31.646 49.9701C31.646 50.0886 31.6915 50.1489 31.7824 50.1489C32.098 50.1489 32.4343 49.9821 32.7912 49.6486C33.1495 49.3165 33.4542 48.9279 33.7064 48.487C33.9599 48.046 34.0851 47.6989 34.0851 47.4467C34.0851 47.2579 34.008 47.163 33.8536 47.163V47.163Z" fill="#0044AA"/>
<path d="M29.5754 26.4258L28.9682 26.6443L25.3281 30.6896L22.4378 33.5814C22.4242 33.5951 22.4093 33.6071 22.3929 33.6181L20.9961 34.6165L19.5889 36.4262L12.0442 44.5885C11.9743 44.6624 11.8813 44.7006 11.7868 44.7006C11.7019 44.7006 11.617 44.6692 11.5486 44.6076C11.4062 44.4762 11.398 44.2544 11.5295 44.112L14.599 40.7913C14.5474 40.784 14.4967 40.7654 14.4523 40.7334L12.7707 39.5779L9.98899 37.2463L10.0205 37.5253C10.0424 37.7129 9.91112 37.8826 9.72493 37.9114C9.53736 37.9401 9.36313 37.8156 9.32753 37.6308C9.32534 37.6188 9.09745 36.5823 8.33276 35.7177V47.6141L8.34258 47.9092L8.37204 48.2012L8.4201 48.489L8.48728 48.7717L8.57151 49.0476L8.67383 49.3179L8.79372 49.5799L8.92911 49.8341L9.08155 50.0786L9.24899 50.3127L9.43192 50.5359L9.62881 50.7478L9.84016 50.9462L10.065 51.1323L10.3032 51.3028L10.5538 51.4594L30.2813 62.8499L30.5412 62.9889L30.8084 63.1088L31.0818 63.2106L31.3598 63.2938L31.6414 63.3584L31.9262 63.4049L32.213 63.4323L32.5008 63.4416L32.7881 63.4323L33.0749 63.4049L33.3602 63.3584L33.6418 63.2938L33.9198 63.2106L34.1927 63.1088L34.4599 62.9889L34.7203 62.8499L54.4467 51.4594L54.6974 51.3028L54.9356 51.1323L55.1604 50.9462L55.3712 50.7478L55.5686 50.5359L55.7511 50.3127L55.919 50.0786L56.0704 49.8341L56.2068 49.5799L56.3257 49.3179L56.428 49.0476L56.5133 48.7717L56.5805 48.489L56.628 48.2012L56.658 47.9092L56.6673 47.6141V43.3684L53.0164 39.3857C52.0742 38.6618 50.3638 37.6068 49.5799 38.254C48.2793 39.3232 47.351 41.0784 47.3428 41.0962C47.2675 41.2386 47.1046 41.3107 46.9485 41.2724C46.7911 41.2341 46.6813 41.0944 46.6813 40.9329V40.5443L45.0592 41.9519C44.9278 42.0669 44.7307 42.0656 44.5993 41.9503C44.4665 41.834 44.4414 41.6395 44.5373 41.493L46.6457 38.3196C46.6608 38.2977 46.6775 38.2769 46.6953 38.2591L48.9871 36.0685L49.0497 35.5719L47.1113 36.4236L42.6222 41.2574C42.4907 41.3998 42.269 41.4079 42.1266 41.2765C41.9856 41.1451 41.9776 40.9233 42.109 40.7809L45.2959 37.3486L41.7116 35.0407L39.9882 33.8661C39.9731 33.9866 39.8951 34.0933 39.7815 34.1426C39.6528 34.1987 39.5049 34.1738 39.4022 34.078L37.7976 32.5954L36.3781 32.5049L36.8788 34.5079C36.9172 34.6585 36.8502 34.8159 36.7161 34.8939C36.5819 34.9733 36.4121 34.9542 36.2985 34.8474L31.8161 30.6064C31.7887 30.5817 31.7657 30.5498 31.7479 30.517L29.5754 26.4258ZM7.04602 33.8615C7.04711 33.8687 7.04912 33.875 7.05067 33.8821C7.04935 33.8751 7.04691 33.8686 7.04602 33.8615ZM22.164 37.5476H24.9927V37.7119H24.3793L25.832 42.0351L27.3363 37.7119H26.6614V37.5476H27.9853V37.7119H27.5786L25.4935 43.6877H24.7679L22.5624 37.7119H22.164V37.5476ZM35.7058 38.2731C36.1124 38.2731 36.4065 38.499 36.4065 38.9139C36.4065 39.3123 36.1466 39.4844 35.8618 39.4844C35.6017 39.4844 35.3768 39.3283 35.359 39.0353L35.6014 38.8875C35.6274 38.7492 35.5754 38.6193 35.3947 38.6193C35.2894 38.6193 35.0542 38.6508 35.0252 39.0958C35.0233 39.1254 35.0225 39.1569 35.0225 39.1903C35.0225 39.3286 35.0401 39.5025 35.0825 39.7092C35.4207 39.9337 35.7398 40.2364 35.7398 40.8073C35.7398 41.6698 35.1969 42.1547 34.3549 42.2625C34.2947 42.2702 34.233 42.2762 34.1699 42.2801C34.1068 42.2839 34.0425 42.2858 33.9766 42.2858C33.7261 42.2858 33.4575 42.2512 33.2754 42.217C32.9728 42.4073 32.895 42.5023 32.895 42.5803C32.895 42.6584 32.9907 42.7018 33.448 42.7018H34.3311C35.2781 42.7018 36.2325 42.9201 36.2912 44.003C36.2931 44.0379 36.2943 44.0737 36.2943 44.1105C36.2943 45.0702 35.6016 45.762 33.8547 45.762C32.35 45.762 31.7189 45.3989 31.7189 44.8375C31.7189 44.4049 32.0829 44.231 32.3855 44.1461L32.9043 44.3792C32.8523 44.5695 32.8346 44.7158 32.8346 44.8541C32.8346 45.0362 32.8801 45.2223 33.0413 45.3626C33.0614 45.3801 33.0835 45.3967 33.1074 45.4127C33.2747 45.5249 33.5371 45.5977 33.942 45.5977C33.9992 45.5977 34.055 45.5959 34.1089 45.5931C34.2166 45.5874 34.3177 45.576 34.4117 45.5595C35.023 45.452 35.3429 45.1242 35.3429 44.6815C35.3429 44.2667 35.1525 44.1027 34.2448 44.1027H33.4056C32.376 44.1027 32.0992 43.6778 32.0992 43.2986C32.0992 42.8058 32.4102 42.5623 33.0852 42.1571C32.4102 41.9668 32.0832 41.5602 32.0832 40.8414C32.0832 40.0295 32.6442 39.3986 33.9503 39.3986C34.3733 39.3986 34.6251 39.4585 34.9099 39.6146C34.8757 39.4585 34.8582 39.3204 34.8582 39.1903C34.8582 38.4812 35.3511 38.2731 35.7057 38.2731H35.7058ZM29.6968 39.3986C31.0536 39.3986 31.634 40.0818 31.582 41.3701H29.1423V41.7065C29.1423 41.7702 29.1429 41.833 29.1445 41.8941C29.1675 42.8106 29.3767 43.4195 30.1635 43.4195C30.8029 43.4195 31.2357 43.013 31.426 42.3462L31.582 42.372C31.3822 43.1168 30.9332 43.6877 29.7052 43.6877C28.1663 43.6877 27.4732 42.8046 27.4732 41.5519C27.4732 40.0556 28.4948 39.3986 29.6969 39.3986L29.6968 39.3986ZM38.3082 39.3986C39.6649 39.3986 40.1236 39.7789 40.1236 41.0316V42.7881C40.1236 43.1426 40.2277 43.2371 40.3742 43.2371C40.5303 43.2371 40.678 43.0732 40.7205 42.3462L40.8507 42.3555C40.8069 43.3933 40.488 43.6877 39.7433 43.6877C39.6558 43.6877 39.573 43.6841 39.4952 43.6774C38.9504 43.6302 38.6404 43.4183 38.5506 43.0469C38.4123 43.4618 38.1604 43.6877 37.5553 43.6877C36.9501 43.6877 36.2752 43.5055 36.2752 42.6402C36.2752 41.7668 37.028 41.5685 38.2643 41.5685H38.5149V40.9029C38.5149 39.8035 38.4205 39.519 38.0741 39.519C38.0354 39.519 37.9908 39.5231 37.9454 39.534C37.9341 39.5367 37.9226 39.5397 37.9113 39.5433C37.7866 39.5825 37.6674 39.6751 37.6674 39.8652C37.6674 39.9337 37.6854 40.0214 37.7196 40.1158H37.9356C37.9794 40.2281 38.0059 40.3402 38.0059 40.5045C38.0059 40.8602 37.754 41.11 37.4013 41.1669C37.3761 41.171 37.3505 41.1742 37.3243 41.1762C37.2981 41.1784 37.2717 41.1793 37.2447 41.1793C36.708 41.1793 36.5011 40.8851 36.5011 40.4621C36.5011 40.3939 36.5066 40.3291 36.5176 40.2678C36.5213 40.2473 36.5256 40.2275 36.5305 40.2078C36.6674 39.6563 37.2792 39.3986 38.3082 39.3986L38.3082 39.3986ZM33.9421 39.5531C33.6997 39.5531 33.5261 39.7093 33.5261 40.6512V41.1194C33.5261 41.9313 33.674 42.1132 33.9328 42.1132C34.1669 42.1132 34.3131 41.975 34.3131 41.0755V40.6512C34.3131 39.6833 34.1748 39.5531 33.9421 39.5531V39.5531ZM29.6188 39.5624C29.3162 39.5624 29.1516 39.8568 29.1516 40.7727V41.1959H30.0415V40.7727C30.0415 39.865 29.9734 39.5624 29.6188 39.5624ZM38.455 41.7065C38.0922 41.7065 37.9196 41.9669 37.9196 42.494V42.632C37.9196 43.2549 37.9796 43.3415 38.1439 43.3415C38.3082 43.3415 38.5149 43.0647 38.5149 42.5116V41.7065H38.455ZM27.2928 43.187C27.4747 43.187 27.6413 43.227 27.7915 43.3028C27.9417 43.3799 28.0179 43.4888 28.0179 43.6294L28.0081 43.65C28.0081 43.6707 27.91 43.8571 27.713 44.2071C27.5159 44.5585 27.363 44.8355 27.25 45.0381L26.7776 45.8799C25.536 48.115 24.9157 49.4655 24.9157 49.9272C24.9157 50.0539 24.9612 50.1173 25.0522 50.1173C25.3057 50.1173 25.5522 49.9907 25.7948 49.7385C26.0308 49.4917 26.226 49.2449 26.3777 48.998C26.4499 48.787 26.5425 48.5676 26.6562 48.3397C26.9676 47.7154 27.3712 47.1847 27.8659 46.7465C28.3593 46.3096 28.8623 46.0907 29.3749 46.0907C29.6753 46.0907 29.8987 46.1803 30.042 46.3636C30.1854 46.5455 30.2586 46.7945 30.2586 47.1087C30.2586 47.4174 30.1924 47.7647 30.0643 48.1505C29.9333 48.5364 29.7528 48.9143 29.5227 49.2864C29.6481 49.3002 29.7459 49.307 29.8162 49.307C30.1318 49.307 30.4057 49.2201 30.6358 49.045C30.6469 49.034 30.6578 49.0241 30.6689 49.0146C30.852 48.6553 31.0418 48.2872 31.2461 47.8989C31.4624 47.4855 31.6542 47.113 31.8182 46.7837C31.9835 46.4543 32.0662 46.2545 32.0662 46.1842C32.164 46.1429 32.2703 46.1212 32.3819 46.1212C32.5156 46.1212 32.6269 46.1513 32.7178 46.2106C32.8088 46.2698 32.8543 46.3637 32.8543 46.4891C32.8543 46.525 32.743 46.7589 32.5184 47.193C32.9814 46.5976 33.4651 46.3 33.9694 46.3L33.9596 46.2793C34.2463 46.2793 34.4657 46.3911 34.6159 46.6157C34.7675 46.8404 34.8417 47.1382 34.8417 47.5103C34.8417 48.0008 34.7177 48.5176 34.4697 49.0606C34.2203 49.6035 33.8621 50.0595 33.3964 50.4274C32.9306 50.7953 32.3916 50.9798 31.7825 50.9798C31.4669 50.9798 31.2409 50.9264 31.1045 50.8217C30.9667 50.717 30.8856 50.5969 30.858 50.4646C30.1371 51.9882 29.7114 53.0712 29.5692 53.729V55.2002C29.5692 55.4809 29.6518 55.5573 29.7682 55.5573C29.8914 55.5573 30.0073 55.4273 30.0415 54.8509L30.1444 54.8581C30.1101 55.6809 29.8571 55.9134 29.2684 55.9134C29.199 55.9134 29.1333 55.911 29.0716 55.9056C28.6391 55.8682 28.3941 55.7001 28.3222 55.4054C28.2127 55.7353 28.0144 55.9134 27.5352 55.9134C27.056 55.9134 26.5203 55.7699 26.5203 55.0839C26.5203 54.3926 27.1175 54.2349 28.0964 54.2349H28.2949V53.7068C28.2949 52.8374 28.2193 52.6112 27.9455 52.6112C27.8223 52.6112 27.6241 52.6661 27.6241 52.8851C27.6241 52.9399 27.6376 53.0082 27.6649 53.0835H27.836C27.8702 53.1725 27.8907 53.2615 27.8907 53.3915C27.8907 53.6731 27.6918 53.8718 27.4127 53.9171C27.3928 53.9203 27.3725 53.9227 27.3518 53.9243C27.331 53.9259 27.3101 53.927 27.2887 53.927C26.8629 53.927 26.6986 53.6929 26.6986 53.3575C26.6986 52.7825 27.1996 52.5157 28.1305 52.5157C28.5004 52.5157 28.7862 52.5511 29.0018 52.6382C29.0095 52.6412 29.0166 52.6447 29.024 52.648C29.0219 52.6542 29.0209 52.6593 29.0189 52.6655C29.1762 52.19 29.3798 51.6755 29.6421 51.1106C29.8669 50.6265 30.1213 50.1024 30.4022 49.5412C30.0437 49.7111 29.6421 49.7839 29.1961 49.7587C28.8943 50.1653 28.566 50.4906 28.2132 50.7318C27.8591 50.9743 27.5025 51.0941 27.1456 51.0941C26.8231 51.0941 26.5832 50.9991 26.4247 50.8062C26.2676 50.6133 26.1891 50.3516 26.1891 50.0223C26.1891 49.9707 26.1909 49.9181 26.1942 49.8652C26.0342 50.0738 25.864 50.2771 25.6831 50.4745C25.3056 50.8879 24.9516 51.0946 24.6222 51.0946C24.1868 51.0946 23.9706 50.867 23.9706 50.4109C23.9706 49.9975 24.122 49.4461 24.4279 48.7557C24.7325 48.0653 25.1681 47.1835 25.7359 46.1114C25.7717 46.0549 25.8168 45.9709 25.8733 45.8592C26.6299 44.3999 27.0161 43.5248 27.0298 43.2299C27.0932 43.2024 27.1799 43.187 27.2929 43.187L27.2928 43.187ZM23.5597 45.9641C23.7568 45.9641 23.918 46.0041 24.0434 46.084C24.1702 46.1653 24.2584 46.2575 24.3122 46.3636C24.3645 46.4683 24.3907 46.5632 24.3907 46.6473C24.3907 46.6748 24.2226 46.6886 23.8863 46.6886C23.5639 46.7175 23.3532 46.8156 23.2554 46.9837C23.1217 47.2083 23.0693 47.4427 23.0983 47.688C23.1121 47.8148 23.1451 47.9375 23.1975 48.056C23.2499 48.1759 23.3255 48.3119 23.4233 48.4663L23.4755 48.5076C23.6436 48.7956 23.7459 48.9777 23.7804 49.0549C23.9003 49.3071 23.9523 49.5883 23.9385 49.8956C23.9234 50.1905 23.8324 50.4289 23.6657 50.6109C23.4755 50.8217 23.1985 50.9443 22.8347 50.9788C22.7851 50.987 22.7079 50.9896 22.6032 50.9896C22.3648 50.9896 22.1433 50.955 21.9407 50.8847C21.7023 50.8007 21.5202 50.678 21.3935 50.5168C21.2956 50.39 21.2364 50.237 21.2157 50.0538C21.2019 49.9559 21.1935 49.8788 21.1935 49.8223C21.1935 49.6679 21.2157 49.515 21.257 49.3592C21.2998 49.2063 21.3632 49.0728 21.4472 48.9598C21.523 48.8413 21.5931 48.7915 21.6565 48.8135C21.7199 48.8342 21.7516 48.9291 21.7516 49.0972C21.7516 49.2378 21.7793 49.3634 21.8358 49.475C21.8923 49.588 21.9793 49.6652 22.0978 49.7065C22.1612 49.7272 22.2246 49.738 22.288 49.738C22.3996 49.738 22.5099 49.7134 22.6187 49.6652C22.7276 49.6156 22.824 49.5492 22.9081 49.4652C23.0211 49.3536 23.0717 49.2295 23.0662 49.0972C23.058 49.0132 23.0059 48.9157 22.9081 48.8027C22.8599 48.7545 22.7813 48.6799 22.6766 48.582L22.4451 48.3603C22.3266 48.2349 22.2356 48.0877 22.1722 47.9195C22.1088 47.7514 22.0771 47.5828 22.0771 47.4147C22.0771 47.1694 22.1374 46.9478 22.2559 46.7522C22.3813 46.5344 22.5688 46.3499 22.8182 46.1956C23.0676 46.0413 23.3145 45.9641 23.5597 45.9641L23.5597 45.9641ZM41.2868 45.9641C41.4839 45.9641 41.6451 46.0041 41.7705 46.084C41.8973 46.1653 41.9869 46.2575 42.0392 46.3636C42.0916 46.4683 42.1178 46.5632 42.1178 46.6473C42.1178 46.6748 41.9497 46.6886 41.6134 46.6886C41.291 46.7175 41.0803 46.8156 40.9825 46.9837C40.8502 47.2083 40.7964 47.4427 40.8254 47.688C40.8391 47.8148 40.8722 47.9375 40.9246 48.056C40.9769 48.1759 41.0526 48.3119 41.1504 48.4663L41.2041 48.5076C41.3723 48.7956 41.4727 48.9777 41.5085 49.0549C41.627 49.3071 41.6794 49.5883 41.6656 49.8956C41.6518 50.1905 41.5609 50.4289 41.3928 50.6109C41.204 50.8217 40.927 50.9443 40.5618 50.9788C40.5136 50.987 40.435 50.9896 40.3303 50.9896C40.0919 50.9896 39.8718 50.955 39.6678 50.8847C39.4294 50.8007 39.2475 50.678 39.1221 50.5168C39.0229 50.39 38.9635 50.237 38.9428 50.0538C38.929 49.9559 38.9221 49.8788 38.9221 49.8223C38.9221 49.7427 38.9275 49.6634 38.9387 49.584C38.5122 49.9645 38.0752 50.2811 37.6281 50.5323C36.9488 50.9154 36.3064 51.1054 35.7042 51.1054C35.3818 51.1054 35.1423 51.0075 34.9839 50.8119C34.8268 50.6148 34.7467 50.3516 34.7467 50.0223C34.7467 49.5248 34.9039 48.9586 35.2154 48.3247C35.5268 47.6894 35.9302 47.1518 36.4236 46.7108C36.9183 46.2685 37.4214 46.0478 37.9341 46.0478C38.2979 46.0478 38.5678 46.125 38.7428 46.2793C38.9178 46.4337 39.0064 46.6404 39.0064 46.8994C39.0064 47.2288 38.8808 47.5983 38.6327 48.0089C38.3833 48.4182 38.0731 48.7653 37.701 49.0492C37.3303 49.3331 36.9724 49.4765 36.6292 49.4765C36.406 49.4765 36.2088 49.4118 36.0406 49.2864C36.0269 49.3842 36.02 49.4519 36.02 49.4864C36.02 49.6545 36.0556 49.7851 36.1301 49.8801C36.2031 49.9752 36.3178 50.0223 36.4721 50.0223C37.033 50.0223 37.5429 49.912 38.0018 49.6915C38.462 49.4697 38.8341 49.2025 39.1221 48.8869V48.8755C39.22 48.8135 39.3149 48.782 39.4058 48.782C39.5037 48.782 39.5669 48.8344 39.5944 48.9391C39.5556 48.9811 39.5167 49.0223 39.4777 49.0631C39.4779 49.0744 39.4787 49.0852 39.4787 49.0972C39.4787 49.2378 39.5064 49.3634 39.5629 49.475C39.6194 49.588 39.7075 49.6652 39.826 49.7065C39.8894 49.7272 39.9531 49.738 40.0151 49.738C40.1267 49.738 40.238 49.7134 40.3469 49.6652C40.4557 49.6155 40.5512 49.5492 40.6352 49.4652C40.7482 49.3536 40.8002 49.2295 40.7934 49.0972C40.7865 49.0132 40.7344 48.9157 40.6352 48.8027C40.587 48.7544 40.5095 48.6799 40.4048 48.582L40.1732 48.3603C40.0534 48.2349 39.9627 48.0876 39.8994 47.9195C39.8373 47.7514 39.8053 47.5828 39.8053 47.4146C39.8053 47.1694 39.8647 46.9478 39.9846 46.7522C40.11 46.5344 40.2974 46.3499 40.5469 46.1956C40.7949 46.0413 41.043 45.9641 41.2869 45.9641L41.2868 45.9641ZM37.8183 47.1103C37.5441 47.1103 37.2671 47.2443 36.9873 47.5144C36.7062 47.7845 36.4721 48.1125 36.282 48.4983C36.4225 48.5824 36.5586 48.6234 36.6923 48.6234C36.9031 48.6234 37.1088 48.5448 37.3072 48.3877C37.5084 48.2293 37.6707 48.0432 37.7961 47.8296C37.9229 47.616 37.9852 47.44 37.9852 47.2994C37.9852 47.1726 37.9342 47.1103 37.8281 47.1103H37.8183ZM29.2798 47.1516C29.007 47.1516 28.7315 47.2674 28.4545 47.4989C28.1775 47.7304 27.9476 48.0074 27.7657 48.3299C27.5838 48.6523 27.4928 48.9362 27.4928 49.1815C27.4928 49.322 27.5314 49.4338 27.6086 49.5179C27.6858 49.602 27.8013 49.6445 27.9543 49.6445C28.0604 49.6445 28.165 49.6228 28.2711 49.5815L28.2065 49.5608C28.1376 49.5388 28.0868 49.4986 28.0551 49.4393C28.0234 49.3801 28.0149 49.3138 28.0287 49.2435C28.0494 49.1746 28.0895 49.1169 28.1502 49.0714C28.2094 49.0246 28.2766 49.0027 28.3538 49.0027C28.3965 49.0027 28.4282 49.0067 28.4489 49.0135C28.5467 49.048 28.6941 49.0935 28.8912 49.15L28.901 49.1608C29.1325 48.9362 29.3239 48.6745 29.4741 48.3769C29.6257 48.0792 29.7005 47.8176 29.7005 47.5929C29.7005 47.2994 29.5596 47.1516 29.2798 47.1516V47.1516ZM33.8537 47.163C33.6015 47.163 33.3009 47.3449 32.955 47.7087C32.6078 48.0739 32.3022 48.487 32.0404 48.95C31.7772 49.4116 31.6461 49.7523 31.6461 49.9701C31.6461 50.0886 31.6915 50.1489 31.7825 50.1489C32.0981 50.1489 32.4343 49.9821 32.7912 49.6486C33.1495 49.3165 33.4542 48.9279 33.7064 48.487C33.96 48.046 34.0852 47.6989 34.0852 47.4467C34.0852 47.2579 34.008 47.163 33.8537 47.163V47.163ZM15.7457 48.0183H19.6685C19.7657 48.0183 19.8437 48.0962 19.8437 48.1934C19.8437 48.2893 19.7657 48.3686 19.6685 48.3686H15.7457C15.6485 48.3686 15.5706 48.2893 15.5706 48.1934C15.5706 48.0962 15.6485 48.0183 15.7457 48.0183V48.0183ZM43.4366 48.0183H47.3593C47.4552 48.0183 47.5345 48.0962 47.5345 48.1934C47.5345 48.2893 47.4552 48.3686 47.3593 48.3686H43.4366C43.3394 48.3686 43.2614 48.2893 43.2614 48.1934C43.2614 48.1023 43.3303 48.0277 43.419 48.0188C43.4249 48.0182 43.4305 48.0182 43.4366 48.0182V48.0183ZM37.4581 51.6242C37.7799 51.6242 38.0126 51.8023 38.0126 52.1322C38.0126 52.4471 37.8073 52.5839 37.5801 52.5839C37.3747 52.5839 37.1964 52.4606 37.1827 52.2278L37.3744 52.11C37.3949 52.0018 37.3552 51.8992 37.2101 51.8992C37.1266 51.8992 36.941 51.9237 36.9181 52.2764C36.9165 52.2999 36.916 52.3248 36.916 52.3513C36.916 52.4608 36.9293 52.5973 36.9635 52.7616C37.2305 52.9396 37.4855 53.1795 37.4855 53.6313C37.4855 54.1199 37.2656 54.4555 36.8969 54.6385C36.8784 54.6477 36.8597 54.6565 36.8405 54.6649C36.7063 54.7236 36.5541 54.7634 36.3873 54.7848C36.3397 54.7908 36.2911 54.7957 36.2411 54.7987C36.1911 54.8017 36.1398 54.8034 36.0876 54.8034C35.8877 54.8034 35.6769 54.776 35.5331 54.7486C35.2922 54.8992 35.2303 54.9743 35.2303 55.0359C35.2303 55.0975 35.3057 55.1315 35.6685 55.1315H36.3682C37.1417 55.1315 37.9237 55.3164 37.9237 56.2488C37.9237 56.6531 37.7683 56.9974 37.4157 57.2311C37.3949 57.2449 37.3737 57.2585 37.3516 57.2714C37.042 57.4531 36.5965 57.5577 35.9915 57.5577C34.799 57.5577 34.2996 57.2702 34.2996 56.8239C34.2996 56.4816 34.5871 56.3446 34.8267 56.2761L35.2375 56.4611C35.1965 56.6117 35.1828 56.7278 35.1828 56.8373C35.1828 56.9818 35.2184 57.1295 35.3461 57.2409C35.362 57.2549 35.3793 57.268 35.3982 57.2807C35.5308 57.3698 35.7392 57.4275 36.0602 57.4275C36.1056 57.4275 36.1493 57.4267 36.192 57.4244C36.2773 57.4198 36.3573 57.4107 36.4318 57.3975C36.9159 57.312 37.1692 57.0513 37.1692 56.7009C37.1692 56.3723 37.0188 56.242 36.3 56.242H35.636C35.075 56.242 34.7958 56.0835 34.6763 55.8865C34.6655 55.8686 34.6562 55.8502 34.6479 55.8317C34.6146 55.7579 34.6009 55.6807 34.6009 55.6054C34.6009 55.2152 34.8469 55.0223 35.3822 54.7005C34.8469 54.5499 34.5869 54.2283 34.5869 53.6587C34.5869 53.6386 34.5877 53.6186 34.5885 53.5988C34.6156 52.9845 35.0643 52.5156 36.067 52.5157C36.4024 52.5156 36.6007 52.5635 36.8266 52.6867C36.7992 52.5635 36.7858 52.454 36.7858 52.3513C36.7858 51.7886 37.1761 51.6242 37.4581 51.6242H37.4581ZM25.7317 52.5157C26.1356 52.5156 26.4578 52.7277 26.4578 53.2479C26.4578 53.6381 26.2522 53.8995 25.8826 53.8995C25.8253 53.8995 25.7715 53.8949 25.7219 53.8861C25.7095 53.884 25.6976 53.8816 25.6857 53.8789C25.3644 53.8049 25.2275 53.5362 25.3488 53.1249H25.5953C25.7322 52.8443 25.5949 52.7756 25.4511 52.7756C25.4203 52.7756 25.3899 52.7801 25.3596 52.7885C25.3496 52.7913 25.3396 52.7941 25.3297 52.7978C25.0503 52.9006 24.8134 53.3459 24.8134 53.8861V55.7217H25.3007V55.8452H23.1624V55.7217H23.5401V52.7074H23.1624V52.5839H24.8134V53.2412C24.938 52.7552 25.321 52.5157 25.7317 52.5157V52.5157ZM32.9003 52.5157C33.5369 52.5156 33.9612 52.8304 33.9612 53.6587V55.7217H34.3462V55.8452H32.4078V55.7217H32.6884V53.496C32.6884 52.9127 32.6061 52.8438 32.4336 52.8438C32.1475 52.8438 31.8791 53.2755 31.8791 53.8313V55.7217H32.1747V55.8452H30.2281V55.7217H30.6043V52.7074H30.2281V52.7017C30.2443 52.662 30.2604 52.6225 30.2756 52.5839H31.8791V53.2138C31.9955 52.8715 32.2226 52.5156 32.9003 52.5156V52.5157ZM39.6032 52.5157C40.6779 52.5156 41.1381 53.056 41.0956 54.0773H39.164V54.3445C39.164 54.395 39.1641 54.4444 39.1655 54.4928C39.1838 55.2187 39.3495 55.7015 39.9732 55.7015C40.4798 55.7015 40.8221 55.378 40.9727 54.8509L41.0957 54.8716C40.9382 55.4603 40.5823 55.9134 39.6089 55.9134C38.8093 55.9134 38.2981 55.6129 38.0411 55.1253C38.0288 55.1021 38.017 55.0781 38.0059 55.054C37.895 54.8134 37.8416 54.5321 37.8416 54.2215C37.8416 53.0359 38.6504 52.5156 39.6032 52.5156L39.6032 52.5157ZM36.0603 52.6386C35.8686 52.6386 35.7301 52.7617 35.7301 53.5078V53.8789C35.7301 54.5223 35.8468 54.6664 36.0536 54.6664C36.2384 54.6664 36.3543 54.5565 36.3543 53.8432V53.5078C36.3543 52.7412 36.2451 52.6386 36.0603 52.6386V52.6386ZM39.5402 52.6454C39.3006 52.6454 39.1707 52.8784 39.1707 53.604V53.9409H39.8771V53.604C39.8771 52.8852 39.8222 52.6454 39.5402 52.6454ZM28.7858 53.4887C28.7821 53.5051 28.7743 53.5247 28.7708 53.5409C28.7653 53.5685 28.761 53.6031 28.761 53.6458C28.761 53.6617 28.7674 53.6758 28.7687 53.6913C28.7671 53.6741 28.7646 53.6572 28.7646 53.6396C28.7646 53.5969 28.7684 53.5623 28.7739 53.5347C28.777 53.52 28.7825 53.5035 28.7858 53.4887H28.7858ZM29.562 53.7636C29.5364 53.8881 29.5198 53.9988 29.516 54.0908C29.5319 54.0054 29.5464 53.8424 29.562 53.7636ZM28.7827 53.7693C28.7922 53.8084 28.8068 53.846 28.8256 53.8825C28.8064 53.8462 28.7926 53.8082 28.7827 53.7693ZM28.8488 53.9223C28.8623 53.9438 28.8696 53.9669 28.8865 53.9874C28.905 54.0094 28.9283 54.0219 28.9486 54.0401C28.9284 54.022 28.9085 54.0031 28.8902 53.9812C28.8744 53.9621 28.8616 53.9422 28.8488 53.9223V53.9223ZM28.9682 54.0577C29.0092 54.0911 29.0542 54.1172 29.1026 54.1362C29.0541 54.1172 29.0092 54.0911 28.9682 54.0577ZM29.131 54.1466C29.1555 54.1546 29.1769 54.1678 29.2033 54.1724C29.3149 54.1862 29.3851 54.1931 29.4126 54.1931C29.4523 54.1931 29.4753 54.1852 29.4901 54.174C29.4744 54.1822 29.45 54.1869 29.4162 54.1869C29.3887 54.1869 29.3186 54.18 29.2069 54.1662C29.1805 54.1616 29.1555 54.1546 29.131 54.1466V54.1466ZM28.2468 54.3445C27.9593 54.3445 27.8225 54.5501 27.8225 54.9677V55.0767C27.8225 55.571 27.8702 55.6395 28.0003 55.6395C28.1304 55.6395 28.2949 55.4192 28.2949 54.9811V54.3445H28.2468Z" fill="white"/>
<path d="M32.4429 9.48158C31.9254 9.48158 31.5055 9.90182 31.5055 10.418C31.5055 10.8233 31.7646 11.1696 32.1266 11.2996V12.3259L31.289 11.4871C31.1863 11.3845 31.019 11.3845 30.9164 11.4871C30.8137 11.5898 30.8137 11.757 30.9164 11.8597L32.1266 13.0684V13.9552L31.4259 13.2545V13.2478C31.4259 13.1026 31.308 12.9847 31.1629 12.9847C31.08 12.9847 31.0064 13.0235 30.9582 13.0834L30.9577 13.084C30.9431 13.0936 30.9292 13.1047 30.9164 13.1175C30.8194 13.2145 30.8142 13.3678 30.9003 13.471V14.4348L30.273 13.8074V12.0964C30.273 11.9513 30.1556 11.8334 30.0105 11.8334C29.8654 11.8334 29.7474 11.9513 29.7474 12.0964V13.2819L29.0648 12.5992C29.2912 12.2381 29.2474 11.7538 28.933 11.4406C28.5675 11.0751 27.9731 11.0751 27.6075 11.4406C27.4309 11.6172 27.3336 11.8529 27.3336 12.1021C27.3336 12.3526 27.4309 12.588 27.6075 12.7646C27.7841 12.9426 28.0195 13.0395 28.27 13.0395C28.4109 13.0395 28.5479 13.0082 28.6715 12.9496L29.3971 13.6751H28.2111C28.066 13.6751 27.9486 13.7925 27.9486 13.9376C27.9486 14.0828 28.066 14.2007 28.2111 14.2007H29.9226L30.5495 14.8275H29.5573L29.5531 14.8234C29.4505 14.7207 29.2832 14.7207 29.1806 14.8234C29.1219 14.8821 29.0967 14.9615 29.1051 15.0378C29.1016 15.0549 29.1 15.0724 29.1 15.0905C29.1 15.2275 29.2045 15.3397 29.3382 15.352L30.0198 16.0336H29.1341L27.9222 14.8234C27.8196 14.7207 27.6539 14.7207 27.5512 14.8234C27.4485 14.9261 27.4485 15.0917 27.5512 15.1944L28.3904 16.0336H27.4246C27.3287 15.6176 26.9559 15.3071 26.511 15.3071C25.9948 15.3071 25.5746 15.727 25.5746 16.2445C25.5746 16.7606 25.9948 17.1814 26.511 17.1814C26.9177 17.1814 27.2638 16.9215 27.3936 16.5597H28.4204L27.5817 17.3989C27.479 17.5016 27.479 17.6673 27.5817 17.77C27.6337 17.822 27.7007 17.8464 27.7677 17.8464C27.8348 17.8464 27.9017 17.822 27.9538 17.77L29.1645 16.5597H30.0498L29.3475 17.262H29.3423C29.1972 17.262 29.0793 17.3799 29.0793 17.525C29.0793 17.608 29.1179 17.6815 29.178 17.7297C29.1874 17.7438 29.1981 17.7575 29.2105 17.77C29.2626 17.822 29.33 17.8464 29.3971 17.8464C29.4558 17.8464 29.5149 17.8271 29.5635 17.7875H30.5278L29.902 18.4133H28.1894C28.0443 18.4133 27.9264 18.5312 27.9264 18.6764C27.9264 18.8215 28.0443 18.9389 28.1894 18.9389H29.3764L28.6917 19.6236C28.3335 19.408 27.8373 19.4513 27.5336 19.7538C27.357 19.9318 27.2598 20.1658 27.2598 20.4163C27.2598 20.6669 27.357 20.9022 27.5336 21.0788C27.7103 21.2554 27.9456 21.3542 28.1961 21.3542C28.4467 21.3542 28.682 21.2554 28.8586 21.0788C29.1458 20.7916 29.2072 20.3635 29.0431 20.0158L29.7692 19.2898V20.4752C29.7692 20.6203 29.8871 20.7377 30.0322 20.7377C30.1773 20.7377 30.2952 20.6203 30.2952 20.4752V18.7637L30.9205 18.1384V19.1306L30.9164 19.1347C30.8137 19.2374 30.8137 19.4031 30.9164 19.5058C30.9684 19.5578 31.0359 19.5823 31.1029 19.5823C31.112 19.5823 31.1208 19.5816 31.1298 19.5807C31.1472 19.5843 31.1652 19.5864 31.1836 19.5864C31.32 19.5864 31.432 19.4827 31.445 19.3497L32.1267 18.6681V19.5543L30.9164 20.7641C30.8137 20.8668 30.8137 21.0324 30.9164 21.1351C30.9684 21.1871 31.0359 21.2131 31.1029 21.2131C31.17 21.2131 31.237 21.1871 31.289 21.1351L32.1267 20.2985V21.2633C31.7118 21.3593 31.4011 21.7318 31.4011 22.1754C31.4011 22.6915 31.8214 23.1117 32.3375 23.1117C32.855 23.1117 33.2754 22.6915 33.2754 22.1754C33.2754 21.7694 33.0155 21.4228 32.6527 21.2932V20.2659L33.4919 21.1046C33.5946 21.2073 33.7613 21.2073 33.864 21.1046C33.9667 21.0019 33.9667 20.8363 33.864 20.7336L32.6527 19.5223V18.6355L33.355 19.3388V19.344C33.355 19.4891 33.4729 19.607 33.618 19.607C33.7001 19.607 33.7729 19.5693 33.8211 19.5104C33.8364 19.5005 33.8506 19.4892 33.864 19.4758C33.9608 19.379 33.9662 19.2252 33.8805 19.1218V18.1586L34.5079 18.7859V20.4969C34.5079 20.642 34.6253 20.7599 34.7704 20.7599C34.9155 20.7599 35.0335 20.642 35.0335 20.4969V19.3115L35.7156 19.9936C35.4895 20.3553 35.5336 20.8384 35.8479 21.1527C36.0245 21.3293 36.2598 21.4281 36.5104 21.4281C36.7609 21.4281 36.9968 21.3293 37.1734 21.1527C37.35 20.9761 37.4473 20.7407 37.4473 20.4902C37.4473 20.2397 37.35 20.0057 37.1734 19.8277C36.8963 19.5518 36.459 19.4911 36.1125 19.6463L35.3843 18.9187H36.5693C36.7144 18.9187 36.8323 18.8008 36.8323 18.6557C36.8323 18.5106 36.7144 18.3926 36.5693 18.3926H34.8583L34.2314 17.7658H35.2236L35.2277 17.7699C35.2798 17.822 35.3467 17.8464 35.4138 17.8464C35.4809 17.8464 35.5483 17.822 35.6003 17.7699C35.6586 17.7116 35.6832 17.6329 35.6753 17.557C35.6789 17.5396 35.681 17.5213 35.681 17.5028C35.681 17.366 35.5762 17.2538 35.4427 17.2413L34.7611 16.5597H35.6479L36.8581 17.7699C36.9088 17.822 36.9761 17.8464 37.0431 17.8464C37.1102 17.8464 37.1785 17.822 37.2292 17.7699C37.3319 17.6673 37.3319 17.5016 37.2292 17.3989L36.3905 16.5597H37.3563C37.4524 16.9746 37.8248 17.2852 38.2684 17.2852C38.7859 17.2852 39.2063 16.865 39.2063 16.3488C39.2063 15.8327 38.7859 15.4125 38.2684 15.4125C37.8627 15.4125 37.5165 15.6719 37.3868 16.0336H36.3605L37.1992 15.1944C37.3019 15.0917 37.3019 14.926 37.1992 14.8234C37.0965 14.7207 36.9293 14.7207 36.8266 14.8234L35.6169 16.0336H34.7306L35.4319 15.3313H35.4386C35.5837 15.3313 35.7016 15.2139 35.7016 15.0688C35.7016 14.9844 35.6617 14.9092 35.5998 14.8611C35.5908 14.8479 35.5806 14.8351 35.5688 14.8234C35.4726 14.7271 35.3201 14.7216 35.2169 14.8058H34.2521L34.8779 14.18H36.5915C36.7366 14.18 36.854 14.0626 36.854 13.9175C36.854 13.7724 36.7366 13.6544 36.5915 13.6544H35.4035L36.0871 12.9708C36.2347 13.0638 36.406 13.1134 36.5848 13.1134C36.8353 13.1134 37.0707 13.0164 37.2473 12.8385C37.4239 12.6619 37.5212 12.4265 37.5212 12.176C37.5212 11.9268 37.4239 11.6911 37.2473 11.5145C36.8927 11.1599 36.275 11.1599 35.9218 11.5145C35.6345 11.8008 35.5735 12.2301 35.7378 12.5775L35.0112 13.3041V12.1171C35.0112 11.9719 34.8938 11.854 34.7487 11.854C34.6036 11.854 34.4857 11.9719 34.4857 12.1171V13.8296L33.8588 14.4565V13.4638L33.864 13.4586C33.9667 13.3559 33.9667 13.1902 33.864 13.0875C33.8053 13.0289 33.7257 13.0037 33.649 13.0121C33.6319 13.0086 33.6139 13.0069 33.5958 13.0069C33.4589 13.0069 33.3466 13.1114 33.3343 13.2452L32.6527 13.9257V13.0395L33.864 11.8292C33.9667 11.7265 33.9667 11.5598 33.864 11.4572C33.7613 11.3545 33.5946 11.3545 33.4919 11.4572L32.6527 12.2964V11.3306C33.0684 11.2351 33.3798 10.8621 33.3798 10.4179C33.3798 9.90181 32.959 9.48157 32.4429 9.48157L32.4429 9.48158ZM32.4429 10.0071C32.6688 10.0071 32.8537 10.1907 32.8537 10.418C32.8537 10.6439 32.6688 10.8288 32.4429 10.8288C32.2156 10.8288 32.031 10.6439 32.031 10.418C32.031 10.1907 32.2156 10.0071 32.4429 10.0071ZM28.27 11.6913C28.3754 11.6913 28.481 11.7323 28.5604 11.8117C28.7206 11.9719 28.7206 12.2334 28.5604 12.3935C28.4016 12.5537 28.1403 12.5537 27.9801 12.3935C27.8199 12.2334 27.8199 11.9719 27.9801 11.8117C28.0595 11.7323 28.1646 11.6913 28.27 11.6913ZM36.5848 11.7652C36.6902 11.7652 36.7952 11.8062 36.8747 11.8856C37.0348 12.0457 37.0348 12.3073 36.8747 12.4674C36.7199 12.6221 36.4489 12.6221 36.2928 12.4674C36.1326 12.3073 36.1326 12.0457 36.2928 11.8856C36.3736 11.8062 36.4793 11.7652 36.5848 11.7652ZM33.3328 13.9893V14.857L32.7199 15.4698V14.6017L33.3328 13.9893ZM31.4259 13.9976L32.0393 14.6105V15.4791L31.4259 14.8647V13.9976ZM33.8216 15.3314H34.6898L34.0769 15.9448H33.2087L33.8216 15.3314ZM30.0833 15.3536H30.951L31.5644 15.967H30.6962L30.0833 15.3536ZM26.5109 15.8326C26.7382 15.8326 26.9228 16.0172 26.9228 16.2445C26.9228 16.4704 26.7382 16.6553 26.5109 16.6553C26.2851 16.6553 26.1001 16.4704 26.1001 16.2445C26.1001 16.0172 26.2851 15.8326 26.5109 15.8326ZM38.2684 15.938C38.4956 15.938 38.6807 16.1216 38.6807 16.3489C38.6807 16.5761 38.4956 16.7597 38.2684 16.7597C38.0425 16.7597 37.8575 16.5761 37.8575 16.3489C37.8575 16.1216 38.0425 15.938 38.2684 15.938ZM33.217 16.6269H34.0862L34.698 17.2398H33.8294L33.217 16.6269ZM30.706 16.647H31.5737L30.9593 17.262H30.0911L30.706 16.647ZM32.7416 17.1142L33.355 17.7276V18.5947L32.7416 17.9818V17.1142ZM32.06 17.1245V17.9917L31.4466 18.6045V17.7369L32.06 17.1245ZM28.1961 20.0055C28.3015 20.0055 28.4071 20.0451 28.4865 20.1259C28.6467 20.2861 28.6467 20.5462 28.4865 20.7078C28.3277 20.8666 28.0664 20.8679 27.9062 20.7078C27.746 20.5462 27.746 20.2861 27.9062 20.1259C27.9856 20.0451 28.0907 20.0055 28.1961 20.0055ZM36.5103 20.0794C36.6158 20.0794 36.7214 20.119 36.8008 20.1998C36.9609 20.36 36.9609 20.6201 36.8008 20.7817C36.6406 20.9418 36.3791 20.9405 36.2189 20.7817C36.0601 20.6201 36.0601 20.36 36.2189 20.1998C36.2997 20.119 36.4049 20.0794 36.5103 20.0794ZM32.3375 21.7645C32.5647 21.7645 32.7498 21.9481 32.7498 22.1754C32.7498 22.4026 32.5647 22.5862 32.3375 22.5862C32.1116 22.5862 31.9272 22.4026 31.9272 22.1754C31.9272 21.9481 32.1116 21.7645 32.3375 21.7645Z" fill="white"/>
</svg>
