<svg version="1.2" viewBox="0 0 184.252 184.252" height="65mm" width="65mm" xmlns:xlink="http://www.w3.org/1999/xlink" xmlns="http://www.w3.org/2000/svg"><defs><linearGradient id="a"><stop style="stop-color:#fc0;stop-opacity:1" offset="0"/><stop style="stop-color:#ffe680;stop-opacity:1" offset="1"/></linearGradient><linearGradient xlink:href="#a" id="b" x1="52.158" y1="206.638" x2="173.237" y2="27.536" gradientUnits="userSpaceOnUse"/></defs><g style="display:inline"><path style="clip-rule:nonzero;fill:#025;fill-opacity:1;fill-rule:nonzero;stroke:none;stroke-width:.1;stroke-miterlimit:4;stroke-dasharray:none" d="m122.834 5.89-1.086.036-1.084.103-1.078.176-1.065.244-1.05.315-1.032.384-1.01.454-.984.525L67.316 35.34l-5.455 3.15L39.89 51.176l-.948.588-.9.65-.85.701-.798.752-.745.801-.691.844-.633.886-.576.924-.512.96-.453.991-.387 1.02-.318 1.047-.254 1.066-.181 1.088-.112 1.104-.037 1.115v59.928l.082.086 3.715 2.39c.093.062.176.134.254.211l21.812 23.486 14.657-15.853 5.365-6.908c.083-.099.172-.191.281-.264l5.344-3.818 10.805-10.8 13.935-15.491c.145-.16.33-.285.531-.358l3.68-1.324c.004-.001.006-.005.01-.006l2.342-.842 3.681-1.326c.11-.04.224-.064.338-.074.01 0 .018.004.028.004.142-.01.284.01.421.047.037.01.072.018.108.031.144.051.282.12.404.22l19.533 16.253 10.887 10.263.002.002 24.059 16.823 2.537-2.733c.124-.13.274-.238.44-.31l9.712-4.274c.028-.012.056-.019.084-.03l.045-.017.021-.006c.044-.013.087-.023.131-.03a1.358 1.358 0 0 1 .193-.023c.018-.002.036-.001.053-.001.048 0 .094.003.141.008l.047.005c.048.007.095.016.142.028l.04.01c.049.014.096.03.144.05l.006.002c.01.004.018.01.027.014.044.02.088.04.13.064.027.017.054.036.081.055.028.02.056.037.082.059.051.04.1.084.145.132l14.297 15.565c.76.605 1.297 1.07 1.52 1.268.03.03.068.063.099.1l10.29 11.333v-93.95l-.034-1.114-.114-1.104-.18-1.088-.253-1.066-.323-1.047-.386-1.02-.45-.992-.515-.959-.572-.924-.635-.886-.69-.844-.746-.8-.797-.753-.85-.7-.9-.651-.947-.588-68.203-39.38-6.357-3.669-.983-.525-1.01-.454-1.033-.384-1.05-.315-1.065-.244-1.076-.176-1.084-.103-1.088-.035z" transform="scale(.75)"/><path style="clip-rule:nonzero;display:inline;fill:url(#b);fill-opacity:1;fill-rule:nonzero;stroke:none;stroke-width:.1;stroke-miterlimit:4;stroke-dasharray:none" d="m122.83 0-1.135.037-1.138.11-1.131.183-1.12.258-1.103.33-1.084.404-1.06.479-1.034.55-78.314 45.215-.996.62-.945.681-.893.737-.838.79v.002l-.783.838v.002l-.725.885v.002l-.666.93v.002l-.603.968v.002l-.54 1.006v.002l-.474 1.04v.001l-.406 1.069v.002l-.336 1.097v.002l-.266 1.12v.001l-.191 1.14v.003l-.117 1.156v.002l-.04 1.17V124.16c-.023.03-.057.048-.078.08v.002c-.082.13-.134.27-.168.412v.002l-.011.041v.002c-.028.14-.03.28-.014.418v.002l.006.041v.002c.023.144.068.282.137.412v.002l.004.008v.002c.031.058.085.103.125.156v1.084l-.202.522v.002a1.239 1.239 0 0 0-.064.664v.002c.038.215.131.42.266.595V182.84l.039 1.17v.002l.117 1.152v.006l.002.01v.002l.19 1.129v.001l.265 1.122v.002l.336 1.093v.002l.406 1.07v.003l.475 1.039v.002l.539 1.005v.002l.603.97v.001l.647.9v.002l.02.026v.002c.007.01.017.019.025.029v.002l.699.853v.002l.756.81v.001l.027.027v.002c.01.011.023.02.033.032l.805.757.893.739.945.677.996.621 78.314 45.22 1.034.55 1.013.455.1.041 1.031.385 1.05.314.11.03 1.063.244 1.13.183 1.14.11 1.142.037 1.14-.037 1.14-.11 1.13-.183 1.063-.244c.036-.011.072-.02.109-.03l1.05-.314 1.032-.385.1-.04 1.013-.456 1.033-.55 78.311-45.22.996-.62.943-.678h.002l.893-.739.807-.76.03-.029.028-.029.756-.81.7-.856.025-.03v-.001l.02-.028.646-.902.576-.93.05-.088.516-.96.451-.993c.015-.033.027-.067.041-.101l.387-1.02.338-1.095.266-1.124.177-1.078c.007-.04.012-.081.018-.123l.113-1.1.035-1.116c0-.019.004-.037.004-.055v-14.653l-.002-.001V62.838l-.037-1.172-.119-1.158-.19-1.143-.265-1.12-.338-1.1-.406-1.07-.473-1.042-.54-1.008-.602-.97-.666-.932-.725-.887-.783-.84-.838-.79-.893-.737-.945-.681-.996-.62-19.518-11.27v-.001L131.648 2.352l-1.033-.551-1.06-.479-1.084-.404-1.104-.33-1.119-.258-1.13-.184-1.14-.109-.275-.01a15.056 15.056 0 0 0-.857-.027h-.016zm.004 5.89 1.088.036 1.084.103 1.076.176 1.064.244 1.051.315 1.033.384 1.01.454.983.525 6.357 3.672L183.81 38.49l6.632 3.828 15.342 8.86.947.588.9.65.85.701.797.752.746.8.69.845.635.886.572.924.516.96.449.991.386 1.02.323 1.047.254 1.066.18 1.088.113 1.104.035 1.115v93.95l-10.291-11.335c-.031-.036-.069-.069-.1-.1a39.576 39.576 0 0 0-1.52-1.267l-11.824-12.873v-.002l-2.472-2.69v-.002a1.318 1.318 0 0 0-.145-.132c-.026-.022-.054-.04-.082-.059-.027-.019-.054-.038-.082-.055a1.323 1.323 0 0 0-.129-.064l-.027-.014c-.002 0-.004 0-.006-.002a1.308 1.308 0 0 0-.144-.05l-.04-.01a1.33 1.33 0 0 0-.142-.028l-.047-.005a1.32 1.32 0 0 0-.14-.008h-.053a1.344 1.344 0 0 0-.137.013l-.057.01a1.205 1.205 0 0 0-.13.031l-.022.006c-.016.005-.03.012-.045.018-.028.01-.056.017-.084.03l-9.713 4.273a1.382 1.382 0 0 0-.44.31l-2.536 2.733-24.059-16.823-.002-.002-10.887-10.263-19.533-16.252c-.122-.101-.26-.17-.404-.221-.036-.013-.07-.021-.108-.031a1.326 1.326 0 0 0-.421-.047c-.01 0-.019-.005-.028-.004-.114.01-.228.034-.338.074l-3.681 1.326-2.342.842c-.004.001-.006.005-.01.006l-3.68 1.324a1.324 1.324 0 0 0-.53.358l-13.936 15.492-10.805 10.799-5.344 3.818a1.364 1.364 0 0 0-.281.264l-5.365 6.908-14.657 15.853-21.812-23.486a1.67 1.67 0 0 0-.254-.21l-3.715-2.391-.082-.086V65.713l.037-1.113v-.002l.112-1.102v-.002l.181-1.086v-.002l.254-1.064v-.002l.318-1.045v-.002l.387-1.018v-.002l.453-.99v-.002l.512-.957v-.002l.576-.922v-.002l.633-.884v-.002l.691-.842v-.002l.745-.799.798-.752.85-.701.9-.65.948-.588L61.865 38.49h-.004l52.584-30.363.985-.525 1.01-.454 1.03-.384 1.051-.315 1.065-.244 1.078-.176 1.084-.103 1.086-.035zM81.143 50.07l-1.522 2.784-2.785 1.521 2.785 1.521 1.522 2.79 1.52-2.79 2.784-1.521-2.785-1.521-1.52-2.784zm83.984 0-1.52 2.784-2.785 1.521 2.785 1.521 1.52 2.79 1.521-2.79 2.786-1.521-2.786-1.521-1.521-2.784zM63.94 59.611a2.236 2.236 0 1 0 .004 4.472 2.236 2.236 0 0 0-.004-4.472zm116.545 1.569c-1.236 0-2.236 1-2.236 2.236 0 1.232 1 2.229 2.236 2.229a2.228 2.228 0 0 0 2.229-2.229 2.23 2.23 0 0 0-2.229-2.236zM46.582 76.387l-1.521 2.785-2.79 1.521 2.79 1.522 1.521 2.783 1.522-2.783 2.783-1.522-2.783-1.521-1.522-2.785zm29.473 1.468a1.326 1.326 0 0 0-.725 2.387l14.914 11.069c.238.175.511.26.785.26.41 0 .808-.182 1.067-.534.44-.59.316-1.419-.274-1.853L76.908 78.115a1.315 1.315 0 0 0-.853-.26zm87.285 0a1.314 1.314 0 0 0-.727.26l-14.918 11.069a1.323 1.323 0 0 0 .791 2.387c.275 0 .555-.085.793-.26l14.912-11.069a1.326 1.326 0 0 0-.851-2.387zM71.523 95.39a1.357 1.357 0 0 0-1.248 1.271 1.326 1.326 0 0 0 1.274 1.377l19.553.772h.052a1.322 1.322 0 0 0 .051-2.645l-19.553-.775a1.18 1.18 0 0 0-.129 0zm96.348 0-19.56.775a1.318 1.318 0 0 0-1.268 1.377 1.322 1.322 0 0 0 1.32 1.268h.051l19.56-.772a1.325 1.325 0 0 0 1.272-1.377c-.03-.73-.671-1.287-1.375-1.271zM46.664 99.383a2.234 2.234 0 0 0-2.234 2.234c0 1.237.997 2.237 2.234 2.237 1.232 0 2.236-1 2.236-2.237a2.24 2.24 0 0 0-2.236-2.234zm44.627 3.13a1.32 1.32 0 0 0-.51.13l-16.734 7.984a1.318 1.318 0 0 0-.625 1.764 1.328 1.328 0 0 0 1.77.627l16.728-7.985a1.327 1.327 0 0 0 .627-1.77 1.327 1.327 0 0 0-1.256-.75zm56.809 0c-.47.025-.91.299-1.123.75a1.329 1.329 0 0 0 .62 1.77l16.733 7.985a1.326 1.326 0 0 0 1.145-2.391l-16.735-7.984a1.33 1.33 0 0 0-.64-.13zm-89.592 6.257-1.52 2.783-2.785 1.527 2.785 1.522 1.52 2.783 1.521-2.783 2.785-1.522-2.785-1.527-1.521-2.783zm131.908 0-.002.001-1.52 2.782-2.789 1.527 2.79 1.522 1.52 2.78v.003h.001l.025-.047v-.004l1.495-2.732 2.785-1.522-2.785-1.527-1.495-2.733v-.004l-.025-.046zM59.512 181.488h14.826a.66.66 0 1 1 0 1.323H59.512a.661.661 0 0 1-.662-.66v-.003a.66.66 0 0 1 .662-.66zm104.658 0h14.826a.661.661 0 0 1 .662.66v.002a.66.66 0 0 1-.195.465.66.66 0 0 1-.467.196H164.17a.66.66 0 0 1-.662-.66v-.003a.663.663 0 0 1 .596-.658h.066v-.002z" transform="scale(.75)"/><path style="display:inline;fill:#04a;fill-opacity:1;fill-rule:nonzero;stroke:none;stroke-width:.1;stroke-miterlimit:4;stroke-dasharray:none" d="M108.102 11.793zm-.385 3.324zm29.863-3.32zm.373 3.32zm-.19 2.278zM108.88 20.92zm3.266 4.889zm24.64-4.873c-.048.102-.098.203-.148.304.046-.104.104-.2.148-.304zm-1.244 2.32zm-4.006 4.193zm-2.578 1.47c-.101.052-.203.101-.305.15.105-.045.201-.103.305-.15zm-11.853.179zm5.73 1.138zm3.373-.408zM63.941 59.611a2.236 2.236 0 1 0 .004 4.472 2.236 2.236 0 0 0-.004-4.472zm116.545 1.569c-1.236 0-2.236 1-2.236 2.236 0 1.232 1 2.229 2.236 2.229a2.228 2.228 0 0 0 2.229-2.229 2.23 2.23 0 0 0-2.229-2.236zM76.055 77.855a1.326 1.326 0 0 0-.725 2.387l14.914 11.069c.238.175.511.26.785.26.41 0 .808-.182 1.067-.534.44-.59.316-1.419-.274-1.853L76.908 78.115a1.315 1.315 0 0 0-.853-.26zm87.285 0a1.314 1.314 0 0 0-.727.26l-14.918 11.069a1.323 1.323 0 0 0 .791 2.387c.275 0 .555-.085.793-.26l14.912-11.069a1.326 1.326 0 0 0-.851-2.387zM118.326 94.75c-.114.01-.228.034-.338.074l-3.681 1.326-2.342.842c-.004.001-.006.005-.01.006l-3.68 1.324a1.324 1.324 0 0 0-.531.358l-13.936 15.492-10.804 10.799-5.344 3.818a1.364 1.364 0 0 0-.281.264l-5.366 6.908-14.656 15.853-21.812-23.486a1.67 1.67 0 0 0-.254-.21l-3.715-2.391-.082-.086v54.318l.037 1.115.111 1.104.182 1.088.254 1.068.318 1.043.387 1.022.453.99.512.96.576.925.633.884.691.844.744.8.8.75.849.704.9.644.947.592 74.561 43.051.982.525 1.01.454 1.033.384 1.051.315 1.065.244 1.076.176 1.084.103 1.088.035 1.086-.035 1.084-.103 1.078-.176 1.064-.244 1.05-.315 1.032-.384 1.01-.454.984-.525 74.557-43.05.947-.593.9-.644.85-.703.797-.75.746-.801.69-.844.634-.884.573-.924.515-.961.45-.99.386-1.022.323-1.043.253-1.068.18-1.088.113-1.104.036-1.115v-20.297l-10.291-11.334c-.031-.036-.069-.068-.1-.1a39.574 39.574 0 0 0-1.52-1.267l-14.296-15.564a1.318 1.318 0 0 0-.145-.133c-.026-.022-.054-.04-.082-.059-.027-.018-.054-.038-.082-.055a1.323 1.323 0 0 0-.129-.064l-.027-.014c-.002 0-.004 0-.006-.002a1.308 1.308 0 0 0-.145-.05l-.039-.01a1.33 1.33 0 0 0-.33-.042h-.053a1.344 1.344 0 0 0-.324.055l-.021.006c-.016.005-.03.012-.045.018-.028.01-.057.017-.084.029l-9.713 4.273a1.382 1.382 0 0 0-.44.31l-2.537 2.733-24.058-16.822-.002-.002-10.887-10.264-19.533-16.252c-.122-.1-.26-.17-.404-.22-.036-.013-.071-.022-.108-.031a1.326 1.326 0 0 0-.422-.047c-.009 0-.018-.005-.027-.004zm-46.803.639a1.357 1.357 0 0 0-1.248 1.271 1.326 1.326 0 0 0 1.274 1.377l19.553.772h.052a1.322 1.322 0 0 0 .051-2.645l-19.553-.775a1.18 1.18 0 0 0-.129 0zm96.348 0-19.56.775a1.318 1.318 0 0 0-1.268 1.377 1.322 1.322 0 0 0 1.32 1.268h.051l19.56-.772a1.325 1.325 0 0 0 1.272-1.377c-.03-.73-.671-1.287-1.375-1.271zm31.822 2.095a2.236 2.236 0 1 0 0 4.472 2.236 2.236 0 0 0 0-4.472zM46.664 99.383a2.234 2.234 0 0 0-2.234 2.234c0 1.237.997 2.237 2.234 2.237 1.232 0 2.236-1 2.236-2.237a2.24 2.24 0 0 0-2.236-2.234zm44.627 3.13a1.32 1.32 0 0 0-.51.13l-16.734 7.984a1.318 1.318 0 0 0-.625 1.764 1.328 1.328 0 0 0 1.77.627l16.728-7.985a1.327 1.327 0 0 0 .627-1.77 1.327 1.327 0 0 0-1.256-.75zm56.809 0c-.47.025-.91.299-1.123.75a1.329 1.329 0 0 0 .62 1.77l16.733 7.985a1.326 1.326 0 0 0 1.145-2.391l-16.735-7.984a1.33 1.33 0 0 0-.64-.13zm-44.946 60.714c.688 0 1.317.15 1.885.437.568.292.856.703.856 1.234l-.038.079c0 .078-.37.782-1.115 2.105-.745 1.328-1.323 2.375-1.75 3.14l-1.785 3.182c-4.693 8.448-7.037 13.552-7.037 15.297 0 .48.172.719.516.719.958 0 1.89-.479 2.806-1.432.892-.933 1.63-1.865 2.203-2.799.273-.797.623-1.626 1.053-2.488 1.177-2.36 2.703-4.365 4.572-6.021 1.865-1.651 3.766-2.479 5.703-2.479 1.136 0 1.98.339 2.522 1.031.542.688.818 1.63.818 2.817 0 1.166-.25 2.479-.734 3.937a20.953 20.953 0 0 1-2.047 4.293c.474.052.844.078 1.11.078 1.192 0 2.227-.328 3.097-.99.042-.042.083-.08.125-.115.692-1.358 1.41-2.75 2.182-4.217a239.68 239.68 0 0 0 2.162-4.215c.625-1.245.937-2 .937-2.265a3.05 3.05 0 0 1 1.194-.239c.505 0 .925.114 1.27.338.343.224.515.579.515 1.053 0 .135-.42 1.02-1.27 2.66 1.75-2.25 3.578-3.375 5.485-3.375l-.037-.078c1.083 0 1.912.423 2.48 1.272.573.848.854 1.974.854 3.38 0 1.855-.47 3.808-1.407 5.86a13.872 13.872 0 0 1-4.056 5.166c-1.76 1.39-3.798 2.088-6.1 2.088-1.193 0-2.047-.202-2.562-.598-.521-.396-.828-.85-.932-1.35-3.396 7.178-5.09 11.813-5.09 13.907 0 .104-.12.162-.36.162-.103 0-.368-.026-.79-.078a1.95 1.95 0 0 1-1.198-.7 1.98 1.98 0 0 1-.474-1.29c0-.162.014-.293.035-.397.557-2.599 1.651-5.652 3.281-9.162.85-1.83 1.811-3.81 2.873-5.932-1.355.642-2.873.918-4.558.822-1.141 1.537-2.382 2.767-3.715 3.678-1.339.917-2.686 1.37-4.035 1.37-1.22 0-2.126-.36-2.725-1.089-.594-.729-.89-1.718-.89-2.962 0-.195.006-.394.019-.594a34.28 34.28 0 0 1-1.932 2.303c-1.427 1.562-2.765 2.343-4.01 2.343-1.645 0-2.462-.86-2.462-2.584 0-1.562.572-3.646 1.728-6.256 1.151-2.609 2.798-5.942 4.943-9.994.136-.213.306-.53.52-.953 2.86-5.515 4.319-8.823 4.371-9.937.24-.104.567-.162.994-.162zm-14.11 10.496c.746 0 1.355.15 1.829.453.48.307.813.655 1.016 1.056.198.396.297.755.297 1.073 0 .104-.636.156-1.907.156-1.218.11-2.015.48-2.384 1.115-.506.85-.704 1.735-.594 2.662.052.48.177.943.375 1.39.198.454.484.968.853 1.552l.198.156c.635 1.088 1.022 1.777 1.152 2.068.453.953.65 2.017.598 3.178-.058 1.115-.401 2.016-1.032 2.703-.718.797-1.765 1.26-3.14 1.39-.188.032-.48.042-.875.042-.901 0-1.739-.131-2.504-.397-.901-.317-1.59-.781-2.069-1.39-.37-.48-.593-1.058-.671-1.75a6.854 6.854 0 0 1-.084-.875c0-.584.084-1.162.24-1.75a4.559 4.559 0 0 1 .719-1.51c.286-.448.551-.636.79-.553.24.078.36.437.36 1.072 0 .532.105 1.006.318 1.428.214.427.543.719.99.875.24.078.48.12.72.12.421 0 .838-.094 1.25-.276a3.703 3.703 0 0 0 1.093-.756c.427-.422.619-.89.598-1.39-.032-.318-.228-.687-.598-1.114-.182-.182-.48-.464-.875-.834l-.875-.838a4.93 4.93 0 0 1-1.031-1.666 5.38 5.38 0 0 1-.36-1.908c0-.927.228-1.764.676-2.504.474-.823 1.182-1.52 2.125-2.103.943-.584 1.876-.875 2.803-.875zm67 0c.746 0 1.355.15 1.829.453.48.307.818.655 1.016 1.056.198.396.297.755.297 1.073 0 .104-.636.156-1.907.156-1.218.11-2.015.48-2.384 1.115-.5.85-.704 1.735-.594 2.662.052.48.177.943.375 1.39.198.454.483.968.853 1.552l.203.156c.636 1.088 1.015 1.777 1.15 2.068.449.953.647 2.017.595 3.178-.053 1.115-.396 2.016-1.032 2.703-.713.797-1.76 1.26-3.14 1.39-.183.032-.48.042-.875.042-.901 0-1.733-.131-2.504-.397-.901-.317-1.589-.781-2.063-1.39-.375-.48-.6-1.058-.677-1.75a6.65 6.65 0 0 1-.079-.875c0-.301.02-.6.063-.9-1.612 1.437-3.263 2.634-4.953 3.583-2.568 1.448-4.996 2.166-7.272 2.166-1.218 0-2.123-.37-2.722-1.11-.594-.744-.897-1.739-.897-2.983 0-1.88.595-4.02 1.772-6.416 1.177-2.402 2.702-4.433 4.566-6.1 1.87-1.672 3.772-2.506 5.71-2.506 1.374 0 2.394.292 3.056.875.661.583.996 1.365.996 2.344 0 1.245-.475 2.641-1.412 4.193a14.161 14.161 0 0 1-3.522 3.932c-1.4 1.073-2.754 1.615-4.05 1.615-.844 0-1.59-.245-2.225-.719-.052.37-.078.626-.078.756 0 .636.134 1.129.416 1.488.276.36.71.538 1.293.538 2.12 0 4.047-.417 5.781-1.25 1.74-.839 3.146-1.849 4.234-3.041v-.043c.37-.235.729-.354 1.073-.354.37 0 .608.198.712.594a39.23 39.23 0 0 1-.44.469c0 .042.003.083.003.128 0 .532.105 1.006.318 1.428a1.7 1.7 0 0 0 .995.875c.24.078.48.12.714.12a3.08 3.08 0 0 0 1.254-.276 3.686 3.686 0 0 0 1.09-.756c.427-.422.624-.89.598-1.39-.026-.318-.223-.687-.598-1.114a38.38 38.38 0 0 0-.87-.834l-.876-.838a4.86 4.86 0 0 1-1.035-1.666 5.492 5.492 0 0 1-.356-1.908c0-.927.225-1.764.678-2.504.474-.823 1.182-1.52 2.125-2.103.938-.584 1.875-.875 2.797-.875zm-13.108 4.332c-1.037 0-2.084.506-3.141 1.527-1.063 1.02-1.947 2.26-2.666 3.719.531.318 1.045.472 1.55.472.798 0 1.575-.296 2.325-.89a7.496 7.496 0 0 0 1.848-2.11c.479-.807.714-1.472.714-2.003 0-.48-.192-.715-.593-.715zm-32.272.156c-1.031 0-2.072.437-3.12 1.312a11.275 11.275 0 0 0-2.603 3.141c-.687 1.219-1.03 2.292-1.03 3.219 0 .531.145.954.437 1.271.291.318.728.479 1.306.479.401 0 .797-.082 1.198-.238l-.245-.079a.944.944 0 0 1-.572-.459 1.09 1.09 0 0 1-.1-.74c.079-.26.23-.478.46-.65.223-.177.477-.26.77-.26.16 0 .28.015.358.041.37.13.928.302 1.672.516l.037.04a11.002 11.002 0 0 0 2.166-2.962c.573-1.125.856-2.114.856-2.963 0-1.11-.533-1.668-1.59-1.668zm17.287.043c-.953 0-2.089.687-3.396 2.062a23.702 23.702 0 0 0-3.457 4.692c-.995 1.745-1.49 3.032-1.49 3.855 0 .448.171.676.515.676 1.193 0 2.464-.63 3.813-1.89a18.386 18.386 0 0 0 3.459-4.391c.958-1.667 1.431-2.979 1.431-3.932 0-.713-.291-1.072-.875-1.072z" transform="scale(.75)"/><path style="display:inline;fill:#fff;fill-opacity:1;fill-rule:nonzero;stroke:none;stroke-width:.1;stroke-miterlimit:4;stroke-dasharray:none" d="m111.781 99.877-2.295.826-13.757 15.29-10.924 10.929a1.099 1.099 0 0 1-.17.139l-5.28 3.773-5.318 6.84-28.516 30.85c-.263.279-.615.423-.972.423a1.325 1.325 0 0 1-.973-2.225l11.602-12.55a1.24 1.24 0 0 1-.555-.219l-6.355-4.367-10.514-8.813.119 1.055a1.323 1.323 0 0 1-1.117 1.46 1.323 1.323 0 0 1-1.502-1.061c-.008-.046-.87-3.963-3.76-7.23v44.962l.037 1.115.112 1.104.181 1.088.254 1.068.318 1.043.387 1.021.453.99.512.962.576.923.633.885.691.844.745.8.798.75.85.704.9.644.948.592 74.56 43.051.983.525 1.01.453 1.033.385 1.05.315 1.065.244 1.076.176 1.084.103 1.088.035 1.086-.035 1.084-.103 1.078-.176 1.064-.244 1.051-.315 1.031-.385 1.01-.453.985-.525 74.556-43.05.947-.593.9-.644.85-.703.797-.75.746-.801.69-.844.635-.885.572-.923.516-.961.449-.99.386-1.022.323-1.043.254-1.068.18-1.088.113-1.104.035-1.115v-16.047l-13.799-15.053c-3.56-2.736-10.025-6.723-12.988-4.277-4.916 4.041-8.424 10.675-8.455 10.742-.285.538-.9.811-1.49.666a1.318 1.318 0 0 1-1.01-1.283v-1.469l-6.131 5.32a1.327 1.327 0 0 1-1.973-1.735l7.969-11.993c.057-.083.12-.161.187-.229l8.662-8.279.237-1.877-7.326 3.219-16.967 18.27a1.325 1.325 0 0 1-1.873.072 1.33 1.33 0 0 1-.067-1.873l12.045-12.973-13.547-8.723-6.513-4.44a1.321 1.321 0 0 1-2.215.802l-6.065-5.604-5.365-.342 1.893 7.57a1.314 1.314 0 0 1-.615 1.46 1.32 1.32 0 0 1-1.579-.176l-16.941-16.03a1.273 1.273 0 0 1-.258-.337zm-85.15 28.103c.004.028.012.052.017.079-.005-.027-.014-.052-.017-.079zm57.139 13.932h10.69v.621h-2.317l5.49 16.34 5.685-16.34h-2.55v-.62h5.003v.62h-1.537l-7.88 22.586H93.61l-8.336-22.586H83.77zm51.181 2.742c1.537 0 2.649.854 2.649 2.422 0 1.506-.983 2.156-2.059 2.156-.983 0-1.833-.59-1.9-1.697l.916-.558c.098-.523-.099-1.014-.782-1.014-.397 0-1.287.119-1.396 1.8-.007.113-.01.232-.01.358 0 .523.066 1.18.226 1.961 1.279.849 2.485 1.993 2.485 4.15 0 3.26-2.052 5.093-5.235 5.5a10.547 10.547 0 0 1-1.43.088c-.946 0-1.961-.13-2.65-.26-1.143.72-1.437 1.079-1.437 1.374 0 .295.361.459 2.09.459h3.338c3.579 0 7.186.825 7.408 4.918.007.132.012.267.012.406 0 3.627-2.619 6.242-9.221 6.242-5.687 0-8.072-1.373-8.072-3.494 0-1.635 1.376-2.293 2.52-2.613l1.96.88c-.197.72-.264 1.273-.264 1.795 0 .689.172 1.392.782 1.922.076.067.16.13.25.19.632.424 1.624.699 3.154.699.216 0 .427-.007.63-.018.408-.021.79-.064 1.145-.127 2.31-.406 3.52-1.645 3.52-3.318 0-1.568-.72-2.188-4.15-2.188h-3.172c-3.892 0-4.938-1.605-4.938-3.039 0-1.862 1.176-2.782 3.727-4.314-2.551-.72-3.787-2.256-3.787-4.973 0-3.068 2.12-5.453 7.056-5.453 1.599 0 2.55.227 3.627.817a7.463 7.463 0 0 1-.195-1.604c0-2.68 1.863-3.467 3.203-3.467zm-22.71 4.254c5.127 0 7.32 2.582 7.124 7.451h-9.22v1.272c0 .24.002.478.008.709.087 3.464.877 5.765 3.851 5.765 2.417 0 4.052-1.536 4.772-4.056l.59.097c-.756 2.815-2.453 4.973-7.094 4.973-5.816 0-8.436-3.338-8.436-8.072 0-5.656 3.861-8.139 8.404-8.139zm32.546 0c5.128 0 6.861 1.437 6.861 6.172v6.639c0 1.34.394 1.697.948 1.697.59 0 1.148-.62 1.308-3.367l.492.035c-.165 3.922-1.37 5.035-4.185 5.035-.33 0-.643-.014-.938-.039-2.059-.178-3.23-.98-3.57-2.383-.522 1.568-1.474 2.422-3.762 2.422-2.287 0-4.837-.689-4.837-3.959 0-3.301 2.845-4.05 7.517-4.05h.947v-2.516c0-4.155-.357-5.23-1.666-5.23a2.117 2.117 0 0 0-.615.091c-.471.148-.922.498-.922 1.217 0 .259.068.59.198.947h.816c.165.424.266.848.266 1.469 0 1.345-.953 2.289-2.286 2.504a3.586 3.586 0 0 1-.591.047c-2.029 0-2.811-1.113-2.811-2.711a4.146 4.146 0 0 1 .111-.961c.518-2.085 2.83-3.059 6.72-3.059zm-16.502.584c-.916 0-1.572.59-1.572 4.15v1.77c0 3.069.559 3.756 1.537 3.756.885 0 1.438-.522 1.438-3.922v-1.603c0-3.659-.523-4.15-1.403-4.15zm-16.34.035c-1.143 0-1.765 1.113-1.765 4.575v1.6h3.363v-1.6c0-3.431-.258-4.575-1.598-4.575zm33.397 8.104c-1.371 0-2.024.984-2.024 2.976v.522c0 2.354.227 2.682.848 2.682.62 0 1.402-1.047 1.402-3.137v-3.043zm-42.188 5.596c.688 0 1.317.15 1.885.437.568.292.856.703.856 1.234l-.038.079c0 .078-.37.782-1.115 2.105-.745 1.328-1.323 2.375-1.75 3.14l-1.785 3.182c-4.693 8.448-7.037 13.552-7.037 15.297 0 .48.172.719.516.719.958 0 1.89-.479 2.806-1.432.892-.933 1.63-1.865 2.203-2.799.273-.797.623-1.626 1.053-2.488 1.177-2.36 2.703-4.365 4.572-6.021 1.865-1.651 3.766-2.479 5.703-2.479 1.136 0 1.98.339 2.522 1.031.542.688.818 1.63.818 2.817 0 1.167-.25 2.479-.734 3.937a20.953 20.953 0 0 1-2.047 4.293c.474.052.844.078 1.11.078 1.192 0 2.227-.328 3.097-.99.042-.042.083-.079.125-.115.692-1.358 1.41-2.75 2.182-4.217a239.68 239.68 0 0 0 2.162-4.215c.625-1.244.937-2 .937-2.265a3.05 3.05 0 0 1 1.194-.239c.505 0 .925.114 1.27.338.343.224.515.58.515 1.053 0 .135-.42 1.02-1.27 2.66 1.75-2.25 3.578-3.375 5.485-3.375l-.037-.078c1.083 0 1.912.423 2.48 1.272.573.849.854 1.974.854 3.38 0 1.855-.47 3.808-1.407 5.86a13.872 13.872 0 0 1-4.056 5.166c-1.76 1.39-3.798 2.088-6.1 2.088-1.193 0-2.047-.202-2.562-.598-.521-.396-.828-.85-.932-1.35-2.725 5.759-4.334 9.852-4.871 12.338v5.56c0 1.062.312 1.35.752 1.35.465 0 .904-.491 1.033-2.67l.389.028c-.13 3.11-1.086 3.988-3.31 3.988-.263 0-.512-.009-.745-.03-1.635-.14-2.56-.776-2.832-1.89-.414 1.247-1.164 1.92-2.975 1.92-1.81 0-3.836-.542-3.836-3.135 0-2.613 2.258-3.209 5.957-3.209h.75v-1.996c0-3.285-.285-4.14-1.32-4.14-.466 0-1.215.207-1.215 1.035 0 .207.051.465.155.75h.646c.13.336.207.672.207 1.164 0 1.064-.752 1.815-1.807 1.986a2.848 2.848 0 0 1-.468.038c-1.61 0-2.23-.885-2.23-2.153 0-2.173 1.893-3.181 5.411-3.181 1.398 0 2.479.134 3.293.462.03.012.056.025.084.038-.008.023-.011.042-.02.066.595-1.797 1.365-3.742 2.356-5.877.85-1.83 1.811-3.81 2.873-5.932-1.355.642-2.873.918-4.558.823-1.14 1.536-2.382 2.766-3.715 3.677-1.339.917-2.686 1.37-4.035 1.37-1.219 0-2.126-.36-2.725-1.088-.594-.73-.89-1.719-.89-2.963 0-.195.006-.394.019-.594a34.281 34.281 0 0 1-1.932 2.303c-1.427 1.562-2.765 2.343-4.01 2.343-1.645 0-2.462-.86-2.462-2.584 0-1.562.572-3.646 1.728-6.255 1.151-2.61 2.798-5.942 4.944-9.995.135-.213.306-.53.52-.953 2.859-5.515 4.318-8.823 4.37-9.937.24-.104.567-.162.994-.162zm-14.11 10.496c.746 0 1.355.15 1.829.453.48.307.813.655 1.016 1.056.198.396.297.755.297 1.073 0 .104-.636.156-1.907.156-1.218.11-2.015.48-2.384 1.115-.506.85-.704 1.735-.594 2.662.052.48.177.943.375 1.391.198.453.484.967.853 1.55l.198.157c.635 1.089 1.022 1.777 1.152 2.068.453.953.65 2.017.598 3.178-.058 1.115-.401 2.016-1.032 2.703-.718.797-1.765 1.26-3.14 1.39-.188.032-.48.042-.875.042-.901 0-1.739-.131-2.504-.397-.901-.317-1.59-.78-2.069-1.39-.37-.48-.593-1.058-.671-1.75a6.854 6.854 0 0 1-.084-.875c0-.584.084-1.162.24-1.75a4.559 4.559 0 0 1 .719-1.51c.286-.448.551-.636.79-.553.24.078.36.437.36 1.072 0 .532.105 1.006.318 1.428.214.427.543.719.99.875.24.078.48.12.72.12.421 0 .838-.094 1.25-.276a3.703 3.703 0 0 0 1.093-.756c.427-.422.619-.89.598-1.39-.032-.318-.228-.687-.598-1.114-.182-.182-.48-.464-.875-.834l-.875-.838a4.93 4.93 0 0 1-1.031-1.666 5.38 5.38 0 0 1-.36-1.908c0-.927.228-1.764.676-2.504.474-.823 1.182-1.52 2.125-2.103.943-.584 1.876-.875 2.803-.875zm67 0c.746 0 1.355.15 1.829.453.48.307.818.655 1.016 1.056.198.396.297.755.297 1.073 0 .104-.636.156-1.907.156-1.218.11-2.015.48-2.384 1.115-.5.85-.704 1.735-.594 2.662.052.48.177.943.375 1.391.198.453.483.967.853 1.55l.203.157c.636 1.089 1.015 1.777 1.15 2.068.449.953.647 2.017.595 3.178-.053 1.115-.396 2.016-1.032 2.703-.713.797-1.76 1.26-3.14 1.39-.183.032-.48.042-.875.042-.901 0-1.733-.131-2.504-.397-.901-.317-1.589-.78-2.063-1.39-.375-.48-.6-1.058-.677-1.75a6.65 6.65 0 0 1-.079-.875c0-.301.02-.6.063-.9-1.612 1.437-3.263 2.634-4.953 3.583-2.568 1.448-4.996 2.166-7.272 2.166-1.218 0-2.123-.37-2.722-1.11-.594-.744-.897-1.739-.897-2.983 0-1.88.595-4.02 1.772-6.416 1.177-2.401 2.702-4.433 4.566-6.1 1.87-1.672 3.772-2.506 5.71-2.506 1.374 0 2.394.292 3.056.875.661.583.996 1.365.996 2.344 0 1.245-.475 2.641-1.412 4.193a14.161 14.161 0 0 1-3.522 3.932c-1.4 1.073-2.754 1.615-4.05 1.615-.844 0-1.59-.245-2.225-.719-.052.37-.078.626-.078.756 0 .636.134 1.13.416 1.488.276.36.71.538 1.293.538 2.12 0 4.047-.417 5.781-1.25 1.74-.839 3.146-1.849 4.234-3.041v-.043c.37-.235.729-.354 1.073-.354.37 0 .608.198.712.594a39.23 39.23 0 0 1-.44.469c0 .042.003.083.003.128 0 .532.105 1.006.318 1.428a1.7 1.7 0 0 0 .995.875c.24.078.48.12.714.12a3.08 3.08 0 0 0 1.254-.276 3.686 3.686 0 0 0 1.09-.756c.427-.422.624-.89.598-1.39-.026-.318-.223-.687-.598-1.114a38.38 38.38 0 0 0-.87-.834l-.876-.838a4.86 4.86 0 0 1-1.035-1.666 5.492 5.492 0 0 1-.356-1.908c0-.927.225-1.764.678-2.504.474-.823 1.182-1.52 2.125-2.103.938-.584 1.875-.875 2.797-.875zm-13.108 4.332c-1.037 0-2.084.506-3.141 1.527-1.063 1.02-1.947 2.26-2.666 3.719.531.318 1.045.472 1.55.472.798 0 1.575-.296 2.325-.89a7.496 7.496 0 0 0 1.848-2.11c.479-.807.714-1.472.714-2.003 0-.48-.192-.715-.593-.715zm-32.272.156c-1.031 0-2.072.437-3.12 1.312a11.275 11.275 0 0 0-2.603 3.141c-.687 1.219-1.03 2.292-1.03 3.219 0 .531.145.954.437 1.271.291.318.728.479 1.306.479.401 0 .797-.082 1.198-.238l-.245-.079a.944.944 0 0 1-.572-.459 1.09 1.09 0 0 1-.1-.74c.079-.26.23-.478.46-.65.223-.177.477-.26.77-.26.16 0 .28.015.358.041.37.13.928.302 1.672.516l.037.04a11.002 11.002 0 0 0 2.166-2.962c.573-1.125.856-2.114.856-2.963 0-1.11-.533-1.668-1.59-1.668zm17.287.043c-.953 0-2.089.687-3.396 2.062a23.702 23.702 0 0 0-3.457 4.692c-.995 1.745-1.49 3.032-1.49 3.855 0 .448.171.676.515.676 1.193 0 2.464-.63 3.813-1.89a18.386 18.386 0 0 0 3.459-4.391c.958-1.667 1.431-2.979 1.431-3.932 0-.713-.291-1.072-.875-1.072zm-68.44 3.232h14.827a.663.663 0 0 1 0 1.324H59.512a.663.663 0 0 1 0-1.324zm104.659 0h14.826c.362 0 .662.295.662.663 0 .362-.3.662-.662.662H164.17a.663.663 0 0 1-.066-1.323c.022-.002.043-.002.066-.002zm-22.596 13.63c1.216 0 2.096.672 2.096 1.92 0 1.19-.776 1.706-1.635 1.706-.776 0-1.45-.466-1.502-1.345l.725-.446c.077-.409-.073-.797-.621-.797-.316 0-1.017.093-1.104 1.426a4.232 4.232 0 0 0-.008.283c0 .414.05.93.18 1.551 1.009.673 1.973 1.58 1.973 3.287 0 1.847-.831 3.115-2.225 3.807-.07.034-.14.068-.213.1a6.25 6.25 0 0 1-1.713.453 8.364 8.364 0 0 1-1.133.07c-.755 0-1.552-.104-2.095-.207-.911.57-1.145.853-1.145 1.086 0 .233.285.361 1.656.361h2.645c2.923 0 5.879.699 5.879 4.223 0 1.528-.588 2.83-1.92 3.713a5.2 5.2 0 0 1-.242.152c-1.17.687-2.854 1.082-5.14 1.082-4.508 0-6.395-1.087-6.395-2.773 0-1.294 1.086-1.812 1.992-2.07l1.552.699a5.224 5.224 0 0 0-.207 1.421c0 .546.135 1.105.618 1.526.06.052.125.102.197.15.5.337 1.288.555 2.502.555.171 0 .337-.003.498-.012.322-.017.625-.052.906-.101 1.83-.324 2.787-1.309 2.787-2.633 0-1.242-.568-1.735-3.285-1.735h-2.51c-2.12 0-3.175-.599-3.627-1.343a2.07 2.07 0 0 1-.285-1.063c0-1.475.93-2.204 2.953-3.42-2.023-.569-3.006-1.785-3.006-3.937 0-.076.003-.152.006-.227.103-2.322 1.799-4.094 5.588-4.094 1.268 0 2.018.181 2.871.647a5.825 5.825 0 0 1-.154-1.268c0-2.126 1.475-2.748 2.541-2.748zm-44.32 3.368c1.526 0 2.744.802 2.744 2.768 0 1.475-.777 2.463-2.174 2.463a3.48 3.48 0 0 1-.744-.078c-1.214-.28-1.732-1.296-1.273-2.85h.931c.518-1.06-.001-1.32-.545-1.32a1.292 1.292 0 0 0-.459.084c-1.055.388-1.95 2.071-1.95 4.113v6.938h1.841v.466h-8.082v-.466h1.428v-11.393h-1.428v-.467h6.24v2.485c.471-1.837 1.919-2.743 3.47-2.742zm27.094 0c2.406 0 4.01 1.19 4.01 4.32v7.798h1.454v.466h-7.326v-.466h1.06v-8.412c0-2.205-.31-2.465-.962-2.465-1.081 0-2.096 1.631-2.096 3.732v7.145h1.117v.466h-7.357v-.466h1.422v-11.393h-1.422v-.021l.18-.446h6.06v2.381c.44-1.293 1.298-2.639 3.86-2.639zm25.334 0c4.062 0 5.8 2.043 5.64 5.903h-7.3v1.01c0 .19 0 .377.005.56.07 2.744.696 4.568 3.053 4.568 1.915 0 3.208-1.222 3.778-3.214l.464.078c-.595 2.225-1.94 3.937-5.619 3.937-3.022 0-4.954-1.135-5.926-2.978a5.647 5.647 0 0 1-.132-.27c-.42-.909-.621-1.972-.621-3.146 0-4.481 3.056-6.448 6.658-6.448zm-13.391.465c-.724 0-1.248.465-1.248 3.285v1.403c0 2.432.441 2.976 1.223 2.976.698 0 1.136-.415 1.136-3.111v-1.268c0-2.897-.412-3.285-1.111-3.285zm13.152.026c-.905 0-1.396.88-1.396 3.623v1.273h2.67v-1.273c0-2.717-.208-3.623-1.274-3.623zm-40.646 3.187c-.014.062-.044.136-.057.197-.02.105-.037.235-.037.397 0 .06.024.113.03.172-.007-.065-.016-.129-.016-.195 0-.162.014-.293.035-.397.012-.055.032-.118.045-.174zm2.933 1.04c-.096.47-.159.888-.173 1.236.06-.323.115-.94.173-1.237zm-2.945.02zm.25.579c.051.081.079.168.143.246.07.083.157.13.234.2a2.209 2.209 0 0 1-.22-.223 2.233 2.233 0 0 1-.157-.223zm.451.512zm.616.336c.092.03.173.08.273.097.422.052.687.078.791.078.15 0 .237-.03.293-.072a.622.622 0 0 1-.28.049c-.103 0-.368-.026-.79-.078a2.053 2.053 0 0 1-.287-.074zm-3.342.748c-1.087 0-1.604.777-1.604 2.355v.412c0 1.868.18 2.127.672 2.127.492 0 1.113-.832 1.113-2.488v-2.406zM122.62 35.836a3.544 3.544 0 0 0-3.544 3.539c0 1.532.98 2.84 2.348 3.332v3.879l-3.166-3.17a.997.997 0 0 0-1.408 0 .997.997 0 0 0 0 1.408l4.574 4.569v3.351l-2.649-2.648v-.026a.991.991 0 0 0-1.768-.621l-.001.002a.99.99 0 0 0-.217 1.463v3.643l-2.371-2.371v-6.467a.993.993 0 1 0-1.986 0v4.48l-2.58-2.58a3.54 3.54 0 1 0-5.508.625 3.5 3.5 0 0 0 2.504 1.04c.532 0 1.05-.12 1.517-.34l2.742 2.742h-4.482a.993.993 0 0 0 0 1.986h6.469l2.369 2.369h-3.75l-.016-.016a.997.997 0 0 0-1.693.81.992.992 0 0 0 .88 1.188l2.577 2.577h-3.348l-4.58-4.575a.99.99 0 0 0-1.402 0 .99.99 0 0 0 0 1.403l3.172 3.172h-3.65a3.547 3.547 0 0 0-3.454-2.746 3.544 3.544 0 0 0-3.539 3.542 3.546 3.546 0 0 0 3.54 3.541 3.547 3.547 0 0 0 3.335-2.35h3.881l-3.17 3.173a.99.99 0 0 0 .703 1.691.984.984 0 0 0 .703-.289l4.577-4.574h3.345l-2.654 2.654h-.02a.995.995 0 0 0-.994.994c0 .314.146.592.373.774a.989.989 0 0 0 .828.441.994.994 0 0 0 .63-.222h3.644l-2.365 2.365h-6.473a.993.993 0 1 0 0 1.986h4.486l-2.588 2.588c-1.353-.815-3.229-.651-4.376.492a3.526 3.526 0 0 0-1.036 2.504c0 .947.368 1.836 1.036 2.504a3.523 3.523 0 0 0 2.503 1.041 3.545 3.545 0 0 0 3.201-5.059l2.745-2.744v4.48a.993.993 0 0 0 1.988 0v-6.468l2.363-2.363v3.75l-.015.015a.99.99 0 0 0 .806 1.686.992.992 0 0 0 1.191-.873l2.577-2.576v3.35l-4.574 4.571a.99.99 0 0 0 0 1.403.99.99 0 0 0 1.408 0l3.166-3.162v3.646a3.546 3.546 0 0 0-2.742 3.447c0 1.951 1.588 3.54 3.539 3.54a3.546 3.546 0 0 0 3.545-3.54 3.545 3.545 0 0 0-2.354-3.334v-3.882l3.172 3.17a.995.995 0 0 0 1.406 0 .99.99 0 0 0 0-1.403l-4.578-4.578v-3.351l2.655 2.658v.02c0 .548.445.993.994.993.31 0 .585-.142.767-.365a.996.996 0 0 0 .225-1.469v-3.64l2.37 2.37v6.468a.993.993 0 1 0 1.987 0v-4.48l2.578 2.577a3.547 3.547 0 0 0 3.004 5.422c.947 0 1.839-.373 2.506-1.04a3.517 3.517 0 0 0 1.035-2.505c0-.947-.367-1.83-1.035-2.504-1.047-1.043-2.7-1.272-4.01-.685l-2.752-2.75h4.479a.995.995 0 0 0 0-1.988h-6.467l-2.369-2.37h3.75l.016.016c.196.197.45.29.703.29a.989.989 0 0 0 .988-1.095.994.994 0 0 0-.879-1.193l-2.576-2.576h3.352l4.574 4.574c.191.197.445.29.699.29a.99.99 0 0 0 .703-1.691l-3.17-3.173h3.65a3.546 3.546 0 0 0 3.448 2.742 3.546 3.546 0 0 0 3.545-3.539c0-1.95-1.59-3.54-3.545-3.54-1.533 0-2.842.981-3.332 2.349h-3.88l3.17-3.172a.99.99 0 0 0 0-1.403.997.997 0 0 0-1.407 0l-4.573 4.575h-3.35l2.651-2.655h.026a.993.993 0 0 0 .609-1.777.994.994 0 0 0-1.447-.209h-3.647l2.365-2.365h6.477a.993.993 0 0 0 0-1.986h-4.49l2.584-2.585c.557.352 1.205.54 1.88.54a3.5 3.5 0 0 0 2.504-1.04 3.517 3.517 0 0 0 1.036-2.504c0-.941-.368-1.832-1.036-2.5-1.34-1.34-3.674-1.34-5.01 0a3.541 3.541 0 0 0-.695 4.018l-2.746 2.746v-4.486a.993.993 0 1 0-1.986 0v6.472l-2.37 2.37v-3.752l.02-.02a.993.993 0 0 0-.813-1.688.992.992 0 0 0-1.19.88l-2.575 2.574v-3.35l4.578-4.574a.995.995 0 0 0-1.406-1.406l-3.172 3.172v-3.65a3.547 3.547 0 0 0 2.748-3.45c0-1.95-1.59-3.54-3.54-3.54zm0 1.986c.853 0 1.552.694 1.552 1.553 0 .854-.7 1.553-1.553 1.553a1.558 1.558 0 0 1-1.556-1.553c0-.859.697-1.553 1.556-1.553zm-15.772 6.365a1.553 1.553 0 0 1 1.097 2.655c-.6.605-1.588.605-2.193 0a1.559 1.559 0 0 1 0-2.2c.3-.3.697-.455 1.096-.455zm31.425.28c.399 0 .796.155 1.096.455a1.559 1.559 0 0 1 0 2.2c-.585.584-1.61.584-2.2 0a1.559 1.559 0 0 1 0-2.2c.306-.3.706-.455 1.104-.455zm-12.29 8.406v3.28l-2.317 2.316v-3.282Zm-7.208.031 2.319 2.317v3.283l-2.319-2.322zm9.055 5.041h3.281l-2.316 2.319h-3.281zm-14.129.084h3.28l2.318 2.319h-3.281zM100.2 59.84c.86 0 1.557.699 1.557 1.557 0 .854-.698 1.553-1.557 1.553a1.558 1.558 0 0 1-1.553-1.553c0-.858.7-1.556 1.553-1.556zm44.438.4c.859 0 1.558.693 1.558 1.552a1.556 1.556 0 0 1-3.111 0c0-.859.699-1.553 1.553-1.553zm-19.092 2.603h3.285l2.313 2.316h-3.284zm-9.49.076h3.279l-2.322 2.324h-3.282zm7.693 1.766 2.318 2.318v3.277l-2.318-2.316zm-2.576.039V68l-2.318 2.316v-3.279zM106.568 75.61c.399 0 .798.15 1.098.455a1.559 1.559 0 0 1 0 2.2c-.6.6-1.588.605-2.193 0a1.559 1.559 0 0 1 0-2.2c.3-.305.697-.455 1.095-.455zm31.424.28c.399 0 .798.15 1.098.455a1.558 1.558 0 0 1 0 2.199c-.606.605-1.594.6-2.2 0-.6-.61-.6-1.594 0-2.2a1.55 1.55 0 0 1 1.102-.454zm-15.771 6.369c.859 0 1.558.694 1.558 1.552 0 .86-.7 1.553-1.558 1.553a1.553 1.553 0 0 1 0-3.105z" transform="scale(.75)"/></g></svg>