<svg width="256" height="256" version="1.1" viewBox="0 0 67.73 67.73" xmlns="http://www.w3.org/2000/svg"><defs><clipPath id="a"><rect width="16" height="26"/></clipPath><clipPath><path d="m.1445.3438h15.69v25.15h-15.69z"/></clipPath></defs><g transform="matrix(2.765 0 0 2.765 -73.37 -12.46)" stroke-width=".3617"><g><path d="m51.03 16.76c0 6.765-5.485 12.25-12.25 12.25-6.765 0-12.25-5.483-12.25-12.25 0-6.765 5.483-12.25 12.25-12.25 6.763 0 12.25 5.483 12.25 12.25" fill="#663378"/><path d="m32.24 14.97.1681.2108c.02894.03721.06614.06339.1102.07855l.2549.08682c.1805.06201.2205.2977.07166.4162l-.2108.1681c-.03583.02894-.06339.06752-.07717.1102l-.08819.2549c-.06063.1805-.2977.2205-.4162.07166l-.1681-.2108c-.02756-.03583-.06615-.06201-.1102-.07717l-.2549-.08682c-.1791-.06201-.2205-.299-.07166-.4175l.2108-.1667c.03583-.02894.06339-.06752.07855-.1116l.08682-.2536c.06201-.1805.2977-.2219.4162-.07304" fill="#9445a6"/><path d="m32.15 11.04-.0248.3955c-.0041.06752.0124.135.04548.1943l.1929.3459c.1364.2453-.05237.5443-.3321.5278l-.3955-.02481c-.06752-.0041-.135.01102-.1943.0441l-.3459.1943c-.2453.1364-.5443-.05237-.5278-.3321l.0248-.3955c.0041-.06752-.0124-.135-.0441-.1943l-.1943-.3473c-.1364-.2439.05237-.5443.3321-.5264l.3955.02343c.06752.0041.135-.01102.1943-.0441l.3473-.1929c.2439-.1364.5429.05236.5264.3321" fill="#9445a6"/><path d="m45.18 11.19-.248.135c-.04272.02343-.07717.05788-.1006.1006l-.1364.248c-.09509.1764-.3473.1764-.4437 0l-.135-.248c-.02343-.04272-.05926-.07717-.1006-.1006l-.248-.135c-.1764-.09646-.1764-.3486 0-.4451l.248-.135c.04134-.02343.07717-.05788.1006-.1006l.135-.248c.09646-.1764.3486-.1764.4437 0l.1364.248c.02343.04272.05788.07717.1006.1006l.248.135c.1764.09646.1764.3486 0 .4451" fill="#4c2659"/><path d="m31.1 17.97c0 .1929-.1571.35-.35.35-.1929 0-.3486-.1571-.3486-.35 0-.1929.1557-.3486.3486-.3486.1929 0 .35.1557.35.3486" fill="#9445a6"/><path d="m38.86 19.35s1.656-2.107 4.435-1.563c.9619.1874 1.819 1.164 2.529 2.362 1.33 2.245-.2632 5.085-2.872 5.157-1.091.03032-2.173.1144-3.025.2935-2.795.5857-5.22-.7428-5.436-1.548-.2164-.8062 4.37-4.702 4.37-4.702" fill="#fff"/><path d="m41.1 9.447c-.3583-1.604-1.046-1.107-1.046-1.107s.1337-1.714-.8613-1.492c-.9949.2205-3.513 1.133-3.54 2.184-.02756 1.05.5085 3.211.1723 3.809 0 0-2.971 5.117-3.384 7.847-.1957 1.29.4851 2.316 1.26 3.041-.08406.1612-.1516.3018-.1805.4286-.1268.565.7193 1.739 3.095.8006.1061-.04134.2067-.09371.3004-.153 3.559-.926 2.727-5.377 2.599-6.207-.1419-.9219-.412-5.241-.4313-6.386h-.1116s2.489-1.162 2.129-2.766" fill="#fff"/><path d="m40.11 9.966c-.1902 0-.3459-.1502-.3528-.3418l-.04548-1.41c-.0069-.1943.1461-.3569.3418-.3638.1984-.01516.3569.1475.3638.3418l.04547 1.41c.0069.1943-.1461.3569-.3418.3638h-.01102" fill="#683378"/></g><g transform="matrix(.09334 0 0 .09334 32.36 16.32)" clip-path="url(#a)" stroke-width=".3617"></g><path d="m39.36 22.94c-.03307 0-.06752-.0055-.1006-.01516-.1874-.05512-.2935-.2522-.237-.4382.4837-1.625.1474-3.808.1433-3.83-.03032-.1915.102-.3734.2935-.4038.1943-.03032.3734.1006.4038.2935.01516.09509.3666 2.361-.1654 4.141-.04547.153-.186.2522-.3376.2522" fill="#683378"/><g fill="#9445a6"><path d="m41.43 16.42c-.1433 0-.277-.08682-.3307-.2288l-.9123-2.417c-.06752-.1819.02343-.3859.2067-.4548.1819-.0689.3858.02343.4548.2067l.9109 2.417c.0689.1819-.02343.3859-.2053.4548-.04134.01516-.08268.02205-.124.02205"/><path d="m43.45 16.42c-.1957 0-.3528-.1571-.3528-.3528v-2.417c0-.1957.1571-.3528.3528-.3528.1943 0 .3528.1571.3528.3528v2.417c0 .1957-.1585.3528-.3528.3528"/><path d="m45.42 16.79c-.07028 0-.1406-.02205-.2012-.06339-.1599-.1116-.1998-.3321-.08819-.492l1.655-2.37c.1116-.1599.3321-.1984.492-.08819.1599.1116.1984.3307.08682.492l-1.655 2.37c-.0689.09784-.1778.1516-.2894.1516"/></g></g></svg>
