<svg width="24" height="26" fill="none" xmlns="http://www.w3.org/2000/svg"><path d="M21.614 19.885c-4.411 3.796-10.6 4.697-18.663 4.65 0 0-1.504.462-1.849-1.434 0 0-.31-8.4 1.532-14.295 0 0-.078-2.405.012-3.98.015-.27.133-.521.333-.705 2.315-2.14 3.357-2.453 3.357-2.453l3.365-.595c.533.364 1.7 1.68 1.508 4.02l.043-.162 1.293.363c.452.137.748.613.74 1.067-.003.47-1.128.823-1.128.823l-2.46.556c-.736 1.156-2.25 1.277-2.927 1.246-.035-.098-.238-.008-.078 0 .24.603.519 2.057.773 4.748l.07.748c.02.212.128 1.902.156 3.007.728-1.775 2.668-5.052 6.327-5.569 5.414-.771 8.11 3.416 8.11 3.416s.093.11.21.31c.831 1.387.502 3.18-.724 4.239Z" fill="#ff9100"/><path d="M6.895 8.884a3.882 3.882 0 0 1-.378-.036l.257-.197a.833.833 0 0 1 .121.233Z" fill="#FCEA2B"/><path d="M6.895 8.884a3.882 3.882 0 0 1-.378-.036l.257-.197a.833.833 0 0 1 .121.233Z" fill="#FCEA2B"/><path d="M5.05 8.651s2.15-2.005.65-2.565l5.132-.169.27-.46.088-.74c.43.07 1.353.38 1.464.406 0 0 .967.753.18 1.646l-3.127.899s-1.9 1.53-4.656.983Z" fill="#ff9100"/><path d="M5.05 8.651c.32 3.707 1.03 10.311.833 11.157-.018.281.263.326.407.12.334-.269 1.113-1.045 1.536-2.09 0-2.317-.268-5.01-.893-8.952-.229-.638-1.182-.63-1.882-.235ZM15.618 11.816s4.117 2.804 1.249 6.603c0 0 .857 3.424.062 3.96-.795.537 8.292-2.229 4.88-7.464 0 0-2.074-3.045-6.191-3.1Z" fill="#ff9100"/><path d="M7.281 14.41c-.172-1.72-.455-5.115-.786-5.53 0 0 2.092.446 3.142-1.197M10.11 19.451s4.344 1.087 7.756-1.74" stroke="#ff9100" stroke-miterlimit="10" stroke-linecap="round" stroke-linejoin="round"/><path d="M7.382 18.464s1.154-5.82 6.582-6.592c5.43-.772 8.13 3.423 8.13 3.423s.092.111.211.31c.833 1.39.503 3.19-.725 4.248-4.42 3.806-10.627 4.71-18.707 4.664 0 0-1.508.46-1.854-1.438 0 0-.309-8.42 1.536-14.326 0 0-.08-2.413.012-3.993.016-.27.134-.521.333-.704 2.324-2.144 3.367-2.46 3.367-2.46L9.64 1c.578.396 1.9 1.906 1.436 4.623" stroke="#ff9100" stroke-miterlimit="10" stroke-linecap="round" stroke-linejoin="round"/><path d="M6.525 5.862s.73 1.042 1.461-.114v-1.21l-.185-.668-.145-.111M8.116 5.862s.73 1.042 1.46-.114v-1.21l-.35-.856M11.042 5.748c-.789.76-1.335 0-1.335 0M4.399 4.717c.203.176.46.49.514.978a.512.512 0 0 0 .135.311c.24.239.788.61 1.336-.258v-1.21l-.255-.51M12.464 5.458c.774.229.91 1.378-.283 1.648l-2.544.578" stroke="#ff9100" stroke-miterlimit="10" stroke-linecap="round" stroke-linejoin="round"/></svg>