<svg width="731" height="164" fill="none" xmlns="http://www.w3.org/2000/svg"><path d="m193.628 60.741 34.025 21.287-34.025 21.316c2.467-6.628 3.917-13.817 3.917-21.316 0-7.512-1.45-14.645-3.917-21.287Zm-112.54 0c-2.453 6.642-3.917 13.803-3.917 21.287 0 7.498 1.408 14.66 3.917 21.288l-34.01-21.288 34.01-21.287Zm56.283-26.665c26.344 0 47.529 21.4 47.529 47.953 0 26.567-21.228 47.924-47.529 47.924-26.372 0-47.587-21.4-47.587-47.924 0-26.525 21.256-47.953 47.587-47.953Zm0-23.31-5.896 3.665-23.305 14.59a55.957 55.957 0 0 0-4.837 3.047l-79.77 49.958 79.77 49.934a71.459 71.459 0 0 0 4.948 3.089l29.118 18.184 28.63-17.931c.069-.056.153-.126.223-.155a55.515 55.515 0 0 0 5.185-3.271l79.758-49.848-79.783-49.933c-1.589-1.095-3.22-2.163-4.934-3.103l-29.107-18.226ZM262.888 93.345c-3.665.042-7.666 1.039-11.694 3.412l-102.06 63.848 1.017.618c2.872 1.685 6.649 2.865 10.831 2.781 3.665-.028 7.68-1.011 11.708-3.399l20.058-12.553 81.96-51.335-1.046-.646c-2.885-1.615-6.592-2.752-10.774-2.724M113.736.009c-3.666.028-7.666 1.025-11.708 3.398L81.97 15.988-.019 67.31c5.311 3.567 14.287 5.406 23.543 0l102.06-63.877-1.017-.618c-2.872-1.713-6.607-2.878-10.831-2.808M486.442 30.675h-17.339v103.178h17.339v-60.38h15.389V55.767h-15.389V30.675ZM694.903 55.77V30.677h-17.34v103.178h17.34v-60.38h15.388V55.77h-15.388ZM434.096 55.77h17.075v78.087h-17.075V55.77ZM434.203 30.675h16.824v18.058h-16.824V30.675ZM399.091 116.667h-29.467V55.77h-17.06v60.897h-25.606c-3.512 0-6.384-2.893-6.384-6.431V55.769h-17.06v61.951c0 8.916 7.178 16.134 16.015 16.134h96.637V55.767h-17.075v60.9ZM564.945 55.77h-51.837v78.029h17.061V72.97h27.348c3.526 0 6.384 2.865 6.384 6.431V133.8h17.061V71.917c0-8.93-7.179-16.148-16.016-16.148M620.289 72.168c7.82-4.184 15.389-2.752 21.773 2.57l-32.77 17.538c-.683-8.369 2.899-15.769 10.997-20.108Zm22.734 42.407c-9.98 5.35-21.521 2.457-28.741-7.934l53.371-28.589a40.657 40.657 0 0 0-3.276-6.22c-.293-.45-.585-.885-.864-1.306-7.192-10.293-19.054-17.033-32.477-17.033a39.115 39.115 0 0 0-14.929 2.95c-.348.154-.697.266-1.031.448a35.092 35.092 0 0 0-4.084 2.107 40.926 40.926 0 0 0-3.457 2.288c-9.813 7.274-16.224 18.97-16.224 32.198 0 22.101 17.785 40.005 39.725 40.005 19.905 0 36.34-14.772 39.209-34.037-4.279-.014-15.681-.042-15.751-.042-1.436 6.515-5.548 12.005-11.471 15.165" fill="#000"/><path d="M713.672 116.343h17.34v17.468h-17.34v-17.468Z" fill="#F8971E"/></svg>