<svg width="101" height="101" viewBox="0 0 101 101" fill="none" xmlns="http://www.w3.org/2000/svg">
<path d="M37.5002 34.3926L37.0832 34.3952L36.7664 34.4055L36.4941 34.4226L37.1829 38.4667L36.8015 38.2197L36.4259 38.0001L36.0564 37.8063L35.6936 37.6373L35.3375 37.4911L34.9887 37.3676L34.6482 37.2648L34.3154 37.1816L33.9919 37.117L33.6772 37.0694L33.3718 37.0374L33.0767 37.0198L32.792 37.0157L32.5176 37.0234L32.2545 37.042L32.0034 37.0699L31.7641 37.1061L31.5367 37.149L31.3228 37.1971L31.1218 37.2503L30.9347 37.3061L30.7616 37.364L30.4593 37.4802L30.2185 37.5877L30.0423 37.6776L29.8971 37.7614L30.7973 41.5565L30.5229 41.388L30.2448 41.2382L29.9632 41.1059L29.6795 40.9911L29.3937 40.8924L29.1079 40.8087L28.8217 40.739L28.5369 40.6837L28.2537 40.6403L27.9731 40.6087L27.6962 40.5881L27.4233 40.5772L27.1556 40.5757L26.8941 40.5824L26.6394 40.5963L26.3924 40.617L26.1536 40.6428L25.9247 40.6733L25.4973 40.7452L25.1175 40.8253L24.7919 40.9069L24.5268 40.9818L24.3294 41.0449L24.163 41.1033L24.826 44.4008L22.4489 44.3289L20.0801 61.6622L22.6324 62.0136L21.5048 66.6273L23.3698 68.3946L26.2001 61.5408L24.1894 60.7827C24.0006 60.7124 23.8476 60.5663 23.7677 60.3817C23.6878 60.1943 23.6866 59.9852 23.7651 59.7977L26.0348 54.3764L25.0798 50.3182C24.9902 49.9351 25.2121 49.5479 25.5883 49.4335L29.1007 48.3628V45.2937C29.1007 44.9961 29.2771 44.7275 29.5513 44.609C29.8256 44.4919 30.1427 44.5484 30.359 44.7537L32.0773 46.3825L32.5295 45.5361C32.67 45.2729 32.9549 45.1185 33.2498 45.1433C33.5475 45.1695 33.801 45.3693 33.8947 45.6518L34.0136 46.0074L35.2001 43.8979C35.3034 43.7133 35.4795 43.582 35.6848 43.5352C35.8901 43.4897 36.1068 43.5314 36.2791 43.654L40.5786 46.6828L42.3614 44.7356C42.5295 44.5523 42.7762 44.4643 43.0229 44.5015L49.6126 45.5004L57.6235 40.9183C57.8978 40.7626 58.238 40.7944 58.4777 40.9984C58.7175 41.2023 58.8028 41.5344 58.6912 41.8293L56.9249 46.5024L64.1828 45.7511C64.5067 45.7152 64.8155 45.8971 64.945 46.1975L68.6161 54.7154C68.7415 55.0034 68.6711 55.3396 68.441 55.5546L65.8695 57.9607L69.028 65.5204C69.1093 65.7161 69.1038 65.9383 69.0115 66.1312C68.9205 66.3228 68.7498 66.4661 68.5459 66.524L62.3623 68.2975L63.0005 72.8269C63.0528 73.2073 62.8103 73.5654 62.4382 73.6563L53.229 75.8986L51.0198 80.1071C50.8723 80.3882 50.5623 80.5455 50.2467 80.4973L44.3613 79.596L36.1494 83.5658C36.046 83.6154 35.936 83.6402 35.8243 83.6402C35.7044 83.6402 35.5832 83.6113 35.4729 83.5534C35.2635 83.4404 35.1186 83.2354 35.0869 82.9984L34.4973 78.7868L28.3772 77.9837C28.0107 77.9369 27.7365 77.628 27.7282 77.2587L27.6331 72.306L24.6307 70.3831L25.4105 75.3105L27.676 75.9797L27.0502 83.325L30.7073 82.2749L29.0702 87.0814L35.7391 84.6975L35.8548 87.3981L43.6063 84.5141L49.0339 86.3496L52.9504 81.2672L57.269 81.536L58.7604 78.8462L61.8734 79.8384L63.2635 76.7998L67.3857 77.6917L69.7075 72.9716L75.979 71.8322L75.5656 68.7466L77.5691 68.1719L77.6652 65.2217L77.9701 65.1742L78.2646 65.122L78.5499 65.0651L78.8248 65.0041L79.0904 64.9385L79.3473 64.8682L79.5943 64.7943L79.8325 64.7163L80.062 64.6352L80.2826 64.5504L80.495 64.4621L80.6991 64.3706L80.8945 64.2765L81.0826 64.1794L81.2624 64.0802L81.4345 63.9779L81.5993 63.874L81.7564 63.768L81.9068 63.66L82.0499 63.5505L82.1864 63.4394L82.3161 63.3267L82.5564 63.0988L82.7719 62.8684L82.9636 62.6358L83.1336 62.4033L83.2835 62.1718L83.4132 61.9434L83.5253 61.7196L83.6209 61.501L83.701 61.2896L83.7666 61.0871L83.8199 60.8943L83.8617 60.7129L83.8932 60.545L83.9165 60.391L83.932 60.2525L83.9465 60.0298L83.9475 59.8877L83.9454 59.8375L83.5542 59.8505L83.1749 59.8567L82.808 59.8556L82.453 59.8479L82.1094 59.8334L81.7771 59.8122L81.4562 59.7859L81.1461 59.7533L80.8469 59.7151L80.5586 59.6711L80.2805 59.6226L80.0129 59.5688L79.755 59.5104L79.5069 59.4474L79.2687 59.3802L79.0403 59.3089L78.8207 59.2334L78.6104 59.1549L78.4093 59.0727L78.2166 58.9875L78.0321 58.8991L77.8564 58.8081L77.689 58.7146L77.5288 58.6185L77.3768 58.5208L77.2321 58.4216L77.0952 58.3203L76.965 58.2175L76.7262 58.0092L76.5133 57.7979L76.3257 57.5855L76.1609 57.3736L76.0178 57.1643L75.8953 56.9597L75.7909 56.7607L75.7046 56.57L75.6333 56.3892L75.5759 56.2192L75.531 56.0631L75.4974 55.9215L75.4565 55.6915L75.441 55.5427L75.4385 55.49L78.0337 48.4284L77.9691 48.2713L77.8936 48.1184L77.8083 47.9706L77.7133 47.8264L77.6089 47.6869L77.4947 47.5515L77.3722 47.4207L77.2415 47.2941L77.103 47.1716L76.9562 47.0533L76.8027 46.9386L76.642 46.828L76.4746 46.721L76.3015 46.6182L76.1227 46.519L75.9387 46.4234L75.5552 46.2425L75.1548 46.0756L74.7403 45.9216L74.315 45.781L73.8809 45.6524L73.4417 45.5351L73.0009 45.4291L72.5601 45.3335L72.1234 45.2477L71.693 45.1712L71.2723 45.1041L70.8646 45.0452L70.0982 44.9501L69.4182 44.8824L68.8476 44.8369L68.411 44.81L68.0332 44.7935L69.5504 42.1906L69.3608 41.9616L69.1655 41.742L68.9644 41.5327L68.7572 41.3317L68.5453 41.1405L68.3288 40.9576L68.1076 40.7834L67.8823 40.618L67.6524 40.4609L67.4193 40.3116L67.1826 40.17L66.9429 40.0367L66.7 39.9106L66.455 39.7917L66.2075 39.6796L65.9584 39.5752L65.7068 39.477L65.4546 39.3856L65.2008 39.3003L64.9466 39.2217L64.6913 39.1484L64.436 39.0812L63.926 38.9634L63.418 38.8662L62.9157 38.7882L62.4196 38.7282L61.9328 38.6838L61.4579 38.6543L60.997 38.6378L60.552 38.6331L60.1262 38.6378L59.7211 38.6517L59.3392 38.6724L58.9821 38.6977L58.6534 38.7277L58.0881 38.7923L57.6618 38.8538L57.392 38.8993L57.298 38.9179L58.7645 36.1398L58.4953 36.0137L58.2219 35.8979L57.9455 35.792L57.6659 35.6959L57.3837 35.6085L57.0985 35.531L56.8107 35.4618L56.5208 35.4013L56.2298 35.3491L55.9363 35.3052L55.6417 35.2685L55.3456 35.2401L55.049 35.2184L54.7519 35.2034L54.4542 35.1956L54.1566 35.1941L53.8584 35.1992L53.5612 35.2101L53.2646 35.2261L52.9685 35.2483L52.381 35.3073L51.7996 35.3848L51.227 35.4788L50.6648 35.5873L50.1155 35.7088L49.5806 35.84L49.0628 35.979L48.5631 36.1248L48.0846 36.2741L47.6288 36.4255L47.1983 36.5769L46.7937 36.7258L46.419 36.871L46.0744 37.0095L45.4868 37.2586L45.047 37.4575L44.7711 37.5882L44.6755 37.6363L44.5814 37.4616L44.4817 37.2942L44.3763 37.1325L44.2646 36.9769L44.1484 36.8271L44.0264 36.6834L43.8998 36.5449L43.7686 36.4121L43.6332 36.285L43.4931 36.1635L43.3495 36.0467L43.2027 35.9356L43.0518 35.8287L42.8978 35.7274L42.7407 35.6307L42.5815 35.5388L42.255 35.3682L41.9211 35.2153L41.5811 35.0783L41.2374 34.9574L40.8907 34.8509L40.545 34.7584L40.2003 34.6789L39.8598 34.6112L39.5244 34.5548L39.1973 34.5083L38.8794 34.4711L38.5725 34.4422L38.28 34.421L38.002 34.406L37.5002 34.3926Z" fill="#E6E6E6"/>
<path d="M56.9137 62.3579C55.8948 62.3423 54.9059 62.6742 54.1041 63.2793C53.7989 63.6593 53.4617 64.0098 53.101 64.3237C53.1008 64.324 53.1008 64.3245 53.1005 64.3248C52.9012 64.6147 52.7325 64.9326 52.6008 65.2756C52.4405 65.6937 52.347 66.1206 52.3135 66.5453C53.4986 66.3764 54.7284 65.9517 55.9825 65.2715C56.9099 64.7685 57.5023 64.3027 57.9033 63.7584C58.1385 63.4416 58.3168 63.0756 58.4785 62.6629C58.4761 62.6618 58.4737 62.6607 58.4713 62.6598C57.9588 62.4632 57.4324 62.3659 56.9137 62.358V62.3579ZM59.6174 63.3031C59.4397 63.7298 59.2252 64.1473 58.9436 64.5284C58.8944 64.5949 58.8415 64.6565 58.7896 64.7196C59.2025 64.6776 59.7343 64.7554 60.2789 64.964C60.6043 65.089 60.8959 65.2453 61.1372 65.4167C60.8507 64.5904 60.3278 63.8506 59.6174 63.3031V63.3031ZM58.0299 65.473C57.5493 65.8664 57.04 66.1693 56.5995 66.4083C56.0295 66.7176 55.4627 66.9741 54.8994 67.1892C55.1072 67.1892 55.3109 67.2879 55.4353 67.4718L56.0306 68.3514C56.0747 68.4161 56.1052 68.4878 56.1231 68.5622C56.2223 68.6959 56.3088 68.7991 56.3722 68.8542C56.6381 68.9176 56.8452 69.1475 56.8672 69.4356C56.8948 69.7911 56.6274 70.1029 56.2719 70.1291C56.0845 70.1456 55.7551 70.1702 55.1888 69.4743C54.6021 69.6406 54.0296 69.7941 53.4648 69.9404C53.9302 70.4588 54.5212 70.8779 55.2162 71.1445C57.5588 72.0444 60.1867 70.8742 61.0866 68.5302C61.2859 68.0104 61.383 67.4769 61.3884 66.951C60.9565 67.0889 60.2818 67.0332 59.5875 66.7665C58.7576 66.4487 58.1515 65.9246 58.0299 65.473V65.473ZM54.4803 67.3452C53.7785 67.5848 53.0837 67.7499 52.3988 67.8403C52.4681 68.1668 52.5719 68.4846 52.7098 68.787C53.3254 68.6348 53.9152 68.4836 54.4405 68.339C54.4047 68.277 54.3688 68.2122 54.333 68.1447C54.1848 67.873 54.2527 67.5414 54.4803 67.3452V67.3452ZM56.1727 68.8392H56.1737H56.1727Z" fill="#E6E6E6"/>
<path d="M20.3043 26.2923L21.7319 27.5904L23.6102 27.1508C24.5115 26.9399 25.2625 27.8522 24.8821 28.6956L24.0884 30.4539L25.0875 32.1048C25.5656 32.8972 24.929 33.8935 24.0098 33.7929L22.093 33.5807L20.8307 35.0414C20.2258 35.7415 19.082 35.4438 18.8932 34.5384L18.5018 32.6478L16.7242 31.8995C15.8712 31.5412 15.8009 30.3602 16.6043 29.9027L18.28 28.9464L18.4426 27.024C18.5197 26.1021 19.6208 25.6694 20.3043 26.2923" fill="#E6E6E6"/>
<path d="M58.3635 18.6704L58.8182 19.8031L60.0102 20.0718C60.5821 20.2 60.7585 20.9276 60.3093 21.3024L59.3708 22.0865L59.4852 23.3033C59.539 23.8862 58.9009 24.279 58.4048 23.9675L57.3713 23.3171L56.2496 23.8008C55.7108 24.0337 55.1403 23.5486 55.2836 22.9809L55.5812 21.7957L54.7751 20.878C54.3879 20.4384 54.6731 19.7466 55.2574 19.7066L56.477 19.624L57.0998 18.5725C57.3989 18.0695 58.1444 18.126 58.3635 18.6704" fill="#E6E6E6"/>
<path d="M90.71 90.082H91.8331V91.2051H90.71V90.082Z" fill="#E6E6E6"/>
<path d="M44.3485 16.7971C44.2755 16.7847 44.2713 16.8278 44.2617 16.8622L38.9214 39.5668C38.8939 39.6812 38.9285 39.8007 39.0098 39.8779C39.5913 40.4373 41.0164 41.3761 44.0095 41.3817H44.0245C47.0934 41.3817 48.2483 39.9109 48.6025 39.2784C48.6411 39.2123 48.6533 39.1323 48.6382 39.0552L44.4271 16.8415C44.4242 16.8319 44.4174 16.7985 44.3485 16.7971V16.7971Z" fill="#E6E6E6"/>
<path d="M93.6012 36.4882L73.9187 24.123L69.458 25.3977L49.2725 40.5286L49.701 43.8304L67.8636 31.9296L72.006 34.9572L73.7588 34.479L75.6715 28.7436L81.0886 37.7725L82.9999 33.0458L89.6917 36.71L94.1648 39.1464" fill="#E6E6E6"/>
<path d="M31.7111 32.5959C31.4121 32.5959 31.1199 32.4429 30.9546 32.1687C30.7038 31.7511 30.8374 31.2096 31.255 30.9574L34.7304 28.8628C35.1479 28.612 35.6909 28.7456 35.9417 29.1632C36.1925 29.5807 36.0588 30.1223 35.6413 30.3731L32.1659 32.4691C32.0225 32.5545 31.8654 32.5959 31.7111 32.5959Z" fill="#E6E6E6"/>
<path d="M35.2192 26.9769C35.1241 26.9769 35.0249 26.9618 34.9298 26.9273L30.64 25.4294C30.1797 25.2682 29.9372 24.7652 30.097 24.3063C30.2583 23.846 30.7599 23.6035 31.2201 23.7647L35.51 25.2627C35.9702 25.4239 36.2128 25.9269 36.0529 26.3858C35.9248 26.7496 35.5844 26.9769 35.2192 26.9769Z" fill="#E6E6E6"/>
<path d="M36.6014 23.583C36.2845 23.583 35.9785 23.4121 35.8201 23.113L33.3231 18.3822C33.0957 17.9509 33.2597 17.4176 33.691 17.1902C34.1209 16.9629 34.6542 17.1268 34.883 17.5582L37.38 22.289C37.6074 22.7203 37.442 23.2536 37.0121 23.481C36.8811 23.5499 36.7392 23.583 36.6014 23.583" fill="#E6E6E6"/>
<path d="M43.337 34.7334C42.2139 34.743 40.9892 35.0462 39.7517 35.7669L33.6084 39.5894L8.50195 55.19C10.1294 56.2773 12.8783 56.8368 15.7129 55.19L17.6368 53.9953C17.4684 53.8188 17.3314 53.6265 17.226 53.418C16.7009 52.3818 17.2222 51.4476 17.2828 51.3443C17.4771 51.0163 17.8864 50.888 18.2337 51.0451C19.0961 51.4388 20.0846 51.0939 20.8289 50.6782L20.6299 52.1359L46.9658 35.7778L46.6516 35.5892C45.7738 35.0682 44.6283 34.7113 43.337 34.7334V34.7334Z" fill="#E6E6E6"/>
<path d="M50.573 38.0039L48.769 39.1175L41.6325 43.5519C41.1198 43.8385 40.6348 44.142 40.1525 44.4769L38.7153 45.3704L40.5783 46.683L42.3611 44.7358C42.5292 44.5525 42.7759 44.4645 43.0226 44.5017L48.1892 45.2851C48.8844 45.1711 49.5963 45.1072 50.3214 45.0949L56.3959 41.6207L50.573 38.0039ZM58.3183 42.815L56.9246 46.5026L63.196 45.8536L60.9977 44.4877C60.5099 44.1529 60.0086 43.829 59.4877 43.541L58.3183 42.815ZM65.3814 47.2111L68.0179 53.328L78.2194 59.6656L68.9802 65.4069L69.0277 65.5206C69.109 65.7163 69.1035 65.9385 69.0112 66.1314C68.9202 66.3229 68.7495 66.4663 68.5456 66.5241L62.362 68.2977L63.0002 72.8271C63.0525 73.2074 62.81 73.5656 62.4379 73.6565L53.2287 75.8988L51.0195 80.1073C50.8721 80.3884 50.562 80.5457 50.2464 80.4974L48.9576 80.3L50.5828 81.3088L59.3513 75.8559C59.372 75.8407 59.3978 75.8202 59.4185 75.8078C59.9614 75.5102 60.4963 75.1753 61.0075 74.8156L85.4293 59.6656L65.3814 47.2111ZM25.8045 53.3988L15.7266 59.6656L24.678 65.2265L26.1481 61.666L25.5565 61.2981L24.1891 60.7829C24.0003 60.7126 23.8473 60.5665 23.7674 60.3819C23.7361 60.3084 23.7203 60.2316 23.7132 60.154L22.9266 59.6656L24.1343 58.9148L26.0345 54.3766L25.8045 53.3988ZM68.5006 55.4783C68.4799 55.5035 68.4649 55.5321 68.4407 55.5548L65.8692 57.9608L68.436 64.1041C68.797 62.6827 69.0014 61.1962 69.0014 59.6656C69.0014 58.2209 68.8228 56.8218 68.5006 55.4783Z" fill="#E6E6E6"/>
<path d="M89.0098 63.1057C87.8854 63.1154 86.6617 63.4185 85.4297 64.1406L54.1758 83.5462L54.4886 83.735C55.3678 84.2476 56.5226 84.6073 57.8042 84.5824C58.9286 84.5714 60.1565 84.2738 61.3912 83.5462L67.5317 79.7304L92.6272 64.1296L92.3089 63.9312C91.4255 63.4406 90.29 63.0947 89.0098 63.1057" fill="#E6E6E6"/>
<path d="M83.3309 49.0605C83.0388 49.0605 82.8018 49.2976 82.8018 49.5897V53.1202C82.8018 53.4124 83.0388 53.6494 83.3309 53.6494H90.8054C91.0975 53.6494 91.3346 53.4124 91.3346 53.1202V49.5897C91.3346 49.2976 91.0975 49.0605 90.8054 49.0605H83.3309ZM83.8601 50.1189H90.2762V52.5911H83.8601V50.1189ZM85.0151 50.2992C84.4321 50.2992 83.9593 50.7722 83.9593 51.3565C83.9593 51.9394 84.4321 52.4118 85.0151 52.4118C85.598 52.4118 86.0708 51.9394 86.0708 51.3565C86.0708 50.7722 85.598 50.2992 85.0151 50.2992ZM88.9631 50.2992C88.3802 50.2992 87.9074 50.7722 87.9074 51.3565C87.9074 51.9394 88.3802 52.4118 88.9631 52.4118C89.5461 52.4118 90.0189 51.9394 90.0189 51.3565C90.0189 50.7722 89.5461 50.2992 88.9631 50.2992Z" fill="#E6E6E6"/>
<path d="M12.2197 68.6016C11.5555 68.6016 11.0141 69.1421 11.0141 69.8077C11.0141 70.2822 11.2905 70.6931 11.6906 70.8893V71.7011H10.6405C10.3484 71.7011 10.1113 71.9381 10.1113 72.2303V76.4646C10.1113 76.7568 10.3484 76.9938 10.6405 76.9938H13.4548C13.7469 76.9938 13.984 76.7568 13.984 76.4646V72.2303C13.984 71.9381 13.7469 71.7011 13.4548 71.7011H12.7489V70.8893C13.1486 70.6931 13.4243 70.2822 13.4243 69.8077C13.4243 69.1421 12.8839 68.6016 12.2197 68.6016ZM12.2197 69.6599C12.2579 69.6599 12.2933 69.6751 12.3195 69.6997C12.2872 69.6935 12.2537 69.6904 12.2197 69.6904C12.1854 69.6904 12.152 69.694 12.1195 69.7002C12.1459 69.6755 12.1808 69.6599 12.2197 69.6599V69.6599ZM11.1697 72.7594H12.9256V75.9355H11.1697V72.7594Z" fill="#E6E6E6"/>
<path d="M10.4901 80.8105C10.198 80.8105 9.96094 81.0476 9.96094 81.3397V88.9672C9.96094 89.2593 10.198 89.4963 10.4901 89.4963H14.4795H18.7966C19.0887 89.4963 19.3257 89.2593 19.3257 88.9672V87.6773H20.0962C20.2586 87.6773 20.4038 87.6039 20.5009 87.4887C20.6074 87.6389 20.7826 87.7367 20.9809 87.7367C21.3048 87.7367 21.5695 87.4734 21.5695 87.1481C21.5695 86.8229 21.3048 86.5596 20.9809 86.5596C20.7826 86.5596 20.608 86.658 20.5014 86.8081C20.4043 86.6926 20.2588 86.619 20.0962 86.619H19.3257V85.6821H21.7995C22.0357 85.6821 22.2359 85.5269 22.3039 85.3131C22.3805 85.5489 22.602 85.7193 22.8635 85.7193C23.1887 85.7193 23.4516 85.4559 23.4516 85.1307C23.4516 84.8055 23.1887 84.5421 22.8635 84.5421C22.5931 84.5421 22.3656 84.7242 22.2966 84.9726C22.2228 84.7692 22.0283 84.6238 21.7995 84.6238H19.3257V83.6879H20.0962C20.2586 83.6879 20.4038 83.6145 20.5009 83.4993C20.6074 83.6495 20.7826 83.7473 20.9809 83.7473C21.3048 83.7473 21.5695 83.4839 21.5695 83.1587C21.5695 82.8335 21.3048 82.5701 20.9809 82.5701C20.7826 82.5701 20.608 82.6686 20.5014 82.8187C20.4043 82.7032 20.2588 82.6296 20.0962 82.6296H19.3257V81.3397C19.3257 81.0476 19.0887 80.8105 18.7966 80.8105H14.4795H10.4901ZM11.0193 81.8689H13.9504V88.438H11.0193V81.8689ZM15.233 81.8689H18.2674V85.1312C18.2671 85.1384 18.2664 85.1456 18.2664 85.1529C18.2664 85.1603 18.2671 85.1673 18.2674 85.1746V88.438H15.233V81.8689ZM12.4853 83.7473C11.8528 83.7473 11.3417 84.2582 11.3417 84.8894C11.3417 85.5205 11.8528 86.0319 12.4853 86.0319C13.1165 86.0319 13.6279 85.5205 13.6279 84.8894C13.6279 84.2582 13.1165 83.7473 12.4853 83.7473Z" fill="#E6E6E6"/>
<path d="M20.1744 53.6655C19.7641 53.5554 19.4775 53.4488 19.196 53.3015C18.9755 53.1861 18.8436 53.0934 18.7099 52.9598C18.6272 52.8772 18.5068 52.708 18.5068 52.6743C18.5068 52.6703 18.5509 52.6736 18.6047 52.6821C18.6585 52.6904 18.8505 52.6977 19.0314 52.6982C19.2969 52.6989 19.4069 52.6923 19.6029 52.6633C19.8635 52.6248 20.2461 52.5347 20.468 52.4597C20.5783 52.4224 20.605 52.4178 20.605 52.4365C20.605 52.4492 20.5662 52.7415 20.5188 53.086C20.4715 53.4306 20.4327 53.7157 20.4327 53.7196C20.4327 53.7326 20.3944 53.7246 20.1744 53.6655V53.6655Z" fill="#E6E6E6"/>
<path d="M56.9137 62.3579C55.8948 62.3423 54.9059 62.6742 54.1041 63.2793C53.7989 63.6593 53.4617 64.0098 53.101 64.3237C53.1008 64.324 53.1008 64.3245 53.1005 64.3248C52.9012 64.6147 52.7325 64.9326 52.6008 65.2756C52.4405 65.6937 52.347 66.1206 52.3135 66.5453C53.4986 66.3764 54.7284 65.9517 55.9825 65.2715C56.9099 64.7685 57.5023 64.3027 57.9033 63.7584C58.1385 63.4416 58.3168 63.0756 58.4785 62.6629C58.4761 62.6618 58.4737 62.6607 58.4713 62.6598C57.9588 62.4632 57.4324 62.3659 56.9137 62.358V62.3579ZM59.6174 63.3031C59.4397 63.7298 59.2252 64.1473 58.9436 64.5284C58.8944 64.5949 58.8415 64.6565 58.7896 64.7196C59.2025 64.6776 59.7343 64.7554 60.2789 64.964C60.6043 65.089 60.8959 65.2453 61.1372 65.4167C60.8507 64.5904 60.3278 63.8506 59.6174 63.3031V63.3031ZM58.0299 65.473C57.5493 65.8664 57.04 66.1693 56.5995 66.4083C56.0295 66.7176 55.4627 66.9741 54.8994 67.1892C55.1072 67.1892 55.3109 67.2879 55.4353 67.4718L56.0306 68.3514C56.0747 68.4161 56.1052 68.4878 56.1231 68.5622C56.2223 68.6959 56.3088 68.7991 56.3722 68.8542C56.6381 68.9176 56.8452 69.1475 56.8672 69.4356C56.8948 69.7911 56.6274 70.1029 56.2719 70.1291C56.0845 70.1456 55.7551 70.1702 55.1888 69.4743C54.6021 69.6406 54.0296 69.7941 53.4648 69.9404C53.9302 70.4588 54.5212 70.8779 55.2162 71.1445C57.5588 72.0444 60.1867 70.8742 61.0866 68.5302C61.2859 68.0104 61.383 67.4769 61.3884 66.951C60.9565 67.0889 60.2818 67.0332 59.5875 66.7665C58.7576 66.4487 58.1515 65.9246 58.0299 65.473V65.473ZM54.4803 67.3452C53.7785 67.5848 53.0837 67.7499 52.3988 67.8403C52.4681 68.1668 52.5719 68.4846 52.7098 68.787C53.3254 68.6348 53.9152 68.4836 54.4405 68.339C54.4047 68.277 54.3688 68.2122 54.333 68.1447C54.1848 67.873 54.2527 67.5414 54.4803 67.3452V67.3452ZM56.1727 68.8392H56.1737H56.1727Z" fill="#FFCC00"/>
<path d="M44.3485 16.7971C44.2755 16.7847 44.2713 16.8278 44.2617 16.8622L38.9214 39.5668C38.8939 39.6812 38.9285 39.8007 39.0098 39.8779C39.5913 40.4373 41.0164 41.3761 44.0095 41.3817H44.0245C47.0934 41.3817 48.2483 39.9109 48.6025 39.2784C48.6411 39.2123 48.6533 39.1323 48.6382 39.0552L44.4271 16.8415C44.4242 16.8319 44.4174 16.7985 44.3485 16.7971V16.7971Z" fill="#FFCC00"/>
<path d="M20.3043 26.2923L21.7319 27.5904L23.6102 27.1508C24.5115 26.9399 25.2625 27.8522 24.8821 28.6956L24.0884 30.4539L25.0875 32.1048C25.5656 32.8972 24.929 33.8935 24.0098 33.7929L22.093 33.5807L20.8307 35.0414C20.2258 35.7415 19.082 35.4438 18.8932 34.5384L18.5018 32.6478L16.7242 31.8995C15.8712 31.5412 15.8009 30.3602 16.6043 29.9027L18.28 28.9464L18.4426 27.024C18.5197 26.1021 19.6208 25.6694 20.3043 26.2923" fill="#FFCC00"/>
<path d="M58.3635 18.6704L58.8182 19.8031L60.0102 20.0718C60.5821 20.2 60.7585 20.9276 60.3093 21.3024L59.3708 22.0865L59.4852 23.3033C59.539 23.8862 58.9009 24.279 58.4048 23.9675L57.3713 23.3171L56.2496 23.8008C55.7108 24.0337 55.1403 23.5486 55.2836 22.9809L55.5812 21.7957L54.7751 20.878C54.3879 20.4384 54.6731 19.7466 55.2574 19.7066L56.477 19.624L57.0998 18.5725C57.3989 18.0695 58.1444 18.126 58.3635 18.6704Z" fill="#FFCC00"/>
<path d="M37.5283 33.6452C36.9057 33.6394 36.4916 33.6741 36.4265 33.6803C36.2184 33.6982 36.0298 33.8033 35.903 33.9687C35.7763 34.1327 35.7239 34.3435 35.7583 34.5474L36.1826 37.0388C32.4206 35.2804 29.6219 37.0524 29.491 37.1364C29.2278 37.3087 29.0997 37.6274 29.1727 37.9333L29.7127 40.2112C26.9015 39.2686 24.0354 40.3529 23.8934 40.4081C23.5558 40.539 23.3613 40.8943 23.433 41.2499L23.91 43.627L22.4713 43.5846C22.0855 43.5736 21.7616 43.8504 21.7106 44.228L19.3418 61.5608C19.2867 61.9687 19.5719 62.3451 19.9784 62.4016L21.7117 62.6398L20.7804 66.4504C20.7171 66.7109 20.798 66.9835 20.9923 67.1682L23.786 69.8166L24.6748 75.4282C24.7189 75.712 24.9228 75.9447 25.1998 76.0261L26.8824 76.5237L26.3078 83.2623C26.2857 83.5062 26.3877 83.7463 26.5765 83.9021C26.7653 84.0578 27.0199 84.1101 27.2555 84.0426L29.5417 83.3863L28.365 86.8425C28.2727 87.1125 28.343 87.4133 28.5469 87.6145C28.7508 87.8143 29.0528 87.8815 29.3215 87.785L35.0375 85.7402L35.1093 87.431C35.1203 87.6694 35.2428 87.8887 35.4426 88.0196C35.5652 88.1023 35.7098 88.1447 35.8545 88.1447C35.9427 88.1447 36.0298 88.1293 36.1139 88.0977L43.6183 85.3061L48.7958 87.0574C49.099 87.1594 49.4309 87.059 49.6252 86.8068L53.2994 82.0371L57.2227 82.2825C57.5162 82.3032 57.7821 82.1518 57.9213 81.8996L59.1161 79.7426L61.6472 80.5503C62.0055 80.6647 62.3944 80.4926 62.5515 80.1509L63.6926 77.6564L67.2272 78.4213C67.5607 78.4929 67.9025 78.3291 68.0541 78.0218L70.2105 73.6396L76.1125 72.5674C76.5038 72.4957 76.7715 72.1293 76.7192 71.7338L76.3895 69.2864L77.7744 68.8895C78.0858 68.8 78.3039 68.5199 78.3149 68.196L78.3904 65.8577C84.9677 64.6243 84.6923 59.8331 84.6882 59.7821C84.6592 59.3825 84.3256 59.0803 83.9135 59.0927C80.8281 59.2236 78.5199 58.6604 77.237 57.467C76.4115 56.6994 76.2337 55.8846 76.1952 55.5953L78.7325 48.6872C78.7945 48.5204 78.7931 48.3373 78.7325 48.1719C77.6011 45.1127 71.9122 44.3203 69.2912 44.1164L70.194 42.5661C70.3483 42.3001 70.3251 41.9666 70.1335 41.7269C66.9351 37.7154 61.3153 37.7125 58.6391 37.9757L59.4231 36.4889C59.5168 36.3098 59.5347 36.1017 59.4727 35.9102C59.4093 35.7186 59.2728 35.56 59.0923 35.4704C55.8056 33.8612 51.7907 34.4262 48.771 35.2875L49.0516 36.768C51.6157 36.0228 54.9552 35.4842 57.727 36.508L56.6382 38.5699C56.5032 38.8249 56.5295 39.1348 56.7018 39.3663C56.8754 39.5964 57.1674 39.7054 57.4485 39.6489C57.5243 39.6324 64.8803 38.1798 68.6395 42.2726L67.3895 44.4197C67.2572 44.6471 67.2546 44.9265 67.3828 45.1566C67.5109 45.3867 67.7521 45.5332 68.0153 45.5401C70.0796 45.5938 76.0367 46.2468 77.2287 48.4572L74.7389 55.2346C74.7086 55.3172 74.6934 55.4065 74.6934 55.496C74.6934 55.5608 74.7207 57.129 76.1745 58.5139C77.6311 59.9016 79.9379 60.6032 83.0413 60.6032H83.1239C82.8718 61.7318 81.8248 63.869 77.5584 64.4836C77.2015 64.536 76.9312 64.8367 76.9202 65.1978L76.8416 67.6049L75.3601 68.0296C75.0045 68.1316 74.7772 68.4801 74.8268 68.8466L75.1466 71.2263L69.5739 72.2392C69.341 72.2805 69.1427 72.4325 69.038 72.6433L66.9735 76.8405L63.4223 76.0715C63.0792 75.9985 62.7317 76.1723 62.5856 76.4906L61.4694 78.9298L58.9864 78.1376C58.6488 78.0301 58.2807 78.1744 58.1084 78.4859L56.8465 80.7638L52.9961 80.524C52.7452 80.5074 52.511 80.6177 52.3594 80.8134L48.7694 85.4741L43.8447 83.8096C43.6821 83.7544 43.5053 83.7556 43.3455 83.8163L36.5562 86.3422L36.4844 84.6664C36.4747 84.4293 36.3523 84.2116 36.1552 84.0793C36.0312 83.9953 35.8862 83.9527 35.7387 83.9527C35.6546 83.9527 35.5694 83.9667 35.4881 83.9956L30.275 85.8601L31.4144 82.5171C31.504 82.2539 31.4396 81.9628 31.248 81.7616C31.0565 81.5605 30.7697 81.4819 30.5023 81.5591L27.8839 82.3104L28.4187 76.0441C28.4491 75.6914 28.227 75.3661 27.888 75.2669L26.0731 74.7295L25.2189 69.3334C25.1928 69.1722 25.1156 69.0217 24.9957 68.9087L22.3318 66.3843L23.357 62.1923C23.4066 61.9869 23.3681 61.7704 23.2495 61.5954C23.131 61.4218 22.9438 61.305 22.7343 61.2761L20.9195 61.0265L23.0966 45.0951L24.804 45.1473C25.0396 45.1528 25.2491 45.0564 25.3952 44.8827C25.5426 44.7091 25.6019 44.4776 25.5564 44.2544L25.0262 41.6152C26.1121 41.33 28.4806 40.9307 30.3892 42.1806C30.6441 42.3487 30.9764 42.3432 31.2258 42.1682C31.4766 41.9918 31.5937 41.6829 31.5235 41.3853L30.7586 38.1591C31.6943 37.7664 33.9679 37.1852 36.764 39.0841C37.0106 39.2522 37.3348 39.2562 37.5856 39.095C37.8378 38.9324 37.967 38.6361 37.9174 38.3426L37.3717 35.1396C37.8191 35.1404 38.422 35.169 39.0817 35.2523L39.4269 33.7868C38.7055 33.6867 38.0436 33.6499 37.5283 33.6452L37.5283 33.6452Z" fill="#020505"/>
<path d="M58.063 40.8236C57.9137 40.8096 57.7604 40.8403 57.6233 40.9181L49.6124 45.5003L43.0226 44.5014C42.7759 44.4642 42.5293 44.5522 42.3612 44.7355L40.5783 46.6826L36.2788 43.6539C36.1066 43.5313 35.8899 43.4896 35.6846 43.535C35.4792 43.5819 35.3032 43.7131 35.1998 43.8978L34.0133 46.0072L33.8945 45.6517C33.8008 45.3692 33.5472 45.1694 33.2496 45.1432C32.9547 45.1184 32.6698 45.2727 32.5292 45.5359L32.077 46.3824L30.3588 44.7536C30.1424 44.5482 29.8253 44.4917 29.5511 44.6089C29.2769 44.7274 29.1005 44.9959 29.1005 45.2936V48.3626L25.588 49.4334C25.2118 49.5478 24.99 49.935 25.0795 50.3181L25.91 53.8476C26.0997 53.1417 26.3943 52.3494 26.929 51.6699L26.6903 50.6555L30.0637 49.6277C30.3765 49.5326 30.5913 49.243 30.5913 48.9151V47.0284L31.7613 48.1379C31.9308 48.2977 32.1623 48.3709 32.3938 48.3337C32.6239 48.2965 32.8225 48.153 32.9328 47.9477L33.0263 47.7715L33.1286 48.0774C33.2224 48.3571 33.4718 48.5568 33.7653 48.5843C34.0588 48.6133 34.341 48.4645 34.4857 48.2081L36.0938 45.3473L40.2559 48.2784C40.5618 48.4948 40.9821 48.4495 41.2356 48.1725L43.1921 46.0351L49.6455 47.0134C49.8122 47.0396 49.9821 47.008 50.1281 46.924L56.5618 43.2431L55.1025 47.1043C55.0102 47.3455 55.0519 47.6168 55.209 47.8221C55.3674 48.0274 55.6167 48.1365 55.8771 48.1089L63.7924 47.2904L67.0392 54.8243L64.472 57.2246C64.2446 57.4382 64.1741 57.7691 64.2926 58.0571L67.3286 65.3218L61.3274 67.0432C60.9705 67.1451 60.7428 67.4964 60.7952 67.8643L61.4292 72.3663L52.5476 74.5285C52.3395 74.5795 52.1645 74.7175 52.0639 74.9062L49.9473 78.9427L44.3579 78.0869C44.2077 78.0649 44.0561 78.0869 43.9197 78.1531L36.4204 81.7787L35.8944 78.0177C35.8489 77.6856 35.5857 77.4251 35.2536 77.381L29.2064 76.5888L29.1155 71.8785C29.11 71.6291 28.9818 71.3993 28.7723 71.2656L24.8366 68.7449L27.0143 63.4749C26.6688 62.9122 26.3791 62.3088 26.1451 61.6735L23.2218 68.7521C23.084 69.0856 23.204 69.4699 23.5086 69.6642L27.6329 72.3059L27.7279 77.2586C27.7362 77.6279 28.0104 77.9367 28.377 77.9836L34.497 78.7866L35.0867 82.9983C35.1184 83.2353 35.2632 83.4403 35.4727 83.5533C35.5829 83.6112 35.7042 83.6401 35.8241 83.6401C35.9357 83.6401 36.0458 83.6153 36.1491 83.5657L44.361 79.5959L50.2465 80.4971C50.562 80.5454 50.8721 80.3881 51.0195 80.107L53.2287 75.8984L62.438 73.6562C62.81 73.5652 63.0526 73.2071 63.0002 72.8268L62.362 68.2973L68.5456 66.5238C68.7496 66.4659 68.9203 66.3226 69.0112 66.1311C69.1036 65.9381 69.1091 65.7159 69.0278 65.5203L65.8693 57.9605L68.4407 55.5545C68.6708 55.3395 68.7413 55.0032 68.6159 54.7152L64.9448 46.1974C64.8153 45.897 64.5064 45.7151 64.1826 45.7509L56.9246 46.5023L58.6909 41.8292C58.8025 41.5343 58.7173 41.2022 58.4775 40.9982C58.3576 40.8963 58.2124 40.8375 58.063 40.8236V40.8236ZM25.5834 55.4537L23.7649 59.7976C23.6863 59.985 23.6875 60.1941 23.7675 60.3816C23.8474 60.5662 24.0004 60.7123 24.1892 60.7826L26.0815 61.4957C25.8842 60.9295 25.7309 60.3389 25.6227 59.7299L25.4392 59.6612L25.5648 59.3609C25.3823 58.1127 25.3862 56.7944 25.5834 55.4537H25.5834Z" fill="#020505"/>
<path d="M20.8291 50.6777C20.0849 51.0935 19.0964 51.4384 18.234 51.0446C17.8867 50.8875 17.4774 51.0159 17.2831 51.3438C17.2225 51.4472 16.7012 52.3813 17.2263 53.4176C17.6656 54.2865 18.6478 54.875 20.2106 55.2025L20.4137 53.7199C19.0697 53.4183 18.6759 52.9701 18.5631 52.7577C18.548 52.7288 18.5354 52.6996 18.5244 52.6693C19.2468 52.7769 19.9572 52.646 20.5914 52.4177L20.8291 50.6777Z" fill="#020505"/>
<path d="M54.5357 69.4844C52.1066 70.324 49.8526 70.8804 47.7837 71.231C47.779 71.087 47.772 70.9516 47.7599 70.8414C47.72 70.4859 47.3971 70.2299 47.0457 70.2699C46.6902 70.3098 46.4342 70.6294 46.4742 70.9835C46.5183 71.3831 46.4904 72.3242 46.4256 72.9829C44.3944 73.1648 42.3125 73.3067 40.3185 72.8423C40.3185 72.6025 40.3227 72.3338 40.3268 72.0651C40.3323 71.7013 40.3374 71.3365 40.3319 71.0388C40.3263 70.7942 40.1817 70.5878 39.98 70.4817C39.7879 70.4794 39.596 70.476 39.4044 70.4704C39.1839 70.5772 39.0329 70.8041 39.038 71.0662C39.0418 71.2239 39.0411 71.4027 39.039 71.5886C37.7885 71.4635 36.7058 71.2712 35.8066 71.0621L36.9518 71.4961C36.8544 71.9324 36.701 72.5112 36.5363 73.0015C36.953 73.4399 37.3163 73.864 37.6174 74.2396C38.5296 75.3793 39.9008 76.0835 41.3588 76.0587C41.5786 76.0548 41.799 76.0421 42.0192 76.024C42.381 75.5776 42.8793 75.0119 43.4775 74.4463C44.7093 74.4392 45.9211 74.3284 47.0582 74.2231C47.3448 74.1969 47.5806 73.9837 47.6343 73.7012C47.7046 73.3329 47.7611 72.6562 47.7811 72.017C48.591 71.8379 49.3849 71.7689 50.1034 71.7638C50.1696 71.7634 50.235 71.7633 50.2998 71.7638C50.7968 71.768 51.2462 71.8025 51.6424 71.8465C53.4059 70.5646 54.5357 69.4844 54.5357 69.4844ZM51.6388 71.8491C51.3861 72.0327 51.1178 72.221 50.8404 72.4103C51.1194 72.22 51.385 72.0335 51.6388 71.8491ZM48.9619 73.5937C48.7111 73.7384 48.454 73.8801 48.193 74.019C48.4541 73.8801 48.7112 73.7383 48.9619 73.5937ZM46.8954 74.6598C46.7793 74.7123 46.6624 74.7638 46.545 74.8143C46.6624 74.7638 46.7792 74.7123 46.8954 74.6598ZM46.266 74.9321C46.1972 74.9605 46.1279 74.9888 46.0587 75.0163C46.1281 74.9887 46.197 74.9605 46.266 74.9321ZM45.6598 75.1698C45.5892 75.196 45.5183 75.2215 45.4474 75.2468C45.5184 75.2215 45.5892 75.1961 45.6598 75.1698ZM45.0371 75.3884C44.9715 75.4099 44.9055 75.4303 44.8397 75.4509C44.9056 75.4302 44.9714 75.41 45.0371 75.3884ZM44.4924 75.5558C44.4223 75.5761 44.352 75.5956 44.2816 75.6148C44.352 75.5956 44.4222 75.5761 44.4924 75.5558ZM43.9167 75.7088C43.8472 75.7258 43.7777 75.743 43.708 75.7589C43.7777 75.743 43.8472 75.7258 43.9167 75.7088ZM43.2951 75.8452C43.2253 75.8588 43.1556 75.8722 43.0858 75.8845C43.1556 75.8721 43.2253 75.8588 43.2951 75.8452ZM42.66 75.9522C42.5928 75.9616 42.5257 75.9698 42.4584 75.978C42.5257 75.9698 42.5928 75.9616 42.66 75.9522Z" fill="#020505"/>
<path d="M54.5358 68.1915C54.4848 68.1915 54.4338 68.1943 54.3828 68.1997C54.2795 68.2135 54.1803 68.2368 54.0852 68.2726C50.0136 69.6773 46.0435 70.4029 42.2812 70.4378C38.6286 70.6195 34.8951 70.3107 31.763 69.0281C31.6406 69.1338 31.5345 69.2627 31.4561 69.4152L35.7995 71.0605C37.347 71.4211 39.4301 71.7354 41.997 71.7354C45.3815 71.7354 49.6024 71.1901 54.5358 69.4854C54.5358 69.4854 47.8218 75.9467 41.3588 76.0597C41.334 76.0597 41.3077 76.0613 41.2828 76.0613C39.8524 76.0613 38.5145 75.3597 37.6174 74.2407C37.3162 73.8652 36.9526 73.4415 36.5358 73.003C36.4863 73.1505 36.4358 73.2924 36.3855 73.417C35.8179 73.2875 35.2526 73.1482 34.6884 73.0046C35.4629 73.7016 36.1126 74.4319 36.6087 75.0499C37.7814 76.5148 39.4845 77.3537 41.2828 77.3537H41.381C48.1486 77.2366 54.8953 70.9306 55.4107 70.4373C55.6684 70.2017 55.8308 69.8616 55.8308 69.4854C55.8308 68.7923 55.2865 68.2269 54.603 68.1925C54.5809 68.1911 54.5578 68.1915 54.5358 68.1915Z" fill="#020505"/>
<path d="M29.9293 61.6995C29.5806 61.7134 29.2187 61.7651 28.8673 61.8953C27.3542 62.4534 26.7438 64.1405 26.6804 65.4166L26.6711 65.6067C26.6325 66.2448 26.5799 67.1185 27.2111 67.6862C27.9261 68.329 28.8965 69.0305 30.1701 69.6701C29.9774 70.2035 29.8652 70.6543 29.7561 71.1795C29.73 71.3118 29.6724 71.5873 29.7923 71.8766C29.9742 72.3121 30.4124 72.4511 30.5778 72.5035C32.434 73.0933 34.3398 73.613 36.2415 74.0471C36.2898 74.0581 36.3378 74.0636 36.3847 74.0636C36.6438 74.0636 36.8849 73.9079 36.9841 73.6585C37.2205 73.0737 37.4509 72.218 37.5784 71.6555C38.5121 71.7445 39.5108 71.794 40.5824 71.794C44.456 71.794 49.2585 71.1559 55.1882 69.4747C55.7546 70.1706 56.0839 70.146 56.2713 70.1295C56.6269 70.1033 56.8942 69.7915 56.8666 69.436C56.8446 69.148 56.6375 68.918 56.3716 68.8546C56.3082 68.7995 56.2217 68.6963 56.1225 68.5626C56.1046 68.4882 56.0741 68.4166 56.03 68.3518L55.4347 67.4723C55.2418 67.187 54.8588 67.103 54.5639 67.2821C54.269 67.4626 54.1671 67.8419 54.3324 68.1451C54.3683 68.2126 54.4041 68.2774 54.4399 68.3394C53.0573 68.72 51.3226 69.1426 49.4046 69.5125V69.5269C48.5521 69.6915 47.661 69.8452 46.7443 69.9786C46.2859 70.0453 45.8212 70.1065 45.3516 70.162C44.8921 70.2163 44.4277 70.2647 43.9604 70.3062C43.9525 70.3069 43.9447 70.3081 43.9367 70.3088C43.9343 70.309 43.9319 70.3091 43.9294 70.3093C43.9279 70.3094 43.9263 70.3097 43.9248 70.3098C43.919 70.3103 43.9131 70.3103 43.9072 70.3109C43.4367 70.3521 42.9634 70.3866 42.4882 70.4127C42.0055 70.4391 41.5211 70.4573 41.0366 70.4659C40.5521 70.4744 40.0675 70.4734 39.5845 70.4617C38.8599 70.4443 38.1384 70.4027 37.426 70.3336C37.1091 70.3028 36.7953 70.2645 36.4824 70.2225C36.4071 70.2124 36.332 70.2018 36.257 70.191C35.9428 70.1457 35.6297 70.0966 35.3207 70.039C35.0906 69.9962 34.8622 69.95 34.6354 69.9C34.376 69.8428 34.12 69.7794 33.8655 69.7124C33.7859 69.6915 33.7073 69.6687 33.6283 69.6468C33.4576 69.5995 33.2879 69.55 33.1198 69.498C33.0239 69.4683 32.9285 69.4382 32.8335 69.407C32.6697 69.3532 32.5077 69.2966 32.3467 69.238C32.2655 69.2085 32.1838 69.1799 32.1033 69.1492C31.8641 69.0578 31.6272 68.9622 31.3948 68.8598C30.7828 68.5899 30.1958 68.2811 29.6388 67.9291C29.4532 67.8118 29.2708 67.6897 29.0921 67.5627C28.9134 67.4357 28.7385 67.3038 28.5671 67.1669C28.3957 67.0299 28.228 66.8877 28.0643 66.7405C28.0432 66.7216 28.0252 66.6969 28.01 66.6677C27.9894 66.6281 27.9752 66.5777 27.9635 66.5235C27.9606 66.51 27.9577 66.4964 27.9552 66.4821C27.9457 66.4268 27.9385 66.3684 27.9351 66.3049C27.9245 66.111 27.9378 65.8892 27.9495 65.7018L27.9609 65.4962C27.968 65.3521 27.985 65.2046 28.01 65.0569C28.012 65.0449 28.0141 65.0332 28.0162 65.0213C28.0427 64.8727 28.0777 64.7241 28.1227 64.5789C28.1449 64.5071 28.1698 64.4368 28.1966 64.367C28.1966 64.3669 28.1965 64.3667 28.1966 64.3665C28.1998 64.3582 28.2031 64.35 28.2064 64.3417C28.2067 64.341 28.2071 64.3404 28.2074 64.3396C28.2331 64.2744 28.2608 64.2106 28.2906 64.1479C28.2923 64.1443 28.294 64.1407 28.2958 64.1371C28.3285 64.069 28.3631 64.0023 28.4007 63.9381C28.4393 63.8722 28.4804 63.8088 28.5242 63.7479C28.5857 63.6624 28.6523 63.582 28.7242 63.5087C28.7244 63.5084 28.7244 63.5079 28.7247 63.5076L28.7252 63.5071C28.7407 63.4913 28.7572 63.4768 28.7733 63.4617C28.8368 63.4015 28.9041 63.3464 28.9753 63.2973C29.0806 63.2211 29.1916 63.1538 29.3153 63.1082C29.7563 62.9456 30.2977 62.9842 30.8269 63.0214C35.8595 63.3755 41.0645 63.7405 46.1701 64.2104C47.347 64.3193 48.2057 64.4327 49.1152 64.5525C49.8979 64.6545 50.7065 64.7606 51.7496 64.8667C52.1107 64.9081 52.4238 64.6432 52.4597 64.289C52.4955 63.9335 52.2364 63.6153 51.8809 63.5795C50.857 63.4761 50.0576 63.37 49.2831 63.2694C48.3612 63.1482 47.4901 63.0339 46.2885 62.9237C41.1691 62.451 35.9577 62.0855 30.9127 61.73C30.6136 61.7093 30.2779 61.6855 29.9293 61.6995ZM31.3498 70.2034C32.7003 70.753 34.3258 71.2193 36.2855 71.5015C36.2014 71.86 36.0887 72.2808 35.9687 72.6554C34.3178 72.2627 32.6669 71.8077 31.0532 71.2979C31.1486 70.8442 31.2346 70.5288 31.3498 70.2034Z" fill="#020505"/>
<path d="M39.7515 65.8764C39.5075 65.7275 39.7515 65.5057 39.994 65.3527C40.2531 65.1887 40.5259 65.0468 40.8084 64.9283C41.0124 64.8428 41.2329 64.7684 41.452 64.7974C41.6711 64.8263 41.8888 64.9875 41.9122 65.208C41.9384 65.4616 41.7152 65.6697 41.4974 65.802C41.3169 65.9136 41.1143 66.0073 40.9021 66.0059C40.6899 66.0059 40.4901 65.9122 40.2861 65.853C40.0822 65.7937 39.9334 65.9866 39.7515 65.8764" fill="#020505"/>
<path d="M35.9646 65.5588C36.1851 65.3755 35.9109 65.1922 35.649 65.0751C35.3693 64.9497 35.0785 64.8491 34.7823 64.7719C34.5673 64.7181 34.3385 64.6768 34.1263 64.7361C33.9127 64.7981 33.7212 64.9882 33.7308 65.2101C33.7404 65.465 33.9913 65.6387 34.2269 65.7379C34.4212 65.8206 34.6348 65.8853 34.8457 65.8537C35.0551 65.822 35.2384 65.6993 35.4327 65.6125C35.6256 65.5243 35.8006 65.6938 35.9646 65.5588" fill="#020505"/>
<path d="M36.7531 61.4212C36.5408 61.4212 36.3328 61.3164 36.2101 61.1249C35.4742 59.988 34.6447 59.3569 33.7434 59.2521C32.3447 59.0868 31.1362 60.2264 31.1238 60.2374C30.8661 60.4841 30.4582 60.4758 30.2101 60.2195C29.9621 59.9632 29.969 59.5553 30.2239 59.3072C30.2901 59.2425 31.8693 57.7363 33.8812 57.965C35.189 58.1139 36.3383 58.9407 37.296 60.4235C37.4903 60.7225 37.4035 61.1235 37.1045 61.3164C36.9956 61.3867 36.8743 61.4212 36.7531 61.4212" fill="#020505"/>
<path d="M36.6369 58.4148C36.4495 58.4148 36.2634 58.3335 36.1353 58.1764C35.8252 57.7975 35.0163 57.0795 34.4968 57.2807C34.1633 57.4089 33.7899 57.2449 33.6603 56.9114C33.5308 56.5779 33.6962 56.2031 34.0296 56.0749C35.5565 55.4824 36.9828 57.1663 37.1399 57.3606C37.3645 57.6376 37.3218 58.0455 37.0448 58.2701C36.9249 58.3666 36.7802 58.4148 36.6369 58.4148Z" fill="#020505"/>
<path d="M50.9065 52.9243C49.1344 52.9243 47.5496 55.3124 47.0218 56.9771C46.4279 58.8512 46.6567 61.2959 47.5772 62.9261C47.9024 63.5021 48.4633 64.2311 49.2846 64.4281C49.9557 64.588 50.7798 64.3799 51.6066 63.8397C53.0521 62.8971 54.1821 61.2091 54.4853 59.5416C54.7995 57.8136 54.2662 55.6997 53.1596 54.2803C52.5202 53.4576 51.7664 52.978 51.0388 52.9284C50.9947 52.9256 50.9506 52.9243 50.9065 52.9243V52.9243ZM49.7421 65.7745C49.4816 65.7745 49.2281 65.7456 48.9828 65.6863C47.9741 65.4438 47.099 64.7107 46.4513 63.5627C45.3503 61.6142 45.0843 58.8099 45.7885 56.5871C46.4252 54.5766 48.4385 51.4553 51.127 51.6386C52.2267 51.713 53.3098 52.3689 54.1808 53.4852C55.5202 55.2049 56.1389 57.673 55.7586 59.7718C55.3948 61.7727 54.0429 63.7956 52.3135 64.9243C51.4564 65.4837 50.5662 65.7745 49.7421 65.7745Z" fill="#020505"/>
<path d="M51.3184 54.3965C51.0174 54.396 50.6265 54.4914 50.1613 54.8135C49.0947 55.548 47.9275 57.29 47.7594 59.1972C47.5968 61.0631 48.3987 62.9384 49.2751 63.8259C49.7836 64.3399 50.2423 64.4615 50.5634 64.4615C50.5964 64.4615 50.6282 64.4602 50.6585 64.4574C52.4135 64.3238 52.9035 60.6883 53.0051 59.6907L49.934 60.4277L49.719 57.8221L53.0531 57.1452C52.857 54.9849 51.9934 54.536 51.6713 54.4446C51.5731 54.417 51.4552 54.3967 51.3184 54.3965V54.3965Z" fill="#020505"/>
<path d="M46.8241 49.7877C46.492 49.7877 46.1791 49.8304 45.9173 49.9614C45.5329 50.1515 45.2242 50.5484 44.9996 50.8722C43.8902 52.4639 43.3142 54.4097 43.3762 56.3499C43.4451 58.5121 44.2981 60.5902 45.034 62.1584C45.5218 63.196 46.0841 64.264 46.9026 65.0454C47.9789 66.0734 49.5719 66.6549 51.271 66.6301C52.7703 66.6108 54.3564 66.1533 55.9825 65.2714C56.9099 64.7684 57.5025 64.3026 57.9035 63.7583C58.2769 63.2553 58.5126 62.6448 58.7538 61.8841C59.2926 60.1781 59.6646 58.4129 59.8617 56.6366C60.1097 54.3849 59.7859 53.1556 58.8419 52.7698C55.2715 51.3118 51.5204 50.3307 47.6909 49.8539C47.4015 49.818 47.1052 49.7877 46.8241 49.7877V49.7877ZM51.1814 67.9241C49.186 67.9241 47.305 67.2185 46.0083 65.981C45.0368 65.0536 44.4029 63.8589 43.8627 62.7068C43.0744 61.027 42.1594 58.7891 42.0822 56.3913C42.012 54.1754 42.6707 51.9526 43.9371 50.1322C44.2513 49.6816 44.6936 49.1235 45.3413 48.8024C46.1502 48.4014 47.0239 48.4676 47.8507 48.5709C51.7933 49.0615 55.6559 50.0716 59.3312 51.5723C61.6187 52.5066 61.2645 55.7229 61.1474 56.7799C60.9421 58.6389 60.5521 60.4882 59.9871 62.2741C59.7446 63.0389 59.451 63.8423 58.9439 64.5286C58.2783 65.4298 57.3413 66.0059 56.5999 66.4082C54.7864 67.3922 52.9991 67.902 51.2862 67.9227C51.2517 67.9241 51.2159 67.9241 51.1814 67.9241" fill="#020505"/>
<path d="M43.4889 60.6363C43.3235 60.6363 43.1568 60.5729 43.03 60.4447C41.8835 59.2886 39.9404 59.0061 38.5114 59.7888C38.1986 59.961 37.8059 59.8453 37.6336 59.5325C37.4613 59.2183 37.5771 58.8255 37.8899 58.6547C39.8054 57.6046 42.4099 57.9836 43.9492 59.5339C44.2 59.7888 44.1986 60.1981 43.945 60.4489C43.8196 60.5743 43.6543 60.6363 43.4889 60.6363" fill="#020505"/>
<path d="M27.8455 64.2101C27.6415 64.2101 27.4403 64.1136 27.3149 63.9345C25.5469 61.3975 24.9874 57.9097 25.7825 54.364C25.9699 53.5248 26.2786 52.4499 26.998 51.5831C28.3126 49.9998 30.5933 49.4527 33.7765 49.9571C35.2262 50.1872 36.6718 50.5248 38.0719 50.963C38.5446 51.1105 39.0393 51.2882 39.421 51.6948C40.0356 52.3466 40.0521 53.2547 40.0618 53.8555C40.1252 57.3888 40.0067 60.7664 37.8859 63.2648C37.6543 63.5376 37.2464 63.5707 36.9736 63.3406C36.7007 63.109 36.6677 62.7012 36.8992 62.4283C38.7278 60.273 38.8271 57.1545 38.7692 53.8789C38.7595 53.347 38.7306 52.8468 38.4798 52.5808C38.3117 52.4031 38.0085 52.2983 37.686 52.1977C36.3452 51.7788 34.963 51.455 33.574 51.2359C30.873 50.8073 28.9961 51.2028 27.9943 52.41C27.45 53.0645 27.2005 53.9492 27.0448 54.6479C26.3296 57.8394 26.8147 60.9538 28.376 63.1931C28.58 63.4866 28.5083 63.8904 28.2148 64.0943C28.1032 64.1729 27.9736 64.2101 27.8455 64.2101" fill="#020505"/>
<path d="M50.1617 45.422C49.4575 45.5846 49.0855 46.4308 49.2164 47.1418C49.3487 47.8515 49.8461 48.4358 50.367 48.9347C51.6776 50.1914 53.4111 51.1933 55.2164 51.01C55.7855 50.9521 56.3519 50.7716 56.7997 50.4188C57.249 50.0647 57.5673 49.5258 57.5797 48.9553C57.5976 48.1464 57.0285 47.4436 56.4056 46.9255C54.8484 45.6288 52.751 45.0045 50.7377 45.2374" fill="#020505"/>
<path d="M28.7504 48.8022C28.3755 49.4196 28.7214 50.2767 29.3223 50.6791C29.9217 51.0801 30.6879 51.1311 31.41 51.1077C33.2235 51.0457 34.5051 50.8872 35.635 49.4664C35.9892 49.0199 36.2552 48.488 36.3158 47.9203C36.3764 47.3525 36.2124 46.7476 35.8128 46.341C35.2464 45.7623 34.3452 45.681 33.5404 45.7636C31.5244 45.9745 30.2593 46.6566 29.0205 48.2606" fill="#020505"/>
<path d="M41.2562 79.9014C40.191 79.9014 38.9191 79.623 38.033 78.7176C37.7836 78.4627 37.7877 78.0534 38.0426 77.804C38.2976 77.5546 38.7068 77.5573 38.9576 77.8136C40.0008 78.8802 41.9879 78.6501 42.4482 78.4337C42.772 78.2808 43.1579 78.42 43.3095 78.7438C43.4611 79.0663 43.3219 79.4521 42.9994 79.6037C42.6673 79.7608 42.0141 79.9014 41.2562 79.9014" fill="#020505"/>
<path d="M38.9223 39.566C38.8947 39.6804 38.9291 39.8003 39.0105 39.8775C39.592 40.4369 41.0169 41.3754 44.01 41.3809H44.0251C47.094 41.3809 48.2488 39.9105 48.603 39.278C48.6416 39.2119 48.654 39.1319 48.6388 39.0548L44.4275 16.8408C44.4247 16.8312 44.4179 16.7981 44.349 16.7967C44.2759 16.7843 44.2718 16.827 44.2622 16.8615L38.9223 39.566ZM44.0251 43.0442H44.0072C40.4326 43.0387 38.6205 41.8095 37.8584 41.0777C37.354 40.594 37.1418 39.8692 37.3031 39.1857L42.6512 16.4522C42.8731 15.6336 43.5607 15.1127 44.3903 15.1334C45.2116 15.1541 45.8813 15.7067 46.0577 16.5087L50.2732 38.7447C50.3613 39.205 50.2828 39.6832 50.054 40.0924C49.5566 40.9799 47.9732 43.0442 44.0251 43.0442" fill="#020505"/>
<path d="M45.6858 19.8381C45.6417 19.8381 45.5962 19.8353 45.5508 19.8271C43.3638 19.4688 42.559 17.8785 42.526 17.8124C42.3234 17.399 42.4929 16.9015 42.9049 16.6989C43.3142 16.4977 43.8075 16.6631 44.0129 17.0682C44.0432 17.1234 44.52 17.9722 45.8195 18.1858C46.2728 18.2602 46.5802 18.6874 46.5057 19.1408C46.4382 19.5487 46.0854 19.8381 45.6858 19.8381Z" fill="#020505"/>
<path d="M46.328 25.3171C43.882 25.3171 41.6261 23.0061 41.5255 22.9014C41.2058 22.5706 41.2155 22.0442 41.5476 21.7259C41.8769 21.4062 42.4034 21.4158 42.7217 21.7466C43.2977 22.3405 45.1181 23.8412 46.6064 23.6359C47.0625 23.5738 47.48 23.8908 47.5434 24.3469C47.6054 24.8017 47.2871 25.2206 46.831 25.284C46.6629 25.306 46.4947 25.3171 46.328 25.3171" fill="#020505"/>
<path d="M47.2787 30.6396C43.4616 30.6396 40.5718 27.5625 40.4464 27.426C40.1336 27.0884 40.1543 26.562 40.4919 26.2506C40.8281 25.9391 41.3545 25.9584 41.666 26.296C41.7018 26.3332 44.4138 29.2009 47.6687 28.9625C48.1248 28.9308 48.5259 29.274 48.5589 29.7315C48.592 30.189 48.2489 30.5886 47.79 30.6217C47.6177 30.6341 47.4469 30.6396 47.2787 30.6396" fill="#020505"/>
<path d="M48.0405 36.0242C43.7603 36.0242 40.6143 32.7954 39.7144 31.7564C39.3988 31.3926 39.1908 31.1528 39.2927 30.7242C39.4002 30.2777 39.8495 30.0008 40.2959 30.1096C40.5013 30.1579 40.6708 30.2791 40.7824 30.4403C40.9326 30.6319 44.2123 34.7412 48.6703 34.3319C49.1223 34.2865 49.5329 34.6255 49.5757 35.083C49.617 35.5405 49.2808 35.9456 48.8232 35.9883C48.5587 36.0118 48.2982 36.0242 48.0405 36.0242" fill="#020505"/>
<path d="M47.8075 41.2135C40.7644 41.2135 38.4093 35.8377 38.3101 35.6035C38.1309 35.1804 38.3294 34.6926 38.7524 34.5135C39.1741 34.3343 39.6619 34.5314 39.8411 34.953C39.932 35.1625 42.0088 39.7679 48.2582 39.5419C48.7239 39.5254 49.1015 39.8837 49.1194 40.3426C49.136 40.8014 48.7763 41.1873 48.3174 41.2038C48.1452 41.2093 47.9743 41.2135 47.8075 41.2135" fill="#020505"/>
<path d="M45.6858 19.8381C45.6417 19.8381 45.5962 19.8353 45.5508 19.8271C43.3638 19.4688 42.559 17.8785 42.526 17.8124C42.3234 17.399 42.4929 16.9015 42.9049 16.6989C43.3142 16.4977 43.8075 16.6631 44.0129 17.0682C44.0432 17.1234 44.52 17.9722 45.8195 18.1858C46.2728 18.2602 46.5802 18.6874 46.5057 19.1408C46.4382 19.5487 46.0854 19.8381 45.6858 19.8381Z" fill="#020505"/>
<path d="M46.328 25.3171C43.882 25.3171 41.6261 23.0061 41.5255 22.9014C41.2058 22.5706 41.2155 22.0442 41.5476 21.7259C41.8769 21.4062 42.4034 21.4158 42.7217 21.7466C43.2977 22.3405 45.1181 23.8412 46.6064 23.6359C47.0625 23.5738 47.48 23.8908 47.5434 24.3469C47.6054 24.8017 47.2871 25.2206 46.831 25.284C46.6629 25.306 46.4947 25.3171 46.328 25.3171" fill="#020505"/>
<path d="M47.2787 30.6396C43.4616 30.6396 40.5718 27.5625 40.4464 27.426C40.1336 27.0884 40.1543 26.562 40.4919 26.2506C40.8281 25.9391 41.3545 25.9584 41.666 26.296C41.7018 26.3332 44.4138 29.2009 47.6687 28.9625C48.1248 28.9308 48.5259 29.274 48.5589 29.7315C48.592 30.189 48.2489 30.5886 47.79 30.6217C47.6177 30.6341 47.4469 30.6396 47.2787 30.6396" fill="#020505"/>
<path d="M48.0405 36.0242C43.7603 36.0242 40.6143 32.7954 39.7144 31.7564C39.3988 31.3926 39.1908 31.1528 39.2927 30.7242C39.4002 30.2777 39.8495 30.0008 40.2959 30.1096C40.5013 30.1579 40.6708 30.2791 40.7824 30.4403C40.9326 30.6319 44.2123 34.7412 48.6703 34.3319C49.1223 34.2865 49.5329 34.6255 49.5757 35.083C49.617 35.5405 49.2808 35.9456 48.8232 35.9883C48.5587 36.0118 48.2982 36.0242 48.0405 36.0242" fill="#020505"/>
<path d="M47.8075 41.2135C40.7644 41.2135 38.4093 35.8377 38.3101 35.6035C38.1309 35.1804 38.3294 34.6926 38.7524 34.5135C39.1741 34.3343 39.6619 34.5314 39.8411 34.953C39.932 35.1625 42.0088 39.7679 48.2582 39.5419C48.7239 39.5254 49.1015 39.8837 49.1194 40.3426C49.136 40.8014 48.7763 41.1873 48.3174 41.2038C48.1452 41.2093 47.9743 41.2135 47.8075 41.2135" fill="#020505"/>
</svg>
