<?xml version="1.0" encoding="UTF-8" standalone="no"?>
<svg
   width="101mm"
   height="101mm"
   viewBox="0 0 286.29918 286.29918"
   version="1.2"
   id="svg409"
   sodipodi:docname="Witnet.svg"
   inkscape:version="1.1.1 (3bf5ae0d25, 2021-09-20, custom)"
   xmlns:inkscape="http://www.inkscape.org/namespaces/inkscape"
   xmlns:sodipodi="http://sodipodi.sourceforge.net/DTD/sodipodi-0.dtd"
   xmlns="http://www.w3.org/2000/svg"
   xmlns:svg="http://www.w3.org/2000/svg">
  <sodipodi:namedview
     id="namedview411"
     pagecolor="#ffffff"
     bordercolor="#666666"
     borderopacity="1.0"
     inkscape:pageshadow="2"
     inkscape:pageopacity="0.0"
     inkscape:pagecheckerboard="0"
     inkscape:document-units="pt"
     showgrid="false"
     units="mm"
     inkscape:zoom="2.1706338"
     inkscape:cx="84.076828"
     inkscape:cy="196.48639"
     inkscape:window-width="2560"
     inkscape:window-height="1381"
     inkscape:window-x="0"
     inkscape:window-y="0"
     inkscape:window-maximized="1"
     inkscape:current-layer="layer1" />
  <defs
     id="defs140">
    <clipPath
       id="clip1">
      <path
         d="M 74,124 H 201 V 242 H 74 Z m 0,0"
         id="path2" />
    </clipPath>
    <clipPath
       id="clip2">
      <path
         d="m 147.73828,137.96094 -19.40625,-2.94532 -6.30859,6.89063 -13.71094,-9.65625 -5.70312,10.14844 -1.83985,-5.54297 -2.589842,4.84765 -6.882813,-6.53125 v 10.26563 l -11.453125,3.49219 2.863281,12.17187 -6.699219,16 7.742188,2.91406 -9.277344,22.46094 12.640625,8.09375 0.292969,15.17188 18.94141,2.48437 1.89453,13.53125 23.87109,-11.53906 17.33203,2.65234 6.70313,-12.77343 27.03515,-6.58204 -2.0625,-14.66015 19.29297,-5.53516 -9.51953,-22.78515 8.35938,-7.82032 -10.40625,-24.14453 -23.98047,2.48047 6.21875,-16.44531 z m 0,0"
         id="path5" />
    </clipPath>
    <clipPath
       id="clip3">
      <path
         d="m 154,183 h 27 v 27 h -27 z m 0,0"
         id="path8" />
    </clipPath>
    <clipPath
       id="clip4">
      <path
         d="m 147.73828,137.96094 -19.40625,-2.94532 -6.30859,6.89063 -13.71094,-9.65625 -5.70312,10.14844 -1.83985,-5.54297 -2.589842,4.84765 -6.882813,-6.53125 v 10.26563 l -11.453125,3.49219 2.863281,12.17187 -6.699219,16 7.742188,2.91406 -9.277344,22.46094 12.640625,8.09375 0.292969,15.17188 18.94141,2.48437 1.89453,13.53125 23.87109,-11.53906 17.33203,2.65234 6.70313,-12.77343 27.03515,-6.58204 -2.0625,-14.66015 19.29297,-5.53516 -9.51953,-22.78515 8.35938,-7.82032 -10.40625,-24.14453 -23.98047,2.48047 6.21875,-16.44531 z m 0,0"
         id="path11" />
    </clipPath>
    <clipPath
       id="clip5">
      <path
         d="m 171,190 h 12 v 7 h -12 z m 0,0"
         id="path14" />
    </clipPath>
    <clipPath
       id="clip6">
      <path
         d="m 147.73828,137.96094 -19.40625,-2.94532 -6.30859,6.89063 -13.71094,-9.65625 -5.70312,10.14844 -1.83985,-5.54297 -2.589842,4.84765 -6.882813,-6.53125 v 10.26563 l -11.453125,3.49219 2.863281,12.17187 -6.699219,16 7.742188,2.91406 -9.277344,22.46094 12.640625,8.09375 0.292969,15.17188 18.94141,2.48437 1.89453,13.53125 23.87109,-11.53906 17.33203,2.65234 6.70313,-12.77343 27.03515,-6.58204 -2.0625,-14.66015 19.29297,-5.53516 -9.51953,-22.78515 8.35938,-7.82032 -10.40625,-24.14453 -23.98047,2.48047 6.21875,-16.44531 z m 0,0"
         id="path17" />
    </clipPath>
    <clipPath
       id="clip7">
      <path
         d="m 99,203 h 63 v 20 H 99 Z m 0,0"
         id="path20" />
    </clipPath>
    <clipPath
       id="clip8">
      <path
         d="m 147.73828,137.96094 -19.40625,-2.94532 -6.30859,6.89063 -13.71094,-9.65625 -5.70312,10.14844 -1.83985,-5.54297 -2.589842,4.84765 -6.882813,-6.53125 v 10.26563 l -11.453125,3.49219 2.863281,12.17187 -6.699219,16 7.742188,2.91406 -9.277344,22.46094 12.640625,8.09375 0.292969,15.17188 18.94141,2.48437 1.89453,13.53125 23.87109,-11.53906 17.33203,2.65234 6.70313,-12.77343 27.03515,-6.58204 -2.0625,-14.66015 19.29297,-5.53516 -9.51953,-22.78515 8.35938,-7.82032 -10.40625,-24.14453 -23.98047,2.48047 6.21875,-16.44531 z m 0,0"
         id="path23" />
    </clipPath>
    <clipPath
       id="clip9">
      <path
         d="m 95,200 h 70 v 27 H 95 Z m 0,0"
         id="path26" />
    </clipPath>
    <clipPath
       id="clip10">
      <path
         d="m 147.73828,137.96094 -19.40625,-2.94532 -6.30859,6.89063 -13.71094,-9.65625 -5.70312,10.14844 -1.83985,-5.54297 -2.589842,4.84765 -6.882813,-6.53125 v 10.26563 l -11.453125,3.49219 2.863281,12.17187 -6.699219,16 7.742188,2.91406 -9.277344,22.46094 12.640625,8.09375 0.292969,15.17188 18.94141,2.48437 1.89453,13.53125 23.87109,-11.53906 17.33203,2.65234 6.70313,-12.77343 27.03515,-6.58204 -2.0625,-14.66015 19.29297,-5.53516 -9.51953,-22.78515 8.35938,-7.82032 -10.40625,-24.14453 -23.98047,2.48047 6.21875,-16.44531 z m 0,0"
         id="path29" />
    </clipPath>
    <clipPath
       id="clip11">
      <path
         d="m 122,208 h 36 v 15 h -36 z m 0,0"
         id="path32" />
    </clipPath>
    <clipPath
       id="clip12">
      <path
         d="m 99.113281,205.21875 c 6.304689,3.08203 11.277349,8.34375 14.210939,12.00781 2.58594,3.22656 6.47266,5.22266 10.60547,5.15235 18.32031,-0.32032 38.3789,-19.25 38.3789,-19.25 -38.8789,13.4375 -63.195309,2.08984 -63.195309,2.08984"
         id="path35" />
    </clipPath>
    <clipPath
       id="clip13">
      <path
         d="m 120,206 h 40 v 17 h -40 z m 0,0"
         id="path38" />
    </clipPath>
    <clipPath
       id="clip14">
      <path
         d="m 99.113281,205.21875 c 6.304689,3.08203 11.277349,8.34375 14.210939,12.00781 2.58594,3.22656 6.47266,5.22266 10.60547,5.15235 18.32031,-0.32032 38.3789,-19.25 38.3789,-19.25 -38.8789,13.4375 -63.195309,2.08984 -63.195309,2.08984"
         id="path41" />
    </clipPath>
    <clipPath
       id="clip15">
      <path
         d="m 119,207 h 22 v 9 h -22 z m 0,0"
         id="path44" />
    </clipPath>
    <clipPath
       id="clip16">
      <path
         d="m 147.73828,137.96094 -19.40625,-2.94532 -6.30859,6.89063 -13.71094,-9.65625 -5.70312,10.14844 -1.83985,-5.54297 -2.589842,4.84765 -6.882813,-6.53125 v 10.26563 l -11.453125,3.49219 2.863281,12.17187 -6.699219,16 7.742188,2.91406 -9.277344,22.46094 12.640625,8.09375 0.292969,15.17188 18.94141,2.48437 1.89453,13.53125 23.87109,-11.53906 17.33203,2.65234 6.70313,-12.77343 27.03515,-6.58204 -2.0625,-14.66015 19.29297,-5.53516 -9.51953,-22.78515 8.35938,-7.82032 -10.40625,-24.14453 -23.98047,2.48047 6.21875,-16.44531 z m 0,0"
         id="path47" />
    </clipPath>
    <clipPath
       id="clip17">
      <path
         d="m 117,205 h 26 v 13 h -26 z m 0,0"
         id="path50" />
    </clipPath>
    <clipPath
       id="clip18">
      <path
         d="m 147.73828,137.96094 -19.40625,-2.94532 -6.30859,6.89063 -13.71094,-9.65625 -5.70312,10.14844 -1.83985,-5.54297 -2.589842,4.84765 -6.882813,-6.53125 v 10.26563 l -11.453125,3.49219 2.863281,12.17187 -6.699219,16 7.742188,2.91406 -9.277344,22.46094 12.640625,8.09375 0.292969,15.17188 18.94141,2.48437 1.89453,13.53125 23.87109,-11.53906 17.33203,2.65234 6.70313,-12.77343 27.03515,-6.58204 -2.0625,-14.66015 19.29297,-5.53516 -9.51953,-22.78515 8.35938,-7.82032 -10.40625,-24.14453 -23.98047,2.48047 6.21875,-16.44531 z m 0,0"
         id="path53" />
    </clipPath>
    <clipPath
       id="clip19">
      <path
         d="m 92,203 h 20 v 12 H 92 Z m 0,0"
         id="path56" />
    </clipPath>
    <clipPath
       id="clip20">
      <path
         d="m 147.73828,137.96094 -19.40625,-2.94532 -6.30859,6.89063 -13.71094,-9.65625 -5.70312,10.14844 -1.83985,-5.54297 -2.589842,4.84765 -6.882813,-6.53125 v 10.26563 l -11.453125,3.49219 2.863281,12.17187 -6.699219,16 7.742188,2.91406 -9.277344,22.46094 12.640625,8.09375 0.292969,15.17188 18.94141,2.48437 1.89453,13.53125 23.87109,-11.53906 17.33203,2.65234 6.70313,-12.77343 27.03515,-6.58204 -2.0625,-14.66015 19.29297,-5.53516 -9.51953,-22.78515 8.35938,-7.82032 -10.40625,-24.14453 -23.98047,2.48047 6.21875,-16.44531 z m 0,0"
         id="path59" />
    </clipPath>
    <clipPath
       id="clip21">
      <path
         d="m 90,201 h 24 v 16 H 90 Z m 0,0"
         id="path62" />
    </clipPath>
    <clipPath
       id="clip22">
      <path
         d="m 147.73828,137.96094 -19.40625,-2.94532 -6.30859,6.89063 -13.71094,-9.65625 -5.70312,10.14844 -1.83985,-5.54297 -2.589842,4.84765 -6.882813,-6.53125 v 10.26563 l -11.453125,3.49219 2.863281,12.17187 -6.699219,16 7.742188,2.91406 -9.277344,22.46094 12.640625,8.09375 0.292969,15.17188 18.94141,2.48437 1.89453,13.53125 23.87109,-11.53906 17.33203,2.65234 6.70313,-12.77343 27.03515,-6.58204 -2.0625,-14.66015 19.29297,-5.53516 -9.51953,-22.78515 8.35938,-7.82032 -10.40625,-24.14453 -23.98047,2.48047 6.21875,-16.44531 z m 0,0"
         id="path65" />
    </clipPath>
    <clipPath
       id="clip23">
      <path
         d="m 84,183 h 74 v 25 H 84 Z m 0,0"
         id="path68" />
    </clipPath>
    <clipPath
       id="clip24">
      <path
         d="m 147.73828,137.96094 -19.40625,-2.94532 -6.30859,6.89063 -13.71094,-9.65625 -5.70312,10.14844 -1.83985,-5.54297 -2.589842,4.84765 -6.882813,-6.53125 v 10.26563 l -11.453125,3.49219 2.863281,12.17187 -6.699219,16 7.742188,2.91406 -9.277344,22.46094 12.640625,8.09375 0.292969,15.17188 18.94141,2.48437 1.89453,13.53125 23.87109,-11.53906 17.33203,2.65234 6.70313,-12.77343 27.03515,-6.58204 -2.0625,-14.66015 19.29297,-5.53516 -9.51953,-22.78515 8.35938,-7.82032 -10.40625,-24.14453 -23.98047,2.48047 6.21875,-16.44531 z m 0,0"
         id="path71" />
    </clipPath>
    <clipPath
       id="clip25">
      <path
         d="m 82,181 h 86 v 30 H 82 Z m 0,0"
         id="path74" />
    </clipPath>
    <clipPath
       id="clip26">
      <path
         d="m 147.73828,137.96094 -19.40625,-2.94532 -6.30859,6.89063 -13.71094,-9.65625 -5.70312,10.14844 -1.83985,-5.54297 -2.589842,4.84765 -6.882813,-6.53125 v 10.26563 l -11.453125,3.49219 2.863281,12.17187 -6.699219,16 7.742188,2.91406 -9.277344,22.46094 12.640625,8.09375 0.292969,15.17188 18.94141,2.48437 1.89453,13.53125 23.87109,-11.53906 17.33203,2.65234 6.70313,-12.77343 27.03515,-6.58204 -2.0625,-14.66015 19.29297,-5.53516 -9.51953,-22.78515 8.35938,-7.82032 -10.40625,-24.14453 -23.98047,2.48047 6.21875,-16.44531 z m 0,0"
         id="path77" />
    </clipPath>
    <clipPath
       id="clip27">
      <path
         d="m 119,190 h 7 v 4 h -7 z m 0,0"
         id="path80" />
    </clipPath>
    <clipPath
       id="clip28">
      <path
         d="m 147.73828,137.96094 -19.40625,-2.94532 -6.30859,6.89063 -13.71094,-9.65625 -5.70312,10.14844 -1.83985,-5.54297 -2.589842,4.84765 -6.882813,-6.53125 v 10.26563 l -11.453125,3.49219 2.863281,12.17187 -6.699219,16 7.742188,2.91406 -9.277344,22.46094 12.640625,8.09375 0.292969,15.17188 18.94141,2.48437 1.89453,13.53125 23.87109,-11.53906 17.33203,2.65234 6.70313,-12.77343 27.03515,-6.58204 -2.0625,-14.66015 19.29297,-5.53516 -9.51953,-22.78515 8.35938,-7.82032 -10.40625,-24.14453 -23.98047,2.48047 6.21875,-16.44531 z m 0,0"
         id="path83" />
    </clipPath>
    <clipPath
       id="clip29">
      <path
         d="m 102,190 h 7 v 4 h -7 z m 0,0"
         id="path86" />
    </clipPath>
    <clipPath
       id="clip30">
      <path
         d="m 147.73828,137.96094 -19.40625,-2.94532 -6.30859,6.89063 -13.71094,-9.65625 -5.70312,10.14844 -1.83985,-5.54297 -2.589842,4.84765 -6.882813,-6.53125 v 10.26563 l -11.453125,3.49219 2.863281,12.17187 -6.699219,16 7.742188,2.91406 -9.277344,22.46094 12.640625,8.09375 0.292969,15.17188 18.94141,2.48437 1.89453,13.53125 23.87109,-11.53906 17.33203,2.65234 6.70313,-12.77343 27.03515,-6.58204 -2.0625,-14.66015 19.29297,-5.53516 -9.51953,-22.78515 8.35938,-7.82032 -10.40625,-24.14453 -23.98047,2.48047 6.21875,-16.44531 z m 0,0"
         id="path89" />
    </clipPath>
    <clipPath
       id="clip31">
      <path
         d="m 91,171 h 22 v 10 H 91 Z m 0,0"
         id="path92" />
    </clipPath>
    <clipPath
       id="clip32">
      <path
         d="m 147.73828,137.96094 -19.40625,-2.94532 -6.30859,6.89063 -13.71094,-9.65625 -5.70312,10.14844 -1.83985,-5.54297 -2.589842,4.84765 -6.882813,-6.53125 v 10.26563 l -11.453125,3.49219 2.863281,12.17187 -6.699219,16 7.742188,2.91406 -9.277344,22.46094 12.640625,8.09375 0.292969,15.17188 18.94141,2.48437 1.89453,13.53125 23.87109,-11.53906 17.33203,2.65234 6.70313,-12.77343 27.03515,-6.58204 -2.0625,-14.66015 19.29297,-5.53516 -9.51953,-22.78515 8.35938,-7.82032 -10.40625,-24.14453 -23.98047,2.48047 6.21875,-16.44531 z m 0,0"
         id="path95" />
    </clipPath>
    <clipPath
       id="clip33">
      <path
         d="m 101,165 h 12 v 8 h -12 z m 0,0"
         id="path98" />
    </clipPath>
    <clipPath
       id="clip34">
      <path
         d="m 147.73828,137.96094 -19.40625,-2.94532 -6.30859,6.89063 -13.71094,-9.65625 -5.70312,10.14844 -1.83985,-5.54297 -2.589842,4.84765 -6.882813,-6.53125 v 10.26563 l -11.453125,3.49219 2.863281,12.17187 -6.699219,16 7.742188,2.91406 -9.277344,22.46094 12.640625,8.09375 0.292969,15.17188 18.94141,2.48437 1.89453,13.53125 23.87109,-11.53906 17.33203,2.65234 6.70313,-12.77343 27.03515,-6.58204 -2.0625,-14.66015 19.29297,-5.53516 -9.51953,-22.78515 8.35938,-7.82032 -10.40625,-24.14453 -23.98047,2.48047 6.21875,-16.44531 z m 0,0"
         id="path101" />
    </clipPath>
    <clipPath
       id="clip35">
      <path
         d="m 137,154 h 27 v 38 h -27 z m 0,0"
         id="path104" />
    </clipPath>
    <clipPath
       id="clip36">
      <path
         d="m 147.73828,137.96094 -19.40625,-2.94532 -6.30859,6.89063 -13.71094,-9.65625 -5.70312,10.14844 -1.83985,-5.54297 -2.589842,4.84765 -6.882813,-6.53125 v 10.26563 l -11.453125,3.49219 2.863281,12.17187 -6.699219,16 7.742188,2.91406 -9.277344,22.46094 12.640625,8.09375 0.292969,15.17188 18.94141,2.48437 1.89453,13.53125 23.87109,-11.53906 17.33203,2.65234 6.70313,-12.77343 27.03515,-6.58204 -2.0625,-14.66015 19.29297,-5.53516 -9.51953,-22.78515 8.35938,-7.82032 -10.40625,-24.14453 -23.98047,2.48047 6.21875,-16.44531 z m 0,0"
         id="path107" />
    </clipPath>
    <clipPath
       id="clip37">
      <path
         d="m 135,153 h 31 v 41 h -31 z m 0,0"
         id="path110" />
    </clipPath>
    <clipPath
       id="clip38">
      <path
         d="m 147.73828,137.96094 -19.40625,-2.94532 -6.30859,6.89063 -13.71094,-9.65625 -5.70312,10.14844 -1.83985,-5.54297 -2.589842,4.84765 -6.882813,-6.53125 v 10.26563 l -11.453125,3.49219 2.863281,12.17187 -6.699219,16 7.742188,2.91406 -9.277344,22.46094 12.640625,8.09375 0.292969,15.17188 18.94141,2.48437 1.89453,13.53125 23.87109,-11.53906 17.33203,2.65234 6.70313,-12.77343 27.03515,-6.58204 -2.0625,-14.66015 19.29297,-5.53516 -9.51953,-22.78515 8.35938,-7.82032 -10.40625,-24.14453 -23.98047,2.48047 6.21875,-16.44531 z m 0,0"
         id="path113" />
    </clipPath>
    <clipPath
       id="clip39">
      <path
         d="m 143,162 h 13 v 26 h -13 z m 0,0"
         id="path116" />
    </clipPath>
    <clipPath
       id="clip40">
      <path
         d="m 147.73828,137.96094 -19.40625,-2.94532 -6.30859,6.89063 -13.71094,-9.65625 -5.70312,10.14844 -1.83985,-5.54297 -2.589842,4.84765 -6.882813,-6.53125 v 10.26563 l -11.453125,3.49219 2.863281,12.17187 -6.699219,16 7.742188,2.91406 -9.277344,22.46094 12.640625,8.09375 0.292969,15.17188 18.94141,2.48437 1.89453,13.53125 23.87109,-11.53906 17.33203,2.65234 6.70313,-12.77343 27.03515,-6.58204 -2.0625,-14.66015 19.29297,-5.53516 -9.51953,-22.78515 8.35938,-7.82032 -10.40625,-24.14453 -23.98047,2.48047 6.21875,-16.44531 z m 0,0"
         id="path119" />
    </clipPath>
    <clipPath
       id="clip41">
      <path
         d="m 142,160 h 16 v 30 h -16 z m 0,0"
         id="path122" />
    </clipPath>
    <clipPath
       id="clip42">
      <path
         d="m 147.73828,137.96094 -19.40625,-2.94532 -6.30859,6.89063 -13.71094,-9.65625 -5.70312,10.14844 -1.83985,-5.54297 -2.589842,4.84765 -6.882813,-6.53125 v 10.26563 l -11.453125,3.49219 2.863281,12.17187 -6.699219,16 7.742188,2.91406 -9.277344,22.46094 12.640625,8.09375 0.292969,15.17188 18.94141,2.48437 1.89453,13.53125 23.87109,-11.53906 17.33203,2.65234 6.70313,-12.77343 27.03515,-6.58204 -2.0625,-14.66015 19.29297,-5.53516 -9.51953,-22.78515 8.35938,-7.82032 -10.40625,-24.14453 -23.98047,2.48047 6.21875,-16.44531 z m 0,0"
         id="path125" />
    </clipPath>
    <clipPath
       id="clip43">
      <path
         d="m 147,168 h 11 v 11 h -11 z m 0,0"
         id="path128" />
    </clipPath>
    <clipPath
       id="clip44">
      <path
         d="m 147.73828,137.96094 -19.40625,-2.94532 -6.30859,6.89063 -13.71094,-9.65625 -5.70312,10.14844 -1.83985,-5.54297 -2.589842,4.84765 -6.882813,-6.53125 v 10.26563 l -11.453125,3.49219 2.863281,12.17187 -6.699219,16 7.742188,2.91406 -9.277344,22.46094 12.640625,8.09375 0.292969,15.17188 18.94141,2.48437 1.89453,13.53125 23.87109,-11.53906 17.33203,2.65234 6.70313,-12.77343 27.03515,-6.58204 -2.0625,-14.66015 19.29297,-5.53516 -9.51953,-22.78515 8.35938,-7.82032 -10.40625,-24.14453 -23.98047,2.48047 6.21875,-16.44531 z m 0,0"
         id="path131" />
    </clipPath>
    <clipPath
       id="clip45">
      <path
         d="m 113,226 h 17 v 8 h -17 z m 0,0"
         id="path134" />
    </clipPath>
    <clipPath
       id="clip46">
      <path
         d="m 147.73828,137.96094 -19.40625,-2.94532 -6.30859,6.89063 -13.71094,-9.65625 -5.70312,10.14844 -1.83985,-5.54297 -2.589842,4.84765 -6.882813,-6.53125 v 10.26563 l -11.453125,3.49219 2.863281,12.17187 -6.699219,16 7.742188,2.91406 -9.277344,22.46094 12.640625,8.09375 0.292969,15.17188 18.94141,2.48437 1.89453,13.53125 23.87109,-11.53906 17.33203,2.65234 6.70313,-12.77343 27.03515,-6.58204 -2.0625,-14.66015 19.29297,-5.53516 -9.51953,-22.78515 8.35938,-7.82032 -10.40625,-24.14453 -23.98047,2.48047 6.21875,-16.44531 z m 0,0"
         id="path137" />
    </clipPath>
  </defs>
  <g
     inkscape:groupmode="layer"
     id="layer1"
     inkscape:label="F.Cu"
     style="display:inline">
    <path
       style="display:inline;fill:#ffffff;fill-opacity:1;fill-rule:nonzero;stroke:none"
       d="m 143.15156,1.4171823 h -0.004 C 64.874215,1.4171823 1.4171838,64.870308 1.4171838,143.14765 v 121.94531 c 0,10.92578 8.8593752,19.78907 19.7890632,19.78907 H 265.09297 c 10.92968,0 19.78906,-8.86329 19.78906,-19.78907 V 143.14765 C 284.88203,64.870308 221.425,1.4171823 143.15156,1.4171823"
       id="path2122" />
    <path
       id="path160"
       style="display:inline;fill:#e6e6e6;fill-opacity:1;fill-rule:nonzero;stroke:none;stroke-width:1.33333"
       d="M 141.73438 129.99023 L 140.1582 130 L 138.96094 130.03906 L 137.93164 130.10352 L 140.53516 145.38867 L 139.09375 144.45508 L 137.67383 143.625 L 136.27734 142.89258 L 134.90625 142.25391 L 133.56055 141.70117 L 132.24219 141.23438 L 130.95508 140.8457 L 129.69727 140.53125 L 128.47461 140.28711 L 127.28516 140.10742 L 126.13086 139.98633 L 125.01562 139.91992 L 123.93945 139.9043 L 122.90234 139.93359 L 121.9082 140.00391 L 120.95898 140.10938 L 120.05469 140.24609 L 119.19531 140.4082 L 118.38672 140.58984 L 117.62695 140.79102 L 116.91992 141.00195 L 116.26562 141.2207 L 115.12305 141.66016 L 114.21289 142.06641 L 113.54688 142.40625 L 112.99805 142.72266 L 116.40039 157.06641 L 115.36328 156.42969 L 114.3125 155.86328 L 113.24805 155.36328 L 112.17578 154.92969 L 111.0957 154.55664 L 110.01562 154.24023 L 108.93359 153.97656 L 107.85742 153.76758 L 106.78711 153.60352 L 105.72656 153.48438 L 104.67969 153.40625 L 103.64844 153.36523 L 102.63672 153.35938 L 101.64844 153.38477 L 100.68555 153.4375 L 99.751953 153.51562 L 98.849609 153.61328 L 97.984375 153.72852 L 96.369141 154 L 94.933594 154.30273 L 93.703125 154.61133 L 92.701172 154.89453 L 91.955078 155.13281 L 91.326172 155.35352 L 93.832031 167.81641 L 84.847656 167.54492 L 75.894531 233.05664 L 85.541016 234.38477 L 81.279297 251.82227 L 88.328125 258.50195 L 99.025391 232.59766 L 91.425781 229.73242 C 90.712239 229.46681 90.134115 228.9147 89.832031 228.2168 C 89.529949 227.50846 89.525375 226.7181 89.822266 226.00977 L 98.400391 205.51953 L 94.791016 190.18164 C 94.452474 188.73372 95.291016 187.27018 96.712891 186.83789 L 109.98828 182.79102 L 109.98828 171.19141 C 109.98828 170.06641 110.65495 169.05144 111.69141 168.60352 C 112.72786 168.16081 113.92643 168.37435 114.74414 169.15039 L 121.23828 175.30664 L 122.94727 172.10742 C 123.47851 171.11264 124.55535 170.5293 125.66992 170.62305 C 126.79492 170.72198 127.75325 171.47722 128.10742 172.54492 L 128.55664 173.88867 L 133.04102 165.91602 C 133.43164 165.21811 134.09701 164.722 134.87305 164.54492 C 135.64909 164.37304 136.4681 164.53062 137.11914 164.99414 L 153.36914 176.44141 L 160.10742 169.08203 C 160.74284 168.38932 161.67513 168.05664 162.60742 168.19727 L 187.51367 171.97266 L 217.79102 154.6543 C 218.82747 154.06576 220.11328 154.1862 221.01953 154.95703 C 221.92578 155.72787 222.24805 156.98308 221.82617 158.09766 L 215.15039 175.75977 L 242.58203 172.91992 C 243.80598 172.78451 244.9733 173.47201 245.46289 174.60742 L 259.33789 206.80078 C 259.81185 207.88931 259.54557 209.16016 258.67578 209.97266 L 248.95703 219.06641 L 260.89453 247.63867 C 261.20182 248.37826 261.18102 249.21811 260.83203 249.94727 C 260.48827 250.67123 259.84311 251.21289 259.07227 251.43164 L 235.70117 258.13477 L 238.11328 275.25391 C 238.3112 276.6914 237.39453 278.04493 235.98828 278.38867 L 201.18164 286.86328 L 192.83203 302.76953 C 192.27474 303.83202 191.10286 304.42643 189.91016 304.24414 L 167.66602 300.83789 L 136.62891 315.8418 C 136.23828 316.02929 135.82226 316.12305 135.40039 316.12305 C 134.94726 316.12305 134.48893 316.01371 134.07227 315.79492 C 133.2806 315.36784 132.73308 314.59311 132.61328 313.69727 L 130.38477 297.7793 L 107.25391 294.74414 C 105.86849 294.56705 104.83203 293.39973 104.80078 292.00391 L 104.44141 273.28516 L 93.09375 266.01758 L 96.041016 284.64062 L 104.60352 287.16992 L 102.23828 314.93164 L 116.06055 310.96289 L 109.87305 329.12891 L 135.07812 320.11914 L 135.51562 330.32617 L 164.8125 319.42578 L 185.32617 326.36328 L 200.12891 307.1543 L 216.45117 308.16992 L 222.08789 298.00391 L 233.85352 301.75391 L 239.10742 290.26953 L 254.6875 293.64062 L 263.46289 275.80078 L 287.16602 271.49414 L 285.60352 259.83203 L 293.17578 257.66016 L 293.53906 246.50977 L 294.69141 246.33008 L 295.80469 246.13281 L 296.88281 245.91797 L 297.92188 245.6875 L 298.92578 245.43945 L 299.89648 245.17383 L 300.83008 244.89453 L 301.73047 244.59961 L 302.59766 244.29297 L 303.43164 243.97266 L 304.23438 243.63867 L 305.00586 243.29297 L 305.74414 242.9375 L 306.45508 242.57031 L 307.13477 242.19531 L 307.78516 241.80859 L 308.4082 241.41602 L 309.00195 241.01562 L 309.57031 240.60742 L 310.11133 240.19336 L 310.62695 239.77344 L 311.11719 239.34766 L 312.02539 238.48633 L 312.83984 237.61523 L 313.56445 236.73633 L 314.20703 235.85742 L 314.77344 234.98242 L 315.26367 234.11914 L 315.6875 233.27344 L 316.04883 232.44727 L 316.35156 231.64844 L 316.59961 230.88281 L 316.80078 230.1543 L 316.95898 229.46875 L 317.07812 228.83398 L 317.16602 228.25195 L 317.22461 227.72852 L 317.2793 226.88672 L 317.2832 226.34961 L 317.27539 226.16016 L 315.79688 226.20898 L 314.36328 226.23242 L 312.97656 226.22852 L 311.63477 226.19922 L 310.33594 226.14453 L 309.08008 226.06445 L 307.86719 225.96484 L 306.69531 225.8418 L 305.56445 225.69727 L 304.47461 225.53125 L 303.42383 225.34766 L 302.41211 225.14453 L 301.4375 224.92383 L 300.5 224.68555 L 299.59961 224.43164 L 298.73633 224.16211 L 297.90625 223.87695 L 297.11133 223.58008 L 296.35156 223.26953 L 295.62305 222.94727 L 294.92578 222.61328 L 294.26172 222.26953 L 293.62891 221.91602 L 293.02344 221.55273 L 292.44922 221.18359 L 291.90234 220.80859 L 291.38477 220.42578 L 290.89258 220.03711 L 289.99023 219.25 L 289.18555 218.45117 L 288.47656 217.64844 L 287.85352 216.84766 L 287.3125 216.05664 L 286.84961 215.2832 L 286.45508 214.53125 L 286.12891 213.81055 L 285.85938 213.12695 L 285.64258 212.48438 L 285.47266 211.89453 L 285.3457 211.35938 L 285.19141 210.49023 L 285.13281 209.92773 L 285.12305 209.72852 L 294.93164 183.03906 L 294.6875 182.44531 L 294.40234 181.86719 L 294.08008 181.30859 L 293.7207 180.76367 L 293.32617 180.23633 L 292.89453 179.72461 L 292.43164 179.23047 L 291.9375 178.75195 L 291.41406 178.28906 L 290.85938 177.8418 L 290.2793 177.4082 L 289.67188 176.99023 L 289.03906 176.58594 L 288.38477 176.19727 L 287.70898 175.82227 L 287.01367 175.46094 L 285.56445 174.77734 L 284.05078 174.14648 L 282.48438 173.56445 L 280.87695 173.0332 L 279.23633 172.54688 L 277.57617 172.10352 L 275.91016 171.70312 L 274.24414 171.3418 L 272.59375 171.01758 L 270.9668 170.72852 L 269.37695 170.47461 L 267.83594 170.25195 L 264.93945 169.89258 L 262.36914 169.63672 L 260.21289 169.46484 L 258.5625 169.36328 L 257.13477 169.30078 L 262.86914 159.46289 L 262.15234 158.59766 L 261.41406 157.76758 L 260.6543 156.97656 L 259.87109 156.2168 L 259.07031 155.49414 L 258.25195 154.80273 L 257.41602 154.14453 L 256.56445 153.51953 L 255.69531 152.92578 L 254.81445 152.36133 L 253.91992 151.82617 L 253.01367 151.32227 L 252.0957 150.8457 L 251.16992 150.39648 L 250.23438 149.97266 L 249.29297 149.57812 L 248.3418 149.20703 L 247.38867 148.86133 L 246.42969 148.53906 L 245.46875 148.24219 L 244.50391 147.96484 L 243.53906 147.71094 L 241.61133 147.26562 L 239.69141 146.89844 L 237.79297 146.60352 L 235.91797 146.37695 L 234.07812 146.20898 L 232.2832 146.09766 L 230.54102 146.03516 L 228.85938 146.01758 L 227.25 146.03516 L 225.71875 146.08789 L 224.27539 146.16602 L 222.92578 146.26172 L 221.68359 146.375 L 219.54688 146.61914 L 217.93555 146.85156 L 216.91602 147.02344 L 216.56055 147.09375 L 222.10352 136.59375 L 221.08594 136.11719 L 220.05273 135.67969 L 219.00781 135.2793 L 217.95117 134.91602 L 216.88477 134.58594 L 215.80664 134.29297 L 214.71875 134.03125 L 213.62305 133.80273 L 212.52344 133.60547 L 211.41406 133.43945 L 210.30078 133.30078 L 209.18164 133.19336 L 208.06055 133.11133 L 206.9375 133.05469 L 205.8125 133.02539 L 204.6875 133.01953 L 203.56055 133.03906 L 202.4375 133.08008 L 201.31641 133.14062 L 200.19727 133.22461 L 197.97656 133.44727 L 195.7793 133.74023 L 193.61523 134.0957 L 191.49023 134.50586 L 189.41406 134.96484 L 187.39258 135.46094 L 185.43555 135.98633 L 183.54688 136.53711 L 181.73828 137.10156 L 180.01562 137.67383 L 178.38867 138.24609 L 176.85938 138.80859 L 175.44336 139.35742 L 174.14062 139.88086 L 171.91992 140.82227 L 170.25781 141.57422 L 169.21484 142.06836 L 168.85352 142.25 L 168.49805 141.58984 L 168.12109 140.95703 L 167.72266 140.3457 L 167.30078 139.75781 L 166.86133 139.19141 L 166.40039 138.64844 L 165.92188 138.125 L 165.42578 137.62305 L 164.91406 137.14258 L 164.38477 136.68359 L 163.8418 136.24219 L 163.28711 135.82227 L 162.7168 135.41797 L 162.13477 135.03516 L 161.54102 134.66992 L 160.93945 134.32227 L 159.70508 133.67773 L 158.44336 133.09961 L 157.1582 132.58203 L 155.85938 132.125 L 154.54883 131.72266 L 153.24219 131.37305 L 151.93945 131.07227 L 150.65234 130.81641 L 149.38477 130.60352 L 148.14844 130.42773 L 146.94727 130.28711 L 145.78711 130.17773 L 144.68164 130.09766 L 143.63086 130.04102 L 141.73438 129.99023 z "
       transform="scale(0.75)" />
    <path
       id="path172"
       style="clip-rule:nonzero;display:inline;fill:#e6e6e6;fill-opacity:1;fill-rule:nonzero;stroke:none;stroke-width:1.33333"
       d="m 215.10742,235.68555 c -3.85111,-0.059 -7.58876,1.19535 -10.61914,3.48242 -1.15336,1.43618 -2.42776,2.76082 -3.79101,3.94726 -8.2e-4,0.001 -0.001,0.003 -0.002,0.004 -0.75344,1.09576 -1.39101,2.2974 -1.88867,3.59375 -0.60602,1.58012 -0.95923,3.19369 -1.08594,4.79883 4.4791,-0.63853 9.12717,-2.24359 13.86719,-4.81445 3.50521,-1.90104 5.74415,-3.66146 7.25977,-5.71875 0.889,-1.19737 1.56271,-2.58059 2.17382,-4.14063 -0.009,-0.004 -0.018,-0.008 -0.0273,-0.0117 -1.93685,-0.74284 -3.92634,-1.11058 -5.88672,-1.14062 z m 10.21875,3.57226 c -0.6717,1.61259 -1.48253,3.19052 -2.54687,4.63086 -0.18574,0.2515 -0.38582,0.48433 -0.58203,0.72266 1.56061,-0.15858 3.57042,0.13564 5.6289,0.92383 1.22987,0.47252 2.33216,1.06335 3.24414,1.71093 -1.08303,-3.12298 -3.05923,-5.91916 -5.74414,-7.98828 z m -6,8.20117 c -1.81658,1.48694 -3.74152,2.63162 -5.40625,3.53516 -2.15438,1.16887 -4.29661,2.1381 -6.42578,2.95117 0.78564,-1e-5 1.5552,0.37315 2.02539,1.06836 l 2.25,3.32422 c 0.16667,0.24479 0.2819,0.51562 0.34961,0.79688 0.375,0.5052 0.70182,0.89518 0.94141,1.10351 1.00521,0.23959 1.78776,1.10872 1.87109,2.19727 0.10413,1.34374 -0.90624,2.52213 -2.25,2.62109 -0.70833,0.0625 -1.95312,0.1556 -4.09375,-2.47461 -2.21717,0.62862 -4.38112,1.20879 -6.51562,1.76172 1.75872,1.95908 3.99241,3.54335 6.61914,4.55078 8.85416,3.40104 18.78646,-1.02148 22.1875,-9.88086 0.75345,-1.96451 1.1203,-3.98086 1.14062,-5.96875 -1.63241,0.5212 -4.18253,0.31095 -6.80664,-0.69726 -3.13634,-1.2009 -5.42715,-3.18187 -5.88672,-4.88868 z m -13.41601,7.07618 c -2.65247,0.90558 -5.27846,1.52951 -7.86719,1.87109 0.26213,1.23392 0.65449,2.435 1.17578,3.57813 2.32651,-0.57525 4.5557,-1.14686 6.54102,-1.69336 -0.13542,-0.23438 -0.27084,-0.47917 -0.40625,-0.73438 -0.56005,-1.02674 -0.30358,-2.28022 0.55664,-3.02148 z m 6.39648,5.64648 h 0.004 z"
       transform="scale(0.75)" />
    <path
       style="display:inline;fill:#e6e6e6;fill-opacity:1;fill-rule:nonzero;stroke:none"
       d="m 57.557809,74.526558 4.046875,3.679687 5.324219,-1.246094 c 2.554687,-0.597656 4.683594,1.988281 3.605468,4.378907 l -2.25,4.984374 2.832032,4.679688 c 1.355468,2.24609 -0.449219,5.07031 -3.054688,4.78516 l -5.433594,-0.60157 -3.578124,4.14063 c -1.714844,1.98437 -4.957032,1.14062 -5.492188,-1.42578 l -1.109375,-5.359378 -5.039063,-2.121093 c -2.417968,-1.015625 -2.617187,-4.363281 -0.339843,-5.660157 l 4.75,-2.710937 0.460937,-5.449219 c 0.21875,-2.613281 3.339844,-3.839844 5.277344,-2.074218"
       id="path344" />
    <path
       style="display:inline;fill:#e6e6e6;fill-opacity:1;fill-rule:nonzero;stroke:none"
       d="m 165.44062,52.921089 1.28906,3.210937 3.37891,0.761719 c 1.62109,0.363281 2.12109,2.425781 0.84766,3.488281 l -2.66016,2.222656 0.32422,3.449219 c 0.15234,1.652344 -1.65625,2.765625 -3.0625,1.882813 l -2.92969,-1.84375 -3.17969,1.371094 c -1.52734,0.660156 -3.14453,-0.714844 -2.73828,-2.324219 l 0.84375,-3.359375 -2.28515,-2.601563 c -1.09766,-1.246093 -0.28907,-3.207031 1.36718,-3.320312 l 3.45704,-0.234375 1.76562,-2.980469 c 0.84766,-1.425781 2.96094,-1.265625 3.58203,0.277344"
       id="path346" />
    <path
       style="display:inline;fill:#e6e6e6;fill-opacity:1;fill-rule:nonzero;stroke:none"
       d="m 143.15156,1.4171823 h -0.004 C 64.874215,1.4171823 1.4171838,64.870308 1.4171838,143.14765 v 121.94531 c 0,10.92578 8.8593752,19.78907 19.7890632,19.78907 H 265.09297 c 10.92968,0 19.78906,-8.86329 19.78906,-19.78907 V 143.14765 C 284.88203,64.870308 221.425,1.4171823 143.15156,1.4171823 m 0,4 c 36.78906,0 71.375,14.3242187 97.39062,40.3398437 26.01172,26.015625 40.33985,60.601564 40.33985,97.390624 v 121.94531 c 0,8.70703 -7.08203,15.78907 -15.78906,15.78907 H 21.206247 c -8.707032,0 -15.7890632,-7.08204 -15.7890632,-15.78907 V 143.14765 c 0,-36.78906 14.3281252,-71.374999 40.3398442,-97.390624 C 71.772653,19.741401 106.35859,5.4171823 143.15156,5.4171823"
       id="path150" />
    <path
       style="display:inline;fill:#e6e6e6;fill-opacity:1;fill-rule:nonzero;stroke:none"
       d="m 257.13203,255.35078 h 3.18359 v 3.18359 h -3.18359 z m 0,0"
       id="path362" />
    <path
       id="path314"
       style="display:inline;fill:#e6e6e6;fill-opacity:1;fill-rule:nonzero;stroke:none;stroke-width:1.33333"
       d="m 167.61914,63.482422 c -0.27604,-0.04688 -0.29167,0.115888 -0.32812,0.246094 l -20.1836,85.812504 c -0.10413,0.43229 0.0267,0.88411 0.33399,1.17578 2.19792,2.11457 7.58399,5.66275 18.89648,5.68359 h 0.0566 c 11.59896,0 15.9642,-5.55859 17.30274,-7.94922 0.14584,-0.25 0.19204,-0.55208 0.13476,-0.84375 L 167.91602,63.650391 c -0.0107,-0.03645 -0.0364,-0.162761 -0.29688,-0.167969 z"
       transform="scale(0.75)" />
    <path
       style="display:inline;fill:#e6e6e6;fill-opacity:1;fill-rule:nonzero;stroke:none"
       d="m 143.15156,17.28437 c -69.402345,0 -125.863282,56.464844 -125.863282,125.86328 v 110.01172 c 0,8.73828 7.109375,15.85156 15.851562,15.85156 h 220.01953 c 8.74219,0 15.85156,-7.11328 15.85156,-15.85156 V 143.14765 C 269.01093,73.749214 212.55,17.28437 143.15156,17.28437 M 253.15937,273.01093 H 33.13984 c -10.945312,0 -19.851562,-8.90625 -19.851562,-19.85156 V 143.14765 c 0,-71.605468 58.257812,-129.86328 129.863282,-129.86328 71.60547,0 129.85937,58.257812 129.85937,129.86328 v 110.01172 c 0,10.94531 -8.90625,19.85156 -19.85156,19.85156"
       id="path152" />
    <path
       style="display:inline;fill:#e6e6e6;fill-opacity:1;fill-rule:nonzero;stroke:none"
       d="m 265.32734,103.4289 -55.79297,-35.05078 -12.64453,3.613281 -57.21875,42.890629 1.21484,9.35937 51.48438,-33.734374 11.74219,8.582034 4.96875,-1.35547 5.42187,-16.257814 15.35547,25.593754 5.41797,-13.39844 18.96875,10.38672 12.67969,6.90625"
       id="path154" />
    <path
       style="display:inline;fill:#e6e6e6;fill-opacity:1;fill-rule:nonzero;stroke:none"
       d="m 89.88984,92.397651 c -0.847656,0 -1.675781,-0.433593 -2.144531,-1.210937 -0.710938,-1.183594 -0.332031,-2.71875 0.851562,-3.433594 l 9.851568,-5.9375 c 1.18359,-0.710938 2.722651,-0.332031 3.433591,0.851562 0.71094,1.183594 0.33203,2.71875 -0.85156,3.429688 l -9.851567,5.941406 c -0.40625,0.242188 -0.851563,0.359375 -1.289063,0.359375"
       id="path364" />
    <path
       style="display:inline;fill:#e6e6e6;fill-opacity:1;fill-rule:nonzero;stroke:none"
       d="m 99.835149,76.467964 c -0.26953,0 -0.55078,-0.04297 -0.82031,-0.140625 L 86.854684,72.081245 c -1.304687,-0.457031 -1.992187,-1.882813 -1.539063,-3.183594 0.457032,-1.304687 1.878907,-1.992187 3.183594,-1.535156 l 12.160155,4.246094 c 1.30469,0.457031 1.99219,1.882812 1.53907,3.183593 -0.36329,1.03125 -1.32813,1.675782 -2.363291,1.675782"
       id="path366" />
    <path
       style="display:inline;fill:#e6e6e6;fill-opacity:1;fill-rule:nonzero;stroke:none"
       d="m 103.75312,66.84687 c -0.89843,0 -1.76562,-0.484375 -2.21484,-1.332031 L 94.460149,52.104682 c -0.64453,-1.222656 -0.17968,-2.734374 1.04297,-3.378906 1.21875,-0.644531 2.73047,-0.179687 3.37891,1.042969 l 7.078121,13.410156 c 0.64454,1.222657 0.17579,2.734375 -1.04296,3.378907 -0.3711,0.195312 -0.77344,0.289062 -1.16407,0.289062"
       id="path368" />
    <path
       id="path148"
       style="display:inline;fill:#e6e6e6;fill-opacity:1;fill-rule:nonzero;stroke:none;stroke-width:1.33333"
       d="m 163.79492,131.27539 c -4.24478,0.0364 -8.8737,1.18229 -13.55078,3.90625 l -23.21875,14.44727 -94.890624,58.96289 c 6.151041,4.10937 16.540365,6.22394 27.253906,0 l 7.271484,-4.51563 c -0.636648,-0.66695 -1.154322,-1.39367 -1.552734,-2.18164 -1.984376,-3.91667 -0.01432,-7.44726 0.214844,-7.83789 0.734374,-1.23959 2.28125,-1.72462 3.59375,-1.13086 3.259583,1.48813 6.995628,0.18466 9.808593,-1.38672 l -0.751953,5.50977 99.537114,-61.82617 -1.1875,-0.71289 c -3.31771,-1.96876 -7.64713,-3.31771 -12.52735,-3.23438 z"
       transform="scale(0.75)"
       sodipodi:nodetypes="cccccccccccccc" />
    <path
       id="path144"
       style="display:inline;fill:#e6e6e6;fill-opacity:1;fill-rule:nonzero;stroke:none;stroke-width:1.33333"
       d="M 191.14453 143.63867 L 184.32617 147.84766 L 157.35352 164.60742 C 155.41602 165.69076 153.58269 166.83789 151.75977 168.10352 L 146.32812 171.48047 L 153.36914 176.44141 L 160.10742 169.08203 C 160.74284 168.38932 161.67513 168.05664 162.60742 168.19727 L 182.13477 171.1582 C 184.76245 170.72738 187.45288 170.48581 190.19336 170.43945 L 213.15234 157.30859 L 191.14453 143.63867 z M 220.41797 161.82227 L 215.15039 175.75977 L 238.85352 173.30664 L 230.54492 168.14453 C 228.70118 166.8789 226.80664 165.65495 224.83789 164.56641 L 220.41797 161.82227 z M 247.11328 178.4375 L 257.07812 201.55664 L 295.63477 225.50977 L 260.71484 247.20898 L 260.89453 247.63867 C 261.20182 248.37826 261.18102 249.21811 260.83203 249.94727 C 260.48827 250.67123 259.84311 251.21289 259.07227 251.43164 L 235.70117 258.13477 L 238.11328 275.25391 C 238.3112 276.6914 237.39453 278.04493 235.98828 278.38867 L 201.18164 286.86328 L 192.83203 302.76953 C 192.27474 303.83202 191.10286 304.42643 189.91016 304.24414 L 185.03906 303.49805 L 191.18164 307.31055 L 224.32227 286.70117 C 224.4004 286.64384 224.49805 286.5664 224.57617 286.51953 C 226.62825 285.39453 228.64974 284.1289 230.58203 282.76953 L 322.88477 225.50977 L 247.11328 178.4375 z M 97.53125 201.82422 L 59.441406 225.50977 L 93.273438 246.52734 L 98.830078 233.07031 L 96.59375 231.67969 L 91.425781 229.73242 C 90.712239 229.46681 90.134115 228.9147 89.832031 228.2168 C 89.713608 227.93911 89.653813 227.64872 89.626953 227.35547 L 86.654297 225.50977 L 91.21875 222.67188 L 98.400391 205.51953 L 97.53125 201.82422 z M 258.90234 209.68359 C 258.82423 209.77869 258.76748 209.887 258.67578 209.97266 L 248.95703 219.06641 L 258.6582 242.28516 C 260.02239 236.91286 260.79492 231.29451 260.79492 225.50977 C 260.79492 220.0492 260.11996 214.76157 258.90234 209.68359 z "
       transform="scale(0.75)" />
    <path
       style="display:inline;fill:#e6e6e6;fill-opacity:1;fill-rule:nonzero;stroke:none"
       d="m 252.31172,178.88203 c -3.1875,0.0273 -6.65625,0.88671 -10.14844,2.93359 l -88.59375,55.00781 0.88672,0.53516 c 2.49218,1.45312 5.76562,2.47265 9.39843,2.40234 3.1875,-0.0312 6.66797,-0.875 10.16797,-2.9375 l 17.40625,-10.8164 71.13672,-44.22266 -0.90234,-0.5625 c -2.50391,-1.39063 -5.72266,-2.37109 -9.35156,-2.33984"
       id="path146" />
    <path
       id="path370"
       style="display:inline;fill:#e6e6e6;fill-opacity:1;fill-rule:nonzero;stroke:none;stroke-width:1.33333"
       d="m 314.95117,185.42578 c -1.10417,0 -2,0.89583 -2,2 v 13.34375 c 0,1.10416 0.89583,2 2,2 h 28.25 c 1.10416,0 2,-0.89584 2,-2 v -13.34375 c 0,-1.10417 -0.89584,-2 -2,-2 z m 2,4 h 24.25 v 9.34375 h -24.25 z m 4.36524,0.68164 c -2.20314,0 -3.99024,1.78776 -3.99024,3.9961 0,2.20312 1.7871,3.98828 3.99024,3.98828 2.20312,0 3.99023,-1.78516 3.99023,-3.98828 0,-2.20834 -1.78711,-3.9961 -3.99023,-3.9961 z m 14.92187,0 c -2.20312,0 -3.99023,1.78776 -3.99023,3.9961 0,2.20312 1.78711,3.98828 3.99023,3.98828 2.20313,0 3.99024,-1.78516 3.99024,-3.98828 0,-2.20834 -1.78711,-3.9961 -3.99024,-3.9961 z"
       transform="scale(0.75)" />
    <path
       id="path396"
       style="display:inline;fill:#e6e6e6;fill-opacity:1;fill-rule:nonzero;stroke:none;stroke-width:1.33333"
       d="m 46.185547,259.2793 c -2.510416,0 -4.556641,2.04296 -4.556641,4.55859 0,1.79342 1.044643,3.34641 2.556641,4.08789 v 3.06836 h -3.96875 c -1.104167,0 -2,0.89583 -2,2 v 16.00391 c 0,1.10417 0.895833,2 2,2 h 10.636719 c 1.104166,0 2,-0.89583 2,-2 v -16.00391 c 0,-1.10417 -0.895834,-2 -2,-2 h -2.667969 v -3.06836 c 1.510597,-0.74144 2.552734,-2.29438 2.552734,-4.08789 0,-2.51563 -2.042317,-4.55859 -4.552734,-4.55859 z m 0,4 c 0.144105,0 0.278038,0.0575 0.376953,0.15039 -0.121762,-0.0232 -0.248466,-0.0352 -0.376953,-0.0352 -0.129869,0 -0.256111,0.0137 -0.378906,0.0371 0.0997,-0.0934 0.231839,-0.15234 0.378906,-0.15234 z m -3.96875,11.71484 h 6.636719 v 12.00391 h -6.636719 z"
       transform="scale(0.75)" />
    <path
       id="path376"
       style="display:inline;fill:#e6e6e6;fill-opacity:1;fill-rule:nonzero;stroke:none;stroke-width:1.33333"
       d="m 39.650391,305.42578 c -1.104168,0 -2,0.89583 -2,2 v 28.82813 c 0,1.10416 0.895832,2 2,2 h 15.078125 16.316406 c 1.104168,0 2,-0.89584 2,-2 v -4.875 h 2.912109 c 0.613712,0 1.162355,-0.27744 1.529297,-0.71289 0.402783,0.56762 1.064743,0.9375 1.814453,0.9375 1.223959,0 2.22461,-0.99545 2.22461,-2.22461 0,-1.22918 -1.000651,-2.22461 -2.22461,-2.22461 -0.749594,0 -1.409699,0.37198 -1.8125,0.93945 -0.366944,-0.43653 -0.916659,-0.71484 -1.53125,-0.71484 h -2.912109 v -3.54102 h 9.349609 c 0.892771,0 1.649278,-0.58664 1.90625,-1.39453 0.289839,0.89124 1.126737,1.53516 2.115235,1.53516 1.229166,0 2.222656,-0.99545 2.222656,-2.22461 0,-1.22918 -0.99349,-2.22461 -2.222656,-2.22461 -1.022141,0 -1.881856,0.6884 -2.142578,1.62695 -0.278892,-0.76877 -1.014094,-1.31836 -1.878907,-1.31836 h -9.349609 v -3.53711 h 2.912109 c 0.613712,0 1.162355,-0.27744 1.529297,-0.71289 0.402783,0.56762 1.064743,0.9375 1.814453,0.9375 1.223959,0 2.22461,-0.99545 2.22461,-2.22461 0,-1.22917 -1.000651,-2.22461 -2.22461,-2.22461 -0.749594,0 -1.409699,0.37198 -1.8125,0.93945 -0.366944,-0.43652 -0.916659,-0.71484 -1.53125,-0.71484 h -2.912109 v -4.875 c 0,-1.10417 -0.895832,-2 -2,-2 H 54.728516 Z m 2,4 h 11.078125 v 24.82813 H 41.650391 Z m 15.925781,0 h 11.46875 v 12.33008 c -0.0011,0.0273 -0.0039,0.0544 -0.0039,0.082 0,0.0279 0.0028,0.0544 0.0039,0.082 v 12.33399 h -11.46875 z m -10.384766,7.09961 c -2.390625,0 -4.322265,1.93098 -4.322265,4.31641 0,2.38541 1.93164,4.31836 4.322265,4.31836 2.385416,0 4.31836,-1.93295 4.31836,-4.31836 0,-2.38543 -1.932944,-4.31641 -4.31836,-4.31641 z"
       transform="scale(0.75)" />
    <path
       style="display:inline;opacity:1;fill:#e6e6e6;fill-opacity:1;stroke:none;stroke-width:0.075;stroke-linecap:round;stroke-linejoin:round;paint-order:stroke fill markers"
       d="m 57.187725,152.12182 c -1.162979,-0.31215 -1.975499,-0.61449 -2.773345,-1.03195 -0.624932,-0.32698 -0.99894,-0.58985 -1.378061,-0.96856 -0.234406,-0.23415 -0.575485,-0.71378 -0.575485,-0.80926 0,-0.0113 0.124829,-0.002 0.277399,0.0222 0.15257,0.0235 0.696829,0.044 1.209463,0.0455 0.752818,0.002 1.064363,-0.0167 1.620015,-0.0989 0.738708,-0.10925 1.823372,-0.36457 2.452213,-0.57722 0.312715,-0.10575 0.388359,-0.11857 0.388359,-0.0658 0,0.0361 -0.109849,0.86465 -0.244111,1.84135 -0.134262,0.9767 -0.244112,1.78482 -0.244112,1.79579 0,0.037 -0.108619,0.0143 -0.732335,-0.15315 z"
       id="path13289" />
    <path
       id="path9022"
       style="display:inline;clip-rule:nonzero;fill:#ffcc00;fill-opacity:1;fill-rule:nonzero;stroke:none;stroke-width:1.33333"
       d="m 215.10742,235.68555 c -3.85111,-0.059 -7.58876,1.19535 -10.61914,3.48242 -1.15336,1.43618 -2.42776,2.76082 -3.79101,3.94726 -8.2e-4,0.001 -0.001,0.003 -0.002,0.004 -0.75344,1.09576 -1.39101,2.2974 -1.88867,3.59375 -0.60602,1.58012 -0.95923,3.19369 -1.08594,4.79883 4.4791,-0.63853 9.12717,-2.24359 13.86719,-4.81445 3.50521,-1.90104 5.74415,-3.66146 7.25977,-5.71875 0.889,-1.19737 1.56271,-2.58059 2.17382,-4.14063 -0.009,-0.004 -0.018,-0.008 -0.0273,-0.0117 -1.93685,-0.74284 -3.92634,-1.11058 -5.88672,-1.14062 z m 10.21875,3.57226 c -0.6717,1.61259 -1.48253,3.19052 -2.54687,4.63086 -0.18574,0.2515 -0.38582,0.48433 -0.58203,0.72266 1.56061,-0.15858 3.57042,0.13564 5.6289,0.92383 1.22987,0.47252 2.33216,1.06335 3.24414,1.71093 -1.08303,-3.12298 -3.05923,-5.91916 -5.74414,-7.98828 z m -6,8.20117 c -1.81658,1.48694 -3.74152,2.63162 -5.40625,3.53516 -2.15438,1.16887 -4.29661,2.1381 -6.42578,2.95117 0.78564,-1e-5 1.5552,0.37315 2.02539,1.06836 l 2.25,3.32422 c 0.16667,0.24479 0.2819,0.51562 0.34961,0.79688 0.375,0.5052 0.70182,0.89518 0.94141,1.10351 1.00521,0.23959 1.78776,1.10872 1.87109,2.19727 0.10413,1.34374 -0.90624,2.52213 -2.25,2.62109 -0.70833,0.0625 -1.95312,0.1556 -4.09375,-2.47461 -2.21717,0.62862 -4.38112,1.20879 -6.51562,1.76172 1.75872,1.95908 3.99241,3.54335 6.61914,4.55078 8.85416,3.40104 18.78646,-1.02148 22.1875,-9.88086 0.75345,-1.96451 1.1203,-3.98086 1.14062,-5.96875 -1.63241,0.5212 -4.18253,0.31095 -6.80664,-0.69726 -3.13634,-1.2009 -5.42715,-3.18187 -5.88672,-4.88868 z m -13.41601,7.07618 c -2.65247,0.90558 -5.27846,1.52951 -7.86719,1.87109 0.26213,1.23392 0.65449,2.435 1.17578,3.57813 2.32651,-0.57525 4.5557,-1.14686 6.54102,-1.69336 -0.13542,-0.23438 -0.27084,-0.47917 -0.40625,-0.73438 -0.56005,-1.02674 -0.30358,-2.28022 0.55664,-3.02148 z m 6.39648,5.64648 h 0.004 z"
       transform="scale(0.75)" />
    <path
       id="path9025"
       style="display:inline;fill:#ffcc00;fill-opacity:1;fill-rule:nonzero;stroke:none;stroke-width:1.33333"
       d="m 167.61914,63.482422 c -0.27604,-0.04688 -0.29167,0.115888 -0.32812,0.246094 l -20.1836,85.812504 c -0.10413,0.43229 0.0267,0.88411 0.33399,1.17578 2.19792,2.11457 7.58399,5.66275 18.89648,5.68359 h 0.0566 c 11.59896,0 15.9642,-5.55859 17.30274,-7.94922 0.14584,-0.25 0.19204,-0.55208 0.13476,-0.84375 L 167.91602,63.650391 c -0.0107,-0.03645 -0.0364,-0.162761 -0.29688,-0.167969 z"
       transform="scale(0.75)" />
    <path
       style="display:inline;fill:#ffcc00;fill-opacity:1;fill-rule:nonzero;stroke:none"
       d="m 57.557809,74.526558 4.046875,3.679687 5.324219,-1.246094 c 2.554687,-0.597656 4.683594,1.988281 3.605468,4.378907 l -2.25,4.984374 2.832032,4.679688 c 1.355468,2.24609 -0.449219,5.07031 -3.054688,4.78516 l -5.433594,-0.60157 -3.578124,4.14063 c -1.714844,1.98437 -4.957032,1.14062 -5.492188,-1.42578 l -1.109375,-5.359378 -5.039063,-2.121093 c -2.417968,-1.015625 -2.617187,-4.363281 -0.339843,-5.660157 l 4.75,-2.710937 0.460937,-5.449219 c 0.21875,-2.613281 3.339844,-3.839844 5.277344,-2.074218"
       id="path9200" />
    <path
       style="display:inline;fill:#ffcc00;fill-opacity:1;fill-rule:nonzero;stroke:none"
       d="m 165.44062,52.921089 1.28906,3.210937 3.37891,0.761719 c 1.62109,0.363281 2.12109,2.425781 0.84766,3.488281 l -2.66016,2.222656 0.32422,3.449219 c 0.15234,1.652344 -1.65625,2.765625 -3.0625,1.882813 l -2.92969,-1.84375 -3.17969,1.371094 c -1.52734,0.660156 -3.14453,-0.714844 -2.73828,-2.324219 l 0.84375,-3.359375 -2.28515,-2.601563 c -1.09766,-1.246093 -0.28907,-3.207031 1.36718,-3.320312 l 3.45704,-0.234375 1.76562,-2.980469 c 0.84766,-1.425781 2.96094,-1.265625 3.58203,0.277344"
       id="path9202" />
    <path
       style="display:inline;fill:#ffcc00;fill-opacity:1;fill-rule:nonzero;stroke:none"
       d="m 257.13203,255.35078 h 3.18359 v 3.18359 h -3.18359 z m 0,0"
       id="path9764" />
    <path
       style="display:inline;fill:#ffcc00;fill-opacity:1;fill-rule:nonzero;stroke:none"
       d="m 143.15156,1.4171823 h -0.004 C 64.874215,1.4171823 1.4171838,64.870308 1.4171838,143.14765 v 121.94531 c 0,10.92578 8.8593752,19.78907 19.7890632,19.78907 H 265.09297 c 10.92968,0 19.78906,-8.86329 19.78906,-19.78907 V 143.14765 C 284.88203,64.870308 221.425,1.4171823 143.15156,1.4171823 m 0,4 c 36.78906,0 71.375,14.3242187 97.39062,40.3398437 26.01172,26.015625 40.33985,60.601564 40.33985,97.390624 v 121.94531 c 0,8.70703 -7.08203,15.78907 -15.78906,15.78907 H 21.206247 c -8.707032,0 -15.7890632,-7.08204 -15.7890632,-15.78907 V 143.14765 c 0,-36.78906 14.3281252,-71.374999 40.3398442,-97.390624 C 71.772653,19.741401 106.35859,5.4171823 143.15156,5.4171823"
       id="path10062" />
    <path
       style="display:inline;fill:#0c0c0f;fill-opacity:1;fill-rule:nonzero;stroke:none"
       d="m 215.40547,239.73359 h -3.1875 v 18.80859 h 3.1875 v -11.0039 h 2.82421 v -3.23047 h -2.82421 z m 0,0"
       id="path348" />
    <path
       style="display:inline;fill:#0c0c0f;fill-opacity:1;fill-rule:nonzero;stroke:none"
       d="m 253.68672,244.30781 v -4.57422 h -3.1836 v 18.80859 h 3.1836 v -11.0039 h 2.82812 v -3.23047 z m 0,0"
       id="path350" />
    <path
       style="display:inline;fill:#0c0c0f;fill-opacity:1;fill-rule:nonzero;stroke:none"
       d="m 205.78828,244.30781 h 3.13672 v 14.23437 h -3.13672 z m 0,0"
       id="path352" />
    <path
       style="display:inline;fill:#0c0c0f;fill-opacity:1;fill-rule:nonzero;stroke:none"
       d="m 205.81172,239.73359 h 3.08984 v 3.29297 h -3.08984 z m 0,0"
       id="path354" />
    <path
       style="display:inline;fill:#0c0c0f;fill-opacity:1;fill-rule:nonzero;stroke:none"
       d="m 199.3625,255.40937 h -5.41016 v -11.10156 h -3.13281 v 11.10156 h -4.70313 c -0.64453,0 -1.17187,-0.52734 -1.17187,-1.17188 v -9.92968 h -3.13281 v 11.29297 c 0,1.625 1.3164,2.9414 2.9414,2.9414 h 17.7461 v -14.23437 h -3.13672 z m 0,0"
       id="path356" />
    <path
       style="display:inline;fill:#0c0c0f;fill-opacity:1;fill-rule:nonzero;stroke:none"
       d="M 229.81953,244.30781 H 220.3 v 14.22656 h 3.13281 v -11.08984 h 5.02344 c 0.64453,0 1.17187,0.51953 1.17187,1.17187 v 9.91797 h 3.13281 v -11.28516 c 0,-1.625 -1.32031,-2.9414 -2.9414,-2.9414"
       id="path358" />
    <path
       style="display:inline;fill:#0c0c0f;fill-opacity:1;fill-rule:nonzero;stroke:none"
       d="m 239.98359,247.29609 c 1.4375,-0.76172 2.82422,-0.5 3.99609,0.46875 l -6.01562,3.19922 c -0.125,-1.52735 0.53516,-2.875 2.01953,-3.66797 m 4.17188,7.73047 c -1.82813,0.97656 -3.94922,0.44922 -5.27735,-1.44532 l 9.80078,-5.21093 c -0.16406,-0.39844 -0.36718,-0.77735 -0.59765,-1.13282 -0.0547,-0.082 -0.10938,-0.16406 -0.16016,-0.24218 -1.32422,-1.875 -3.5,-3.10157 -5.96484,-3.10157 -0.97266,0 -1.89453,0.19141 -2.74219,0.53516 -0.0664,0.0273 -0.125,0.0508 -0.19141,0.082 -0.25781,0.11328 -0.5039,0.24219 -0.75,0.38672 -0.21875,0.12891 -0.42968,0.26953 -0.63281,0.41797 -1.80078,1.32422 -2.97656,3.45703 -2.97656,5.86719 0,4.02734 3.26172,7.29297 7.29297,7.29297 3.65625,0 6.67187,-2.69141 7.19922,-6.20313 -0.78516,-0.004 -2.87891,-0.0117 -2.89063,-0.0117 -0.26562,1.1875 -1.01953,2.1875 -2.10937,2.76563"
       id="path360" />
    <path
       id="path162"
       style="display:inline;fill:#020505;fill-opacity:1;fill-rule:nonzero;stroke:none;stroke-width:1.33333"
       d="m 141.83984,127.16211 c -2.35294,-0.0218 -3.91797,0.10938 -4.16406,0.13281 -0.78645,0.0677 -1.49934,0.46485 -1.97851,1.08985 -0.47914,0.61978 -0.67715,1.41667 -0.54688,2.1875 l 1.60352,9.41601 c -14.21875,-6.64583 -24.79623,0.0514 -25.29102,0.36914 -0.99479,0.65104 -1.47917,1.85547 -1.20312,3.01172 l 2.04101,8.60938 c -10.625,-3.56251 -21.457681,0.5358 -21.994139,0.74414 -1.276042,0.4948 -2.011069,1.83789 -1.740235,3.18164 l 1.802735,8.98437 -5.4375,-0.16015 c -1.458334,-0.0417 -2.682292,1.00454 -2.875,2.43164 l -8.953125,65.50976 c -0.208334,1.54167 0.869791,2.9642 2.40625,3.17774 l 6.550781,0.90039 -3.519531,14.40234 c -0.239583,0.98439 0.06641,2.01497 0.800781,2.71289 l 10.558594,10.00977 3.359375,21.20898 c 0.166666,1.07292 0.9375,1.95247 1.984375,2.25977 l 6.359379,1.88086 -2.171879,25.46875 c -0.08333,0.92188 0.302083,1.82943 1.015629,2.41797 0.71354,0.58858 1.67578,0.78646 2.5664,0.53124 l 8.64063,-2.48046 -4.44727,13.0625 c -0.34896,1.02084 -0.0833,2.15755 0.6875,2.91796 0.77083,0.75518 1.91211,1.00911 2.92774,0.64454 l 21.60351,-7.72852 0.27149,6.39063 c 0.0417,0.90104 0.50455,1.72982 1.25976,2.22461 0.46353,0.31249 1.00976,0.47265 1.55664,0.47265 0.33334,0 0.66276,-0.058 0.98047,-0.17773 l 28.36328,-10.55078 19.56836,6.61914 c 1.14583,0.38541 2.40039,0.006 3.13477,-0.94727 l 13.88672,-18.02734 14.82812,0.92773 c 1.10937,0.0781 2.11457,-0.49413 2.64063,-1.44726 l 4.51562,-8.15235 9.56641,3.05274 c 1.35416,0.43229 2.82421,-0.2181 3.41797,-1.50977 l 4.3125,-9.42773 13.35937,2.89062 c 1.26041,0.27083 2.55208,-0.34831 3.125,-1.50976 l 8.15039,-16.5625 22.30664,-4.05274 c 1.47918,-0.27084 2.49089,-1.6556 2.29297,-3.15039 l -1.24609,-9.25 5.23437,-1.5 c 1.17708,-0.33855 2.00137,-1.39713 2.04297,-2.62109 l 0.28516,-8.83789 c 24.85937,-4.66147 23.81833,-22.77019 23.80273,-22.96289 -0.10939,-1.51042 -1.37044,-2.65241 -2.92773,-2.60547 -11.66146,0.49478 -20.38542,-1.63412 -25.23438,-6.14453 -3.11978,-2.90104 -3.79167,-5.98046 -3.9375,-7.07422 l 9.58985,-26.10938 c 0.23437,-0.6302 0.22917,-1.32226 0,-1.94726 -4.27604,-11.5625 -25.77734,-14.55729 -35.6836,-15.32813 l 3.41211,-5.85937 c 0.58333,-1.00522 0.49545,-2.26563 -0.22851,-3.17188 -12.08854,-15.16145 -33.32878,-15.17252 -43.44336,-14.17773 l 2.96289,-5.61914 c 0.35416,-0.67708 0.42187,-1.46354 0.1875,-2.1875 -0.23958,-0.72396 -0.75521,-1.32357 -1.4375,-1.66211 -12.42221,-6.08209 -27.59673,-3.94639 -39.00977,-0.69141 l 1.06055,5.5957 c 9.69106,-2.81643 22.31272,-4.85221 32.78906,-0.98242 l -4.11523,7.79297 c -0.51043,0.96353 -0.41081,2.13477 0.24023,3.00977 0.65625,0.86978 1.75977,1.2819 2.82227,1.06836 0.28646,-0.0625 28.08854,-5.55274 42.29687,9.91601 l -4.72461,8.11524 c -0.49996,0.85937 -0.50976,1.91537 -0.0254,2.78515 0.48437,0.86979 1.39583,1.42322 2.39063,1.44922 7.80208,0.20312 30.31706,2.67122 34.82226,11.02539 l -9.41015,25.61524 c -0.11455,0.31249 -0.17188,0.64974 -0.17188,0.98828 0,0.2448 0.10287,6.17187 5.59766,11.40625 5.50521,5.24478 14.22395,7.89648 25.95312,7.89648 h 0.3125 c -0.95312,4.26561 -4.91015,12.3431 -21.03515,14.66602 -1.34896,0.1979 -2.37051,1.33464 -2.41211,2.69922 l -0.29688,9.09765 -5.59961,1.60547 c -1.34374,0.38541 -2.20312,1.70248 -2.01562,3.08789 l 1.20898,8.99414 -21.0625,3.82813 c -0.88021,0.15625 -1.62955,0.73047 -2.02539,1.52734 l -7.80273,15.86328 -13.42188,-2.90625 c -1.29688,-0.27604 -2.61003,0.38087 -3.16211,1.58399 l -4.21875,9.21875 -9.38476,-2.99414 c -1.27604,-0.40626 -2.66732,0.13932 -3.31836,1.3164 l -4.76953,8.60938 -14.55274,-0.90625 c -0.94792,-0.0625 -1.83333,0.35416 -2.40625,1.09375 l -13.56836,17.61523 -18.61328,-6.29101 c -0.61459,-0.20838 -1.28256,-0.20379 -1.88672,0.0254 l -25.66015,9.54687 -0.27149,-6.33398 c -0.0365,-0.89583 -0.49935,-1.71875 -1.24414,-2.21875 -0.46875,-0.31771 -1.01692,-0.47852 -1.57422,-0.47852 -0.3177,0 -0.63997,0.0528 -0.94726,0.16211 l -19.70313,7.04688 4.30664,-12.63477 c 0.33854,-0.99479 0.0951,-2.09506 -0.6289,-2.85547 -0.72396,-0.76029 -1.80795,-1.05729 -2.81836,-0.76562 l -9.89649,2.83984 2.02149,-23.68359 c 0.11458,-1.33334 -0.72461,-2.5625 -2.00586,-2.9375 l -6.859378,-2.03125 -3.228516,-20.39453 c -0.09896,-0.60938 -0.390624,-1.17838 -0.84375,-1.60547 l -10.068359,-9.54102 3.875,-15.84375 c 0.1875,-0.77604 0.04167,-1.59441 -0.40625,-2.25586 -0.447916,-0.65625 -1.155599,-1.0977 -1.947266,-1.20703 l -6.859375,-0.94336 8.228516,-60.21289 6.453125,0.19727 c 0.890625,0.0208 1.682291,-0.34376 2.234375,-1 0.557295,-0.65626 0.78125,-1.53126 0.609375,-2.375 l -2.003906,-9.97461 c 4.104168,-1.07814 13.055989,-2.58724 20.269529,2.13672 0.96354,0.63536 2.2194,0.61459 3.16211,-0.0469 0.94792,-0.66667 1.39063,-1.83398 1.125,-2.95898 l -2.89062,-12.19336 c 3.53645,-1.48438 12.12955,-3.681 22.69726,3.49609 0.9323,0.63535 2.15755,0.65039 3.10547,0.041 0.95312,-0.61459 1.44141,-1.73437 1.25391,-2.84375 l -2.0625,-12.10547 c 1.69113,0.003 3.96957,0.11088 6.46289,0.42578 l 1.30468,-5.53906 c -2.72638,-0.37814 -5.2279,-0.5171 -7.17578,-0.53516 z"
       transform="scale(0.75)" />
    <path
       id="path304"
       style="display:inline;fill:#020505;fill-opacity:1;fill-rule:nonzero;stroke:none;stroke-width:1.33333"
       d="m 219.45312,154.29688 c -0.56445,-0.0527 -1.14388,0.0632 -1.6621,0.35742 l -30.27735,17.31836 -24.90625,-3.77539 c -0.93229,-0.14063 -1.86458,0.19205 -2.5,0.88476 l -6.73828,7.35938 -16.25,-11.44727 c -0.65104,-0.46352 -1.47005,-0.6211 -2.24609,-0.44922 -0.77604,0.17708 -1.44141,0.67319 -1.83203,1.3711 l -4.48438,7.97265 -0.44922,-1.34375 c -0.35417,-1.0677 -1.3125,-1.82294 -2.4375,-1.92187 -1.11457,-0.0937 -2.19141,0.48959 -2.72265,1.48437 l -1.70899,3.19922 -6.49414,-6.15625 c -0.81771,-0.77604 -2.01628,-0.98958 -3.05273,-0.54687 -1.03646,0.44792 -1.70313,1.46289 -1.70313,2.58789 v 11.59961 l -13.275389,4.04687 c -1.421875,0.43229 -2.260417,1.89583 -1.921875,3.34375 l 3.138672,13.33984 c 0.716985,-2.66788 1.830476,-5.66246 3.851562,-8.23046 l -0.90234,-3.83399 12.75,-3.88476 c 1.18229,-0.35938 1.99414,-1.45378 1.99414,-2.69336 v -7.13086 l 4.42187,4.19336 c 0.64063,0.60417 1.51563,0.88086 2.39063,0.74023 0.86979,-0.14063 1.62043,-0.68294 2.03711,-1.45898 l 0.35351,-0.66602 0.38672,1.15625 c 0.35417,1.05729 1.29688,1.81188 2.40625,1.91602 1.10937,0.10937 2.17578,-0.45312 2.72266,-1.42188 l 6.07812,-10.8125 15.73047,11.07813 c 1.15625,0.8177 2.74479,0.64649 3.70313,-0.40039 l 7.39453,-8.07813 24.39062,3.69727 c 0.63022,0.099 1.27214,-0.0202 1.82422,-0.33789 l 24.31641,-13.91211 -5.51563,14.59375 c -0.34894,0.91145 -0.19141,1.93685 0.40235,2.71289 0.59894,0.77604 1.54101,1.18811 2.52539,1.08398 l 29.91601,-3.09375 12.27149,28.47461 -9.70313,9.07227 c -0.85937,0.80729 -1.12565,2.05795 -0.67773,3.14648 l 11.47461,27.45703 -22.68164,6.50586 c -1.34896,0.38541 -2.20963,1.71289 -2.01172,3.10352 l 2.39648,17.01562 -33.56836,8.17188 c -0.78646,0.1927 -1.44791,0.71418 -1.82812,1.42773 l -8,15.25586 -21.125,-3.23437 c -0.56771,-0.0833 -1.14064,0 -1.65625,0.25 l -28.34375,13.70312 -1.98828,-14.21484 c -0.17188,-1.2552 -1.16666,-2.23959 -2.42188,-2.40625 l -22.85547,-2.99414 -0.34375,-17.80274 c -0.0208,-0.9427 -0.50521,-1.8112 -1.29687,-2.3164 l -14.875003,-9.52735 8.230473,-19.91797 c -1.30595,-2.12682 -2.400612,-4.4072 -3.285161,-6.80859 l -11.048828,26.75391 c -0.520833,1.26041 -0.06706,2.71287 1.083985,3.44726 l 15.587894,9.98438 0.35937,18.71875 c 0.0312,1.39582 1.06771,2.56314 2.45313,2.74023 l 23.13086,3.03516 2.22851,15.91797 c 0.1198,0.89584 0.66732,1.67057 1.45899,2.09765 0.41666,0.21879 0.87499,0.32813 1.32812,0.32813 0.42187,0 0.83789,-0.0938 1.22852,-0.28125 l 31.03711,-15.00391 22.24414,3.40625 c 1.1927,0.18229 2.36458,-0.41212 2.92187,-1.47461 l 8.34961,-15.90625 34.80664,-8.47461 c 1.40625,-0.34374 2.32292,-1.69727 2.125,-3.13476 l -2.41211,-17.11914 23.3711,-6.70313 c 0.77084,-0.21875 1.416,-0.76041 1.75976,-1.48437 0.34899,-0.72916 0.36979,-1.56901 0.0625,-2.3086 l -11.9375,-28.57226 9.71875,-9.09375 c 0.86979,-0.8125 1.13607,-2.08335 0.66211,-3.17188 l -13.875,-32.19336 c -0.48959,-1.13541 -1.65691,-1.82291 -2.88086,-1.6875 l -27.43164,2.83985 6.67578,-17.66211 c 0.42188,-1.11458 0.0996,-2.36979 -0.80664,-3.14063 -0.45313,-0.38541 -1.00195,-0.60742 -1.56641,-0.66015 z M 96.695312,209.5918 89.822266,226.00977 c -0.296891,0.70833 -0.292317,1.49869 0.0098,2.20703 0.302084,0.6979 0.880208,1.25001 1.59375,1.51562 l 7.152344,2.69531 c -0.746026,-2.13992 -1.325442,-4.37218 -1.734375,-6.67382 l -0.693359,-0.25977 0.474609,-1.13476 c -0.68981,-4.71794 -0.674963,-9.70016 0.07031,-14.76758 z"
       sodipodi:nodetypes="scccccccccccccccscccccccsccccccccccccccccccccccccccccccccccccccccccccccccsccccccccccccccccccssccccccccc"
       transform="scale(0.75)" />
    <path
       id="path158"
       style="display:inline;fill:#020505;fill-opacity:1;fill-rule:nonzero;stroke:none;stroke-width:1.33333"
       d="m 78.724609,191.53906 c -2.812965,1.57138 -6.54901,2.87485 -9.808593,1.38672 -1.3125,-0.59376 -2.859376,-0.10873 -3.59375,1.13086 -0.229168,0.39063 -2.19922,3.92122 -0.214844,7.83789 1.660443,3.28398 5.372835,5.50808 11.279297,6.74609 l 0.767578,-5.60351 c -5.079692,-1.14002 -6.567868,-2.83405 -6.994141,-3.63672 -0.05729,-0.10937 -0.104817,-0.21945 -0.146484,-0.33398 2.730337,0.40635 5.415254,-0.0881 7.8125,-0.95118 z"
       sodipodi:nodetypes="cccccccccc"
       transform="scale(0.75)" />
    <path
       id="path184"
       style="display:inline;clip-rule:nonzero;fill:#020505;fill-opacity:1;fill-rule:nonzero;stroke:none;stroke-width:1.33333"
       d="M 206.11914 262.61914 C 196.9382 265.79262 188.41897 267.89541 180.59961 269.2207 C 180.58179 268.67615 180.55548 268.16441 180.50977 267.74805 C 180.35873 266.4043 179.13867 265.43685 177.81055 265.58789 C 176.4668 265.73893 175.49935 266.94661 175.65039 268.28516 C 175.81706 269.79557 175.71158 273.35221 175.4668 275.8418 C 167.78972 276.52929 159.92122 277.06575 152.38477 275.31055 C 152.38477 274.40429 152.40042 273.38867 152.41602 272.37305 C 152.43682 270.99805 152.45635 269.61914 152.43555 268.49414 C 152.4142 267.56959 151.86754 266.78943 151.10547 266.38867 C 150.37931 266.37979 149.6542 266.36718 148.92969 266.3457 C 148.09631 266.74964 147.5259 267.60712 147.54492 268.59766 C 147.55944 269.19361 147.55669 269.86954 147.54883 270.57227 C 142.82247 270.09928 138.73033 269.37259 135.33203 268.58203 L 139.66016 270.22266 C 139.29195 271.87163 138.71233 274.05925 138.08984 275.91211 C 139.6649 277.56931 141.03778 279.17194 142.17578 280.5918 C 145.6237 284.89908 150.80599 287.56053 156.31641 287.4668 C 157.14744 287.45227 157.98031 287.4041 158.8125 287.33594 C 160.1801 285.64879 162.06347 283.51046 164.32422 281.37305 C 168.97984 281.3459 173.55972 280.92732 177.85742 280.5293 C 178.94076 280.43034 179.83204 279.62435 180.03516 278.55664 C 180.30074 277.16473 180.5142 274.60702 180.58984 272.19141 C 183.65088 271.51423 186.6515 271.25344 189.36719 271.23438 C 189.61733 271.23262 189.86422 271.2323 190.10938 271.23438 C 191.98784 271.25027 193.68616 271.38063 195.18359 271.54688 C 201.84886 266.70204 206.11914 262.61914 206.11914 262.61914 z M 195.16992 271.55664 C 194.21508 272.25051 193.20099 272.96219 192.15234 273.67773 C 193.20685 272.95859 194.21087 272.25356 195.16992 271.55664 z M 185.05273 278.15039 C 184.10487 278.69718 183.13306 279.23284 182.14648 279.75781 C 183.13327 279.23274 184.10526 278.69712 185.05273 278.15039 z M 177.24219 282.17969 C 176.80344 282.37836 176.36156 282.57272 175.91797 282.76367 C 176.36179 282.5727 176.80318 282.37838 177.24219 282.17969 z M 174.86328 283.20898 C 174.60325 283.31619 174.34155 283.42312 174.08008 283.52734 C 174.34212 283.42292 174.60267 283.3164 174.86328 283.20898 z M 172.57227 284.10742 C 172.30553 284.20656 172.03751 284.30275 171.76953 284.39844 C 172.0377 284.30269 172.30533 284.20663 172.57227 284.10742 z M 170.21875 284.93359 C 169.97071 285.01498 169.72157 285.09179 169.47266 285.16992 C 169.72173 285.09171 169.97053 285.01506 170.21875 284.93359 z M 168.16016 285.56641 C 167.89497 285.64287 167.62926 285.71659 167.36328 285.78906 C 167.62932 285.71654 167.8949 285.64292 168.16016 285.56641 z M 165.98438 286.14453 C 165.72146 286.20877 165.45881 286.27395 165.19531 286.33398 C 165.45873 286.27392 165.72152 286.2088 165.98438 286.14453 z M 163.63477 286.66016 C 163.37121 286.71136 163.10769 286.76194 162.84375 286.80859 C 163.10777 286.76187 163.3711 286.71143 163.63477 286.66016 z M 161.23438 287.06445 C 160.98046 287.10003 160.72674 287.13106 160.47266 287.16211 C 160.72678 287.13102 160.9804 287.10007 161.23438 287.06445 z "
       transform="scale(0.75)" />
    <path
       id="path190"
       style="display:inline;clip-rule:nonzero;fill:#020505;fill-opacity:1;fill-rule:nonzero;stroke:none;stroke-width:1.33333"
       d="M 206.11914 257.72852 C 205.92643 257.72852 205.73372 257.73923 205.54102 257.75977 C 205.15039 257.8119 204.77539 257.89973 204.41602 258.03516 C 189.02732 263.34422 174.02217 266.08684 159.80273 266.21875 C 145.99751 266.90523 131.88649 265.73833 120.04883 260.89062 C 119.58599 261.29014 119.1853 261.77731 118.88867 262.35352 L 135.30469 268.57227 C 141.1536 269.93501 149.02693 271.12305 158.72852 271.12305 C 171.52018 271.12305 187.4733 269.06185 206.11914 262.61914 C 206.11914 262.61914 180.74349 287.0397 156.31641 287.4668 C 156.22267 287.4668 156.12306 287.47266 156.0293 287.47266 C 150.62306 287.47266 145.56641 284.82096 142.17578 280.5918 C 141.03723 279.17242 139.66299 277.57132 138.08789 275.91406 C 137.90059 276.47144 137.70979 277.00768 137.51953 277.47852 C 135.3743 276.98911 133.23793 276.46269 131.10547 275.91992 C 134.03282 278.5541 136.48814 281.31437 138.36328 283.65039 C 142.79557 289.18686 149.23243 292.35742 156.0293 292.35742 L 156.40039 292.35742 C 181.97851 291.91472 207.47786 268.08137 209.42578 266.2168 C 210.39974 265.32617 211.01367 264.04101 211.01367 262.61914 C 211.01367 259.99934 208.95638 257.86264 206.37305 257.73242 C 206.28971 257.72709 206.20247 257.72852 206.11914 257.72852 z "
       transform="scale(0.75)" />
    <path
       id="path238"
       style="display:inline;clip-rule:nonzero;fill:#020505;fill-opacity:1;fill-rule:nonzero;stroke:none;stroke-width:1.33333"
       d="M 113.12109 233.19531 C 111.80339 233.24805 110.43555 233.44336 109.10742 233.93555 C 103.38867 236.04492 101.08138 242.42122 100.8418 247.24414 L 100.80664 247.96289 C 100.66081 250.37434 100.46224 253.67644 102.84766 255.82227 C 105.54997 258.25158 109.21767 260.90289 114.03125 263.32031 C 113.30285 265.33663 112.87891 267.04011 112.4668 269.02539 C 112.36784 269.52539 112.15039 270.5664 112.60352 271.66016 C 113.29102 273.30598 114.94727 273.83138 115.57227 274.0293 C 122.58789 276.25847 129.79102 278.22265 136.97852 279.86328 C 137.16081 279.90501 137.34245 279.92578 137.51953 279.92578 C 138.4987 279.92578 139.41016 279.33724 139.78516 278.39453 C 140.67854 276.1843 141.54943 272.9504 142.03125 270.82422 C 145.55998 271.16052 149.33465 271.34766 153.38477 271.34766 C 168.02539 271.34766 186.17644 268.9362 208.58789 262.58203 C 210.72852 265.21224 211.97331 265.11917 212.68164 265.05664 C 214.0254 264.95768 215.03577 263.77929 214.93164 262.43555 C 214.84831 261.347 214.06576 260.47787 213.06055 260.23828 C 212.82096 260.02995 212.49414 259.63997 212.11914 259.13477 C 212.05143 258.85351 211.9362 258.58268 211.76953 258.33789 L 209.51953 255.01367 C 208.79037 253.93555 207.3431 253.61784 206.22852 254.29492 C 205.11393 254.97722 204.72852 256.41081 205.35352 257.55664 C 205.48893 257.81185 205.62435 258.05664 205.75977 258.29102 C 200.53428 259.72945 193.97779 261.32684 186.72852 262.72461 L 186.72852 262.7793 C 183.50658 263.40121 180.13854 263.98216 176.67383 264.48633 C 174.94147 264.73841 173.1852 264.9698 171.41016 265.17969 C 169.67366 265.38502 167.91832 265.56771 166.15234 265.72461 C 166.12215 265.72729 166.0927 265.73171 166.0625 265.73438 C 166.05338 265.73518 166.04428 265.73552 166.03516 265.73633 C 166.02929 265.73683 166.02345 265.73776 166.01758 265.73828 C 165.99555 265.74022 165.97321 265.74026 165.95117 265.74219 C 164.17297 265.89808 162.38411 266.02851 160.58789 266.12695 C 158.76349 266.22694 156.93263 266.29585 155.10156 266.32812 C 153.2705 266.3604 151.43901 266.35645 149.61328 266.3125 C 146.87468 266.24658 144.14791 266.08946 141.45508 265.82812 C 140.25762 265.71191 139.0713 265.56716 137.88867 265.4082 C 137.60419 265.36994 137.3206 265.32989 137.03711 265.28906 C 135.84948 265.11814 134.66611 264.93236 133.49805 264.71484 C 132.62856 264.55293 131.76508 264.37844 130.9082 264.18945 C 129.92765 263.97319 128.95998 263.73367 127.99805 263.48047 C 127.69724 263.4013 127.4004 263.3153 127.10156 263.23242 C 126.45646 263.05349 125.81512 262.86653 125.17969 262.66992 C 124.81739 262.55784 124.45664 262.44412 124.09766 262.32617 C 123.47868 262.12277 122.8664 261.90872 122.25781 261.6875 C 121.95086 261.57593 121.64207 261.46775 121.33789 261.35156 C 120.43373 261.00618 119.53837 260.64509 118.66016 260.25781 C 116.34714 259.23782 114.12853 258.07061 112.02344 256.74023 C 111.32191 256.29688 110.63247 255.83542 109.95703 255.35547 C 109.28159 254.87552 108.6205 254.37699 107.97266 253.85938 C 107.32481 253.34176 106.69101 252.80438 106.07227 252.24805 C 105.99284 252.17643 105.92473 252.0832 105.86719 251.97266 C 105.78935 251.82312 105.7357 251.63267 105.69141 251.42773 C 105.6804 251.37669 105.66937 251.32526 105.66016 251.27148 C 105.6242 251.06231 105.5971 250.84166 105.58398 250.60156 C 105.54394 249.86881 105.5944 249.0306 105.63867 248.32227 L 105.68164 247.54492 C 105.70846 247.00051 105.77288 246.44315 105.86719 245.88477 C 105.87486 245.83944 105.88252 245.79532 105.89062 245.75 C 105.99097 245.18844 106.1231 244.62689 106.29297 244.07812 C 106.37693 243.80687 106.4711 243.54091 106.57227 243.27734 C 106.57249 243.27677 106.57205 243.27596 106.57227 243.27539 C 106.58437 243.24393 106.59702 243.21296 106.60938 243.18164 C 106.61045 243.17892 106.61221 243.17655 106.61328 243.17383 C 106.7105 242.9273 106.81519 242.68602 106.92773 242.44922 C 106.93426 242.43551 106.94069 242.42187 106.94727 242.4082 C 107.07091 242.15079 107.20173 241.89883 107.34375 241.65625 C 107.48963 241.40707 107.64511 241.16756 107.81055 240.9375 C 108.04312 240.61409 108.2948 240.31046 108.56641 240.0332 C 108.56739 240.0322 108.56738 240.0303 108.56836 240.0293 C 108.56836 240.0293 108.57031 240.02734 108.57031 240.02734 C 108.62901 239.96754 108.69142 239.91284 108.75195 239.85547 C 108.99197 239.62799 109.24661 239.41978 109.51562 239.23438 C 109.91351 238.94627 110.33318 238.69208 110.80078 238.51953 C 112.46745 237.90494 114.51367 238.05079 116.51367 238.19141 C 135.53451 239.52995 155.20704 240.90951 174.50391 242.68555 C 178.95183 243.097 182.19726 243.52538 185.63477 243.97852 C 188.5931 244.36393 191.64909 244.76498 195.5918 245.16602 C 196.95638 245.32227 198.13996 244.32097 198.27539 242.98242 C 198.4108 241.63868 197.43164 240.43619 196.08789 240.30078 C 192.2181 239.91015 189.19661 239.50912 186.26953 239.12891 C 182.78516 238.67057 179.49284 238.23893 174.95117 237.82227 C 155.60221 236.03581 135.9056 234.65429 116.83789 233.31055 C 115.70768 233.23242 114.4388 233.14258 113.12109 233.19531 z M 118.49023 265.33594 C 123.5942 267.41347 129.73788 269.1756 137.14453 270.24219 C 136.82698 271.5971 136.40083 273.18785 135.94727 274.60352 C 129.70769 273.11914 123.4681 271.39974 117.36914 269.47266 C 117.72957 267.75807 118.05452 266.56608 118.49023 265.33594 z "
       transform="scale(0.75)" />
    <g
       clip-path="url(#clip27)"
       clip-rule="nonzero"
       id="g248"
       transform="translate(-6.6921912,-6.7781297)"
       style="display:inline">
      <g
         clip-path="url(#clip28)"
         clip-rule="nonzero"
         id="g246">
        <path
           style="fill:#020505;fill-opacity:1;fill-rule:nonzero;stroke:none"
           d="m 119.375,193.51172 c -0.69141,-0.42188 0,-1.05078 0.6875,-1.48438 0.73438,-0.46484 1.50781,-0.86718 2.30859,-1.20312 0.57813,-0.24219 1.20313,-0.45313 1.82422,-0.3711 0.6211,0.082 1.23828,0.53907 1.30469,1.16407 0.0742,0.71875 -0.55859,1.30859 -1.17578,1.68359 -0.51172,0.31641 -1.08594,0.58203 -1.6875,0.57813 -0.60156,0 -1.16797,-0.26563 -1.74609,-0.4336 -0.57813,-0.16797 -1,0.37891 -1.51563,0.0664"
           id="path244" />
      </g>
    </g>
    <g
       clip-path="url(#clip29)"
       clip-rule="nonzero"
       id="g254"
       transform="translate(-6.6921912,-6.7781297)"
       style="display:inline">
      <g
         clip-path="url(#clip30)"
         clip-rule="nonzero"
         id="g252">
        <path
           style="fill:#020505;fill-opacity:1;fill-rule:nonzero;stroke:none"
           d="m 108.64063,192.61328 c 0.625,-0.51953 -0.15235,-1.03906 -0.89454,-1.37109 -0.79296,-0.35547 -1.61718,-0.64063 -2.45703,-0.85938 -0.60937,-0.15234 -1.25781,-0.26953 -1.85937,-0.10156 -0.60547,0.17578 -1.14844,0.71484 -1.1211,1.34375 0.0273,0.72266 0.73829,1.21484 1.40625,1.49609 0.55079,0.23438 1.15625,0.41797 1.75391,0.32813 0.59375,-0.0898 1.11328,-0.4375 1.66406,-0.6836 0.54688,-0.25 1.04297,0.23047 1.50782,-0.15234"
           id="path250" />
      </g>
    </g>
    <g
       clip-path="url(#clip31)"
       clip-rule="nonzero"
       id="g260"
       transform="translate(-6.6921912,-6.7781297)"
       style="display:inline">
      <g
         clip-path="url(#clip32)"
         clip-rule="nonzero"
         id="g258">
        <path
           style="fill:#020505;fill-opacity:1;fill-rule:nonzero;stroke:none"
           d="m 110.875,180.88672 c -0.60156,0 -1.19141,-0.29688 -1.53906,-0.83985 -2.08594,-3.22265 -4.4375,-5.01171 -6.99219,-5.30859 -3.964844,-0.46875 -7.390625,2.76172 -7.425781,2.79297 -0.730469,0.69922 -1.886719,0.67578 -2.589844,-0.0508 -0.703125,-0.72656 -0.683594,-1.88281 0.03906,-2.58594 0.1875,-0.18359 4.664062,-4.45312 10.367195,-3.80469 3.70703,0.42188 6.96484,2.76563 9.67968,6.96875 0.55078,0.84766 0.30469,1.98438 -0.54297,2.53125 -0.30859,0.19922 -0.65234,0.29688 -0.99609,0.29688"
           id="path256" />
      </g>
    </g>
    <g
       clip-path="url(#clip33)"
       clip-rule="nonzero"
       id="g266"
       transform="translate(-6.6921912,-6.7781297)"
       style="display:inline">
      <g
         clip-path="url(#clip34)"
         clip-rule="nonzero"
         id="g264">
        <path
           style="fill:#020505;fill-opacity:1;fill-rule:nonzero;stroke:none"
           d="m 110.54688,172.36328 c -0.53125,0 -1.0586,-0.23047 -1.42188,-0.67578 -0.87891,-1.07422 -3.17187,-3.10938 -4.64453,-2.53906 -0.94531,0.36328 -2.00391,-0.10157 -2.37109,-1.04688 -0.36719,-0.94531 0.10156,-2.00781 1.04687,-2.37109 4.32813,-1.67969 8.37109,3.09375 8.81641,3.64453 0.63672,0.78516 0.51562,1.94141 -0.26953,2.57812 -0.33985,0.27344 -0.75,0.41016 -1.15625,0.41016"
           id="path262" />
      </g>
    </g>
    <g
       clip-path="url(#clip37)"
       clip-rule="nonzero"
       id="g278"
       transform="translate(-6.6921912,-6.7781297)"
       style="display:inline">
      <g
         clip-path="url(#clip38)"
         clip-rule="nonzero"
         id="g276">
        <path
           style="fill:#020505;fill-opacity:1;fill-rule:nonzero;stroke:none"
           d="m 150.99609,156.80078 c -5.02343,0 -9.51562,6.76953 -11.01172,11.48828 -1.68359,5.3125 -1.03515,12.24219 1.57422,16.86328 0.92188,1.63282 2.51172,3.69922 4.83985,4.25782 1.90234,0.45312 4.23828,-0.13672 6.58203,-1.66797 4.09765,-2.67188 7.30078,-7.45703 8.16015,-12.1836 0.89063,-4.89843 -0.62109,-10.89062 -3.75781,-14.91406 -1.8125,-2.33203 -3.94922,-3.69141 -6.01172,-3.83203 -0.125,-0.008 -0.25,-0.0117 -0.375,-0.0117 m -3.30078,36.42578 c -0.73828,0 -1.45703,-0.082 -2.15234,-0.25 -2.85938,-0.6875 -5.33985,-2.76562 -7.17578,-6.01953 -3.1211,-5.52344 -3.875,-13.47266 -1.87891,-19.77344 1.80469,-5.69922 7.51172,-14.54687 15.13281,-14.02734 3.11719,0.21094 6.1875,2.07031 8.65625,5.23437 3.79688,4.875 5.55078,11.8711 4.47266,17.82032 -1.03125,5.67187 -4.86328,11.40625 -9.76563,14.60547 -2.42968,1.58593 -4.95312,2.41015 -7.28906,2.41015"
           id="path274" />
      </g>
    </g>
    <path
       id="path280"
       style="display:inline;clip-rule:nonzero;fill:#020505;fill-opacity:1;fill-rule:nonzero;stroke:none;stroke-width:1.33333"
       d="m 193.96094,205.59375 c -1.13762,-0.002 -2.61491,0.35872 -4.37305,1.57617 -4.03125,2.77604 -8.44271,9.36003 -9.07812,16.56836 -0.61459,7.05208 2.41602,14.13998 5.72851,17.49414 1.92188,1.94272 3.6556,2.40235 4.86914,2.40235 0.125,0 0.24484,-0.005 0.35938,-0.0156 6.63338,-0.50488 8.48537,-14.24525 8.86914,-18.01562 l -11.60742,2.78515 -0.8125,-9.84765 12.60156,-2.5586 c -0.74148,-8.16464 -4.00535,-9.86152 -5.22266,-10.20703 -0.37109,-0.10417 -0.81688,-0.18085 -1.33398,-0.18164 z"
       transform="scale(0.75)" />
    <g
       clip-path="url(#clip41)"
       clip-rule="nonzero"
       id="g290"
       transform="translate(-6.6921912,-6.7781297)"
       style="display:inline">
      <g
         clip-path="url(#clip42)"
         clip-rule="nonzero"
         id="g288" />
    </g>
    <path
       style="display:inline;fill:#020505;fill-opacity:1;fill-rule:nonzero;stroke:none"
       d="m 132.72968,141.13203 c -0.9414,0 -1.82812,0.12109 -2.57031,0.49218 -1.08984,0.53907 -1.96484,1.66407 -2.60156,2.58203 -3.14453,4.51172 -4.77734,10.02735 -4.60156,15.52735 0.19531,6.1289 2.61328,12.01953 4.69922,16.46484 1.38281,2.94141 2.97656,5.96875 5.29687,8.1836 3.05078,2.91406 7.56641,4.5625 12.38281,4.49218 4.25,-0.0547 8.7461,-1.35156 13.35547,-3.85156 2.62891,-1.42578 4.3086,-2.74609 5.44531,-4.28906 1.0586,-1.42578 1.72657,-3.15625 2.41016,-5.3125 1.52734,-4.83594 2.58203,-9.83985 3.14063,-14.875 0.70312,-6.38281 -0.21485,-9.86719 -2.89063,-10.96094 -10.12109,-4.13281 -20.75391,-6.91406 -31.60937,-8.26562 -0.82032,-0.10157 -1.66016,-0.1875 -2.45704,-0.1875 m 12.35157,51.41015 c -5.65625,0 -10.98828,-2 -14.66407,-5.50781 -2.7539,-2.62891 -4.55078,-6.01563 -6.08203,-9.28125 -2.23437,-4.76172 -4.82812,-11.10547 -5.04687,-17.90234 -0.19922,-6.28125 1.66797,-12.58204 5.25781,-17.74219 0.89063,-1.27735 2.14453,-2.85938 3.98047,-3.76953 2.29297,-1.13672 4.76953,-0.94922 7.11328,-0.65625 11.17578,1.39062 22.125,4.2539 32.54297,8.50781 6.48437,2.64844 5.48047,11.76562 5.14844,14.76172 -0.58203,5.26953 -1.6875,10.51172 -3.28907,15.57422 -0.6875,2.16797 -1.51953,4.44531 -2.95703,6.39062 -1.88672,2.55469 -4.54297,4.1875 -6.64453,5.32813 -5.14062,2.78906 -10.20703,4.23437 -15.0625,4.29297 -0.0977,0.004 -0.19922,0.004 -0.29687,0.004"
       id="path306" />
    <path
       style="display:inline;fill:#020505;fill-opacity:1;fill-rule:nonzero;stroke:none"
       d="m 123.27656,171.88203 c -0.46875,0 -0.94141,-0.17969 -1.30078,-0.54297 -3.25,-3.27735 -8.75781,-4.07813 -12.80859,-1.85938 -0.88672,0.48828 -2,0.16016 -2.48829,-0.72656 -0.48828,-0.89063 -0.16015,-2.00391 0.72657,-2.48828 5.42968,-2.97656 12.8125,-1.90235 17.17578,2.49219 0.71093,0.72265 0.70703,1.88281 -0.0117,2.59375 -0.35547,0.35546 -0.82422,0.53125 -1.29297,0.53125"
       id="path308" />
    <path
       style="display:inline;fill:#020505;fill-opacity:1;fill-rule:nonzero;stroke:none"
       d="m 78.932809,182.01484 c -0.578125,0 -1.148438,-0.27344 -1.503906,-0.78125 -5.011719,-7.19141 -6.597656,-17.07813 -4.34375,-27.12891 0.53125,-2.3789 1.40625,-5.42578 3.445312,-7.88281 3.726563,-4.48828 10.191406,-6.03906 19.214844,-4.60938 4.10938,0.65235 8.207031,1.60938 12.175781,2.85157 1.33985,0.41797 2.74219,0.92187 3.82422,2.07422 1.74219,1.84765 1.78906,4.42187 1.81641,6.125 0.17968,10.01562 -0.15625,19.58984 -6.16797,26.67187 -0.65625,0.77344 -1.8125,0.86719 -2.58594,0.21484 -0.77344,-0.65625 -0.86719,-1.8125 -0.21094,-2.58593 5.1836,-6.10938 5.46485,-14.94922 5.30078,-24.23438 -0.0273,-1.50781 -0.10937,-2.92578 -0.82031,-3.67969 -0.47656,-0.5039 -1.33594,-0.80078 -2.25,-1.08593 -3.80078,-1.1875 -7.718751,-2.10547 -11.656251,-2.72657 -7.656249,-1.21484 -12.976561,-0.0937 -15.816405,3.32813 -1.542969,1.85547 -2.25,4.36328 -2.691406,6.34375 -2.027344,9.04687 -0.652344,17.875 3.773437,24.22266 0.578125,0.83203 0.375,1.97656 -0.457031,2.55468 -0.316406,0.22266 -0.683594,0.32813 -1.046875,0.32813"
       id="path310" />
    <path
       style="display:inline;fill:#020505;fill-opacity:1;fill-rule:nonzero;stroke:none"
       d="m 142.19062,128.75312 c -1.99609,0.46094 -3.05078,2.85937 -2.67969,4.875 0.375,2.01172 1.78516,3.66797 3.26172,5.08203 3.71485,3.5625 8.62891,6.40234 13.7461,5.88281 1.61328,-0.16406 3.21875,-0.67578 4.48828,-1.67578 1.27344,-1.0039 2.17578,-2.53125 2.21094,-4.14844 0.0508,-2.29296 -1.5625,-4.28515 -3.32813,-5.7539 -4.41406,-3.67578 -10.35937,-5.44531 -16.06641,-4.78516"
       id="path312" />
    <path
       style="display:inline;fill:#020505;fill-opacity:1;fill-rule:nonzero;stroke:none"
       d="m 81.499215,138.33906 c -1.0625,1.75 -0.08203,4.17968 1.621094,5.32031 1.699219,1.13672 3.871094,1.28125 5.917969,1.21484 5.140621,-0.17578 8.773441,-0.625 11.976562,-4.65234 1.00391,-1.26563 1.75781,-2.77344 1.92969,-4.38281 0.17187,-1.60938 -0.29297,-3.32422 -1.42578,-4.47657 -1.605471,-1.64062 -4.160161,-1.87109 -6.441411,-1.63671 -5.714842,0.59765 -9.30078,2.53125 -12.812499,7.07812"
       id="path338" />
    <g
       clip-path="url(#clip45)"
       clip-rule="nonzero"
       id="g302"
       transform="translate(-6.6921912,-6.7781297)"
       style="display:inline">
      <g
         clip-path="url(#clip46)"
         clip-rule="nonzero"
         id="g300">
        <path
           style="fill:#020505;fill-opacity:1;fill-rule:nonzero;stroke:none"
           d="m 123.64063,233.26953 c -3.01954,0 -6.625,-0.78906 -9.13672,-3.35547 -0.70703,-0.72265 -0.69532,-1.88281 0.0273,-2.58984 0.72266,-0.70703 1.88281,-0.69922 2.59375,0.0273 2.95703,3.02344 8.58984,2.3711 9.89453,1.75781 0.91797,-0.43359 2.01172,-0.0391 2.44141,0.87891 0.42968,0.91406 0.0352,2.00781 -0.87891,2.4375 -0.9414,0.44531 -2.79297,0.84375 -4.9414,0.84375"
           id="path298" />
      </g>
    </g>
    <path
       style="display:inline;fill:#020505;fill-opacity:1;fill-rule:nonzero;stroke:none"
       d="m 110.33125,112.15546 c -0.0781,0.32422 0.0195,0.66407 0.25,0.88282 1.64844,1.58593 5.6875,4.24609 14.17187,4.26172 h 0.043 c 8.69922,0 11.97266,-4.16797 12.97656,-5.96094 0.10938,-0.1875 0.14453,-0.41406 0.10157,-0.63281 l -11.9375,-62.968755 c -0.008,-0.02734 -0.0273,-0.121094 -0.22266,-0.125 -0.20703,-0.03516 -0.21875,0.08594 -0.24609,0.183594 z m 14.46484,9.85938 h -0.0508 c -10.13281,-0.0156 -15.26953,-3.5 -17.42969,-5.57422 -1.42968,-1.37109 -2.03125,-3.42578 -1.57422,-5.36328 l 15.16016,-64.441408 c 0.62891,-2.320312 2.57812,-3.796874 4.92969,-3.738281 2.32812,0.05859 4.22656,1.625 4.72656,3.898438 l 11.94922,63.031251 c 0.25,1.30469 0.0273,2.66016 -0.6211,3.82031 -1.41015,2.51563 -5.89843,8.36719 -17.08984,8.36719"
       id="path316" />
    <path
       style="display:inline;fill:#020505;fill-opacity:1;fill-rule:nonzero;stroke:none"
       d="m 129.50312,56.233589 c -0.125,0 -0.2539,-0.0078 -0.38281,-0.03125 -6.19922,-1.015625 -8.48047,-5.523438 -8.57422,-5.710938 -0.57422,-1.171875 -0.0937,-2.582031 1.07422,-3.15625 1.16016,-0.570312 2.55859,-0.101562 3.14062,1.046875 0.0859,0.15625 1.4375,2.5625 5.1211,3.167969 1.28515,0.210937 2.15625,1.421875 1.94531,2.707031 -0.19141,1.15625 -1.19141,1.976563 -2.32422,1.976563"
       id="path2796" />
    <path
       style="display:inline;fill:#020505;fill-opacity:1;fill-rule:nonzero;stroke:none"
       d="m 131.32343,71.764839 c -6.93359,0 -13.32812,-6.550781 -13.61328,-6.847657 -0.90625,-0.9375 -0.8789,-2.429687 0.0625,-3.332031 0.9336,-0.90625 2.42579,-0.878906 3.32813,0.05859 1.63281,1.683594 6.79297,5.9375 11.01172,5.355469 1.29297,-0.175782 2.47656,0.722656 2.65625,2.015625 0.17578,1.289062 -0.72657,2.476562 -2.01953,2.65625 -0.47657,0.0625 -0.95313,0.09375 -1.42579,0.09375"
       id="path2798" />
    <path
       style="display:inline;fill:#020505;fill-opacity:1;fill-rule:nonzero;stroke:none"
       d="m 134.01875,86.850776 c -10.82032,0 -19.01172,-8.722656 -19.36719,-9.109375 -0.88672,-0.957031 -0.82812,-2.449219 0.12891,-3.332031 0.95312,-0.882812 2.44531,-0.828125 3.32812,0.128906 0.10156,0.105469 7.78906,8.234375 17.01563,7.558594 1.29296,-0.08984 2.42968,0.882812 2.52343,2.179688 0.0937,1.296874 -0.8789,2.429687 -2.17968,2.523437 -0.48829,0.03516 -0.97266,0.05078 -1.44922,0.05078"
       id="path2800" />
    <path
       style="display:inline;fill:#020505;fill-opacity:1;fill-rule:nonzero;stroke:none"
       d="m 136.1789,102.1164 c -12.13281,0 -21.05078,-9.152342 -23.60156,-12.097655 -0.89453,-1.03125 -1.48437,-1.710937 -1.19531,-2.925781 0.30469,-1.265625 1.57812,-2.050782 2.84375,-1.742188 0.58203,0.136719 1.0625,0.480469 1.37891,0.9375 0.42578,0.542969 9.72265,12.191404 22.35937,11.031254 1.28125,-0.12891 2.44531,0.83203 2.56641,2.1289 0.11718,1.29688 -0.83594,2.44532 -2.13282,2.56641 -0.75,0.0664 -1.48828,0.10156 -2.21875,0.10156"
       id="path2802" />
    <path
       style="display:inline;fill:#020505;fill-opacity:1;fill-rule:nonzero;stroke:none"
       d="m 135.51875,116.82343 c -19.96485,0 -26.64063,-15.23828 -26.92188,-15.90234 -0.50781,-1.19922 0.0547,-2.58203 1.25391,-3.08984 1.19531,-0.50782 2.57812,0.0508 3.08594,1.24609 0.25781,0.59375 6.14453,13.64844 23.85937,13.00781 1.32031,-0.0469 2.39063,0.96875 2.44141,2.26953 0.0469,1.30078 -0.97266,2.39453 -2.27344,2.44141 -0.48828,0.0156 -0.97266,0.0273 -1.44531,0.0273"
       id="path2804" />
    <path
       style="display:inline;fill:#020505;fill-opacity:1;fill-rule:nonzero;stroke:none"
       d="m 129.50312,56.233589 c -0.125,0 -0.2539,-0.0078 -0.38281,-0.03125 -6.19922,-1.015625 -8.48047,-5.523438 -8.57422,-5.710938 -0.57422,-1.171875 -0.0937,-2.582031 1.07422,-3.15625 1.16016,-0.570312 2.55859,-0.101562 3.14062,1.046875 0.0859,0.15625 1.4375,2.5625 5.1211,3.167969 1.28515,0.210937 2.15625,1.421875 1.94531,2.707031 -0.19141,1.15625 -1.19141,1.976563 -2.32422,1.976563"
       id="path320" />
    <path
       style="display:inline;fill:#020505;fill-opacity:1;fill-rule:nonzero;stroke:none"
       d="m 131.32343,71.764839 c -6.93359,0 -13.32812,-6.550781 -13.61328,-6.847657 -0.90625,-0.9375 -0.8789,-2.429687 0.0625,-3.332031 0.9336,-0.90625 2.42579,-0.878906 3.32813,0.05859 1.63281,1.683594 6.79297,5.9375 11.01172,5.355469 1.29297,-0.175782 2.47656,0.722656 2.65625,2.015625 0.17578,1.289062 -0.72657,2.476562 -2.01953,2.65625 -0.47657,0.0625 -0.95313,0.09375 -1.42579,0.09375"
       id="path324" />
    <path
       style="display:inline;fill:#020505;fill-opacity:1;fill-rule:nonzero;stroke:none"
       d="m 134.01875,86.850776 c -10.82032,0 -19.01172,-8.722656 -19.36719,-9.109375 -0.88672,-0.957031 -0.82812,-2.449219 0.12891,-3.332031 0.95312,-0.882812 2.44531,-0.828125 3.32812,0.128906 0.10156,0.105469 7.78906,8.234375 17.01563,7.558594 1.29296,-0.08984 2.42968,0.882812 2.52343,2.179688 0.0937,1.296874 -0.8789,2.429687 -2.17968,2.523437 -0.48829,0.03516 -0.97266,0.05078 -1.44922,0.05078"
       id="path328" />
    <path
       style="display:inline;fill:#020505;fill-opacity:1;fill-rule:nonzero;stroke:none"
       d="m 136.1789,102.1164 c -12.13281,0 -21.05078,-9.152342 -23.60156,-12.097655 -0.89453,-1.03125 -1.48437,-1.710937 -1.19531,-2.925781 0.30469,-1.265625 1.57812,-2.050782 2.84375,-1.742188 0.58203,0.136719 1.0625,0.480469 1.37891,0.9375 0.42578,0.542969 9.72265,12.191404 22.35937,11.031254 1.28125,-0.12891 2.44531,0.83203 2.56641,2.1289 0.11718,1.29688 -0.83594,2.44532 -2.13282,2.56641 -0.75,0.0664 -1.48828,0.10156 -2.21875,0.10156"
       id="path332" />
    <path
       style="display:inline;fill:#020505;fill-opacity:1;fill-rule:nonzero;stroke:none"
       d="m 135.51875,116.82343 c -19.96485,0 -26.64063,-15.23828 -26.92188,-15.90234 -0.50781,-1.19922 0.0547,-2.58203 1.25391,-3.08984 1.19531,-0.50782 2.57812,0.0508 3.08594,1.24609 0.25781,0.59375 6.14453,13.64844 23.85937,13.00781 1.32031,-0.0469 2.39063,0.96875 2.44141,2.26953 0.0469,1.30078 -0.97266,2.39453 -2.27344,2.44141 -0.48828,0.0156 -0.97266,0.0273 -1.44531,0.0273"
       id="path336" />
  </g>
  <g
     inkscape:groupmode="layer"
     id="layer2"
     inkscape:label="F.Mask"
     style="display:inline" />
</svg>
