<?xml version="1.0" encoding="UTF-8" standalone="no"?>
<!-- Created with Inkscape (http://www.inkscape.org/) -->

<svg
   width="1266.7198"
   height="1920"
   viewBox="0 0 335.15295 508.00001"
   version="1.1"
   id="svg2960"
   inkscape:version="1.1.1 (3bf5ae0d25, 2021-09-20, custom)"
   sodipodi:docname="witty-corn.svg"
   xmlns:inkscape="http://www.inkscape.org/namespaces/inkscape"
   xmlns:sodipodi="http://sodipodi.sourceforge.net/DTD/sodipodi-0.dtd"
   xmlns="http://www.w3.org/2000/svg"
   xmlns:svg="http://www.w3.org/2000/svg">
  <sodipodi:namedview
     id="namedview2962"
     pagecolor="#ffffff"
     bordercolor="#666666"
     borderopacity="1.0"
     inkscape:pageshadow="2"
     inkscape:pageopacity="0.0"
     inkscape:pagecheckerboard="0"
     inkscape:document-units="mm"
     showgrid="false"
     units="px"
     fit-margin-top="0"
     fit-margin-left="0"
     fit-margin-right="0"
     fit-margin-bottom="0"
     inkscape:zoom="0.13748183"
     inkscape:cx="-1509.2904"
     inkscape:cy="949.21638"
     inkscape:window-width="2560"
     inkscape:window-height="1381"
     inkscape:window-x="0"
     inkscape:window-y="0"
     inkscape:window-maximized="1"
     inkscape:current-layer="layer1" />
  <defs
     id="defs2957">
    <clipPath
       id="clip1-2-4">
      <path
         d="M 127,190 H 427 V 442 H 127 Z m 0,0"
         id="path2-7" />
    </clipPath>
    <clipPath
       id="clip2-9-6">
      <path
         d="m 200.81641,212.62109 -27.33985,0.44922 -1.3789,28.52735 -24.78125,30.89453 15.15625,11.26562 -34.50391,43.45703 22.64844,25.72657 -8.90625,33.48437 40.01172,17.37891 -4.36329,30.89843 59.65235,-10.30078 36.375,16.73828 22.7539,-23.8164 63.48047,2.57422 4.70313,-33.47266 h 45.82812 l -6.54687,-56 23.28125,-11.90625 -7.64063,-59.54297 -54.19531,-9.65625 24.00391,-32.18359 -59.65235,14.60937 -40.73828,-18.67578 -18.1875,11.14844 -24.00781,-29.82813 -18.91406,18.67969 -0.55078,-13.32422 -8.73047,9.01172 -11,-18.66797 z m 0,0"
         id="path5-5" />
    </clipPath>
    <clipPath
       id="clip3-1-6">
      <path
         d="m 380,372 h 13 v 28 h -13 z m 0,0"
         id="path8-9" />
    </clipPath>
    <clipPath
       id="clip4-2-3">
      <path
         d="m 200.81641,212.62109 -27.33985,0.44922 -1.3789,28.52735 -24.78125,30.89453 15.15625,11.26562 -34.50391,43.45703 22.64844,25.72657 -8.90625,33.48437 40.01172,17.37891 -4.36329,30.89843 59.65235,-10.30078 36.375,16.73828 22.7539,-23.8164 63.48047,2.57422 4.70313,-33.47266 h 45.82812 l -6.54687,-56 23.28125,-11.90625 -7.64063,-59.54297 -54.19531,-9.65625 24.00391,-32.18359 -59.65235,14.60937 -40.73828,-18.67578 -18.1875,11.14844 -24.00781,-29.82813 -18.91406,18.67969 -0.55078,-13.32422 -8.73047,9.01172 -11,-18.66797 z m 0,0"
         id="path11-7-7" />
    </clipPath>
    <clipPath
       id="clip5-0-4">
      <path
         d="m 307,343 h 60 v 60 h -60 z m 0,0"
         id="path14-9-5" />
    </clipPath>
    <clipPath
       id="clip6-3-2">
      <path
         d="m 200.81641,212.62109 -27.33985,0.44922 -1.3789,28.52735 -24.78125,30.89453 15.15625,11.26562 -34.50391,43.45703 22.64844,25.72657 -8.90625,33.48437 40.01172,17.37891 -4.36329,30.89843 59.65235,-10.30078 36.375,16.73828 22.7539,-23.8164 63.48047,2.57422 4.70313,-33.47266 h 45.82812 l -6.54687,-56 23.28125,-11.90625 -7.64063,-59.54297 -54.19531,-9.65625 24.00391,-32.18359 -59.65235,14.60937 -40.73828,-18.67578 -18.1875,11.14844 -24.00781,-29.82813 -18.91406,18.67969 -0.55078,-13.32422 -8.73047,9.01172 -11,-18.66797 z m 0,0"
         id="path17-5" />
    </clipPath>
    <clipPath
       id="clip7-6-4">
      <path
         d="m 346,362 h 23 v 20 h -23 z m 0,0"
         id="path20-7" />
    </clipPath>
    <clipPath
       id="clip8-0-4">
      <path
         d="m 200.81641,212.62109 -27.33985,0.44922 -1.3789,28.52735 -24.78125,30.89453 15.15625,11.26562 -34.50391,43.45703 22.64844,25.72657 -8.90625,33.48437 40.01172,17.37891 -4.36329,30.89843 59.65235,-10.30078 36.375,16.73828 22.7539,-23.8164 63.48047,2.57422 4.70313,-33.47266 h 45.82812 l -6.54687,-56 23.28125,-11.90625 -7.64063,-59.54297 -54.19531,-9.65625 24.00391,-32.18359 -59.65235,14.60937 -40.73828,-18.67578 -18.1875,11.14844 -24.00781,-29.82813 -18.91406,18.67969 -0.55078,-13.32422 -8.73047,9.01172 -11,-18.66797 z m 0,0"
         id="path23-4" />
    </clipPath>
    <clipPath
       id="clip9-6-3">
      <path
         d="m 180,348 h 138 v 57 H 180 Z m 0,0"
         id="path26-0" />
    </clipPath>
    <clipPath
       id="clip10-2-7">
      <path
         d="m 200.81641,212.62109 -27.33985,0.44922 -1.3789,28.52735 -24.78125,30.89453 15.15625,11.26562 -34.50391,43.45703 22.64844,25.72657 -8.90625,33.48437 40.01172,17.37891 -4.36329,30.89843 59.65235,-10.30078 36.375,16.73828 22.7539,-23.8164 63.48047,2.57422 4.70313,-33.47266 h 45.82812 l -6.54687,-56 23.28125,-11.90625 -7.64063,-59.54297 -54.19531,-9.65625 24.00391,-32.18359 -59.65235,14.60937 -40.73828,-18.67578 -18.1875,11.14844 -24.00781,-29.82813 -18.91406,18.67969 -0.55078,-13.32422 -8.73047,9.01172 -11,-18.66797 z m 0,0"
         id="path29-8" />
    </clipPath>
    <clipPath
       id="clip11-6-6">
      <path
         d="m 173,341 h 152 v 71 H 173 Z m 0,0"
         id="path32-8" />
    </clipPath>
    <clipPath
       id="clip12-1-8">
      <path
         d="m 200.81641,212.62109 -27.33985,0.44922 -1.3789,28.52735 -24.78125,30.89453 15.15625,11.26562 -34.50391,43.45703 22.64844,25.72657 -8.90625,33.48437 40.01172,17.37891 -4.36329,30.89843 59.65235,-10.30078 36.375,16.73828 22.7539,-23.8164 63.48047,2.57422 4.70313,-33.47266 h 45.82812 l -6.54687,-56 23.28125,-11.90625 -7.64063,-59.54297 -54.19531,-9.65625 24.00391,-32.18359 -59.65235,14.60937 -40.73828,-18.67578 -18.1875,11.14844 -24.00781,-29.82813 -18.91406,18.67969 -0.55078,-13.32422 -8.73047,9.01172 -11,-18.66797 z m 0,0"
         id="path35-4" />
    </clipPath>
    <clipPath
       id="clip13-8-3">
      <path
         d="m 219,384 h 88 v 21 h -88 z m 0,0"
         id="path38-1" />
    </clipPath>
    <clipPath
       id="clip14-7-4">
      <path
         d="m 180.32422,348.75 v 0 m 23.63281,35.30078 c 3.64453,8.71484 10.91016,15.54688 20.03516,17.99219 40.40625,10.83594 96.35156,-18.08203 96.35156,-18.08203 -93.69922,5.0039 -139.92969,-35.13282 -140.01953,-35.21094 11.90234,10.73437 19.5,25.42187 23.63281,35.30078"
         id="path41-9" />
    </clipPath>
    <clipPath
       id="clip15-9-2">
      <path
         d="m 216,380 h 95 v 25 h -95 z m 0,0"
         id="path44-0" />
    </clipPath>
    <clipPath
       id="clip16-2-6">
      <path
         d="m 180.32422,348.75 v 0 m 23.63281,35.30078 c 3.64453,8.71484 10.91016,15.54688 20.03516,17.99219 40.40625,10.83594 96.35156,-18.08203 96.35156,-18.08203 -93.69922,5.0039 -139.92969,-35.13282 -140.01953,-35.21094 11.90234,10.73437 19.5,25.42187 23.63281,35.30078"
         id="path47-8" />
    </clipPath>
    <clipPath
       id="clip17-0-9">
      <path
         d="m 219,363 h 51 v 30 h -51 z m 0,0"
         id="path50-2" />
    </clipPath>
    <clipPath
       id="clip18-2-6">
      <path
         d="m 200.81641,212.62109 -27.33985,0.44922 -1.3789,28.52735 -24.78125,30.89453 15.15625,11.26562 -34.50391,43.45703 22.64844,25.72657 -8.90625,33.48437 40.01172,17.37891 -4.36329,30.89843 59.65235,-10.30078 36.375,16.73828 22.7539,-23.8164 63.48047,2.57422 4.70313,-33.47266 h 45.82812 l -6.54687,-56 23.28125,-11.90625 -7.64063,-59.54297 -54.19531,-9.65625 24.00391,-32.18359 -59.65235,14.60937 -40.73828,-18.67578 -18.1875,11.14844 -24.00781,-29.82813 -18.91406,18.67969 -0.55078,-13.32422 -8.73047,9.01172 -11,-18.66797 z m 0,0"
         id="path53-6" />
    </clipPath>
    <clipPath
       id="clip19-3-4">
      <path
         d="m 216,359 h 57 v 37 h -57 z m 0,0"
         id="path56-7-9" />
    </clipPath>
    <clipPath
       id="clip20-5-5">
      <path
         d="m 200.81641,212.62109 -27.33985,0.44922 -1.3789,28.52735 -24.78125,30.89453 15.15625,11.26562 -34.50391,43.45703 22.64844,25.72657 -8.90625,33.48437 40.01172,17.37891 -4.36329,30.89843 59.65235,-10.30078 36.375,16.73828 22.7539,-23.8164 63.48047,2.57422 4.70313,-33.47266 h 45.82812 l -6.54687,-56 23.28125,-11.90625 -7.64063,-59.54297 -54.19531,-9.65625 24.00391,-32.18359 -59.65235,14.60937 -40.73828,-18.67578 -18.1875,11.14844 -24.00781,-29.82813 -18.91406,18.67969 -0.55078,-13.32422 -8.73047,9.01172 -11,-18.66797 z m 0,0"
         id="path59-0" />
    </clipPath>
    <clipPath
       id="clip21-9-4">
      <path
         d="m 164,339 h 42 v 37 h -42 z m 0,0"
         id="path62-8" />
    </clipPath>
    <clipPath
       id="clip22-2-7">
      <path
         d="m 200.81641,212.62109 -27.33985,0.44922 -1.3789,28.52735 -24.78125,30.89453 15.15625,11.26562 -34.50391,43.45703 22.64844,25.72657 -8.90625,33.48437 40.01172,17.37891 -4.36329,30.89843 59.65235,-10.30078 36.375,16.73828 22.7539,-23.8164 63.48047,2.57422 4.70313,-33.47266 h 45.82812 l -6.54687,-56 23.28125,-11.90625 -7.64063,-59.54297 -54.19531,-9.65625 24.00391,-32.18359 -59.65235,14.60937 -40.73828,-18.67578 -18.1875,11.14844 -24.00781,-29.82813 -18.91406,18.67969 -0.55078,-13.32422 -8.73047,9.01172 -11,-18.66797 z m 0,0"
         id="path65-1" />
    </clipPath>
    <clipPath
       id="clip23-2-7">
      <path
         d="m 160,335 h 49 v 44 h -49 z m 0,0"
         id="path68-2" />
    </clipPath>
    <clipPath
       id="clip24-8-7">
      <path
         d="m 200.81641,212.62109 -27.33985,0.44922 -1.3789,28.52735 -24.78125,30.89453 15.15625,11.26562 -34.50391,43.45703 22.64844,25.72657 -8.90625,33.48437 40.01172,17.37891 -4.36329,30.89843 59.65235,-10.30078 36.375,16.73828 22.7539,-23.8164 63.48047,2.57422 4.70313,-33.47266 h 45.82812 l -6.54687,-56 23.28125,-11.90625 -7.64063,-59.54297 -54.19531,-9.65625 24.00391,-32.18359 -59.65235,14.60937 -40.73828,-18.67578 -18.1875,11.14844 -24.00781,-29.82813 -18.91406,18.67969 -0.55078,-13.32422 -8.73047,9.01172 -11,-18.66797 z m 0,0"
         id="path71-2" />
    </clipPath>
    <clipPath
       id="clip25-9-2">
      <path
         d="m 154,295 h 164 v 87 H 154 Z m 0,0"
         id="path74-6" />
    </clipPath>
    <clipPath
       id="clip26-7-1">
      <path
         d="m 200.81641,212.62109 -27.33985,0.44922 -1.3789,28.52735 -24.78125,30.89453 15.15625,11.26562 -34.50391,43.45703 22.64844,25.72657 -8.90625,33.48437 40.01172,17.37891 -4.36329,30.89843 59.65235,-10.30078 36.375,16.73828 22.7539,-23.8164 63.48047,2.57422 4.70313,-33.47266 h 45.82812 l -6.54687,-56 23.28125,-11.90625 -7.64063,-59.54297 -54.19531,-9.65625 24.00391,-32.18359 -59.65235,14.60937 -40.73828,-18.67578 -18.1875,11.14844 -24.00781,-29.82813 -18.91406,18.67969 -0.55078,-13.32422 -8.73047,9.01172 -11,-18.66797 z m 0,0"
         id="path77-0" />
    </clipPath>
    <clipPath
       id="clip27-3-6">
      <path
         d="M 150,292 H 332 V 392 H 150 Z m 0,0"
         id="path80-1" />
    </clipPath>
    <clipPath
       id="clip28-6-5">
      <path
         d="m 200.81641,212.62109 -27.33985,0.44922 -1.3789,28.52735 -24.78125,30.89453 15.15625,11.26562 -34.50391,43.45703 22.64844,25.72657 -8.90625,33.48437 40.01172,17.37891 -4.36329,30.89843 59.65235,-10.30078 36.375,16.73828 22.7539,-23.8164 63.48047,2.57422 4.70313,-33.47266 h 45.82812 l -6.54687,-56 23.28125,-11.90625 -7.64063,-59.54297 -54.19531,-9.65625 24.00391,-32.18359 -59.65235,14.60937 -40.73828,-18.67578 -18.1875,11.14844 -24.00781,-29.82813 -18.91406,18.67969 -0.55078,-13.32422 -8.73047,9.01172 -11,-18.66797 z m 0,0"
         id="path83-9" />
    </clipPath>
    <clipPath
       id="clip29-1-4">
      <path
         d="m 231,331 h 16 v 8 h -16 z m 0,0"
         id="path86-9" />
    </clipPath>
    <clipPath
       id="clip30-2-0">
      <path
         d="m 200.81641,212.62109 -27.33985,0.44922 -1.3789,28.52735 -24.78125,30.89453 15.15625,11.26562 -34.50391,43.45703 22.64844,25.72657 -8.90625,33.48437 40.01172,17.37891 -4.36329,30.89843 59.65235,-10.30078 36.375,16.73828 22.7539,-23.8164 63.48047,2.57422 4.70313,-33.47266 h 45.82812 l -6.54687,-56 23.28125,-11.90625 -7.64063,-59.54297 -54.19531,-9.65625 24.00391,-32.18359 -59.65235,14.60937 -40.73828,-18.67578 -18.1875,11.14844 -24.00781,-29.82813 -18.91406,18.67969 -0.55078,-13.32422 -8.73047,9.01172 -11,-18.66797 z m 0,0"
         id="path89-9" />
    </clipPath>
    <clipPath
       id="clip31-9-1">
      <path
         d="m 195,318 h 15 v 10 h -15 z m 0,0"
         id="path92-3-7" />
    </clipPath>
    <clipPath
       id="clip32-1-7">
      <path
         d="m 200.81641,212.62109 -27.33985,0.44922 -1.3789,28.52735 -24.78125,30.89453 15.15625,11.26562 -34.50391,43.45703 22.64844,25.72657 -8.90625,33.48437 40.01172,17.37891 -4.36329,30.89843 59.65235,-10.30078 36.375,16.73828 22.7539,-23.8164 63.48047,2.57422 4.70313,-33.47266 h 45.82812 l -6.54687,-56 23.28125,-11.90625 -7.64063,-59.54297 -54.19531,-9.65625 24.00391,-32.18359 -59.65235,14.60937 -40.73828,-18.67578 -18.1875,11.14844 -24.00781,-29.82813 -18.91406,18.67969 -0.55078,-13.32422 -8.73047,9.01172 -11,-18.66797 z m 0,0"
         id="path95-9-1" />
    </clipPath>
    <clipPath
       id="clip33-4-1">
      <path
         d="m 288,310 h 50 v 30 h -50 z m 0,0"
         id="path98-7-5" />
    </clipPath>
    <clipPath
       id="clip34-8-9">
      <path
         d="m 200.81641,212.62109 -27.33985,0.44922 -1.3789,28.52735 -24.78125,30.89453 15.15625,11.26562 -34.50391,43.45703 22.64844,25.72657 -8.90625,33.48437 40.01172,17.37891 -4.36329,30.89843 59.65235,-10.30078 36.375,16.73828 22.7539,-23.8164 63.48047,2.57422 4.70313,-33.47266 h 45.82812 l -6.54687,-56 23.28125,-11.90625 -7.64063,-59.54297 -54.19531,-9.65625 24.00391,-32.18359 -59.65235,14.60937 -40.73828,-18.67578 -18.1875,11.14844 -24.00781,-29.82813 -18.91406,18.67969 -0.55078,-13.32422 -8.73047,9.01172 -11,-18.66797 z m 0,0"
         id="path101-7" />
    </clipPath>
    <clipPath
       id="clip35-4-7">
      <path
         d="m 294,292 h 24 v 15 h -24 z m 0,0"
         id="path104-6" />
    </clipPath>
    <clipPath
       id="clip36-5-7">
      <path
         d="m 200.81641,212.62109 -27.33985,0.44922 -1.3789,28.52735 -24.78125,30.89453 15.15625,11.26562 -34.50391,43.45703 22.64844,25.72657 -8.90625,33.48437 40.01172,17.37891 -4.36329,30.89843 59.65235,-10.30078 36.375,16.73828 22.7539,-23.8164 63.48047,2.57422 4.70313,-33.47266 h 45.82812 l -6.54687,-56 23.28125,-11.90625 -7.64063,-59.54297 -54.19531,-9.65625 24.00391,-32.18359 -59.65235,14.60937 -40.73828,-18.67578 -18.1875,11.14844 -24.00781,-29.82813 -18.91406,18.67969 -0.55078,-13.32422 -8.73047,9.01172 -11,-18.66797 z m 0,0"
         id="path107-3" />
    </clipPath>
    <clipPath
       id="clip37-0-6">
      <path
         d="m 183,274 h 44 v 29 h -44 z m 0,0"
         id="path110-5" />
    </clipPath>
    <clipPath
       id="clip38-3-6">
      <path
         d="m 200.81641,212.62109 -27.33985,0.44922 -1.3789,28.52735 -24.78125,30.89453 15.15625,11.26562 -34.50391,43.45703 22.64844,25.72657 -8.90625,33.48437 40.01172,17.37891 -4.36329,30.89843 59.65235,-10.30078 36.375,16.73828 22.7539,-23.8164 63.48047,2.57422 4.70313,-33.47266 h 45.82812 l -6.54687,-56 23.28125,-11.90625 -7.64063,-59.54297 -54.19531,-9.65625 24.00391,-32.18359 -59.65235,14.60937 -40.73828,-18.67578 -18.1875,11.14844 -24.00781,-29.82813 -18.91406,18.67969 -0.55078,-13.32422 -8.73047,9.01172 -11,-18.66797 z m 0,0"
         id="path113-3" />
    </clipPath>
    <clipPath
       id="clip39-6-9">
      <path
         d="m 210,265 h 21 v 19 h -21 z m 0,0"
         id="path116-4" />
    </clipPath>
    <clipPath
       id="clip40-1-8">
      <path
         d="m 200.81641,212.62109 -27.33985,0.44922 -1.3789,28.52735 -24.78125,30.89453 15.15625,11.26562 -34.50391,43.45703 22.64844,25.72657 -8.90625,33.48437 40.01172,17.37891 -4.36329,30.89843 59.65235,-10.30078 36.375,16.73828 22.7539,-23.8164 63.48047,2.57422 4.70313,-33.47266 h 45.82812 l -6.54687,-56 23.28125,-11.90625 -7.64063,-59.54297 -54.19531,-9.65625 24.00391,-32.18359 -59.65235,14.60937 -40.73828,-18.67578 -18.1875,11.14844 -24.00781,-29.82813 -18.91406,18.67969 -0.55078,-13.32422 -8.73047,9.01172 -11,-18.66797 z m 0,0"
         id="path119-1" />
    </clipPath>
    <clipPath
       id="clip41-0-2">
      <path
         d="m 202,402 h 31 v 20 h -31 z m 0,0"
         id="path122-9" />
    </clipPath>
    <clipPath
       id="clip42-6-3">
      <path
         d="m 200.81641,212.62109 -27.33985,0.44922 -1.3789,28.52735 -24.78125,30.89453 15.15625,11.26562 -34.50391,43.45703 22.64844,25.72657 -8.90625,33.48437 40.01172,17.37891 -4.36329,30.89843 59.65235,-10.30078 36.375,16.73828 22.7539,-23.8164 63.48047,2.57422 4.70313,-33.47266 h 45.82812 l -6.54687,-56 23.28125,-11.90625 -7.64063,-59.54297 -54.19531,-9.65625 24.00391,-32.18359 -59.65235,14.60937 -40.73828,-18.67578 -18.1875,11.14844 -24.00781,-29.82813 -18.91406,18.67969 -0.55078,-13.32422 -8.73047,9.01172 -11,-18.66797 z m 0,0"
         id="path125-9" />
    </clipPath>
  </defs>
  <g
     inkscape:label="Layer 1"
     inkscape:groupmode="layer"
     id="layer1"
     transform="translate(-96.335153,88.959484)">
    <g
       id="surface3818"
       transform="matrix(0.73985613,0,0,0.73985613,44.987102,-110.22539)"
       style="mix-blend-mode:multiply;stroke-width:0.476818">
      <path
         style="fill:#d76338;fill-opacity:1;fill-rule:nonzero;stroke:none;stroke-width:0.476818"
         d="m 180.47656,647.46875 -2.76172,16.47656 18.1836,16.41797 -18.1836,8.21484 -25.80468,-17.01171 -22.84375,-60.07813 z m 0,0"
         id="path130" />
      <path
         style="fill:#542623;fill-opacity:1;fill-rule:nonzero;stroke:none;stroke-width:0.476818"
         d="m 155.59766,668.60937 22.52343,14.84766 9.65625,-4.36328 -13.07812,-11.8125 c -1.14063,-1.02734 -1.67578,-2.56641 -1.42188,-4.08203 l 2.28907,-13.67188 -37.09375,-25.96484 z m 22.11718,24.46875 c -0.86718,0 -1.73047,-0.2539 -2.47656,-0.74218 l -25.80469,-17.01172 c -0.78906,-0.51953 -1.39453,-1.27344 -1.73047,-2.15625 l -22.84374,-60.07813 c -0.69922,-1.84765 -0.11719,-3.9375 1.4414,-5.15234 1.5586,-1.21094 3.72656,-1.26953 5.34766,-0.13672 l 51.40625,35.98047 c 1.42187,0.99609 2.14843,2.71875 1.85937,4.42969 l -2.35156,14.04297 16.35156,14.76953 c 1.12891,1.01953 1.66406,2.53515 1.42969,4.03515 -0.23438,1.5 -1.21094,2.78125 -2.59375,3.40625 l -18.18359,8.21485 c -0.58985,0.26562 -1.22266,0.39843 -1.85157,0.39843"
         id="path132" />
      <path
         style="fill:#d76338;fill-opacity:1;fill-rule:nonzero;stroke:none;stroke-width:0.476818"
         d="m 149.5625,442.23828 -15.83594,66.86328 c 0,0 -37.53906,64.51563 0,108.50391 37.53906,43.99219 115.54297,42.23047 140.47266,32.26172 l 12.60937,26.98047 52.78907,34.01562 4.10156,-22.875 -21.11328,-21.69922 14.07812,-74.48828 24.63281,-46.92187 42.23047,-18.1836 15.25,-54.54687 17.00782,19.94531 c 0,0 23.10937,-26.35938 12.4375,-63.32813 z m 0,0"
         id="path134" />
      <path
         style="fill:#542623;fill-opacity:1;fill-rule:nonzero;stroke:none;stroke-width:0.476818"
         d="m 133.72656,509.10156 h 0.0117 z m 156.60938,164.66406 46.02343,29.66016 2.50391,-13.95703 -19.5,-20.04297 c -1.02344,-1.05078 -1.46875,-2.53125 -1.19922,-3.97266 l 14.07813,-74.48828 c 0.082,-0.4375 0.23047,-0.86328 0.4375,-1.25781 l 24.63281,-46.91797 c 0.48047,-0.91406 1.25781,-1.63672 2.20703,-2.04297 l 40.25391,-17.33203 14.66797,-52.47656 c 0.44921,-1.60156 1.74218,-2.82422 3.36718,-3.18359 1.625,-0.35938 3.3125,0.21093 4.39063,1.47656 l 13.34375,15.64062 c 5.33984,-8.07422 15.00781,-26.95312 9.24609,-51.44531 l -291.6289,13.15625 -15.05469,63.55469 c -0.10156,0.43359 -0.26563,0.84375 -0.48828,1.22656 -0.0898,0.15625 -9.16407,15.94922 -13.6211,36.67969 -5.83593,27.15625 -1.41015,49.57812 13.15235,66.64453 35.74218,41.88281 111.09375,40.71484 135.3789,31 2.21485,-0.88672 4.73828,0.10937 5.75,2.27344 z m 49.25781,41.59766 c -0.85156,0 -1.69922,-0.24219 -2.43359,-0.71875 l -52.78907,-34.01562 c -0.71093,-0.46094 -1.28125,-1.10938 -1.64062,-1.87891 l -10.87891,-23.28125 c -17.89453,5.63672 -44.95703,5.58594 -63.78125,2.96094 -42.62109,-5.95313 -65.8164,-23.89453 -77.76562,-37.90235 -16.29688,-19.09375 -21.5,-44.89843 -15.05078,-74.62109 4.33593,-19.98828 12.45312,-35.25391 14.24218,-38.46484 l 15.6875,-66.23829 c 0.46485,-1.95703 2.16797,-3.37109 4.17578,-3.46093 l 298.66016,-13.47266 c 2.0625,-0.0898 3.94922,1.25 4.52344,3.24609 11.23047,38.88672 -12.36328,66.39063 -13.375,67.54297 -0.85156,0.97657 -2.08594,1.53125 -3.38281,1.53125 h -0.0312 c -1.30469,-0.008 -2.54688,-0.58593 -3.39063,-1.57812 L 420.83594,481.5 407.85937,527.91016 c -0.36328,1.30859 -1.30468,2.38281 -2.55468,2.92187 l -40.76563,17.55078 -23.57812,44.91406 -13.51953,71.53125 19.48437,20.02344 c 1.01172,1.03906 1.46094,2.50391 1.20313,3.9336 l -4.10157,22.875 c -0.26953,1.48046 -1.25781,2.73046 -2.63672,3.33203 -0.57421,0.25 -1.18359,0.37109 -1.79687,0.37109"
         id="path136" />
      <path
         style="fill:#e68268;fill-opacity:1;fill-rule:nonzero;stroke:none;stroke-width:0.476818"
         d="m 139.5625,610.45703 c -9.96094,-13.30078 -14.52734,-30.02734 -11.76953,-46.41406 2.05078,-12.17969 8.0625,-24.73438 22.9414,-30.89453 34.01954,-14.07813 53.375,11.12109 48.6836,29.3164 -4.69141,18.19141 -6.82031,53.96875 0.69531,64.52735 6.88281,9.67187 -23,33.61328 -60.55078,-16.53516"
         id="path138" />
      <path
         style="fill:#3f424c;fill-opacity:1;fill-rule:nonzero;stroke:none;stroke-width:0.476818"
         d="m 333.30078,677.29687 -6.5625,25.28125 12.85938,8.28516 4.10156,-22.875 z m 0,0"
         id="path140-3" />
      <path
         style="fill:#542623;fill-opacity:1;fill-rule:nonzero;stroke:none;stroke-width:0.476818"
         d="m 331.91406,700.55859 4.44531,2.86719 2.50391,-13.95703 -3.21484,-3.30469 z m 7.6836,14.80469 c -0.85157,0 -1.70313,-0.24219 -2.44141,-0.71875 l -12.85156,-8.28125 c -1.63282,-1.05469 -2.41016,-3.03125 -1.91797,-4.91406 l 6.55469,-25.28125 c 0.41015,-1.57422 1.63281,-2.80078 3.20312,-3.21875 1.57031,-0.41797 3.24609,0.0469 4.37891,1.21094 l 10.40234,10.6914 c 1.01172,1.03906 1.46094,2.50391 1.20703,3.9336 l -4.10937,22.875 c -0.26563,1.48046 -1.25391,2.73046 -2.63282,3.33203 -0.57421,0.25 -1.18359,0.37109 -1.79296,0.37109"
         id="path142" />
      <path
         style="fill:#542623;fill-opacity:1;fill-rule:nonzero;stroke:none;stroke-width:0.476818"
         d="m 191.78906,654.53125 c -0.89844,0 -1.80859,-0.26563 -2.59765,-0.82813 C 155.23437,629.62891 143.4375,588.14844 155.07812,533.75 c 8.62891,-40.32422 26.77344,-73.11328 27.54297,-74.48828 1.21094,-2.16797 3.94922,-2.94531 6.1211,-1.73828 2.16797,1.21093 2.94531,3.95312 1.73437,6.125 -0.17969,0.32422 -18.32031,33.13672 -26.63672,72.17187 -10.91797,51.23438 -0.63672,88.42578 30.55469,110.54297 2.02734,1.4375 2.50781,4.24609 1.07031,6.27344 -0.8789,1.23437 -2.26562,1.89453 -3.67578,1.89453"
         id="path144" />
      <path
         style="fill:#3f424c;fill-opacity:1;fill-rule:nonzero;stroke:none;stroke-width:0.476818"
         d="m 165.90625,680.79297 20.15625,-9.3125 9.83594,8.88281 -18.1836,8.21484 z m 0,0"
         id="path146" />
      <path
         style="fill:#542623;fill-opacity:1;fill-rule:nonzero;stroke:none;stroke-width:0.476818"
         d="m 175.13281,681.48437 2.98828,1.97266 9.65625,-4.36328 -2.52734,-2.28125 z m 2.58594,11.59375 c -0.87109,0 -1.73047,-0.2539 -2.48047,-0.74218 l -11.80859,-7.78907 c -1.36719,-0.89843 -2.13672,-2.46484 -2.01172,-4.08984 0.12109,-1.63281 1.11719,-3.06641 2.60156,-3.75 l 20.15625,-9.3125 c 1.63672,-0.75781 3.5625,-0.46094 4.90234,0.74609 l 9.83594,8.88282 c 1.125,1.01953 1.66406,2.53515 1.42969,4.03515 -0.23438,1.5 -1.21094,2.78125 -2.59375,3.40625 l -18.18359,8.21485 c -0.58985,0.26562 -1.22266,0.39843 -1.84766,0.39843"
         id="path148" />
      <path
         style="fill:#542623;fill-opacity:1;fill-rule:nonzero;stroke:none;stroke-width:0.476818"
         d="m 177.37109,549.02344 h -7.76172 l -3.8789,6.71875 3.8789,6.72265 h 7.76172 l 3.87891,-6.72265 z m 0,0"
         id="path150" />
      <path
         style="fill:#542623;fill-opacity:1;fill-rule:nonzero;stroke:none;stroke-width:0.476818"
         d="m 172.21094,557.96484 h 2.5625 l 1.28125,-2.22265 -1.28125,-2.21875 h -2.5625 l -1.28516,2.21875 z m 5.16015,9 h -7.76172 c -1.60546,0 -3.08984,-0.85937 -3.89453,-2.25 l -3.8789,-6.72265 c -0.80469,-1.39063 -0.80469,-3.10547 0,-4.5 l 3.8789,-6.71875 c 0.80469,-1.39063 2.28907,-2.25 3.89453,-2.25 h 7.76172 c 1.60547,0 3.09375,0.85937 3.89453,2.25 l 3.88282,6.71875 c 0.80078,1.39453 0.80078,3.10937 0,4.5 l -3.88282,6.72265 c -0.80078,1.39063 -2.28906,2.25 -3.89453,2.25"
         id="path152" />
      <path
         style="fill:#d76338;fill-opacity:1;fill-rule:nonzero;stroke:none;stroke-width:0.476818"
         d="m 152.30859,208.80859 c 0,0 -19.24609,9.77344 -30.67968,0 0,0 -13.27735,12.54688 18.10546,25.03907 z m 0,0"
         id="path154" />
      <path
         style="fill:#542623;fill-opacity:1;fill-rule:nonzero;stroke:none;stroke-width:0.476818"
         d="m 123.35156,215.26172 c -0.0234,0.37109 0,0.76953 0.0859,1.18359 0.38281,1.8086 2.55859,6.33203 14.17187,11.60938 l 5.73829,-11.42188 c -5.96094,1.32813 -13.42579,1.79297 -19.9961,-1.37109 m 16.38281,23.08594 c -0.55468,0 -1.11718,-0.10157 -1.66406,-0.32032 -14.125,-5.62109 -22.02734,-12.34375 -23.48828,-19.98047 -1.12109,-5.86328 1.95703,-10.62109 3.95703,-12.50781 1.66797,-1.58203 4.26172,-1.64844 6.01172,-0.15234 8.90234,7.60937 25.55469,-0.50391 25.72266,-0.58985 1.73047,-0.88281 3.83203,-0.54687 5.21093,0.82422 1.37891,1.3711 1.71875,3.46875 0.84766,5.20703 l -12.57422,25.03907 c -0.78515,1.5625 -2.36719,2.48047 -4.02344,2.48047"
         id="path156" />
      <path
         style="fill:#d76338;fill-opacity:1;fill-rule:nonzero;stroke:none;stroke-width:0.476818"
         d="M 135.57422,371.82812 106.16016,352.5 95.601562,295.60547 l -7.625,18.76953 -14.074218,-18.76953 7.039062,85.63281 60.410154,77.42188"
         id="path158" />
      <path
         style="fill:#542623;fill-opacity:1;fill-rule:nonzero;stroke:none;stroke-width:0.476818"
         d="m 141.35547,463.16016 c -1.33985,0 -2.66406,-0.59375 -3.55078,-1.73047 L 77.394531,384.00781 c -0.542969,-0.6914 -0.867187,-1.52734 -0.9375,-2.40234 l -7.039062,-85.62891 c -0.164063,-2 1.011719,-3.86719 2.886719,-4.57812 1.871093,-0.71094 3.992187,-0.0937 5.195312,1.50781 l 9.304688,12.40234 4.628906,-11.39453 c 0.753906,-1.85156 2.640625,-2.98047 4.625,-2.78125 1.988281,0.19922 3.605468,1.6875 3.968746,3.65235 l 10.20704,55.00781 27.81249,18.27344 c 2.07813,1.36718 2.65235,4.15625 1.28907,6.23437 -1.36328,2.07422 -4.15235,2.65234 -6.23047,1.28906 L 103.6875,356.26172 c -1.02344,-0.67188 -1.72656,-1.73438 -1.95312,-2.94141 l -7.750005,-41.77344 -1.835937,4.52344 c -0.613282,1.5 -1.984376,2.5586 -3.59375,2.76953 -1.609376,0.19922 -3.203126,-0.46875 -4.175782,-1.76562 l -4.714844,-6.28125 5.652344,68.73828 59.582034,76.35937 c 1.53125,1.96094 1.17968,4.78907 -0.77735,6.31641 -0.82422,0.64063 -1.79687,0.95313 -2.76562,0.95313"
         id="path160" />
      <path
         style="fill:#d76338;fill-opacity:1;fill-rule:nonzero;stroke:none;stroke-width:0.476818"
         d="m 383,458.66016 -24.04688,-12.90235 -14.07812,16.42188 -17.59766,-11.73047 -14.07422,14.07422 -26.39453,-9.38282 -33.42968,24.63282 -30.5,-21.11328 -53.375,4.10546 4.10546,-17.00781 -45.74999,2.92969 18.76953,-26.97656 h -24.63282 l 17.00782,-44.57813 -12.90235,-8.21094 4.69141,-38.12109 -13.48828,-22.875 15.25,-26.6875 -15.25,-6.74609 45.67187,-103.60938 14.66406,4.69141 1.75782,-21.70313 c 0,0 25.80859,-2.34375 40.47265,14.66407 l 1.17188,-25.22266 c 0,0 23.53515,-7.23828 44.0625,17.39453 l 2.93359,-26.39453 c 0,0 39.88672,7.625 45.16406,34.60547 0,0 59.82422,-11.73047 90.32422,15.83594 l -14.07812,14.66406 c 0,0 54.54687,4.10547 70.38281,42.23047 l -14.07422,13.48828 c 0,0 53.95703,17.00781 55.71875,40.46875 l -28.74219,39.29687 c 0,0 -8.21093,29.32813 45.16407,42.23047 0,0 -5.86719,28.15235 -48.67969,22.28906 l -5.86719,18.17969 h -13.48828 l -2.93359,19.94531 -41.05469,-4.10546 z m 0,0"
         id="path162" />
      <path
         style="fill:#542623;fill-opacity:1;fill-rule:nonzero;stroke:none;stroke-width:0.476818"
         d="m 222.87891,454.16016 c 0.91406,0 1.80468,0.27734 2.5625,0.80078 l 27.85546,19.28515 30.84375,-22.72656 c 1.20313,-0.88672 2.76563,-1.11719 4.17579,-0.61719 l 23.71484,8.42969 12.06641,-12.06641 c 1.51562,-1.51562 3.89062,-1.75 5.67578,-0.5625 l 14.28125,9.51954 11.48047,-13.39454 c 1.375,-1.60546 3.67968,-2.03515 5.54296,-1.03515 l 20.94922,11.23828 20.51172,-22.61328 c 0.96094,-1.0586 2.35156,-1.59766 3.78125,-1.45313 l 36.78125,3.67578 2.3086,-15.6914 c 0.32421,-2.21094 2.21875,-3.84766 4.45312,-3.84766 h 10.21094 l 4.85937,-15.0625 c 0.67188,-2.07422 2.7461,-3.37109 4.89453,-3.07422 28.42188,3.89063 38.66016,-8.10937 42.09375,-14.73828 -19.73046,-5.5039 -33.08203,-14.02734 -39.73046,-25.37109 -6.5,-11.08594 -3.90235,-20.75781 -3.78907,-21.16406 0.14844,-0.51954 0.38282,-1.00782 0.70313,-1.44532 l 27.66406,-37.82422 c -1.58594,-7.48046 -10.6875,-15.88671 -25.90234,-23.86328 -13.20313,-6.91797 -26.33203,-11.08593 -26.46485,-11.1289 -1.51562,-0.47657 -2.66797,-1.72266 -3.02734,-3.26953 -0.36328,-1.54688 0.11719,-3.17188 1.26953,-4.26954 l 11.77734,-11.28906 c -16.08203,-32.61719 -64.80468,-36.66015 -65.30859,-36.69531 -1.73828,-0.13281 -3.24609,-1.25391 -3.86719,-2.87891 -0.62109,-1.6289 -0.25,-3.46875 0.95703,-4.72656 l 10.71094,-11.15625 C 367.5,163.24219 314.61719,173.22656 314.06641,173.33594 c -2.44532,0.47265 -4.80469,-1.11719 -5.28125,-3.55469 -3.60938,-18.45703 -26.70704,-26.97656 -36.83985,-29.85547 l -2.36328,21.27734 c -0.19922,1.79297 -1.45312,3.29297 -3.17969,3.8125 -1.72656,0.51954 -3.59765,-0.043 -4.7539,-1.42578 -14.30078,-17.16406 -29.83594,-17.375 -36.27344,-16.55468 l -1.01172,21.70703 c -0.0859,1.84375 -1.28125,3.44531 -3.02344,4.04687 -1.74218,0.60156 -3.67578,0.0781 -4.8789,-1.3164 -9.86328,-11.44141 -25.71875,-13.08594 -32.90235,-13.20313 L 182.125,175.9375 c -0.10938,1.36719 -0.83984,2.60937 -1.98047,3.375 -1.14062,0.76172 -2.56641,0.96484 -3.875,0.54687 l -10.80859,-3.45703 -42.22656,95.79297 11.14062,4.92578 c 1.16406,0.51563 2.05469,1.5 2.45312,2.71094 0.39844,1.21094 0.26563,2.53125 -0.36718,3.64063 l -13.95313,24.41796 12.16406,20.6211 c 0.50391,0.85547 0.71094,1.85156 0.58985,2.83594 l -4.34375,35.30468 10.5039,6.6836 c 1.80079,1.14843 2.55079,3.40625 1.78907,5.40234 l -14.67969,38.47266 h 18.09766 c 1.67578,0 3.21484,0.92968 3.98828,2.41406 0.77734,1.48437 0.66406,3.27734 -0.29297,4.65625 l -13.44141,19.32031 36.4375,-2.33594 c 1.4375,-0.0898 2.81641,0.5 3.73438,1.59375 0.92187,1.09766 1.26562,2.5625 0.92968,3.95313 l -2.65234,10.99219 47.19922,-3.62891 c 0.11719,-0.0117 0.23047,-0.0156 0.34766,-0.0156 m 30.5,30.11328 c -0.89844,0 -1.79297,-0.26172 -2.5625,-0.79688 l -29.1875,-20.20703 -51.77735,3.98438 c -1.43359,0.11718 -2.83984,-0.47266 -3.77344,-1.57032 -0.93359,-1.09375 -1.28515,-2.57422 -0.94921,-3.97265 l 2.67578,-11.07032 -39.65625,2.53907 c -1.73047,0.10547 -3.35547,-0.77735 -4.20703,-2.28125 -0.84766,-1.50391 -0.76172,-3.35938 0.22656,-4.78125 l 13.85156,-19.90625 h -16.02344 c -1.48046,0 -2.86718,-0.73047 -3.70312,-1.94922 -0.84375,-1.21875 -1.02734,-2.77344 -0.5,-4.15625 l 15.69922,-41.14844 -9.80469,-6.23828 c -1.46484,-0.93359 -2.26172,-2.62109 -2.05078,-4.34766 l 4.50391,-36.60547 -12.71094,-21.55468 c -0.82422,-1.39063 -0.83203,-3.11719 -0.0312,-4.51953 l 12.77344,-22.35547 -10.6875,-4.72657 c -2.26954,-1.00781 -3.30079,-3.66015 -2.29688,-5.92968 l 45.67187,-103.61328 c 0.92969,-2.10547 3.29688,-3.17188 5.48829,-2.47266 l 9.26562,2.96484 1.30078,-16.05078 c 0.17969,-2.18359 1.89844,-3.91797 4.07813,-4.11719 0.98437,-0.0898 21.03906,-1.74218 36.82422,9.4375 l 0.73046,-15.72265 c 0.0898,-1.89844 1.35938,-3.53516 3.17188,-4.09375 0.28125,-0.0859 6.97266,-2.09375 16.32812,-0.6875 6.8125,1.02344 16.23438,4.07422 25.64454,12.39062 l 1.875,-16.89843 c 0.14062,-1.2461 0.79296,-2.37891 1.80078,-3.125 1.01172,-0.74219 2.28515,-1.03125 3.51953,-0.79688 1.66406,0.31641 38.95703,7.74219 47.62109,33.91406 5.83594,-0.85937 17.20313,-2.16406 30.54297,-1.80859 26.01172,0.71094 46.02734,7.24219 59.49219,19.41406 0.90234,0.81641 1.4375,1.96485 1.48047,3.17969 0.043,1.21875 -0.41016,2.39844 -1.25,3.27734 l -7.95703,8.28907 c 16.85156,3 52.34765,12.88281 65.17187,43.76171 0.71094,1.71485 0.29688,3.69141 -1.04297,4.97266 l -8.75781,8.39453 c 15.66797,5.79297 50.19531,20.89844 51.77734,41.98047 0.0781,1.07031 -0.22656,2.12891 -0.85937,2.99609 l -28.16406,38.51172 c -0.28907,1.85157 -0.69141,7.36719 3.16406,13.77735 5.89453,9.80468 19.33203,17.48437 38.85156,22.20703 2.35938,0.57031 3.84375,2.91015 3.34766,5.28906 -0.0742,0.34375 -1.85157,8.53125 -9.63672,15.73047 -11.40235,10.54687 -27.5625,11.75 -40.30469,10.53516 l -4.73047,14.66796 c -0.59765,1.85938 -2.32812,3.11719 -4.28125,3.11719 H 453.75 l -2.36719,16.09766 c -0.35156,2.3789 -2.51562,4.0664 -4.90234,3.82422 l -38.79688,-3.87891 -21.35156,23.53906 c -1.39062,1.53125 -3.64062,1.91797 -5.46094,0.94141 l -20.85937,-11.19141 -11.71875,13.67578 c -1.48047,1.72657 -4.01953,2.07422 -5.91406,0.81641 l -14.52735,-9.6875 -11.46875,11.46875 c -1.22656,1.23047 -3.04687,1.64063 -4.6875,1.05859 l -24.14062,-8.58203 -31.50782,23.21485 c -0.79296,0.58203 -1.73046,0.875 -2.66796,0.875"
         id="path164" />
      <path
         style="fill:#d76338;fill-opacity:1;fill-rule:nonzero;stroke:none;stroke-width:0.476818"
         d="m 439.30469,374.78906 c 0,0 -4.69141,16.42188 29.91406,24.63281"
         id="path166" />
      <path
         style="fill:#542623;fill-opacity:1;fill-rule:nonzero;stroke:none;stroke-width:0.476818"
         d="m 469.22266,403.92187 c -0.34766,0 -0.69532,-0.0391 -1.04297,-0.12109 -15.82422,-3.75391 -26.24219,-9.74609 -30.96485,-17.80859 -3.78125,-6.46094 -2.40625,-11.84766 -2.23828,-12.44141 l 8.65625,2.47266 0.0312,-0.11719 c -0.0273,0.11328 -0.59765,2.84766 1.86719,6.39453 2.60937,3.75391 9.01562,9.01563 24.72266,12.74219 2.41796,0.57422 3.91406,3 3.34375,5.41797 -0.49219,2.0664 -2.33985,3.46093 -4.375,3.46093"
         id="path168" />
      <path
         style="fill:#d76338;fill-opacity:1;fill-rule:nonzero;stroke:none;stroke-width:0.476818"
         d="m 322.58594,496.78516 69.34375,-47.97266 29.1914,-58.1875 2.9336,15.83594 19.9414,-1.76172 -35.77734,67.44922 -35.19141,43.40625"
         id="path170" />
      <path
         style="fill:#542623;fill-opacity:1;fill-rule:nonzero;stroke:none;stroke-width:0.476818"
         d="m 373.02344,520.05078 c -0.99219,0 -1.9961,-0.32812 -2.82813,-1.00391 -1.93359,-1.5625 -2.23047,-4.39843 -0.66406,-6.32812 l 34.91797,-43.0625 31.6875,-59.74609 -11.6875,1.03125 c -2.3086,0.21093 -4.39844,-1.38282 -4.82031,-3.66016 l -0.49219,-2.66406 -23.1836,46.21093 c -0.33984,0.67579 -0.83984,1.25391 -1.46093,1.6836 l -69.34375,47.97265 c -2.04688,1.41407 -4.84766,0.90235 -6.26172,-1.14062 -1.41406,-2.04297 -0.90235,-4.84766 1.14062,-6.26172 l 68.39844,-47.31641 28.67188,-57.16015 c 0.86718,-1.72656 2.74609,-2.70703 4.65625,-2.4375 1.91406,0.27344 3.4414,1.73828 3.79296,3.63672 l 2.1875,11.8125 15.86719,-1.39844 c 1.64453,-0.14453 3.23438,0.61719 4.14453,1.99219 0.91407,1.375 1,3.14062 0.22657,4.59765 l -35.77735,67.44922 c -0.13672,0.25781 -0.29687,0.5 -0.48047,0.72656 l -35.1914,43.40235 c -0.89063,1.09765 -2.1875,1.66406 -3.5,1.66406"
         id="path172" />
      <path
         style="fill:#3f424c;fill-opacity:1;fill-rule:nonzero;stroke:none;stroke-width:0.476818"
         d="m 76.746094,330.21875 h 25.281246 l -6.425778,-34.60938 -7.625,18.76563 -14.074218,-18.76563 z m 0,0"
         id="path174" />
      <path
         style="fill:#542623;fill-opacity:1;fill-rule:nonzero;stroke:none;stroke-width:0.476818"
         d="m 80.890625,325.71875 h 15.722656 l -2.628906,-14.17188 -1.835937,4.52344 c -0.609376,1.50391 -1.984376,2.5586 -3.59375,2.76953 -1.609376,0.19922 -3.203126,-0.46875 -4.175782,-1.76562 l -4.714844,-6.28125 z m 21.136715,9 H 76.746094 c -2.34375,0 -4.292969,-1.79688 -4.484375,-4.12891 l -2.84375,-34.61328 c -0.164063,-2 1.011719,-3.86328 2.886719,-4.57422 1.875,-0.71484 3.992187,-0.10156 5.195312,1.50391 l 9.304688,12.40234 4.628906,-11.39453 c 0.753906,-1.85156 2.632812,-2.98047 4.625,-2.78515 1.988281,0.20312 3.605468,1.6914 3.968746,3.65625 l 6.42188,34.61328 c 0.24609,1.3164 -0.10938,2.67187 -0.96484,3.69922 -0.85157,1.02734 -2.1211,1.62109 -3.45704,1.62109"
         id="path176" />
      <path
         style="fill:#3f424c;fill-opacity:1;fill-rule:nonzero;stroke:none;stroke-width:0.476818"
         d="m 407.00781,418.75781 21.98438,14.22656 15.0039,-28.28515 -19.9414,1.76172 -2.9336,-15.83594 z m 0,0"
         id="path178" />
      <path
         style="fill:#542623;fill-opacity:1;fill-rule:nonzero;stroke:none;stroke-width:0.476818"
         d="m 412.83984,417.17187 14.47657,9.36719 8.82421,-16.6289 -11.6914,1.03125 c -2.30469,0.20703 -4.39453,-1.38282 -4.82031,-3.66407 l -0.49219,-2.66015 z m 16.15235,20.3125 c -0.85547,0 -1.70703,-0.24609 -2.44141,-0.72265 L 404.5625,422.53516 c -1.92578,-1.2461 -2.60547,-3.74219 -1.57813,-5.79688 l 14.11719,-28.13281 c 0.86328,-1.72656 2.74219,-2.70703 4.65235,-2.4375 1.91406,0.27344 3.4414,1.73437 3.79296,3.63672 l 2.1875,11.8125 15.86719,-1.39844 c 1.64063,-0.14844 3.23438,0.61719 4.14453,1.99219 0.91407,1.375 1,3.14062 0.22657,4.59765 l -15.00391,28.28516 c -0.58984,1.11328 -1.62109,1.92969 -2.83984,2.24609 -0.375,0.0977 -0.75782,0.14453 -1.13672,0.14453"
         id="path180" />
      <path
         style="fill:#542623;fill-opacity:1;fill-rule:nonzero;stroke:none;stroke-width:0.476818"
         d="m 187.91406,494.4375 h -7.76172 l -3.8789,6.71875 3.8789,6.72266 h 7.76172 l 3.87891,-6.72266 z m 0,0"
         id="path182" />
      <path
         style="fill:#542623;fill-opacity:1;fill-rule:nonzero;stroke:none;stroke-width:0.476818"
         d="m 182.75,503.37891 h 2.56641 l 1.28125,-2.22266 -1.28125,-2.21875 H 182.75 l -1.28125,2.21875 z m 5.16406,9 h -7.76172 c -1.60547,0 -3.08984,-0.85938 -3.89453,-2.25 l -3.88281,-6.72266 c -0.80078,-1.39063 -0.80078,-3.10547 0,-4.5 l 3.88281,-6.71875 c 0.80469,-1.39063 2.28906,-2.25 3.89453,-2.25 h 7.76172 c 1.60547,0 3.08985,0.85937 3.89453,2.25 l 3.88282,6.71875 c 0.80078,1.39453 0.80078,3.10937 0,4.5 l -3.88282,6.72266 c -0.80468,1.39062 -2.28906,2.25 -3.89453,2.25"
         id="path184" />
      <g
         clip-path="url(#clip1-2-4)"
         clip-rule="nonzero"
         id="g192"
         style="stroke-width:0.625417">
        <g
           clip-path="url(#clip2-9-6)"
           clip-rule="nonzero"
           id="g190"
           style="stroke-width:0.820324">
          <path
             style="fill:#6bca82;fill-opacity:1;fill-rule:nonzero;stroke:none;stroke-width:0.476818"
             d="M 471.17578,502.27734 H 110.25 l 14,-335.37109 346.92578,-9 z m 0,0"
             id="path186" />
          <path
             style="fill:#542623;fill-opacity:1;fill-rule:nonzero;stroke:none;stroke-width:0.476818"
             d="m 471.17578,150.90625 c -0.0586,0 -0.12109,0 -0.18359,0.004 l -346.92188,9 c -3.68359,0.0937 -6.66015,3.02343 -6.8125,6.70312 l -14,335.375 c -0.082,1.90234 0.6211,3.75781 1.94141,5.13672 1.32031,1.375 3.14453,2.15234 5.05078,2.15234 h 360.92578 c 3.86719,0 7,-3.13281 7,-7 V 157.90625 c 0,-1.88672 -0.76172,-3.69531 -2.11328,-5.01563 -1.30859,-1.27343 -3.0625,-1.98437 -4.88672,-1.98437 m 0,7 V 502.27734 H 110.25 l 14,-335.37109 346.92578,-9"
             id="path188" />
        </g>
      </g>
      <g
         clip-path="url(#clip3-1-6)"
         clip-rule="nonzero"
         id="g198"
         style="stroke-width:0.625417">
        <g
           clip-path="url(#clip4-2-3)"
           clip-rule="nonzero"
           id="g196"
           style="stroke-width:0.820324">
          <path
             style="fill:#542623;fill-opacity:1;fill-rule:nonzero;stroke:none;stroke-width:0.476818"
             d="m 384.24219,399.76172 c -0.44141,0 -0.89063,-0.0859 -1.32032,-0.26172 -1.78906,-0.73047 -2.64843,-2.77344 -1.91796,-4.5625 2.5039,-6.125 4.0625,-12.57031 4.63281,-19.16016 0.16797,-1.92578 1.875,-3.35156 3.78906,-3.1875 1.92578,0.16797 3.35156,1.86328 3.1875,3.78907 -0.63281,7.29296 -2.35937,14.42578 -5.12891,21.20703 -0.55468,1.35547 -1.86328,2.17578 -3.24218,2.17578"
             id="path194" />
        </g>
      </g>
      <g
         clip-path="url(#clip5-0-4)"
         clip-rule="nonzero"
         id="g204"
         style="stroke-width:0.625417">
        <g
           clip-path="url(#clip6-3-2)"
           clip-rule="nonzero"
           id="g202"
           style="stroke-width:0.820324">
          <path
             style="fill:#359987;fill-opacity:1;fill-rule:nonzero;stroke:none;stroke-width:0.476818"
             d="m 360.16406,390.41797 c -9.77734,12.97265 -28.21875,15.5664 -41.1914,5.78906 -12.97266,-9.77344 -15.56641,-28.21484 -5.78907,-41.1875 9.77344,-12.97656 28.21485,-15.56641 41.1875,-5.78906 12.97266,9.77344 15.56641,28.21484 5.79297,41.1875"
             id="path200" />
        </g>
      </g>
      <g
         clip-path="url(#clip7-6-4)"
         clip-rule="nonzero"
         id="g210"
         style="stroke-width:0.625417">
        <g
           clip-path="url(#clip8-0-4)"
           clip-rule="nonzero"
           id="g208"
           style="stroke-width:0.820324">
          <path
             style="fill:#ffffff;fill-opacity:1;fill-rule:nonzero;stroke:none;stroke-width:0.476818"
             d="m 368.24609,379.69141 c -2.07812,2.7539 -8.46093,1.44531 -14.26172,-2.92188 -5.79687,-4.37109 -8.8125,-10.14453 -6.73828,-12.90234 2.07422,-2.75391 8.46094,-1.44532 14.25782,2.92187 5.80078,4.3711 8.8164,10.14453 6.74218,12.90235"
             id="path206" />
        </g>
      </g>
      <g
         clip-path="url(#clip9-6-3)"
         clip-rule="nonzero"
         id="g216"
         style="stroke-width:0.625417">
        <g
           clip-path="url(#clip10-2-7)"
           clip-rule="nonzero"
           id="g214"
           style="stroke-width:0.820324">
          <path
             style="fill:#8c1c28;fill-opacity:1;fill-rule:nonzero;stroke:none;stroke-width:0.476818"
             d="m 317.70703,384.65625 c 0,0 -53.3125,28.22266 -93.71484,17.38672 -9.125,-2.44922 -16.39063,-9.28125 -20.03516,-17.99219 -4.13281,-9.87891 -11.73047,-24.56641 -23.63281,-35.30078 0,0 43.59375,40.91797 137.38281,35.90625"
             id="path212" />
        </g>
      </g>
      <g
         clip-path="url(#clip11-6-6)"
         clip-rule="nonzero"
         id="g222"
         style="stroke-width:0.625417">
        <g
           clip-path="url(#clip12-1-8)"
           clip-rule="nonzero"
           id="g220"
           style="stroke-width:0.820324">
          <path
             style="fill:#542623;fill-opacity:1;fill-rule:nonzero;stroke:none;stroke-width:0.476818"
             d="m 180.33984,341.75391 c -1.88672,0 -3.76562,0.75781 -5.14453,2.2539 -2.60547,2.81641 -2.44531,7.21094 0.33985,9.84766 0,0 0.12109,0.10937 0.35937,0.32422 10.66797,9.73828 17.63672,23.08984 21.60547,32.57422 4.55469,10.88281 13.78125,19.125 24.67578,22.05078 6.72266,1.80078 14.14453,2.71484 22.06641,2.71484 36.43359,0 73.48047,-18.97266 76.58593,-20.59375 2.30079,-1.14844 3.88282,-3.52344 3.88282,-6.26953 0,-3.79688 -3.01953,-6.88672 -6.78907,-6.99609 -0.0703,-0.004 -0.14062,-0.004 -0.21093,-0.004 -0.0547,0 -0.11328,0 -0.16797,0 -0.0859,0.004 -0.17578,0.008 -0.26172,0.0117 -5.14063,0.27344 -10.28906,0.41406 -15.30859,0.41406 -32.125,0 -61.14454,-5.48828 -86.25782,-16.3125 -19.23437,-8.29297 -29.28515,-16.95312 -30.45703,-17.99609 l -0.24609,-0.22266 c -1.33203,-1.20312 -3.00391,-1.79687 -4.67188,-1.79687 m 137.36719,42.90234 h 0.008 m -137.133,-35.67177 c 3.48047,3.10157 42.35938,36.09766 121.39063,36.09766 5.08203,0 10.32031,-0.13672 15.73437,-0.42578 0,0 -37.52344,19.86328 -73.46484,19.86328 -6.90235,0 -13.74219,-0.73047 -20.25,-2.47656 -9.125,-2.44922 -16.39063,-9.28125 -20.03516,-17.99219 -4.10547,-9.80859 -11.625,-24.35547 -23.375,-35.06641 M 180.32422,348.75 c 0.0859,0.0781 0.17187,0.15234 0.25781,0.23437 -0.17187,-0.15625 -0.25781,-0.23437 -0.25781,-0.23437"
             id="path218" />
        </g>
      </g>
      <g
         clip-path="url(#clip13-8-3)"
         clip-rule="nonzero"
         id="g228"
         style="stroke-width:0.625417">
        <g
           clip-path="url(#clip14-7-4)"
           clip-rule="nonzero"
           id="g226"
           style="stroke-width:0.820324">
          <path
             style="fill:#cf4f6b;fill-opacity:1;fill-rule:nonzero;stroke:none;stroke-width:0.476818"
             d="m 219.69141,404.12891 c 0,0 22.29296,-19.04688 45.04296,-20.02735 22.7461,-0.98047 41.96485,10.89063 41.96485,10.89063 0,0 -42.06641,44.85156 -87.00781,9.13672"
             id="path224" />
        </g>
      </g>
      <g
         clip-path="url(#clip15-9-2)"
         clip-rule="nonzero"
         id="g234"
         style="stroke-width:0.625417">
        <g
           clip-path="url(#clip16-2-6)"
           clip-rule="nonzero"
           id="g232"
           style="stroke-width:0.820324">
          <path
             style="fill:#542623;fill-opacity:1;fill-rule:nonzero;stroke:none;stroke-width:0.476818"
             d="m 225.46094,404.07031 c 16.5664,11.60547 34.45703,13.51172 53.23828,5.65625 10.0664,-4.21094 17.8789,-10.26953 22.0625,-13.9375 -6.625,-3.23437 -20.50391,-8.86328 -35.87891,-8.1914 -16.20703,0.69921 -32.48047,11.34375 -39.42187,16.47265 m 31.03515,17.33594 c -11.89843,0 -25.3125,-3.67578 -38.98047,-14.53516 -0.82031,-0.65234 -1.30468,-1.63281 -1.32421,-2.67968 -0.0156,-1.04688 0.43359,-2.04297 1.22656,-2.72266 0.94922,-0.80859 23.48437,-19.84375 47.16406,-20.86328 23.55859,-1.00391 43.13672,10.90234 43.95703,11.41015 0.89453,0.55079 1.49219,1.47657 1.63281,2.51563 0.13672,1.04297 -0.19921,2.08984 -0.91796,2.85547 -0.44922,0.48047 -11.21875,11.83984 -27.85547,18.79687 -6.91016,2.89063 -15.42578,5.22266 -24.90235,5.22266"
             id="path230" />
        </g>
      </g>
      <g
         clip-path="url(#clip17-0-9)"
         clip-rule="nonzero"
         id="g240"
         style="stroke-width:0.625417">
        <g
           clip-path="url(#clip18-2-6)"
           clip-rule="nonzero"
           id="g238"
           style="stroke-width:0.820324">
          <path
             style="fill:#ffffff;fill-opacity:1;fill-rule:nonzero;stroke:none;stroke-width:0.476818"
             d="m 223.78516,363.47266 c -0.96485,3.64843 -2.6836,8.8125 -3.64454,12.46093 -0.15234,0.57813 -0.30078,1.21485 -0.0391,1.75 0.21094,0.4375 0.64453,0.71094 1.0625,0.95703 13.1875,7.77344 28.57031,10.75391 43.61328,13.60938 1.76953,-3.51172 3.76953,-8.80469 4.42969,-12.67969"
             id="path236" />
        </g>
      </g>
      <g
         clip-path="url(#clip19-3-4)"
         clip-rule="nonzero"
         id="g246"
         style="stroke-width:0.625417">
        <g
           clip-path="url(#clip20-5-5)"
           clip-rule="nonzero"
           id="g244"
           style="stroke-width:0.820324">
          <path
             style="fill:#542623;fill-opacity:1;fill-rule:nonzero;stroke:none;stroke-width:0.476818"
             d="M 223.44922,377.13281 Z M 264.77734,395.75 c -0.21484,0 -0.43359,-0.0195 -0.65234,-0.0625 -14.47266,-2.74609 -30.875,-5.85938 -44.73828,-14.03125 -0.57031,-0.33594 -1.75391,-1.03516 -2.4375,-2.44531 -0.83594,-1.72657 -0.40235,-3.375 -0.19531,-4.16797 0.5,-1.88672 1.1914,-4.15625 1.85937,-6.35156 0.64844,-2.14063 1.32031,-4.35157 1.78906,-6.11329 0.49219,-1.87109 2.40625,-2.98828 4.27735,-2.49218 1.86718,0.49609 2.98047,2.41015 2.48828,4.27734 -0.5,1.89063 -1.19141,4.16406 -1.85938,6.36328 -0.55859,1.84375 -1.13672,3.73828 -1.58203,5.35156 11.85547,6.76954 25.57813,9.65235 39.02735,12.22266 1.28125,-2.95703 2.53906,-6.58594 3.0039,-9.31641 0.32422,-1.90625 2.12891,-3.1875 4.03516,-2.86328 1.90625,0.32422 3.1875,2.12891 2.86328,4.03516 -0.75391,4.42969 -2.92969,10.05859 -4.75391,13.66797 -0.60547,1.19531 -1.82422,1.92578 -3.125,1.92578"
             id="path242" />
        </g>
      </g>
      <g
         clip-path="url(#clip21-9-4)"
         clip-rule="nonzero"
         id="g252"
         style="stroke-width:0.625417">
        <g
           clip-path="url(#clip22-2-7)"
           clip-rule="nonzero"
           id="g250"
           style="stroke-width:0.820324">
          <path
             style="fill:#ffffff;fill-opacity:1;fill-rule:nonzero;stroke:none;stroke-width:0.476818"
             d="m 205.17969,364.18359 c -1.8086,3.29688 -4.63672,7.96485 -6.95313,10.92969 -10.98828,-6.06641 -21.73047,-12.58203 -32.1875,-19.53125 -0.85937,-0.57031 -1.80078,-1.27344 -1.91797,-2.30078 -0.0781,-0.69141 0.2461,-1.35547 0.57032,-1.97266 2.30468,-4.39843 4.23828,-8.00781 7.34375,-11.88281"
             id="path248" />
        </g>
      </g>
      <g
         clip-path="url(#clip23-2-7)"
         clip-rule="nonzero"
         id="g258"
         style="stroke-width:0.625417">
        <g
           clip-path="url(#clip24-8-7)"
           clip-rule="nonzero"
           id="g256"
           style="stroke-width:0.820324">
          <path
             style="fill:#542623;fill-opacity:1;fill-rule:nonzero;stroke:none;stroke-width:0.476818"
             d="m 167.57031,353.38672 z m 30.65625,25.22656 c -0.57422,0 -1.15625,-0.14062 -1.6914,-0.43359 -11.02735,-6.08985 -21.94141,-12.71094 -32.4336,-19.6836 -0.9414,-0.625 -3.14844,-2.09375 -3.45703,-4.82031 -0.20312,-1.80078 0.54297,-3.22656 0.94922,-3.99219 2.20312,-4.20312 4.28516,-8.17187 7.71094,-12.44531 1.20703,-1.51172 3.41015,-1.75391 4.91797,-0.54297 1.51171,1.20703 1.7539,3.41016 0.54296,4.91797 -2.73437,3.41406 -4.5,6.60547 -6.82421,11.03125 0.0117,0.008 0.0273,0.0156 0.0391,0.0234 9.47265,6.29687 19.29297,12.30078 29.23437,17.875 1.72657,-2.53906 3.57422,-5.62891 4.89453,-8.04297 0.92969,-1.69531 3.0586,-2.31641 4.75,-1.38672 1.69532,0.92969 2.31641,3.05469 1.39063,4.75 -1.78125,3.25391 -4.75391,8.19141 -7.26172,11.40625 -0.68359,0.875 -1.71484,1.34375 -2.76172,1.34375"
             id="path254" />
        </g>
      </g>
      <g
         clip-path="url(#clip25-9-2)"
         clip-rule="nonzero"
         id="g264"
         style="stroke-width:0.625417">
        <g
           clip-path="url(#clip26-7-1)"
           clip-rule="nonzero"
           id="g262"
           style="stroke-width:0.820324">
          <path
             style="fill:#6bca82;fill-opacity:1;fill-rule:nonzero;stroke:none;stroke-width:0.476818"
             d="m 155.63672,310.98047 c 2.53515,-7.4336 8.39844,-14.59766 16.23047,-15.17969 3.86328,-0.28906 7.64062,1.05859 11.27734,2.38672 31.23438,11.38281 62.47266,22.76953 93.44922,34.82812 13.46875,5.2461 26.88672,10.61329 40.30469,15.98438 l 0.5625,2.25 c -0.48047,0.48047 -0.9336,0.98828 -1.35938,1.51953 -0.91406,0.73047 -1.75781,1.5625 -2.51172,2.51953 -1.38281,2.04688 -2.84765,4.09375 -3.99609,6.28125 -1.0625,2.01563 -1.69531,4.39453 -2.24609,6.56641 -1.11329,4.39453 -0.44922,8.78515 0.74218,13.03906 -44.51172,-2.01953 -90.02343,-12.40234 -121.62109,-29.92578 -5.24219,-2.90625 -15.875,-12.20703 -21.07422,-15.18359 -5.20312,-2.97657 -9.73047,-7.71485 -10.92578,-13.58985 -0.77734,-3.82031 -0.0898,-7.80859 1.16797,-11.49609"
             id="path260" />
        </g>
      </g>
      <g
         clip-path="url(#clip27-3-6)"
         clip-rule="nonzero"
         id="g270"
         style="stroke-width:0.625417">
        <g
           clip-path="url(#clip28-6-5)"
           clip-rule="nonzero"
           id="g268"
           style="stroke-width:0.820324">
          <path
             style="fill:#542623;fill-opacity:1;fill-rule:nonzero;stroke:none;stroke-width:0.476818"
             d="m 328.20312,391.17187 c -0.23437,0 -0.47265,-0.0195 -0.70703,-0.0703 -2.30468,-0.47265 -4.01562,-3.02734 -5.28125,-6.02734 -23.69531,-0.0703 -57.62109,-1.99219 -89.875,-10.3125 -39,-10.0625 -66.19922,-27.02735 -80.83593,-50.42969 -2.7461,-4.38281 -0.91797,-9.54297 0.41406,-13.3125 0.13672,-0.39844 0.27734,-0.78516 0.40625,-1.16797 2.59765,-7.625 9.21094,-16.79297 19.28515,-17.53906 4.67969,-0.35156 8.95704,1.21094 12.73438,2.58594 l 0.12891,0.0469 c 30.6875,11.1875 62.41796,22.75391 93.39062,34.8086 13.48438,5.25 27.13672,10.71484 40.33594,15.99609 1.79297,0.71875 2.66797,2.75781 1.94922,4.55078 -0.71875,1.79297 -2.75391,2.66797 -4.55078,1.94922 -13.1836,-5.27734 -26.82032,-10.73438 -40.27344,-15.97266 -30.89844,-12.02734 -62.59766,-23.58203 -93.2461,-34.7539 l -0.13281,-0.0508 c -3.26172,-1.1875 -6.64062,-2.41016 -9.8164,-2.1836 -6.67188,0.4961 -11.26954,7.21485 -13.17969,12.82031 -0.13672,0.40625 -0.28516,0.82032 -0.4336,1.2461 -0.95312,2.6914 -2.03125,5.74219 -1.07812,7.26562 13.65625,21.82813 39.44531,37.76172 76.65234,47.36328 30.56641,7.88672 62.78125,9.89454 85.92969,10.07813 -0.20312,-0.84766 -0.375,-1.61328 -0.51953,-2.25 -0.40625,-1.82422 0.69141,-3.64844 2.49219,-4.14063 1.79687,-0.48828 3.67187,0.51563 4.2539,2.28907 l 2.125,6.52734 c 0.14453,0.44922 0.19922,0.91406 0.16016,1.37109 0.46094,1.23438 0.89453,2.19141 1.23437,2.6836 1.38282,0.6914 2.1875,2.24609 1.86329,3.83594 -0.33985,1.65234 -1.80079,2.79296 -3.42579,2.79296"
             id="path266" />
        </g>
      </g>
      <g
         clip-path="url(#clip29-1-4)"
         clip-rule="nonzero"
         id="g276"
         style="stroke-width:0.625417">
        <g
           clip-path="url(#clip30-2-0)"
           clip-rule="nonzero"
           id="g274"
           style="stroke-width:0.820324">
          <path
             style="fill:#542623;fill-opacity:1;fill-rule:nonzero;stroke:none;stroke-width:0.476818"
             d="m 232.17187,335.82031 c -1.2539,-1.36719 0.66407,-2.30469 2.44141,-2.82812 1.90234,-0.5625 3.85547,-0.96094 5.82422,-1.19141 1.42578,-0.16797 2.92187,-0.23437 4.23828,0.33594 1.31641,0.57422 2.375,1.96484 2.125,3.375 -0.28516,1.6289 -2.04297,2.52344 -3.63672,2.96094 -1.32422,0.36718 -2.74609,0.58984 -4.07031,0.20703 -1.32031,-0.38282 -2.39063,-1.32422 -3.55859,-2.05469 -1.16407,-0.73438 -2.42969,0.20703 -3.36329,-0.80469"
             id="path272" />
        </g>
      </g>
      <g
         clip-path="url(#clip31-9-1)"
         clip-rule="nonzero"
         id="g282"
         style="stroke-width:0.625417">
        <g
           clip-path="url(#clip32-1-7)"
           clip-rule="nonzero"
           id="g280"
           style="stroke-width:0.820324">
          <path
             style="fill:#542623;fill-opacity:1;fill-rule:nonzero;stroke:none;stroke-width:0.476818"
             d="m 209.17187,327.08203 c 1.69922,-0.74609 0.32032,-2.375 -1.09765,-3.57031 -1.51953,-1.27735 -3.14453,-2.42578 -4.85547,-3.42969 -1.23828,-0.72656 -2.58203,-1.39062 -4.01563,-1.39453 -1.43359,-0.004 -2.96484,0.84375 -3.30468,2.23828 -0.39063,1.60547 0.85937,3.12891 2.14062,4.17188 1.07031,0.86718 2.28125,1.64062 3.64453,1.82031 1.36719,0.18359 2.72657,-0.25 4.08594,-0.44922 1.36328,-0.20313 2.14453,1.16797 3.40234,0.61328"
             id="path278" />
        </g>
      </g>
      <g
         clip-path="url(#clip33-4-1)"
         clip-rule="nonzero"
         id="g288"
         style="stroke-width:0.625417">
        <g
           clip-path="url(#clip34-8-9)"
           clip-rule="nonzero"
           id="g286"
           style="stroke-width:0.820324">
          <path
             style="fill:#542623;fill-opacity:1;fill-rule:nonzero;stroke:none;stroke-width:0.476818"
             d="m 333.57422,339.03125 c -1.5,0 -2.89063,-0.97266 -3.34766,-2.48047 -2.42187,-7.98047 -6.67969,-13.57422 -12.66015,-16.625 -11.05469,-5.64453 -24.69532,-1.04687 -24.83594,-1 -1.81641,0.62891 -3.81641,-0.33203 -4.44922,-2.16016 -0.63281,-1.82031 0.32422,-3.8125 2.14844,-4.44921 0.66797,-0.23438 16.51172,-5.63672 30.26953,1.34375 7.76562,3.94531 13.22656,10.96093 16.22656,20.85546 0.55859,1.85157 -0.48437,3.80469 -2.33203,4.36719 -0.33984,0.10156 -0.68359,0.14844 -1.01953,0.14844"
             id="path284" />
        </g>
      </g>
      <g
         clip-path="url(#clip35-4-7)"
         clip-rule="nonzero"
         id="g294"
         style="stroke-width:0.625417">
        <g
           clip-path="url(#clip36-5-7)"
           clip-rule="nonzero"
           id="g292"
           style="stroke-width:0.820324">
          <path
             style="fill:#542623;fill-opacity:1;fill-rule:nonzero;stroke:none;stroke-width:0.476818"
             d="m 298.12891,306.10547 c -0.85157,0 -1.70704,-0.3086 -2.38282,-0.9375 -1.41015,-1.31641 -1.49609,-3.52344 -0.18359,-4.9375 1.06641,-1.14844 10.66797,-11.08985 19.83984,-6.82031 1.75391,0.8164 2.51172,2.89843 1.69922,4.65234 -0.82031,1.75 -2.90234,2.51172 -4.65234,1.69531 -3.90235,-1.82031 -9.94531,3.30078 -11.75781,5.23828 -0.6875,0.73828 -1.625,1.10938 -2.5625,1.10938"
             id="path290" />
        </g>
      </g>
      <g
         clip-path="url(#clip37-0-6)"
         clip-rule="nonzero"
         id="g300"
         style="stroke-width:0.625417">
        <g
           clip-path="url(#clip38-3-6)"
           clip-rule="nonzero"
           id="g298"
           style="stroke-width:0.820324">
          <path
             style="fill:#542623;fill-opacity:1;fill-rule:nonzero;stroke:none;stroke-width:0.476818"
             d="m 222.61719,302.22656 c -1.50391,0 -2.89063,-0.97265 -3.35157,-2.48437 -2.61328,-8.6211 -6.80078,-14.17578 -12.4414,-16.51172 -8.79297,-3.64063 -18.48438,1.44531 -18.58203,1.49609 -1.70703,0.91406 -3.82422,0.26953 -4.73828,-1.43359 -0.91016,-1.70313 -0.26954,-3.82422 1.43359,-4.73828 0.51953,-0.27344 12.74609,-6.6836 24.56641,-1.78907 7.67187,3.17579 13.21093,10.22266 16.46093,20.94532 0.5625,1.84765 -0.48437,3.80078 -2.33203,4.36328 -0.33984,0.10156 -0.67969,0.15234 -1.01562,0.15234"
             id="path296" />
        </g>
      </g>
      <g
         clip-path="url(#clip39-6-9)"
         clip-rule="nonzero"
         id="g306"
         style="stroke-width:0.625417">
        <g
           clip-path="url(#clip40-1-8)"
           clip-rule="nonzero"
           id="g304"
           style="stroke-width:0.820324">
          <path
             style="fill:#542623;fill-opacity:1;fill-rule:nonzero;stroke:none;stroke-width:0.476818"
             d="m 227.26953,283.31641 c -1.35937,0 -2.65234,-0.79688 -3.21875,-2.125 -1.05078,-2.4336 -5.01953,-9.3125 -9.29297,-8.91016 -1.91797,0.17187 -3.625,-1.24219 -3.80078,-3.16797 -0.17578,-1.92578 1.24609,-3.62891 3.16797,-3.80078 10.07812,-0.91406 15.75,11.69141 16.36328,13.13281 0.75781,1.77735 -0.0703,3.83203 -1.85156,4.58985 -0.44531,0.1914 -0.91016,0.28125 -1.36719,0.28125"
             id="path302" />
        </g>
      </g>
      <g
         clip-path="url(#clip41-0-2)"
         clip-rule="nonzero"
         id="g312"
         style="stroke-width:0.625417">
        <g
           clip-path="url(#clip42-6-3)"
           clip-rule="nonzero"
           id="g310"
           style="stroke-width:0.820324">
          <path
             style="fill:#542623;fill-opacity:1;fill-rule:nonzero;stroke:none;stroke-width:0.476818"
             d="m 227.13672,421.51172 c -5.06641,0 -10.9961,-1.78906 -14.64844,-3.8086 -3.58203,-1.98046 -5.40234,-4.26562 -7.33203,-6.6875 -0.60547,-0.75781 -1.23047,-1.54296 -1.94531,-2.36328 -1.27344,-1.45703 -1.1211,-3.66797 0.33593,-4.9375 1.45313,-1.26953 3.66407,-1.125 4.9375,0.33203 0.81641,0.94141 1.52344,1.82422 2.14844,2.60938 1.73438,2.17578 2.87891,3.61719 5.2461,4.92187 3.3125,1.83594 9.3125,3.40235 12.95312,2.8125 1.91016,-0.30468 3.70703,0.98829 4.01563,2.89454 0.30859,1.91015 -0.98829,3.70703 -2.89454,4.01562 -0.89062,0.14453 -1.83593,0.21094 -2.8164,0.21094"
             id="path308" />
        </g>
      </g>
      <path
         style="fill:#542623;fill-opacity:1;fill-rule:nonzero;stroke:none;stroke-width:0.476818"
         d="m 200.81641,212.62109 h 0.008 z m 36.19531,207.28125 c 0.64453,0 1.28906,0.14063 1.88281,0.41407 l 33.45703,15.39453 20.53516,-21.4961 c 0.89453,-0.93359 2.13672,-1.45312 3.4375,-1.38672 l 59.41015,2.40625 4.13282,-29.43359 c 0.30859,-2.22266 2.21093,-3.875 4.45703,-3.875 h 40.77344 l -5.96094,-50.97656 c -0.21875,-1.86719 0.74609,-3.67578 2.42187,-4.53125 l 20.46094,-10.46094 -6.81641,-53.12891 -50.94531,-9.07812 c -1.53515,-0.27344 -2.82031,-1.32422 -3.39453,-2.77344 -0.57422,-1.45312 -0.35547,-3.09765 0.57813,-4.34765 l 16.51953,-22.14063 -47.48828,11.63281 c -0.98438,0.23828 -2.02344,0.14063 -2.94532,-0.28125 l -38.55859,-17.67968 -16.14063,9.89453 c -1.92968,1.17968 -4.4375,0.74609 -5.85937,-1.01563 l -20.88281,-25.94531 -15.3711,15.17969 c -1.26562,1.25 -3.15234,1.63672 -4.80859,0.98437 -1.66016,-0.65234 -2.77344,-2.22265 -2.84766,-4 l -0.11718,-2.84765 -1.4336,1.47656 c -0.97656,1.01172 -2.36719,1.50781 -3.76562,1.33984 -1.39453,-0.16797 -2.62891,-0.97265 -3.34375,-2.18359 l -5.6836,-9.64844 -3.57422,12.46484 c -0.54687,1.90235 -2.26953,3.22657 -4.25,3.26172 l -23.125,0.37891 -1.17187,24.3125 c -0.0469,0.94922 -0.39063,1.85937 -0.98438,2.60156 l -21.85937,27.25391 11.40625,8.47656 c 0.98047,0.72656 1.62109,1.82031 1.78125,3.02734 0.15625,1.20704 -0.18359,2.42969 -0.9375,3.38282 l -32.16797,40.51172 20.16406,22.90234 c 0.99219,1.12891 1.35938,2.67969 0.96875,4.13281 l -7.91015,29.73828 36.46093,15.83985 c 1.85547,0.80468 2.94532,2.75 2.66016,4.7539 l -3.5,24.78125 53.57031,-9.24609 c 0.25391,-0.043 0.50782,-0.0664 0.76563,-0.0664 m 36.37109,25.73828 c -0.63281,0 -1.27344,-0.13671 -1.8789,-0.41406 l -35.10547,-16.15234 -58.27344,10.0625 c -1.42188,0.24219 -2.86719,-0.20313 -3.90234,-1.20313 -1.03125,-1.0039 -1.52344,-2.4375 -1.32032,-3.85937 l 3.88672,-27.50781 -36.87109,-16.01172 c -2.04297,-0.89063 -3.12891,-3.13672 -2.55469,-5.28516 l 8.28906,-31.16016 -21.0625,-23.92187 c -1.4375,-1.63281 -1.5,-4.06641 -0.14453,-5.76953 l 31.61719,-39.82031 -11.42969,-8.49219 c -0.98047,-0.73047 -1.625,-1.82422 -1.77734,-3.03906 -0.15625,-1.21094 0.1875,-2.4336 0.94922,-3.38672 l 23.86718,-29.75782 1.3086,-27.07031 c 0.11328,-2.36719 2.04687,-4.24219 4.42187,-4.28125 l 24.00782,-0.39453 5.53906,-19.32422 c 0.49609,-1.73047 1.97265,-3 3.75781,-3.22656 1.77734,-0.23047 3.53125,0.62891 4.44531,2.17969 l 8,13.57812 4.6211,-4.76562 c 1.25,-1.29297 3.15234,-1.71875 4.83593,-1.07813 1.67969,0.64453 2.81641,2.22266 2.89063,4.01953 l 0.13281,3.16016 11.67188,-11.52734 c 0.90625,-0.89454 2.14453,-1.36719 3.42187,-1.29297 1.26953,0.0742 2.44922,0.67968 3.2461,1.67187 L 271.5,218.3125 l 14.8125,-9.07813 c 1.27734,-0.78515 2.86328,-0.8789 4.22656,-0.2539 l 39.31641,18.02344 58.13281,-14.23829 c 1.83984,-0.45312 3.76953,0.30079 4.82031,1.88672 1.04688,1.58203 0.98828,3.65235 -0.14453,5.17578 l -19.65234,26.33985 47.02344,8.3789 c 1.9375,0.34375 3.42578,1.90625 3.67578,3.85547 l 7.63672,59.54688 c 0.24218,1.88281 -0.72266,3.71484 -2.41407,4.57812 l -20.49218,10.48047 6.18359,52.89453 c 0.14844,1.27735 -0.25391,2.55469 -1.10938,3.51563 -0.85546,0.95703 -2.07812,1.50781 -3.36328,1.50781 h -41.91797 l -4.15625,29.59766 c -0.3125,2.22656 -2.21875,3.875 -4.45312,3.875 -0.0586,0 -0.12109,-0.004 -0.18359,-0.004 l -61.44922,-2.49219 -21.35157,22.34375 c -0.86718,0.91016 -2.05468,1.39453 -3.25781,1.39453"
         id="path314" />
      <path
         style="fill:#542623;fill-opacity:1;fill-rule:nonzero;stroke:none;stroke-width:0.476818"
         d="m 300.61328,246.97656 c -0.61328,0 -1.21875,0.0508 -1.80859,0.16016 -2.88282,0.52734 -5.59766,2.5039 -7.64063,4.16797 -9.85937,8.02343 -17,19.23047 -20.11328,31.55078 -3.46094,13.69922 -1.85156,28.23828 -0.0625,39.375 1.1875,7.39062 2.80469,15.11719 6.55469,21.53125 4.95312,8.46875 13.97656,15.01953 24.76172,17.96875 9.47656,2.58984 20.26562,2.58203 32.07031,-0.0274 4.55469,-1.00781 10.36719,-2.60937 14.92187,-6.10937 3.29297,-2.52734 5.89454,-5.94922 8.78516,-10.30859 6.42188,-9.6836 11.91406,-20.04297 16.32031,-30.78907 5.70313,-13.89843 5.81641,-22.375 0.35547,-26.67578 -19.66406,-15.48828 -41.30469,-28.3164 -64.32812,-38.13672 -3.25391,-1.38672 -6.65625,-2.70703 -9.81641,-2.70703 m 16.79297,123.69141 c -5.96094,0 -11.62109,-0.72656 -16.94922,-2.1836 -12.53516,-3.42968 -23.08984,-11.15234 -28.95703,-21.1914 -4.33203,-7.40625 -6.125,-15.89063 -7.42188,-23.95313 -1.89843,-11.80078 -3.58984,-27.26172 0.1836,-42.19922 3.48047,-13.77343 11.46484,-26.29687 22.48047,-35.26562 2.6914,-2.19141 6.35156,-4.8125 10.80078,-5.625 5.5625,-1.01563 10.76953,0.92187 15.63281,2.99609 23.58984,10.0625 45.76563,23.20703 65.91406,39.07422 12.15235,9.57422 4.35157,28.58594 1.78907,34.83203 -4.58204,11.17188 -10.28907,21.9375 -16.96094,32 -2.83985,4.27735 -6.0586,8.69141 -10.35938,11.99219 -5.64843,4.33984 -12.41406,6.23047 -17.67187,7.39453 -6.42188,1.41797 -12.59375,2.12891 -18.48047,2.12891"
         id="path316-2" />
      <path
         style="fill:#542623;fill-opacity:1;fill-rule:nonzero;stroke:none;stroke-width:0.476818"
         d="m 265.93359,309.37109 c -1.23828,0 -2.43359,-0.65625 -3.07031,-1.8164 -5.21484,-9.50391 -17.12109,-14.8711 -27.69922,-12.49219 -1.88281,0.42969 -3.75781,-0.75781 -4.17969,-2.64453 -0.42578,-1.88281 0.75782,-3.75781 2.64454,-4.1836 13.5,-3.04687 28.70703,3.81641 35.36718,15.94922 0.9336,1.69532 0.3125,3.82422 -1.38281,4.75391 -0.53516,0.29297 -1.11328,0.43359 -1.67969,0.43359"
         id="path318" />
      <path
         style="fill:#542623;fill-opacity:1;fill-rule:nonzero;stroke:none;stroke-width:0.476818"
         d="m 222.89844,316.26562 c -1.13282,0 -2.24219,-0.54687 -2.91797,-1.55859 -1.07031,-1.60937 -0.63672,-3.78125 0.97265,-4.85547 15.42579,-10.27344 21.65625,-29.6289 27.17579,-50.24609 0.92578,-3.46094 1.66015,-6.76172 0.46484,-9.07813 -0.80469,-1.55859 -2.58203,-2.8125 -4.48828,-4.0664 -7.61719,-5.01563 -15.67578,-9.51563 -23.94922,-13.375 -16.27344,-7.58985 -28.88672,-8.46875 -37.48828,-2.60157 -4.67578,3.1875 -7.86328,8.33594 -10.11719,12.46875 -10.24219,18.75 -12.79687,39.19532 -7.01953,56.10157 0.625,1.82812 -0.35156,3.8164 -2.17969,4.4414 -1.82812,0.62891 -3.82031,-0.34765 -4.44531,-2.17968 -6.41016,-18.75391 -3.67969,-41.25 7.5,-61.71875 2.62891,-4.82032 6.41016,-10.86719 12.31641,-14.89454 10.78515,-7.35546 25.72265,-6.66796 44.39453,2.03907 8.57812,4.0039 16.9375,8.66797 24.83984,13.87109 2.60156,1.71484 5.27734,3.64453 6.85547,6.70703 2.53516,4.91016 1.05469,10.4375 0.0781,14.09766 -5.8789,21.95703 -12.60156,42.63281 -30.05468,54.26172 -0.59766,0.39843 -1.26953,0.58593 -1.9375,0.58593"
         id="path320" />
      <path
         style="fill:#542623;fill-opacity:1;fill-rule:nonzero;stroke:none;stroke-width:0.476818"
         d="m 333.44141,227.13672 c -4.66797,-0.24219 -8.49219,4.35937 -8.94532,9.01172 -0.45312,4.65625 1.60157,9.17578 3.95313,13.21484 5.91015,10.15625 14.91015,19.48047 26.47265,21.5625 3.63672,0.65625 7.48438,0.54297 10.90625,-0.85156 3.42188,-1.39844 6.36329,-4.1836 7.46094,-7.71094 1.55469,-5 -0.73437,-10.39062 -3.67969,-14.72266 -7.375,-10.84765 -19.3125,-18.48046 -32.2539,-20.62109"
         id="path322-0" />
      <path
         style="fill:#fdfad7;fill-opacity:1;fill-rule:nonzero;stroke:none;stroke-width:0.476818"
         d="m 269.26953,168.01953 c -1.29297,2.31641 -1.29687,5.14063 0.0352,7.43359 3.15234,5.42969 11.33203,14.89454 31.58203,20.73829 21.67578,6.25781 33.30859,-1.96094 37.61328,-6.22657 1.25781,-1.24609 2.03125,-2.89453 2.19531,-4.66015 L 354.14453,39.589844 c 0.39063,-6.207032 -7.80859,-8.777344 -11.02734,-3.453125 z m 0,0"
         id="path324" />
      <path
         style="fill:#fdfad7;fill-opacity:1;fill-rule:nonzero;stroke:none;stroke-width:0.476818"
         d="m 340.51172,40.785156 c 0,0 1.61719,9.003906 12.22656,14.023438"
         id="path328-6" />
      <path
         style="fill:#fdfad7;fill-opacity:1;fill-rule:nonzero;stroke:none;stroke-width:0.476818"
         d="m 324.66406,69.09375 c 0,0 10.27344,19.394531 24.77344,21.484375"
         id="path332" />
      <path
         style="fill:#fdfad7;fill-opacity:1;fill-rule:nonzero;stroke:none;stroke-width:0.476818"
         d="m 309.92578,95.410156 c 0,0 12.69141,25.203124 36.28516,30.148434"
         id="path336" />
      <path
         style="fill:#fdfad7;fill-opacity:1;fill-rule:nonzero;stroke:none;stroke-width:0.476818"
         d="m 296.74609,118.94922 c -0.0391,0.0742 14.09375,35.73437 46.21485,41.82422"
         id="path340-5" />
      <path
         style="fill:#fdfad7;fill-opacity:1;fill-rule:nonzero;stroke:none;stroke-width:0.476818"
         d="m 282.57812,144.25 c 0,0 4.52344,37.27734 48.21875,48.12891"
         id="path344" />
      <g
         id="g123013"
         style="fill:#d4aa00;stroke-width:0.476818">
        <path
           style="fill:#d4aa00;fill-opacity:1;fill-rule:nonzero;stroke:none;stroke-width:0.476818"
           d="m 273.19531,170.21875 c -0.52344,0.9375 -0.52344,2.07422 0,2.97266 2.69141,4.63281 10.02735,13.21875 28.9375,18.67578 19.60547,5.66015 29.75,-1.67969 33.19922,-5.09766 0.50391,-0.5 0.81641,-1.16406 0.88281,-1.87891 L 349.65625,39.261719 c 0.0312,-0.730469 -0.3125,-1.207031 -1.01563,-1.429688 -0.70312,-0.222656 -1.2539,-0.02344 -1.64453,0.585938 z m 42.49219,32.73047 c -4.69922,0 -10.03516,-0.69922 -16.05078,-2.4336 -21.92969,-6.33203 -30.85547,-17.0039 -34.22656,-22.80468 -2.10938,-3.63672 -2.13672,-8.19141 -0.0664,-11.88672 L 339.19141,33.9375 c 0.0234,-0.04687 0.0469,-0.08984 0.0742,-0.132812 2.53907,-4.195313 7.38672,-6.027344 12.0625,-4.5625 4.67969,1.46875 7.61719,5.738281 7.3086,10.632812 -0.004,0.04297 -0.008,0.08594 -0.0117,0.128906 L 345.17578,185.71875 c -0.26172,2.81641 -1.50781,5.46094 -3.51172,7.44531 -3.4375,3.40625 -11.78125,9.78516 -25.97656,9.78516"
           id="path326" />
        <path
           style="fill:#d4aa00;fill-opacity:1;fill-rule:nonzero;stroke:none;stroke-width:0.476818"
           d="m 352.73828,59.308594 c -0.64844,0 -1.30078,-0.136719 -1.92187,-0.433594 -12.5625,-5.941406 -14.64844,-16.835938 -14.73438,-17.296875 -0.4375,-2.445313 1.19141,-4.785156 3.63672,-5.222656 2.42969,-0.4375 4.75391,1.167969 5.21484,3.589843 0.0781,0.375 1.57032,6.9375 9.73047,10.796876 2.2461,1.058593 3.20703,3.742187 2.14453,5.988281 -0.76953,1.625 -2.38672,2.578125 -4.07031,2.578125"
           id="path330" />
        <path
           style="fill:#d4aa00;fill-opacity:1;fill-rule:nonzero;stroke:none;stroke-width:0.476818"
           d="m 349.44531,95.078125 c -0.21484,0 -0.43359,-0.01563 -0.64844,-0.04297 -16.57421,-2.394531 -27.64843,-22.960937 -28.11328,-23.835937 -1.16015,-2.195313 -0.32422,-4.917969 1.8711,-6.082031 2.19531,-1.164063 4.91797,-0.328126 6.08203,1.863281 2.57812,4.839843 11.45703,17.703125 21.44531,19.144531 2.45703,0.355469 4.16406,2.636719 3.80859,5.097656 -0.32031,2.242188 -2.24609,3.855469 -4.44531,3.855469"
           id="path334-1" />
        <path
           style="fill:#d4aa00;fill-opacity:1;fill-rule:nonzero;stroke:none;stroke-width:0.476818"
           d="m 346.21484,130.05859 c -0.30468,0 -0.61718,-0.0312 -0.92968,-0.0977 -25.42188,-5.32422 -38.82032,-31.417971 -39.37891,-32.527346 -1.11719,-2.21875 -0.22266,-4.921875 1.99609,-6.042969 2.21875,-1.117187 4.92188,-0.226563 6.03907,1.992187 0.14843,0.289063 12.08984,23.347658 33.1914,27.769528 2.4336,0.51172 3.99219,2.89454 3.48047,5.32813 -0.44141,2.12109 -2.3125,3.57812 -4.39844,3.57812"
           id="path338" />
        <path
           style="fill:#d4aa00;fill-opacity:1;fill-rule:nonzero;stroke:none;stroke-width:0.476818"
           d="m 342.96484,165.27344 c -0.27734,0 -0.5625,-0.0234 -0.84375,-0.0781 -29.33593,-5.5625 -44.46484,-33.48828 -48.40234,-41.91797 -1.33594,-2.85156 -2.07031,-4.42578 -0.90234,-6.51953 1.21093,-2.16797 3.95312,-2.94531 6.12109,-1.73828 1.01172,0.56641 1.72266,1.46485 2.06641,2.48438 0.5625,1.40234 13.74609,33.33984 42.79296,38.84765 2.44141,0.46485 4.04688,2.82031 3.58204,5.26172 -0.40625,2.15625 -2.29688,3.66016 -4.41407,3.66016"
           id="path342" />
        <path
           style="fill:#d4aa00;fill-opacity:1;fill-rule:nonzero;stroke:none;stroke-width:0.476818"
           d="m 330.80078,196.87891 c -0.35937,0 -0.72266,-0.043 -1.08594,-0.13282 -24.04687,-5.96875 -36.78515,-19.68359 -43.24218,-30.13672 -7.03125,-11.38671 -8.3086,-21.39453 -8.35938,-21.8164 -0.30078,-2.46875 1.45703,-4.71094 3.92188,-5.00781 2.46093,-0.30079 4.70312,1.44921 5.00781,3.91015 0.17969,1.39844 4.84765,34.38672 44.83984,44.31641 2.41016,0.59765 3.88281,3.03906 3.28125,5.45312 -0.50781,2.04688 -2.34375,3.41407 -4.36328,3.41407"
           id="path346-5" />
      </g>
      <path
         style="fill:#542623;fill-opacity:1;fill-rule:nonzero;stroke:none;stroke-width:0.476818"
         d="m 194.19922,209.95703 c -3.4336,3.17578 -2.8086,9.125 0.21094,12.69922 3.01562,3.57422 7.68359,5.25781 12.22265,6.39062 11.39453,2.85938 19.64844,4.16016 29.21094,-2.66406 3.00781,-2.14844 5.60937,-4.98047 7,-8.40625 1.38672,-3.42578 1.44922,-7.47656 -0.3125,-10.72656 -2.49219,-4.60156 -7.95313,-6.72266 -13.10938,-7.64063 -12.91406,-2.28906 -22.00781,-0.30468 -32.57031,7.46485"
         id="path348" />
    </g>
  </g>
</svg>
